<?xml version="1.0" encoding="iso-8859-1"?>
<svg version="1.1" xmlns="http://www.w3.org/2000/svg" xmlns:xlink="http://www.w3.org/1999/xlink"
	 viewBox="25 112.169 450 275.661" xml:space="preserve">
<g>
	<rect x="25" y="112.169" style="fill:#0076A3;" width="450" height="275.661"/>
	<path style="fill:#FFFFFF;" d="M267.922,227.004l-20.067,27.363l-20.067-27.363h-8.055c0,0-0.019,12.43-0.019,17.88
		c0,5.753,0,17.258,0,17.258l0.001,1.664l1.706,0.002c0,0,4.755,0.001,7.131-0.001c0.001-8.217,0.001-21.601,0.001-21.601
		s10.612,13.627,15.747,21.505h1.755h3.599h1.755c5.135-7.877,15.747-21.505,15.747-21.505s0,13.383,0.001,21.601
		c2.376,0.002,7.131,0.001,7.131,0.001l1.706-0.002l0.001-1.664c0,0,0-11.505,0-17.258c0-5.45-0.019-17.88-0.019-17.88H267.922z
		 M205.482,227.003c-0.001,7.723,0,17.984-0.001,25.706c0,3.27-0.653,3.923-3.942,3.924c-8.514,0.002-18.077,0.002-26.591-0.003
		c-0.514,0-1.031-0.022-1.541-0.082c-1.472-0.173-2.218-0.954-2.331-2.426c-0.03-0.392-0.017-0.787-0.017-1.18
		c-0.001-7.8,0-18.138-0.001-25.939h-8.807c-0.001,8.087-0.002,18.712,0.003,26.799c0.002,0.695,0.032,1.393,0.087,2.087
		c0.318,3.998,2.64,6.717,6.549,7.55c1.145,0.244,2.339,0.344,3.511,0.352c5.09,0.037,10.18,0.016,15.27,0.016
		c5.09,0,11.23,0.01,16.321-0.008c0.966-0.004,1.943-0.051,2.895-0.198c3.504-0.543,6.008-2.341,6.951-5.886
		c0.277-1.041,0.424-2.148,0.428-3.226c0.033-8.316,0.023-19.17,0.02-27.486H205.482z M121.417,256.634c0,0,0-21.08-0.002-29.632
		h-8.804c-0.002,10.934-0.002,24.582,0,35.516c0,0.531-0.002,1.287-0.002,1.287s5.703,0.003,7.883,0.003
		c12.183,0,26.179,0.001,38.362-0.001v-7.173C147.402,256.633,121.417,256.634,121.417,256.634z M327.632,227.308
		c-1.145-0.329-2.383-0.452-3.581-0.463c-5.271-0.048-11.451-0.021-16.722-0.021c-5.242,0-10.483-0.015-15.725,0.013
		c-1.022,0.005-2.071,0.07-3.06,0.305c-4.169,0.993-6.633,4.228-6.695,8.978c-0.08,6.176-0.029,12.354-0.015,18.53
		c0.006,1.975,0.434,3.856,1.572,5.505c1.93,2.797,4.723,3.81,8.006,3.807c10.605-0.009,22.116-0.003,32.72-0.005
		c0.364,0,0.727-0.01,1.09-0.027c4.786-0.227,8.397-3.71,8.479-8.493c0.115-6.689,0.093-13.383,0.005-20.073
		C333.656,231.497,331.211,228.334,327.632,227.308z M309.953,257.885c-0.637,0.141-1.361,0.065-2.01,0.149
		c-4.602-0.07-8.355-3.985-8.733-8.428c-0.144-1.704,0.251-3.298,1.13-4.765c2.01-3.357,6.331-11.142,6.506-11.386
		c0.739-1.034,1.472-1.045,2.194-0.009c0.36,0.518,4.413,8.12,6.287,10.988C318.822,249.78,315.563,256.639,309.953,257.885z
		 M378.352,252.578l-31.768-25.577h-8.479v36.781h8.479v-25.758c7.744,6.226,31.768,25.758,31.768,25.758h8.479v-36.781h-8.479
		V252.578z M383.962,179.218c-34.59-17.274-80.054-27.078-128.568-27.802c-0.12-0.003-0.24-0.007-0.361-0.01
		c-0.601-0.024-1.204-0.039-1.808-0.039c-0.202,0-0.404,0.008-0.605,0.011c-0.422-0.003-0.842-0.011-1.264-0.011
		c-0.24,0-0.478,0.006-0.717,0.006c-0.345-0.001-0.689-0.006-1.035-0.006c-50.679,0-98.394,9.891-134.358,27.85
		c-36.959,18.456-57.313,43.359-57.313,70.122c0,26.763,20.354,51.666,57.313,70.122c35.964,17.959,83.679,27.85,134.358,27.85
		c0.346,0,0.69-0.005,1.035-0.006c0.239,0.001,0.478,0.006,0.717,0.006c0.422,0,0.842-0.008,1.264-0.011
		c0.202,0.003,0.403,0.011,0.605,0.011c0.604,0,1.207-0.014,1.808-0.039c0.12-0.002,0.24-0.007,0.361-0.01
		c48.513-0.724,93.977-10.528,128.568-27.802c36.959-18.456,57.313-43.359,57.313-70.122
		C441.275,222.577,420.921,197.674,383.962,179.218z M387.04,185.903h-33.423c-2.534-2.176-5.199-4.283-8.007-6.309
		c-11.023-7.952-23.619-14.342-37.273-19.019C338.78,165.597,365.761,174.413,387.04,185.903z M346.498,185.903h-43.55
		c-0.983-1.743-1.994-3.457-3.065-5.106c-6.74-10.39-14.759-18.217-23.551-23.18C303.826,161.491,328.206,171.634,346.498,185.903z
		 M252.34,155.892c0.875,0.006,1.75,0.011,2.622,0.023c16.906,0.733,32.078,12.133,42.79,29.988h-89.05
		C219.591,167.751,235.093,156.274,252.34,155.892z M206.569,180.797c-1.07,1.65-2.082,3.363-3.065,5.106h-47.289
		c19.364-15.106,45.55-25.592,75.031-28.906C222.012,161.916,213.596,169.965,206.569,180.797z M197.456,159.556
		c-14.842,4.75-28.506,11.492-40.353,20.039c-2.808,2.026-5.473,4.132-8.007,6.309h-36.928
		C134.969,173.59,164.317,164.348,197.456,159.556z M106.033,309.295h39.196c3.639,3.433,7.595,6.703,11.874,9.79
		c11.847,8.546,25.511,15.289,40.353,20.039C161.263,333.891,129.592,323.347,106.033,309.295z M151.976,309.295h49.633
		c1.531,2.985,3.185,5.853,4.959,8.588c7.027,10.832,15.443,18.881,24.677,23.8C199.552,338.119,171.669,326.265,151.976,309.295z
		 M254.963,342.764c-0.873,0.012-1.749,0.017-2.625,0.023c-18.321-0.406-34.667-13.344-45.613-33.492h93.006
		C288.954,329.135,272.941,341.984,254.963,342.764z M299.883,317.883c1.774-2.735,3.428-5.603,4.959-8.588h45.887
		c-18.679,16.093-44.72,27.587-74.398,31.768C285.124,336.1,293.142,328.273,299.883,317.883z M308.337,338.104
		c13.654-4.676,26.25-11.067,37.273-19.019c4.279-3.087,8.236-6.357,11.874-9.79h35.689
		C371.055,322.487,341.786,332.587,308.337,338.104z M401.867,303.692h-38.869c4.506-4.941,8.397-10.179,11.63-15.692
		c1.654-2.82,3.11-5.684,4.386-8.583h-4.953c-4.119,8.747-9.989,16.909-17.302,24.275h-49.256
		c3.327-7.533,5.932-15.692,7.753-24.275h-4.608c-1.928,8.748-4.68,16.907-8.103,24.275h-98.638
		c-3.424-7.368-6.178-15.526-8.106-24.275h-4.607c1.821,8.583,4.426,16.742,7.753,24.275H145.97
		c-7.314-7.367-13.195-15.526-17.315-24.275h-4.957c1.276,2.899,2.733,5.763,4.386,8.583c3.233,5.513,7.124,10.751,11.63,15.692
		H97.34c-21.964-15.315-34.899-34.078-34.899-54.353c0-21.837,14.999-41.923,40.129-57.834h40.472
		c-5.946,5.938-10.954,12.346-14.958,19.173c-0.541,0.922-1.055,1.85-1.555,2.781h5.16c4.574-7.929,10.612-15.307,17.881-21.955
		h50.981c-3.302,6.801-5.973,14.179-7.993,21.955h4.674c2.14-7.926,4.958-15.309,8.359-21.955h95.269
		c3.401,6.646,6.219,14.028,8.359,21.955h4.674c-2.02-7.776-4.692-15.154-7.993-21.955h47.242
		c7.268,6.648,13.307,14.026,17.881,21.955h5.16c-0.5-0.931-1.014-1.859-1.555-2.781c-4.003-6.827-9.012-13.235-14.957-19.173
		h36.967c25.13,15.911,40.129,35.997,40.129,57.834C436.767,269.615,423.832,288.378,401.867,303.692z"/>
</g>
</svg>
