<svg width="529" height="387" viewBox="0 0 529 387" fill="none" xmlns="http://www.w3.org/2000/svg">
<g clip-path="url(#clip0)">
<path d="M128.4 214.41H148.6L119.28 303.17H96.07L74.07 236.17L52.12 303.17H29.37L0 214.41H20.66L41.5 281.86L63.37 214.41H85.37L107.51 282.23L128.4 214.41Z" fill="black"/>
<path d="M235.2 265.92H169.71C170.309 270.496 172.027 274.855 174.71 278.61C177.095 281.893 180.307 284.484 184.02 286.12C187.808 287.752 191.896 288.573 196.02 288.53C200.59 288.506 205.12 287.673 209.4 286.07C213.842 284.455 217.991 282.124 221.68 279.17L231.31 292.97C226.406 297.26 220.689 300.522 214.5 302.56C208.131 304.564 201.487 305.553 194.81 305.49C186.595 305.64 178.484 303.641 171.28 299.69C164.464 295.874 158.886 290.182 155.21 283.29C151.35 276.223 149.42 268.057 149.42 258.79C149.254 250.346 151.177 241.991 155.02 234.47C158.56 227.608 163.972 221.89 170.63 217.98C177.623 213.973 185.572 211.941 193.63 212.1C201.31 211.956 208.873 213.995 215.44 217.98C221.832 221.959 226.974 227.656 230.28 234.42C233.945 241.98 235.768 250.3 235.6 258.7C235.58 260.56 235.447 262.967 235.2 265.92ZM215.75 251.19C214.697 244.277 212.21 238.903 208.29 235.07C204.37 231.237 199.367 229.323 193.28 229.33C186.673 229.33 181.377 231.29 177.39 235.21C173.403 239.13 170.857 244.463 169.75 251.21L215.75 251.19Z" fill="black"/>
<path d="M318.069 218.12C324.815 222.123 330.346 227.886 334.069 234.79C337.934 242.2 339.952 250.433 339.952 258.79C339.952 267.147 337.934 275.38 334.069 282.79C330.334 289.717 324.777 295.493 317.999 299.494C311.221 303.494 303.479 305.568 295.609 305.49C290.088 305.597 284.615 304.441 279.609 302.11C275.012 299.883 270.986 296.634 267.839 292.61V303.18H248.449V176.63H267.809V224.97C270.96 220.955 274.986 217.713 279.579 215.49C284.584 213.154 290.058 211.998 295.579 212.11C303.485 212.013 311.265 214.093 318.069 218.12V218.12ZM307.469 283.43C311.492 280.952 314.733 277.389 316.819 273.15C318.959 268.665 320.069 263.759 320.069 258.79C320.069 253.821 318.959 248.915 316.819 244.43C314.733 240.191 311.492 236.627 307.469 234.15C303.2 231.677 298.356 230.367 293.423 230.349C288.489 230.332 283.636 231.608 279.349 234.05C275.315 236.504 272.043 240.033 269.899 244.24C267.677 248.766 266.521 253.742 266.521 258.785C266.521 263.828 267.677 268.803 269.899 273.33C272.042 277.53 275.315 281.049 279.349 283.49C283.635 285.936 288.487 287.216 293.421 287.2C298.356 287.184 303.2 285.874 307.469 283.4V283.43Z" fill="black"/>
<path d="M435.96 265.92H370.46C371.063 270.495 372.78 274.853 375.46 278.61C377.849 281.888 381.06 284.479 384.77 286.12C388.558 287.75 392.645 288.571 396.77 288.53C401.343 288.507 405.877 287.674 410.16 286.07C414.6 284.457 418.745 282.126 422.43 279.17L432.069 292.97C427.172 297.259 421.462 300.52 415.28 302.56C408.904 304.567 402.253 305.556 395.569 305.49C387.355 305.646 379.243 303.65 372.04 299.7C365.22 295.885 359.639 290.193 355.96 283.3C352.1 276.233 350.17 268.067 350.17 258.8C350.008 250.358 351.935 242.007 355.78 234.49C359.316 227.626 364.73 221.908 371.389 218C378.382 213.993 386.332 211.961 394.389 212.12C402.073 211.974 409.64 214.014 416.21 218C422.595 221.98 427.731 227.678 431.03 234.44C434.698 241.999 436.524 250.319 436.36 258.72C436.34 260.567 436.206 262.967 435.96 265.92ZM416.509 251.19C415.449 244.277 412.963 238.903 409.05 235.07C405.136 231.237 400.116 229.323 393.99 229.33C387.383 229.33 382.086 231.29 378.1 235.21C374.113 239.13 371.566 244.463 370.46 251.21L416.509 251.19Z" fill="black"/>
<path d="M528.33 303.17H504.52L482 272.31L459.77 303.17H437.07L470.52 257.86L437.63 214.41H461.44L483.12 244.06L504.79 214.41H527.68L494.88 257.68L528.33 303.17Z" fill="black"/>
<path d="M153.282 376.65H149.352V340.88H154.122V354.39C155.076 352.992 156.371 351.862 157.885 351.106C159.399 350.35 161.081 349.993 162.772 350.07C164.427 349.992 166.077 350.315 167.581 351.012C169.086 351.708 170.4 352.757 171.412 354.07C173.232 356.45 174.142 359.613 174.142 363.56C174.142 368.227 172.902 371.803 170.422 374.29C169.37 375.327 168.119 376.14 166.744 376.678C165.368 377.216 163.898 377.468 162.422 377.42C160.78 377.505 159.144 377.165 157.673 376.433C156.201 375.7 154.944 374.601 154.022 373.24L153.282 376.65ZM169.162 363.49C169.162 360.24 168.342 357.81 166.722 356.18C166.061 355.513 165.269 354.991 164.397 354.647C163.524 354.303 162.589 354.144 161.652 354.18C160.552 354.135 159.458 354.349 158.457 354.806C157.456 355.263 156.577 355.95 155.892 356.81C154.473 358.731 153.766 361.085 153.892 363.47C153.892 366.78 154.712 369.31 156.332 371.07C157.002 371.821 157.83 372.415 158.757 372.809C159.683 373.203 160.685 373.388 161.692 373.35C162.78 373.394 163.862 373.165 164.838 372.682C165.815 372.2 166.655 371.481 167.282 370.59C168.632 368.476 169.289 365.995 169.162 363.49V363.49Z" fill="black"/>
<path d="M199.659 350.82L190.659 377C189.469 380.48 188.319 382.85 187.229 384.1C186.617 384.824 185.849 385.401 184.984 385.789C184.118 386.176 183.177 386.365 182.229 386.34C181.188 386.315 180.154 386.164 179.149 385.89V382.02C179.962 382.236 180.798 382.353 181.639 382.37C182.092 382.392 182.544 382.307 182.958 382.121C183.371 381.935 183.735 381.654 184.019 381.3C184.934 379.851 185.654 378.287 186.159 376.65H184.619L175.129 350.82H180.279L187.579 372.82L194.879 350.82H199.659Z" fill="black"/>
<path d="M265.281 340.93H256.281V376.77H265.281V340.93Z" fill="black"/>
<path d="M338.192 351.2C335.859 349.935 333.245 349.278 330.592 349.29C324.732 349.29 320.672 353.36 320.672 358.85C320.672 364.17 324.562 368.42 330.592 368.42C333.245 368.432 335.859 367.775 338.192 366.51V376.14C335.517 376.957 332.738 377.385 329.942 377.41C319.772 377.41 310.852 370.41 310.852 358.85C310.852 348.14 318.932 340.29 329.942 340.29C332.741 340.3 335.523 340.735 338.192 341.58V351.2Z" fill="black"/>
<path d="M243.77 351.2C241.438 349.931 238.824 349.274 236.17 349.29C230.31 349.29 226.26 353.36 226.26 358.85C226.26 364.17 230.14 368.42 236.17 368.42C238.823 368.432 241.437 367.775 243.77 366.51V376.14C241.095 376.958 238.316 377.386 235.52 377.41C225.35 377.41 216.43 370.41 216.43 358.85C216.43 348.14 224.51 340.29 235.52 340.29C238.319 340.298 241.101 340.733 243.77 341.58V351.2Z" fill="black"/>
<path d="M366.641 349.42C364.773 349.406 362.943 349.947 361.383 350.975C359.823 352.003 358.604 353.471 357.879 355.193C357.155 356.914 356.958 358.813 357.314 360.646C357.67 362.48 358.562 364.167 359.878 365.493C361.194 366.819 362.874 367.724 364.705 368.093C366.536 368.463 368.436 368.28 370.163 367.569C371.89 366.857 373.367 365.648 374.407 364.096C375.446 362.544 376.001 360.718 376.001 358.85C376.024 357.611 375.798 356.381 375.336 355.231C374.875 354.081 374.187 353.035 373.315 352.156C372.442 351.277 371.401 350.582 370.255 350.112C369.109 349.642 367.88 349.406 366.641 349.42V349.42ZM385.581 358.85C385.581 369.1 377.671 377.41 366.641 377.41C355.611 377.41 347.711 369.1 347.711 358.85C347.711 348.6 355.621 340.29 366.641 340.29C377.661 340.29 385.581 348.61 385.581 358.85Z" fill="black"/>
<path d="M299.55 349.08C297.245 348.436 294.872 348.066 292.48 347.98C288.86 347.98 286.89 349.2 286.89 350.92C286.89 353.1 289.55 353.86 291.03 354.33L293.53 355.13C299.4 357 302.08 361.02 302.08 365.38C302.08 374.38 294.16 377.38 287.23 377.38C283.953 377.346 280.686 377.012 277.47 376.38V368.13C280.248 368.94 283.118 369.39 286.01 369.47C290.51 369.47 292.58 368.15 292.58 366.12C292.58 364.3 290.79 363.26 288.58 362.55L286.65 361.93C281.65 360.33 277.41 357.37 277.41 351.44C277.41 344.73 282.41 340.23 290.77 340.23C293.741 340.271 296.697 340.654 299.58 341.37L299.55 349.08Z" fill="black"/>
<path d="M212.17 68.91C214.264 76.2766 217.119 83.4051 220.69 90.18C222.32 93.18 223.94 96.18 226.91 98.07C227.418 98.3984 227.98 98.6322 228.57 98.76C232.94 99.68 235.33 96.1699 236.87 92.9599C239.169 87.9235 241.026 82.6973 242.42 77.34C242.69 76.34 242.95 75.34 243.21 74.34C243.71 72.42 244.184 70.4933 244.63 68.56L263.88 17.16C267.877 11.8403 273.057 7.52392 279.01 4.55248C284.964 1.58103 291.527 0.0360815 298.18 0.0399635C307.765 -0.0226887 317.084 3.18367 324.6 9.12999C337.19 18.65 344.68 37.3999 344.68 37.3999C346.549 41.5565 346.85 46.2493 345.527 50.6104C344.204 54.9715 341.346 58.7059 337.482 61.1231C333.619 63.5403 329.011 64.4767 324.51 63.7591C320.009 63.0416 315.921 60.7187 313 57.22C312.935 57.1517 312.874 57.0781 312.82 57C311.613 55.363 310.605 53.5869 309.82 51.7099C308.78 49.3629 307.622 47.07 306.35 44.84C305.664 43.6961 304.92 42.5881 304.12 41.52C303.453 40.5494 302.659 39.6717 301.76 38.91C299.98 37.49 297.76 36.9099 295.68 38.1499L295.38 38.34C293.24 39.81 291.75 42.77 290.7 45.05C287.75 51.51 285.98 58.14 284.29 64.93C283.96 66.24 283.65 67.56 283.35 68.87L275.4 94.87L264.16 119.59C260.148 124.765 255.015 128.964 249.147 131.87C243.279 134.776 236.829 136.315 230.28 136.37C203.06 136.94 190.13 112.37 190.13 112.37C174.63 86.92 170.05 53.37 168.96 42.64C168.74 40.41 168.73 39.08 168.73 39.08C168.728 35.7188 169.644 32.4209 171.38 29.5428C173.117 26.6646 175.606 24.3157 178.58 22.75C181.652 21.1849 185.076 20.4376 188.52 20.58C191.726 20.7092 194.844 21.6558 197.58 23.33C199.706 24.607 201.544 26.3092 202.98 28.33C205.54 31.97 206.11 36.5 206.63 40.82C207.683 50.3226 209.536 59.7193 212.17 68.91V68.91Z" fill="url(#paint0_linear)"/>
<path d="M212.17 68.91C214.264 76.2766 217.119 83.4051 220.69 90.18C222.32 93.18 223.94 96.18 226.91 98.07C227.418 98.3984 227.98 98.6322 228.57 98.76C232.94 99.68 235.33 96.1699 236.87 92.9599C239.169 87.9235 241.026 82.6973 242.42 77.34C242.69 76.34 242.95 75.34 243.21 74.34C243.71 72.42 244.184 70.4933 244.63 68.56L263.88 17.16C267.877 11.8403 273.057 7.52392 279.01 4.55248C284.964 1.58103 291.527 0.0360815 298.18 0.0399635C307.765 -0.0226887 317.084 3.18367 324.6 9.12999C337.19 18.65 344.68 37.3999 344.68 37.3999C346.549 41.5565 346.85 46.2493 345.527 50.6104C344.204 54.9715 341.346 58.7059 337.482 61.1231C333.619 63.5403 329.011 64.4767 324.51 63.7591C320.009 63.0416 315.921 60.7187 313 57.22C312.935 57.1517 312.874 57.0781 312.82 57C311.613 55.363 310.605 53.5869 309.82 51.7099C308.78 49.3629 307.622 47.07 306.35 44.84C305.664 43.6961 304.92 42.5881 304.12 41.52C303.453 40.5494 302.659 39.6717 301.76 38.91C299.98 37.49 297.76 36.9099 295.68 38.1499L295.38 38.34C293.24 39.81 291.75 42.77 290.7 45.05C287.75 51.51 285.98 58.14 284.29 64.93C283.96 66.24 283.65 67.56 283.35 68.87L275.4 94.87L264.16 119.59C260.148 124.765 255.015 128.964 249.147 131.87C243.279 134.776 236.829 136.315 230.28 136.37C203.06 136.94 190.13 112.37 190.13 112.37C174.63 86.92 170.05 53.37 168.96 42.64C168.74 40.41 168.73 39.08 168.73 39.08C168.728 35.7188 169.644 32.4209 171.38 29.5428C173.117 26.6646 175.606 24.3157 178.58 22.75C181.652 21.1849 185.076 20.4376 188.52 20.58C191.726 20.7092 194.844 21.6558 197.58 23.33C199.706 24.607 201.544 26.3092 202.98 28.33C205.54 31.97 206.11 36.5 206.63 40.82C207.683 50.3226 209.536 59.7193 212.17 68.91V68.91Z" fill="url(#paint1_radial)"/>
<path d="M212.17 68.91C214.264 76.2766 217.119 83.4051 220.69 90.18C222.32 93.18 223.94 96.18 226.91 98.07C227.418 98.3984 227.98 98.6322 228.57 98.76C232.94 99.68 235.33 96.1699 236.87 92.9599C239.169 87.9235 241.026 82.6973 242.42 77.34C242.69 76.34 242.95 75.34 243.21 74.34C243.71 72.42 244.184 70.4933 244.63 68.56L263.88 17.16C267.877 11.8403 273.057 7.52392 279.01 4.55248C284.964 1.58103 291.527 0.0360815 298.18 0.0399635C307.765 -0.0226887 317.084 3.18367 324.6 9.12999C337.19 18.65 344.68 37.3999 344.68 37.3999C346.549 41.5565 346.85 46.2493 345.527 50.6104C344.204 54.9715 341.346 58.7059 337.482 61.1231C333.619 63.5403 329.011 64.4767 324.51 63.7591C320.009 63.0416 315.921 60.7187 313 57.22C312.935 57.1517 312.874 57.0781 312.82 57C311.613 55.363 310.605 53.5869 309.82 51.7099C308.78 49.3629 307.622 47.07 306.35 44.84C305.664 43.6961 304.92 42.5881 304.12 41.52C303.453 40.5494 302.659 39.6717 301.76 38.91C299.98 37.49 297.76 36.9099 295.68 38.1499L295.38 38.34C293.24 39.81 291.75 42.77 290.7 45.05C287.75 51.51 285.98 58.14 284.29 64.93C283.96 66.24 283.65 67.56 283.35 68.87L275.4 94.87L264.16 119.59C260.148 124.765 255.015 128.964 249.147 131.87C243.279 134.776 236.829 136.315 230.28 136.37C203.06 136.94 190.13 112.37 190.13 112.37C174.63 86.92 170.05 53.37 168.96 42.64C168.74 40.41 168.73 39.08 168.73 39.08C168.728 35.7188 169.644 32.4209 171.38 29.5428C173.117 26.6646 175.606 24.3157 178.58 22.75C181.652 21.1849 185.076 20.4376 188.52 20.58C191.726 20.7092 194.844 21.6558 197.58 23.33C199.706 24.607 201.544 26.3092 202.98 28.33C205.54 31.97 206.11 36.5 206.63 40.82C207.683 50.3226 209.536 59.7193 212.17 68.91V68.91Z" fill="url(#paint2_radial)"/>
<path d="M212.17 68.91C214.264 76.2766 217.119 83.4051 220.69 90.18C222.32 93.18 223.94 96.18 226.91 98.07C227.418 98.3984 227.98 98.6322 228.57 98.76C232.94 99.68 235.33 96.1699 236.87 92.9599C239.169 87.9235 241.026 82.6973 242.42 77.34C242.69 76.34 242.95 75.34 243.21 74.34C243.71 72.42 244.184 70.4933 244.63 68.56L263.88 17.16C267.877 11.8403 273.057 7.52392 279.01 4.55248C284.964 1.58103 291.527 0.0360815 298.18 0.0399635C307.765 -0.0226887 317.084 3.18367 324.6 9.12999C337.19 18.65 344.68 37.3999 344.68 37.3999C346.549 41.5565 346.85 46.2493 345.527 50.6104C344.204 54.9715 341.346 58.7059 337.482 61.1231C333.619 63.5403 329.011 64.4767 324.51 63.7591C320.009 63.0416 315.921 60.7187 313 57.22C312.935 57.1517 312.874 57.0781 312.82 57C311.613 55.363 310.605 53.5869 309.82 51.7099C308.78 49.3629 307.622 47.07 306.35 44.84C305.664 43.6961 304.92 42.5881 304.12 41.52C303.453 40.5494 302.659 39.6717 301.76 38.91C299.98 37.49 297.76 36.9099 295.68 38.1499L295.38 38.34C293.24 39.81 291.75 42.77 290.7 45.05C287.75 51.51 285.98 58.14 284.29 64.93C283.96 66.24 283.65 67.56 283.35 68.87L275.4 94.87L264.16 119.59C260.148 124.765 255.015 128.964 249.147 131.87C243.279 134.776 236.829 136.315 230.28 136.37C203.06 136.94 190.13 112.37 190.13 112.37C174.63 86.92 170.05 53.37 168.96 42.64C168.74 40.41 168.73 39.08 168.73 39.08C168.728 35.7188 169.644 32.4209 171.38 29.5428C173.117 26.6646 175.606 24.3157 178.58 22.75C181.652 21.1849 185.076 20.4376 188.52 20.58C191.726 20.7092 194.844 21.6558 197.58 23.33C199.706 24.607 201.544 26.3092 202.98 28.33C205.54 31.97 206.11 36.5 206.63 40.82C207.683 50.3226 209.536 59.7193 212.17 68.91V68.91Z" fill="url(#paint3_radial)"/>
<path d="M212.17 68.91C214.264 76.2766 217.119 83.4051 220.69 90.18C222.32 93.18 223.94 96.18 226.91 98.07C227.418 98.3984 227.98 98.6322 228.57 98.76C232.94 99.68 235.33 96.1699 236.87 92.9599C239.169 87.9235 241.026 82.6973 242.42 77.34C242.69 76.34 242.95 75.34 243.21 74.34C243.71 72.42 244.184 70.4933 244.63 68.56L263.88 17.16C267.877 11.8403 273.057 7.52392 279.01 4.55248C284.964 1.58103 291.527 0.0360815 298.18 0.0399635C307.765 -0.0226887 317.084 3.18367 324.6 9.12999C337.19 18.65 344.68 37.3999 344.68 37.3999C346.549 41.5565 346.85 46.2493 345.527 50.6104C344.204 54.9715 341.346 58.7059 337.482 61.1231C333.619 63.5403 329.011 64.4767 324.51 63.7591C320.009 63.0416 315.921 60.7187 313 57.22C312.935 57.1517 312.874 57.0781 312.82 57C311.613 55.363 310.605 53.5869 309.82 51.7099C308.78 49.3629 307.622 47.07 306.35 44.84C305.664 43.6961 304.92 42.5881 304.12 41.52C303.453 40.5494 302.659 39.6717 301.76 38.91C299.98 37.49 297.76 36.9099 295.68 38.1499L295.38 38.34C293.24 39.81 291.75 42.77 290.7 45.05C287.75 51.51 285.98 58.14 284.29 64.93C283.96 66.24 283.65 67.56 283.35 68.87L275.4 94.87L264.16 119.59C260.148 124.765 255.015 128.964 249.147 131.87C243.279 134.776 236.829 136.315 230.28 136.37C203.06 136.94 190.13 112.37 190.13 112.37C174.63 86.92 170.05 53.37 168.96 42.64C168.74 40.41 168.73 39.08 168.73 39.08C168.728 35.7188 169.644 32.4209 171.38 29.5428C173.117 26.6646 175.606 24.3157 178.58 22.75C181.652 21.1849 185.076 20.4376 188.52 20.58C191.726 20.7092 194.844 21.6558 197.58 23.33C199.706 24.607 201.544 26.3092 202.98 28.33C205.54 31.97 206.11 36.5 206.63 40.82C207.683 50.3226 209.536 59.7193 212.17 68.91V68.91Z" fill="url(#paint4_radial)"/>
<path d="M212.17 68.91C214.264 76.2766 217.119 83.4051 220.69 90.18C222.32 93.18 223.94 96.18 226.91 98.07C227.418 98.3984 227.98 98.6322 228.57 98.76C232.94 99.68 235.33 96.1699 236.87 92.9599C239.169 87.9235 241.026 82.6973 242.42 77.34C242.69 76.34 242.95 75.34 243.21 74.34C243.71 72.42 244.184 70.4933 244.63 68.56L263.88 17.16C267.877 11.8403 273.057 7.52392 279.01 4.55248C284.964 1.58103 291.527 0.0360815 298.18 0.0399635C307.765 -0.0226887 317.084 3.18367 324.6 9.12999C337.19 18.65 344.68 37.3999 344.68 37.3999C346.549 41.5565 346.85 46.2493 345.527 50.6104C344.204 54.9715 341.346 58.7059 337.482 61.1231C333.619 63.5403 329.011 64.4767 324.51 63.7591C320.009 63.0416 315.921 60.7187 313 57.22C312.935 57.1517 312.874 57.0781 312.82 57C311.613 55.363 310.605 53.5869 309.82 51.7099C308.78 49.3629 307.622 47.07 306.35 44.84C305.664 43.6961 304.92 42.5881 304.12 41.52C303.453 40.5494 302.659 39.6717 301.76 38.91C299.98 37.49 297.76 36.9099 295.68 38.1499L295.38 38.34C293.24 39.81 291.75 42.77 290.7 45.05C287.75 51.51 285.98 58.14 284.29 64.93C283.96 66.24 283.65 67.56 283.35 68.87L275.4 94.87L264.16 119.59C260.148 124.765 255.015 128.964 249.147 131.87C243.279 134.776 236.829 136.315 230.28 136.37C203.06 136.94 190.13 112.37 190.13 112.37C174.63 86.92 170.05 53.37 168.96 42.64C168.74 40.41 168.73 39.08 168.73 39.08C168.728 35.7188 169.644 32.4209 171.38 29.5428C173.117 26.6646 175.606 24.3157 178.58 22.75C181.652 21.1849 185.076 20.4376 188.52 20.58C191.726 20.7092 194.844 21.6558 197.58 23.33C199.706 24.607 201.544 26.3092 202.98 28.33C205.54 31.97 206.11 36.5 206.63 40.82C207.683 50.3226 209.536 59.7193 212.17 68.91V68.91Z" fill="url(#paint5_radial)"/>
<path d="M212.17 68.91C214.264 76.2766 217.119 83.4051 220.69 90.18C222.32 93.18 223.94 96.18 226.91 98.07C227.418 98.3984 227.98 98.6322 228.57 98.76C232.94 99.68 235.33 96.1699 236.87 92.9599C239.169 87.9235 241.026 82.6973 242.42 77.34C242.69 76.34 242.95 75.34 243.21 74.34C243.71 72.42 244.184 70.4933 244.63 68.56L263.88 17.16C267.877 11.8403 273.057 7.52392 279.01 4.55248C284.964 1.58103 291.527 0.0360815 298.18 0.0399635C307.765 -0.0226887 317.084 3.18367 324.6 9.12999C337.19 18.65 344.68 37.3999 344.68 37.3999C346.549 41.5565 346.85 46.2493 345.527 50.6104C344.204 54.9715 341.346 58.7059 337.482 61.1231C333.619 63.5403 329.011 64.4767 324.51 63.7591C320.009 63.0416 315.921 60.7187 313 57.22C312.935 57.1517 312.874 57.0781 312.82 57C311.613 55.363 310.605 53.5869 309.82 51.7099C308.78 49.3629 307.622 47.07 306.35 44.84C305.664 43.6961 304.92 42.5881 304.12 41.52C303.453 40.5494 302.659 39.6717 301.76 38.91C299.98 37.49 297.76 36.9099 295.68 38.1499L295.38 38.34C293.24 39.81 291.75 42.77 290.7 45.05C287.75 51.51 285.98 58.14 284.29 64.93C283.96 66.24 283.65 67.56 283.35 68.87L275.4 94.87L264.16 119.59C260.148 124.765 255.015 128.964 249.147 131.87C243.279 134.776 236.829 136.315 230.28 136.37C203.06 136.94 190.13 112.37 190.13 112.37C174.63 86.92 170.05 53.37 168.96 42.64C168.74 40.41 168.73 39.08 168.73 39.08C168.728 35.7188 169.644 32.4209 171.38 29.5428C173.117 26.6646 175.606 24.3157 178.58 22.75C181.652 21.1849 185.076 20.4376 188.52 20.58C191.726 20.7092 194.844 21.6558 197.58 23.33C199.706 24.607 201.544 26.3092 202.98 28.33C205.54 31.97 206.11 36.5 206.63 40.82C207.683 50.3226 209.536 59.7193 212.17 68.91V68.91Z" fill="url(#paint6_radial)"/>
<path d="M212.17 68.91C214.264 76.2766 217.119 83.4051 220.69 90.18C222.32 93.18 223.94 96.18 226.91 98.07C227.418 98.3984 227.98 98.6322 228.57 98.76C232.94 99.68 235.33 96.1699 236.87 92.9599C239.169 87.9235 241.026 82.6973 242.42 77.34C242.69 76.34 242.95 75.34 243.21 74.34C243.71 72.42 244.184 70.4933 244.63 68.56L263.88 17.16C267.877 11.8403 273.057 7.52392 279.01 4.55248C284.964 1.58103 291.527 0.0360815 298.18 0.0399635C307.765 -0.0226887 317.084 3.18367 324.6 9.12999C337.19 18.65 344.68 37.3999 344.68 37.3999C346.549 41.5565 346.85 46.2493 345.527 50.6104C344.204 54.9715 341.346 58.7059 337.482 61.1231C333.619 63.5403 329.011 64.4767 324.51 63.7591C320.009 63.0416 315.921 60.7187 313 57.22C312.935 57.1517 312.874 57.0781 312.82 57C311.613 55.363 310.605 53.5869 309.82 51.7099C308.78 49.3629 307.622 47.07 306.35 44.84C305.664 43.6961 304.92 42.5881 304.12 41.52C303.453 40.5494 302.659 39.6717 301.76 38.91C299.98 37.49 297.76 36.9099 295.68 38.1499L295.38 38.34C293.24 39.81 291.75 42.77 290.7 45.05C287.75 51.51 285.98 58.14 284.29 64.93C283.96 66.24 283.65 67.56 283.35 68.87L275.4 94.87L264.16 119.59C260.148 124.765 255.015 128.964 249.147 131.87C243.279 134.776 236.829 136.315 230.28 136.37C203.06 136.94 190.13 112.37 190.13 112.37C174.63 86.92 170.05 53.37 168.96 42.64C168.74 40.41 168.73 39.08 168.73 39.08C168.728 35.7188 169.644 32.4209 171.38 29.5428C173.117 26.6646 175.606 24.3157 178.58 22.75C181.652 21.1849 185.076 20.4376 188.52 20.58C191.726 20.7092 194.844 21.6558 197.58 23.33C199.706 24.607 201.544 26.3092 202.98 28.33C205.54 31.97 206.11 36.5 206.63 40.82C207.683 50.3226 209.536 59.7193 212.17 68.91V68.91Z" fill="url(#paint7_radial)"/>
<path d="M212.17 68.91C214.264 76.2766 217.119 83.4051 220.69 90.18C222.32 93.18 223.94 96.18 226.91 98.07C227.418 98.3984 227.98 98.6322 228.57 98.76C232.94 99.68 235.33 96.1699 236.87 92.9599C239.169 87.9235 241.026 82.6973 242.42 77.34C242.69 76.34 242.95 75.34 243.21 74.34C243.71 72.42 244.184 70.4933 244.63 68.56L263.88 17.16C267.877 11.8403 273.057 7.52392 279.01 4.55248C284.964 1.58103 291.527 0.0360815 298.18 0.0399635C307.765 -0.0226887 317.084 3.18367 324.6 9.12999C337.19 18.65 344.68 37.3999 344.68 37.3999C346.549 41.5565 346.85 46.2493 345.527 50.6104C344.204 54.9715 341.346 58.7059 337.482 61.1231C333.619 63.5403 329.011 64.4767 324.51 63.7591C320.009 63.0416 315.921 60.7187 313 57.22C312.935 57.1517 312.874 57.0781 312.82 57C311.613 55.363 310.605 53.5869 309.82 51.7099C308.78 49.3629 307.622 47.07 306.35 44.84C305.664 43.6961 304.92 42.5881 304.12 41.52C303.453 40.5494 302.659 39.6717 301.76 38.91C299.98 37.49 297.76 36.9099 295.68 38.1499L295.38 38.34C293.24 39.81 291.75 42.77 290.7 45.05C287.75 51.51 285.98 58.14 284.29 64.93C283.96 66.24 283.65 67.56 283.35 68.87L275.4 94.87L264.16 119.59C260.148 124.765 255.015 128.964 249.147 131.87C243.279 134.776 236.829 136.315 230.28 136.37C203.06 136.94 190.13 112.37 190.13 112.37C174.63 86.92 170.05 53.37 168.96 42.64C168.74 40.41 168.73 39.08 168.73 39.08C168.728 35.7188 169.644 32.4209 171.38 29.5428C173.117 26.6646 175.606 24.3157 178.58 22.75C181.652 21.1849 185.076 20.4376 188.52 20.58C191.726 20.7092 194.844 21.6558 197.58 23.33C199.706 24.607 201.544 26.3092 202.98 28.33C205.54 31.97 206.11 36.5 206.63 40.82C207.683 50.3226 209.536 59.7193 212.17 68.91V68.91Z" fill="url(#paint8_radial)"/>
<path d="M212.17 68.91C214.264 76.2766 217.119 83.4051 220.69 90.18C222.32 93.18 223.94 96.18 226.91 98.07C227.418 98.3984 227.98 98.6322 228.57 98.76C232.94 99.68 235.33 96.1699 236.87 92.9599C239.169 87.9235 241.026 82.6973 242.42 77.34C242.69 76.34 242.95 75.34 243.21 74.34C243.71 72.42 244.184 70.4933 244.63 68.56L263.88 17.16C267.877 11.8403 273.057 7.52392 279.01 4.55248C284.964 1.58103 291.527 0.0360815 298.18 0.0399635C307.765 -0.0226887 317.084 3.18367 324.6 9.12999C337.19 18.65 344.68 37.3999 344.68 37.3999C346.549 41.5565 346.85 46.2493 345.527 50.6104C344.204 54.9715 341.346 58.7059 337.482 61.1231C333.619 63.5403 329.011 64.4767 324.51 63.7591C320.009 63.0416 315.921 60.7187 313 57.22C312.935 57.1517 312.874 57.0781 312.82 57C311.613 55.363 310.605 53.5869 309.82 51.7099C308.78 49.3629 307.622 47.07 306.35 44.84C305.664 43.6961 304.92 42.5881 304.12 41.52C303.453 40.5494 302.659 39.6717 301.76 38.91C299.98 37.49 297.76 36.9099 295.68 38.1499L295.38 38.34C293.24 39.81 291.75 42.77 290.7 45.05C287.75 51.51 285.98 58.14 284.29 64.93C283.96 66.24 283.65 67.56 283.35 68.87L275.4 94.87L264.16 119.59C260.148 124.765 255.015 128.964 249.147 131.87C243.279 134.776 236.829 136.315 230.28 136.37C203.06 136.94 190.13 112.37 190.13 112.37C174.63 86.92 170.05 53.37 168.96 42.64C168.74 40.41 168.73 39.08 168.73 39.08C168.728 35.7188 169.644 32.4209 171.38 29.5428C173.117 26.6646 175.606 24.3157 178.58 22.75C181.652 21.1849 185.076 20.4376 188.52 20.58C191.726 20.7092 194.844 21.6558 197.58 23.33C199.706 24.607 201.544 26.3092 202.98 28.33C205.54 31.97 206.11 36.5 206.63 40.82C207.683 50.3226 209.536 59.7193 212.17 68.91V68.91Z" fill="url(#paint9_radial)"/>
<path d="M212.17 68.91C214.264 76.2766 217.119 83.4051 220.69 90.18C222.32 93.18 223.94 96.18 226.91 98.07C227.418 98.3984 227.98 98.6322 228.57 98.76C232.94 99.68 235.33 96.1699 236.87 92.9599C239.169 87.9235 241.026 82.6973 242.42 77.34C242.69 76.34 242.95 75.34 243.21 74.34C243.71 72.42 244.184 70.4933 244.63 68.56L263.88 17.16C267.877 11.8403 273.057 7.52392 279.01 4.55248C284.964 1.58103 291.527 0.0360815 298.18 0.0399635C307.765 -0.0226887 317.084 3.18367 324.6 9.12999C337.19 18.65 344.68 37.3999 344.68 37.3999C346.549 41.5565 346.85 46.2493 345.527 50.6104C344.204 54.9715 341.346 58.7059 337.482 61.1231C333.619 63.5403 329.011 64.4767 324.51 63.7591C320.009 63.0416 315.921 60.7187 313 57.22C312.935 57.1517 312.874 57.0781 312.82 57C311.613 55.363 310.605 53.5869 309.82 51.7099C308.78 49.3629 307.622 47.07 306.35 44.84C305.664 43.6961 304.92 42.5881 304.12 41.52C303.453 40.5494 302.659 39.6717 301.76 38.91C299.98 37.49 297.76 36.9099 295.68 38.1499L295.38 38.34C293.24 39.81 291.75 42.77 290.7 45.05C287.75 51.51 285.98 58.14 284.29 64.93C283.96 66.24 283.65 67.56 283.35 68.87L275.4 94.87L264.16 119.59C260.148 124.765 255.015 128.964 249.147 131.87C243.279 134.776 236.829 136.315 230.28 136.37C203.06 136.94 190.13 112.37 190.13 112.37C174.63 86.92 170.05 53.37 168.96 42.64C168.74 40.41 168.73 39.08 168.73 39.08C168.728 35.7188 169.644 32.4209 171.38 29.5428C173.117 26.6646 175.606 24.3157 178.58 22.75C181.652 21.1849 185.076 20.4376 188.52 20.58C191.726 20.7092 194.844 21.6558 197.58 23.33C199.706 24.607 201.544 26.3092 202.98 28.33C205.54 31.97 206.11 36.5 206.63 40.82C207.683 50.3226 209.536 59.7193 212.17 68.91V68.91Z" fill="url(#paint10_radial)"/>
<path d="M212.17 68.91C214.264 76.2766 217.119 83.4051 220.69 90.18C222.32 93.18 223.94 96.18 226.91 98.07C227.418 98.3984 227.98 98.6322 228.57 98.76C232.94 99.68 235.33 96.1699 236.87 92.9599C239.169 87.9235 241.026 82.6973 242.42 77.34C242.69 76.34 242.95 75.34 243.21 74.34C243.71 72.42 244.184 70.4933 244.63 68.56L263.88 17.16C267.877 11.8403 273.057 7.52392 279.01 4.55248C284.964 1.58103 291.527 0.0360815 298.18 0.0399635C307.765 -0.0226887 317.084 3.18367 324.6 9.12999C337.19 18.65 344.68 37.3999 344.68 37.3999C346.549 41.5565 346.85 46.2493 345.527 50.6104C344.204 54.9715 341.346 58.7059 337.482 61.1231C333.619 63.5403 329.011 64.4767 324.51 63.7591C320.009 63.0416 315.921 60.7187 313 57.22C312.935 57.1517 312.874 57.0781 312.82 57C311.613 55.363 310.605 53.5869 309.82 51.7099C308.78 49.3629 307.622 47.07 306.35 44.84C305.664 43.6961 304.92 42.5881 304.12 41.52C303.453 40.5494 302.659 39.6717 301.76 38.91C299.98 37.49 297.76 36.9099 295.68 38.1499L295.38 38.34C293.24 39.81 291.75 42.77 290.7 45.05C287.75 51.51 285.98 58.14 284.29 64.93C283.96 66.24 283.65 67.56 283.35 68.87L275.4 94.87L264.16 119.59C260.148 124.765 255.015 128.964 249.147 131.87C243.279 134.776 236.829 136.315 230.28 136.37C203.06 136.94 190.13 112.37 190.13 112.37C174.63 86.92 170.05 53.37 168.96 42.64C168.74 40.41 168.73 39.08 168.73 39.08C168.728 35.7188 169.644 32.4209 171.38 29.5428C173.117 26.6646 175.606 24.3157 178.58 22.75C181.652 21.1849 185.076 20.4376 188.52 20.58C191.726 20.7092 194.844 21.6558 197.58 23.33C199.706 24.607 201.544 26.3092 202.98 28.33C205.54 31.97 206.11 36.5 206.63 40.82C207.683 50.3226 209.536 59.7193 212.17 68.91V68.91Z" fill="url(#paint11_radial)"/>
<path d="M212.17 68.91C214.264 76.2766 217.119 83.4051 220.69 90.18C222.32 93.18 223.94 96.18 226.91 98.07C227.418 98.3984 227.98 98.6322 228.57 98.76C232.94 99.68 235.33 96.1699 236.87 92.9599C239.169 87.9235 241.026 82.6973 242.42 77.34C242.69 76.34 242.95 75.34 243.21 74.34C243.71 72.42 244.184 70.4933 244.63 68.56L263.88 17.16C267.877 11.8403 273.057 7.52392 279.01 4.55248C284.964 1.58103 291.527 0.0360815 298.18 0.0399635C307.765 -0.0226887 317.084 3.18367 324.6 9.12999C337.19 18.65 344.68 37.3999 344.68 37.3999C346.549 41.5565 346.85 46.2493 345.527 50.6104C344.204 54.9715 341.346 58.7059 337.482 61.1231C333.619 63.5403 329.011 64.4767 324.51 63.7591C320.009 63.0416 315.921 60.7187 313 57.22C312.935 57.1517 312.874 57.0781 312.82 57C311.613 55.363 310.605 53.5869 309.82 51.7099C308.78 49.3629 307.622 47.07 306.35 44.84C305.664 43.6961 304.92 42.5881 304.12 41.52C303.453 40.5494 302.659 39.6717 301.76 38.91C299.98 37.49 297.76 36.9099 295.68 38.1499L295.38 38.34C293.24 39.81 291.75 42.77 290.7 45.05C287.75 51.51 285.98 58.14 284.29 64.93C283.96 66.24 283.65 67.56 283.35 68.87L275.4 94.87L264.16 119.59C260.148 124.765 255.015 128.964 249.147 131.87C243.279 134.776 236.829 136.315 230.28 136.37C203.06 136.94 190.13 112.37 190.13 112.37C174.63 86.92 170.05 53.37 168.96 42.64C168.74 40.41 168.73 39.08 168.73 39.08C168.728 35.7188 169.644 32.4209 171.38 29.5428C173.117 26.6646 175.606 24.3157 178.58 22.75C181.652 21.1849 185.076 20.4376 188.52 20.58C191.726 20.7092 194.844 21.6558 197.58 23.33C199.706 24.607 201.544 26.3092 202.98 28.33C205.54 31.97 206.11 36.5 206.63 40.82C207.683 50.3226 209.536 59.7193 212.17 68.91V68.91Z" fill="url(#paint12_radial)"/>
<path d="M212.17 68.91C214.264 76.2766 217.119 83.4051 220.69 90.18C222.32 93.18 223.94 96.18 226.91 98.07C227.418 98.3984 227.98 98.6322 228.57 98.76C232.94 99.68 235.33 96.1699 236.87 92.9599C239.169 87.9235 241.026 82.6973 242.42 77.34C242.69 76.34 242.95 75.34 243.21 74.34C243.71 72.42 244.184 70.4933 244.63 68.56L263.88 17.16C267.877 11.8403 273.057 7.52392 279.01 4.55248C284.964 1.58103 291.527 0.0360815 298.18 0.0399635C307.765 -0.0226887 317.084 3.18367 324.6 9.12999C337.19 18.65 344.68 37.3999 344.68 37.3999C346.549 41.5565 346.85 46.2493 345.527 50.6104C344.204 54.9715 341.346 58.7059 337.482 61.1231C333.619 63.5403 329.011 64.4767 324.51 63.7591C320.009 63.0416 315.921 60.7187 313 57.22C312.935 57.1517 312.874 57.0781 312.82 57C311.613 55.363 310.605 53.5869 309.82 51.7099C308.78 49.3629 307.622 47.07 306.35 44.84C305.664 43.6961 304.92 42.5881 304.12 41.52C303.453 40.5494 302.659 39.6717 301.76 38.91C299.98 37.49 297.76 36.9099 295.68 38.1499L295.38 38.34C293.24 39.81 291.75 42.77 290.7 45.05C287.75 51.51 285.98 58.14 284.29 64.93C283.96 66.24 283.65 67.56 283.35 68.87L275.4 94.87L264.16 119.59C260.148 124.765 255.015 128.964 249.147 131.87C243.279 134.776 236.829 136.315 230.28 136.37C203.06 136.94 190.13 112.37 190.13 112.37C174.63 86.92 170.05 53.37 168.96 42.64C168.74 40.41 168.73 39.08 168.73 39.08C168.728 35.7188 169.644 32.4209 171.38 29.5428C173.117 26.6646 175.606 24.3157 178.58 22.75C181.652 21.1849 185.076 20.4376 188.52 20.58C191.726 20.7092 194.844 21.6558 197.58 23.33C199.706 24.607 201.544 26.3092 202.98 28.33C205.54 31.97 206.11 36.5 206.63 40.82C207.683 50.3226 209.536 59.7193 212.17 68.91V68.91Z" fill="url(#paint13_radial)"/>
<path d="M212.17 68.91C214.264 76.2766 217.119 83.4051 220.69 90.18C222.32 93.18 223.94 96.18 226.91 98.07C227.418 98.3984 227.98 98.6322 228.57 98.76C232.94 99.68 235.33 96.1699 236.87 92.9599C239.169 87.9235 241.026 82.6973 242.42 77.34C242.69 76.34 242.95 75.34 243.21 74.34C243.71 72.42 244.184 70.4933 244.63 68.56L263.88 17.16C267.877 11.8403 273.057 7.52392 279.01 4.55248C284.964 1.58103 291.527 0.0360815 298.18 0.0399635C307.765 -0.0226887 317.084 3.18367 324.6 9.12999C337.19 18.65 344.68 37.3999 344.68 37.3999C346.549 41.5565 346.85 46.2493 345.527 50.6104C344.204 54.9715 341.346 58.7059 337.482 61.1231C333.619 63.5403 329.011 64.4767 324.51 63.7591C320.009 63.0416 315.921 60.7187 313 57.22C312.935 57.1517 312.874 57.0781 312.82 57C311.613 55.363 310.605 53.5869 309.82 51.7099C308.78 49.3629 307.622 47.07 306.35 44.84C305.664 43.6961 304.92 42.5881 304.12 41.52C303.453 40.5494 302.659 39.6717 301.76 38.91C299.98 37.49 297.76 36.9099 295.68 38.1499L295.38 38.34C293.24 39.81 291.75 42.77 290.7 45.05C287.75 51.51 285.98 58.14 284.29 64.93C283.96 66.24 283.65 67.56 283.35 68.87L275.4 94.87L264.16 119.59C260.148 124.765 255.015 128.964 249.147 131.87C243.279 134.776 236.829 136.315 230.28 136.37C203.06 136.94 190.13 112.37 190.13 112.37C174.63 86.92 170.05 53.37 168.96 42.64C168.74 40.41 168.73 39.08 168.73 39.08C168.728 35.7188 169.644 32.4209 171.38 29.5428C173.117 26.6646 175.606 24.3157 178.58 22.75C181.652 21.1849 185.076 20.4376 188.52 20.58C191.726 20.7092 194.844 21.6558 197.58 23.33C199.706 24.607 201.544 26.3092 202.98 28.33C205.54 31.97 206.11 36.5 206.63 40.82C207.683 50.3226 209.536 59.7193 212.17 68.91V68.91Z" fill="url(#paint14_radial)"/>
<path d="M212.17 68.91C214.264 76.2766 217.119 83.4051 220.69 90.18C222.32 93.18 223.94 96.18 226.91 98.07C227.418 98.3984 227.98 98.6322 228.57 98.76C232.94 99.68 235.33 96.1699 236.87 92.9599C239.169 87.9235 241.026 82.6973 242.42 77.34C242.69 76.34 242.95 75.34 243.21 74.34C243.71 72.42 244.184 70.4933 244.63 68.56L263.88 17.16C267.877 11.8403 273.057 7.52392 279.01 4.55248C284.964 1.58103 291.527 0.0360815 298.18 0.0399635C307.765 -0.0226887 317.084 3.18367 324.6 9.12999C337.19 18.65 344.68 37.3999 344.68 37.3999C346.549 41.5565 346.85 46.2493 345.527 50.6104C344.204 54.9715 341.346 58.7059 337.482 61.1231C333.619 63.5403 329.011 64.4767 324.51 63.7591C320.009 63.0416 315.921 60.7187 313 57.22C312.935 57.1517 312.874 57.0781 312.82 57C311.613 55.363 310.605 53.5869 309.82 51.7099C308.78 49.3629 307.622 47.07 306.35 44.84C305.664 43.6961 304.92 42.5881 304.12 41.52C303.453 40.5494 302.659 39.6717 301.76 38.91C299.98 37.49 297.76 36.9099 295.68 38.1499L295.38 38.34C293.24 39.81 291.75 42.77 290.7 45.05C287.75 51.51 285.98 58.14 284.29 64.93C283.96 66.24 283.65 67.56 283.35 68.87L275.4 94.87L264.16 119.59C260.148 124.765 255.015 128.964 249.147 131.87C243.279 134.776 236.829 136.315 230.28 136.37C203.06 136.94 190.13 112.37 190.13 112.37C174.63 86.92 170.05 53.37 168.96 42.64C168.74 40.41 168.73 39.08 168.73 39.08C168.728 35.7188 169.644 32.4209 171.38 29.5428C173.117 26.6646 175.606 24.3157 178.58 22.75C181.652 21.1849 185.076 20.4376 188.52 20.58C191.726 20.7092 194.844 21.6558 197.58 23.33C199.706 24.607 201.544 26.3092 202.98 28.33C205.54 31.97 206.11 36.5 206.63 40.82C207.683 50.3226 209.536 59.7193 212.17 68.91V68.91Z" fill="url(#paint15_radial)"/>
<path d="M212.17 68.91C214.264 76.2766 217.119 83.4051 220.69 90.18C222.32 93.18 223.94 96.18 226.91 98.07C227.418 98.3984 227.98 98.6322 228.57 98.76C232.94 99.68 235.33 96.1699 236.87 92.9599C239.169 87.9235 241.026 82.6973 242.42 77.34C242.69 76.34 242.95 75.34 243.21 74.34C243.71 72.42 244.184 70.4933 244.63 68.56L263.88 17.16C267.877 11.8403 273.057 7.52392 279.01 4.55248C284.964 1.58103 291.527 0.0360815 298.18 0.0399635C307.765 -0.0226887 317.084 3.18367 324.6 9.12999C337.19 18.65 344.68 37.3999 344.68 37.3999C346.549 41.5565 346.85 46.2493 345.527 50.6104C344.204 54.9715 341.346 58.7059 337.482 61.1231C333.619 63.5403 329.011 64.4767 324.51 63.7591C320.009 63.0416 315.921 60.7187 313 57.22C312.935 57.1517 312.874 57.0781 312.82 57C311.613 55.363 310.605 53.5869 309.82 51.7099C308.78 49.3629 307.622 47.07 306.35 44.84C305.664 43.6961 304.92 42.5881 304.12 41.52C303.453 40.5494 302.659 39.6717 301.76 38.91C299.98 37.49 297.76 36.9099 295.68 38.1499L295.38 38.34C293.24 39.81 291.75 42.77 290.7 45.05C287.75 51.51 285.98 58.14 284.29 64.93C283.96 66.24 283.65 67.56 283.35 68.87L275.4 94.87L264.16 119.59C260.148 124.765 255.015 128.964 249.147 131.87C243.279 134.776 236.829 136.315 230.28 136.37C203.06 136.94 190.13 112.37 190.13 112.37C174.63 86.92 170.05 53.37 168.96 42.64C168.74 40.41 168.73 39.08 168.73 39.08C168.728 35.7188 169.644 32.4209 171.38 29.5428C173.117 26.6646 175.606 24.3157 178.58 22.75C181.652 21.1849 185.076 20.4376 188.52 20.58C191.726 20.7092 194.844 21.6558 197.58 23.33C199.706 24.607 201.544 26.3092 202.98 28.33C205.54 31.97 206.11 36.5 206.63 40.82C207.683 50.3226 209.536 59.7193 212.17 68.91V68.91Z" fill="url(#paint16_linear)"/>
<path d="M212.17 68.91C214.264 76.2766 217.119 83.4051 220.69 90.18C222.32 93.18 223.94 96.18 226.91 98.07C227.418 98.3984 227.98 98.6322 228.57 98.76C232.94 99.68 235.33 96.1699 236.87 92.9599C239.169 87.9235 241.026 82.6973 242.42 77.34C242.69 76.34 242.95 75.34 243.21 74.34C243.71 72.42 244.184 70.4933 244.63 68.56L263.88 17.16C267.877 11.8403 273.057 7.52392 279.01 4.55248C284.964 1.58103 291.527 0.0360815 298.18 0.0399635C307.765 -0.0226887 317.084 3.18367 324.6 9.12999C337.19 18.65 344.68 37.3999 344.68 37.3999C346.549 41.5565 346.85 46.2493 345.527 50.6104C344.204 54.9715 341.346 58.7059 337.482 61.1231C333.619 63.5403 329.011 64.4767 324.51 63.7591C320.009 63.0416 315.921 60.7187 313 57.22C312.935 57.1517 312.874 57.0781 312.82 57C311.613 55.363 310.605 53.5869 309.82 51.7099C308.78 49.3629 307.622 47.07 306.35 44.84C305.664 43.6961 304.92 42.5881 304.12 41.52C303.453 40.5494 302.659 39.6717 301.76 38.91C299.98 37.49 297.76 36.9099 295.68 38.1499L295.38 38.34C293.24 39.81 291.75 42.77 290.7 45.05C287.75 51.51 285.98 58.14 284.29 64.93C283.96 66.24 283.65 67.56 283.35 68.87L275.4 94.87L264.16 119.59C260.148 124.765 255.015 128.964 249.147 131.87C243.279 134.776 236.829 136.315 230.28 136.37C203.06 136.94 190.13 112.37 190.13 112.37C174.63 86.92 170.05 53.37 168.96 42.64C168.74 40.41 168.73 39.08 168.73 39.08C168.728 35.7188 169.644 32.4209 171.38 29.5428C173.117 26.6646 175.606 24.3157 178.58 22.75C181.652 21.1849 185.076 20.4376 188.52 20.58C191.726 20.7092 194.844 21.6558 197.58 23.33C199.706 24.607 201.544 26.3092 202.98 28.33C205.54 31.97 206.11 36.5 206.63 40.82C207.683 50.3226 209.536 59.7193 212.17 68.91V68.91Z" fill="url(#paint17_linear)"/>
<path d="M212.17 68.91C214.264 76.2766 217.119 83.4051 220.69 90.18C222.32 93.18 223.94 96.18 226.91 98.07C227.418 98.3984 227.98 98.6322 228.57 98.76C232.94 99.68 235.33 96.1699 236.87 92.9599C239.169 87.9235 241.026 82.6973 242.42 77.34C242.69 76.34 242.95 75.34 243.21 74.34C243.71 72.42 244.184 70.4933 244.63 68.56L263.88 17.16C267.877 11.8403 273.057 7.52392 279.01 4.55248C284.964 1.58103 291.527 0.0360815 298.18 0.0399635C307.765 -0.0226887 317.084 3.18367 324.6 9.12999C337.19 18.65 344.68 37.3999 344.68 37.3999C346.549 41.5565 346.85 46.2493 345.527 50.6104C344.204 54.9715 341.346 58.7059 337.482 61.1231C333.619 63.5403 329.011 64.4767 324.51 63.7591C320.009 63.0416 315.921 60.7187 313 57.22C312.935 57.1517 312.874 57.0781 312.82 57C311.613 55.363 310.605 53.5869 309.82 51.7099C308.78 49.3629 307.622 47.07 306.35 44.84C305.664 43.6961 304.92 42.5881 304.12 41.52C303.453 40.5494 302.659 39.6717 301.76 38.91C299.98 37.49 297.76 36.9099 295.68 38.1499L295.38 38.34C293.24 39.81 291.75 42.77 290.7 45.05C287.75 51.51 285.98 58.14 284.29 64.93C283.96 66.24 283.65 67.56 283.35 68.87L275.4 94.87L264.16 119.59C260.148 124.765 255.015 128.964 249.147 131.87C243.279 134.776 236.829 136.315 230.28 136.37C203.06 136.94 190.13 112.37 190.13 112.37C174.63 86.92 170.05 53.37 168.96 42.64C168.74 40.41 168.73 39.08 168.73 39.08C168.728 35.7188 169.644 32.4209 171.38 29.5428C173.117 26.6646 175.606 24.3157 178.58 22.75C181.652 21.1849 185.076 20.4376 188.52 20.58C191.726 20.7092 194.844 21.6558 197.58 23.33C199.706 24.607 201.544 26.3092 202.98 28.33C205.54 31.97 206.11 36.5 206.63 40.82C207.683 50.3226 209.536 59.7193 212.17 68.91V68.91Z" fill="url(#paint18_linear)"/>
<path d="M212.17 68.91C214.264 76.2766 217.119 83.4051 220.69 90.18C222.32 93.18 223.94 96.18 226.91 98.07C227.418 98.3984 227.98 98.6322 228.57 98.76C232.94 99.68 235.33 96.1699 236.87 92.9599C239.169 87.9235 241.026 82.6973 242.42 77.34C242.69 76.34 242.95 75.34 243.21 74.34C243.71 72.42 244.184 70.4933 244.63 68.56L263.88 17.16C267.877 11.8403 273.057 7.52392 279.01 4.55248C284.964 1.58103 291.527 0.0360815 298.18 0.0399635C307.765 -0.0226887 317.084 3.18367 324.6 9.12999C337.19 18.65 344.68 37.3999 344.68 37.3999C346.549 41.5565 346.85 46.2493 345.527 50.6104C344.204 54.9715 341.346 58.7059 337.482 61.1231C333.619 63.5403 329.011 64.4767 324.51 63.7591C320.009 63.0416 315.921 60.7187 313 57.22C312.935 57.1517 312.874 57.0781 312.82 57C311.613 55.363 310.605 53.5869 309.82 51.7099C308.78 49.3629 307.622 47.07 306.35 44.84C305.664 43.6961 304.92 42.5881 304.12 41.52C303.453 40.5494 302.659 39.6717 301.76 38.91C299.98 37.49 297.76 36.9099 295.68 38.1499L295.38 38.34C293.24 39.81 291.75 42.77 290.7 45.05C287.75 51.51 285.98 58.14 284.29 64.93C283.96 66.24 283.65 67.56 283.35 68.87L275.4 94.87L264.16 119.59C260.148 124.765 255.015 128.964 249.147 131.87C243.279 134.776 236.829 136.315 230.28 136.37C203.06 136.94 190.13 112.37 190.13 112.37C174.63 86.92 170.05 53.37 168.96 42.64C168.74 40.41 168.73 39.08 168.73 39.08C168.728 35.7188 169.644 32.4209 171.38 29.5428C173.117 26.6646 175.606 24.3157 178.58 22.75C181.652 21.1849 185.076 20.4376 188.52 20.58C191.726 20.7092 194.844 21.6558 197.58 23.33C199.706 24.607 201.544 26.3092 202.98 28.33C205.54 31.97 206.11 36.5 206.63 40.82C207.683 50.3226 209.536 59.7193 212.17 68.91V68.91Z" fill="url(#paint19_linear)"/>
<path d="M340.502 20.6802C338.913 20.676 337.33 20.8743 335.792 21.2702C339.296 26.3377 342.275 31.7489 344.682 37.4202C346.328 41.0712 346.769 45.1515 345.942 49.0701C345.114 52.9887 343.061 56.542 340.079 59.2155C337.097 61.889 333.341 63.5438 329.356 63.9402C325.37 64.3365 321.362 63.4539 317.912 61.4202L315.972 68.5902C312.452 80.3702 309.972 84.9202 309.972 84.9202C308.608 88.1111 306.979 91.1819 305.102 94.1002C303.822 96.0202 302.172 97.9402 299.912 98.6702C299.124 98.9355 298.285 99.0142 297.462 98.9002C296.57 98.7957 295.709 98.5099 294.932 98.0602C293.446 96.9389 292.264 95.4643 291.492 93.7702C290.536 91.8962 289.678 89.9736 288.922 88.0102C287.242 83.9502 284.672 73.9502 284.672 73.9502L282.042 63.4902L279.372 52.9502L277.472 46.0102C272.472 28.0102 265.552 19.0802 265.552 19.0802C260.105 11.328 252.397 5.44674 243.482 2.2402C233.152 -1.5098 222.282 0.580227 222.282 0.580227C205.282 3.93023 196.352 15.5802 192.422 21.2002C194.222 21.6655 195.944 22.3933 197.532 23.3602C199.657 24.6372 201.495 26.3394 202.932 28.3602C205.492 32.0002 206.062 36.5302 206.582 40.8502C207.637 50.2294 209.47 59.5047 212.062 68.5802C217.822 49.4802 224.732 40.5802 224.732 40.5802C225.504 39.6179 226.43 38.79 227.472 38.1302C228.014 37.7972 228.621 37.5826 229.252 37.5002C230.422 37.3962 231.594 37.6847 232.582 38.3202C232.76 38.439 232.931 38.5692 233.092 38.7102C233.994 39.5156 234.77 40.4529 235.392 41.4902C236.826 44.0638 238.072 46.7374 239.122 49.4902C241.282 55.5802 243.122 63.0102 243.122 63.0102L248.622 84.6802C252.622 99.4302 256.012 106.59 256.012 106.59C264.352 125.7 277.122 131.09 277.122 131.09C283.349 134.468 290.289 136.319 297.372 136.49C304.1 136.679 310.775 135.245 316.832 132.31C323.476 129.035 329.303 124.313 333.882 118.49C336.972 114.9 341.512 106.18 341.512 106.18C346.543 96.1836 350.489 85.6771 353.282 74.8402C355.069 68.0927 356.505 61.2568 357.582 54.3602C358.122 50.9402 358.632 47.4902 359.032 44.0502C359.551 40.7843 359.453 37.4498 358.742 34.2202C358.593 33.6396 358.41 33.0686 358.192 32.5102C356.588 28.4556 353.607 25.0956 349.772 23.0202C346.925 21.4791 343.739 20.6747 340.502 20.6802V20.6802Z" fill="url(#paint20_linear)"/>
<path d="M340.502 20.6802C338.913 20.676 337.33 20.8743 335.792 21.2702C339.296 26.3377 342.275 31.7489 344.682 37.4202C346.328 41.0712 346.769 45.1515 345.942 49.0701C345.114 52.9887 343.061 56.542 340.079 59.2155C337.097 61.889 333.341 63.5438 329.356 63.9402C325.37 64.3365 321.362 63.4539 317.912 61.4202L315.972 68.5902C312.452 80.3702 309.972 84.9202 309.972 84.9202C308.608 88.1111 306.979 91.1819 305.102 94.1002C303.822 96.0202 302.172 97.9402 299.912 98.6702C299.124 98.9355 298.285 99.0142 297.462 98.9002C296.57 98.7957 295.709 98.5099 294.932 98.0602C293.446 96.9389 292.264 95.4643 291.492 93.7702C290.536 91.8962 289.678 89.9736 288.922 88.0102C287.242 83.9502 284.672 73.9502 284.672 73.9502L282.042 63.4902L279.372 52.9502L277.472 46.0102C272.472 28.0102 265.552 19.0802 265.552 19.0802C260.105 11.328 252.397 5.44674 243.482 2.2402C233.152 -1.5098 222.282 0.580227 222.282 0.580227C205.282 3.93023 196.352 15.5802 192.422 21.2002C194.222 21.6655 195.944 22.3933 197.532 23.3602C199.657 24.6372 201.495 26.3394 202.932 28.3602C205.492 32.0002 206.062 36.5302 206.582 40.8502C207.637 50.2294 209.47 59.5047 212.062 68.5802C217.822 49.4802 224.732 40.5802 224.732 40.5802C225.504 39.6179 226.43 38.79 227.472 38.1302C228.014 37.7972 228.621 37.5826 229.252 37.5002C230.422 37.3962 231.594 37.6847 232.582 38.3202C232.76 38.439 232.931 38.5692 233.092 38.7102C233.994 39.5156 234.77 40.4529 235.392 41.4902C236.826 44.0638 238.072 46.7374 239.122 49.4902C241.282 55.5802 243.122 63.0102 243.122 63.0102L248.622 84.6802C252.622 99.4302 256.012 106.59 256.012 106.59C264.352 125.7 277.122 131.09 277.122 131.09C283.349 134.468 290.289 136.319 297.372 136.49C304.1 136.679 310.775 135.245 316.832 132.31C323.476 129.035 329.303 124.313 333.882 118.49C336.972 114.9 341.512 106.18 341.512 106.18C346.543 96.1836 350.489 85.6771 353.282 74.8402C355.069 68.0927 356.505 61.2568 357.582 54.3602C358.122 50.9402 358.632 47.4902 359.032 44.0502C359.551 40.7843 359.453 37.4498 358.742 34.2202C358.593 33.6396 358.41 33.0686 358.192 32.5102C356.588 28.4556 353.607 25.0956 349.772 23.0202C346.925 21.4791 343.739 20.6747 340.502 20.6802V20.6802Z" fill="url(#paint21_radial)"/>
<path d="M340.502 20.6802C338.913 20.676 337.33 20.8743 335.792 21.2702C339.296 26.3377 342.275 31.7489 344.682 37.4202C346.328 41.0712 346.769 45.1515 345.942 49.0701C345.114 52.9887 343.061 56.542 340.079 59.2155C337.097 61.889 333.341 63.5438 329.356 63.9402C325.37 64.3365 321.362 63.4539 317.912 61.4202L315.972 68.5902C312.452 80.3702 309.972 84.9202 309.972 84.9202C308.608 88.1111 306.979 91.1819 305.102 94.1002C303.822 96.0202 302.172 97.9402 299.912 98.6702C299.124 98.9355 298.285 99.0142 297.462 98.9002C296.57 98.7957 295.709 98.5099 294.932 98.0602C293.446 96.9389 292.264 95.4643 291.492 93.7702C290.536 91.8962 289.678 89.9736 288.922 88.0102C287.242 83.9502 284.672 73.9502 284.672 73.9502L282.042 63.4902L279.372 52.9502L277.472 46.0102C272.472 28.0102 265.552 19.0802 265.552 19.0802C260.105 11.328 252.397 5.44674 243.482 2.2402C233.152 -1.5098 222.282 0.580227 222.282 0.580227C205.282 3.93023 196.352 15.5802 192.422 21.2002C194.222 21.6655 195.944 22.3933 197.532 23.3602C199.657 24.6372 201.495 26.3394 202.932 28.3602C205.492 32.0002 206.062 36.5302 206.582 40.8502C207.637 50.2294 209.47 59.5047 212.062 68.5802C217.822 49.4802 224.732 40.5802 224.732 40.5802C225.504 39.6179 226.43 38.79 227.472 38.1302C228.014 37.7972 228.621 37.5826 229.252 37.5002C230.422 37.3962 231.594 37.6847 232.582 38.3202C232.76 38.439 232.931 38.5692 233.092 38.7102C233.994 39.5156 234.77 40.4529 235.392 41.4902C236.826 44.0638 238.072 46.7374 239.122 49.4902C241.282 55.5802 243.122 63.0102 243.122 63.0102L248.622 84.6802C252.622 99.4302 256.012 106.59 256.012 106.59C264.352 125.7 277.122 131.09 277.122 131.09C283.349 134.468 290.289 136.319 297.372 136.49C304.1 136.679 310.775 135.245 316.832 132.31C323.476 129.035 329.303 124.313 333.882 118.49C336.972 114.9 341.512 106.18 341.512 106.18C346.543 96.1836 350.489 85.6771 353.282 74.8402C355.069 68.0927 356.505 61.2568 357.582 54.3602C358.122 50.9402 358.632 47.4902 359.032 44.0502C359.551 40.7843 359.453 37.4498 358.742 34.2202C358.593 33.6396 358.41 33.0686 358.192 32.5102C356.588 28.4556 353.607 25.0956 349.772 23.0202C346.925 21.4791 343.739 20.6747 340.502 20.6802V20.6802Z" fill="url(#paint22_radial)"/>
<path d="M340.502 20.6802C338.913 20.676 337.33 20.8743 335.792 21.2702C339.296 26.3377 342.275 31.7489 344.682 37.4202C346.328 41.0712 346.769 45.1515 345.942 49.0701C345.114 52.9887 343.061 56.542 340.079 59.2155C337.097 61.889 333.341 63.5438 329.356 63.9402C325.37 64.3365 321.362 63.4539 317.912 61.4202L315.972 68.5902C312.452 80.3702 309.972 84.9202 309.972 84.9202C308.608 88.1111 306.979 91.1819 305.102 94.1002C303.822 96.0202 302.172 97.9402 299.912 98.6702C299.124 98.9355 298.285 99.0142 297.462 98.9002C296.57 98.7957 295.709 98.5099 294.932 98.0602C293.446 96.9389 292.264 95.4643 291.492 93.7702C290.536 91.8962 289.678 89.9736 288.922 88.0102C287.242 83.9502 284.672 73.9502 284.672 73.9502L282.042 63.4902L279.372 52.9502L277.472 46.0102C272.472 28.0102 265.552 19.0802 265.552 19.0802C260.105 11.328 252.397 5.44674 243.482 2.2402C233.152 -1.5098 222.282 0.580227 222.282 0.580227C205.282 3.93023 196.352 15.5802 192.422 21.2002C194.222 21.6655 195.944 22.3933 197.532 23.3602C199.657 24.6372 201.495 26.3394 202.932 28.3602C205.492 32.0002 206.062 36.5302 206.582 40.8502C207.637 50.2294 209.47 59.5047 212.062 68.5802C217.822 49.4802 224.732 40.5802 224.732 40.5802C225.504 39.6179 226.43 38.79 227.472 38.1302C228.014 37.7972 228.621 37.5826 229.252 37.5002C230.422 37.3962 231.594 37.6847 232.582 38.3202C232.76 38.439 232.931 38.5692 233.092 38.7102C233.994 39.5156 234.77 40.4529 235.392 41.4902C236.826 44.0638 238.072 46.7374 239.122 49.4902C241.282 55.5802 243.122 63.0102 243.122 63.0102L248.622 84.6802C252.622 99.4302 256.012 106.59 256.012 106.59C264.352 125.7 277.122 131.09 277.122 131.09C283.349 134.468 290.289 136.319 297.372 136.49C304.1 136.679 310.775 135.245 316.832 132.31C323.476 129.035 329.303 124.313 333.882 118.49C336.972 114.9 341.512 106.18 341.512 106.18C346.543 96.1836 350.489 85.6771 353.282 74.8402C355.069 68.0927 356.505 61.2568 357.582 54.3602C358.122 50.9402 358.632 47.4902 359.032 44.0502C359.551 40.7843 359.453 37.4498 358.742 34.2202C358.593 33.6396 358.41 33.0686 358.192 32.5102C356.588 28.4556 353.607 25.0956 349.772 23.0202C346.925 21.4791 343.739 20.6747 340.502 20.6802V20.6802Z" fill="url(#paint23_radial)"/>
<path d="M340.502 20.6802C338.913 20.676 337.33 20.8743 335.792 21.2702C339.296 26.3377 342.275 31.7489 344.682 37.4202C346.328 41.0712 346.769 45.1515 345.942 49.0701C345.114 52.9887 343.061 56.542 340.079 59.2155C337.097 61.889 333.341 63.5438 329.356 63.9402C325.37 64.3365 321.362 63.4539 317.912 61.4202L315.972 68.5902C312.452 80.3702 309.972 84.9202 309.972 84.9202C308.608 88.1111 306.979 91.1819 305.102 94.1002C303.822 96.0202 302.172 97.9402 299.912 98.6702C299.124 98.9355 298.285 99.0142 297.462 98.9002C296.57 98.7957 295.709 98.5099 294.932 98.0602C293.446 96.9389 292.264 95.4643 291.492 93.7702C290.536 91.8962 289.678 89.9736 288.922 88.0102C287.242 83.9502 284.672 73.9502 284.672 73.9502L282.042 63.4902L279.372 52.9502L277.472 46.0102C272.472 28.0102 265.552 19.0802 265.552 19.0802C260.105 11.328 252.397 5.44674 243.482 2.2402C233.152 -1.5098 222.282 0.580227 222.282 0.580227C205.282 3.93023 196.352 15.5802 192.422 21.2002C194.222 21.6655 195.944 22.3933 197.532 23.3602C199.657 24.6372 201.495 26.3394 202.932 28.3602C205.492 32.0002 206.062 36.5302 206.582 40.8502C207.637 50.2294 209.47 59.5047 212.062 68.5802C217.822 49.4802 224.732 40.5802 224.732 40.5802C225.504 39.6179 226.43 38.79 227.472 38.1302C228.014 37.7972 228.621 37.5826 229.252 37.5002C230.422 37.3962 231.594 37.6847 232.582 38.3202C232.76 38.439 232.931 38.5692 233.092 38.7102C233.994 39.5156 234.77 40.4529 235.392 41.4902C236.826 44.0638 238.072 46.7374 239.122 49.4902C241.282 55.5802 243.122 63.0102 243.122 63.0102L248.622 84.6802C252.622 99.4302 256.012 106.59 256.012 106.59C264.352 125.7 277.122 131.09 277.122 131.09C283.349 134.468 290.289 136.319 297.372 136.49C304.1 136.679 310.775 135.245 316.832 132.31C323.476 129.035 329.303 124.313 333.882 118.49C336.972 114.9 341.512 106.18 341.512 106.18C346.543 96.1836 350.489 85.6771 353.282 74.8402C355.069 68.0927 356.505 61.2568 357.582 54.3602C358.122 50.9402 358.632 47.4902 359.032 44.0502C359.551 40.7843 359.453 37.4498 358.742 34.2202C358.593 33.6396 358.41 33.0686 358.192 32.5102C356.588 28.4556 353.607 25.0956 349.772 23.0202C346.925 21.4791 343.739 20.6747 340.502 20.6802V20.6802Z" fill="url(#paint24_radial)"/>
<path d="M340.502 20.6802C338.913 20.676 337.33 20.8743 335.792 21.2702C339.296 26.3377 342.275 31.7489 344.682 37.4202C346.328 41.0712 346.769 45.1515 345.942 49.0701C345.114 52.9887 343.061 56.542 340.079 59.2155C337.097 61.889 333.341 63.5438 329.356 63.9402C325.37 64.3365 321.362 63.4539 317.912 61.4202L315.972 68.5902C312.452 80.3702 309.972 84.9202 309.972 84.9202C308.608 88.1111 306.979 91.1819 305.102 94.1002C303.822 96.0202 302.172 97.9402 299.912 98.6702C299.124 98.9355 298.285 99.0142 297.462 98.9002C296.57 98.7957 295.709 98.5099 294.932 98.0602C293.446 96.9389 292.264 95.4643 291.492 93.7702C290.536 91.8962 289.678 89.9736 288.922 88.0102C287.242 83.9502 284.672 73.9502 284.672 73.9502L282.042 63.4902L279.372 52.9502L277.472 46.0102C272.472 28.0102 265.552 19.0802 265.552 19.0802C260.105 11.328 252.397 5.44674 243.482 2.2402C233.152 -1.5098 222.282 0.580227 222.282 0.580227C205.282 3.93023 196.352 15.5802 192.422 21.2002C194.222 21.6655 195.944 22.3933 197.532 23.3602C199.657 24.6372 201.495 26.3394 202.932 28.3602C205.492 32.0002 206.062 36.5302 206.582 40.8502C207.637 50.2294 209.47 59.5047 212.062 68.5802C217.822 49.4802 224.732 40.5802 224.732 40.5802C225.504 39.6179 226.43 38.79 227.472 38.1302C228.014 37.7972 228.621 37.5826 229.252 37.5002C230.422 37.3962 231.594 37.6847 232.582 38.3202C232.76 38.439 232.931 38.5692 233.092 38.7102C233.994 39.5156 234.77 40.4529 235.392 41.4902C236.826 44.0638 238.072 46.7374 239.122 49.4902C241.282 55.5802 243.122 63.0102 243.122 63.0102L248.622 84.6802C252.622 99.4302 256.012 106.59 256.012 106.59C264.352 125.7 277.122 131.09 277.122 131.09C283.349 134.468 290.289 136.319 297.372 136.49C304.1 136.679 310.775 135.245 316.832 132.31C323.476 129.035 329.303 124.313 333.882 118.49C336.972 114.9 341.512 106.18 341.512 106.18C346.543 96.1836 350.489 85.6771 353.282 74.8402C355.069 68.0927 356.505 61.2568 357.582 54.3602C358.122 50.9402 358.632 47.4902 359.032 44.0502C359.551 40.7843 359.453 37.4498 358.742 34.2202C358.593 33.6396 358.41 33.0686 358.192 32.5102C356.588 28.4556 353.607 25.0956 349.772 23.0202C346.925 21.4791 343.739 20.6747 340.502 20.6802V20.6802Z" fill="url(#paint25_radial)"/>
<path d="M340.502 20.6802C338.913 20.676 337.33 20.8743 335.792 21.2702C339.296 26.3377 342.275 31.7489 344.682 37.4202C346.328 41.0712 346.769 45.1515 345.942 49.0701C345.114 52.9887 343.061 56.542 340.079 59.2155C337.097 61.889 333.341 63.5438 329.356 63.9402C325.37 64.3365 321.362 63.4539 317.912 61.4202L315.972 68.5902C312.452 80.3702 309.972 84.9202 309.972 84.9202C308.608 88.1111 306.979 91.1819 305.102 94.1002C303.822 96.0202 302.172 97.9402 299.912 98.6702C299.124 98.9355 298.285 99.0142 297.462 98.9002C296.57 98.7957 295.709 98.5099 294.932 98.0602C293.446 96.9389 292.264 95.4643 291.492 93.7702C290.536 91.8962 289.678 89.9736 288.922 88.0102C287.242 83.9502 284.672 73.9502 284.672 73.9502L282.042 63.4902L279.372 52.9502L277.472 46.0102C272.472 28.0102 265.552 19.0802 265.552 19.0802C260.105 11.328 252.397 5.44674 243.482 2.2402C233.152 -1.5098 222.282 0.580227 222.282 0.580227C205.282 3.93023 196.352 15.5802 192.422 21.2002C194.222 21.6655 195.944 22.3933 197.532 23.3602C199.657 24.6372 201.495 26.3394 202.932 28.3602C205.492 32.0002 206.062 36.5302 206.582 40.8502C207.637 50.2294 209.47 59.5047 212.062 68.5802C217.822 49.4802 224.732 40.5802 224.732 40.5802C225.504 39.6179 226.43 38.79 227.472 38.1302C228.014 37.7972 228.621 37.5826 229.252 37.5002C230.422 37.3962 231.594 37.6847 232.582 38.3202C232.76 38.439 232.931 38.5692 233.092 38.7102C233.994 39.5156 234.77 40.4529 235.392 41.4902C236.826 44.0638 238.072 46.7374 239.122 49.4902C241.282 55.5802 243.122 63.0102 243.122 63.0102L248.622 84.6802C252.622 99.4302 256.012 106.59 256.012 106.59C264.352 125.7 277.122 131.09 277.122 131.09C283.349 134.468 290.289 136.319 297.372 136.49C304.1 136.679 310.775 135.245 316.832 132.31C323.476 129.035 329.303 124.313 333.882 118.49C336.972 114.9 341.512 106.18 341.512 106.18C346.543 96.1836 350.489 85.6771 353.282 74.8402C355.069 68.0927 356.505 61.2568 357.582 54.3602C358.122 50.9402 358.632 47.4902 359.032 44.0502C359.551 40.7843 359.453 37.4498 358.742 34.2202C358.593 33.6396 358.41 33.0686 358.192 32.5102C356.588 28.4556 353.607 25.0956 349.772 23.0202C346.925 21.4791 343.739 20.6747 340.502 20.6802V20.6802Z" fill="url(#paint26_radial)"/>
<path d="M340.502 20.6802C338.913 20.676 337.33 20.8743 335.792 21.2702C339.296 26.3377 342.275 31.7489 344.682 37.4202C346.328 41.0712 346.769 45.1515 345.942 49.0701C345.114 52.9887 343.061 56.542 340.079 59.2155C337.097 61.889 333.341 63.5438 329.356 63.9402C325.37 64.3365 321.362 63.4539 317.912 61.4202L315.972 68.5902C312.452 80.3702 309.972 84.9202 309.972 84.9202C308.608 88.1111 306.979 91.1819 305.102 94.1002C303.822 96.0202 302.172 97.9402 299.912 98.6702C299.124 98.9355 298.285 99.0142 297.462 98.9002C296.57 98.7957 295.709 98.5099 294.932 98.0602C293.446 96.9389 292.264 95.4643 291.492 93.7702C290.536 91.8962 289.678 89.9736 288.922 88.0102C287.242 83.9502 284.672 73.9502 284.672 73.9502L282.042 63.4902L279.372 52.9502L277.472 46.0102C272.472 28.0102 265.552 19.0802 265.552 19.0802C260.105 11.328 252.397 5.44674 243.482 2.2402C233.152 -1.5098 222.282 0.580227 222.282 0.580227C205.282 3.93023 196.352 15.5802 192.422 21.2002C194.222 21.6655 195.944 22.3933 197.532 23.3602C199.657 24.6372 201.495 26.3394 202.932 28.3602C205.492 32.0002 206.062 36.5302 206.582 40.8502C207.637 50.2294 209.47 59.5047 212.062 68.5802C217.822 49.4802 224.732 40.5802 224.732 40.5802C225.504 39.6179 226.43 38.79 227.472 38.1302C228.014 37.7972 228.621 37.5826 229.252 37.5002C230.422 37.3962 231.594 37.6847 232.582 38.3202C232.76 38.439 232.931 38.5692 233.092 38.7102C233.994 39.5156 234.77 40.4529 235.392 41.4902C236.826 44.0638 238.072 46.7374 239.122 49.4902C241.282 55.5802 243.122 63.0102 243.122 63.0102L248.622 84.6802C252.622 99.4302 256.012 106.59 256.012 106.59C264.352 125.7 277.122 131.09 277.122 131.09C283.349 134.468 290.289 136.319 297.372 136.49C304.1 136.679 310.775 135.245 316.832 132.31C323.476 129.035 329.303 124.313 333.882 118.49C336.972 114.9 341.512 106.18 341.512 106.18C346.543 96.1836 350.489 85.6771 353.282 74.8402C355.069 68.0927 356.505 61.2568 357.582 54.3602C358.122 50.9402 358.632 47.4902 359.032 44.0502C359.551 40.7843 359.453 37.4498 358.742 34.2202C358.593 33.6396 358.41 33.0686 358.192 32.5102C356.588 28.4556 353.607 25.0956 349.772 23.0202C346.925 21.4791 343.739 20.6747 340.502 20.6802V20.6802Z" fill="url(#paint27_radial)"/>
<path d="M340.502 20.6802C338.913 20.676 337.33 20.8743 335.792 21.2702C339.296 26.3377 342.275 31.7489 344.682 37.4202C346.328 41.0712 346.769 45.1515 345.942 49.0701C345.114 52.9887 343.061 56.542 340.079 59.2155C337.097 61.889 333.341 63.5438 329.356 63.9402C325.37 64.3365 321.362 63.4539 317.912 61.4202L315.972 68.5902C312.452 80.3702 309.972 84.9202 309.972 84.9202C308.608 88.1111 306.979 91.1819 305.102 94.1002C303.822 96.0202 302.172 97.9402 299.912 98.6702C299.124 98.9355 298.285 99.0142 297.462 98.9002C296.57 98.7957 295.709 98.5099 294.932 98.0602C293.446 96.9389 292.264 95.4643 291.492 93.7702C290.536 91.8962 289.678 89.9736 288.922 88.0102C287.242 83.9502 284.672 73.9502 284.672 73.9502L282.042 63.4902L279.372 52.9502L277.472 46.0102C272.472 28.0102 265.552 19.0802 265.552 19.0802C260.105 11.328 252.397 5.44674 243.482 2.2402C233.152 -1.5098 222.282 0.580227 222.282 0.580227C205.282 3.93023 196.352 15.5802 192.422 21.2002C194.222 21.6655 195.944 22.3933 197.532 23.3602C199.657 24.6372 201.495 26.3394 202.932 28.3602C205.492 32.0002 206.062 36.5302 206.582 40.8502C207.637 50.2294 209.47 59.5047 212.062 68.5802C217.822 49.4802 224.732 40.5802 224.732 40.5802C225.504 39.6179 226.43 38.79 227.472 38.1302C228.014 37.7972 228.621 37.5826 229.252 37.5002C230.422 37.3962 231.594 37.6847 232.582 38.3202C232.76 38.439 232.931 38.5692 233.092 38.7102C233.994 39.5156 234.77 40.4529 235.392 41.4902C236.826 44.0638 238.072 46.7374 239.122 49.4902C241.282 55.5802 243.122 63.0102 243.122 63.0102L248.622 84.6802C252.622 99.4302 256.012 106.59 256.012 106.59C264.352 125.7 277.122 131.09 277.122 131.09C283.349 134.468 290.289 136.319 297.372 136.49C304.1 136.679 310.775 135.245 316.832 132.31C323.476 129.035 329.303 124.313 333.882 118.49C336.972 114.9 341.512 106.18 341.512 106.18C346.543 96.1836 350.489 85.6771 353.282 74.8402C355.069 68.0927 356.505 61.2568 357.582 54.3602C358.122 50.9402 358.632 47.4902 359.032 44.0502C359.551 40.7843 359.453 37.4498 358.742 34.2202C358.593 33.6396 358.41 33.0686 358.192 32.5102C356.588 28.4556 353.607 25.0956 349.772 23.0202C346.925 21.4791 343.739 20.6747 340.502 20.6802V20.6802Z" fill="url(#paint28_radial)"/>
<path d="M340.502 20.6802C338.913 20.676 337.33 20.8743 335.792 21.2702C339.296 26.3377 342.275 31.7489 344.682 37.4202C346.328 41.0712 346.769 45.1515 345.942 49.0701C345.114 52.9887 343.061 56.542 340.079 59.2155C337.097 61.889 333.341 63.5438 329.356 63.9402C325.37 64.3365 321.362 63.4539 317.912 61.4202L315.972 68.5902C312.452 80.3702 309.972 84.9202 309.972 84.9202C308.608 88.1111 306.979 91.1819 305.102 94.1002C303.822 96.0202 302.172 97.9402 299.912 98.6702C299.124 98.9355 298.285 99.0142 297.462 98.9002C296.57 98.7957 295.709 98.5099 294.932 98.0602C293.446 96.9389 292.264 95.4643 291.492 93.7702C290.536 91.8962 289.678 89.9736 288.922 88.0102C287.242 83.9502 284.672 73.9502 284.672 73.9502L282.042 63.4902L279.372 52.9502L277.472 46.0102C272.472 28.0102 265.552 19.0802 265.552 19.0802C260.105 11.328 252.397 5.44674 243.482 2.2402C233.152 -1.5098 222.282 0.580227 222.282 0.580227C205.282 3.93023 196.352 15.5802 192.422 21.2002C194.222 21.6655 195.944 22.3933 197.532 23.3602C199.657 24.6372 201.495 26.3394 202.932 28.3602C205.492 32.0002 206.062 36.5302 206.582 40.8502C207.637 50.2294 209.47 59.5047 212.062 68.5802C217.822 49.4802 224.732 40.5802 224.732 40.5802C225.504 39.6179 226.43 38.79 227.472 38.1302C228.014 37.7972 228.621 37.5826 229.252 37.5002C230.422 37.3962 231.594 37.6847 232.582 38.3202C232.76 38.439 232.931 38.5692 233.092 38.7102C233.994 39.5156 234.77 40.4529 235.392 41.4902C236.826 44.0638 238.072 46.7374 239.122 49.4902C241.282 55.5802 243.122 63.0102 243.122 63.0102L248.622 84.6802C252.622 99.4302 256.012 106.59 256.012 106.59C264.352 125.7 277.122 131.09 277.122 131.09C283.349 134.468 290.289 136.319 297.372 136.49C304.1 136.679 310.775 135.245 316.832 132.31C323.476 129.035 329.303 124.313 333.882 118.49C336.972 114.9 341.512 106.18 341.512 106.18C346.543 96.1836 350.489 85.6771 353.282 74.8402C355.069 68.0927 356.505 61.2568 357.582 54.3602C358.122 50.9402 358.632 47.4902 359.032 44.0502C359.551 40.7843 359.453 37.4498 358.742 34.2202C358.593 33.6396 358.41 33.0686 358.192 32.5102C356.588 28.4556 353.607 25.0956 349.772 23.0202C346.925 21.4791 343.739 20.6747 340.502 20.6802V20.6802Z" fill="url(#paint29_radial)"/>
<path d="M340.502 20.6802C338.913 20.676 337.33 20.8743 335.792 21.2702C339.296 26.3377 342.275 31.7489 344.682 37.4202C346.328 41.0712 346.769 45.1515 345.942 49.0701C345.114 52.9887 343.061 56.542 340.079 59.2155C337.097 61.889 333.341 63.5438 329.356 63.9402C325.37 64.3365 321.362 63.4539 317.912 61.4202L315.972 68.5902C312.452 80.3702 309.972 84.9202 309.972 84.9202C308.608 88.1111 306.979 91.1819 305.102 94.1002C303.822 96.0202 302.172 97.9402 299.912 98.6702C299.124 98.9355 298.285 99.0142 297.462 98.9002C296.57 98.7957 295.709 98.5099 294.932 98.0602C293.446 96.9389 292.264 95.4643 291.492 93.7702C290.536 91.8962 289.678 89.9736 288.922 88.0102C287.242 83.9502 284.672 73.9502 284.672 73.9502L282.042 63.4902L279.372 52.9502L277.472 46.0102C272.472 28.0102 265.552 19.0802 265.552 19.0802C260.105 11.328 252.397 5.44674 243.482 2.2402C233.152 -1.5098 222.282 0.580227 222.282 0.580227C205.282 3.93023 196.352 15.5802 192.422 21.2002C194.222 21.6655 195.944 22.3933 197.532 23.3602C199.657 24.6372 201.495 26.3394 202.932 28.3602C205.492 32.0002 206.062 36.5302 206.582 40.8502C207.637 50.2294 209.47 59.5047 212.062 68.5802C217.822 49.4802 224.732 40.5802 224.732 40.5802C225.504 39.6179 226.43 38.79 227.472 38.1302C228.014 37.7972 228.621 37.5826 229.252 37.5002C230.422 37.3962 231.594 37.6847 232.582 38.3202C232.76 38.439 232.931 38.5692 233.092 38.7102C233.994 39.5156 234.77 40.4529 235.392 41.4902C236.826 44.0638 238.072 46.7374 239.122 49.4902C241.282 55.5802 243.122 63.0102 243.122 63.0102L248.622 84.6802C252.622 99.4302 256.012 106.59 256.012 106.59C264.352 125.7 277.122 131.09 277.122 131.09C283.349 134.468 290.289 136.319 297.372 136.49C304.1 136.679 310.775 135.245 316.832 132.31C323.476 129.035 329.303 124.313 333.882 118.49C336.972 114.9 341.512 106.18 341.512 106.18C346.543 96.1836 350.489 85.6771 353.282 74.8402C355.069 68.0927 356.505 61.2568 357.582 54.3602C358.122 50.9402 358.632 47.4902 359.032 44.0502C359.551 40.7843 359.453 37.4498 358.742 34.2202C358.593 33.6396 358.41 33.0686 358.192 32.5102C356.588 28.4556 353.607 25.0956 349.772 23.0202C346.925 21.4791 343.739 20.6747 340.502 20.6802V20.6802Z" fill="url(#paint30_radial)"/>
<path d="M340.502 20.6802C338.913 20.676 337.33 20.8743 335.792 21.2702C339.296 26.3377 342.275 31.7489 344.682 37.4202C346.328 41.0712 346.769 45.1515 345.942 49.0701C345.114 52.9887 343.061 56.542 340.079 59.2155C337.097 61.889 333.341 63.5438 329.356 63.9402C325.37 64.3365 321.362 63.4539 317.912 61.4202L315.972 68.5902C312.452 80.3702 309.972 84.9202 309.972 84.9202C308.608 88.1111 306.979 91.1819 305.102 94.1002C303.822 96.0202 302.172 97.9402 299.912 98.6702C299.124 98.9355 298.285 99.0142 297.462 98.9002C296.57 98.7957 295.709 98.5099 294.932 98.0602C293.446 96.9389 292.264 95.4643 291.492 93.7702C290.536 91.8962 289.678 89.9736 288.922 88.0102C287.242 83.9502 284.672 73.9502 284.672 73.9502L282.042 63.4902L279.372 52.9502L277.472 46.0102C272.472 28.0102 265.552 19.0802 265.552 19.0802C260.105 11.328 252.397 5.44674 243.482 2.2402C233.152 -1.5098 222.282 0.580227 222.282 0.580227C205.282 3.93023 196.352 15.5802 192.422 21.2002C194.222 21.6655 195.944 22.3933 197.532 23.3602C199.657 24.6372 201.495 26.3394 202.932 28.3602C205.492 32.0002 206.062 36.5302 206.582 40.8502C207.637 50.2294 209.47 59.5047 212.062 68.5802C217.822 49.4802 224.732 40.5802 224.732 40.5802C225.504 39.6179 226.43 38.79 227.472 38.1302C228.014 37.7972 228.621 37.5826 229.252 37.5002C230.422 37.3962 231.594 37.6847 232.582 38.3202C232.76 38.439 232.931 38.5692 233.092 38.7102C233.994 39.5156 234.77 40.4529 235.392 41.4902C236.826 44.0638 238.072 46.7374 239.122 49.4902C241.282 55.5802 243.122 63.0102 243.122 63.0102L248.622 84.6802C252.622 99.4302 256.012 106.59 256.012 106.59C264.352 125.7 277.122 131.09 277.122 131.09C283.349 134.468 290.289 136.319 297.372 136.49C304.1 136.679 310.775 135.245 316.832 132.31C323.476 129.035 329.303 124.313 333.882 118.49C336.972 114.9 341.512 106.18 341.512 106.18C346.543 96.1836 350.489 85.6771 353.282 74.8402C355.069 68.0927 356.505 61.2568 357.582 54.3602C358.122 50.9402 358.632 47.4902 359.032 44.0502C359.551 40.7843 359.453 37.4498 358.742 34.2202C358.593 33.6396 358.41 33.0686 358.192 32.5102C356.588 28.4556 353.607 25.0956 349.772 23.0202C346.925 21.4791 343.739 20.6747 340.502 20.6802V20.6802Z" fill="url(#paint31_radial)"/>
<path d="M340.502 20.6802C338.913 20.676 337.33 20.8743 335.792 21.2702C339.296 26.3377 342.275 31.7489 344.682 37.4202C346.328 41.0712 346.769 45.1515 345.942 49.0701C345.114 52.9887 343.061 56.542 340.079 59.2155C337.097 61.889 333.341 63.5438 329.356 63.9402C325.37 64.3365 321.362 63.4539 317.912 61.4202L315.972 68.5902C312.452 80.3702 309.972 84.9202 309.972 84.9202C308.608 88.1111 306.979 91.1819 305.102 94.1002C303.822 96.0202 302.172 97.9402 299.912 98.6702C299.124 98.9355 298.285 99.0142 297.462 98.9002C296.57 98.7957 295.709 98.5099 294.932 98.0602C293.446 96.9389 292.264 95.4643 291.492 93.7702C290.536 91.8962 289.678 89.9736 288.922 88.0102C287.242 83.9502 284.672 73.9502 284.672 73.9502L282.042 63.4902L279.372 52.9502L277.472 46.0102C272.472 28.0102 265.552 19.0802 265.552 19.0802C260.105 11.328 252.397 5.44674 243.482 2.2402C233.152 -1.5098 222.282 0.580227 222.282 0.580227C205.282 3.93023 196.352 15.5802 192.422 21.2002C194.222 21.6655 195.944 22.3933 197.532 23.3602C199.657 24.6372 201.495 26.3394 202.932 28.3602C205.492 32.0002 206.062 36.5302 206.582 40.8502C207.637 50.2294 209.47 59.5047 212.062 68.5802C217.822 49.4802 224.732 40.5802 224.732 40.5802C225.504 39.6179 226.43 38.79 227.472 38.1302C228.014 37.7972 228.621 37.5826 229.252 37.5002C230.422 37.3962 231.594 37.6847 232.582 38.3202C232.76 38.439 232.931 38.5692 233.092 38.7102C233.994 39.5156 234.77 40.4529 235.392 41.4902C236.826 44.0638 238.072 46.7374 239.122 49.4902C241.282 55.5802 243.122 63.0102 243.122 63.0102L248.622 84.6802C252.622 99.4302 256.012 106.59 256.012 106.59C264.352 125.7 277.122 131.09 277.122 131.09C283.349 134.468 290.289 136.319 297.372 136.49C304.1 136.679 310.775 135.245 316.832 132.31C323.476 129.035 329.303 124.313 333.882 118.49C336.972 114.9 341.512 106.18 341.512 106.18C346.543 96.1836 350.489 85.6771 353.282 74.8402C355.069 68.0927 356.505 61.2568 357.582 54.3602C358.122 50.9402 358.632 47.4902 359.032 44.0502C359.551 40.7843 359.453 37.4498 358.742 34.2202C358.593 33.6396 358.41 33.0686 358.192 32.5102C356.588 28.4556 353.607 25.0956 349.772 23.0202C346.925 21.4791 343.739 20.6747 340.502 20.6802V20.6802Z" fill="url(#paint32_radial)"/>
<path d="M340.502 20.6802C338.913 20.676 337.33 20.8743 335.792 21.2702C339.296 26.3377 342.275 31.7489 344.682 37.4202C346.328 41.0712 346.769 45.1515 345.942 49.0701C345.114 52.9887 343.061 56.542 340.079 59.2155C337.097 61.889 333.341 63.5438 329.356 63.9402C325.37 64.3365 321.362 63.4539 317.912 61.4202L315.972 68.5902C312.452 80.3702 309.972 84.9202 309.972 84.9202C308.608 88.1111 306.979 91.1819 305.102 94.1002C303.822 96.0202 302.172 97.9402 299.912 98.6702C299.124 98.9355 298.285 99.0142 297.462 98.9002C296.57 98.7957 295.709 98.5099 294.932 98.0602C293.446 96.9389 292.264 95.4643 291.492 93.7702C290.536 91.8962 289.678 89.9736 288.922 88.0102C287.242 83.9502 284.672 73.9502 284.672 73.9502L282.042 63.4902L279.372 52.9502L277.472 46.0102C272.472 28.0102 265.552 19.0802 265.552 19.0802C260.105 11.328 252.397 5.44674 243.482 2.2402C233.152 -1.5098 222.282 0.580227 222.282 0.580227C205.282 3.93023 196.352 15.5802 192.422 21.2002C194.222 21.6655 195.944 22.3933 197.532 23.3602C199.657 24.6372 201.495 26.3394 202.932 28.3602C205.492 32.0002 206.062 36.5302 206.582 40.8502C207.637 50.2294 209.47 59.5047 212.062 68.5802C217.822 49.4802 224.732 40.5802 224.732 40.5802C225.504 39.6179 226.43 38.79 227.472 38.1302C228.014 37.7972 228.621 37.5826 229.252 37.5002C230.422 37.3962 231.594 37.6847 232.582 38.3202C232.76 38.439 232.931 38.5692 233.092 38.7102C233.994 39.5156 234.77 40.4529 235.392 41.4902C236.826 44.0638 238.072 46.7374 239.122 49.4902C241.282 55.5802 243.122 63.0102 243.122 63.0102L248.622 84.6802C252.622 99.4302 256.012 106.59 256.012 106.59C264.352 125.7 277.122 131.09 277.122 131.09C283.349 134.468 290.289 136.319 297.372 136.49C304.1 136.679 310.775 135.245 316.832 132.31C323.476 129.035 329.303 124.313 333.882 118.49C336.972 114.9 341.512 106.18 341.512 106.18C346.543 96.1836 350.489 85.6771 353.282 74.8402C355.069 68.0927 356.505 61.2568 357.582 54.3602C358.122 50.9402 358.632 47.4902 359.032 44.0502C359.551 40.7843 359.453 37.4498 358.742 34.2202C358.593 33.6396 358.41 33.0686 358.192 32.5102C356.588 28.4556 353.607 25.0956 349.772 23.0202C346.925 21.4791 343.739 20.6747 340.502 20.6802V20.6802Z" fill="url(#paint33_linear)"/>
<path d="M263.879 17.18C267.875 11.8603 273.055 7.54388 279.009 4.57243C284.962 1.60099 291.525 0.056101 298.179 0.0599831C307.763 -0.00266918 317.082 3.20363 324.599 9.14995C337.189 18.6699 344.679 37.42 344.679 37.42C346.548 41.5765 346.849 46.2693 345.525 50.6304C344.202 54.9914 341.344 58.7259 337.481 61.1431C333.617 63.5603 329.009 64.4967 324.508 63.7792C320.008 63.0616 315.919 60.7387 312.999 57.24C312.933 57.1717 312.873 57.0981 312.819 57.02C311.611 55.383 310.604 53.6069 309.819 51.73C308.779 49.383 307.621 47.09 306.349 44.86C305.663 43.7161 304.918 42.608 304.119 41.54C303.451 40.5694 302.658 39.6917 301.759 38.93C299.979 37.51 297.759 36.93 295.679 38.17L295.379 38.36C293.239 39.83 291.749 42.79 290.699 45.07L263.879 17.18Z" fill="url(#paint34_linear)"/>
<path d="M263.879 17.18C267.875 11.8603 273.055 7.54388 279.009 4.57243C284.962 1.60099 291.525 0.056101 298.179 0.0599831C307.763 -0.00266918 317.082 3.20363 324.599 9.14995C337.189 18.6699 344.679 37.42 344.679 37.42C346.548 41.5765 346.849 46.2693 345.525 50.6304C344.202 54.9914 341.344 58.7259 337.481 61.1431C333.617 63.5603 329.009 64.4967 324.508 63.7792C320.008 63.0616 315.919 60.7387 312.999 57.24C312.933 57.1717 312.873 57.0981 312.819 57.02C311.611 55.383 310.604 53.6069 309.819 51.73C308.779 49.383 307.621 47.09 306.349 44.86C305.663 43.7161 304.918 42.608 304.119 41.54C303.451 40.5694 302.658 39.6917 301.759 38.93C299.979 37.51 297.759 36.93 295.679 38.17L295.379 38.36C293.239 39.83 291.749 42.79 290.699 45.07L263.879 17.18Z" fill="url(#paint35_linear)"/>
</g>
<defs>
<linearGradient id="paint0_linear" x1="177.26" y1="92.12" x2="325.5" y2="32.2" gradientUnits="userSpaceOnUse">
<stop stop-color="#686968"/>
<stop offset="0.34" stop-color="#1F1F1F"/>
<stop offset="0.45" stop-color="#1C1C1C"/>
<stop offset="0.52" stop-color="#141414"/>
<stop offset="0.59" stop-color="#050605"/>
<stop offset="0.6" stop-color="#010201"/>
<stop offset="0.7" stop-color="#1C1D1C"/>
<stop offset="0.9" stop-color="#4E4F4E"/>
<stop offset="1" stop-color="#616261"/>
</linearGradient>
<radialGradient id="paint1_radial" cx="0" cy="0" r="1" gradientUnits="userSpaceOnUse" gradientTransform="translate(278.456 56.159) rotate(74.32) scale(70.85 53.846)">
<stop stop-color="#020202"/>
<stop offset="0.78" stop-color="#020202" stop-opacity="0"/>
</radialGradient>
<radialGradient id="paint2_radial" cx="0" cy="0" r="1" gradientUnits="userSpaceOnUse" gradientTransform="translate(288.572 56.8475) rotate(91.1458) scale(47.9096 36.4063)">
<stop stop-color="#020202"/>
<stop offset="0.92" stop-color="#020202" stop-opacity="0"/>
</radialGradient>
<radialGradient id="paint3_radial" cx="0" cy="0" r="1" gradientUnits="userSpaceOnUse" gradientTransform="translate(287.94 53.692) rotate(88.6) scale(44.66 31.7086)">
<stop stop-color="#020202"/>
<stop offset="0.92" stop-color="#020202" stop-opacity="0"/>
</radialGradient>
<radialGradient id="paint4_radial" cx="0" cy="0" r="1" gradientUnits="userSpaceOnUse" gradientTransform="translate(-55472.6 106860) rotate(88.6) scale(6404.58 3490.68)">
<stop stop-color="#020202"/>
<stop offset="0.92" stop-color="#020202" stop-opacity="0"/>
</radialGradient>
<radialGradient id="paint5_radial" cx="0" cy="0" r="1" gradientUnits="userSpaceOnUse" gradientTransform="translate(288.132 53.7164) rotate(88.6) scale(28.76 18.4064)">
<stop stop-color="#020202"/>
<stop offset="1" stop-color="#020202" stop-opacity="0"/>
</radialGradient>
<radialGradient id="paint6_radial" cx="0" cy="0" r="1" gradientUnits="userSpaceOnUse" gradientTransform="translate(291.864 55.4533) rotate(23.8) scale(46.28 34.71)">
<stop stop-color="#020202"/>
<stop offset="0.9" stop-color="#020202" stop-opacity="0"/>
</radialGradient>
<radialGradient id="paint7_radial" cx="0" cy="0" r="1" gradientUnits="userSpaceOnUse" gradientTransform="translate(277.577 -9.45144) rotate(35.2724) scale(61.7198 56.4337)">
<stop stop-color="#3A3A3A"/>
<stop offset="0.4" stop-color="#3A3A3A" stop-opacity="0.44"/>
<stop offset="0.76" stop-color="#3A3A3A" stop-opacity="0"/>
</radialGradient>
<radialGradient id="paint8_radial" cx="0" cy="0" r="1" gradientUnits="userSpaceOnUse" gradientTransform="translate(246.781 -14.6791) rotate(35.2724) scale(61.7198 56.4337)">
<stop stop-color="#373837"/>
<stop offset="0.39" stop-color="#373837" stop-opacity="0.45"/>
<stop offset="0.76" stop-color="#373837" stop-opacity="0"/>
</radialGradient>
<radialGradient id="paint9_radial" cx="0" cy="0" r="1" gradientUnits="userSpaceOnUse" gradientTransform="translate(302.481 68.7274) rotate(101.15) scale(54.53 67.0719)">
<stop stop-color="#020202"/>
<stop offset="0.56" stop-color="#020202" stop-opacity="0"/>
</radialGradient>
<radialGradient id="paint10_radial" cx="0" cy="0" r="1" gradientUnits="userSpaceOnUse" gradientTransform="translate(270.595 69.2654) rotate(-51.0725) scale(71.3182 76.873)">
<stop stop-color="#020202"/>
<stop offset="0.65" stop-color="#020202" stop-opacity="0"/>
</radialGradient>
<radialGradient id="paint11_radial" cx="0" cy="0" r="1" gradientUnits="userSpaceOnUse" gradientTransform="translate(263.173 77.3581) rotate(-31.66) scale(69.39 54.8181)">
<stop offset="0.05" stop-color="#020202"/>
<stop offset="0.6" stop-color="#020202" stop-opacity="0"/>
</radialGradient>
<radialGradient id="paint12_radial" cx="0" cy="0" r="1" gradientUnits="userSpaceOnUse" gradientTransform="translate(246.071 82.5352) rotate(-130.539) scale(41.3421 32.5536)">
<stop offset="0.26" stop-color="#020202"/>
<stop offset="1" stop-color="#020202" stop-opacity="0"/>
</radialGradient>
<radialGradient id="paint13_radial" cx="0" cy="0" r="1" gradientUnits="userSpaceOnUse" gradientTransform="translate(239.7 95.6869) rotate(-173.11) scale(38.78)">
<stop stop-color="#020202"/>
<stop offset="0.66" stop-color="#020202" stop-opacity="0"/>
</radialGradient>
<radialGradient id="paint14_radial" cx="0" cy="0" r="1" gradientUnits="userSpaceOnUse" gradientTransform="translate(239.198 98.1431) rotate(-119.389) scale(27.0793 22.7064)">
<stop offset="0.13" stop-color="#020202"/>
<stop offset="0.95" stop-color="#020202" stop-opacity="0"/>
</radialGradient>
<radialGradient id="paint15_radial" cx="0" cy="0" r="1" gradientUnits="userSpaceOnUse" gradientTransform="translate(111162 -42256.3) rotate(-56.2) scale(4525.47 2744.43)">
<stop stop-color="#020202"/>
<stop offset="1" stop-color="#020202" stop-opacity="0"/>
</radialGradient>
<linearGradient id="paint16_linear" x1="186.8" y1="-3.10004" x2="252.21" y2="57.42" gradientUnits="userSpaceOnUse">
<stop stop-color="#A3A3A3" stop-opacity="0.7"/>
<stop offset="0.23" stop-color="#A3A3A3" stop-opacity="0.36"/>
<stop offset="0.44" stop-color="#A3A3A3" stop-opacity="0.1"/>
<stop offset="0.54" stop-color="#A3A3A3" stop-opacity="0"/>
</linearGradient>
<linearGradient id="paint17_linear" x1="251.83" y1="48.59" x2="299.99" y2="127.15" gradientUnits="userSpaceOnUse">
<stop offset="0.62" stop-color="#333334" stop-opacity="0"/>
<stop offset="0.76" stop-color="#333334" stop-opacity="0.32"/>
<stop offset="1" stop-color="#333334"/>
</linearGradient>
<linearGradient id="paint18_linear" x1="170.01" y1="93.01" x2="256.11" y2="62.32" gradientUnits="userSpaceOnUse">
<stop stop-color="#676767"/>
<stop offset="0.14" stop-color="#676767" stop-opacity="0.57"/>
<stop offset="0.3" stop-color="#676767" stop-opacity="0.16"/>
<stop offset="0.38" stop-color="#676767" stop-opacity="0"/>
</linearGradient>
<linearGradient id="paint19_linear" x1="149.77" y1="95.68" x2="226.17" y2="74.01" gradientUnits="userSpaceOnUse">
<stop stop-color="#A3A3A3"/>
<stop offset="0.1" stop-color="#A3A3A3" stop-opacity="0.79"/>
<stop offset="0.32" stop-color="#A3A3A3" stop-opacity="0.36"/>
<stop offset="0.47" stop-color="#A3A3A3" stop-opacity="0.1"/>
<stop offset="0.55" stop-color="#A3A3A3" stop-opacity="0"/>
</linearGradient>
<linearGradient id="paint20_linear" x1="199.742" y1="39.6402" x2="359.172" y2="92.4202" gradientUnits="userSpaceOnUse">
<stop stop-color="#454444"/>
<stop offset="0.04" stop-color="#4C4B4C"/>
<stop offset="0.15" stop-color="#595859"/>
<stop offset="0.25" stop-color="#5D5C5D"/>
<stop offset="0.43" stop-color="#4B4A4A"/>
<stop offset="0.59" stop-color="#414040"/>
<stop offset="0.73" stop-color="#454545"/>
<stop offset="1" stop-color="#6B6B6B"/>
</linearGradient>
<radialGradient id="paint21_radial" cx="0" cy="0" r="1" gradientUnits="userSpaceOnUse" gradientTransform="translate(310.679 63.4384) rotate(98.69) scale(85.26 56.2716)">
<stop stop-color="#020202"/>
<stop offset="0.71" stop-color="#020202" stop-opacity="0"/>
</radialGradient>
<radialGradient id="paint22_radial" cx="0" cy="0" r="1" gradientUnits="userSpaceOnUse" gradientTransform="translate(313.498 68.4824) rotate(98.69) scale(62.83 41.4678)">
<stop stop-color="#020202"/>
<stop offset="0.7" stop-color="#020202" stop-opacity="0"/>
</radialGradient>
<radialGradient id="paint23_radial" cx="0" cy="0" r="1" gradientUnits="userSpaceOnUse" gradientTransform="translate(-56583.8 95073.4) rotate(98.6156) scale(12491.5 5165.29)">
<stop stop-color="#020202"/>
<stop offset="0.7" stop-color="#020202" stop-opacity="0"/>
</radialGradient>
<radialGradient id="paint24_radial" cx="0" cy="0" r="1" gradientUnits="userSpaceOnUse" gradientTransform="translate(298.323 60.2166) rotate(82.95) scale(74.73 52.311)">
<stop stop-color="#020202" stop-opacity="0.8"/>
<stop offset="0.7" stop-color="#020202" stop-opacity="0"/>
</radialGradient>
<radialGradient id="paint25_radial" cx="0" cy="0" r="1" gradientUnits="userSpaceOnUse" gradientTransform="translate(-27975.6 115443) rotate(74.64) scale(11956.1 6648.12)">
<stop stop-color="#020202"/>
<stop offset="0.7" stop-color="#020202" stop-opacity="0"/>
</radialGradient>
<radialGradient id="paint26_radial" cx="0" cy="0" r="1" gradientUnits="userSpaceOnUse" gradientTransform="translate(307.237 91.2441) rotate(74.64) scale(33.3 31.635)">
<stop stop-color="#020202"/>
<stop offset="0.7" stop-color="#020202" stop-opacity="0"/>
</radialGradient>
<radialGradient id="paint27_radial" cx="0" cy="0" r="1" gradientUnits="userSpaceOnUse" gradientTransform="translate(-53452.9 121434) rotate(74.64) scale(5559.04 4318.4)">
<stop stop-color="#020202" stop-opacity="0.8"/>
<stop offset="0.7" stop-color="#020202" stop-opacity="0"/>
</radialGradient>
<radialGradient id="paint28_radial" cx="0" cy="0" r="1" gradientUnits="userSpaceOnUse" gradientTransform="translate(220.679 77.662) rotate(66.83) scale(79.53 52.4898)">
<stop stop-color="#020202"/>
<stop offset="0.4" stop-color="#020202" stop-opacity="0.56"/>
<stop offset="0.79" stop-color="#020202" stop-opacity="0"/>
</radialGradient>
<radialGradient id="paint29_radial" cx="0" cy="0" r="1" gradientUnits="userSpaceOnUse" gradientTransform="translate(-31678.9 98452.3) rotate(75.9) scale(9847.68 5314.69)">
<stop stop-color="#020202"/>
<stop offset="1" stop-color="#020202" stop-opacity="0"/>
</radialGradient>
<radialGradient id="paint30_radial" cx="0" cy="0" r="1" gradientUnits="userSpaceOnUse" gradientTransform="translate(216.703 58.5592) rotate(75.9) scale(58.99 38.9334)">
<stop stop-color="#020202"/>
<stop offset="0.01" stop-color="#020202" stop-opacity="0.95"/>
<stop offset="1" stop-color="#020202" stop-opacity="0"/>
</radialGradient>
<radialGradient id="paint31_radial" cx="0" cy="0" r="1" gradientUnits="userSpaceOnUse" gradientTransform="translate(218.949 52.8072) rotate(75.9) scale(45.13 29.7858)">
<stop stop-color="#020202"/>
<stop offset="0.01" stop-color="#020202" stop-opacity="0.94"/>
<stop offset="1" stop-color="#020202" stop-opacity="0"/>
</radialGradient>
<radialGradient id="paint32_radial" cx="0" cy="0" r="1" gradientUnits="userSpaceOnUse" gradientTransform="translate(219.88 59.8294) rotate(86.95) scale(35.59 31.6751)">
<stop offset="0.04" stop-color="#020202" stop-opacity="0.6"/>
<stop offset="0.73" stop-color="#020202" stop-opacity="0"/>
</radialGradient>
<linearGradient id="paint33_linear" x1="303.332" y1="-25.4498" x2="263.062" y2="74.0902" gradientUnits="userSpaceOnUse">
<stop stop-color="#7D7D7D"/>
<stop offset="0.1" stop-color="#7D7D7D" stop-opacity="0.81"/>
<stop offset="0.31" stop-color="#7D7D7D" stop-opacity="0.32"/>
<stop offset="0.43" stop-color="#7D7D7D" stop-opacity="0"/>
</linearGradient>
<linearGradient id="paint34_linear" x1="306.529" y1="36.98" x2="313.739" y2="71.22" gradientUnits="userSpaceOnUse">
<stop offset="0.33" stop-color="#2E2E2E" stop-opacity="0"/>
<stop offset="0.49" stop-color="#2E2E2E" stop-opacity="0.13"/>
<stop offset="0.71" stop-color="#2E2E2E" stop-opacity="0.5"/>
<stop offset="0.92" stop-color="#2E2E2E"/>
</linearGradient>
<linearGradient id="paint35_linear" x1="318.199" y1="31.03" x2="344.329" y2="26.93" gradientUnits="userSpaceOnUse">
<stop offset="0.19" stop-color="#7F7F80" stop-opacity="0"/>
<stop offset="0.34" stop-color="#7F7F80" stop-opacity="0.14"/>
<stop offset="0.64" stop-color="#7F7F80" stop-opacity="0.5"/>
<stop offset="1" stop-color="#7F7F80"/>
</linearGradient>
<clipPath id="clip0">
<rect width="528.33" height="386.34" fill="white"/>
</clipPath>
</defs>
</svg>
