<svg width="763" height="210" viewBox="0 0 763 210" fill="none" xmlns="http://www.w3.org/2000/svg">
<g clip-path="url(#clip0)">
<path d="M362.388 38.0098H382.588L353.238 126.76H330.058L308.058 59.7598L286.108 126.76H263.358L233.988 38.0098H254.648L275.488 105.45L297.358 38.0098H319.308L341.458 105.83L362.388 38.0098Z" fill="black"/>
<path d="M469.241 89.5199H403.701C404.307 94.0947 406.024 98.4516 408.701 102.21C411.086 105.493 414.299 108.084 418.011 109.72C421.801 111.344 425.888 112.162 430.011 112.12C434.581 112.1 439.111 111.27 443.391 109.67C447.832 108.051 451.979 105.721 455.671 102.77L465.301 116.57C460.396 120.859 454.68 124.12 448.491 126.16C442.122 128.161 435.477 129.146 428.801 129.08C420.577 129.238 412.455 127.242 405.241 123.29C398.453 119.461 392.902 113.771 389.241 106.89C385.381 99.8232 383.451 91.6566 383.451 82.3899C383.285 73.9456 385.209 65.591 389.051 58.0699C392.591 51.2079 398.004 45.49 404.661 41.5799C411.653 37.5703 419.603 35.5346 427.661 35.6899C435.345 35.5501 442.911 37.5924 449.481 41.5799C455.844 45.5689 460.959 51.2653 464.241 58.0199C467.909 65.5756 469.736 73.8926 469.571 82.2899C469.571 84.1499 469.461 86.5599 469.241 89.5199ZM449.741 74.7899C448.695 67.8699 446.208 62.4966 442.281 58.6699C438.355 54.8432 433.355 52.9299 427.281 52.9299C420.668 52.9299 415.371 54.8899 411.391 58.8099C407.411 62.7299 404.865 68.0632 403.751 74.8099L449.741 74.7899Z" fill="black"/>
<path d="M552.061 41.7202C558.807 45.7238 564.338 51.486 568.061 58.3902C571.926 65.7999 573.944 74.0333 573.944 82.3902C573.944 90.7471 571.926 98.9805 568.061 106.39C564.324 113.322 558.762 119.101 551.979 123.102C545.195 127.103 537.447 129.173 529.571 129.09C524.05 129.197 518.578 128.041 513.571 125.71C508.976 123.48 504.951 120.231 501.801 116.21V126.77H482.441V0.220215H501.801V48.5702C504.948 44.5493 508.975 41.3029 513.571 39.0802C518.575 36.741 524.049 35.5813 529.571 35.6902C537.479 35.6003 545.259 37.6864 552.061 41.7202V41.7202ZM541.461 107.03C545.484 104.553 548.725 100.989 550.811 96.7502C552.951 92.2654 554.061 87.3592 554.061 82.3902C554.061 77.4212 552.951 72.515 550.811 68.0302C548.725 63.7885 545.484 60.2218 541.461 57.7402C537.192 55.2663 532.348 53.9559 527.413 53.9402C522.479 53.9244 517.627 55.2037 513.341 57.6502C509.307 60.1048 506.035 63.6329 503.891 67.8402C501.669 72.3668 500.513 77.3424 500.513 82.3852C500.513 87.428 501.669 92.4037 503.891 96.9302C506.035 101.138 509.307 104.666 513.341 107.12C517.627 109.567 522.479 110.846 527.413 110.83C532.348 110.814 537.192 109.504 541.461 107.03Z" fill="black"/>
<path d="M669.948 89.52H604.448C605.054 94.0948 606.77 98.4517 609.448 102.21C611.837 105.492 615.053 108.083 618.768 109.72C622.558 111.345 626.645 112.162 630.768 112.12C635.341 112.101 639.874 111.271 644.158 109.67C648.596 108.053 652.741 105.723 656.428 102.77L666.068 116.57C661.156 120.86 655.433 124.121 649.238 126.16C642.872 128.161 636.231 129.146 629.558 129.08C621.344 129.236 613.232 127.24 606.028 123.29C599.211 119.472 593.631 113.781 589.948 106.89C586.088 99.8233 584.158 91.6567 584.158 82.39C583.995 73.9449 585.922 65.5904 589.768 58.07C593.305 51.206 598.718 45.4876 605.378 41.58C612.37 37.5695 620.319 35.5337 628.378 35.69C636.062 35.5474 643.629 37.59 650.198 41.58C656.583 45.5603 661.719 51.2576 665.018 58.02C668.686 65.5757 670.512 73.8927 670.348 82.29C670.328 84.15 670.195 86.56 669.948 89.52ZM650.498 74.79C649.438 67.87 646.951 62.4967 643.038 58.67C639.125 54.8433 634.105 52.93 627.978 52.93C621.371 52.93 616.075 54.89 612.088 58.81C608.101 62.73 605.555 68.0633 604.448 74.81L650.498 74.79Z" fill="black"/>
<path d="M762.319 126.76H738.509L715.989 95.9098L693.759 126.76H671.059L704.509 81.4598L671.619 38.0098H695.429L717.109 67.6598L738.779 38.0098H761.669L728.869 81.2698L762.319 126.76Z" fill="black"/>
<path d="M529.039 200.25H525.109V164.52H529.879V178.03C530.834 176.633 532.129 175.502 533.643 174.746C535.157 173.99 536.839 173.633 538.529 173.71C540.185 173.632 541.836 173.954 543.34 174.651C544.844 175.347 546.158 176.397 547.169 177.71C548.989 180.097 549.899 183.26 549.899 187.2C549.899 191.867 548.659 195.447 546.179 197.94C545.128 198.977 543.877 199.789 542.501 200.325C541.126 200.862 539.655 201.112 538.179 201.06C536.539 201.144 534.905 200.805 533.434 200.074C531.962 199.344 530.704 198.247 529.779 196.89L529.039 200.25ZM544.939 187.03C544.939 183.79 544.129 181.35 542.499 179.73C541.839 179.064 541.047 178.542 540.174 178.198C539.301 177.854 538.367 177.694 537.429 177.73C536.329 177.686 535.234 177.902 534.234 178.361C533.233 178.82 532.354 179.508 531.669 180.37C530.252 182.288 529.545 184.639 529.669 187.02C529.669 190.34 530.489 192.87 532.109 194.63C532.78 195.381 533.609 195.974 534.535 196.368C535.461 196.762 536.463 196.947 537.469 196.91C538.568 196.971 539.665 196.753 540.656 196.276C541.648 195.798 542.502 195.077 543.139 194.18C544.47 192.043 545.099 189.543 544.939 187.03V187.03Z" fill="black"/>
<path d="M575.44 174.42L566.44 200.6C565.25 204.07 564.1 206.44 563.01 207.7C562.398 208.424 561.631 209.001 560.765 209.389C559.9 209.777 558.958 209.965 558.01 209.94C556.969 209.914 555.935 209.763 554.93 209.49V205.61C555.742 205.831 556.579 205.948 557.42 205.96C557.874 205.985 558.326 205.901 558.74 205.714C559.154 205.528 559.518 205.246 559.8 204.89C560.716 203.445 561.436 201.885 561.94 200.25H560.4L550.91 174.42H556.08L563.38 196.42L570.68 174.42H575.44Z" fill="black"/>
<path d="M641.031 164.52H632.031V200.36H641.031V164.52Z" fill="black"/>
<path d="M713.969 174.8C711.638 173.529 709.024 172.869 706.369 172.88C700.509 172.88 696.449 176.96 696.449 182.44C696.449 187.77 700.339 192.01 706.369 192.01C709.021 192.023 711.634 191.369 713.969 190.11V199.73C711.296 200.557 708.517 200.988 705.719 201.01C695.549 201.01 686.629 194.01 686.629 182.44C686.629 171.74 694.709 163.89 705.719 163.89C708.519 163.893 711.302 164.328 713.969 165.18V174.8Z" fill="black"/>
<path d="M619.549 174.8C617.219 173.526 614.604 172.865 611.949 172.88C606.089 172.88 602.039 176.96 602.039 182.44C602.039 187.77 605.919 192.01 611.949 192.01C614.601 192.023 617.214 191.369 619.549 190.11V199.73C616.876 200.558 614.097 200.989 611.299 201.01C601.129 201.01 592.219 194.01 592.219 182.44C592.219 171.74 600.289 163.89 611.299 163.89C614.099 163.893 616.882 164.328 619.549 165.18V174.8Z" fill="black"/>
<path d="M742.418 173.02C740.55 173.006 738.719 173.548 737.159 174.576C735.599 175.604 734.38 177.073 733.655 178.795C732.931 180.517 732.735 182.416 733.092 184.25C733.448 186.084 734.342 187.771 735.659 189.097C736.976 190.422 738.657 191.326 740.489 191.695C742.321 192.063 744.221 191.879 745.948 191.166C747.675 190.453 749.151 189.243 750.189 187.689C751.227 186.136 751.78 184.309 751.778 182.44C751.8 181.202 751.573 179.973 751.111 178.824C750.649 177.675 749.961 176.631 749.088 175.753C748.216 174.874 747.176 174.18 746.03 173.711C744.884 173.241 743.656 173.007 742.418 173.02V173.02ZM761.358 182.44C761.358 192.7 753.448 201.01 742.418 201.01C731.388 201.01 723.488 192.7 723.488 182.44C723.488 172.18 731.398 163.89 742.418 163.89C753.438 163.89 761.358 172.21 761.358 182.44Z" fill="black"/>
<path d="M675.331 172.67C673.024 172.036 670.652 171.671 668.261 171.58C664.641 171.58 662.671 172.79 662.671 174.52C662.671 176.7 665.331 177.46 666.811 177.93L669.311 178.73C675.181 180.59 677.861 184.61 677.861 188.98C677.861 197.98 669.941 200.98 663.011 200.98C659.735 200.941 656.468 200.606 653.251 199.98V191.73C656.03 192.535 658.9 192.982 661.791 193.06C666.301 193.06 668.361 191.75 668.361 189.72C668.361 187.9 666.571 186.85 664.361 186.15C663.811 185.96 662.991 185.71 662.431 185.52C657.431 183.93 653.191 180.97 653.191 175.04C653.191 168.33 658.191 163.83 666.551 163.83C669.522 163.871 672.478 164.253 675.361 164.97L675.331 172.67Z" fill="black"/>
<path d="M43.4781 68.9199C45.5717 76.2865 48.4271 83.415 51.9981 90.1899C53.6281 93.1899 55.2581 96.1899 58.2181 98.0799C58.7267 98.4102 59.2934 98.641 59.8881 98.7599C64.2481 99.6899 66.6381 96.1799 68.1781 92.9699C70.4762 87.9335 72.3332 82.7072 73.7281 77.3499C73.9981 76.3499 74.2581 75.3499 74.5181 74.3499C75.0181 72.4299 75.4948 70.5032 75.9481 68.5699L95.2381 17.1899C99.2346 11.867 104.416 7.54788 110.371 4.57461C116.326 1.60133 122.892 0.0556114 129.548 0.0598813C139.133 0.000872626 148.452 3.21068 155.968 9.15988C168.548 18.6799 176.038 37.4299 176.038 37.4299C177.901 41.5857 178.196 46.2751 176.871 50.632C175.545 54.989 172.688 58.7191 168.827 61.1337C164.965 63.5482 160.361 64.484 155.863 63.7683C151.366 63.0526 147.279 60.7337 144.358 57.2399L144.178 57.0299C142.968 55.3941 141.961 53.6178 141.178 51.7399C140.137 49.3885 138.975 47.0922 137.698 44.8599C137.018 43.7099 136.258 42.6199 135.468 41.5399C134.8 40.5724 134.007 39.698 133.108 38.9399C131.338 37.5099 129.108 36.9399 127.028 38.1699L126.738 38.3599C124.598 39.8399 123.098 42.7999 122.058 45.0799C119.058 51.5399 117.338 58.1699 115.638 64.9599C115.308 66.2699 114.998 67.5799 114.698 68.8999L106.748 94.8999L95.5381 119.62C91.5228 124.799 86.385 129 80.5114 131.907C74.6377 134.813 68.1813 136.349 61.6281 136.4C34.4081 136.98 21.4881 112.4 21.4881 112.4C5.97813 86.9599 1.40813 53.3999 0.318134 42.6699C0.0881337 40.4399 0.0781282 39.1199 0.0781282 39.1199C0.0761431 35.7575 0.992572 32.4584 2.72848 29.5787C4.46439 26.699 6.95385 24.3482 9.92813 22.7799C13.0025 21.2225 16.4247 20.4789 19.8681 20.6199C23.0716 20.75 26.1894 21.6929 28.9281 23.3599C31.0552 24.6343 32.8941 26.337 34.3281 28.3599C36.8881 31.9899 37.4581 36.5199 37.9781 40.8499C39.0207 50.3443 40.8605 59.7341 43.4781 68.9199V68.9199Z" fill="url(#paint0_linear)"/>
<path d="M43.4781 68.9199C45.5717 76.2865 48.4271 83.415 51.9981 90.1899C53.6281 93.1899 55.2581 96.1899 58.2181 98.0799C58.7267 98.4102 59.2934 98.641 59.8881 98.7599C64.2481 99.6899 66.6381 96.1799 68.1781 92.9699C70.4762 87.9335 72.3332 82.7072 73.7281 77.3499C73.9981 76.3499 74.2581 75.3499 74.5181 74.3499C75.0181 72.4299 75.4948 70.5032 75.9481 68.5699L95.2381 17.1899C99.2346 11.867 104.416 7.54788 110.371 4.57461C116.326 1.60133 122.892 0.0556114 129.548 0.0598813C139.133 0.000872626 148.452 3.21068 155.968 9.15988C168.548 18.6799 176.038 37.4299 176.038 37.4299C177.901 41.5857 178.196 46.2751 176.871 50.632C175.545 54.989 172.688 58.7191 168.827 61.1337C164.965 63.5482 160.361 64.484 155.863 63.7683C151.366 63.0526 147.279 60.7337 144.358 57.2399L144.178 57.0299C142.968 55.3941 141.961 53.6178 141.178 51.7399C140.137 49.3885 138.975 47.0922 137.698 44.8599C137.018 43.7099 136.258 42.6199 135.468 41.5399C134.8 40.5724 134.007 39.698 133.108 38.9399C131.338 37.5099 129.108 36.9399 127.028 38.1699L126.738 38.3599C124.598 39.8399 123.098 42.7999 122.058 45.0799C119.058 51.5399 117.338 58.1699 115.638 64.9599C115.308 66.2699 114.998 67.5799 114.698 68.8999L106.748 94.8999L95.5381 119.62C91.5228 124.799 86.385 129 80.5114 131.907C74.6377 134.813 68.1813 136.349 61.6281 136.4C34.4081 136.98 21.4881 112.4 21.4881 112.4C5.97813 86.9599 1.40813 53.3999 0.318134 42.6699C0.0881337 40.4399 0.0781282 39.1199 0.0781282 39.1199C0.0761431 35.7575 0.992572 32.4584 2.72848 29.5787C4.46439 26.699 6.95385 24.3482 9.92813 22.7799C13.0025 21.2225 16.4247 20.4789 19.8681 20.6199C23.0716 20.75 26.1894 21.6929 28.9281 23.3599C31.0552 24.6343 32.8941 26.337 34.3281 28.3599C36.8881 31.9899 37.4581 36.5199 37.9781 40.8499C39.0207 50.3443 40.8605 59.7341 43.4781 68.9199V68.9199Z" fill="url(#paint1_radial)"/>
<path d="M43.4781 68.9199C45.5717 76.2865 48.4271 83.415 51.9981 90.1899C53.6281 93.1899 55.2581 96.1899 58.2181 98.0799C58.7267 98.4102 59.2934 98.641 59.8881 98.7599C64.2481 99.6899 66.6381 96.1799 68.1781 92.9699C70.4762 87.9335 72.3332 82.7072 73.7281 77.3499C73.9981 76.3499 74.2581 75.3499 74.5181 74.3499C75.0181 72.4299 75.4948 70.5032 75.9481 68.5699L95.2381 17.1899C99.2346 11.867 104.416 7.54788 110.371 4.57461C116.326 1.60133 122.892 0.0556114 129.548 0.0598813C139.133 0.000872626 148.452 3.21068 155.968 9.15988C168.548 18.6799 176.038 37.4299 176.038 37.4299C177.901 41.5857 178.196 46.2751 176.871 50.632C175.545 54.989 172.688 58.7191 168.827 61.1337C164.965 63.5482 160.361 64.484 155.863 63.7683C151.366 63.0526 147.279 60.7337 144.358 57.2399L144.178 57.0299C142.968 55.3941 141.961 53.6178 141.178 51.7399C140.137 49.3885 138.975 47.0922 137.698 44.8599C137.018 43.7099 136.258 42.6199 135.468 41.5399C134.8 40.5724 134.007 39.698 133.108 38.9399C131.338 37.5099 129.108 36.9399 127.028 38.1699L126.738 38.3599C124.598 39.8399 123.098 42.7999 122.058 45.0799C119.058 51.5399 117.338 58.1699 115.638 64.9599C115.308 66.2699 114.998 67.5799 114.698 68.8999L106.748 94.8999L95.5381 119.62C91.5228 124.799 86.385 129 80.5114 131.907C74.6377 134.813 68.1813 136.349 61.6281 136.4C34.4081 136.98 21.4881 112.4 21.4881 112.4C5.97813 86.9599 1.40813 53.3999 0.318134 42.6699C0.0881337 40.4399 0.0781282 39.1199 0.0781282 39.1199C0.0761431 35.7575 0.992572 32.4584 2.72848 29.5787C4.46439 26.699 6.95385 24.3482 9.92813 22.7799C13.0025 21.2225 16.4247 20.4789 19.8681 20.6199C23.0716 20.75 26.1894 21.6929 28.9281 23.3599C31.0552 24.6343 32.8941 26.337 34.3281 28.3599C36.8881 31.9899 37.4581 36.5199 37.9781 40.8499C39.0207 50.3443 40.8605 59.7341 43.4781 68.9199V68.9199Z" fill="url(#paint2_radial)"/>
<path d="M43.4781 68.9199C45.5717 76.2865 48.4271 83.415 51.9981 90.1899C53.6281 93.1899 55.2581 96.1899 58.2181 98.0799C58.7267 98.4102 59.2934 98.641 59.8881 98.7599C64.2481 99.6899 66.6381 96.1799 68.1781 92.9699C70.4762 87.9335 72.3332 82.7072 73.7281 77.3499C73.9981 76.3499 74.2581 75.3499 74.5181 74.3499C75.0181 72.4299 75.4948 70.5032 75.9481 68.5699L95.2381 17.1899C99.2346 11.867 104.416 7.54788 110.371 4.57461C116.326 1.60133 122.892 0.0556114 129.548 0.0598813C139.133 0.000872626 148.452 3.21068 155.968 9.15988C168.548 18.6799 176.038 37.4299 176.038 37.4299C177.901 41.5857 178.196 46.2751 176.871 50.632C175.545 54.989 172.688 58.7191 168.827 61.1337C164.965 63.5482 160.361 64.484 155.863 63.7683C151.366 63.0526 147.279 60.7337 144.358 57.2399L144.178 57.0299C142.968 55.3941 141.961 53.6178 141.178 51.7399C140.137 49.3885 138.975 47.0922 137.698 44.8599C137.018 43.7099 136.258 42.6199 135.468 41.5399C134.8 40.5724 134.007 39.698 133.108 38.9399C131.338 37.5099 129.108 36.9399 127.028 38.1699L126.738 38.3599C124.598 39.8399 123.098 42.7999 122.058 45.0799C119.058 51.5399 117.338 58.1699 115.638 64.9599C115.308 66.2699 114.998 67.5799 114.698 68.8999L106.748 94.8999L95.5381 119.62C91.5228 124.799 86.385 129 80.5114 131.907C74.6377 134.813 68.1813 136.349 61.6281 136.4C34.4081 136.98 21.4881 112.4 21.4881 112.4C5.97813 86.9599 1.40813 53.3999 0.318134 42.6699C0.0881337 40.4399 0.0781282 39.1199 0.0781282 39.1199C0.0761431 35.7575 0.992572 32.4584 2.72848 29.5787C4.46439 26.699 6.95385 24.3482 9.92813 22.7799C13.0025 21.2225 16.4247 20.4789 19.8681 20.6199C23.0716 20.75 26.1894 21.6929 28.9281 23.3599C31.0552 24.6343 32.8941 26.337 34.3281 28.3599C36.8881 31.9899 37.4581 36.5199 37.9781 40.8499C39.0207 50.3443 40.8605 59.7341 43.4781 68.9199V68.9199Z" fill="url(#paint3_radial)"/>
<path d="M43.4781 68.9199C45.5717 76.2865 48.4271 83.415 51.9981 90.1899C53.6281 93.1899 55.2581 96.1899 58.2181 98.0799C58.7267 98.4102 59.2934 98.641 59.8881 98.7599C64.2481 99.6899 66.6381 96.1799 68.1781 92.9699C70.4762 87.9335 72.3332 82.7072 73.7281 77.3499C73.9981 76.3499 74.2581 75.3499 74.5181 74.3499C75.0181 72.4299 75.4948 70.5032 75.9481 68.5699L95.2381 17.1899C99.2346 11.867 104.416 7.54788 110.371 4.57461C116.326 1.60133 122.892 0.0556114 129.548 0.0598813C139.133 0.000872626 148.452 3.21068 155.968 9.15988C168.548 18.6799 176.038 37.4299 176.038 37.4299C177.901 41.5857 178.196 46.2751 176.871 50.632C175.545 54.989 172.688 58.7191 168.827 61.1337C164.965 63.5482 160.361 64.484 155.863 63.7683C151.366 63.0526 147.279 60.7337 144.358 57.2399L144.178 57.0299C142.968 55.3941 141.961 53.6178 141.178 51.7399C140.137 49.3885 138.975 47.0922 137.698 44.8599C137.018 43.7099 136.258 42.6199 135.468 41.5399C134.8 40.5724 134.007 39.698 133.108 38.9399C131.338 37.5099 129.108 36.9399 127.028 38.1699L126.738 38.3599C124.598 39.8399 123.098 42.7999 122.058 45.0799C119.058 51.5399 117.338 58.1699 115.638 64.9599C115.308 66.2699 114.998 67.5799 114.698 68.8999L106.748 94.8999L95.5381 119.62C91.5228 124.799 86.385 129 80.5114 131.907C74.6377 134.813 68.1813 136.349 61.6281 136.4C34.4081 136.98 21.4881 112.4 21.4881 112.4C5.97813 86.9599 1.40813 53.3999 0.318134 42.6699C0.0881337 40.4399 0.0781282 39.1199 0.0781282 39.1199C0.0761431 35.7575 0.992572 32.4584 2.72848 29.5787C4.46439 26.699 6.95385 24.3482 9.92813 22.7799C13.0025 21.2225 16.4247 20.4789 19.8681 20.6199C23.0716 20.75 26.1894 21.6929 28.9281 23.3599C31.0552 24.6343 32.8941 26.337 34.3281 28.3599C36.8881 31.9899 37.4581 36.5199 37.9781 40.8499C39.0207 50.3443 40.8605 59.7341 43.4781 68.9199V68.9199Z" fill="url(#paint4_radial)"/>
<path d="M43.4781 68.9199C45.5717 76.2865 48.4271 83.415 51.9981 90.1899C53.6281 93.1899 55.2581 96.1899 58.2181 98.0799C58.7267 98.4102 59.2934 98.641 59.8881 98.7599C64.2481 99.6899 66.6381 96.1799 68.1781 92.9699C70.4762 87.9335 72.3332 82.7072 73.7281 77.3499C73.9981 76.3499 74.2581 75.3499 74.5181 74.3499C75.0181 72.4299 75.4948 70.5032 75.9481 68.5699L95.2381 17.1899C99.2346 11.867 104.416 7.54788 110.371 4.57461C116.326 1.60133 122.892 0.0556114 129.548 0.0598813C139.133 0.000872626 148.452 3.21068 155.968 9.15988C168.548 18.6799 176.038 37.4299 176.038 37.4299C177.901 41.5857 178.196 46.2751 176.871 50.632C175.545 54.989 172.688 58.7191 168.827 61.1337C164.965 63.5482 160.361 64.484 155.863 63.7683C151.366 63.0526 147.279 60.7337 144.358 57.2399L144.178 57.0299C142.968 55.3941 141.961 53.6178 141.178 51.7399C140.137 49.3885 138.975 47.0922 137.698 44.8599C137.018 43.7099 136.258 42.6199 135.468 41.5399C134.8 40.5724 134.007 39.698 133.108 38.9399C131.338 37.5099 129.108 36.9399 127.028 38.1699L126.738 38.3599C124.598 39.8399 123.098 42.7999 122.058 45.0799C119.058 51.5399 117.338 58.1699 115.638 64.9599C115.308 66.2699 114.998 67.5799 114.698 68.8999L106.748 94.8999L95.5381 119.62C91.5228 124.799 86.385 129 80.5114 131.907C74.6377 134.813 68.1813 136.349 61.6281 136.4C34.4081 136.98 21.4881 112.4 21.4881 112.4C5.97813 86.9599 1.40813 53.3999 0.318134 42.6699C0.0881337 40.4399 0.0781282 39.1199 0.0781282 39.1199C0.0761431 35.7575 0.992572 32.4584 2.72848 29.5787C4.46439 26.699 6.95385 24.3482 9.92813 22.7799C13.0025 21.2225 16.4247 20.4789 19.8681 20.6199C23.0716 20.75 26.1894 21.6929 28.9281 23.3599C31.0552 24.6343 32.8941 26.337 34.3281 28.3599C36.8881 31.9899 37.4581 36.5199 37.9781 40.8499C39.0207 50.3443 40.8605 59.7341 43.4781 68.9199V68.9199Z" fill="url(#paint5_radial)"/>
<path d="M43.4781 68.9199C45.5717 76.2865 48.4271 83.415 51.9981 90.1899C53.6281 93.1899 55.2581 96.1899 58.2181 98.0799C58.7267 98.4102 59.2934 98.641 59.8881 98.7599C64.2481 99.6899 66.6381 96.1799 68.1781 92.9699C70.4762 87.9335 72.3332 82.7072 73.7281 77.3499C73.9981 76.3499 74.2581 75.3499 74.5181 74.3499C75.0181 72.4299 75.4948 70.5032 75.9481 68.5699L95.2381 17.1899C99.2346 11.867 104.416 7.54788 110.371 4.57461C116.326 1.60133 122.892 0.0556114 129.548 0.0598813C139.133 0.000872626 148.452 3.21068 155.968 9.15988C168.548 18.6799 176.038 37.4299 176.038 37.4299C177.901 41.5857 178.196 46.2751 176.871 50.632C175.545 54.989 172.688 58.7191 168.827 61.1337C164.965 63.5482 160.361 64.484 155.863 63.7683C151.366 63.0526 147.279 60.7337 144.358 57.2399L144.178 57.0299C142.968 55.3941 141.961 53.6178 141.178 51.7399C140.137 49.3885 138.975 47.0922 137.698 44.8599C137.018 43.7099 136.258 42.6199 135.468 41.5399C134.8 40.5724 134.007 39.698 133.108 38.9399C131.338 37.5099 129.108 36.9399 127.028 38.1699L126.738 38.3599C124.598 39.8399 123.098 42.7999 122.058 45.0799C119.058 51.5399 117.338 58.1699 115.638 64.9599C115.308 66.2699 114.998 67.5799 114.698 68.8999L106.748 94.8999L95.5381 119.62C91.5228 124.799 86.385 129 80.5114 131.907C74.6377 134.813 68.1813 136.349 61.6281 136.4C34.4081 136.98 21.4881 112.4 21.4881 112.4C5.97813 86.9599 1.40813 53.3999 0.318134 42.6699C0.0881337 40.4399 0.0781282 39.1199 0.0781282 39.1199C0.0761431 35.7575 0.992572 32.4584 2.72848 29.5787C4.46439 26.699 6.95385 24.3482 9.92813 22.7799C13.0025 21.2225 16.4247 20.4789 19.8681 20.6199C23.0716 20.75 26.1894 21.6929 28.9281 23.3599C31.0552 24.6343 32.8941 26.337 34.3281 28.3599C36.8881 31.9899 37.4581 36.5199 37.9781 40.8499C39.0207 50.3443 40.8605 59.7341 43.4781 68.9199V68.9199Z" fill="url(#paint6_radial)"/>
<path d="M43.4781 68.9199C45.5717 76.2865 48.4271 83.415 51.9981 90.1899C53.6281 93.1899 55.2581 96.1899 58.2181 98.0799C58.7267 98.4102 59.2934 98.641 59.8881 98.7599C64.2481 99.6899 66.6381 96.1799 68.1781 92.9699C70.4762 87.9335 72.3332 82.7072 73.7281 77.3499C73.9981 76.3499 74.2581 75.3499 74.5181 74.3499C75.0181 72.4299 75.4948 70.5032 75.9481 68.5699L95.2381 17.1899C99.2346 11.867 104.416 7.54788 110.371 4.57461C116.326 1.60133 122.892 0.0556114 129.548 0.0598813C139.133 0.000872626 148.452 3.21068 155.968 9.15988C168.548 18.6799 176.038 37.4299 176.038 37.4299C177.901 41.5857 178.196 46.2751 176.871 50.632C175.545 54.989 172.688 58.7191 168.827 61.1337C164.965 63.5482 160.361 64.484 155.863 63.7683C151.366 63.0526 147.279 60.7337 144.358 57.2399L144.178 57.0299C142.968 55.3941 141.961 53.6178 141.178 51.7399C140.137 49.3885 138.975 47.0922 137.698 44.8599C137.018 43.7099 136.258 42.6199 135.468 41.5399C134.8 40.5724 134.007 39.698 133.108 38.9399C131.338 37.5099 129.108 36.9399 127.028 38.1699L126.738 38.3599C124.598 39.8399 123.098 42.7999 122.058 45.0799C119.058 51.5399 117.338 58.1699 115.638 64.9599C115.308 66.2699 114.998 67.5799 114.698 68.8999L106.748 94.8999L95.5381 119.62C91.5228 124.799 86.385 129 80.5114 131.907C74.6377 134.813 68.1813 136.349 61.6281 136.4C34.4081 136.98 21.4881 112.4 21.4881 112.4C5.97813 86.9599 1.40813 53.3999 0.318134 42.6699C0.0881337 40.4399 0.0781282 39.1199 0.0781282 39.1199C0.0761431 35.7575 0.992572 32.4584 2.72848 29.5787C4.46439 26.699 6.95385 24.3482 9.92813 22.7799C13.0025 21.2225 16.4247 20.4789 19.8681 20.6199C23.0716 20.75 26.1894 21.6929 28.9281 23.3599C31.0552 24.6343 32.8941 26.337 34.3281 28.3599C36.8881 31.9899 37.4581 36.5199 37.9781 40.8499C39.0207 50.3443 40.8605 59.7341 43.4781 68.9199V68.9199Z" fill="url(#paint7_radial)"/>
<path d="M43.4781 68.9199C45.5717 76.2865 48.4271 83.415 51.9981 90.1899C53.6281 93.1899 55.2581 96.1899 58.2181 98.0799C58.7267 98.4102 59.2934 98.641 59.8881 98.7599C64.2481 99.6899 66.6381 96.1799 68.1781 92.9699C70.4762 87.9335 72.3332 82.7072 73.7281 77.3499C73.9981 76.3499 74.2581 75.3499 74.5181 74.3499C75.0181 72.4299 75.4948 70.5032 75.9481 68.5699L95.2381 17.1899C99.2346 11.867 104.416 7.54788 110.371 4.57461C116.326 1.60133 122.892 0.0556114 129.548 0.0598813C139.133 0.000872626 148.452 3.21068 155.968 9.15988C168.548 18.6799 176.038 37.4299 176.038 37.4299C177.901 41.5857 178.196 46.2751 176.871 50.632C175.545 54.989 172.688 58.7191 168.827 61.1337C164.965 63.5482 160.361 64.484 155.863 63.7683C151.366 63.0526 147.279 60.7337 144.358 57.2399L144.178 57.0299C142.968 55.3941 141.961 53.6178 141.178 51.7399C140.137 49.3885 138.975 47.0922 137.698 44.8599C137.018 43.7099 136.258 42.6199 135.468 41.5399C134.8 40.5724 134.007 39.698 133.108 38.9399C131.338 37.5099 129.108 36.9399 127.028 38.1699L126.738 38.3599C124.598 39.8399 123.098 42.7999 122.058 45.0799C119.058 51.5399 117.338 58.1699 115.638 64.9599C115.308 66.2699 114.998 67.5799 114.698 68.8999L106.748 94.8999L95.5381 119.62C91.5228 124.799 86.385 129 80.5114 131.907C74.6377 134.813 68.1813 136.349 61.6281 136.4C34.4081 136.98 21.4881 112.4 21.4881 112.4C5.97813 86.9599 1.40813 53.3999 0.318134 42.6699C0.0881337 40.4399 0.0781282 39.1199 0.0781282 39.1199C0.0761431 35.7575 0.992572 32.4584 2.72848 29.5787C4.46439 26.699 6.95385 24.3482 9.92813 22.7799C13.0025 21.2225 16.4247 20.4789 19.8681 20.6199C23.0716 20.75 26.1894 21.6929 28.9281 23.3599C31.0552 24.6343 32.8941 26.337 34.3281 28.3599C36.8881 31.9899 37.4581 36.5199 37.9781 40.8499C39.0207 50.3443 40.8605 59.7341 43.4781 68.9199V68.9199Z" fill="url(#paint8_radial)"/>
<path d="M43.4781 68.9199C45.5717 76.2865 48.4271 83.415 51.9981 90.1899C53.6281 93.1899 55.2581 96.1899 58.2181 98.0799C58.7267 98.4102 59.2934 98.641 59.8881 98.7599C64.2481 99.6899 66.6381 96.1799 68.1781 92.9699C70.4762 87.9335 72.3332 82.7072 73.7281 77.3499C73.9981 76.3499 74.2581 75.3499 74.5181 74.3499C75.0181 72.4299 75.4948 70.5032 75.9481 68.5699L95.2381 17.1899C99.2346 11.867 104.416 7.54788 110.371 4.57461C116.326 1.60133 122.892 0.0556114 129.548 0.0598813C139.133 0.000872626 148.452 3.21068 155.968 9.15988C168.548 18.6799 176.038 37.4299 176.038 37.4299C177.901 41.5857 178.196 46.2751 176.871 50.632C175.545 54.989 172.688 58.7191 168.827 61.1337C164.965 63.5482 160.361 64.484 155.863 63.7683C151.366 63.0526 147.279 60.7337 144.358 57.2399L144.178 57.0299C142.968 55.3941 141.961 53.6178 141.178 51.7399C140.137 49.3885 138.975 47.0922 137.698 44.8599C137.018 43.7099 136.258 42.6199 135.468 41.5399C134.8 40.5724 134.007 39.698 133.108 38.9399C131.338 37.5099 129.108 36.9399 127.028 38.1699L126.738 38.3599C124.598 39.8399 123.098 42.7999 122.058 45.0799C119.058 51.5399 117.338 58.1699 115.638 64.9599C115.308 66.2699 114.998 67.5799 114.698 68.8999L106.748 94.8999L95.5381 119.62C91.5228 124.799 86.385 129 80.5114 131.907C74.6377 134.813 68.1813 136.349 61.6281 136.4C34.4081 136.98 21.4881 112.4 21.4881 112.4C5.97813 86.9599 1.40813 53.3999 0.318134 42.6699C0.0881337 40.4399 0.0781282 39.1199 0.0781282 39.1199C0.0761431 35.7575 0.992572 32.4584 2.72848 29.5787C4.46439 26.699 6.95385 24.3482 9.92813 22.7799C13.0025 21.2225 16.4247 20.4789 19.8681 20.6199C23.0716 20.75 26.1894 21.6929 28.9281 23.3599C31.0552 24.6343 32.8941 26.337 34.3281 28.3599C36.8881 31.9899 37.4581 36.5199 37.9781 40.8499C39.0207 50.3443 40.8605 59.7341 43.4781 68.9199V68.9199Z" fill="url(#paint9_radial)"/>
<path d="M43.4781 68.9199C45.5717 76.2865 48.4271 83.415 51.9981 90.1899C53.6281 93.1899 55.2581 96.1899 58.2181 98.0799C58.7267 98.4102 59.2934 98.641 59.8881 98.7599C64.2481 99.6899 66.6381 96.1799 68.1781 92.9699C70.4762 87.9335 72.3332 82.7072 73.7281 77.3499C73.9981 76.3499 74.2581 75.3499 74.5181 74.3499C75.0181 72.4299 75.4948 70.5032 75.9481 68.5699L95.2381 17.1899C99.2346 11.867 104.416 7.54788 110.371 4.57461C116.326 1.60133 122.892 0.0556114 129.548 0.0598813C139.133 0.000872626 148.452 3.21068 155.968 9.15988C168.548 18.6799 176.038 37.4299 176.038 37.4299C177.901 41.5857 178.196 46.2751 176.871 50.632C175.545 54.989 172.688 58.7191 168.827 61.1337C164.965 63.5482 160.361 64.484 155.863 63.7683C151.366 63.0526 147.279 60.7337 144.358 57.2399L144.178 57.0299C142.968 55.3941 141.961 53.6178 141.178 51.7399C140.137 49.3885 138.975 47.0922 137.698 44.8599C137.018 43.7099 136.258 42.6199 135.468 41.5399C134.8 40.5724 134.007 39.698 133.108 38.9399C131.338 37.5099 129.108 36.9399 127.028 38.1699L126.738 38.3599C124.598 39.8399 123.098 42.7999 122.058 45.0799C119.058 51.5399 117.338 58.1699 115.638 64.9599C115.308 66.2699 114.998 67.5799 114.698 68.8999L106.748 94.8999L95.5381 119.62C91.5228 124.799 86.385 129 80.5114 131.907C74.6377 134.813 68.1813 136.349 61.6281 136.4C34.4081 136.98 21.4881 112.4 21.4881 112.4C5.97813 86.9599 1.40813 53.3999 0.318134 42.6699C0.0881337 40.4399 0.0781282 39.1199 0.0781282 39.1199C0.0761431 35.7575 0.992572 32.4584 2.72848 29.5787C4.46439 26.699 6.95385 24.3482 9.92813 22.7799C13.0025 21.2225 16.4247 20.4789 19.8681 20.6199C23.0716 20.75 26.1894 21.6929 28.9281 23.3599C31.0552 24.6343 32.8941 26.337 34.3281 28.3599C36.8881 31.9899 37.4581 36.5199 37.9781 40.8499C39.0207 50.3443 40.8605 59.7341 43.4781 68.9199V68.9199Z" fill="url(#paint10_radial)"/>
<path d="M43.4781 68.9199C45.5717 76.2865 48.4271 83.415 51.9981 90.1899C53.6281 93.1899 55.2581 96.1899 58.2181 98.0799C58.7267 98.4102 59.2934 98.641 59.8881 98.7599C64.2481 99.6899 66.6381 96.1799 68.1781 92.9699C70.4762 87.9335 72.3332 82.7072 73.7281 77.3499C73.9981 76.3499 74.2581 75.3499 74.5181 74.3499C75.0181 72.4299 75.4948 70.5032 75.9481 68.5699L95.2381 17.1899C99.2346 11.867 104.416 7.54788 110.371 4.57461C116.326 1.60133 122.892 0.0556114 129.548 0.0598813C139.133 0.000872626 148.452 3.21068 155.968 9.15988C168.548 18.6799 176.038 37.4299 176.038 37.4299C177.901 41.5857 178.196 46.2751 176.871 50.632C175.545 54.989 172.688 58.7191 168.827 61.1337C164.965 63.5482 160.361 64.484 155.863 63.7683C151.366 63.0526 147.279 60.7337 144.358 57.2399L144.178 57.0299C142.968 55.3941 141.961 53.6178 141.178 51.7399C140.137 49.3885 138.975 47.0922 137.698 44.8599C137.018 43.7099 136.258 42.6199 135.468 41.5399C134.8 40.5724 134.007 39.698 133.108 38.9399C131.338 37.5099 129.108 36.9399 127.028 38.1699L126.738 38.3599C124.598 39.8399 123.098 42.7999 122.058 45.0799C119.058 51.5399 117.338 58.1699 115.638 64.9599C115.308 66.2699 114.998 67.5799 114.698 68.8999L106.748 94.8999L95.5381 119.62C91.5228 124.799 86.385 129 80.5114 131.907C74.6377 134.813 68.1813 136.349 61.6281 136.4C34.4081 136.98 21.4881 112.4 21.4881 112.4C5.97813 86.9599 1.40813 53.3999 0.318134 42.6699C0.0881337 40.4399 0.0781282 39.1199 0.0781282 39.1199C0.0761431 35.7575 0.992572 32.4584 2.72848 29.5787C4.46439 26.699 6.95385 24.3482 9.92813 22.7799C13.0025 21.2225 16.4247 20.4789 19.8681 20.6199C23.0716 20.75 26.1894 21.6929 28.9281 23.3599C31.0552 24.6343 32.8941 26.337 34.3281 28.3599C36.8881 31.9899 37.4581 36.5199 37.9781 40.8499C39.0207 50.3443 40.8605 59.7341 43.4781 68.9199V68.9199Z" fill="url(#paint11_radial)"/>
<path d="M43.4781 68.9199C45.5717 76.2865 48.4271 83.415 51.9981 90.1899C53.6281 93.1899 55.2581 96.1899 58.2181 98.0799C58.7267 98.4102 59.2934 98.641 59.8881 98.7599C64.2481 99.6899 66.6381 96.1799 68.1781 92.9699C70.4762 87.9335 72.3332 82.7072 73.7281 77.3499C73.9981 76.3499 74.2581 75.3499 74.5181 74.3499C75.0181 72.4299 75.4948 70.5032 75.9481 68.5699L95.2381 17.1899C99.2346 11.867 104.416 7.54788 110.371 4.57461C116.326 1.60133 122.892 0.0556114 129.548 0.0598813C139.133 0.000872626 148.452 3.21068 155.968 9.15988C168.548 18.6799 176.038 37.4299 176.038 37.4299C177.901 41.5857 178.196 46.2751 176.871 50.632C175.545 54.989 172.688 58.7191 168.827 61.1337C164.965 63.5482 160.361 64.484 155.863 63.7683C151.366 63.0526 147.279 60.7337 144.358 57.2399L144.178 57.0299C142.968 55.3941 141.961 53.6178 141.178 51.7399C140.137 49.3885 138.975 47.0922 137.698 44.8599C137.018 43.7099 136.258 42.6199 135.468 41.5399C134.8 40.5724 134.007 39.698 133.108 38.9399C131.338 37.5099 129.108 36.9399 127.028 38.1699L126.738 38.3599C124.598 39.8399 123.098 42.7999 122.058 45.0799C119.058 51.5399 117.338 58.1699 115.638 64.9599C115.308 66.2699 114.998 67.5799 114.698 68.8999L106.748 94.8999L95.5381 119.62C91.5228 124.799 86.385 129 80.5114 131.907C74.6377 134.813 68.1813 136.349 61.6281 136.4C34.4081 136.98 21.4881 112.4 21.4881 112.4C5.97813 86.9599 1.40813 53.3999 0.318134 42.6699C0.0881337 40.4399 0.0781282 39.1199 0.0781282 39.1199C0.0761431 35.7575 0.992572 32.4584 2.72848 29.5787C4.46439 26.699 6.95385 24.3482 9.92813 22.7799C13.0025 21.2225 16.4247 20.4789 19.8681 20.6199C23.0716 20.75 26.1894 21.6929 28.9281 23.3599C31.0552 24.6343 32.8941 26.337 34.3281 28.3599C36.8881 31.9899 37.4581 36.5199 37.9781 40.8499C39.0207 50.3443 40.8605 59.7341 43.4781 68.9199V68.9199Z" fill="url(#paint12_radial)"/>
<path d="M43.4781 68.9199C45.5717 76.2865 48.4271 83.415 51.9981 90.1899C53.6281 93.1899 55.2581 96.1899 58.2181 98.0799C58.7267 98.4102 59.2934 98.641 59.8881 98.7599C64.2481 99.6899 66.6381 96.1799 68.1781 92.9699C70.4762 87.9335 72.3332 82.7072 73.7281 77.3499C73.9981 76.3499 74.2581 75.3499 74.5181 74.3499C75.0181 72.4299 75.4948 70.5032 75.9481 68.5699L95.2381 17.1899C99.2346 11.867 104.416 7.54788 110.371 4.57461C116.326 1.60133 122.892 0.0556114 129.548 0.0598813C139.133 0.000872626 148.452 3.21068 155.968 9.15988C168.548 18.6799 176.038 37.4299 176.038 37.4299C177.901 41.5857 178.196 46.2751 176.871 50.632C175.545 54.989 172.688 58.7191 168.827 61.1337C164.965 63.5482 160.361 64.484 155.863 63.7683C151.366 63.0526 147.279 60.7337 144.358 57.2399L144.178 57.0299C142.968 55.3941 141.961 53.6178 141.178 51.7399C140.137 49.3885 138.975 47.0922 137.698 44.8599C137.018 43.7099 136.258 42.6199 135.468 41.5399C134.8 40.5724 134.007 39.698 133.108 38.9399C131.338 37.5099 129.108 36.9399 127.028 38.1699L126.738 38.3599C124.598 39.8399 123.098 42.7999 122.058 45.0799C119.058 51.5399 117.338 58.1699 115.638 64.9599C115.308 66.2699 114.998 67.5799 114.698 68.8999L106.748 94.8999L95.5381 119.62C91.5228 124.799 86.385 129 80.5114 131.907C74.6377 134.813 68.1813 136.349 61.6281 136.4C34.4081 136.98 21.4881 112.4 21.4881 112.4C5.97813 86.9599 1.40813 53.3999 0.318134 42.6699C0.0881337 40.4399 0.0781282 39.1199 0.0781282 39.1199C0.0761431 35.7575 0.992572 32.4584 2.72848 29.5787C4.46439 26.699 6.95385 24.3482 9.92813 22.7799C13.0025 21.2225 16.4247 20.4789 19.8681 20.6199C23.0716 20.75 26.1894 21.6929 28.9281 23.3599C31.0552 24.6343 32.8941 26.337 34.3281 28.3599C36.8881 31.9899 37.4581 36.5199 37.9781 40.8499C39.0207 50.3443 40.8605 59.7341 43.4781 68.9199V68.9199Z" fill="url(#paint13_radial)"/>
<path d="M43.4781 68.9199C45.5717 76.2865 48.4271 83.415 51.9981 90.1899C53.6281 93.1899 55.2581 96.1899 58.2181 98.0799C58.7267 98.4102 59.2934 98.641 59.8881 98.7599C64.2481 99.6899 66.6381 96.1799 68.1781 92.9699C70.4762 87.9335 72.3332 82.7072 73.7281 77.3499C73.9981 76.3499 74.2581 75.3499 74.5181 74.3499C75.0181 72.4299 75.4948 70.5032 75.9481 68.5699L95.2381 17.1899C99.2346 11.867 104.416 7.54788 110.371 4.57461C116.326 1.60133 122.892 0.0556114 129.548 0.0598813C139.133 0.000872626 148.452 3.21068 155.968 9.15988C168.548 18.6799 176.038 37.4299 176.038 37.4299C177.901 41.5857 178.196 46.2751 176.871 50.632C175.545 54.989 172.688 58.7191 168.827 61.1337C164.965 63.5482 160.361 64.484 155.863 63.7683C151.366 63.0526 147.279 60.7337 144.358 57.2399L144.178 57.0299C142.968 55.3941 141.961 53.6178 141.178 51.7399C140.137 49.3885 138.975 47.0922 137.698 44.8599C137.018 43.7099 136.258 42.6199 135.468 41.5399C134.8 40.5724 134.007 39.698 133.108 38.9399C131.338 37.5099 129.108 36.9399 127.028 38.1699L126.738 38.3599C124.598 39.8399 123.098 42.7999 122.058 45.0799C119.058 51.5399 117.338 58.1699 115.638 64.9599C115.308 66.2699 114.998 67.5799 114.698 68.8999L106.748 94.8999L95.5381 119.62C91.5228 124.799 86.385 129 80.5114 131.907C74.6377 134.813 68.1813 136.349 61.6281 136.4C34.4081 136.98 21.4881 112.4 21.4881 112.4C5.97813 86.9599 1.40813 53.3999 0.318134 42.6699C0.0881337 40.4399 0.0781282 39.1199 0.0781282 39.1199C0.0761431 35.7575 0.992572 32.4584 2.72848 29.5787C4.46439 26.699 6.95385 24.3482 9.92813 22.7799C13.0025 21.2225 16.4247 20.4789 19.8681 20.6199C23.0716 20.75 26.1894 21.6929 28.9281 23.3599C31.0552 24.6343 32.8941 26.337 34.3281 28.3599C36.8881 31.9899 37.4581 36.5199 37.9781 40.8499C39.0207 50.3443 40.8605 59.7341 43.4781 68.9199V68.9199Z" fill="url(#paint14_radial)"/>
<path d="M43.4781 68.9199C45.5717 76.2865 48.4271 83.415 51.9981 90.1899C53.6281 93.1899 55.2581 96.1899 58.2181 98.0799C58.7267 98.4102 59.2934 98.641 59.8881 98.7599C64.2481 99.6899 66.6381 96.1799 68.1781 92.9699C70.4762 87.9335 72.3332 82.7072 73.7281 77.3499C73.9981 76.3499 74.2581 75.3499 74.5181 74.3499C75.0181 72.4299 75.4948 70.5032 75.9481 68.5699L95.2381 17.1899C99.2346 11.867 104.416 7.54788 110.371 4.57461C116.326 1.60133 122.892 0.0556114 129.548 0.0598813C139.133 0.000872626 148.452 3.21068 155.968 9.15988C168.548 18.6799 176.038 37.4299 176.038 37.4299C177.901 41.5857 178.196 46.2751 176.871 50.632C175.545 54.989 172.688 58.7191 168.827 61.1337C164.965 63.5482 160.361 64.484 155.863 63.7683C151.366 63.0526 147.279 60.7337 144.358 57.2399L144.178 57.0299C142.968 55.3941 141.961 53.6178 141.178 51.7399C140.137 49.3885 138.975 47.0922 137.698 44.8599C137.018 43.7099 136.258 42.6199 135.468 41.5399C134.8 40.5724 134.007 39.698 133.108 38.9399C131.338 37.5099 129.108 36.9399 127.028 38.1699L126.738 38.3599C124.598 39.8399 123.098 42.7999 122.058 45.0799C119.058 51.5399 117.338 58.1699 115.638 64.9599C115.308 66.2699 114.998 67.5799 114.698 68.8999L106.748 94.8999L95.5381 119.62C91.5228 124.799 86.385 129 80.5114 131.907C74.6377 134.813 68.1813 136.349 61.6281 136.4C34.4081 136.98 21.4881 112.4 21.4881 112.4C5.97813 86.9599 1.40813 53.3999 0.318134 42.6699C0.0881337 40.4399 0.0781282 39.1199 0.0781282 39.1199C0.0761431 35.7575 0.992572 32.4584 2.72848 29.5787C4.46439 26.699 6.95385 24.3482 9.92813 22.7799C13.0025 21.2225 16.4247 20.4789 19.8681 20.6199C23.0716 20.75 26.1894 21.6929 28.9281 23.3599C31.0552 24.6343 32.8941 26.337 34.3281 28.3599C36.8881 31.9899 37.4581 36.5199 37.9781 40.8499C39.0207 50.3443 40.8605 59.7341 43.4781 68.9199V68.9199Z" fill="url(#paint15_radial)"/>
<path d="M43.4781 68.9199C45.5717 76.2865 48.4271 83.415 51.9981 90.1899C53.6281 93.1899 55.2581 96.1899 58.2181 98.0799C58.7267 98.4102 59.2934 98.641 59.8881 98.7599C64.2481 99.6899 66.6381 96.1799 68.1781 92.9699C70.4762 87.9335 72.3332 82.7072 73.7281 77.3499C73.9981 76.3499 74.2581 75.3499 74.5181 74.3499C75.0181 72.4299 75.4948 70.5032 75.9481 68.5699L95.2381 17.1899C99.2346 11.867 104.416 7.54788 110.371 4.57461C116.326 1.60133 122.892 0.0556114 129.548 0.0598813C139.133 0.000872626 148.452 3.21068 155.968 9.15988C168.548 18.6799 176.038 37.4299 176.038 37.4299C177.901 41.5857 178.196 46.2751 176.871 50.632C175.545 54.989 172.688 58.7191 168.827 61.1337C164.965 63.5482 160.361 64.484 155.863 63.7683C151.366 63.0526 147.279 60.7337 144.358 57.2399L144.178 57.0299C142.968 55.3941 141.961 53.6178 141.178 51.7399C140.137 49.3885 138.975 47.0922 137.698 44.8599C137.018 43.7099 136.258 42.6199 135.468 41.5399C134.8 40.5724 134.007 39.698 133.108 38.9399C131.338 37.5099 129.108 36.9399 127.028 38.1699L126.738 38.3599C124.598 39.8399 123.098 42.7999 122.058 45.0799C119.058 51.5399 117.338 58.1699 115.638 64.9599C115.308 66.2699 114.998 67.5799 114.698 68.8999L106.748 94.8999L95.5381 119.62C91.5228 124.799 86.385 129 80.5114 131.907C74.6377 134.813 68.1813 136.349 61.6281 136.4C34.4081 136.98 21.4881 112.4 21.4881 112.4C5.97813 86.9599 1.40813 53.3999 0.318134 42.6699C0.0881337 40.4399 0.0781282 39.1199 0.0781282 39.1199C0.0761431 35.7575 0.992572 32.4584 2.72848 29.5787C4.46439 26.699 6.95385 24.3482 9.92813 22.7799C13.0025 21.2225 16.4247 20.4789 19.8681 20.6199C23.0716 20.75 26.1894 21.6929 28.9281 23.3599C31.0552 24.6343 32.8941 26.337 34.3281 28.3599C36.8881 31.9899 37.4581 36.5199 37.9781 40.8499C39.0207 50.3443 40.8605 59.7341 43.4781 68.9199V68.9199Z" fill="url(#paint16_linear)"/>
<path d="M43.4781 68.9199C45.5717 76.2865 48.4271 83.415 51.9981 90.1899C53.6281 93.1899 55.2581 96.1899 58.2181 98.0799C58.7267 98.4102 59.2934 98.641 59.8881 98.7599C64.2481 99.6899 66.6381 96.1799 68.1781 92.9699C70.4762 87.9335 72.3332 82.7072 73.7281 77.3499C73.9981 76.3499 74.2581 75.3499 74.5181 74.3499C75.0181 72.4299 75.4948 70.5032 75.9481 68.5699L95.2381 17.1899C99.2346 11.867 104.416 7.54788 110.371 4.57461C116.326 1.60133 122.892 0.0556114 129.548 0.0598813C139.133 0.000872626 148.452 3.21068 155.968 9.15988C168.548 18.6799 176.038 37.4299 176.038 37.4299C177.901 41.5857 178.196 46.2751 176.871 50.632C175.545 54.989 172.688 58.7191 168.827 61.1337C164.965 63.5482 160.361 64.484 155.863 63.7683C151.366 63.0526 147.279 60.7337 144.358 57.2399L144.178 57.0299C142.968 55.3941 141.961 53.6178 141.178 51.7399C140.137 49.3885 138.975 47.0922 137.698 44.8599C137.018 43.7099 136.258 42.6199 135.468 41.5399C134.8 40.5724 134.007 39.698 133.108 38.9399C131.338 37.5099 129.108 36.9399 127.028 38.1699L126.738 38.3599C124.598 39.8399 123.098 42.7999 122.058 45.0799C119.058 51.5399 117.338 58.1699 115.638 64.9599C115.308 66.2699 114.998 67.5799 114.698 68.8999L106.748 94.8999L95.5381 119.62C91.5228 124.799 86.385 129 80.5114 131.907C74.6377 134.813 68.1813 136.349 61.6281 136.4C34.4081 136.98 21.4881 112.4 21.4881 112.4C5.97813 86.9599 1.40813 53.3999 0.318134 42.6699C0.0881337 40.4399 0.0781282 39.1199 0.0781282 39.1199C0.0761431 35.7575 0.992572 32.4584 2.72848 29.5787C4.46439 26.699 6.95385 24.3482 9.92813 22.7799C13.0025 21.2225 16.4247 20.4789 19.8681 20.6199C23.0716 20.75 26.1894 21.6929 28.9281 23.3599C31.0552 24.6343 32.8941 26.337 34.3281 28.3599C36.8881 31.9899 37.4581 36.5199 37.9781 40.8499C39.0207 50.3443 40.8605 59.7341 43.4781 68.9199V68.9199Z" fill="url(#paint17_linear)"/>
<path d="M43.4781 68.9199C45.5717 76.2865 48.4271 83.415 51.9981 90.1899C53.6281 93.1899 55.2581 96.1899 58.2181 98.0799C58.7267 98.4102 59.2934 98.641 59.8881 98.7599C64.2481 99.6899 66.6381 96.1799 68.1781 92.9699C70.4762 87.9335 72.3332 82.7072 73.7281 77.3499C73.9981 76.3499 74.2581 75.3499 74.5181 74.3499C75.0181 72.4299 75.4948 70.5032 75.9481 68.5699L95.2381 17.1899C99.2346 11.867 104.416 7.54788 110.371 4.57461C116.326 1.60133 122.892 0.0556114 129.548 0.0598813C139.133 0.000872626 148.452 3.21068 155.968 9.15988C168.548 18.6799 176.038 37.4299 176.038 37.4299C177.901 41.5857 178.196 46.2751 176.871 50.632C175.545 54.989 172.688 58.7191 168.827 61.1337C164.965 63.5482 160.361 64.484 155.863 63.7683C151.366 63.0526 147.279 60.7337 144.358 57.2399L144.178 57.0299C142.968 55.3941 141.961 53.6178 141.178 51.7399C140.137 49.3885 138.975 47.0922 137.698 44.8599C137.018 43.7099 136.258 42.6199 135.468 41.5399C134.8 40.5724 134.007 39.698 133.108 38.9399C131.338 37.5099 129.108 36.9399 127.028 38.1699L126.738 38.3599C124.598 39.8399 123.098 42.7999 122.058 45.0799C119.058 51.5399 117.338 58.1699 115.638 64.9599C115.308 66.2699 114.998 67.5799 114.698 68.8999L106.748 94.8999L95.5381 119.62C91.5228 124.799 86.385 129 80.5114 131.907C74.6377 134.813 68.1813 136.349 61.6281 136.4C34.4081 136.98 21.4881 112.4 21.4881 112.4C5.97813 86.9599 1.40813 53.3999 0.318134 42.6699C0.0881337 40.4399 0.0781282 39.1199 0.0781282 39.1199C0.0761431 35.7575 0.992572 32.4584 2.72848 29.5787C4.46439 26.699 6.95385 24.3482 9.92813 22.7799C13.0025 21.2225 16.4247 20.4789 19.8681 20.6199C23.0716 20.75 26.1894 21.6929 28.9281 23.3599C31.0552 24.6343 32.8941 26.337 34.3281 28.3599C36.8881 31.9899 37.4581 36.5199 37.9781 40.8499C39.0207 50.3443 40.8605 59.7341 43.4781 68.9199V68.9199Z" fill="url(#paint18_linear)"/>
<path d="M43.4781 68.9199C45.5717 76.2865 48.4271 83.415 51.9981 90.1899C53.6281 93.1899 55.2581 96.1899 58.2181 98.0799C58.7267 98.4102 59.2934 98.641 59.8881 98.7599C64.2481 99.6899 66.6381 96.1799 68.1781 92.9699C70.4762 87.9335 72.3332 82.7072 73.7281 77.3499C73.9981 76.3499 74.2581 75.3499 74.5181 74.3499C75.0181 72.4299 75.4948 70.5032 75.9481 68.5699L95.2381 17.1899C99.2346 11.867 104.416 7.54788 110.371 4.57461C116.326 1.60133 122.892 0.0556114 129.548 0.0598813C139.133 0.000872626 148.452 3.21068 155.968 9.15988C168.548 18.6799 176.038 37.4299 176.038 37.4299C177.901 41.5857 178.196 46.2751 176.871 50.632C175.545 54.989 172.688 58.7191 168.827 61.1337C164.965 63.5482 160.361 64.484 155.863 63.7683C151.366 63.0526 147.279 60.7337 144.358 57.2399L144.178 57.0299C142.968 55.3941 141.961 53.6178 141.178 51.7399C140.137 49.3885 138.975 47.0922 137.698 44.8599C137.018 43.7099 136.258 42.6199 135.468 41.5399C134.8 40.5724 134.007 39.698 133.108 38.9399C131.338 37.5099 129.108 36.9399 127.028 38.1699L126.738 38.3599C124.598 39.8399 123.098 42.7999 122.058 45.0799C119.058 51.5399 117.338 58.1699 115.638 64.9599C115.308 66.2699 114.998 67.5799 114.698 68.8999L106.748 94.8999L95.5381 119.62C91.5228 124.799 86.385 129 80.5114 131.907C74.6377 134.813 68.1813 136.349 61.6281 136.4C34.4081 136.98 21.4881 112.4 21.4881 112.4C5.97813 86.9599 1.40813 53.3999 0.318134 42.6699C0.0881337 40.4399 0.0781282 39.1199 0.0781282 39.1199C0.0761431 35.7575 0.992572 32.4584 2.72848 29.5787C4.46439 26.699 6.95385 24.3482 9.92813 22.7799C13.0025 21.2225 16.4247 20.4789 19.8681 20.6199C23.0716 20.75 26.1894 21.6929 28.9281 23.3599C31.0552 24.6343 32.8941 26.337 34.3281 28.3599C36.8881 31.9899 37.4581 36.5199 37.9781 40.8499C39.0207 50.3443 40.8605 59.7341 43.4781 68.9199V68.9199Z" fill="url(#paint19_linear)"/>
<path d="M171.812 20.68C170.224 20.6814 168.641 20.8795 167.102 21.27C170.61 26.3388 173.588 31.7537 175.992 37.43C177.282 40.3053 177.831 43.4581 177.588 46.6002C177.346 49.7423 176.32 52.7737 174.605 55.4172C172.889 58.0607 170.538 60.2322 167.767 61.7333C164.996 63.2343 161.893 64.0171 158.742 64.01C155.393 64.0134 152.104 63.1153 149.222 61.41L147.242 68.58C143.722 80.35 141.242 84.9 141.242 84.9C139.876 88.091 138.25 91.1646 136.382 94.09C135.092 96.01 133.442 97.92 131.182 98.66C130.394 98.926 129.555 99.0047 128.732 98.89C127.838 98.7867 126.976 98.4971 126.202 98.04C124.716 96.9224 123.534 95.4511 122.762 93.76C121.806 91.8826 120.948 89.9566 120.192 87.99C118.522 83.93 115.942 73.94 115.942 73.94L113.272 63.46L110.602 52.92L108.702 45.98C103.702 27.98 96.7819 19.05 96.7819 19.05C91.3376 11.2994 83.6336 5.41831 74.7219 2.20997C64.3819 -1.49003 53.5319 0.589969 53.5319 0.589969C36.5319 3.92997 27.6019 15.59 23.6719 21.2C25.4705 21.6696 27.1917 22.3971 28.7819 23.36C30.9089 24.6344 32.7478 26.3371 34.1819 28.36C36.7419 31.99 37.3119 36.52 37.8319 40.85C38.8861 50.226 40.7191 59.4981 43.3119 68.57C49.0719 49.47 55.9819 40.57 55.9819 40.57C56.7513 39.6054 57.6776 38.7772 58.7219 38.12C59.2642 37.787 59.8708 37.5723 60.5019 37.49C61.6725 37.3813 62.8456 37.6701 63.8319 38.31C64.0102 38.4287 64.1806 38.559 64.3419 38.7C65.2425 39.5033 66.0178 40.437 66.6419 41.47C68.0784 44.0422 69.3251 46.716 70.3719 49.47C72.5319 55.56 74.3719 62.99 74.3719 62.99L79.8719 84.66C83.8719 99.4 87.2619 106.57 87.2619 106.57C95.6119 125.68 108.382 131.07 108.382 131.07C114.599 134.394 121.514 136.2 128.562 136.34C135.29 136.526 141.964 135.092 148.022 132.16C154.708 128.955 160.591 124.294 165.242 118.52C168.332 114.93 172.882 106.21 172.882 106.21C177.9 96.2146 181.836 85.7117 184.622 74.88C186.414 68.137 187.849 61.3042 188.922 54.41C189.462 50.98 189.972 47.54 190.382 44.1C190.893 40.8298 190.791 37.493 190.082 34.26C189.935 33.6822 189.751 33.1143 189.532 32.56C187.928 28.5025 184.947 25.1392 181.112 23.06C178.26 21.5001 175.062 20.6817 171.812 20.68V20.68Z" fill="url(#paint20_linear)"/>
<path d="M171.812 20.68C170.224 20.6814 168.641 20.8795 167.102 21.27C170.61 26.3388 173.588 31.7537 175.992 37.43C177.282 40.3053 177.831 43.4581 177.588 46.6002C177.346 49.7423 176.32 52.7737 174.605 55.4172C172.889 58.0607 170.538 60.2322 167.767 61.7333C164.996 63.2343 161.893 64.0171 158.742 64.01C155.393 64.0134 152.104 63.1153 149.222 61.41L147.242 68.58C143.722 80.35 141.242 84.9 141.242 84.9C139.876 88.091 138.25 91.1646 136.382 94.09C135.092 96.01 133.442 97.92 131.182 98.66C130.394 98.926 129.555 99.0047 128.732 98.89C127.838 98.7867 126.976 98.4971 126.202 98.04C124.716 96.9224 123.534 95.4511 122.762 93.76C121.806 91.8826 120.948 89.9566 120.192 87.99C118.522 83.93 115.942 73.94 115.942 73.94L113.272 63.46L110.602 52.92L108.702 45.98C103.702 27.98 96.7819 19.05 96.7819 19.05C91.3376 11.2994 83.6336 5.41831 74.7219 2.20997C64.3819 -1.49003 53.5319 0.589969 53.5319 0.589969C36.5319 3.92997 27.6019 15.59 23.6719 21.2C25.4705 21.6696 27.1917 22.3971 28.7819 23.36C30.9089 24.6344 32.7478 26.3371 34.1819 28.36C36.7419 31.99 37.3119 36.52 37.8319 40.85C38.8861 50.226 40.7191 59.4981 43.3119 68.57C49.0719 49.47 55.9819 40.57 55.9819 40.57C56.7513 39.6054 57.6776 38.7772 58.7219 38.12C59.2642 37.787 59.8708 37.5723 60.5019 37.49C61.6725 37.3813 62.8456 37.6701 63.8319 38.31C64.0102 38.4287 64.1806 38.559 64.3419 38.7C65.2425 39.5033 66.0178 40.437 66.6419 41.47C68.0784 44.0422 69.3251 46.716 70.3719 49.47C72.5319 55.56 74.3719 62.99 74.3719 62.99L79.8719 84.66C83.8719 99.4 87.2619 106.57 87.2619 106.57C95.6119 125.68 108.382 131.07 108.382 131.07C114.599 134.394 121.514 136.2 128.562 136.34C135.29 136.526 141.964 135.092 148.022 132.16C154.708 128.955 160.591 124.294 165.242 118.52C168.332 114.93 172.882 106.21 172.882 106.21C177.9 96.2146 181.836 85.7117 184.622 74.88C186.414 68.137 187.849 61.3042 188.922 54.41C189.462 50.98 189.972 47.54 190.382 44.1C190.893 40.8298 190.791 37.493 190.082 34.26C189.935 33.6822 189.751 33.1143 189.532 32.56C187.928 28.5025 184.947 25.1392 181.112 23.06C178.26 21.5001 175.062 20.6817 171.812 20.68V20.68Z" fill="url(#paint21_radial)"/>
<path d="M171.812 20.68C170.224 20.6814 168.641 20.8795 167.102 21.27C170.61 26.3388 173.588 31.7537 175.992 37.43C177.282 40.3053 177.831 43.4581 177.588 46.6002C177.346 49.7423 176.32 52.7737 174.605 55.4172C172.889 58.0607 170.538 60.2322 167.767 61.7333C164.996 63.2343 161.893 64.0171 158.742 64.01C155.393 64.0134 152.104 63.1153 149.222 61.41L147.242 68.58C143.722 80.35 141.242 84.9 141.242 84.9C139.876 88.091 138.25 91.1646 136.382 94.09C135.092 96.01 133.442 97.92 131.182 98.66C130.394 98.926 129.555 99.0047 128.732 98.89C127.838 98.7867 126.976 98.4971 126.202 98.04C124.716 96.9224 123.534 95.4511 122.762 93.76C121.806 91.8826 120.948 89.9566 120.192 87.99C118.522 83.93 115.942 73.94 115.942 73.94L113.272 63.46L110.602 52.92L108.702 45.98C103.702 27.98 96.7819 19.05 96.7819 19.05C91.3376 11.2994 83.6336 5.41831 74.7219 2.20997C64.3819 -1.49003 53.5319 0.589969 53.5319 0.589969C36.5319 3.92997 27.6019 15.59 23.6719 21.2C25.4705 21.6696 27.1917 22.3971 28.7819 23.36C30.9089 24.6344 32.7478 26.3371 34.1819 28.36C36.7419 31.99 37.3119 36.52 37.8319 40.85C38.8861 50.226 40.7191 59.4981 43.3119 68.57C49.0719 49.47 55.9819 40.57 55.9819 40.57C56.7513 39.6054 57.6776 38.7772 58.7219 38.12C59.2642 37.787 59.8708 37.5723 60.5019 37.49C61.6725 37.3813 62.8456 37.6701 63.8319 38.31C64.0102 38.4287 64.1806 38.559 64.3419 38.7C65.2425 39.5033 66.0178 40.437 66.6419 41.47C68.0784 44.0422 69.3251 46.716 70.3719 49.47C72.5319 55.56 74.3719 62.99 74.3719 62.99L79.8719 84.66C83.8719 99.4 87.2619 106.57 87.2619 106.57C95.6119 125.68 108.382 131.07 108.382 131.07C114.599 134.394 121.514 136.2 128.562 136.34C135.29 136.526 141.964 135.092 148.022 132.16C154.708 128.955 160.591 124.294 165.242 118.52C168.332 114.93 172.882 106.21 172.882 106.21C177.9 96.2146 181.836 85.7117 184.622 74.88C186.414 68.137 187.849 61.3042 188.922 54.41C189.462 50.98 189.972 47.54 190.382 44.1C190.893 40.8298 190.791 37.493 190.082 34.26C189.935 33.6822 189.751 33.1143 189.532 32.56C187.928 28.5025 184.947 25.1392 181.112 23.06C178.26 21.5001 175.062 20.6817 171.812 20.68V20.68Z" fill="url(#paint22_radial)"/>
<path d="M171.812 20.68C170.224 20.6814 168.641 20.8795 167.102 21.27C170.61 26.3388 173.588 31.7537 175.992 37.43C177.282 40.3053 177.831 43.4581 177.588 46.6002C177.346 49.7423 176.32 52.7737 174.605 55.4172C172.889 58.0607 170.538 60.2322 167.767 61.7333C164.996 63.2343 161.893 64.0171 158.742 64.01C155.393 64.0134 152.104 63.1153 149.222 61.41L147.242 68.58C143.722 80.35 141.242 84.9 141.242 84.9C139.876 88.091 138.25 91.1646 136.382 94.09C135.092 96.01 133.442 97.92 131.182 98.66C130.394 98.926 129.555 99.0047 128.732 98.89C127.838 98.7867 126.976 98.4971 126.202 98.04C124.716 96.9224 123.534 95.4511 122.762 93.76C121.806 91.8826 120.948 89.9566 120.192 87.99C118.522 83.93 115.942 73.94 115.942 73.94L113.272 63.46L110.602 52.92L108.702 45.98C103.702 27.98 96.7819 19.05 96.7819 19.05C91.3376 11.2994 83.6336 5.41831 74.7219 2.20997C64.3819 -1.49003 53.5319 0.589969 53.5319 0.589969C36.5319 3.92997 27.6019 15.59 23.6719 21.2C25.4705 21.6696 27.1917 22.3971 28.7819 23.36C30.9089 24.6344 32.7478 26.3371 34.1819 28.36C36.7419 31.99 37.3119 36.52 37.8319 40.85C38.8861 50.226 40.7191 59.4981 43.3119 68.57C49.0719 49.47 55.9819 40.57 55.9819 40.57C56.7513 39.6054 57.6776 38.7772 58.7219 38.12C59.2642 37.787 59.8708 37.5723 60.5019 37.49C61.6725 37.3813 62.8456 37.6701 63.8319 38.31C64.0102 38.4287 64.1806 38.559 64.3419 38.7C65.2425 39.5033 66.0178 40.437 66.6419 41.47C68.0784 44.0422 69.3251 46.716 70.3719 49.47C72.5319 55.56 74.3719 62.99 74.3719 62.99L79.8719 84.66C83.8719 99.4 87.2619 106.57 87.2619 106.57C95.6119 125.68 108.382 131.07 108.382 131.07C114.599 134.394 121.514 136.2 128.562 136.34C135.29 136.526 141.964 135.092 148.022 132.16C154.708 128.955 160.591 124.294 165.242 118.52C168.332 114.93 172.882 106.21 172.882 106.21C177.9 96.2146 181.836 85.7117 184.622 74.88C186.414 68.137 187.849 61.3042 188.922 54.41C189.462 50.98 189.972 47.54 190.382 44.1C190.893 40.8298 190.791 37.493 190.082 34.26C189.935 33.6822 189.751 33.1143 189.532 32.56C187.928 28.5025 184.947 25.1392 181.112 23.06C178.26 21.5001 175.062 20.6817 171.812 20.68V20.68Z" fill="url(#paint23_radial)"/>
<path d="M171.812 20.68C170.224 20.6814 168.641 20.8795 167.102 21.27C170.61 26.3388 173.588 31.7537 175.992 37.43C177.282 40.3053 177.831 43.4581 177.588 46.6002C177.346 49.7423 176.32 52.7737 174.605 55.4172C172.889 58.0607 170.538 60.2322 167.767 61.7333C164.996 63.2343 161.893 64.0171 158.742 64.01C155.393 64.0134 152.104 63.1153 149.222 61.41L147.242 68.58C143.722 80.35 141.242 84.9 141.242 84.9C139.876 88.091 138.25 91.1646 136.382 94.09C135.092 96.01 133.442 97.92 131.182 98.66C130.394 98.926 129.555 99.0047 128.732 98.89C127.838 98.7867 126.976 98.4971 126.202 98.04C124.716 96.9224 123.534 95.4511 122.762 93.76C121.806 91.8826 120.948 89.9566 120.192 87.99C118.522 83.93 115.942 73.94 115.942 73.94L113.272 63.46L110.602 52.92L108.702 45.98C103.702 27.98 96.7819 19.05 96.7819 19.05C91.3376 11.2994 83.6336 5.41831 74.7219 2.20997C64.3819 -1.49003 53.5319 0.589969 53.5319 0.589969C36.5319 3.92997 27.6019 15.59 23.6719 21.2C25.4705 21.6696 27.1917 22.3971 28.7819 23.36C30.9089 24.6344 32.7478 26.3371 34.1819 28.36C36.7419 31.99 37.3119 36.52 37.8319 40.85C38.8861 50.226 40.7191 59.4981 43.3119 68.57C49.0719 49.47 55.9819 40.57 55.9819 40.57C56.7513 39.6054 57.6776 38.7772 58.7219 38.12C59.2642 37.787 59.8708 37.5723 60.5019 37.49C61.6725 37.3813 62.8456 37.6701 63.8319 38.31C64.0102 38.4287 64.1806 38.559 64.3419 38.7C65.2425 39.5033 66.0178 40.437 66.6419 41.47C68.0784 44.0422 69.3251 46.716 70.3719 49.47C72.5319 55.56 74.3719 62.99 74.3719 62.99L79.8719 84.66C83.8719 99.4 87.2619 106.57 87.2619 106.57C95.6119 125.68 108.382 131.07 108.382 131.07C114.599 134.394 121.514 136.2 128.562 136.34C135.29 136.526 141.964 135.092 148.022 132.16C154.708 128.955 160.591 124.294 165.242 118.52C168.332 114.93 172.882 106.21 172.882 106.21C177.9 96.2146 181.836 85.7117 184.622 74.88C186.414 68.137 187.849 61.3042 188.922 54.41C189.462 50.98 189.972 47.54 190.382 44.1C190.893 40.8298 190.791 37.493 190.082 34.26C189.935 33.6822 189.751 33.1143 189.532 32.56C187.928 28.5025 184.947 25.1392 181.112 23.06C178.26 21.5001 175.062 20.6817 171.812 20.68V20.68Z" fill="url(#paint24_radial)"/>
<path d="M171.812 20.68C170.224 20.6814 168.641 20.8795 167.102 21.27C170.61 26.3388 173.588 31.7537 175.992 37.43C177.282 40.3053 177.831 43.4581 177.588 46.6002C177.346 49.7423 176.32 52.7737 174.605 55.4172C172.889 58.0607 170.538 60.2322 167.767 61.7333C164.996 63.2343 161.893 64.0171 158.742 64.01C155.393 64.0134 152.104 63.1153 149.222 61.41L147.242 68.58C143.722 80.35 141.242 84.9 141.242 84.9C139.876 88.091 138.25 91.1646 136.382 94.09C135.092 96.01 133.442 97.92 131.182 98.66C130.394 98.926 129.555 99.0047 128.732 98.89C127.838 98.7867 126.976 98.4971 126.202 98.04C124.716 96.9224 123.534 95.4511 122.762 93.76C121.806 91.8826 120.948 89.9566 120.192 87.99C118.522 83.93 115.942 73.94 115.942 73.94L113.272 63.46L110.602 52.92L108.702 45.98C103.702 27.98 96.7819 19.05 96.7819 19.05C91.3376 11.2994 83.6336 5.41831 74.7219 2.20997C64.3819 -1.49003 53.5319 0.589969 53.5319 0.589969C36.5319 3.92997 27.6019 15.59 23.6719 21.2C25.4705 21.6696 27.1917 22.3971 28.7819 23.36C30.9089 24.6344 32.7478 26.3371 34.1819 28.36C36.7419 31.99 37.3119 36.52 37.8319 40.85C38.8861 50.226 40.7191 59.4981 43.3119 68.57C49.0719 49.47 55.9819 40.57 55.9819 40.57C56.7513 39.6054 57.6776 38.7772 58.7219 38.12C59.2642 37.787 59.8708 37.5723 60.5019 37.49C61.6725 37.3813 62.8456 37.6701 63.8319 38.31C64.0102 38.4287 64.1806 38.559 64.3419 38.7C65.2425 39.5033 66.0178 40.437 66.6419 41.47C68.0784 44.0422 69.3251 46.716 70.3719 49.47C72.5319 55.56 74.3719 62.99 74.3719 62.99L79.8719 84.66C83.8719 99.4 87.2619 106.57 87.2619 106.57C95.6119 125.68 108.382 131.07 108.382 131.07C114.599 134.394 121.514 136.2 128.562 136.34C135.29 136.526 141.964 135.092 148.022 132.16C154.708 128.955 160.591 124.294 165.242 118.52C168.332 114.93 172.882 106.21 172.882 106.21C177.9 96.2146 181.836 85.7117 184.622 74.88C186.414 68.137 187.849 61.3042 188.922 54.41C189.462 50.98 189.972 47.54 190.382 44.1C190.893 40.8298 190.791 37.493 190.082 34.26C189.935 33.6822 189.751 33.1143 189.532 32.56C187.928 28.5025 184.947 25.1392 181.112 23.06C178.26 21.5001 175.062 20.6817 171.812 20.68V20.68Z" fill="url(#paint25_radial)"/>
<path d="M171.812 20.68C170.224 20.6814 168.641 20.8795 167.102 21.27C170.61 26.3388 173.588 31.7537 175.992 37.43C177.282 40.3053 177.831 43.4581 177.588 46.6002C177.346 49.7423 176.32 52.7737 174.605 55.4172C172.889 58.0607 170.538 60.2322 167.767 61.7333C164.996 63.2343 161.893 64.0171 158.742 64.01C155.393 64.0134 152.104 63.1153 149.222 61.41L147.242 68.58C143.722 80.35 141.242 84.9 141.242 84.9C139.876 88.091 138.25 91.1646 136.382 94.09C135.092 96.01 133.442 97.92 131.182 98.66C130.394 98.926 129.555 99.0047 128.732 98.89C127.838 98.7867 126.976 98.4971 126.202 98.04C124.716 96.9224 123.534 95.4511 122.762 93.76C121.806 91.8826 120.948 89.9566 120.192 87.99C118.522 83.93 115.942 73.94 115.942 73.94L113.272 63.46L110.602 52.92L108.702 45.98C103.702 27.98 96.7819 19.05 96.7819 19.05C91.3376 11.2994 83.6336 5.41831 74.7219 2.20997C64.3819 -1.49003 53.5319 0.589969 53.5319 0.589969C36.5319 3.92997 27.6019 15.59 23.6719 21.2C25.4705 21.6696 27.1917 22.3971 28.7819 23.36C30.9089 24.6344 32.7478 26.3371 34.1819 28.36C36.7419 31.99 37.3119 36.52 37.8319 40.85C38.8861 50.226 40.7191 59.4981 43.3119 68.57C49.0719 49.47 55.9819 40.57 55.9819 40.57C56.7513 39.6054 57.6776 38.7772 58.7219 38.12C59.2642 37.787 59.8708 37.5723 60.5019 37.49C61.6725 37.3813 62.8456 37.6701 63.8319 38.31C64.0102 38.4287 64.1806 38.559 64.3419 38.7C65.2425 39.5033 66.0178 40.437 66.6419 41.47C68.0784 44.0422 69.3251 46.716 70.3719 49.47C72.5319 55.56 74.3719 62.99 74.3719 62.99L79.8719 84.66C83.8719 99.4 87.2619 106.57 87.2619 106.57C95.6119 125.68 108.382 131.07 108.382 131.07C114.599 134.394 121.514 136.2 128.562 136.34C135.29 136.526 141.964 135.092 148.022 132.16C154.708 128.955 160.591 124.294 165.242 118.52C168.332 114.93 172.882 106.21 172.882 106.21C177.9 96.2146 181.836 85.7117 184.622 74.88C186.414 68.137 187.849 61.3042 188.922 54.41C189.462 50.98 189.972 47.54 190.382 44.1C190.893 40.8298 190.791 37.493 190.082 34.26C189.935 33.6822 189.751 33.1143 189.532 32.56C187.928 28.5025 184.947 25.1392 181.112 23.06C178.26 21.5001 175.062 20.6817 171.812 20.68V20.68Z" fill="url(#paint26_radial)"/>
<path d="M171.812 20.68C170.224 20.6814 168.641 20.8795 167.102 21.27C170.61 26.3388 173.588 31.7537 175.992 37.43C177.282 40.3053 177.831 43.4581 177.588 46.6002C177.346 49.7423 176.32 52.7737 174.605 55.4172C172.889 58.0607 170.538 60.2322 167.767 61.7333C164.996 63.2343 161.893 64.0171 158.742 64.01C155.393 64.0134 152.104 63.1153 149.222 61.41L147.242 68.58C143.722 80.35 141.242 84.9 141.242 84.9C139.876 88.091 138.25 91.1646 136.382 94.09C135.092 96.01 133.442 97.92 131.182 98.66C130.394 98.926 129.555 99.0047 128.732 98.89C127.838 98.7867 126.976 98.4971 126.202 98.04C124.716 96.9224 123.534 95.4511 122.762 93.76C121.806 91.8826 120.948 89.9566 120.192 87.99C118.522 83.93 115.942 73.94 115.942 73.94L113.272 63.46L110.602 52.92L108.702 45.98C103.702 27.98 96.7819 19.05 96.7819 19.05C91.3376 11.2994 83.6336 5.41831 74.7219 2.20997C64.3819 -1.49003 53.5319 0.589969 53.5319 0.589969C36.5319 3.92997 27.6019 15.59 23.6719 21.2C25.4705 21.6696 27.1917 22.3971 28.7819 23.36C30.9089 24.6344 32.7478 26.3371 34.1819 28.36C36.7419 31.99 37.3119 36.52 37.8319 40.85C38.8861 50.226 40.7191 59.4981 43.3119 68.57C49.0719 49.47 55.9819 40.57 55.9819 40.57C56.7513 39.6054 57.6776 38.7772 58.7219 38.12C59.2642 37.787 59.8708 37.5723 60.5019 37.49C61.6725 37.3813 62.8456 37.6701 63.8319 38.31C64.0102 38.4287 64.1806 38.559 64.3419 38.7C65.2425 39.5033 66.0178 40.437 66.6419 41.47C68.0784 44.0422 69.3251 46.716 70.3719 49.47C72.5319 55.56 74.3719 62.99 74.3719 62.99L79.8719 84.66C83.8719 99.4 87.2619 106.57 87.2619 106.57C95.6119 125.68 108.382 131.07 108.382 131.07C114.599 134.394 121.514 136.2 128.562 136.34C135.29 136.526 141.964 135.092 148.022 132.16C154.708 128.955 160.591 124.294 165.242 118.52C168.332 114.93 172.882 106.21 172.882 106.21C177.9 96.2146 181.836 85.7117 184.622 74.88C186.414 68.137 187.849 61.3042 188.922 54.41C189.462 50.98 189.972 47.54 190.382 44.1C190.893 40.8298 190.791 37.493 190.082 34.26C189.935 33.6822 189.751 33.1143 189.532 32.56C187.928 28.5025 184.947 25.1392 181.112 23.06C178.26 21.5001 175.062 20.6817 171.812 20.68V20.68Z" fill="url(#paint27_radial)"/>
<path d="M171.812 20.68C170.224 20.6814 168.641 20.8795 167.102 21.27C170.61 26.3388 173.588 31.7537 175.992 37.43C177.282 40.3053 177.831 43.4581 177.588 46.6002C177.346 49.7423 176.32 52.7737 174.605 55.4172C172.889 58.0607 170.538 60.2322 167.767 61.7333C164.996 63.2343 161.893 64.0171 158.742 64.01C155.393 64.0134 152.104 63.1153 149.222 61.41L147.242 68.58C143.722 80.35 141.242 84.9 141.242 84.9C139.876 88.091 138.25 91.1646 136.382 94.09C135.092 96.01 133.442 97.92 131.182 98.66C130.394 98.926 129.555 99.0047 128.732 98.89C127.838 98.7867 126.976 98.4971 126.202 98.04C124.716 96.9224 123.534 95.4511 122.762 93.76C121.806 91.8826 120.948 89.9566 120.192 87.99C118.522 83.93 115.942 73.94 115.942 73.94L113.272 63.46L110.602 52.92L108.702 45.98C103.702 27.98 96.7819 19.05 96.7819 19.05C91.3376 11.2994 83.6336 5.41831 74.7219 2.20997C64.3819 -1.49003 53.5319 0.589969 53.5319 0.589969C36.5319 3.92997 27.6019 15.59 23.6719 21.2C25.4705 21.6696 27.1917 22.3971 28.7819 23.36C30.9089 24.6344 32.7478 26.3371 34.1819 28.36C36.7419 31.99 37.3119 36.52 37.8319 40.85C38.8861 50.226 40.7191 59.4981 43.3119 68.57C49.0719 49.47 55.9819 40.57 55.9819 40.57C56.7513 39.6054 57.6776 38.7772 58.7219 38.12C59.2642 37.787 59.8708 37.5723 60.5019 37.49C61.6725 37.3813 62.8456 37.6701 63.8319 38.31C64.0102 38.4287 64.1806 38.559 64.3419 38.7C65.2425 39.5033 66.0178 40.437 66.6419 41.47C68.0784 44.0422 69.3251 46.716 70.3719 49.47C72.5319 55.56 74.3719 62.99 74.3719 62.99L79.8719 84.66C83.8719 99.4 87.2619 106.57 87.2619 106.57C95.6119 125.68 108.382 131.07 108.382 131.07C114.599 134.394 121.514 136.2 128.562 136.34C135.29 136.526 141.964 135.092 148.022 132.16C154.708 128.955 160.591 124.294 165.242 118.52C168.332 114.93 172.882 106.21 172.882 106.21C177.9 96.2146 181.836 85.7117 184.622 74.88C186.414 68.137 187.849 61.3042 188.922 54.41C189.462 50.98 189.972 47.54 190.382 44.1C190.893 40.8298 190.791 37.493 190.082 34.26C189.935 33.6822 189.751 33.1143 189.532 32.56C187.928 28.5025 184.947 25.1392 181.112 23.06C178.26 21.5001 175.062 20.6817 171.812 20.68V20.68Z" fill="url(#paint28_radial)"/>
<path d="M171.812 20.68C170.224 20.6814 168.641 20.8795 167.102 21.27C170.61 26.3388 173.588 31.7537 175.992 37.43C177.282 40.3053 177.831 43.4581 177.588 46.6002C177.346 49.7423 176.32 52.7737 174.605 55.4172C172.889 58.0607 170.538 60.2322 167.767 61.7333C164.996 63.2343 161.893 64.0171 158.742 64.01C155.393 64.0134 152.104 63.1153 149.222 61.41L147.242 68.58C143.722 80.35 141.242 84.9 141.242 84.9C139.876 88.091 138.25 91.1646 136.382 94.09C135.092 96.01 133.442 97.92 131.182 98.66C130.394 98.926 129.555 99.0047 128.732 98.89C127.838 98.7867 126.976 98.4971 126.202 98.04C124.716 96.9224 123.534 95.4511 122.762 93.76C121.806 91.8826 120.948 89.9566 120.192 87.99C118.522 83.93 115.942 73.94 115.942 73.94L113.272 63.46L110.602 52.92L108.702 45.98C103.702 27.98 96.7819 19.05 96.7819 19.05C91.3376 11.2994 83.6336 5.41831 74.7219 2.20997C64.3819 -1.49003 53.5319 0.589969 53.5319 0.589969C36.5319 3.92997 27.6019 15.59 23.6719 21.2C25.4705 21.6696 27.1917 22.3971 28.7819 23.36C30.9089 24.6344 32.7478 26.3371 34.1819 28.36C36.7419 31.99 37.3119 36.52 37.8319 40.85C38.8861 50.226 40.7191 59.4981 43.3119 68.57C49.0719 49.47 55.9819 40.57 55.9819 40.57C56.7513 39.6054 57.6776 38.7772 58.7219 38.12C59.2642 37.787 59.8708 37.5723 60.5019 37.49C61.6725 37.3813 62.8456 37.6701 63.8319 38.31C64.0102 38.4287 64.1806 38.559 64.3419 38.7C65.2425 39.5033 66.0178 40.437 66.6419 41.47C68.0784 44.0422 69.3251 46.716 70.3719 49.47C72.5319 55.56 74.3719 62.99 74.3719 62.99L79.8719 84.66C83.8719 99.4 87.2619 106.57 87.2619 106.57C95.6119 125.68 108.382 131.07 108.382 131.07C114.599 134.394 121.514 136.2 128.562 136.34C135.29 136.526 141.964 135.092 148.022 132.16C154.708 128.955 160.591 124.294 165.242 118.52C168.332 114.93 172.882 106.21 172.882 106.21C177.9 96.2146 181.836 85.7117 184.622 74.88C186.414 68.137 187.849 61.3042 188.922 54.41C189.462 50.98 189.972 47.54 190.382 44.1C190.893 40.8298 190.791 37.493 190.082 34.26C189.935 33.6822 189.751 33.1143 189.532 32.56C187.928 28.5025 184.947 25.1392 181.112 23.06C178.26 21.5001 175.062 20.6817 171.812 20.68V20.68Z" fill="url(#paint29_radial)"/>
<path d="M171.812 20.68C170.224 20.6814 168.641 20.8795 167.102 21.27C170.61 26.3388 173.588 31.7537 175.992 37.43C177.282 40.3053 177.831 43.4581 177.588 46.6002C177.346 49.7423 176.32 52.7737 174.605 55.4172C172.889 58.0607 170.538 60.2322 167.767 61.7333C164.996 63.2343 161.893 64.0171 158.742 64.01C155.393 64.0134 152.104 63.1153 149.222 61.41L147.242 68.58C143.722 80.35 141.242 84.9 141.242 84.9C139.876 88.091 138.25 91.1646 136.382 94.09C135.092 96.01 133.442 97.92 131.182 98.66C130.394 98.926 129.555 99.0047 128.732 98.89C127.838 98.7867 126.976 98.4971 126.202 98.04C124.716 96.9224 123.534 95.4511 122.762 93.76C121.806 91.8826 120.948 89.9566 120.192 87.99C118.522 83.93 115.942 73.94 115.942 73.94L113.272 63.46L110.602 52.92L108.702 45.98C103.702 27.98 96.7819 19.05 96.7819 19.05C91.3376 11.2994 83.6336 5.41831 74.7219 2.20997C64.3819 -1.49003 53.5319 0.589969 53.5319 0.589969C36.5319 3.92997 27.6019 15.59 23.6719 21.2C25.4705 21.6696 27.1917 22.3971 28.7819 23.36C30.9089 24.6344 32.7478 26.3371 34.1819 28.36C36.7419 31.99 37.3119 36.52 37.8319 40.85C38.8861 50.226 40.7191 59.4981 43.3119 68.57C49.0719 49.47 55.9819 40.57 55.9819 40.57C56.7513 39.6054 57.6776 38.7772 58.7219 38.12C59.2642 37.787 59.8708 37.5723 60.5019 37.49C61.6725 37.3813 62.8456 37.6701 63.8319 38.31C64.0102 38.4287 64.1806 38.559 64.3419 38.7C65.2425 39.5033 66.0178 40.437 66.6419 41.47C68.0784 44.0422 69.3251 46.716 70.3719 49.47C72.5319 55.56 74.3719 62.99 74.3719 62.99L79.8719 84.66C83.8719 99.4 87.2619 106.57 87.2619 106.57C95.6119 125.68 108.382 131.07 108.382 131.07C114.599 134.394 121.514 136.2 128.562 136.34C135.29 136.526 141.964 135.092 148.022 132.16C154.708 128.955 160.591 124.294 165.242 118.52C168.332 114.93 172.882 106.21 172.882 106.21C177.9 96.2146 181.836 85.7117 184.622 74.88C186.414 68.137 187.849 61.3042 188.922 54.41C189.462 50.98 189.972 47.54 190.382 44.1C190.893 40.8298 190.791 37.493 190.082 34.26C189.935 33.6822 189.751 33.1143 189.532 32.56C187.928 28.5025 184.947 25.1392 181.112 23.06C178.26 21.5001 175.062 20.6817 171.812 20.68V20.68Z" fill="url(#paint30_radial)"/>
<path d="M171.812 20.68C170.224 20.6814 168.641 20.8795 167.102 21.27C170.61 26.3388 173.588 31.7537 175.992 37.43C177.282 40.3053 177.831 43.4581 177.588 46.6002C177.346 49.7423 176.32 52.7737 174.605 55.4172C172.889 58.0607 170.538 60.2322 167.767 61.7333C164.996 63.2343 161.893 64.0171 158.742 64.01C155.393 64.0134 152.104 63.1153 149.222 61.41L147.242 68.58C143.722 80.35 141.242 84.9 141.242 84.9C139.876 88.091 138.25 91.1646 136.382 94.09C135.092 96.01 133.442 97.92 131.182 98.66C130.394 98.926 129.555 99.0047 128.732 98.89C127.838 98.7867 126.976 98.4971 126.202 98.04C124.716 96.9224 123.534 95.4511 122.762 93.76C121.806 91.8826 120.948 89.9566 120.192 87.99C118.522 83.93 115.942 73.94 115.942 73.94L113.272 63.46L110.602 52.92L108.702 45.98C103.702 27.98 96.7819 19.05 96.7819 19.05C91.3376 11.2994 83.6336 5.41831 74.7219 2.20997C64.3819 -1.49003 53.5319 0.589969 53.5319 0.589969C36.5319 3.92997 27.6019 15.59 23.6719 21.2C25.4705 21.6696 27.1917 22.3971 28.7819 23.36C30.9089 24.6344 32.7478 26.3371 34.1819 28.36C36.7419 31.99 37.3119 36.52 37.8319 40.85C38.8861 50.226 40.7191 59.4981 43.3119 68.57C49.0719 49.47 55.9819 40.57 55.9819 40.57C56.7513 39.6054 57.6776 38.7772 58.7219 38.12C59.2642 37.787 59.8708 37.5723 60.5019 37.49C61.6725 37.3813 62.8456 37.6701 63.8319 38.31C64.0102 38.4287 64.1806 38.559 64.3419 38.7C65.2425 39.5033 66.0178 40.437 66.6419 41.47C68.0784 44.0422 69.3251 46.716 70.3719 49.47C72.5319 55.56 74.3719 62.99 74.3719 62.99L79.8719 84.66C83.8719 99.4 87.2619 106.57 87.2619 106.57C95.6119 125.68 108.382 131.07 108.382 131.07C114.599 134.394 121.514 136.2 128.562 136.34C135.29 136.526 141.964 135.092 148.022 132.16C154.708 128.955 160.591 124.294 165.242 118.52C168.332 114.93 172.882 106.21 172.882 106.21C177.9 96.2146 181.836 85.7117 184.622 74.88C186.414 68.137 187.849 61.3042 188.922 54.41C189.462 50.98 189.972 47.54 190.382 44.1C190.893 40.8298 190.791 37.493 190.082 34.26C189.935 33.6822 189.751 33.1143 189.532 32.56C187.928 28.5025 184.947 25.1392 181.112 23.06C178.26 21.5001 175.062 20.6817 171.812 20.68V20.68Z" fill="url(#paint31_radial)"/>
<path d="M171.812 20.68C170.224 20.6814 168.641 20.8795 167.102 21.27C170.61 26.3388 173.588 31.7537 175.992 37.43C177.282 40.3053 177.831 43.4581 177.588 46.6002C177.346 49.7423 176.32 52.7737 174.605 55.4172C172.889 58.0607 170.538 60.2322 167.767 61.7333C164.996 63.2343 161.893 64.0171 158.742 64.01C155.393 64.0134 152.104 63.1153 149.222 61.41L147.242 68.58C143.722 80.35 141.242 84.9 141.242 84.9C139.876 88.091 138.25 91.1646 136.382 94.09C135.092 96.01 133.442 97.92 131.182 98.66C130.394 98.926 129.555 99.0047 128.732 98.89C127.838 98.7867 126.976 98.4971 126.202 98.04C124.716 96.9224 123.534 95.4511 122.762 93.76C121.806 91.8826 120.948 89.9566 120.192 87.99C118.522 83.93 115.942 73.94 115.942 73.94L113.272 63.46L110.602 52.92L108.702 45.98C103.702 27.98 96.7819 19.05 96.7819 19.05C91.3376 11.2994 83.6336 5.41831 74.7219 2.20997C64.3819 -1.49003 53.5319 0.589969 53.5319 0.589969C36.5319 3.92997 27.6019 15.59 23.6719 21.2C25.4705 21.6696 27.1917 22.3971 28.7819 23.36C30.9089 24.6344 32.7478 26.3371 34.1819 28.36C36.7419 31.99 37.3119 36.52 37.8319 40.85C38.8861 50.226 40.7191 59.4981 43.3119 68.57C49.0719 49.47 55.9819 40.57 55.9819 40.57C56.7513 39.6054 57.6776 38.7772 58.7219 38.12C59.2642 37.787 59.8708 37.5723 60.5019 37.49C61.6725 37.3813 62.8456 37.6701 63.8319 38.31C64.0102 38.4287 64.1806 38.559 64.3419 38.7C65.2425 39.5033 66.0178 40.437 66.6419 41.47C68.0784 44.0422 69.3251 46.716 70.3719 49.47C72.5319 55.56 74.3719 62.99 74.3719 62.99L79.8719 84.66C83.8719 99.4 87.2619 106.57 87.2619 106.57C95.6119 125.68 108.382 131.07 108.382 131.07C114.599 134.394 121.514 136.2 128.562 136.34C135.29 136.526 141.964 135.092 148.022 132.16C154.708 128.955 160.591 124.294 165.242 118.52C168.332 114.93 172.882 106.21 172.882 106.21C177.9 96.2146 181.836 85.7117 184.622 74.88C186.414 68.137 187.849 61.3042 188.922 54.41C189.462 50.98 189.972 47.54 190.382 44.1C190.893 40.8298 190.791 37.493 190.082 34.26C189.935 33.6822 189.751 33.1143 189.532 32.56C187.928 28.5025 184.947 25.1392 181.112 23.06C178.26 21.5001 175.062 20.6817 171.812 20.68V20.68Z" fill="url(#paint32_radial)"/>
<path d="M171.812 20.68C170.224 20.6814 168.641 20.8795 167.102 21.27C170.61 26.3388 173.588 31.7537 175.992 37.43C177.282 40.3053 177.831 43.4581 177.588 46.6002C177.346 49.7423 176.32 52.7737 174.605 55.4172C172.889 58.0607 170.538 60.2322 167.767 61.7333C164.996 63.2343 161.893 64.0171 158.742 64.01C155.393 64.0134 152.104 63.1153 149.222 61.41L147.242 68.58C143.722 80.35 141.242 84.9 141.242 84.9C139.876 88.091 138.25 91.1646 136.382 94.09C135.092 96.01 133.442 97.92 131.182 98.66C130.394 98.926 129.555 99.0047 128.732 98.89C127.838 98.7867 126.976 98.4971 126.202 98.04C124.716 96.9224 123.534 95.4511 122.762 93.76C121.806 91.8826 120.948 89.9566 120.192 87.99C118.522 83.93 115.942 73.94 115.942 73.94L113.272 63.46L110.602 52.92L108.702 45.98C103.702 27.98 96.7819 19.05 96.7819 19.05C91.3376 11.2994 83.6336 5.41831 74.7219 2.20997C64.3819 -1.49003 53.5319 0.589969 53.5319 0.589969C36.5319 3.92997 27.6019 15.59 23.6719 21.2C25.4705 21.6696 27.1917 22.3971 28.7819 23.36C30.9089 24.6344 32.7478 26.3371 34.1819 28.36C36.7419 31.99 37.3119 36.52 37.8319 40.85C38.8861 50.226 40.7191 59.4981 43.3119 68.57C49.0719 49.47 55.9819 40.57 55.9819 40.57C56.7513 39.6054 57.6776 38.7772 58.7219 38.12C59.2642 37.787 59.8708 37.5723 60.5019 37.49C61.6725 37.3813 62.8456 37.6701 63.8319 38.31C64.0102 38.4287 64.1806 38.559 64.3419 38.7C65.2425 39.5033 66.0178 40.437 66.6419 41.47C68.0784 44.0422 69.3251 46.716 70.3719 49.47C72.5319 55.56 74.3719 62.99 74.3719 62.99L79.8719 84.66C83.8719 99.4 87.2619 106.57 87.2619 106.57C95.6119 125.68 108.382 131.07 108.382 131.07C114.599 134.394 121.514 136.2 128.562 136.34C135.29 136.526 141.964 135.092 148.022 132.16C154.708 128.955 160.591 124.294 165.242 118.52C168.332 114.93 172.882 106.21 172.882 106.21C177.9 96.2146 181.836 85.7117 184.622 74.88C186.414 68.137 187.849 61.3042 188.922 54.41C189.462 50.98 189.972 47.54 190.382 44.1C190.893 40.8298 190.791 37.493 190.082 34.26C189.935 33.6822 189.751 33.1143 189.532 32.56C187.928 28.5025 184.947 25.1392 181.112 23.06C178.26 21.5001 175.062 20.6817 171.812 20.68V20.68Z" fill="url(#paint33_linear)"/>
<path d="M95.2383 17.1899C99.2348 11.867 104.416 7.54788 110.371 4.57461C116.326 1.60133 122.892 0.0556114 129.548 0.0598813C139.133 0.000872626 148.453 3.21068 155.968 9.15988C168.548 18.6799 176.038 37.4299 176.038 37.4299C177.901 41.5857 178.196 46.2751 176.871 50.632C175.545 54.989 172.688 58.7191 168.827 61.1337C164.966 63.5482 160.361 64.484 155.863 63.7683C151.366 63.0526 147.279 60.7337 144.358 57.2399L144.178 57.0299C142.968 55.3941 141.961 53.6178 141.178 51.7399C140.137 49.3885 138.975 47.0922 137.698 44.8599C137.018 43.7099 136.258 42.6199 135.468 41.5399C134.8 40.5724 134.007 39.698 133.108 38.9399C131.338 37.5099 129.108 36.9399 127.028 38.1699L126.738 38.3599C124.598 39.8399 123.098 42.7999 122.058 45.0799L95.2383 17.1899Z" fill="url(#paint34_linear)"/>
<path d="M95.2383 17.1899C99.2348 11.867 104.416 7.54788 110.371 4.57461C116.326 1.60133 122.892 0.0556114 129.548 0.0598813C139.133 0.000872626 148.453 3.21068 155.968 9.15988C168.548 18.6799 176.038 37.4299 176.038 37.4299C177.901 41.5857 178.196 46.2751 176.871 50.632C175.545 54.989 172.688 58.7191 168.827 61.1337C164.966 63.5482 160.361 64.484 155.863 63.7683C151.366 63.0526 147.279 60.7337 144.358 57.2399L144.178 57.0299C142.968 55.3941 141.961 53.6178 141.178 51.7399C140.137 49.3885 138.975 47.0922 137.698 44.8599C137.018 43.7099 136.258 42.6199 135.468 41.5399C134.8 40.5724 134.007 39.698 133.108 38.9399C131.338 37.5099 129.108 36.9399 127.028 38.1699L126.738 38.3599C124.598 39.8399 123.098 42.7999 122.058 45.0799L95.2383 17.1899Z" fill="url(#paint35_linear)"/>
</g>
<defs>
<linearGradient id="paint0_linear" x1="8.56813" y1="92.1299" x2="156.808" y2="32.2099" gradientUnits="userSpaceOnUse">
<stop stop-color="#686968"/>
<stop offset="0.34" stop-color="#1F1F1F"/>
<stop offset="0.45" stop-color="#1C1C1C"/>
<stop offset="0.52" stop-color="#141414"/>
<stop offset="0.59" stop-color="#050605"/>
<stop offset="0.6" stop-color="#010201"/>
<stop offset="0.7" stop-color="#1C1D1C"/>
<stop offset="0.9" stop-color="#4E4F4E"/>
<stop offset="1" stop-color="#616261"/>
</linearGradient>
<radialGradient id="paint1_radial" cx="0" cy="0" r="1" gradientUnits="userSpaceOnUse" gradientTransform="translate(108.542 56.5372) rotate(74.32) scale(70.85 53.846)">
<stop stop-color="#020202"/>
<stop offset="0.78" stop-color="#020202" stop-opacity="0"/>
</radialGradient>
<radialGradient id="paint2_radial" cx="0" cy="0" r="1" gradientUnits="userSpaceOnUse" gradientTransform="translate(118.795 54.4277) rotate(91.1458) scale(47.9096 36.4063)">
<stop stop-color="#020202"/>
<stop offset="0.92" stop-color="#020202" stop-opacity="0"/>
</radialGradient>
<radialGradient id="paint3_radial" cx="0" cy="0" r="1" gradientUnits="userSpaceOnUse" gradientTransform="translate(117.488 53.7333) rotate(88.6) scale(44.66 31.7086)">
<stop stop-color="#020202"/>
<stop offset="0.92" stop-color="#020202" stop-opacity="0"/>
</radialGradient>
<radialGradient id="paint4_radial" cx="0" cy="0" r="1" gradientUnits="userSpaceOnUse" gradientTransform="translate(-11308 34951.5) rotate(88.6) scale(6404.59 3490.94)">
<stop stop-color="#020202"/>
<stop offset="0.92" stop-color="#020202" stop-opacity="0"/>
</radialGradient>
<radialGradient id="paint5_radial" cx="0" cy="0" r="1" gradientUnits="userSpaceOnUse" gradientTransform="translate(118.728 53.7418) rotate(88.6) scale(28.76 18.4064)">
<stop stop-color="#020202"/>
<stop offset="1" stop-color="#020202" stop-opacity="0"/>
</radialGradient>
<radialGradient id="paint6_radial" cx="0" cy="0" r="1" gradientUnits="userSpaceOnUse" gradientTransform="translate(122.518 56.8887) rotate(23.8) scale(46.28 34.71)">
<stop stop-color="#020202"/>
<stop offset="0.9" stop-color="#020202" stop-opacity="0"/>
</radialGradient>
<radialGradient id="paint7_radial" cx="0" cy="0" r="1" gradientUnits="userSpaceOnUse" gradientTransform="translate(108.523 -12.2035) rotate(35.2724) scale(61.7198 56.4337)">
<stop stop-color="#3A3A3A"/>
<stop offset="0.4" stop-color="#3A3A3A" stop-opacity="0.44"/>
<stop offset="0.76" stop-color="#3A3A3A" stop-opacity="0"/>
</radialGradient>
<radialGradient id="paint8_radial" cx="0" cy="0" r="1" gradientUnits="userSpaceOnUse" gradientTransform="translate(77.7411 -17.4487) rotate(35.2724) scale(61.7198 56.4337)">
<stop stop-color="#373837"/>
<stop offset="0.39" stop-color="#373837" stop-opacity="0.45"/>
<stop offset="0.76" stop-color="#373837" stop-opacity="0"/>
</radialGradient>
<radialGradient id="paint9_radial" cx="0" cy="0" r="1" gradientUnits="userSpaceOnUse" gradientTransform="translate(133.104 68.6183) rotate(101.15) scale(54.53 67.0719)">
<stop stop-color="#020202"/>
<stop offset="0.56" stop-color="#020202" stop-opacity="0"/>
</radialGradient>
<radialGradient id="paint10_radial" cx="0" cy="0" r="1" gradientUnits="userSpaceOnUse" gradientTransform="translate(100.917 71.9787) rotate(-51.0725) scale(71.3182 76.873)">
<stop stop-color="#020202"/>
<stop offset="0.65" stop-color="#020202" stop-opacity="0"/>
</radialGradient>
<radialGradient id="paint11_radial" cx="0" cy="0" r="1" gradientUnits="userSpaceOnUse" gradientTransform="translate(95.3196 78.6781) rotate(-31.66) scale(69.39 54.8181)">
<stop offset="0.05" stop-color="#020202"/>
<stop offset="0.6" stop-color="#020202" stop-opacity="0"/>
</radialGradient>
<radialGradient id="paint12_radial" cx="0" cy="0" r="1" gradientUnits="userSpaceOnUse" gradientTransform="translate(78.7191 81.4993) rotate(-130.539) scale(41.3421 32.5536)">
<stop offset="0.26" stop-color="#020202"/>
<stop offset="1" stop-color="#020202" stop-opacity="0"/>
</radialGradient>
<radialGradient id="paint13_radial" cx="0" cy="0" r="1" gradientUnits="userSpaceOnUse" gradientTransform="translate(71.2939 93.5627) rotate(-173.11) scale(38.78)">
<stop stop-color="#020202"/>
<stop offset="0.66" stop-color="#020202" stop-opacity="0"/>
</radialGradient>
<radialGradient id="paint14_radial" cx="0" cy="0" r="1" gradientUnits="userSpaceOnUse" gradientTransform="translate(70.9597 97.2167) rotate(-119.389) scale(27.0793 22.7064)">
<stop offset="0.13" stop-color="#020202"/>
<stop offset="0.95" stop-color="#020202" stop-opacity="0"/>
</radialGradient>
<radialGradient id="paint15_radial" cx="0" cy="0" r="1" gradientUnits="userSpaceOnUse" gradientTransform="translate(29000.3 -11941.4) rotate(-56.2) scale(4525.48 2744.63)">
<stop stop-color="#020202"/>
<stop offset="1" stop-color="#020202" stop-opacity="0"/>
</radialGradient>
<linearGradient id="paint16_linear" x1="18.1181" y1="-3.10012" x2="83.5181" y2="57.4299" gradientUnits="userSpaceOnUse">
<stop stop-color="#A3A3A3" stop-opacity="0.7"/>
<stop offset="0.23" stop-color="#A3A3A3" stop-opacity="0.36"/>
<stop offset="0.44" stop-color="#A3A3A3" stop-opacity="0.1"/>
<stop offset="0.54" stop-color="#A3A3A3" stop-opacity="0"/>
</linearGradient>
<linearGradient id="paint17_linear" x1="83.1381" y1="48.5999" x2="131.298" y2="127.16" gradientUnits="userSpaceOnUse">
<stop offset="0.62" stop-color="#333334" stop-opacity="0"/>
<stop offset="0.76" stop-color="#333334" stop-opacity="0.32"/>
<stop offset="1" stop-color="#333334"/>
</linearGradient>
<linearGradient id="paint18_linear" x1="1.31813" y1="93.0199" x2="87.4281" y2="62.3299" gradientUnits="userSpaceOnUse">
<stop stop-color="#676767"/>
<stop offset="0.14" stop-color="#676767" stop-opacity="0.57"/>
<stop offset="0.3" stop-color="#676767" stop-opacity="0.16"/>
<stop offset="0.38" stop-color="#676767" stop-opacity="0"/>
</linearGradient>
<linearGradient id="paint19_linear" x1="-18.9219" y1="95.6899" x2="57.4781" y2="74.0199" gradientUnits="userSpaceOnUse">
<stop stop-color="#A3A3A3"/>
<stop offset="0.1" stop-color="#A3A3A3" stop-opacity="0.79"/>
<stop offset="0.32" stop-color="#A3A3A3" stop-opacity="0.36"/>
<stop offset="0.47" stop-color="#A3A3A3" stop-opacity="0.1"/>
<stop offset="0.55" stop-color="#A3A3A3" stop-opacity="0"/>
</linearGradient>
<linearGradient id="paint20_linear" x1="31.0519" y1="39.65" x2="190.482" y2="92.43" gradientUnits="userSpaceOnUse">
<stop stop-color="#454444"/>
<stop offset="0.04" stop-color="#4C4B4C"/>
<stop offset="0.15" stop-color="#595859"/>
<stop offset="0.25" stop-color="#5D5C5D"/>
<stop offset="0.43" stop-color="#4B4A4A"/>
<stop offset="0.59" stop-color="#414040"/>
<stop offset="0.73" stop-color="#454545"/>
<stop offset="1" stop-color="#6B6B6B"/>
</linearGradient>
<radialGradient id="paint21_radial" cx="0" cy="0" r="1" gradientUnits="userSpaceOnUse" gradientTransform="translate(142.796 63.5924) rotate(98.69) scale(85.26 56.2716)">
<stop stop-color="#020202"/>
<stop offset="0.71" stop-color="#020202" stop-opacity="0"/>
</radialGradient>
<radialGradient id="paint22_radial" cx="0" cy="0" r="1" gradientUnits="userSpaceOnUse" gradientTransform="translate(145.612 68.6375) rotate(98.69) scale(62.83 41.4678)">
<stop stop-color="#020202"/>
<stop offset="0.7" stop-color="#020202" stop-opacity="0"/>
</radialGradient>
<radialGradient id="paint23_radial" cx="0" cy="0" r="1" gradientUnits="userSpaceOnUse" gradientTransform="translate(-14271.2 34411.9) rotate(98.6156) scale(12498.4 5159.29)">
<stop stop-color="#020202"/>
<stop offset="0.7" stop-color="#020202" stop-opacity="0"/>
</radialGradient>
<radialGradient id="paint24_radial" cx="0" cy="0" r="1" gradientUnits="userSpaceOnUse" gradientTransform="translate(130.947 60.0824) rotate(82.95) scale(74.73 52.311)">
<stop stop-color="#020202" stop-opacity="0.8"/>
<stop offset="0.7" stop-color="#020202" stop-opacity="0"/>
</radialGradient>
<radialGradient id="paint25_radial" cx="0" cy="0" r="1" gradientUnits="userSpaceOnUse" gradientTransform="translate(-3142.43 39581.8) rotate(74.64) scale(11962.7 6640.4)">
<stop stop-color="#020202"/>
<stop offset="0.7" stop-color="#020202" stop-opacity="0"/>
</radialGradient>
<radialGradient id="paint26_radial" cx="0" cy="0" r="1" gradientUnits="userSpaceOnUse" gradientTransform="translate(138.936 91.1458) rotate(74.64) scale(33.3 31.635)">
<stop stop-color="#020202"/>
<stop offset="0.7" stop-color="#020202" stop-opacity="0"/>
</radialGradient>
<radialGradient id="paint27_radial" cx="0" cy="0" r="1" gradientUnits="userSpaceOnUse" gradientTransform="translate(-11691.4 40921.9) rotate(74.64) scale(5562.1 4313.39)">
<stop stop-color="#020202" stop-opacity="0.8"/>
<stop offset="0.7" stop-color="#020202" stop-opacity="0"/>
</radialGradient>
<radialGradient id="paint28_radial" cx="0" cy="0" r="1" gradientUnits="userSpaceOnUse" gradientTransform="translate(52.648 77.3915) rotate(66.83) scale(79.53 52.4898)">
<stop stop-color="#020202"/>
<stop offset="0.4" stop-color="#020202" stop-opacity="0.56"/>
<stop offset="0.79" stop-color="#020202" stop-opacity="0"/>
</radialGradient>
<radialGradient id="paint29_radial" cx="0" cy="0" r="1" gradientUnits="userSpaceOnUse" gradientTransform="translate(-6447.9 23468.9) rotate(75.9) scale(9853.11 5308.52)">
<stop stop-color="#020202"/>
<stop offset="1" stop-color="#020202" stop-opacity="0"/>
</radialGradient>
<radialGradient id="paint30_radial" cx="0" cy="0" r="1" gradientUnits="userSpaceOnUse" gradientTransform="translate(48.6657 58.3918) rotate(75.9) scale(58.99 38.9334)">
<stop stop-color="#020202"/>
<stop offset="0.01" stop-color="#020202" stop-opacity="0.95"/>
<stop offset="1" stop-color="#020202" stop-opacity="0"/>
</radialGradient>
<radialGradient id="paint31_radial" cx="0" cy="0" r="1" gradientUnits="userSpaceOnUse" gradientTransform="translate(50.916 52.6285) rotate(75.9) scale(45.13 29.7858)">
<stop stop-color="#020202"/>
<stop offset="0.01" stop-color="#020202" stop-opacity="0.94"/>
<stop offset="1" stop-color="#020202" stop-opacity="0"/>
</radialGradient>
<radialGradient id="paint32_radial" cx="0" cy="0" r="1" gradientUnits="userSpaceOnUse" gradientTransform="translate(53.247 59.6821) rotate(86.95) scale(35.59 31.6751)">
<stop offset="0.04" stop-color="#020202" stop-opacity="0.6"/>
<stop offset="0.73" stop-color="#020202" stop-opacity="0"/>
</radialGradient>
<linearGradient id="paint33_linear" x1="134.642" y1="-25.44" x2="94.3719" y2="74.09" gradientUnits="userSpaceOnUse">
<stop stop-color="#7D7D7D"/>
<stop offset="0.1" stop-color="#7D7D7D" stop-opacity="0.81"/>
<stop offset="0.31" stop-color="#7D7D7D" stop-opacity="0.32"/>
<stop offset="0.43" stop-color="#7D7D7D" stop-opacity="0"/>
</linearGradient>
<linearGradient id="paint34_linear" x1="137.848" y1="36.9799" x2="145.048" y2="71.2299" gradientUnits="userSpaceOnUse">
<stop offset="0.33" stop-color="#2E2E2E" stop-opacity="0"/>
<stop offset="0.49" stop-color="#2E2E2E" stop-opacity="0.13"/>
<stop offset="0.71" stop-color="#2E2E2E" stop-opacity="0.5"/>
<stop offset="0.92" stop-color="#2E2E2E"/>
</linearGradient>
<linearGradient id="paint35_linear" x1="149.508" y1="31.0399" x2="175.638" y2="26.9299" gradientUnits="userSpaceOnUse">
<stop offset="0.19" stop-color="#7F7F80" stop-opacity="0"/>
<stop offset="0.34" stop-color="#7F7F80" stop-opacity="0.14"/>
<stop offset="0.64" stop-color="#7F7F80" stop-opacity="0.5"/>
<stop offset="1" stop-color="#7F7F80"/>
</linearGradient>
<clipPath id="clip0">
<rect width="762.31" height="209.93" fill="white"/>
</clipPath>
</defs>
</svg>
