<svg width="529" height="387" viewBox="0 0 529 387" fill="none" xmlns="http://www.w3.org/2000/svg">
<g clip-path="url(#clip0)">
<path d="M128.4 214.41H148.6L119.23 303.16H96.07L74.07 236.16L52.07 303.16H29.36L0 214.41H20.66L41.5 281.85L63.36 214.41H85.36L107.5 282.22L128.4 214.41Z" fill="white"/>
<path d="M235.202 265.92H169.732C170.335 270.495 172.052 274.853 174.732 278.61C177.114 281.893 180.327 284.481 184.042 286.11C187.83 287.743 191.917 288.564 196.042 288.52C200.615 288.501 205.148 287.671 209.432 286.07C213.872 284.451 218.02 282.121 221.712 279.17L231.342 292.97C226.426 297.26 220.7 300.521 214.502 302.56C208.131 304.554 201.487 305.54 194.812 305.48C186.598 305.634 178.486 303.638 171.282 299.69C164.465 295.872 158.885 290.181 155.202 283.29C151.342 276.217 149.412 268.05 149.412 258.79C149.249 250.345 151.176 241.99 155.022 234.47C158.559 227.606 163.972 221.888 170.632 217.98C177.622 213.965 185.573 211.929 193.632 212.09C201.241 211.892 208.747 213.894 215.247 217.855C221.748 221.815 226.968 227.567 230.282 234.42C233.946 241.977 235.769 250.293 235.602 258.69C235.572 260.56 235.452 262.95 235.202 265.92ZM215.732 251.19C214.685 244.27 212.199 238.897 208.272 235.07C204.345 231.243 199.325 229.327 193.212 229.32C186.599 229.32 181.305 231.283 177.332 235.21C173.359 239.137 170.809 244.47 169.682 251.21L215.732 251.19Z" fill="white"/>
<path d="M318.069 218.11C324.811 222.123 330.34 227.887 334.069 234.79C337.934 242.2 339.952 250.433 339.952 258.79C339.952 267.147 337.934 275.38 334.069 282.79C330.331 289.722 324.77 295.501 317.986 299.502C311.203 303.503 303.454 305.573 295.579 305.49C290.058 305.597 284.585 304.441 279.579 302.11C274.982 299.883 270.956 296.633 267.809 292.61V303.16H248.449V176.62H267.809V224.97C270.956 220.947 274.982 217.697 279.579 215.47C284.585 213.139 290.058 211.983 295.579 212.09C303.485 212.001 311.265 214.084 318.069 218.11ZM307.459 283.43C311.49 280.955 314.735 277.387 316.819 273.14C318.952 268.655 320.059 263.751 320.059 258.785C320.059 253.819 318.952 248.915 316.819 244.43C314.733 240.186 311.488 236.618 307.459 234.14C303.192 231.666 298.349 230.356 293.416 230.34C288.483 230.324 283.633 231.603 279.349 234.05C275.315 236.505 272.043 240.033 269.899 244.24C267.669 248.764 266.509 253.741 266.509 258.785C266.509 263.829 267.669 268.806 269.899 273.33C272.037 277.552 275.31 281.095 279.349 283.56C283.633 286.007 288.483 287.286 293.416 287.27C298.349 287.255 303.192 285.944 307.459 283.47V283.43Z" fill="white"/>
<path d="M435.96 265.92H370.46C371.067 270.494 372.784 274.851 375.46 278.61C377.844 281.89 381.057 284.479 384.77 286.11C388.543 287.749 392.616 288.583 396.73 288.56C401.303 288.541 405.836 287.711 410.12 286.11C414.557 284.491 418.701 282.161 422.39 279.21L432.03 293.01C427.127 297.278 421.423 300.525 415.25 302.56C408.882 304.556 402.242 305.541 395.57 305.48C387.352 305.635 379.237 303.639 372.03 299.69C365.218 295.869 359.641 290.178 355.96 283.29C352.1 276.217 350.17 268.05 350.17 258.79C350.008 250.346 351.931 241.993 355.77 234.47C359.313 227.608 364.729 221.89 371.39 217.98C378.379 213.964 386.33 211.928 394.39 212.09C402.074 211.944 409.642 213.987 416.21 217.98C422.595 221.96 427.731 227.658 431.03 234.42C434.697 241.976 436.524 250.293 436.36 258.69C436.33 260.56 436.2 262.95 435.96 265.92ZM416.5 251.19C415.453 244.27 412.97 238.897 409.05 235.07C405.13 231.243 400.11 229.327 393.99 229.32C387.376 229.32 382.08 231.283 378.1 235.21C374.12 239.137 371.573 244.47 370.46 251.21L416.5 251.19Z" fill="white"/>
<path d="M528.321 303.16H504.511L482.001 272.31L459.731 303.16H437.031L470.471 257.86L437.631 214.41H461.431L483.111 244.05L504.791 214.41H527.731L494.931 257.67L528.321 303.16Z" fill="white"/>
<path d="M153.258 376.65H149.328V340.88H154.098V354.39C155.051 352.993 156.345 351.863 157.857 351.107C159.369 350.351 161.049 349.994 162.738 350.07C164.395 349.992 166.047 350.315 167.552 351.012C169.058 351.708 170.374 352.757 171.388 354.07C173.208 356.457 174.118 359.62 174.118 363.56C174.118 368.227 172.878 371.803 170.398 374.29C169.348 375.329 168.097 376.143 166.721 376.681C165.346 377.219 163.874 377.471 162.398 377.42C160.758 377.504 159.123 377.165 157.652 376.434C156.181 375.704 154.923 374.607 153.998 373.25L153.258 376.65ZM169.148 363.43C169.148 360.19 168.338 357.75 166.718 356.13C166.057 355.464 165.266 354.942 164.393 354.598C163.52 354.254 162.586 354.094 161.648 354.13C160.548 354.086 159.453 354.302 158.452 354.761C157.451 355.22 156.573 355.908 155.888 356.77C154.471 358.688 153.764 361.038 153.888 363.42C153.888 366.753 154.701 369.287 156.328 371.02C156.996 371.775 157.823 372.372 158.75 372.768C159.677 373.164 160.681 373.349 161.688 373.31C162.787 373.37 163.883 373.152 164.874 372.674C165.866 372.197 166.72 371.476 167.358 370.58C168.551 368.9 169.148 366.517 169.148 363.43V363.43Z" fill="white"/>
<path d="M199.659 350.82L190.659 377C189.459 380.473 188.316 382.84 187.229 384.1C186.616 384.824 185.849 385.4 184.983 385.788C184.118 386.176 183.177 386.364 182.229 386.34C181.188 386.315 180.154 386.164 179.149 385.89V382.01C179.958 382.23 180.791 382.348 181.629 382.36C182.084 382.384 182.537 382.3 182.953 382.114C183.369 381.927 183.734 381.645 184.019 381.29C184.931 379.843 185.65 378.283 186.159 376.65H184.609L175.129 350.82H180.289L187.599 372.77L194.899 350.82H199.659Z" fill="white"/>
<path d="M265.25 340.93H256.25V376.77H265.25V340.93Z" fill="white"/>
<path d="M338.182 351.2C335.852 349.926 333.237 349.265 330.582 349.28C324.732 349.28 320.672 353.35 320.672 358.84C320.672 364.17 324.562 368.41 330.582 368.41C333.234 368.425 335.848 367.771 338.182 366.51V376.13C335.509 376.958 332.729 377.389 329.932 377.41C319.772 377.41 310.852 370.41 310.852 358.84C310.852 348.14 318.932 340.29 329.932 340.29C332.732 340.293 335.514 340.728 338.182 341.58V351.2Z" fill="white"/>
<path d="M243.731 351.2C241.401 349.927 238.786 349.267 236.131 349.28C230.271 349.28 226.221 353.35 226.221 358.84C226.221 364.17 230.101 368.41 236.131 368.41C238.779 368.438 241.392 367.802 243.731 366.56V376.18C241.058 377.008 238.278 377.439 235.481 377.46C225.311 377.46 216.391 370.46 216.391 358.89C216.391 348.19 224.471 340.34 235.481 340.34C238.277 340.32 241.06 340.731 243.731 341.56V351.2Z" fill="white"/>
<path d="M366.64 349.42C364.772 349.406 362.942 349.948 361.381 350.976C359.821 352.004 358.602 353.472 357.878 355.195C357.153 356.917 356.957 358.816 357.314 360.65C357.671 362.484 358.564 364.171 359.881 365.496C361.198 366.822 362.879 367.726 364.711 368.095C366.543 368.463 368.443 368.279 370.17 367.566C371.897 366.853 373.373 365.643 374.411 364.089C375.449 362.535 376.002 360.708 376 358.84C376.022 357.602 375.795 356.372 375.333 355.224C374.871 354.075 374.183 353.031 373.311 352.153C372.438 351.274 371.398 350.58 370.252 350.111C369.107 349.641 367.878 349.406 366.64 349.42V349.42ZM385.58 358.84C385.58 369.1 377.66 377.41 366.64 377.41C355.62 377.41 347.73 369.1 347.73 358.84C347.73 348.58 355.63 340.29 366.66 340.29C377.69 340.29 385.6 348.61 385.6 358.84" fill="white"/>
<path d="M299.55 349.07C297.243 348.436 294.871 348.071 292.48 347.98C288.86 347.98 286.88 349.19 286.88 350.92C286.88 353.1 289.54 353.86 291.03 354.33L293.53 355.12C299.4 356.99 302.07 361.01 302.07 365.38C302.07 374.38 294.15 377.38 287.23 377.38C283.953 377.341 280.687 377.007 277.47 376.38V368.13C280.249 368.935 283.119 369.382 286.01 369.46C290.51 369.46 292.58 368.15 292.58 366.12C292.58 364.3 290.79 363.25 288.58 362.55C288.03 362.36 287.21 362.11 286.65 361.92C281.65 360.33 277.41 357.37 277.41 351.44C277.41 344.73 282.41 340.23 290.77 340.23C293.741 340.271 296.697 340.654 299.58 341.37L299.55 349.07Z" fill="white"/>
<path d="M212.322 68.92C214.419 76.2855 217.274 83.4136 220.842 90.19C222.472 93.19 224.092 96.19 227.062 98.07C227.572 98.3995 228.138 98.6333 228.732 98.76C233.092 99.68 235.482 96.18 237.022 92.96C239.32 87.9236 241.177 82.6973 242.572 77.34C242.842 76.34 243.102 75.34 243.362 74.34C243.862 72.42 244.335 70.4933 244.782 68.56L264.032 17.16C268.03 11.844 273.211 7.53145 279.164 4.56354C285.117 1.59563 291.68 0.0537875 298.332 0.0600001C307.908 0.00589119 317.218 3.21152 324.732 9.15C337.312 18.67 344.802 37.42 344.802 37.42C346.671 41.5766 346.971 46.2693 345.648 50.6304C344.325 54.9915 341.467 58.7259 337.603 61.1431C333.74 63.5603 329.132 64.4967 324.631 63.7792C320.131 63.0617 316.042 60.7387 313.122 57.24C313.052 57.17 313.002 57.09 312.942 57.02C311.73 55.3853 310.723 53.6088 309.942 51.73C308.902 49.3809 307.74 47.0878 306.462 44.86C305.775 43.7162 305.031 42.6081 304.232 41.54C303.564 40.5694 302.77 39.6917 301.872 38.93C300.092 37.51 297.872 36.93 295.792 38.17L295.492 38.36C293.352 39.83 291.862 42.79 290.822 45.07C287.822 51.53 286.092 58.16 284.402 64.95C284.072 66.26 283.762 67.58 283.462 68.89L275.512 94.89L264.312 119.56C260.296 124.739 255.158 128.94 249.285 131.847C243.411 134.753 236.955 136.289 230.402 136.34C203.182 136.92 190.262 112.34 190.262 112.34C174.752 86.89 170.182 53.34 169.092 42.61C168.862 40.38 168.852 39.05 168.852 39.05C168.863 35.6959 169.789 32.4085 171.53 29.5416C173.271 26.6747 175.761 24.337 178.732 22.78C181.804 21.2149 185.227 20.4676 188.672 20.61C191.877 20.7392 194.995 21.6858 197.732 23.36C199.857 24.637 201.695 26.3392 203.132 28.36C205.692 32 206.262 36.53 206.782 40.85C207.837 50.3456 209.69 59.7355 212.322 68.92V68.92Z" fill="url(#paint0_linear)"/>
<path d="M212.322 68.92C214.419 76.2855 217.274 83.4136 220.842 90.19C222.472 93.19 224.092 96.19 227.062 98.07C227.572 98.3995 228.138 98.6333 228.732 98.76C233.092 99.68 235.482 96.18 237.022 92.96C239.32 87.9236 241.177 82.6973 242.572 77.34C242.842 76.34 243.102 75.34 243.362 74.34C243.862 72.42 244.335 70.4933 244.782 68.56L264.032 17.16C268.03 11.844 273.211 7.53145 279.164 4.56354C285.117 1.59563 291.68 0.0537875 298.332 0.0600001C307.908 0.00589119 317.218 3.21152 324.732 9.15C337.312 18.67 344.802 37.42 344.802 37.42C346.671 41.5766 346.971 46.2693 345.648 50.6304C344.325 54.9915 341.467 58.7259 337.603 61.1431C333.74 63.5603 329.132 64.4967 324.631 63.7792C320.131 63.0617 316.042 60.7387 313.122 57.24C313.052 57.17 313.002 57.09 312.942 57.02C311.73 55.3853 310.723 53.6088 309.942 51.73C308.902 49.3809 307.74 47.0878 306.462 44.86C305.775 43.7162 305.031 42.6081 304.232 41.54C303.564 40.5694 302.77 39.6917 301.872 38.93C300.092 37.51 297.872 36.93 295.792 38.17L295.492 38.36C293.352 39.83 291.862 42.79 290.822 45.07C287.822 51.53 286.092 58.16 284.402 64.95C284.072 66.26 283.762 67.58 283.462 68.89L275.512 94.89L264.312 119.56C260.296 124.739 255.158 128.94 249.285 131.847C243.411 134.753 236.955 136.289 230.402 136.34C203.182 136.92 190.262 112.34 190.262 112.34C174.752 86.89 170.182 53.34 169.092 42.61C168.862 40.38 168.852 39.05 168.852 39.05C168.863 35.6959 169.789 32.4085 171.53 29.5416C173.271 26.6747 175.761 24.337 178.732 22.78C181.804 21.2149 185.227 20.4676 188.672 20.61C191.877 20.7392 194.995 21.6858 197.732 23.36C199.857 24.637 201.695 26.3392 203.132 28.36C205.692 32 206.262 36.53 206.782 40.85C207.837 50.3456 209.69 59.7355 212.322 68.92V68.92Z" fill="url(#paint1_radial)"/>
<path d="M212.322 68.92C214.419 76.2855 217.274 83.4136 220.842 90.19C222.472 93.19 224.092 96.19 227.062 98.07C227.572 98.3995 228.138 98.6333 228.732 98.76C233.092 99.68 235.482 96.18 237.022 92.96C239.32 87.9236 241.177 82.6973 242.572 77.34C242.842 76.34 243.102 75.34 243.362 74.34C243.862 72.42 244.335 70.4933 244.782 68.56L264.032 17.16C268.03 11.844 273.211 7.53145 279.164 4.56354C285.117 1.59563 291.68 0.0537875 298.332 0.0600001C307.908 0.00589119 317.218 3.21152 324.732 9.15C337.312 18.67 344.802 37.42 344.802 37.42C346.671 41.5766 346.971 46.2693 345.648 50.6304C344.325 54.9915 341.467 58.7259 337.603 61.1431C333.74 63.5603 329.132 64.4967 324.631 63.7792C320.131 63.0617 316.042 60.7387 313.122 57.24C313.052 57.17 313.002 57.09 312.942 57.02C311.73 55.3853 310.723 53.6088 309.942 51.73C308.902 49.3809 307.74 47.0878 306.462 44.86C305.775 43.7162 305.031 42.6081 304.232 41.54C303.564 40.5694 302.77 39.6917 301.872 38.93C300.092 37.51 297.872 36.93 295.792 38.17L295.492 38.36C293.352 39.83 291.862 42.79 290.822 45.07C287.822 51.53 286.092 58.16 284.402 64.95C284.072 66.26 283.762 67.58 283.462 68.89L275.512 94.89L264.312 119.56C260.296 124.739 255.158 128.94 249.285 131.847C243.411 134.753 236.955 136.289 230.402 136.34C203.182 136.92 190.262 112.34 190.262 112.34C174.752 86.89 170.182 53.34 169.092 42.61C168.862 40.38 168.852 39.05 168.852 39.05C168.863 35.6959 169.789 32.4085 171.53 29.5416C173.271 26.6747 175.761 24.337 178.732 22.78C181.804 21.2149 185.227 20.4676 188.672 20.61C191.877 20.7392 194.995 21.6858 197.732 23.36C199.857 24.637 201.695 26.3392 203.132 28.36C205.692 32 206.262 36.53 206.782 40.85C207.837 50.3456 209.69 59.7355 212.322 68.92V68.92Z" fill="url(#paint2_radial)"/>
<path d="M212.322 68.92C214.419 76.2855 217.274 83.4136 220.842 90.19C222.472 93.19 224.092 96.19 227.062 98.07C227.572 98.3995 228.138 98.6333 228.732 98.76C233.092 99.68 235.482 96.18 237.022 92.96C239.32 87.9236 241.177 82.6973 242.572 77.34C242.842 76.34 243.102 75.34 243.362 74.34C243.862 72.42 244.335 70.4933 244.782 68.56L264.032 17.16C268.03 11.844 273.211 7.53145 279.164 4.56354C285.117 1.59563 291.68 0.0537875 298.332 0.0600001C307.908 0.00589119 317.218 3.21152 324.732 9.15C337.312 18.67 344.802 37.42 344.802 37.42C346.671 41.5766 346.971 46.2693 345.648 50.6304C344.325 54.9915 341.467 58.7259 337.603 61.1431C333.74 63.5603 329.132 64.4967 324.631 63.7792C320.131 63.0617 316.042 60.7387 313.122 57.24C313.052 57.17 313.002 57.09 312.942 57.02C311.73 55.3853 310.723 53.6088 309.942 51.73C308.902 49.3809 307.74 47.0878 306.462 44.86C305.775 43.7162 305.031 42.6081 304.232 41.54C303.564 40.5694 302.77 39.6917 301.872 38.93C300.092 37.51 297.872 36.93 295.792 38.17L295.492 38.36C293.352 39.83 291.862 42.79 290.822 45.07C287.822 51.53 286.092 58.16 284.402 64.95C284.072 66.26 283.762 67.58 283.462 68.89L275.512 94.89L264.312 119.56C260.296 124.739 255.158 128.94 249.285 131.847C243.411 134.753 236.955 136.289 230.402 136.34C203.182 136.92 190.262 112.34 190.262 112.34C174.752 86.89 170.182 53.34 169.092 42.61C168.862 40.38 168.852 39.05 168.852 39.05C168.863 35.6959 169.789 32.4085 171.53 29.5416C173.271 26.6747 175.761 24.337 178.732 22.78C181.804 21.2149 185.227 20.4676 188.672 20.61C191.877 20.7392 194.995 21.6858 197.732 23.36C199.857 24.637 201.695 26.3392 203.132 28.36C205.692 32 206.262 36.53 206.782 40.85C207.837 50.3456 209.69 59.7355 212.322 68.92V68.92Z" fill="url(#paint3_radial)"/>
<path d="M212.322 68.92C214.419 76.2855 217.274 83.4136 220.842 90.19C222.472 93.19 224.092 96.19 227.062 98.07C227.572 98.3995 228.138 98.6333 228.732 98.76C233.092 99.68 235.482 96.18 237.022 92.96C239.32 87.9236 241.177 82.6973 242.572 77.34C242.842 76.34 243.102 75.34 243.362 74.34C243.862 72.42 244.335 70.4933 244.782 68.56L264.032 17.16C268.03 11.844 273.211 7.53145 279.164 4.56354C285.117 1.59563 291.68 0.0537875 298.332 0.0600001C307.908 0.00589119 317.218 3.21152 324.732 9.15C337.312 18.67 344.802 37.42 344.802 37.42C346.671 41.5766 346.971 46.2693 345.648 50.6304C344.325 54.9915 341.467 58.7259 337.603 61.1431C333.74 63.5603 329.132 64.4967 324.631 63.7792C320.131 63.0617 316.042 60.7387 313.122 57.24C313.052 57.17 313.002 57.09 312.942 57.02C311.73 55.3853 310.723 53.6088 309.942 51.73C308.902 49.3809 307.74 47.0878 306.462 44.86C305.775 43.7162 305.031 42.6081 304.232 41.54C303.564 40.5694 302.77 39.6917 301.872 38.93C300.092 37.51 297.872 36.93 295.792 38.17L295.492 38.36C293.352 39.83 291.862 42.79 290.822 45.07C287.822 51.53 286.092 58.16 284.402 64.95C284.072 66.26 283.762 67.58 283.462 68.89L275.512 94.89L264.312 119.56C260.296 124.739 255.158 128.94 249.285 131.847C243.411 134.753 236.955 136.289 230.402 136.34C203.182 136.92 190.262 112.34 190.262 112.34C174.752 86.89 170.182 53.34 169.092 42.61C168.862 40.38 168.852 39.05 168.852 39.05C168.863 35.6959 169.789 32.4085 171.53 29.5416C173.271 26.6747 175.761 24.337 178.732 22.78C181.804 21.2149 185.227 20.4676 188.672 20.61C191.877 20.7392 194.995 21.6858 197.732 23.36C199.857 24.637 201.695 26.3392 203.132 28.36C205.692 32 206.262 36.53 206.782 40.85C207.837 50.3456 209.69 59.7355 212.322 68.92V68.92Z" fill="url(#paint4_radial)"/>
<path d="M212.322 68.92C214.419 76.2855 217.274 83.4136 220.842 90.19C222.472 93.19 224.092 96.19 227.062 98.07C227.572 98.3995 228.138 98.6333 228.732 98.76C233.092 99.68 235.482 96.18 237.022 92.96C239.32 87.9236 241.177 82.6973 242.572 77.34C242.842 76.34 243.102 75.34 243.362 74.34C243.862 72.42 244.335 70.4933 244.782 68.56L264.032 17.16C268.03 11.844 273.211 7.53145 279.164 4.56354C285.117 1.59563 291.68 0.0537875 298.332 0.0600001C307.908 0.00589119 317.218 3.21152 324.732 9.15C337.312 18.67 344.802 37.42 344.802 37.42C346.671 41.5766 346.971 46.2693 345.648 50.6304C344.325 54.9915 341.467 58.7259 337.603 61.1431C333.74 63.5603 329.132 64.4967 324.631 63.7792C320.131 63.0617 316.042 60.7387 313.122 57.24C313.052 57.17 313.002 57.09 312.942 57.02C311.73 55.3853 310.723 53.6088 309.942 51.73C308.902 49.3809 307.74 47.0878 306.462 44.86C305.775 43.7162 305.031 42.6081 304.232 41.54C303.564 40.5694 302.77 39.6917 301.872 38.93C300.092 37.51 297.872 36.93 295.792 38.17L295.492 38.36C293.352 39.83 291.862 42.79 290.822 45.07C287.822 51.53 286.092 58.16 284.402 64.95C284.072 66.26 283.762 67.58 283.462 68.89L275.512 94.89L264.312 119.56C260.296 124.739 255.158 128.94 249.285 131.847C243.411 134.753 236.955 136.289 230.402 136.34C203.182 136.92 190.262 112.34 190.262 112.34C174.752 86.89 170.182 53.34 169.092 42.61C168.862 40.38 168.852 39.05 168.852 39.05C168.863 35.6959 169.789 32.4085 171.53 29.5416C173.271 26.6747 175.761 24.337 178.732 22.78C181.804 21.2149 185.227 20.4676 188.672 20.61C191.877 20.7392 194.995 21.6858 197.732 23.36C199.857 24.637 201.695 26.3392 203.132 28.36C205.692 32 206.262 36.53 206.782 40.85C207.837 50.3456 209.69 59.7355 212.322 68.92V68.92Z" fill="url(#paint5_radial)"/>
<path d="M212.322 68.92C214.419 76.2855 217.274 83.4136 220.842 90.19C222.472 93.19 224.092 96.19 227.062 98.07C227.572 98.3995 228.138 98.6333 228.732 98.76C233.092 99.68 235.482 96.18 237.022 92.96C239.32 87.9236 241.177 82.6973 242.572 77.34C242.842 76.34 243.102 75.34 243.362 74.34C243.862 72.42 244.335 70.4933 244.782 68.56L264.032 17.16C268.03 11.844 273.211 7.53145 279.164 4.56354C285.117 1.59563 291.68 0.0537875 298.332 0.0600001C307.908 0.00589119 317.218 3.21152 324.732 9.15C337.312 18.67 344.802 37.42 344.802 37.42C346.671 41.5766 346.971 46.2693 345.648 50.6304C344.325 54.9915 341.467 58.7259 337.603 61.1431C333.74 63.5603 329.132 64.4967 324.631 63.7792C320.131 63.0617 316.042 60.7387 313.122 57.24C313.052 57.17 313.002 57.09 312.942 57.02C311.73 55.3853 310.723 53.6088 309.942 51.73C308.902 49.3809 307.74 47.0878 306.462 44.86C305.775 43.7162 305.031 42.6081 304.232 41.54C303.564 40.5694 302.77 39.6917 301.872 38.93C300.092 37.51 297.872 36.93 295.792 38.17L295.492 38.36C293.352 39.83 291.862 42.79 290.822 45.07C287.822 51.53 286.092 58.16 284.402 64.95C284.072 66.26 283.762 67.58 283.462 68.89L275.512 94.89L264.312 119.56C260.296 124.739 255.158 128.94 249.285 131.847C243.411 134.753 236.955 136.289 230.402 136.34C203.182 136.92 190.262 112.34 190.262 112.34C174.752 86.89 170.182 53.34 169.092 42.61C168.862 40.38 168.852 39.05 168.852 39.05C168.863 35.6959 169.789 32.4085 171.53 29.5416C173.271 26.6747 175.761 24.337 178.732 22.78C181.804 21.2149 185.227 20.4676 188.672 20.61C191.877 20.7392 194.995 21.6858 197.732 23.36C199.857 24.637 201.695 26.3392 203.132 28.36C205.692 32 206.262 36.53 206.782 40.85C207.837 50.3456 209.69 59.7355 212.322 68.92V68.92Z" fill="url(#paint6_radial)"/>
<path d="M212.322 68.92C214.419 76.2855 217.274 83.4136 220.842 90.19C222.472 93.19 224.092 96.19 227.062 98.07C227.572 98.3995 228.138 98.6333 228.732 98.76C233.092 99.68 235.482 96.18 237.022 92.96C239.32 87.9236 241.177 82.6973 242.572 77.34C242.842 76.34 243.102 75.34 243.362 74.34C243.862 72.42 244.335 70.4933 244.782 68.56L264.032 17.16C268.03 11.844 273.211 7.53145 279.164 4.56354C285.117 1.59563 291.68 0.0537875 298.332 0.0600001C307.908 0.00589119 317.218 3.21152 324.732 9.15C337.312 18.67 344.802 37.42 344.802 37.42C346.671 41.5766 346.971 46.2693 345.648 50.6304C344.325 54.9915 341.467 58.7259 337.603 61.1431C333.74 63.5603 329.132 64.4967 324.631 63.7792C320.131 63.0617 316.042 60.7387 313.122 57.24C313.052 57.17 313.002 57.09 312.942 57.02C311.73 55.3853 310.723 53.6088 309.942 51.73C308.902 49.3809 307.74 47.0878 306.462 44.86C305.775 43.7162 305.031 42.6081 304.232 41.54C303.564 40.5694 302.77 39.6917 301.872 38.93C300.092 37.51 297.872 36.93 295.792 38.17L295.492 38.36C293.352 39.83 291.862 42.79 290.822 45.07C287.822 51.53 286.092 58.16 284.402 64.95C284.072 66.26 283.762 67.58 283.462 68.89L275.512 94.89L264.312 119.56C260.296 124.739 255.158 128.94 249.285 131.847C243.411 134.753 236.955 136.289 230.402 136.34C203.182 136.92 190.262 112.34 190.262 112.34C174.752 86.89 170.182 53.34 169.092 42.61C168.862 40.38 168.852 39.05 168.852 39.05C168.863 35.6959 169.789 32.4085 171.53 29.5416C173.271 26.6747 175.761 24.337 178.732 22.78C181.804 21.2149 185.227 20.4676 188.672 20.61C191.877 20.7392 194.995 21.6858 197.732 23.36C199.857 24.637 201.695 26.3392 203.132 28.36C205.692 32 206.262 36.53 206.782 40.85C207.837 50.3456 209.69 59.7355 212.322 68.92V68.92Z" fill="url(#paint7_radial)"/>
<path d="M212.322 68.92C214.419 76.2855 217.274 83.4136 220.842 90.19C222.472 93.19 224.092 96.19 227.062 98.07C227.572 98.3995 228.138 98.6333 228.732 98.76C233.092 99.68 235.482 96.18 237.022 92.96C239.32 87.9236 241.177 82.6973 242.572 77.34C242.842 76.34 243.102 75.34 243.362 74.34C243.862 72.42 244.335 70.4933 244.782 68.56L264.032 17.16C268.03 11.844 273.211 7.53145 279.164 4.56354C285.117 1.59563 291.68 0.0537875 298.332 0.0600001C307.908 0.00589119 317.218 3.21152 324.732 9.15C337.312 18.67 344.802 37.42 344.802 37.42C346.671 41.5766 346.971 46.2693 345.648 50.6304C344.325 54.9915 341.467 58.7259 337.603 61.1431C333.74 63.5603 329.132 64.4967 324.631 63.7792C320.131 63.0617 316.042 60.7387 313.122 57.24C313.052 57.17 313.002 57.09 312.942 57.02C311.73 55.3853 310.723 53.6088 309.942 51.73C308.902 49.3809 307.74 47.0878 306.462 44.86C305.775 43.7162 305.031 42.6081 304.232 41.54C303.564 40.5694 302.77 39.6917 301.872 38.93C300.092 37.51 297.872 36.93 295.792 38.17L295.492 38.36C293.352 39.83 291.862 42.79 290.822 45.07C287.822 51.53 286.092 58.16 284.402 64.95C284.072 66.26 283.762 67.58 283.462 68.89L275.512 94.89L264.312 119.56C260.296 124.739 255.158 128.94 249.285 131.847C243.411 134.753 236.955 136.289 230.402 136.34C203.182 136.92 190.262 112.34 190.262 112.34C174.752 86.89 170.182 53.34 169.092 42.61C168.862 40.38 168.852 39.05 168.852 39.05C168.863 35.6959 169.789 32.4085 171.53 29.5416C173.271 26.6747 175.761 24.337 178.732 22.78C181.804 21.2149 185.227 20.4676 188.672 20.61C191.877 20.7392 194.995 21.6858 197.732 23.36C199.857 24.637 201.695 26.3392 203.132 28.36C205.692 32 206.262 36.53 206.782 40.85C207.837 50.3456 209.69 59.7355 212.322 68.92V68.92Z" fill="url(#paint8_radial)"/>
<path d="M212.322 68.92C214.419 76.2855 217.274 83.4136 220.842 90.19C222.472 93.19 224.092 96.19 227.062 98.07C227.572 98.3995 228.138 98.6333 228.732 98.76C233.092 99.68 235.482 96.18 237.022 92.96C239.32 87.9236 241.177 82.6973 242.572 77.34C242.842 76.34 243.102 75.34 243.362 74.34C243.862 72.42 244.335 70.4933 244.782 68.56L264.032 17.16C268.03 11.844 273.211 7.53145 279.164 4.56354C285.117 1.59563 291.68 0.0537875 298.332 0.0600001C307.908 0.00589119 317.218 3.21152 324.732 9.15C337.312 18.67 344.802 37.42 344.802 37.42C346.671 41.5766 346.971 46.2693 345.648 50.6304C344.325 54.9915 341.467 58.7259 337.603 61.1431C333.74 63.5603 329.132 64.4967 324.631 63.7792C320.131 63.0617 316.042 60.7387 313.122 57.24C313.052 57.17 313.002 57.09 312.942 57.02C311.73 55.3853 310.723 53.6088 309.942 51.73C308.902 49.3809 307.74 47.0878 306.462 44.86C305.775 43.7162 305.031 42.6081 304.232 41.54C303.564 40.5694 302.77 39.6917 301.872 38.93C300.092 37.51 297.872 36.93 295.792 38.17L295.492 38.36C293.352 39.83 291.862 42.79 290.822 45.07C287.822 51.53 286.092 58.16 284.402 64.95C284.072 66.26 283.762 67.58 283.462 68.89L275.512 94.89L264.312 119.56C260.296 124.739 255.158 128.94 249.285 131.847C243.411 134.753 236.955 136.289 230.402 136.34C203.182 136.92 190.262 112.34 190.262 112.34C174.752 86.89 170.182 53.34 169.092 42.61C168.862 40.38 168.852 39.05 168.852 39.05C168.863 35.6959 169.789 32.4085 171.53 29.5416C173.271 26.6747 175.761 24.337 178.732 22.78C181.804 21.2149 185.227 20.4676 188.672 20.61C191.877 20.7392 194.995 21.6858 197.732 23.36C199.857 24.637 201.695 26.3392 203.132 28.36C205.692 32 206.262 36.53 206.782 40.85C207.837 50.3456 209.69 59.7355 212.322 68.92V68.92Z" fill="url(#paint9_radial)"/>
<path d="M212.322 68.92C214.419 76.2855 217.274 83.4136 220.842 90.19C222.472 93.19 224.092 96.19 227.062 98.07C227.572 98.3995 228.138 98.6333 228.732 98.76C233.092 99.68 235.482 96.18 237.022 92.96C239.32 87.9236 241.177 82.6973 242.572 77.34C242.842 76.34 243.102 75.34 243.362 74.34C243.862 72.42 244.335 70.4933 244.782 68.56L264.032 17.16C268.03 11.844 273.211 7.53145 279.164 4.56354C285.117 1.59563 291.68 0.0537875 298.332 0.0600001C307.908 0.00589119 317.218 3.21152 324.732 9.15C337.312 18.67 344.802 37.42 344.802 37.42C346.671 41.5766 346.971 46.2693 345.648 50.6304C344.325 54.9915 341.467 58.7259 337.603 61.1431C333.74 63.5603 329.132 64.4967 324.631 63.7792C320.131 63.0617 316.042 60.7387 313.122 57.24C313.052 57.17 313.002 57.09 312.942 57.02C311.73 55.3853 310.723 53.6088 309.942 51.73C308.902 49.3809 307.74 47.0878 306.462 44.86C305.775 43.7162 305.031 42.6081 304.232 41.54C303.564 40.5694 302.77 39.6917 301.872 38.93C300.092 37.51 297.872 36.93 295.792 38.17L295.492 38.36C293.352 39.83 291.862 42.79 290.822 45.07C287.822 51.53 286.092 58.16 284.402 64.95C284.072 66.26 283.762 67.58 283.462 68.89L275.512 94.89L264.312 119.56C260.296 124.739 255.158 128.94 249.285 131.847C243.411 134.753 236.955 136.289 230.402 136.34C203.182 136.92 190.262 112.34 190.262 112.34C174.752 86.89 170.182 53.34 169.092 42.61C168.862 40.38 168.852 39.05 168.852 39.05C168.863 35.6959 169.789 32.4085 171.53 29.5416C173.271 26.6747 175.761 24.337 178.732 22.78C181.804 21.2149 185.227 20.4676 188.672 20.61C191.877 20.7392 194.995 21.6858 197.732 23.36C199.857 24.637 201.695 26.3392 203.132 28.36C205.692 32 206.262 36.53 206.782 40.85C207.837 50.3456 209.69 59.7355 212.322 68.92V68.92Z" fill="url(#paint10_radial)"/>
<path d="M212.322 68.92C214.419 76.2855 217.274 83.4136 220.842 90.19C222.472 93.19 224.092 96.19 227.062 98.07C227.572 98.3995 228.138 98.6333 228.732 98.76C233.092 99.68 235.482 96.18 237.022 92.96C239.32 87.9236 241.177 82.6973 242.572 77.34C242.842 76.34 243.102 75.34 243.362 74.34C243.862 72.42 244.335 70.4933 244.782 68.56L264.032 17.16C268.03 11.844 273.211 7.53145 279.164 4.56354C285.117 1.59563 291.68 0.0537875 298.332 0.0600001C307.908 0.00589119 317.218 3.21152 324.732 9.15C337.312 18.67 344.802 37.42 344.802 37.42C346.671 41.5766 346.971 46.2693 345.648 50.6304C344.325 54.9915 341.467 58.7259 337.603 61.1431C333.74 63.5603 329.132 64.4967 324.631 63.7792C320.131 63.0617 316.042 60.7387 313.122 57.24C313.052 57.17 313.002 57.09 312.942 57.02C311.73 55.3853 310.723 53.6088 309.942 51.73C308.902 49.3809 307.74 47.0878 306.462 44.86C305.775 43.7162 305.031 42.6081 304.232 41.54C303.564 40.5694 302.77 39.6917 301.872 38.93C300.092 37.51 297.872 36.93 295.792 38.17L295.492 38.36C293.352 39.83 291.862 42.79 290.822 45.07C287.822 51.53 286.092 58.16 284.402 64.95C284.072 66.26 283.762 67.58 283.462 68.89L275.512 94.89L264.312 119.56C260.296 124.739 255.158 128.94 249.285 131.847C243.411 134.753 236.955 136.289 230.402 136.34C203.182 136.92 190.262 112.34 190.262 112.34C174.752 86.89 170.182 53.34 169.092 42.61C168.862 40.38 168.852 39.05 168.852 39.05C168.863 35.6959 169.789 32.4085 171.53 29.5416C173.271 26.6747 175.761 24.337 178.732 22.78C181.804 21.2149 185.227 20.4676 188.672 20.61C191.877 20.7392 194.995 21.6858 197.732 23.36C199.857 24.637 201.695 26.3392 203.132 28.36C205.692 32 206.262 36.53 206.782 40.85C207.837 50.3456 209.69 59.7355 212.322 68.92V68.92Z" fill="url(#paint11_radial)"/>
<path d="M212.322 68.92C214.419 76.2855 217.274 83.4136 220.842 90.19C222.472 93.19 224.092 96.19 227.062 98.07C227.572 98.3995 228.138 98.6333 228.732 98.76C233.092 99.68 235.482 96.18 237.022 92.96C239.32 87.9236 241.177 82.6973 242.572 77.34C242.842 76.34 243.102 75.34 243.362 74.34C243.862 72.42 244.335 70.4933 244.782 68.56L264.032 17.16C268.03 11.844 273.211 7.53145 279.164 4.56354C285.117 1.59563 291.68 0.0537875 298.332 0.0600001C307.908 0.00589119 317.218 3.21152 324.732 9.15C337.312 18.67 344.802 37.42 344.802 37.42C346.671 41.5766 346.971 46.2693 345.648 50.6304C344.325 54.9915 341.467 58.7259 337.603 61.1431C333.74 63.5603 329.132 64.4967 324.631 63.7792C320.131 63.0617 316.042 60.7387 313.122 57.24C313.052 57.17 313.002 57.09 312.942 57.02C311.73 55.3853 310.723 53.6088 309.942 51.73C308.902 49.3809 307.74 47.0878 306.462 44.86C305.775 43.7162 305.031 42.6081 304.232 41.54C303.564 40.5694 302.77 39.6917 301.872 38.93C300.092 37.51 297.872 36.93 295.792 38.17L295.492 38.36C293.352 39.83 291.862 42.79 290.822 45.07C287.822 51.53 286.092 58.16 284.402 64.95C284.072 66.26 283.762 67.58 283.462 68.89L275.512 94.89L264.312 119.56C260.296 124.739 255.158 128.94 249.285 131.847C243.411 134.753 236.955 136.289 230.402 136.34C203.182 136.92 190.262 112.34 190.262 112.34C174.752 86.89 170.182 53.34 169.092 42.61C168.862 40.38 168.852 39.05 168.852 39.05C168.863 35.6959 169.789 32.4085 171.53 29.5416C173.271 26.6747 175.761 24.337 178.732 22.78C181.804 21.2149 185.227 20.4676 188.672 20.61C191.877 20.7392 194.995 21.6858 197.732 23.36C199.857 24.637 201.695 26.3392 203.132 28.36C205.692 32 206.262 36.53 206.782 40.85C207.837 50.3456 209.69 59.7355 212.322 68.92V68.92Z" fill="url(#paint12_radial)"/>
<path d="M212.322 68.92C214.419 76.2855 217.274 83.4136 220.842 90.19C222.472 93.19 224.092 96.19 227.062 98.07C227.572 98.3995 228.138 98.6333 228.732 98.76C233.092 99.68 235.482 96.18 237.022 92.96C239.32 87.9236 241.177 82.6973 242.572 77.34C242.842 76.34 243.102 75.34 243.362 74.34C243.862 72.42 244.335 70.4933 244.782 68.56L264.032 17.16C268.03 11.844 273.211 7.53145 279.164 4.56354C285.117 1.59563 291.68 0.0537875 298.332 0.0600001C307.908 0.00589119 317.218 3.21152 324.732 9.15C337.312 18.67 344.802 37.42 344.802 37.42C346.671 41.5766 346.971 46.2693 345.648 50.6304C344.325 54.9915 341.467 58.7259 337.603 61.1431C333.74 63.5603 329.132 64.4967 324.631 63.7792C320.131 63.0617 316.042 60.7387 313.122 57.24C313.052 57.17 313.002 57.09 312.942 57.02C311.73 55.3853 310.723 53.6088 309.942 51.73C308.902 49.3809 307.74 47.0878 306.462 44.86C305.775 43.7162 305.031 42.6081 304.232 41.54C303.564 40.5694 302.77 39.6917 301.872 38.93C300.092 37.51 297.872 36.93 295.792 38.17L295.492 38.36C293.352 39.83 291.862 42.79 290.822 45.07C287.822 51.53 286.092 58.16 284.402 64.95C284.072 66.26 283.762 67.58 283.462 68.89L275.512 94.89L264.312 119.56C260.296 124.739 255.158 128.94 249.285 131.847C243.411 134.753 236.955 136.289 230.402 136.34C203.182 136.92 190.262 112.34 190.262 112.34C174.752 86.89 170.182 53.34 169.092 42.61C168.862 40.38 168.852 39.05 168.852 39.05C168.863 35.6959 169.789 32.4085 171.53 29.5416C173.271 26.6747 175.761 24.337 178.732 22.78C181.804 21.2149 185.227 20.4676 188.672 20.61C191.877 20.7392 194.995 21.6858 197.732 23.36C199.857 24.637 201.695 26.3392 203.132 28.36C205.692 32 206.262 36.53 206.782 40.85C207.837 50.3456 209.69 59.7355 212.322 68.92V68.92Z" fill="url(#paint13_radial)"/>
<path d="M212.322 68.92C214.419 76.2855 217.274 83.4136 220.842 90.19C222.472 93.19 224.092 96.19 227.062 98.07C227.572 98.3995 228.138 98.6333 228.732 98.76C233.092 99.68 235.482 96.18 237.022 92.96C239.32 87.9236 241.177 82.6973 242.572 77.34C242.842 76.34 243.102 75.34 243.362 74.34C243.862 72.42 244.335 70.4933 244.782 68.56L264.032 17.16C268.03 11.844 273.211 7.53145 279.164 4.56354C285.117 1.59563 291.68 0.0537875 298.332 0.0600001C307.908 0.00589119 317.218 3.21152 324.732 9.15C337.312 18.67 344.802 37.42 344.802 37.42C346.671 41.5766 346.971 46.2693 345.648 50.6304C344.325 54.9915 341.467 58.7259 337.603 61.1431C333.74 63.5603 329.132 64.4967 324.631 63.7792C320.131 63.0617 316.042 60.7387 313.122 57.24C313.052 57.17 313.002 57.09 312.942 57.02C311.73 55.3853 310.723 53.6088 309.942 51.73C308.902 49.3809 307.74 47.0878 306.462 44.86C305.775 43.7162 305.031 42.6081 304.232 41.54C303.564 40.5694 302.77 39.6917 301.872 38.93C300.092 37.51 297.872 36.93 295.792 38.17L295.492 38.36C293.352 39.83 291.862 42.79 290.822 45.07C287.822 51.53 286.092 58.16 284.402 64.95C284.072 66.26 283.762 67.58 283.462 68.89L275.512 94.89L264.312 119.56C260.296 124.739 255.158 128.94 249.285 131.847C243.411 134.753 236.955 136.289 230.402 136.34C203.182 136.92 190.262 112.34 190.262 112.34C174.752 86.89 170.182 53.34 169.092 42.61C168.862 40.38 168.852 39.05 168.852 39.05C168.863 35.6959 169.789 32.4085 171.53 29.5416C173.271 26.6747 175.761 24.337 178.732 22.78C181.804 21.2149 185.227 20.4676 188.672 20.61C191.877 20.7392 194.995 21.6858 197.732 23.36C199.857 24.637 201.695 26.3392 203.132 28.36C205.692 32 206.262 36.53 206.782 40.85C207.837 50.3456 209.69 59.7355 212.322 68.92V68.92Z" fill="url(#paint14_radial)"/>
<path d="M212.322 68.92C214.419 76.2855 217.274 83.4136 220.842 90.19C222.472 93.19 224.092 96.19 227.062 98.07C227.572 98.3995 228.138 98.6333 228.732 98.76C233.092 99.68 235.482 96.18 237.022 92.96C239.32 87.9236 241.177 82.6973 242.572 77.34C242.842 76.34 243.102 75.34 243.362 74.34C243.862 72.42 244.335 70.4933 244.782 68.56L264.032 17.16C268.03 11.844 273.211 7.53145 279.164 4.56354C285.117 1.59563 291.68 0.0537875 298.332 0.0600001C307.908 0.00589119 317.218 3.21152 324.732 9.15C337.312 18.67 344.802 37.42 344.802 37.42C346.671 41.5766 346.971 46.2693 345.648 50.6304C344.325 54.9915 341.467 58.7259 337.603 61.1431C333.74 63.5603 329.132 64.4967 324.631 63.7792C320.131 63.0617 316.042 60.7387 313.122 57.24C313.052 57.17 313.002 57.09 312.942 57.02C311.73 55.3853 310.723 53.6088 309.942 51.73C308.902 49.3809 307.74 47.0878 306.462 44.86C305.775 43.7162 305.031 42.6081 304.232 41.54C303.564 40.5694 302.77 39.6917 301.872 38.93C300.092 37.51 297.872 36.93 295.792 38.17L295.492 38.36C293.352 39.83 291.862 42.79 290.822 45.07C287.822 51.53 286.092 58.16 284.402 64.95C284.072 66.26 283.762 67.58 283.462 68.89L275.512 94.89L264.312 119.56C260.296 124.739 255.158 128.94 249.285 131.847C243.411 134.753 236.955 136.289 230.402 136.34C203.182 136.92 190.262 112.34 190.262 112.34C174.752 86.89 170.182 53.34 169.092 42.61C168.862 40.38 168.852 39.05 168.852 39.05C168.863 35.6959 169.789 32.4085 171.53 29.5416C173.271 26.6747 175.761 24.337 178.732 22.78C181.804 21.2149 185.227 20.4676 188.672 20.61C191.877 20.7392 194.995 21.6858 197.732 23.36C199.857 24.637 201.695 26.3392 203.132 28.36C205.692 32 206.262 36.53 206.782 40.85C207.837 50.3456 209.69 59.7355 212.322 68.92V68.92Z" fill="url(#paint15_radial)"/>
<path d="M212.322 68.92C214.419 76.2855 217.274 83.4136 220.842 90.19C222.472 93.19 224.092 96.19 227.062 98.07C227.572 98.3995 228.138 98.6333 228.732 98.76C233.092 99.68 235.482 96.18 237.022 92.96C239.32 87.9236 241.177 82.6973 242.572 77.34C242.842 76.34 243.102 75.34 243.362 74.34C243.862 72.42 244.335 70.4933 244.782 68.56L264.032 17.16C268.03 11.844 273.211 7.53145 279.164 4.56354C285.117 1.59563 291.68 0.0537875 298.332 0.0600001C307.908 0.00589119 317.218 3.21152 324.732 9.15C337.312 18.67 344.802 37.42 344.802 37.42C346.671 41.5766 346.971 46.2693 345.648 50.6304C344.325 54.9915 341.467 58.7259 337.603 61.1431C333.74 63.5603 329.132 64.4967 324.631 63.7792C320.131 63.0617 316.042 60.7387 313.122 57.24C313.052 57.17 313.002 57.09 312.942 57.02C311.73 55.3853 310.723 53.6088 309.942 51.73C308.902 49.3809 307.74 47.0878 306.462 44.86C305.775 43.7162 305.031 42.6081 304.232 41.54C303.564 40.5694 302.77 39.6917 301.872 38.93C300.092 37.51 297.872 36.93 295.792 38.17L295.492 38.36C293.352 39.83 291.862 42.79 290.822 45.07C287.822 51.53 286.092 58.16 284.402 64.95C284.072 66.26 283.762 67.58 283.462 68.89L275.512 94.89L264.312 119.56C260.296 124.739 255.158 128.94 249.285 131.847C243.411 134.753 236.955 136.289 230.402 136.34C203.182 136.92 190.262 112.34 190.262 112.34C174.752 86.89 170.182 53.34 169.092 42.61C168.862 40.38 168.852 39.05 168.852 39.05C168.863 35.6959 169.789 32.4085 171.53 29.5416C173.271 26.6747 175.761 24.337 178.732 22.78C181.804 21.2149 185.227 20.4676 188.672 20.61C191.877 20.7392 194.995 21.6858 197.732 23.36C199.857 24.637 201.695 26.3392 203.132 28.36C205.692 32 206.262 36.53 206.782 40.85C207.837 50.3456 209.69 59.7355 212.322 68.92V68.92Z" fill="url(#paint16_linear)"/>
<path d="M212.322 68.92C214.419 76.2855 217.274 83.4136 220.842 90.19C222.472 93.19 224.092 96.19 227.062 98.07C227.572 98.3995 228.138 98.6333 228.732 98.76C233.092 99.68 235.482 96.18 237.022 92.96C239.32 87.9236 241.177 82.6973 242.572 77.34C242.842 76.34 243.102 75.34 243.362 74.34C243.862 72.42 244.335 70.4933 244.782 68.56L264.032 17.16C268.03 11.844 273.211 7.53145 279.164 4.56354C285.117 1.59563 291.68 0.0537875 298.332 0.0600001C307.908 0.00589119 317.218 3.21152 324.732 9.15C337.312 18.67 344.802 37.42 344.802 37.42C346.671 41.5766 346.971 46.2693 345.648 50.6304C344.325 54.9915 341.467 58.7259 337.603 61.1431C333.74 63.5603 329.132 64.4967 324.631 63.7792C320.131 63.0617 316.042 60.7387 313.122 57.24C313.052 57.17 313.002 57.09 312.942 57.02C311.73 55.3853 310.723 53.6088 309.942 51.73C308.902 49.3809 307.74 47.0878 306.462 44.86C305.775 43.7162 305.031 42.6081 304.232 41.54C303.564 40.5694 302.77 39.6917 301.872 38.93C300.092 37.51 297.872 36.93 295.792 38.17L295.492 38.36C293.352 39.83 291.862 42.79 290.822 45.07C287.822 51.53 286.092 58.16 284.402 64.95C284.072 66.26 283.762 67.58 283.462 68.89L275.512 94.89L264.312 119.56C260.296 124.739 255.158 128.94 249.285 131.847C243.411 134.753 236.955 136.289 230.402 136.34C203.182 136.92 190.262 112.34 190.262 112.34C174.752 86.89 170.182 53.34 169.092 42.61C168.862 40.38 168.852 39.05 168.852 39.05C168.863 35.6959 169.789 32.4085 171.53 29.5416C173.271 26.6747 175.761 24.337 178.732 22.78C181.804 21.2149 185.227 20.4676 188.672 20.61C191.877 20.7392 194.995 21.6858 197.732 23.36C199.857 24.637 201.695 26.3392 203.132 28.36C205.692 32 206.262 36.53 206.782 40.85C207.837 50.3456 209.69 59.7355 212.322 68.92V68.92Z" fill="url(#paint17_linear)"/>
<path d="M212.322 68.92C214.419 76.2855 217.274 83.4136 220.842 90.19C222.472 93.19 224.092 96.19 227.062 98.07C227.572 98.3995 228.138 98.6333 228.732 98.76C233.092 99.68 235.482 96.18 237.022 92.96C239.32 87.9236 241.177 82.6973 242.572 77.34C242.842 76.34 243.102 75.34 243.362 74.34C243.862 72.42 244.335 70.4933 244.782 68.56L264.032 17.16C268.03 11.844 273.211 7.53145 279.164 4.56354C285.117 1.59563 291.68 0.0537875 298.332 0.0600001C307.908 0.00589119 317.218 3.21152 324.732 9.15C337.312 18.67 344.802 37.42 344.802 37.42C346.671 41.5766 346.971 46.2693 345.648 50.6304C344.325 54.9915 341.467 58.7259 337.603 61.1431C333.74 63.5603 329.132 64.4967 324.631 63.7792C320.131 63.0617 316.042 60.7387 313.122 57.24C313.052 57.17 313.002 57.09 312.942 57.02C311.73 55.3853 310.723 53.6088 309.942 51.73C308.902 49.3809 307.74 47.0878 306.462 44.86C305.775 43.7162 305.031 42.6081 304.232 41.54C303.564 40.5694 302.77 39.6917 301.872 38.93C300.092 37.51 297.872 36.93 295.792 38.17L295.492 38.36C293.352 39.83 291.862 42.79 290.822 45.07C287.822 51.53 286.092 58.16 284.402 64.95C284.072 66.26 283.762 67.58 283.462 68.89L275.512 94.89L264.312 119.56C260.296 124.739 255.158 128.94 249.285 131.847C243.411 134.753 236.955 136.289 230.402 136.34C203.182 136.92 190.262 112.34 190.262 112.34C174.752 86.89 170.182 53.34 169.092 42.61C168.862 40.38 168.852 39.05 168.852 39.05C168.863 35.6959 169.789 32.4085 171.53 29.5416C173.271 26.6747 175.761 24.337 178.732 22.78C181.804 21.2149 185.227 20.4676 188.672 20.61C191.877 20.7392 194.995 21.6858 197.732 23.36C199.857 24.637 201.695 26.3392 203.132 28.36C205.692 32 206.262 36.53 206.782 40.85C207.837 50.3456 209.69 59.7355 212.322 68.92V68.92Z" fill="url(#paint18_linear)"/>
<path d="M212.322 68.92C214.419 76.2855 217.274 83.4136 220.842 90.19C222.472 93.19 224.092 96.19 227.062 98.07C227.572 98.3995 228.138 98.6333 228.732 98.76C233.092 99.68 235.482 96.18 237.022 92.96C239.32 87.9236 241.177 82.6973 242.572 77.34C242.842 76.34 243.102 75.34 243.362 74.34C243.862 72.42 244.335 70.4933 244.782 68.56L264.032 17.16C268.03 11.844 273.211 7.53145 279.164 4.56354C285.117 1.59563 291.68 0.0537875 298.332 0.0600001C307.908 0.00589119 317.218 3.21152 324.732 9.15C337.312 18.67 344.802 37.42 344.802 37.42C346.671 41.5766 346.971 46.2693 345.648 50.6304C344.325 54.9915 341.467 58.7259 337.603 61.1431C333.74 63.5603 329.132 64.4967 324.631 63.7792C320.131 63.0617 316.042 60.7387 313.122 57.24C313.052 57.17 313.002 57.09 312.942 57.02C311.73 55.3853 310.723 53.6088 309.942 51.73C308.902 49.3809 307.74 47.0878 306.462 44.86C305.775 43.7162 305.031 42.6081 304.232 41.54C303.564 40.5694 302.77 39.6917 301.872 38.93C300.092 37.51 297.872 36.93 295.792 38.17L295.492 38.36C293.352 39.83 291.862 42.79 290.822 45.07C287.822 51.53 286.092 58.16 284.402 64.95C284.072 66.26 283.762 67.58 283.462 68.89L275.512 94.89L264.312 119.56C260.296 124.739 255.158 128.94 249.285 131.847C243.411 134.753 236.955 136.289 230.402 136.34C203.182 136.92 190.262 112.34 190.262 112.34C174.752 86.89 170.182 53.34 169.092 42.61C168.862 40.38 168.852 39.05 168.852 39.05C168.863 35.6959 169.789 32.4085 171.53 29.5416C173.271 26.6747 175.761 24.337 178.732 22.78C181.804 21.2149 185.227 20.4676 188.672 20.61C191.877 20.7392 194.995 21.6858 197.732 23.36C199.857 24.637 201.695 26.3392 203.132 28.36C205.692 32 206.262 36.53 206.782 40.85C207.837 50.3456 209.69 59.7355 212.322 68.92V68.92Z" fill="url(#paint19_linear)"/>
<path d="M251.801 49.85L264.031 17.18C268.027 11.8603 273.207 7.54393 279.161 4.57249C285.114 1.60104 291.677 0.056118 298.331 0.0600001C307.907 0.00589119 317.218 3.21152 324.731 9.15C337.311 18.67 344.801 37.42 344.801 37.42C346.67 41.5766 346.97 46.2693 345.647 50.6304C344.324 54.9915 341.466 58.7259 337.603 61.1431C333.739 63.5603 329.131 64.4967 324.63 63.7792C320.13 63.0617 316.041 60.7387 313.121 57.24C313.051 57.17 313.001 57.09 312.941 57.02C311.729 55.3853 310.722 53.6088 309.941 51.73C308.901 49.3809 307.74 47.0878 306.461 44.86C305.774 43.7162 305.03 42.6081 304.231 41.54C303.563 40.5694 302.769 39.6917 301.871 38.93C300.091 37.51 297.871 36.93 295.791 38.17L295.491 38.36C293.351 39.83 291.861 42.79 290.821 45.07C287.821 51.53 286.091 58.16 284.401 64.95C284.071 66.26 283.761 67.58 283.461 68.89L275.511 94.89L251.801 49.85Z" fill="url(#paint20_linear)"/>
<path d="M340.65 20.6801C339.061 20.6765 337.479 20.8748 335.94 21.2701C339.444 26.3375 342.423 31.7488 344.83 37.4201C346.469 41.0709 346.905 45.1481 346.074 49.0628C345.244 52.9775 343.191 56.527 340.211 59.1983C337.232 61.8696 333.48 63.5245 329.498 63.9239C325.516 64.3232 321.511 63.4464 318.06 61.4201L316.12 68.5601C312.6 80.3401 310.12 84.8901 310.12 84.8901C308.756 88.0789 307.13 91.1494 305.26 94.0701C303.97 95.9901 302.32 97.9101 300.06 98.6401C299.273 98.9109 298.433 98.9898 297.61 98.8701C296.718 98.7656 295.857 98.4798 295.08 98.0301C293.594 96.9088 292.411 95.4342 291.64 93.7401C290.684 91.8661 289.826 89.9435 289.07 87.9801C287.39 83.9201 284.82 73.9201 284.82 73.9201L282.15 63.4401L279.48 52.9001L277.58 45.9601C272.58 27.9601 265.66 19.0301 265.66 19.0301C260.222 11.2881 252.529 5.41112 243.63 2.20009C233.3 -1.49991 222.45 0.560087 222.45 0.560087C205.45 3.91009 196.52 15.5601 192.59 21.1801C194.401 21.6488 196.134 22.3835 197.73 23.3601C199.855 24.6371 201.693 26.3393 203.13 28.3601C205.69 32.0001 206.26 36.5301 206.78 40.8501C207.825 50.2218 209.648 59.4904 212.23 68.5601C217.99 49.4601 224.9 40.5601 224.9 40.5601C225.672 39.5977 226.598 38.7699 227.64 38.1101C228.182 37.7771 228.789 37.5624 229.42 37.4801C230.59 37.376 231.762 37.6645 232.75 38.3001C232.928 38.4188 233.099 38.5491 233.26 38.6901C234.162 39.4955 234.938 40.4328 235.56 41.4701C236.998 44.0416 238.245 46.7155 239.29 49.4701C241.45 55.5601 243.29 62.9901 243.29 62.9901L248.79 84.6601C252.79 99.4101 256.18 106.57 256.18 106.57C264.52 125.68 277.29 131.07 277.29 131.07C283.51 134.394 290.429 136.2 297.48 136.34C304.208 136.531 310.883 135.097 316.94 132.16C323.581 128.894 329.407 124.182 333.99 118.37C337.08 114.79 341.62 106.06 341.62 106.06C346.643 96.0691 350.582 85.5693 353.37 74.7401C355.179 68.0277 356.634 61.225 357.73 54.3601C358.27 50.9401 358.73 47.4901 359.18 44.0501C359.7 40.7842 359.601 37.4497 358.89 34.2201C358.741 33.6395 358.558 33.0684 358.34 32.5101C356.736 28.4555 353.755 25.0955 349.92 23.0201C347.073 21.479 343.887 20.6745 340.65 20.6801V20.6801Z" fill="url(#paint21_linear)"/>
<path d="M340.65 20.6801C339.061 20.6765 337.479 20.8748 335.94 21.2701C339.444 26.3375 342.423 31.7488 344.83 37.4201C346.469 41.0709 346.905 45.1481 346.074 49.0628C345.244 52.9775 343.191 56.527 340.211 59.1983C337.232 61.8696 333.48 63.5245 329.498 63.9239C325.516 64.3232 321.511 63.4464 318.06 61.4201L316.12 68.5601C312.6 80.3401 310.12 84.8901 310.12 84.8901C308.756 88.0789 307.13 91.1494 305.26 94.0701C303.97 95.9901 302.32 97.9101 300.06 98.6401C299.273 98.9109 298.433 98.9898 297.61 98.8701C296.718 98.7656 295.857 98.4798 295.08 98.0301C293.594 96.9088 292.411 95.4342 291.64 93.7401C290.684 91.8661 289.826 89.9435 289.07 87.9801C287.39 83.9201 284.82 73.9201 284.82 73.9201L282.15 63.4401L279.48 52.9001L277.58 45.9601C272.58 27.9601 265.66 19.0301 265.66 19.0301C260.222 11.2881 252.529 5.41112 243.63 2.20009C233.3 -1.49991 222.45 0.560087 222.45 0.560087C205.45 3.91009 196.52 15.5601 192.59 21.1801C194.401 21.6488 196.134 22.3835 197.73 23.3601C199.855 24.6371 201.693 26.3393 203.13 28.3601C205.69 32.0001 206.26 36.5301 206.78 40.8501C207.825 50.2218 209.648 59.4904 212.23 68.5601C217.99 49.4601 224.9 40.5601 224.9 40.5601C225.672 39.5977 226.598 38.7699 227.64 38.1101C228.182 37.7771 228.789 37.5624 229.42 37.4801C230.59 37.376 231.762 37.6645 232.75 38.3001C232.928 38.4188 233.099 38.5491 233.26 38.6901C234.162 39.4955 234.938 40.4328 235.56 41.4701C236.998 44.0416 238.245 46.7155 239.29 49.4701C241.45 55.5601 243.29 62.9901 243.29 62.9901L248.79 84.6601C252.79 99.4101 256.18 106.57 256.18 106.57C264.52 125.68 277.29 131.07 277.29 131.07C283.51 134.394 290.429 136.2 297.48 136.34C304.208 136.531 310.883 135.097 316.94 132.16C323.581 128.894 329.407 124.182 333.99 118.37C337.08 114.79 341.62 106.06 341.62 106.06C346.643 96.0691 350.582 85.5693 353.37 74.7401C355.179 68.0277 356.634 61.225 357.73 54.3601C358.27 50.9401 358.73 47.4901 359.18 44.0501C359.7 40.7842 359.601 37.4497 358.89 34.2201C358.741 33.6395 358.558 33.0684 358.34 32.5101C356.736 28.4555 353.755 25.0955 349.92 23.0201C347.073 21.479 343.887 20.6745 340.65 20.6801V20.6801Z" fill="url(#paint22_radial)"/>
<path d="M340.65 20.6801C339.061 20.6765 337.479 20.8748 335.94 21.2701C339.444 26.3375 342.423 31.7488 344.83 37.4201C346.469 41.0709 346.905 45.1481 346.074 49.0628C345.244 52.9775 343.191 56.527 340.211 59.1983C337.232 61.8696 333.48 63.5245 329.498 63.9239C325.516 64.3232 321.511 63.4464 318.06 61.4201L316.12 68.5601C312.6 80.3401 310.12 84.8901 310.12 84.8901C308.756 88.0789 307.13 91.1494 305.26 94.0701C303.97 95.9901 302.32 97.9101 300.06 98.6401C299.273 98.9109 298.433 98.9898 297.61 98.8701C296.718 98.7656 295.857 98.4798 295.08 98.0301C293.594 96.9088 292.411 95.4342 291.64 93.7401C290.684 91.8661 289.826 89.9435 289.07 87.9801C287.39 83.9201 284.82 73.9201 284.82 73.9201L282.15 63.4401L279.48 52.9001L277.58 45.9601C272.58 27.9601 265.66 19.0301 265.66 19.0301C260.222 11.2881 252.529 5.41112 243.63 2.20009C233.3 -1.49991 222.45 0.560087 222.45 0.560087C205.45 3.91009 196.52 15.5601 192.59 21.1801C194.401 21.6488 196.134 22.3835 197.73 23.3601C199.855 24.6371 201.693 26.3393 203.13 28.3601C205.69 32.0001 206.26 36.5301 206.78 40.8501C207.825 50.2218 209.648 59.4904 212.23 68.5601C217.99 49.4601 224.9 40.5601 224.9 40.5601C225.672 39.5977 226.598 38.7699 227.64 38.1101C228.182 37.7771 228.789 37.5624 229.42 37.4801C230.59 37.376 231.762 37.6645 232.75 38.3001C232.928 38.4188 233.099 38.5491 233.26 38.6901C234.162 39.4955 234.938 40.4328 235.56 41.4701C236.998 44.0416 238.245 46.7155 239.29 49.4701C241.45 55.5601 243.29 62.9901 243.29 62.9901L248.79 84.6601C252.79 99.4101 256.18 106.57 256.18 106.57C264.52 125.68 277.29 131.07 277.29 131.07C283.51 134.394 290.429 136.2 297.48 136.34C304.208 136.531 310.883 135.097 316.94 132.16C323.581 128.894 329.407 124.182 333.99 118.37C337.08 114.79 341.62 106.06 341.62 106.06C346.643 96.0691 350.582 85.5693 353.37 74.7401C355.179 68.0277 356.634 61.225 357.73 54.3601C358.27 50.9401 358.73 47.4901 359.18 44.0501C359.7 40.7842 359.601 37.4497 358.89 34.2201C358.741 33.6395 358.558 33.0684 358.34 32.5101C356.736 28.4555 353.755 25.0955 349.92 23.0201C347.073 21.479 343.887 20.6745 340.65 20.6801V20.6801Z" fill="url(#paint23_radial)"/>
<path d="M340.65 20.6801C339.061 20.6765 337.479 20.8748 335.94 21.2701C339.444 26.3375 342.423 31.7488 344.83 37.4201C346.469 41.0709 346.905 45.1481 346.074 49.0628C345.244 52.9775 343.191 56.527 340.211 59.1983C337.232 61.8696 333.48 63.5245 329.498 63.9239C325.516 64.3232 321.511 63.4464 318.06 61.4201L316.12 68.5601C312.6 80.3401 310.12 84.8901 310.12 84.8901C308.756 88.0789 307.13 91.1494 305.26 94.0701C303.97 95.9901 302.32 97.9101 300.06 98.6401C299.273 98.9109 298.433 98.9898 297.61 98.8701C296.718 98.7656 295.857 98.4798 295.08 98.0301C293.594 96.9088 292.411 95.4342 291.64 93.7401C290.684 91.8661 289.826 89.9435 289.07 87.9801C287.39 83.9201 284.82 73.9201 284.82 73.9201L282.15 63.4401L279.48 52.9001L277.58 45.9601C272.58 27.9601 265.66 19.0301 265.66 19.0301C260.222 11.2881 252.529 5.41112 243.63 2.20009C233.3 -1.49991 222.45 0.560087 222.45 0.560087C205.45 3.91009 196.52 15.5601 192.59 21.1801C194.401 21.6488 196.134 22.3835 197.73 23.3601C199.855 24.6371 201.693 26.3393 203.13 28.3601C205.69 32.0001 206.26 36.5301 206.78 40.8501C207.825 50.2218 209.648 59.4904 212.23 68.5601C217.99 49.4601 224.9 40.5601 224.9 40.5601C225.672 39.5977 226.598 38.7699 227.64 38.1101C228.182 37.7771 228.789 37.5624 229.42 37.4801C230.59 37.376 231.762 37.6645 232.75 38.3001C232.928 38.4188 233.099 38.5491 233.26 38.6901C234.162 39.4955 234.938 40.4328 235.56 41.4701C236.998 44.0416 238.245 46.7155 239.29 49.4701C241.45 55.5601 243.29 62.9901 243.29 62.9901L248.79 84.6601C252.79 99.4101 256.18 106.57 256.18 106.57C264.52 125.68 277.29 131.07 277.29 131.07C283.51 134.394 290.429 136.2 297.48 136.34C304.208 136.531 310.883 135.097 316.94 132.16C323.581 128.894 329.407 124.182 333.99 118.37C337.08 114.79 341.62 106.06 341.62 106.06C346.643 96.0691 350.582 85.5693 353.37 74.7401C355.179 68.0277 356.634 61.225 357.73 54.3601C358.27 50.9401 358.73 47.4901 359.18 44.0501C359.7 40.7842 359.601 37.4497 358.89 34.2201C358.741 33.6395 358.558 33.0684 358.34 32.5101C356.736 28.4555 353.755 25.0955 349.92 23.0201C347.073 21.479 343.887 20.6745 340.65 20.6801V20.6801Z" fill="url(#paint24_radial)"/>
<path d="M340.65 20.6801C339.061 20.6765 337.479 20.8748 335.94 21.2701C339.444 26.3375 342.423 31.7488 344.83 37.4201C346.469 41.0709 346.905 45.1481 346.074 49.0628C345.244 52.9775 343.191 56.527 340.211 59.1983C337.232 61.8696 333.48 63.5245 329.498 63.9239C325.516 64.3232 321.511 63.4464 318.06 61.4201L316.12 68.5601C312.6 80.3401 310.12 84.8901 310.12 84.8901C308.756 88.0789 307.13 91.1494 305.26 94.0701C303.97 95.9901 302.32 97.9101 300.06 98.6401C299.273 98.9109 298.433 98.9898 297.61 98.8701C296.718 98.7656 295.857 98.4798 295.08 98.0301C293.594 96.9088 292.411 95.4342 291.64 93.7401C290.684 91.8661 289.826 89.9435 289.07 87.9801C287.39 83.9201 284.82 73.9201 284.82 73.9201L282.15 63.4401L279.48 52.9001L277.58 45.9601C272.58 27.9601 265.66 19.0301 265.66 19.0301C260.222 11.2881 252.529 5.41112 243.63 2.20009C233.3 -1.49991 222.45 0.560087 222.45 0.560087C205.45 3.91009 196.52 15.5601 192.59 21.1801C194.401 21.6488 196.134 22.3835 197.73 23.3601C199.855 24.6371 201.693 26.3393 203.13 28.3601C205.69 32.0001 206.26 36.5301 206.78 40.8501C207.825 50.2218 209.648 59.4904 212.23 68.5601C217.99 49.4601 224.9 40.5601 224.9 40.5601C225.672 39.5977 226.598 38.7699 227.64 38.1101C228.182 37.7771 228.789 37.5624 229.42 37.4801C230.59 37.376 231.762 37.6645 232.75 38.3001C232.928 38.4188 233.099 38.5491 233.26 38.6901C234.162 39.4955 234.938 40.4328 235.56 41.4701C236.998 44.0416 238.245 46.7155 239.29 49.4701C241.45 55.5601 243.29 62.9901 243.29 62.9901L248.79 84.6601C252.79 99.4101 256.18 106.57 256.18 106.57C264.52 125.68 277.29 131.07 277.29 131.07C283.51 134.394 290.429 136.2 297.48 136.34C304.208 136.531 310.883 135.097 316.94 132.16C323.581 128.894 329.407 124.182 333.99 118.37C337.08 114.79 341.62 106.06 341.62 106.06C346.643 96.0691 350.582 85.5693 353.37 74.7401C355.179 68.0277 356.634 61.225 357.73 54.3601C358.27 50.9401 358.73 47.4901 359.18 44.0501C359.7 40.7842 359.601 37.4497 358.89 34.2201C358.741 33.6395 358.558 33.0684 358.34 32.5101C356.736 28.4555 353.755 25.0955 349.92 23.0201C347.073 21.479 343.887 20.6745 340.65 20.6801V20.6801Z" fill="url(#paint25_radial)"/>
<path d="M340.65 20.6801C339.061 20.6765 337.479 20.8748 335.94 21.2701C339.444 26.3375 342.423 31.7488 344.83 37.4201C346.469 41.0709 346.905 45.1481 346.074 49.0628C345.244 52.9775 343.191 56.527 340.211 59.1983C337.232 61.8696 333.48 63.5245 329.498 63.9239C325.516 64.3232 321.511 63.4464 318.06 61.4201L316.12 68.5601C312.6 80.3401 310.12 84.8901 310.12 84.8901C308.756 88.0789 307.13 91.1494 305.26 94.0701C303.97 95.9901 302.32 97.9101 300.06 98.6401C299.273 98.9109 298.433 98.9898 297.61 98.8701C296.718 98.7656 295.857 98.4798 295.08 98.0301C293.594 96.9088 292.411 95.4342 291.64 93.7401C290.684 91.8661 289.826 89.9435 289.07 87.9801C287.39 83.9201 284.82 73.9201 284.82 73.9201L282.15 63.4401L279.48 52.9001L277.58 45.9601C272.58 27.9601 265.66 19.0301 265.66 19.0301C260.222 11.2881 252.529 5.41112 243.63 2.20009C233.3 -1.49991 222.45 0.560087 222.45 0.560087C205.45 3.91009 196.52 15.5601 192.59 21.1801C194.401 21.6488 196.134 22.3835 197.73 23.3601C199.855 24.6371 201.693 26.3393 203.13 28.3601C205.69 32.0001 206.26 36.5301 206.78 40.8501C207.825 50.2218 209.648 59.4904 212.23 68.5601C217.99 49.4601 224.9 40.5601 224.9 40.5601C225.672 39.5977 226.598 38.7699 227.64 38.1101C228.182 37.7771 228.789 37.5624 229.42 37.4801C230.59 37.376 231.762 37.6645 232.75 38.3001C232.928 38.4188 233.099 38.5491 233.26 38.6901C234.162 39.4955 234.938 40.4328 235.56 41.4701C236.998 44.0416 238.245 46.7155 239.29 49.4701C241.45 55.5601 243.29 62.9901 243.29 62.9901L248.79 84.6601C252.79 99.4101 256.18 106.57 256.18 106.57C264.52 125.68 277.29 131.07 277.29 131.07C283.51 134.394 290.429 136.2 297.48 136.34C304.208 136.531 310.883 135.097 316.94 132.16C323.581 128.894 329.407 124.182 333.99 118.37C337.08 114.79 341.62 106.06 341.62 106.06C346.643 96.0691 350.582 85.5693 353.37 74.7401C355.179 68.0277 356.634 61.225 357.73 54.3601C358.27 50.9401 358.73 47.4901 359.18 44.0501C359.7 40.7842 359.601 37.4497 358.89 34.2201C358.741 33.6395 358.558 33.0684 358.34 32.5101C356.736 28.4555 353.755 25.0955 349.92 23.0201C347.073 21.479 343.887 20.6745 340.65 20.6801V20.6801Z" fill="url(#paint26_radial)"/>
<path d="M340.65 20.6801C339.061 20.6765 337.479 20.8748 335.94 21.2701C339.444 26.3375 342.423 31.7488 344.83 37.4201C346.469 41.0709 346.905 45.1481 346.074 49.0628C345.244 52.9775 343.191 56.527 340.211 59.1983C337.232 61.8696 333.48 63.5245 329.498 63.9239C325.516 64.3232 321.511 63.4464 318.06 61.4201L316.12 68.5601C312.6 80.3401 310.12 84.8901 310.12 84.8901C308.756 88.0789 307.13 91.1494 305.26 94.0701C303.97 95.9901 302.32 97.9101 300.06 98.6401C299.273 98.9109 298.433 98.9898 297.61 98.8701C296.718 98.7656 295.857 98.4798 295.08 98.0301C293.594 96.9088 292.411 95.4342 291.64 93.7401C290.684 91.8661 289.826 89.9435 289.07 87.9801C287.39 83.9201 284.82 73.9201 284.82 73.9201L282.15 63.4401L279.48 52.9001L277.58 45.9601C272.58 27.9601 265.66 19.0301 265.66 19.0301C260.222 11.2881 252.529 5.41112 243.63 2.20009C233.3 -1.49991 222.45 0.560087 222.45 0.560087C205.45 3.91009 196.52 15.5601 192.59 21.1801C194.401 21.6488 196.134 22.3835 197.73 23.3601C199.855 24.6371 201.693 26.3393 203.13 28.3601C205.69 32.0001 206.26 36.5301 206.78 40.8501C207.825 50.2218 209.648 59.4904 212.23 68.5601C217.99 49.4601 224.9 40.5601 224.9 40.5601C225.672 39.5977 226.598 38.7699 227.64 38.1101C228.182 37.7771 228.789 37.5624 229.42 37.4801C230.59 37.376 231.762 37.6645 232.75 38.3001C232.928 38.4188 233.099 38.5491 233.26 38.6901C234.162 39.4955 234.938 40.4328 235.56 41.4701C236.998 44.0416 238.245 46.7155 239.29 49.4701C241.45 55.5601 243.29 62.9901 243.29 62.9901L248.79 84.6601C252.79 99.4101 256.18 106.57 256.18 106.57C264.52 125.68 277.29 131.07 277.29 131.07C283.51 134.394 290.429 136.2 297.48 136.34C304.208 136.531 310.883 135.097 316.94 132.16C323.581 128.894 329.407 124.182 333.99 118.37C337.08 114.79 341.62 106.06 341.62 106.06C346.643 96.0691 350.582 85.5693 353.37 74.7401C355.179 68.0277 356.634 61.225 357.73 54.3601C358.27 50.9401 358.73 47.4901 359.18 44.0501C359.7 40.7842 359.601 37.4497 358.89 34.2201C358.741 33.6395 358.558 33.0684 358.34 32.5101C356.736 28.4555 353.755 25.0955 349.92 23.0201C347.073 21.479 343.887 20.6745 340.65 20.6801V20.6801Z" fill="url(#paint27_radial)"/>
<path d="M340.65 20.6801C339.061 20.6765 337.479 20.8748 335.94 21.2701C339.444 26.3375 342.423 31.7488 344.83 37.4201C346.469 41.0709 346.905 45.1481 346.074 49.0628C345.244 52.9775 343.191 56.527 340.211 59.1983C337.232 61.8696 333.48 63.5245 329.498 63.9239C325.516 64.3232 321.511 63.4464 318.06 61.4201L316.12 68.5601C312.6 80.3401 310.12 84.8901 310.12 84.8901C308.756 88.0789 307.13 91.1494 305.26 94.0701C303.97 95.9901 302.32 97.9101 300.06 98.6401C299.273 98.9109 298.433 98.9898 297.61 98.8701C296.718 98.7656 295.857 98.4798 295.08 98.0301C293.594 96.9088 292.411 95.4342 291.64 93.7401C290.684 91.8661 289.826 89.9435 289.07 87.9801C287.39 83.9201 284.82 73.9201 284.82 73.9201L282.15 63.4401L279.48 52.9001L277.58 45.9601C272.58 27.9601 265.66 19.0301 265.66 19.0301C260.222 11.2881 252.529 5.41112 243.63 2.20009C233.3 -1.49991 222.45 0.560087 222.45 0.560087C205.45 3.91009 196.52 15.5601 192.59 21.1801C194.401 21.6488 196.134 22.3835 197.73 23.3601C199.855 24.6371 201.693 26.3393 203.13 28.3601C205.69 32.0001 206.26 36.5301 206.78 40.8501C207.825 50.2218 209.648 59.4904 212.23 68.5601C217.99 49.4601 224.9 40.5601 224.9 40.5601C225.672 39.5977 226.598 38.7699 227.64 38.1101C228.182 37.7771 228.789 37.5624 229.42 37.4801C230.59 37.376 231.762 37.6645 232.75 38.3001C232.928 38.4188 233.099 38.5491 233.26 38.6901C234.162 39.4955 234.938 40.4328 235.56 41.4701C236.998 44.0416 238.245 46.7155 239.29 49.4701C241.45 55.5601 243.29 62.9901 243.29 62.9901L248.79 84.6601C252.79 99.4101 256.18 106.57 256.18 106.57C264.52 125.68 277.29 131.07 277.29 131.07C283.51 134.394 290.429 136.2 297.48 136.34C304.208 136.531 310.883 135.097 316.94 132.16C323.581 128.894 329.407 124.182 333.99 118.37C337.08 114.79 341.62 106.06 341.62 106.06C346.643 96.0691 350.582 85.5693 353.37 74.7401C355.179 68.0277 356.634 61.225 357.73 54.3601C358.27 50.9401 358.73 47.4901 359.18 44.0501C359.7 40.7842 359.601 37.4497 358.89 34.2201C358.741 33.6395 358.558 33.0684 358.34 32.5101C356.736 28.4555 353.755 25.0955 349.92 23.0201C347.073 21.479 343.887 20.6745 340.65 20.6801V20.6801Z" fill="url(#paint28_radial)"/>
<path d="M340.65 20.6801C339.061 20.6765 337.479 20.8748 335.94 21.2701C339.444 26.3375 342.423 31.7488 344.83 37.4201C346.469 41.0709 346.905 45.1481 346.074 49.0628C345.244 52.9775 343.191 56.527 340.211 59.1983C337.232 61.8696 333.48 63.5245 329.498 63.9239C325.516 64.3232 321.511 63.4464 318.06 61.4201L316.12 68.5601C312.6 80.3401 310.12 84.8901 310.12 84.8901C308.756 88.0789 307.13 91.1494 305.26 94.0701C303.97 95.9901 302.32 97.9101 300.06 98.6401C299.273 98.9109 298.433 98.9898 297.61 98.8701C296.718 98.7656 295.857 98.4798 295.08 98.0301C293.594 96.9088 292.411 95.4342 291.64 93.7401C290.684 91.8661 289.826 89.9435 289.07 87.9801C287.39 83.9201 284.82 73.9201 284.82 73.9201L282.15 63.4401L279.48 52.9001L277.58 45.9601C272.58 27.9601 265.66 19.0301 265.66 19.0301C260.222 11.2881 252.529 5.41112 243.63 2.20009C233.3 -1.49991 222.45 0.560087 222.45 0.560087C205.45 3.91009 196.52 15.5601 192.59 21.1801C194.401 21.6488 196.134 22.3835 197.73 23.3601C199.855 24.6371 201.693 26.3393 203.13 28.3601C205.69 32.0001 206.26 36.5301 206.78 40.8501C207.825 50.2218 209.648 59.4904 212.23 68.5601C217.99 49.4601 224.9 40.5601 224.9 40.5601C225.672 39.5977 226.598 38.7699 227.64 38.1101C228.182 37.7771 228.789 37.5624 229.42 37.4801C230.59 37.376 231.762 37.6645 232.75 38.3001C232.928 38.4188 233.099 38.5491 233.26 38.6901C234.162 39.4955 234.938 40.4328 235.56 41.4701C236.998 44.0416 238.245 46.7155 239.29 49.4701C241.45 55.5601 243.29 62.9901 243.29 62.9901L248.79 84.6601C252.79 99.4101 256.18 106.57 256.18 106.57C264.52 125.68 277.29 131.07 277.29 131.07C283.51 134.394 290.429 136.2 297.48 136.34C304.208 136.531 310.883 135.097 316.94 132.16C323.581 128.894 329.407 124.182 333.99 118.37C337.08 114.79 341.62 106.06 341.62 106.06C346.643 96.0691 350.582 85.5693 353.37 74.7401C355.179 68.0277 356.634 61.225 357.73 54.3601C358.27 50.9401 358.73 47.4901 359.18 44.0501C359.7 40.7842 359.601 37.4497 358.89 34.2201C358.741 33.6395 358.558 33.0684 358.34 32.5101C356.736 28.4555 353.755 25.0955 349.92 23.0201C347.073 21.479 343.887 20.6745 340.65 20.6801V20.6801Z" fill="url(#paint29_radial)"/>
<path d="M340.65 20.6801C339.061 20.6765 337.479 20.8748 335.94 21.2701C339.444 26.3375 342.423 31.7488 344.83 37.4201C346.469 41.0709 346.905 45.1481 346.074 49.0628C345.244 52.9775 343.191 56.527 340.211 59.1983C337.232 61.8696 333.48 63.5245 329.498 63.9239C325.516 64.3232 321.511 63.4464 318.06 61.4201L316.12 68.5601C312.6 80.3401 310.12 84.8901 310.12 84.8901C308.756 88.0789 307.13 91.1494 305.26 94.0701C303.97 95.9901 302.32 97.9101 300.06 98.6401C299.273 98.9109 298.433 98.9898 297.61 98.8701C296.718 98.7656 295.857 98.4798 295.08 98.0301C293.594 96.9088 292.411 95.4342 291.64 93.7401C290.684 91.8661 289.826 89.9435 289.07 87.9801C287.39 83.9201 284.82 73.9201 284.82 73.9201L282.15 63.4401L279.48 52.9001L277.58 45.9601C272.58 27.9601 265.66 19.0301 265.66 19.0301C260.222 11.2881 252.529 5.41112 243.63 2.20009C233.3 -1.49991 222.45 0.560087 222.45 0.560087C205.45 3.91009 196.52 15.5601 192.59 21.1801C194.401 21.6488 196.134 22.3835 197.73 23.3601C199.855 24.6371 201.693 26.3393 203.13 28.3601C205.69 32.0001 206.26 36.5301 206.78 40.8501C207.825 50.2218 209.648 59.4904 212.23 68.5601C217.99 49.4601 224.9 40.5601 224.9 40.5601C225.672 39.5977 226.598 38.7699 227.64 38.1101C228.182 37.7771 228.789 37.5624 229.42 37.4801C230.59 37.376 231.762 37.6645 232.75 38.3001C232.928 38.4188 233.099 38.5491 233.26 38.6901C234.162 39.4955 234.938 40.4328 235.56 41.4701C236.998 44.0416 238.245 46.7155 239.29 49.4701C241.45 55.5601 243.29 62.9901 243.29 62.9901L248.79 84.6601C252.79 99.4101 256.18 106.57 256.18 106.57C264.52 125.68 277.29 131.07 277.29 131.07C283.51 134.394 290.429 136.2 297.48 136.34C304.208 136.531 310.883 135.097 316.94 132.16C323.581 128.894 329.407 124.182 333.99 118.37C337.08 114.79 341.62 106.06 341.62 106.06C346.643 96.0691 350.582 85.5693 353.37 74.7401C355.179 68.0277 356.634 61.225 357.73 54.3601C358.27 50.9401 358.73 47.4901 359.18 44.0501C359.7 40.7842 359.601 37.4497 358.89 34.2201C358.741 33.6395 358.558 33.0684 358.34 32.5101C356.736 28.4555 353.755 25.0955 349.92 23.0201C347.073 21.479 343.887 20.6745 340.65 20.6801V20.6801Z" fill="url(#paint30_radial)"/>
<path d="M340.65 20.6801C339.061 20.6765 337.479 20.8748 335.94 21.2701C339.444 26.3375 342.423 31.7488 344.83 37.4201C346.469 41.0709 346.905 45.1481 346.074 49.0628C345.244 52.9775 343.191 56.527 340.211 59.1983C337.232 61.8696 333.48 63.5245 329.498 63.9239C325.516 64.3232 321.511 63.4464 318.06 61.4201L316.12 68.5601C312.6 80.3401 310.12 84.8901 310.12 84.8901C308.756 88.0789 307.13 91.1494 305.26 94.0701C303.97 95.9901 302.32 97.9101 300.06 98.6401C299.273 98.9109 298.433 98.9898 297.61 98.8701C296.718 98.7656 295.857 98.4798 295.08 98.0301C293.594 96.9088 292.411 95.4342 291.64 93.7401C290.684 91.8661 289.826 89.9435 289.07 87.9801C287.39 83.9201 284.82 73.9201 284.82 73.9201L282.15 63.4401L279.48 52.9001L277.58 45.9601C272.58 27.9601 265.66 19.0301 265.66 19.0301C260.222 11.2881 252.529 5.41112 243.63 2.20009C233.3 -1.49991 222.45 0.560087 222.45 0.560087C205.45 3.91009 196.52 15.5601 192.59 21.1801C194.401 21.6488 196.134 22.3835 197.73 23.3601C199.855 24.6371 201.693 26.3393 203.13 28.3601C205.69 32.0001 206.26 36.5301 206.78 40.8501C207.825 50.2218 209.648 59.4904 212.23 68.5601C217.99 49.4601 224.9 40.5601 224.9 40.5601C225.672 39.5977 226.598 38.7699 227.64 38.1101C228.182 37.7771 228.789 37.5624 229.42 37.4801C230.59 37.376 231.762 37.6645 232.75 38.3001C232.928 38.4188 233.099 38.5491 233.26 38.6901C234.162 39.4955 234.938 40.4328 235.56 41.4701C236.998 44.0416 238.245 46.7155 239.29 49.4701C241.45 55.5601 243.29 62.9901 243.29 62.9901L248.79 84.6601C252.79 99.4101 256.18 106.57 256.18 106.57C264.52 125.68 277.29 131.07 277.29 131.07C283.51 134.394 290.429 136.2 297.48 136.34C304.208 136.531 310.883 135.097 316.94 132.16C323.581 128.894 329.407 124.182 333.99 118.37C337.08 114.79 341.62 106.06 341.62 106.06C346.643 96.0691 350.582 85.5693 353.37 74.7401C355.179 68.0277 356.634 61.225 357.73 54.3601C358.27 50.9401 358.73 47.4901 359.18 44.0501C359.7 40.7842 359.601 37.4497 358.89 34.2201C358.741 33.6395 358.558 33.0684 358.34 32.5101C356.736 28.4555 353.755 25.0955 349.92 23.0201C347.073 21.479 343.887 20.6745 340.65 20.6801V20.6801Z" fill="url(#paint31_radial)"/>
<path d="M340.65 20.6801C339.061 20.6765 337.479 20.8748 335.94 21.2701C339.444 26.3375 342.423 31.7488 344.83 37.4201C346.469 41.0709 346.905 45.1481 346.074 49.0628C345.244 52.9775 343.191 56.527 340.211 59.1983C337.232 61.8696 333.48 63.5245 329.498 63.9239C325.516 64.3232 321.511 63.4464 318.06 61.4201L316.12 68.5601C312.6 80.3401 310.12 84.8901 310.12 84.8901C308.756 88.0789 307.13 91.1494 305.26 94.0701C303.97 95.9901 302.32 97.9101 300.06 98.6401C299.273 98.9109 298.433 98.9898 297.61 98.8701C296.718 98.7656 295.857 98.4798 295.08 98.0301C293.594 96.9088 292.411 95.4342 291.64 93.7401C290.684 91.8661 289.826 89.9435 289.07 87.9801C287.39 83.9201 284.82 73.9201 284.82 73.9201L282.15 63.4401L279.48 52.9001L277.58 45.9601C272.58 27.9601 265.66 19.0301 265.66 19.0301C260.222 11.2881 252.529 5.41112 243.63 2.20009C233.3 -1.49991 222.45 0.560087 222.45 0.560087C205.45 3.91009 196.52 15.5601 192.59 21.1801C194.401 21.6488 196.134 22.3835 197.73 23.3601C199.855 24.6371 201.693 26.3393 203.13 28.3601C205.69 32.0001 206.26 36.5301 206.78 40.8501C207.825 50.2218 209.648 59.4904 212.23 68.5601C217.99 49.4601 224.9 40.5601 224.9 40.5601C225.672 39.5977 226.598 38.7699 227.64 38.1101C228.182 37.7771 228.789 37.5624 229.42 37.4801C230.59 37.376 231.762 37.6645 232.75 38.3001C232.928 38.4188 233.099 38.5491 233.26 38.6901C234.162 39.4955 234.938 40.4328 235.56 41.4701C236.998 44.0416 238.245 46.7155 239.29 49.4701C241.45 55.5601 243.29 62.9901 243.29 62.9901L248.79 84.6601C252.79 99.4101 256.18 106.57 256.18 106.57C264.52 125.68 277.29 131.07 277.29 131.07C283.51 134.394 290.429 136.2 297.48 136.34C304.208 136.531 310.883 135.097 316.94 132.16C323.581 128.894 329.407 124.182 333.99 118.37C337.08 114.79 341.62 106.06 341.62 106.06C346.643 96.0691 350.582 85.5693 353.37 74.7401C355.179 68.0277 356.634 61.225 357.73 54.3601C358.27 50.9401 358.73 47.4901 359.18 44.0501C359.7 40.7842 359.601 37.4497 358.89 34.2201C358.741 33.6395 358.558 33.0684 358.34 32.5101C356.736 28.4555 353.755 25.0955 349.92 23.0201C347.073 21.479 343.887 20.6745 340.65 20.6801V20.6801Z" fill="url(#paint32_radial)"/>
<path d="M340.65 20.6801C339.061 20.6765 337.479 20.8748 335.94 21.2701C339.444 26.3375 342.423 31.7488 344.83 37.4201C346.469 41.0709 346.905 45.1481 346.074 49.0628C345.244 52.9775 343.191 56.527 340.211 59.1983C337.232 61.8696 333.48 63.5245 329.498 63.9239C325.516 64.3232 321.511 63.4464 318.06 61.4201L316.12 68.5601C312.6 80.3401 310.12 84.8901 310.12 84.8901C308.756 88.0789 307.13 91.1494 305.26 94.0701C303.97 95.9901 302.32 97.9101 300.06 98.6401C299.273 98.9109 298.433 98.9898 297.61 98.8701C296.718 98.7656 295.857 98.4798 295.08 98.0301C293.594 96.9088 292.411 95.4342 291.64 93.7401C290.684 91.8661 289.826 89.9435 289.07 87.9801C287.39 83.9201 284.82 73.9201 284.82 73.9201L282.15 63.4401L279.48 52.9001L277.58 45.9601C272.58 27.9601 265.66 19.0301 265.66 19.0301C260.222 11.2881 252.529 5.41112 243.63 2.20009C233.3 -1.49991 222.45 0.560087 222.45 0.560087C205.45 3.91009 196.52 15.5601 192.59 21.1801C194.401 21.6488 196.134 22.3835 197.73 23.3601C199.855 24.6371 201.693 26.3393 203.13 28.3601C205.69 32.0001 206.26 36.5301 206.78 40.8501C207.825 50.2218 209.648 59.4904 212.23 68.5601C217.99 49.4601 224.9 40.5601 224.9 40.5601C225.672 39.5977 226.598 38.7699 227.64 38.1101C228.182 37.7771 228.789 37.5624 229.42 37.4801C230.59 37.376 231.762 37.6645 232.75 38.3001C232.928 38.4188 233.099 38.5491 233.26 38.6901C234.162 39.4955 234.938 40.4328 235.56 41.4701C236.998 44.0416 238.245 46.7155 239.29 49.4701C241.45 55.5601 243.29 62.9901 243.29 62.9901L248.79 84.6601C252.79 99.4101 256.18 106.57 256.18 106.57C264.52 125.68 277.29 131.07 277.29 131.07C283.51 134.394 290.429 136.2 297.48 136.34C304.208 136.531 310.883 135.097 316.94 132.16C323.581 128.894 329.407 124.182 333.99 118.37C337.08 114.79 341.62 106.06 341.62 106.06C346.643 96.0691 350.582 85.5693 353.37 74.7401C355.179 68.0277 356.634 61.225 357.73 54.3601C358.27 50.9401 358.73 47.4901 359.18 44.0501C359.7 40.7842 359.601 37.4497 358.89 34.2201C358.741 33.6395 358.558 33.0684 358.34 32.5101C356.736 28.4555 353.755 25.0955 349.92 23.0201C347.073 21.479 343.887 20.6745 340.65 20.6801V20.6801Z" fill="url(#paint33_radial)"/>
<path d="M340.65 20.6801C339.061 20.6765 337.479 20.8748 335.94 21.2701C339.444 26.3375 342.423 31.7488 344.83 37.4201C346.469 41.0709 346.905 45.1481 346.074 49.0628C345.244 52.9775 343.191 56.527 340.211 59.1983C337.232 61.8696 333.48 63.5245 329.498 63.9239C325.516 64.3232 321.511 63.4464 318.06 61.4201L316.12 68.5601C312.6 80.3401 310.12 84.8901 310.12 84.8901C308.756 88.0789 307.13 91.1494 305.26 94.0701C303.97 95.9901 302.32 97.9101 300.06 98.6401C299.273 98.9109 298.433 98.9898 297.61 98.8701C296.718 98.7656 295.857 98.4798 295.08 98.0301C293.594 96.9088 292.411 95.4342 291.64 93.7401C290.684 91.8661 289.826 89.9435 289.07 87.9801C287.39 83.9201 284.82 73.9201 284.82 73.9201L282.15 63.4401L279.48 52.9001L277.58 45.9601C272.58 27.9601 265.66 19.0301 265.66 19.0301C260.222 11.2881 252.529 5.41112 243.63 2.20009C233.3 -1.49991 222.45 0.560087 222.45 0.560087C205.45 3.91009 196.52 15.5601 192.59 21.1801C194.401 21.6488 196.134 22.3835 197.73 23.3601C199.855 24.6371 201.693 26.3393 203.13 28.3601C205.69 32.0001 206.26 36.5301 206.78 40.8501C207.825 50.2218 209.648 59.4904 212.23 68.5601C217.99 49.4601 224.9 40.5601 224.9 40.5601C225.672 39.5977 226.598 38.7699 227.64 38.1101C228.182 37.7771 228.789 37.5624 229.42 37.4801C230.59 37.376 231.762 37.6645 232.75 38.3001C232.928 38.4188 233.099 38.5491 233.26 38.6901C234.162 39.4955 234.938 40.4328 235.56 41.4701C236.998 44.0416 238.245 46.7155 239.29 49.4701C241.45 55.5601 243.29 62.9901 243.29 62.9901L248.79 84.6601C252.79 99.4101 256.18 106.57 256.18 106.57C264.52 125.68 277.29 131.07 277.29 131.07C283.51 134.394 290.429 136.2 297.48 136.34C304.208 136.531 310.883 135.097 316.94 132.16C323.581 128.894 329.407 124.182 333.99 118.37C337.08 114.79 341.62 106.06 341.62 106.06C346.643 96.0691 350.582 85.5693 353.37 74.7401C355.179 68.0277 356.634 61.225 357.73 54.3601C358.27 50.9401 358.73 47.4901 359.18 44.0501C359.7 40.7842 359.601 37.4497 358.89 34.2201C358.741 33.6395 358.558 33.0684 358.34 32.5101C356.736 28.4555 353.755 25.0955 349.92 23.0201C347.073 21.479 343.887 20.6745 340.65 20.6801V20.6801Z" fill="url(#paint34_linear)"/>
</g>
<defs>
<linearGradient id="paint0_linear" x1="177.412" y1="92.13" x2="325.652" y2="32.2" gradientUnits="userSpaceOnUse">
<stop offset="0.13" stop-color="#1CBBF3"/>
<stop offset="0.34" stop-color="#1F99A5"/>
<stop offset="0.45" stop-color="#209CA6"/>
<stop offset="0.51" stop-color="#24A4AA"/>
<stop offset="0.57" stop-color="#2BB3B0"/>
<stop offset="0.6" stop-color="#30BDB4"/>
<stop offset="0.79" stop-color="#38BA90"/>
<stop offset="1" stop-color="#60F05A"/>
</linearGradient>
<radialGradient id="paint1_radial" cx="0" cy="0" r="1" gradientUnits="userSpaceOnUse" gradientTransform="translate(277.334 56.5486) rotate(74.32) scale(70.85 53.846)">
<stop stop-color="#227B60"/>
<stop offset="0.14" stop-color="#227B60" stop-opacity="0.81"/>
<stop offset="0.58" stop-color="#227B60" stop-opacity="0.23"/>
<stop offset="0.78" stop-color="#227B60" stop-opacity="0"/>
</radialGradient>
<radialGradient id="paint2_radial" cx="0" cy="0" r="1" gradientUnits="userSpaceOnUse" gradientTransform="translate(287.532 54.3882) rotate(91.1458) scale(47.9096 36.4063)">
<stop stop-color="#227B60"/>
<stop offset="0.25" stop-color="#227B60" stop-opacity="0.7"/>
<stop offset="0.71" stop-color="#227B60" stop-opacity="0.2"/>
<stop offset="0.92" stop-color="#227B60" stop-opacity="0"/>
</radialGradient>
<radialGradient id="paint3_radial" cx="0" cy="0" r="1" gradientUnits="userSpaceOnUse" gradientTransform="translate(286.283 53.7302) rotate(88.6) scale(44.66 31.7086)">
<stop stop-color="#227B60"/>
<stop offset="0.07" stop-color="#227B60" stop-opacity="0.9"/>
<stop offset="0.34" stop-color="#227B60" stop-opacity="0.51"/>
<stop offset="0.59" stop-color="#227B60" stop-opacity="0.23"/>
<stop offset="0.79" stop-color="#227B60" stop-opacity="0.06"/>
<stop offset="0.92" stop-color="#227B60" stop-opacity="0"/>
</radialGradient>
<radialGradient id="paint4_radial" cx="0" cy="0" r="1" gradientUnits="userSpaceOnUse" gradientTransform="translate(287.039 51.6845) rotate(88.6) scale(36.06 25.6026)">
<stop stop-color="#227B60"/>
<stop offset="0.36" stop-color="#227B60" stop-opacity="0.63"/>
<stop offset="0.92" stop-color="#227B60" stop-opacity="0"/>
</radialGradient>
<radialGradient id="paint5_radial" cx="0" cy="0" r="1" gradientUnits="userSpaceOnUse" gradientTransform="translate(287.56 53.7276) rotate(88.6) scale(28.76 18.4064)">
<stop stop-color="#20735A"/>
<stop offset="0.15" stop-color="#20745A" stop-opacity="0.93"/>
<stop offset="0.38" stop-color="#21755C" stop-opacity="0.74"/>
<stop offset="0.67" stop-color="#21785D" stop-opacity="0.43"/>
<stop offset="1" stop-color="#227B60" stop-opacity="0"/>
</radialGradient>
<radialGradient id="paint6_radial" cx="0" cy="0" r="1" gradientUnits="userSpaceOnUse" gradientTransform="translate(291.351 56.9075) rotate(23.8) scale(46.28 34.71)">
<stop stop-color="#227A61"/>
<stop offset="0.36" stop-color="#227A61" stop-opacity="0.56"/>
<stop offset="0.72" stop-color="#227A61" stop-opacity="0.16"/>
<stop offset="0.9" stop-color="#227A61" stop-opacity="0"/>
</radialGradient>
<radialGradient id="paint7_radial" cx="0" cy="0" r="1" gradientUnits="userSpaceOnUse" gradientTransform="translate(278 -11.7979) rotate(35.2724) scale(61.7198 56.4337)">
<stop stop-color="#3CD9C3"/>
<stop offset="0.07" stop-color="#3BD7C1" stop-opacity="0.9"/>
<stop offset="0.41" stop-color="#38CEB9" stop-opacity="0.42"/>
<stop offset="0.65" stop-color="#36C8B4" stop-opacity="0.12"/>
<stop offset="0.76" stop-color="#35C6B2" stop-opacity="0"/>
</radialGradient>
<radialGradient id="paint8_radial" cx="0" cy="0" r="1" gradientUnits="userSpaceOnUse" gradientTransform="translate(44656.3 38525.2) rotate(35.2724) scale(10962 7691.4)">
<stop stop-color="#3CD9C3"/>
<stop offset="0.07" stop-color="#3BD7C1" stop-opacity="0.9"/>
<stop offset="0.41" stop-color="#38CEB9" stop-opacity="0.42"/>
<stop offset="0.65" stop-color="#36C8B4" stop-opacity="0.12"/>
<stop offset="0.76" stop-color="#35C6B2" stop-opacity="0"/>
</radialGradient>
<radialGradient id="paint9_radial" cx="0" cy="0" r="1" gradientUnits="userSpaceOnUse" gradientTransform="translate(302.777 67.8952) rotate(100.972) scale(54.4345 67.2661)">
<stop stop-color="#237F66" stop-opacity="0.8"/>
<stop offset="0.06" stop-color="#2C8C70" stop-opacity="0.65"/>
<stop offset="0.21" stop-color="#3DA785" stop-opacity="0.37"/>
<stop offset="0.35" stop-color="#4ABA93" stop-opacity="0.17"/>
<stop offset="0.47" stop-color="#51C59C" stop-opacity="0.04"/>
<stop offset="0.56" stop-color="#54C99F" stop-opacity="0"/>
</radialGradient>
<radialGradient id="paint10_radial" cx="0" cy="0" r="1" gradientUnits="userSpaceOnUse" gradientTransform="translate(269.649 73.179) rotate(-50.82) scale(71.13 76.8204)">
<stop stop-color="#167C8A"/>
<stop offset="0.04" stop-color="#167C8A" stop-opacity="0.93"/>
<stop offset="0.33" stop-color="#177F8D" stop-opacity="0.43"/>
<stop offset="0.54" stop-color="#17818F" stop-opacity="0.12"/>
<stop offset="0.65" stop-color="#178290" stop-opacity="0"/>
</radialGradient>
<radialGradient id="paint11_radial" cx="0" cy="0" r="1" gradientUnits="userSpaceOnUse" gradientTransform="translate(264.188 78.7223) rotate(-31.66) scale(69.39 54.8181)">
<stop offset="0.05" stop-color="#177D87"/>
<stop offset="0.11" stop-color="#177E89" stop-opacity="0.8"/>
<stop offset="0.21" stop-color="#177F8B" stop-opacity="0.52"/>
<stop offset="0.32" stop-color="#17818D" stop-opacity="0.29"/>
<stop offset="0.42" stop-color="#17818F" stop-opacity="0.13"/>
<stop offset="0.51" stop-color="#178290" stop-opacity="0.03"/>
<stop offset="0.6" stop-color="#178290" stop-opacity="0"/>
</radialGradient>
<radialGradient id="paint12_radial" cx="0" cy="0" r="1" gradientUnits="userSpaceOnUse" gradientTransform="translate(247.145 81.8389) rotate(-130.539) scale(41.3421 32.5536)">
<stop offset="0.26" stop-color="#177F8A"/>
<stop offset="0.27" stop-color="#177F8A" stop-opacity="0.98"/>
<stop offset="0.38" stop-color="#17808C" stop-opacity="0.68"/>
<stop offset="0.5" stop-color="#17818D" stop-opacity="0.43"/>
<stop offset="0.62" stop-color="#17818F" stop-opacity="0.24"/>
<stop offset="0.74" stop-color="#17828F" stop-opacity="0.11"/>
<stop offset="0.86" stop-color="#178290" stop-opacity="0.03"/>
<stop offset="1" stop-color="#178290" stop-opacity="0"/>
</radialGradient>
<radialGradient id="paint13_radial" cx="0" cy="0" r="1" gradientUnits="userSpaceOnUse" gradientTransform="translate(240.144 93.5273) rotate(-173.11) scale(38.78)">
<stop stop-color="#13656E"/>
<stop offset="0.11" stop-color="#13646E" stop-opacity="0.73"/>
<stop offset="0.27" stop-color="#12646E" stop-opacity="0.41"/>
<stop offset="0.42" stop-color="#12636E" stop-opacity="0.18"/>
<stop offset="0.55" stop-color="#12636E" stop-opacity="0.05"/>
<stop offset="0.66" stop-color="#12636E" stop-opacity="0"/>
</radialGradient>
<radialGradient id="paint14_radial" cx="0" cy="0" r="1" gradientUnits="userSpaceOnUse" gradientTransform="translate(240.232 96.7154) rotate(-119.32) scale(27.12 22.7808)">
<stop offset="0.13" stop-color="#146A73"/>
<stop offset="0.24" stop-color="#156F79" stop-opacity="0.79"/>
<stop offset="0.45" stop-color="#167783" stop-opacity="0.45"/>
<stop offset="0.65" stop-color="#167D8A" stop-opacity="0.2"/>
<stop offset="0.82" stop-color="#17818E" stop-opacity="0.05"/>
<stop offset="0.95" stop-color="#178290" stop-opacity="0"/>
</radialGradient>
<radialGradient id="paint15_radial" cx="0" cy="0" r="1" gradientUnits="userSpaceOnUse" gradientTransform="translate(240.283 86.7331) rotate(-55.9925) scale(25.5118 20.211)">
<stop stop-color="#198E9C"/>
<stop offset="0.1" stop-color="#198E9C" stop-opacity="0.87"/>
<stop offset="0.41" stop-color="#198E9C" stop-opacity="0.5"/>
<stop offset="0.67" stop-color="#198E9C" stop-opacity="0.23"/>
<stop offset="0.88" stop-color="#198E9C" stop-opacity="0.06"/>
<stop offset="1" stop-color="#198E9C" stop-opacity="0"/>
</radialGradient>
<linearGradient id="paint16_linear" x1="186.952" y1="-3.1" x2="252.362" y2="57.42" gradientUnits="userSpaceOnUse">
<stop offset="0.13" stop-color="#2BF9FF"/>
<stop offset="0.27" stop-color="#29F9FF" stop-opacity="0.64"/>
<stop offset="0.4" stop-color="#27FAFF" stop-opacity="0.3"/>
<stop offset="0.49" stop-color="#26FAFF" stop-opacity="0.08"/>
<stop offset="0.54" stop-color="#26FAFF" stop-opacity="0"/>
</linearGradient>
<linearGradient id="paint17_linear" x1="149.922" y1="95.68" x2="226.322" y2="74.01" gradientUnits="userSpaceOnUse">
<stop stop-color="#26FAFF"/>
<stop offset="0.06" stop-color="#26FAFF" stop-opacity="0.88"/>
<stop offset="0.24" stop-color="#26FAFF" stop-opacity="0.51"/>
<stop offset="0.39" stop-color="#26FAFF" stop-opacity="0.23"/>
<stop offset="0.5" stop-color="#26FAFF" stop-opacity="0.06"/>
<stop offset="0.55" stop-color="#26FAFF" stop-opacity="0"/>
</linearGradient>
<linearGradient id="paint18_linear" x1="170.162" y1="93.01" x2="256.262" y2="62.32" gradientUnits="userSpaceOnUse">
<stop stop-color="#21DEFF"/>
<stop offset="0.04" stop-color="#21DEFF" stop-opacity="0.88"/>
<stop offset="0.17" stop-color="#21DEFF" stop-opacity="0.51"/>
<stop offset="0.27" stop-color="#21DEFF" stop-opacity="0.23"/>
<stop offset="0.34" stop-color="#21DEFF" stop-opacity="0.06"/>
<stop offset="0.38" stop-color="#21DEFF" stop-opacity="0"/>
</linearGradient>
<linearGradient id="paint19_linear" x1="251.982" y1="48.59" x2="300.142" y2="127.15" gradientUnits="userSpaceOnUse">
<stop offset="0.62" stop-color="#21DEFF" stop-opacity="0"/>
<stop offset="0.66" stop-color="#21DEFF" stop-opacity="0.06"/>
<stop offset="0.73" stop-color="#21DEFF" stop-opacity="0.23"/>
<stop offset="0.83" stop-color="#21DEFF" stop-opacity="0.51"/>
<stop offset="0.96" stop-color="#21DEFF" stop-opacity="0.88"/>
<stop offset="1" stop-color="#21DEFF"/>
</linearGradient>
<linearGradient id="paint20_linear" x1="305.571" y1="77.94" x2="298.001" y2="40.99" gradientUnits="userSpaceOnUse">
<stop stop-color="#44B044"/>
<stop offset="0.11" stop-color="#44B044" stop-opacity="0.8"/>
<stop offset="0.27" stop-color="#44B044" stop-opacity="0.52"/>
<stop offset="0.43" stop-color="#44B044" stop-opacity="0.29"/>
<stop offset="0.58" stop-color="#44B044" stop-opacity="0.13"/>
<stop offset="0.7" stop-color="#44B044" stop-opacity="0.03"/>
<stop offset="0.8" stop-color="#44B044" stop-opacity="0"/>
</linearGradient>
<linearGradient id="paint21_linear" x1="199.89" y1="39.6401" x2="359.32" y2="92.4201" gradientUnits="userSpaceOnUse">
<stop stop-color="#3066FB"/>
<stop offset="0.38" stop-color="#2F64F7"/>
<stop offset="0.74" stop-color="#2857D9"/>
<stop offset="1" stop-color="#3C7EFF"/>
</linearGradient>
<radialGradient id="paint22_radial" cx="0" cy="0" r="1" gradientUnits="userSpaceOnUse" gradientTransform="translate(311.643 63.5944) rotate(98.69) scale(85.26 56.2716)">
<stop stop-color="#1A3D9C"/>
<stop offset="0.4" stop-color="#1A3D9C" stop-opacity="0.42"/>
<stop offset="0.7" stop-color="#1A3D9C" stop-opacity="0"/>
</radialGradient>
<radialGradient id="paint23_radial" cx="0" cy="0" r="1" gradientUnits="userSpaceOnUse" gradientTransform="translate(-21477.3 63645.4) rotate(98.69) scale(10487.5 5654.91)">
<stop stop-color="#1A3D9C"/>
<stop offset="0.4" stop-color="#1A3D9C" stop-opacity="0.42"/>
<stop offset="0.7" stop-color="#1A3D9C" stop-opacity="0"/>
</radialGradient>
<radialGradient id="paint24_radial" cx="0" cy="0" r="1" gradientUnits="userSpaceOnUse" gradientTransform="translate(-17686.4 63152.8) rotate(98.6156) scale(12490 5160.05)">
<stop stop-color="#1A3D9C"/>
<stop offset="0.4" stop-color="#1A3D9C" stop-opacity="0.42"/>
<stop offset="0.7" stop-color="#1A3D9C" stop-opacity="0"/>
</radialGradient>
<radialGradient id="paint25_radial" cx="0" cy="0" r="1" gradientUnits="userSpaceOnUse" gradientTransform="translate(299.34 59.649) rotate(83.0888) scale(74.5242 51.9983)">
<stop stop-color="#1A3D9C"/>
<stop offset="0.16" stop-color="#1A3D9C" stop-opacity="0.69"/>
<stop offset="0.33" stop-color="#1A3D9C" stop-opacity="0.4"/>
<stop offset="0.49" stop-color="#1A3D9C" stop-opacity="0.18"/>
<stop offset="0.61" stop-color="#1A3D9C" stop-opacity="0.05"/>
<stop offset="0.7" stop-color="#1A3D9C" stop-opacity="0"/>
</radialGradient>
<radialGradient id="paint26_radial" cx="0" cy="0" r="1" gradientUnits="userSpaceOnUse" gradientTransform="translate(314.451 72.1763) rotate(74.64) scale(71.62 48.7016)">
<stop stop-color="#18388F"/>
<stop offset="0.37" stop-color="#193B96" stop-opacity="0.45"/>
<stop offset="0.7" stop-color="#1A3D9C" stop-opacity="0"/>
</radialGradient>
<radialGradient id="paint27_radial" cx="0" cy="0" r="1" gradientUnits="userSpaceOnUse" gradientTransform="translate(307.775 91.1359) rotate(74.64) scale(33.3 31.635)">
<stop stop-color="#18388F"/>
<stop offset="0.09" stop-color="#183992" stop-opacity="0.78"/>
<stop offset="0.22" stop-color="#193B96" stop-opacity="0.5"/>
<stop offset="0.35" stop-color="#193C98" stop-opacity="0.28"/>
<stop offset="0.47" stop-color="#1A3C9A" stop-opacity="0.13"/>
<stop offset="0.59" stop-color="#1A3D9C" stop-opacity="0.03"/>
<stop offset="0.7" stop-color="#1A3D9C" stop-opacity="0"/>
</radialGradient>
<radialGradient id="paint28_radial" cx="0" cy="0" r="1" gradientUnits="userSpaceOnUse" gradientTransform="translate(308.564 96.8266) rotate(74.64) scale(33.3 31.635)">
<stop stop-color="#1A3D9C" stop-opacity="0.8"/>
<stop offset="0.01" stop-color="#1A3D9C" stop-opacity="0.78"/>
<stop offset="0.24" stop-color="#1A3D9C" stop-opacity="0.45"/>
<stop offset="0.44" stop-color="#1A3D9C" stop-opacity="0.2"/>
<stop offset="0.6" stop-color="#1A3D9C" stop-opacity="0.05"/>
<stop offset="0.7" stop-color="#1A3D9C" stop-opacity="0"/>
</radialGradient>
<radialGradient id="paint29_radial" cx="0" cy="0" r="1" gradientUnits="userSpaceOnUse" gradientTransform="translate(219.987 77.6349) rotate(67.0273) scale(79.4703 52.7361)">
<stop stop-color="#1A3D9C"/>
<stop offset="0.4" stop-color="#1A3D9C" stop-opacity="0.56"/>
<stop offset="0.48" stop-color="#1A3D9C" stop-opacity="0.43"/>
<stop offset="0.69" stop-color="#1A3D9C" stop-opacity="0.12"/>
<stop offset="0.79" stop-color="#1A3D9C" stop-opacity="0"/>
</radialGradient>
<radialGradient id="paint30_radial" cx="0" cy="0" r="1" gradientUnits="userSpaceOnUse" gradientTransform="translate(216.457 58.3245) rotate(76.1028) scale(58.9457 38.9154)">
<stop stop-color="#1A3D9C"/>
<stop offset="0.06" stop-color="#1A3D9C" stop-opacity="0.88"/>
<stop offset="0.21" stop-color="#1A3D9C" stop-opacity="0.61"/>
<stop offset="0.36" stop-color="#1A3D9C" stop-opacity="0.39"/>
<stop offset="0.51" stop-color="#1A3D9C" stop-opacity="0.22"/>
<stop offset="0.67" stop-color="#1A3D9C" stop-opacity="0.1"/>
<stop offset="0.83" stop-color="#1A3D9C" stop-opacity="0.02"/>
<stop offset="1" stop-color="#1A3D9C" stop-opacity="0"/>
</radialGradient>
<radialGradient id="paint31_radial" cx="0" cy="0" r="1" gradientUnits="userSpaceOnUse" gradientTransform="translate(216.457 58.3245) rotate(76.1028) scale(58.9457 38.9154)">
<stop stop-color="#1B3E9E"/>
<stop offset="0.06" stop-color="#1B3E9E" stop-opacity="0.87"/>
<stop offset="0.21" stop-color="#1B3E9D" stop-opacity="0.61"/>
<stop offset="0.36" stop-color="#1A3D9D" stop-opacity="0.39"/>
<stop offset="0.52" stop-color="#1A3D9C" stop-opacity="0.22"/>
<stop offset="0.67" stop-color="#1A3D9C" stop-opacity="0.1"/>
<stop offset="0.83" stop-color="#1A3D9C" stop-opacity="0.02"/>
<stop offset="1" stop-color="#1A3D9C" stop-opacity="0"/>
</radialGradient>
<radialGradient id="paint32_radial" cx="0" cy="0" r="1" gradientUnits="userSpaceOnUse" gradientTransform="translate(218.693 52.5676) rotate(76.1028) scale(45.0961 29.772)">
<stop stop-color="#183991"/>
<stop offset="0.03" stop-color="#183992" stop-opacity="0.95"/>
<stop offset="0.18" stop-color="#193A95" stop-opacity="0.66"/>
<stop offset="0.34" stop-color="#193B97" stop-opacity="0.42"/>
<stop offset="0.5" stop-color="#1A3C99" stop-opacity="0.24"/>
<stop offset="0.66" stop-color="#1A3D9B" stop-opacity="0.1"/>
<stop offset="0.82" stop-color="#1A3D9C" stop-opacity="0.03"/>
<stop offset="1" stop-color="#1A3D9C" stop-opacity="0"/>
</radialGradient>
<radialGradient id="paint33_radial" cx="0" cy="0" r="1" gradientUnits="userSpaceOnUse" gradientTransform="translate(229.886 60.3386) rotate(87.1376) scale(35.6345 31.369)">
<stop offset="0.04" stop-color="#2453D6" stop-opacity="0.6"/>
<stop offset="0.2" stop-color="#2453D6" stop-opacity="0.49"/>
<stop offset="0.52" stop-color="#2453D6" stop-opacity="0.2"/>
<stop offset="0.73" stop-color="#2453D6" stop-opacity="0"/>
</radialGradient>
<linearGradient id="paint34_linear" x1="303.48" y1="-25.4499" x2="263.21" y2="74.0901" gradientUnits="userSpaceOnUse">
<stop stop-color="#3774FF"/>
<stop offset="0.05" stop-color="#3774FF" stop-opacity="0.91"/>
<stop offset="0.16" stop-color="#3774FF" stop-opacity="0.66"/>
<stop offset="0.32" stop-color="#3774FF" stop-opacity="0.28"/>
<stop offset="0.43" stop-color="#3774FF" stop-opacity="0"/>
</linearGradient>
<clipPath id="clip0">
<rect width="528.33" height="386.34" fill="white"/>
</clipPath>
</defs>
</svg>
