<svg width="763" height="210" viewBox="0 0 763 210" fill="none" xmlns="http://www.w3.org/2000/svg">
<g clip-path="url(#clip0)">
<path d="M362.56 37.95H382.76L353.41 126.7H330.23L308.23 59.7L286.28 126.7H263.53L234.16 37.95H254.82L275.66 105.39L297.53 37.95H319.48L341.63 105.76L362.56 37.95Z" fill="white"/>
<path d="M469.409 89.46H403.869C404.477 94.0343 406.193 98.3907 408.869 102.15C411.251 105.433 414.465 108.021 418.179 109.65C421.967 111.282 426.055 112.103 430.179 112.06C434.748 112.035 439.278 111.206 443.559 109.61C448.002 107.992 452.15 105.658 455.839 102.7L465.469 116.53C460.564 120.819 454.848 124.08 448.659 126.12C442.288 128.112 435.644 129.094 428.969 129.03C420.743 129.182 412.621 127.179 405.409 123.22C398.619 119.398 393.067 113.71 389.409 106.83C385.549 99.7633 383.619 91.5934 383.619 82.32C383.454 73.8758 385.378 65.5215 389.219 58C392.754 51.1529 398.151 45.4437 404.789 41.53C411.782 37.5235 419.732 35.4911 427.789 35.65C435.465 35.511 443.024 37.5497 449.589 41.53C455.97 45.5113 461.105 51.204 464.409 57.96C468.077 65.5157 469.904 73.8327 469.739 82.23C469.739 84.0834 469.629 86.4933 469.409 89.46ZM449.909 74.73C448.863 67.81 446.376 62.4367 442.449 58.61C438.523 54.7833 433.523 52.8667 427.449 52.86C420.836 52.86 415.539 54.82 411.559 58.74C407.579 62.66 405.033 67.9933 403.919 74.74L449.909 74.73Z" fill="white"/>
<path d="M552.229 41.6499C558.973 45.6602 564.503 51.4249 568.229 58.3299C572.216 65.693 574.241 73.9579 574.109 82.3299C574.24 90.7018 572.215 98.9665 568.229 106.33C564.506 113.234 558.975 118.996 552.229 123C545.433 127.018 537.664 129.094 529.769 129C524.248 129.112 518.774 127.956 513.769 125.62C509.175 123.394 505.149 120.148 501.999 116.13V126.69H482.609V0.159912H501.969V48.5299C505.119 44.5089 509.144 41.2597 513.739 39.0299C518.746 36.6989 524.218 35.5428 529.739 35.6499C537.644 35.5551 545.423 37.6304 552.229 41.6499V41.6499ZM541.629 106.97C545.652 104.488 548.893 100.922 550.979 96.6799C553.176 92.215 554.289 87.2954 554.229 82.3199C554.288 77.3445 553.175 72.4252 550.979 67.9599C548.893 63.721 545.652 60.1575 541.629 57.6799C537.358 55.095 532.441 53.7772 527.449 53.8799C522.547 53.7873 517.717 55.0727 513.509 57.5899C509.473 60.0416 506.2 63.5705 504.059 67.7799C501.761 72.2774 500.6 77.2698 500.679 82.3199C500.599 87.3734 501.76 92.3693 504.059 96.8699C506.203 101.077 509.475 104.605 513.509 107.06C517.718 109.574 522.548 110.856 527.449 110.76C532.44 110.866 537.357 109.552 541.629 106.97V106.97Z" fill="white"/>
<path d="M670.12 89.4601H604.62C605.227 94.0343 606.944 98.3908 609.62 102.15C612.008 105.431 615.224 108.019 618.94 109.65C622.728 111.283 626.815 112.104 630.94 112.06C635.512 112.036 640.045 111.207 644.33 109.61C648.77 107.994 652.916 105.659 656.6 102.7L666.23 116.53C661.319 120.812 655.6 124.066 649.41 126.1C643.042 128.092 636.402 129.074 629.73 129.01C621.516 129.166 613.404 127.17 606.2 123.22C599.381 119.409 593.8 113.72 590.12 106.83C586.26 99.7634 584.33 91.5934 584.33 82.3201C584.167 73.875 586.095 65.5207 589.94 58.0001C593.482 51.1454 598.895 45.4348 605.55 41.5301C612.542 37.523 620.492 35.4907 628.55 35.6501C636.223 35.5102 643.779 37.549 650.34 41.5301C656.723 45.5168 661.858 51.2167 665.16 57.9801C668.828 65.5358 670.654 73.8527 670.49 82.2501C670.49 84.0901 670.366 86.4934 670.12 89.4601ZM650.67 74.7301C649.61 67.8101 647.123 62.4367 643.21 58.6101C639.296 54.7834 634.276 52.8667 628.15 52.8601C621.543 52.8601 616.246 54.8201 612.26 58.7401C608.273 62.6601 605.726 67.9934 604.62 74.7401L650.67 74.7301Z" fill="white"/>
<path d="M762.49 126.7H738.68L716.16 95.8499L693.93 126.7H671.23L704.68 81.3999L671.79 37.95H695.6L717.28 67.5899L738.95 37.95H761.84L729.04 81.2099L762.49 126.7Z" fill="white"/>
<path d="M529.211 200.19H525.281V164.42H530.051V177.93C531.006 176.532 532.301 175.402 533.815 174.646C535.329 173.89 537.011 173.533 538.701 173.61C540.357 173.531 542.007 173.854 543.512 174.551C545.016 175.247 546.33 176.297 547.341 177.61C549.161 179.997 550.071 183.16 550.071 187.1C550.071 191.767 548.831 195.343 546.351 197.83C545.302 198.87 544.051 199.685 542.675 200.223C541.299 200.761 539.828 201.012 538.351 200.96C536.711 201.044 535.077 200.705 533.605 199.974C532.134 199.244 530.876 198.147 529.951 196.79L529.211 200.19ZM545.111 186.97C545.111 183.723 544.298 181.29 542.671 179.67C542.012 179.002 541.22 178.479 540.347 178.135C539.474 177.79 538.539 177.632 537.601 177.67C536.503 177.63 535.41 177.846 534.41 178.303C533.41 178.76 532.53 179.443 531.841 180.3C530.423 182.221 529.716 184.575 529.841 186.96C529.841 190.27 530.661 192.81 532.281 194.56C532.95 195.313 533.778 195.909 534.705 196.305C535.631 196.701 536.634 196.887 537.641 196.85C538.741 196.912 539.839 196.693 540.831 196.214C541.823 195.734 542.676 195.01 543.311 194.11C544.642 191.976 545.271 189.479 545.111 186.97V186.97Z" fill="white"/>
<path d="M575.608 174.35L566.608 200.53C565.418 204.01 564.268 206.38 563.178 207.64C562.565 208.363 561.798 208.939 560.932 209.325C560.067 209.711 559.125 209.897 558.178 209.87C557.138 209.843 556.104 209.696 555.098 209.43V205.53C555.911 205.746 556.747 205.863 557.588 205.88C558.041 205.902 558.493 205.817 558.907 205.631C559.321 205.445 559.684 205.164 559.968 204.81C560.884 203.365 561.604 201.805 562.108 200.17H560.568L551.078 174.33H556.248L563.548 196.33L570.848 174.33L575.608 174.35Z" fill="white"/>
<path d="M641.199 164.46H632.199V200.31H641.199V164.46Z" fill="white"/>
<path d="M714.141 174.73C711.808 173.465 709.194 172.808 706.541 172.82C700.681 172.82 696.621 176.89 696.621 182.38C696.621 187.71 700.511 191.95 706.541 191.95C709.192 191.956 711.804 191.303 714.141 190.05V199.67C711.467 200.492 708.688 200.92 705.891 200.94C695.721 200.94 686.801 193.94 686.801 182.38C686.801 171.68 694.881 163.83 705.891 163.83C708.69 163.837 711.471 164.268 714.141 165.11V174.73Z" fill="white"/>
<path d="M619.721 174.73C617.389 173.461 614.775 172.804 612.121 172.82C606.261 172.82 602.211 176.89 602.211 182.38C602.211 187.71 606.091 191.95 612.121 191.95C614.772 191.956 617.384 191.303 619.721 190.05V199.67C617.047 200.493 614.268 200.921 611.471 200.94C601.301 200.94 592.391 193.94 592.391 182.38C592.391 171.68 600.461 163.83 611.471 163.83C614.27 163.837 617.051 164.268 619.721 165.11V174.73Z" fill="white"/>
<path d="M742.59 172.95C741.352 172.939 740.125 173.176 738.981 173.647C737.836 174.118 736.797 174.814 735.926 175.693C735.055 176.572 734.368 177.616 733.907 178.765C733.445 179.913 733.219 181.143 733.24 182.38C733.217 183.618 733.443 184.849 733.904 185.998C734.364 187.148 735.051 188.194 735.922 189.074C736.794 189.954 737.833 190.65 738.978 191.122C740.123 191.594 741.352 191.831 742.59 191.82C743.829 191.831 745.058 191.594 746.203 191.122C747.349 190.65 748.389 189.954 749.261 189.074C750.134 188.195 750.821 187.149 751.283 185.999C751.745 184.849 751.972 183.619 751.95 182.38C751.97 181.142 751.742 179.913 751.28 178.764C750.818 177.615 750.13 176.571 749.258 175.692C748.386 174.813 747.346 174.118 746.201 173.647C745.056 173.176 743.828 172.939 742.59 172.95V172.95ZM761.53 182.38C761.53 192.64 753.62 200.94 742.59 200.94C731.56 200.94 723.66 192.64 723.66 182.38C723.66 172.12 731.57 163.83 742.59 163.83C753.61 163.83 761.53 172.14 761.53 182.38Z" fill="white"/>
<path d="M675.5 172.61C673.186 171.978 670.807 171.616 668.41 171.53C664.79 171.53 662.82 172.74 662.82 174.46C662.82 176.65 665.48 177.46 666.96 177.88L669.46 178.67C675.33 180.54 678.01 184.56 678.01 188.93C678.01 197.93 670.09 200.93 663.16 200.93C659.883 200.891 656.616 200.556 653.4 199.93V191.68C656.178 192.485 659.048 192.932 661.94 193.01C666.45 193.01 668.51 191.7 668.51 189.66C668.51 187.85 666.72 186.8 664.51 186.09L662.58 185.47C657.58 183.88 653.34 180.92 653.34 174.98C653.34 168.28 658.34 163.78 666.7 163.78C669.671 163.821 672.627 164.203 675.51 164.92L675.5 172.61Z" fill="white"/>
<path d="M43.4812 68.9201C45.5766 76.2862 48.4319 83.4145 52.0012 90.1901C53.6312 93.1901 55.2612 96.1901 58.2212 98.0801C58.7341 98.4023 59.2992 98.6325 59.8912 98.7601C64.2512 99.6901 66.6413 96.1801 68.1813 92.9701C70.4794 87.9337 72.3363 82.7075 73.7313 77.3501C74.0013 76.3501 74.2612 75.3501 74.5212 74.3501C75.0212 72.4401 75.5212 70.5101 75.9512 68.5801L95.1912 17.1801C99.1878 11.8573 104.369 7.53813 110.324 4.56486C116.279 1.59158 122.845 0.0458458 129.501 0.0501157C139.086 -0.008893 148.405 3.20093 155.921 9.15012C168.501 18.6701 175.991 37.4201 175.991 37.4201C177.083 39.8613 177.645 42.506 177.641 45.1801C177.636 47.6569 177.143 50.1083 176.19 52.3945C175.238 54.6807 173.844 56.7569 172.089 58.5045C170.334 60.2521 168.252 61.6369 165.962 62.5798C163.672 63.5228 161.218 64.0054 158.741 64.0001C155.987 63.9983 153.266 63.3909 150.773 62.221C148.279 61.0511 146.073 59.3473 144.311 57.2301L144.131 57.0101C142.922 55.3778 141.914 53.6049 141.131 51.7301C140.094 49.3769 138.932 47.0803 137.651 44.8501C136.971 43.7001 136.211 42.6101 135.431 41.5301C134.757 40.5647 133.96 39.6908 133.061 38.9301C131.291 37.5001 129.061 36.9301 126.981 38.1601C126.881 38.2176 126.784 38.2811 126.691 38.3501C124.551 39.8201 123.051 42.7901 122.011 45.0701C119.011 51.5301 117.291 58.1501 115.591 64.9501C115.271 66.2601 114.951 67.5701 114.651 68.8901L106.701 94.8901L95.4912 119.61C91.478 124.789 86.3419 128.99 80.4699 131.897C74.598 134.803 68.143 136.34 61.5912 136.39C34.3612 136.97 21.4412 112.39 21.4412 112.39C5.93125 86.9501 1.36125 53.3901 0.271249 42.6601C0.0412492 40.4301 0.0312513 39.1001 0.0312513 39.1001C0.0299884 35.7392 0.946812 32.4417 2.68274 29.5638C4.41867 26.6858 6.90775 24.3367 9.88125 22.7701C12.9558 21.2122 16.3772 20.4653 19.8213 20.6001C23.0255 20.7341 26.1431 21.6804 28.8813 23.3501C31.009 24.6236 32.8481 26.3265 34.2812 28.3501C36.8412 31.9901 37.4212 36.5201 37.9312 40.8501C38.9902 50.346 40.8467 59.7358 43.4812 68.9201V68.9201Z" fill="url(#paint0_linear)"/>
<path d="M43.4812 68.9201C45.5766 76.2862 48.4319 83.4145 52.0012 90.1901C53.6312 93.1901 55.2612 96.1901 58.2212 98.0801C58.7341 98.4023 59.2992 98.6325 59.8912 98.7601C64.2512 99.6901 66.6413 96.1801 68.1813 92.9701C70.4794 87.9337 72.3363 82.7075 73.7313 77.3501C74.0013 76.3501 74.2612 75.3501 74.5212 74.3501C75.0212 72.4401 75.5212 70.5101 75.9512 68.5801L95.1912 17.1801C99.1878 11.8573 104.369 7.53813 110.324 4.56486C116.279 1.59158 122.845 0.0458458 129.501 0.0501157C139.086 -0.008893 148.405 3.20093 155.921 9.15012C168.501 18.6701 175.991 37.4201 175.991 37.4201C177.083 39.8613 177.645 42.506 177.641 45.1801C177.636 47.6569 177.143 50.1083 176.19 52.3945C175.238 54.6807 173.844 56.7569 172.089 58.5045C170.334 60.2521 168.252 61.6369 165.962 62.5798C163.672 63.5228 161.218 64.0054 158.741 64.0001C155.987 63.9983 153.266 63.3909 150.773 62.221C148.279 61.0511 146.073 59.3473 144.311 57.2301L144.131 57.0101C142.922 55.3778 141.914 53.6049 141.131 51.7301C140.094 49.3769 138.932 47.0803 137.651 44.8501C136.971 43.7001 136.211 42.6101 135.431 41.5301C134.757 40.5647 133.96 39.6908 133.061 38.9301C131.291 37.5001 129.061 36.9301 126.981 38.1601C126.881 38.2176 126.784 38.2811 126.691 38.3501C124.551 39.8201 123.051 42.7901 122.011 45.0701C119.011 51.5301 117.291 58.1501 115.591 64.9501C115.271 66.2601 114.951 67.5701 114.651 68.8901L106.701 94.8901L95.4912 119.61C91.478 124.789 86.3419 128.99 80.4699 131.897C74.598 134.803 68.143 136.34 61.5912 136.39C34.3612 136.97 21.4412 112.39 21.4412 112.39C5.93125 86.9501 1.36125 53.3901 0.271249 42.6601C0.0412492 40.4301 0.0312513 39.1001 0.0312513 39.1001C0.0299884 35.7392 0.946812 32.4417 2.68274 29.5638C4.41867 26.6858 6.90775 24.3367 9.88125 22.7701C12.9558 21.2122 16.3772 20.4653 19.8213 20.6001C23.0255 20.7341 26.1431 21.6804 28.8813 23.3501C31.009 24.6236 32.8481 26.3265 34.2812 28.3501C36.8412 31.9901 37.4212 36.5201 37.9312 40.8501C38.9902 50.346 40.8467 59.7358 43.4812 68.9201V68.9201Z" fill="url(#paint1_radial)"/>
<path d="M43.4812 68.9201C45.5766 76.2862 48.4319 83.4145 52.0012 90.1901C53.6312 93.1901 55.2612 96.1901 58.2212 98.0801C58.7341 98.4023 59.2992 98.6325 59.8912 98.7601C64.2512 99.6901 66.6413 96.1801 68.1813 92.9701C70.4794 87.9337 72.3363 82.7075 73.7313 77.3501C74.0013 76.3501 74.2612 75.3501 74.5212 74.3501C75.0212 72.4401 75.5212 70.5101 75.9512 68.5801L95.1912 17.1801C99.1878 11.8573 104.369 7.53813 110.324 4.56486C116.279 1.59158 122.845 0.0458458 129.501 0.0501157C139.086 -0.008893 148.405 3.20093 155.921 9.15012C168.501 18.6701 175.991 37.4201 175.991 37.4201C177.083 39.8613 177.645 42.506 177.641 45.1801C177.636 47.6569 177.143 50.1083 176.19 52.3945C175.238 54.6807 173.844 56.7569 172.089 58.5045C170.334 60.2521 168.252 61.6369 165.962 62.5798C163.672 63.5228 161.218 64.0054 158.741 64.0001C155.987 63.9983 153.266 63.3909 150.773 62.221C148.279 61.0511 146.073 59.3473 144.311 57.2301L144.131 57.0101C142.922 55.3778 141.914 53.6049 141.131 51.7301C140.094 49.3769 138.932 47.0803 137.651 44.8501C136.971 43.7001 136.211 42.6101 135.431 41.5301C134.757 40.5647 133.96 39.6908 133.061 38.9301C131.291 37.5001 129.061 36.9301 126.981 38.1601C126.881 38.2176 126.784 38.2811 126.691 38.3501C124.551 39.8201 123.051 42.7901 122.011 45.0701C119.011 51.5301 117.291 58.1501 115.591 64.9501C115.271 66.2601 114.951 67.5701 114.651 68.8901L106.701 94.8901L95.4912 119.61C91.478 124.789 86.3419 128.99 80.4699 131.897C74.598 134.803 68.143 136.34 61.5912 136.39C34.3612 136.97 21.4412 112.39 21.4412 112.39C5.93125 86.9501 1.36125 53.3901 0.271249 42.6601C0.0412492 40.4301 0.0312513 39.1001 0.0312513 39.1001C0.0299884 35.7392 0.946812 32.4417 2.68274 29.5638C4.41867 26.6858 6.90775 24.3367 9.88125 22.7701C12.9558 21.2122 16.3772 20.4653 19.8213 20.6001C23.0255 20.7341 26.1431 21.6804 28.8813 23.3501C31.009 24.6236 32.8481 26.3265 34.2812 28.3501C36.8412 31.9901 37.4212 36.5201 37.9312 40.8501C38.9902 50.346 40.8467 59.7358 43.4812 68.9201V68.9201Z" fill="url(#paint2_radial)"/>
<path d="M43.4812 68.9201C45.5766 76.2862 48.4319 83.4145 52.0012 90.1901C53.6312 93.1901 55.2612 96.1901 58.2212 98.0801C58.7341 98.4023 59.2992 98.6325 59.8912 98.7601C64.2512 99.6901 66.6413 96.1801 68.1813 92.9701C70.4794 87.9337 72.3363 82.7075 73.7313 77.3501C74.0013 76.3501 74.2612 75.3501 74.5212 74.3501C75.0212 72.4401 75.5212 70.5101 75.9512 68.5801L95.1912 17.1801C99.1878 11.8573 104.369 7.53813 110.324 4.56486C116.279 1.59158 122.845 0.0458458 129.501 0.0501157C139.086 -0.008893 148.405 3.20093 155.921 9.15012C168.501 18.6701 175.991 37.4201 175.991 37.4201C177.083 39.8613 177.645 42.506 177.641 45.1801C177.636 47.6569 177.143 50.1083 176.19 52.3945C175.238 54.6807 173.844 56.7569 172.089 58.5045C170.334 60.2521 168.252 61.6369 165.962 62.5798C163.672 63.5228 161.218 64.0054 158.741 64.0001C155.987 63.9983 153.266 63.3909 150.773 62.221C148.279 61.0511 146.073 59.3473 144.311 57.2301L144.131 57.0101C142.922 55.3778 141.914 53.6049 141.131 51.7301C140.094 49.3769 138.932 47.0803 137.651 44.8501C136.971 43.7001 136.211 42.6101 135.431 41.5301C134.757 40.5647 133.96 39.6908 133.061 38.9301C131.291 37.5001 129.061 36.9301 126.981 38.1601C126.881 38.2176 126.784 38.2811 126.691 38.3501C124.551 39.8201 123.051 42.7901 122.011 45.0701C119.011 51.5301 117.291 58.1501 115.591 64.9501C115.271 66.2601 114.951 67.5701 114.651 68.8901L106.701 94.8901L95.4912 119.61C91.478 124.789 86.3419 128.99 80.4699 131.897C74.598 134.803 68.143 136.34 61.5912 136.39C34.3612 136.97 21.4412 112.39 21.4412 112.39C5.93125 86.9501 1.36125 53.3901 0.271249 42.6601C0.0412492 40.4301 0.0312513 39.1001 0.0312513 39.1001C0.0299884 35.7392 0.946812 32.4417 2.68274 29.5638C4.41867 26.6858 6.90775 24.3367 9.88125 22.7701C12.9558 21.2122 16.3772 20.4653 19.8213 20.6001C23.0255 20.7341 26.1431 21.6804 28.8813 23.3501C31.009 24.6236 32.8481 26.3265 34.2812 28.3501C36.8412 31.9901 37.4212 36.5201 37.9312 40.8501C38.9902 50.346 40.8467 59.7358 43.4812 68.9201V68.9201Z" fill="url(#paint3_radial)"/>
<path d="M43.4812 68.9201C45.5766 76.2862 48.4319 83.4145 52.0012 90.1901C53.6312 93.1901 55.2612 96.1901 58.2212 98.0801C58.7341 98.4023 59.2992 98.6325 59.8912 98.7601C64.2512 99.6901 66.6413 96.1801 68.1813 92.9701C70.4794 87.9337 72.3363 82.7075 73.7313 77.3501C74.0013 76.3501 74.2612 75.3501 74.5212 74.3501C75.0212 72.4401 75.5212 70.5101 75.9512 68.5801L95.1912 17.1801C99.1878 11.8573 104.369 7.53813 110.324 4.56486C116.279 1.59158 122.845 0.0458458 129.501 0.0501157C139.086 -0.008893 148.405 3.20093 155.921 9.15012C168.501 18.6701 175.991 37.4201 175.991 37.4201C177.083 39.8613 177.645 42.506 177.641 45.1801C177.636 47.6569 177.143 50.1083 176.19 52.3945C175.238 54.6807 173.844 56.7569 172.089 58.5045C170.334 60.2521 168.252 61.6369 165.962 62.5798C163.672 63.5228 161.218 64.0054 158.741 64.0001C155.987 63.9983 153.266 63.3909 150.773 62.221C148.279 61.0511 146.073 59.3473 144.311 57.2301L144.131 57.0101C142.922 55.3778 141.914 53.6049 141.131 51.7301C140.094 49.3769 138.932 47.0803 137.651 44.8501C136.971 43.7001 136.211 42.6101 135.431 41.5301C134.757 40.5647 133.96 39.6908 133.061 38.9301C131.291 37.5001 129.061 36.9301 126.981 38.1601C126.881 38.2176 126.784 38.2811 126.691 38.3501C124.551 39.8201 123.051 42.7901 122.011 45.0701C119.011 51.5301 117.291 58.1501 115.591 64.9501C115.271 66.2601 114.951 67.5701 114.651 68.8901L106.701 94.8901L95.4912 119.61C91.478 124.789 86.3419 128.99 80.4699 131.897C74.598 134.803 68.143 136.34 61.5912 136.39C34.3612 136.97 21.4412 112.39 21.4412 112.39C5.93125 86.9501 1.36125 53.3901 0.271249 42.6601C0.0412492 40.4301 0.0312513 39.1001 0.0312513 39.1001C0.0299884 35.7392 0.946812 32.4417 2.68274 29.5638C4.41867 26.6858 6.90775 24.3367 9.88125 22.7701C12.9558 21.2122 16.3772 20.4653 19.8213 20.6001C23.0255 20.7341 26.1431 21.6804 28.8813 23.3501C31.009 24.6236 32.8481 26.3265 34.2812 28.3501C36.8412 31.9901 37.4212 36.5201 37.9312 40.8501C38.9902 50.346 40.8467 59.7358 43.4812 68.9201V68.9201Z" fill="url(#paint4_radial)"/>
<path d="M43.4812 68.9201C45.5766 76.2862 48.4319 83.4145 52.0012 90.1901C53.6312 93.1901 55.2612 96.1901 58.2212 98.0801C58.7341 98.4023 59.2992 98.6325 59.8912 98.7601C64.2512 99.6901 66.6413 96.1801 68.1813 92.9701C70.4794 87.9337 72.3363 82.7075 73.7313 77.3501C74.0013 76.3501 74.2612 75.3501 74.5212 74.3501C75.0212 72.4401 75.5212 70.5101 75.9512 68.5801L95.1912 17.1801C99.1878 11.8573 104.369 7.53813 110.324 4.56486C116.279 1.59158 122.845 0.0458458 129.501 0.0501157C139.086 -0.008893 148.405 3.20093 155.921 9.15012C168.501 18.6701 175.991 37.4201 175.991 37.4201C177.083 39.8613 177.645 42.506 177.641 45.1801C177.636 47.6569 177.143 50.1083 176.19 52.3945C175.238 54.6807 173.844 56.7569 172.089 58.5045C170.334 60.2521 168.252 61.6369 165.962 62.5798C163.672 63.5228 161.218 64.0054 158.741 64.0001C155.987 63.9983 153.266 63.3909 150.773 62.221C148.279 61.0511 146.073 59.3473 144.311 57.2301L144.131 57.0101C142.922 55.3778 141.914 53.6049 141.131 51.7301C140.094 49.3769 138.932 47.0803 137.651 44.8501C136.971 43.7001 136.211 42.6101 135.431 41.5301C134.757 40.5647 133.96 39.6908 133.061 38.9301C131.291 37.5001 129.061 36.9301 126.981 38.1601C126.881 38.2176 126.784 38.2811 126.691 38.3501C124.551 39.8201 123.051 42.7901 122.011 45.0701C119.011 51.5301 117.291 58.1501 115.591 64.9501C115.271 66.2601 114.951 67.5701 114.651 68.8901L106.701 94.8901L95.4912 119.61C91.478 124.789 86.3419 128.99 80.4699 131.897C74.598 134.803 68.143 136.34 61.5912 136.39C34.3612 136.97 21.4412 112.39 21.4412 112.39C5.93125 86.9501 1.36125 53.3901 0.271249 42.6601C0.0412492 40.4301 0.0312513 39.1001 0.0312513 39.1001C0.0299884 35.7392 0.946812 32.4417 2.68274 29.5638C4.41867 26.6858 6.90775 24.3367 9.88125 22.7701C12.9558 21.2122 16.3772 20.4653 19.8213 20.6001C23.0255 20.7341 26.1431 21.6804 28.8813 23.3501C31.009 24.6236 32.8481 26.3265 34.2812 28.3501C36.8412 31.9901 37.4212 36.5201 37.9312 40.8501C38.9902 50.346 40.8467 59.7358 43.4812 68.9201V68.9201Z" fill="url(#paint5_radial)"/>
<path d="M43.4812 68.9201C45.5766 76.2862 48.4319 83.4145 52.0012 90.1901C53.6312 93.1901 55.2612 96.1901 58.2212 98.0801C58.7341 98.4023 59.2992 98.6325 59.8912 98.7601C64.2512 99.6901 66.6413 96.1801 68.1813 92.9701C70.4794 87.9337 72.3363 82.7075 73.7313 77.3501C74.0013 76.3501 74.2612 75.3501 74.5212 74.3501C75.0212 72.4401 75.5212 70.5101 75.9512 68.5801L95.1912 17.1801C99.1878 11.8573 104.369 7.53813 110.324 4.56486C116.279 1.59158 122.845 0.0458458 129.501 0.0501157C139.086 -0.008893 148.405 3.20093 155.921 9.15012C168.501 18.6701 175.991 37.4201 175.991 37.4201C177.083 39.8613 177.645 42.506 177.641 45.1801C177.636 47.6569 177.143 50.1083 176.19 52.3945C175.238 54.6807 173.844 56.7569 172.089 58.5045C170.334 60.2521 168.252 61.6369 165.962 62.5798C163.672 63.5228 161.218 64.0054 158.741 64.0001C155.987 63.9983 153.266 63.3909 150.773 62.221C148.279 61.0511 146.073 59.3473 144.311 57.2301L144.131 57.0101C142.922 55.3778 141.914 53.6049 141.131 51.7301C140.094 49.3769 138.932 47.0803 137.651 44.8501C136.971 43.7001 136.211 42.6101 135.431 41.5301C134.757 40.5647 133.96 39.6908 133.061 38.9301C131.291 37.5001 129.061 36.9301 126.981 38.1601C126.881 38.2176 126.784 38.2811 126.691 38.3501C124.551 39.8201 123.051 42.7901 122.011 45.0701C119.011 51.5301 117.291 58.1501 115.591 64.9501C115.271 66.2601 114.951 67.5701 114.651 68.8901L106.701 94.8901L95.4912 119.61C91.478 124.789 86.3419 128.99 80.4699 131.897C74.598 134.803 68.143 136.34 61.5912 136.39C34.3612 136.97 21.4412 112.39 21.4412 112.39C5.93125 86.9501 1.36125 53.3901 0.271249 42.6601C0.0412492 40.4301 0.0312513 39.1001 0.0312513 39.1001C0.0299884 35.7392 0.946812 32.4417 2.68274 29.5638C4.41867 26.6858 6.90775 24.3367 9.88125 22.7701C12.9558 21.2122 16.3772 20.4653 19.8213 20.6001C23.0255 20.7341 26.1431 21.6804 28.8813 23.3501C31.009 24.6236 32.8481 26.3265 34.2812 28.3501C36.8412 31.9901 37.4212 36.5201 37.9312 40.8501C38.9902 50.346 40.8467 59.7358 43.4812 68.9201V68.9201Z" fill="url(#paint6_radial)"/>
<path d="M43.4812 68.9201C45.5766 76.2862 48.4319 83.4145 52.0012 90.1901C53.6312 93.1901 55.2612 96.1901 58.2212 98.0801C58.7341 98.4023 59.2992 98.6325 59.8912 98.7601C64.2512 99.6901 66.6413 96.1801 68.1813 92.9701C70.4794 87.9337 72.3363 82.7075 73.7313 77.3501C74.0013 76.3501 74.2612 75.3501 74.5212 74.3501C75.0212 72.4401 75.5212 70.5101 75.9512 68.5801L95.1912 17.1801C99.1878 11.8573 104.369 7.53813 110.324 4.56486C116.279 1.59158 122.845 0.0458458 129.501 0.0501157C139.086 -0.008893 148.405 3.20093 155.921 9.15012C168.501 18.6701 175.991 37.4201 175.991 37.4201C177.083 39.8613 177.645 42.506 177.641 45.1801C177.636 47.6569 177.143 50.1083 176.19 52.3945C175.238 54.6807 173.844 56.7569 172.089 58.5045C170.334 60.2521 168.252 61.6369 165.962 62.5798C163.672 63.5228 161.218 64.0054 158.741 64.0001C155.987 63.9983 153.266 63.3909 150.773 62.221C148.279 61.0511 146.073 59.3473 144.311 57.2301L144.131 57.0101C142.922 55.3778 141.914 53.6049 141.131 51.7301C140.094 49.3769 138.932 47.0803 137.651 44.8501C136.971 43.7001 136.211 42.6101 135.431 41.5301C134.757 40.5647 133.96 39.6908 133.061 38.9301C131.291 37.5001 129.061 36.9301 126.981 38.1601C126.881 38.2176 126.784 38.2811 126.691 38.3501C124.551 39.8201 123.051 42.7901 122.011 45.0701C119.011 51.5301 117.291 58.1501 115.591 64.9501C115.271 66.2601 114.951 67.5701 114.651 68.8901L106.701 94.8901L95.4912 119.61C91.478 124.789 86.3419 128.99 80.4699 131.897C74.598 134.803 68.143 136.34 61.5912 136.39C34.3612 136.97 21.4412 112.39 21.4412 112.39C5.93125 86.9501 1.36125 53.3901 0.271249 42.6601C0.0412492 40.4301 0.0312513 39.1001 0.0312513 39.1001C0.0299884 35.7392 0.946812 32.4417 2.68274 29.5638C4.41867 26.6858 6.90775 24.3367 9.88125 22.7701C12.9558 21.2122 16.3772 20.4653 19.8213 20.6001C23.0255 20.7341 26.1431 21.6804 28.8813 23.3501C31.009 24.6236 32.8481 26.3265 34.2812 28.3501C36.8412 31.9901 37.4212 36.5201 37.9312 40.8501C38.9902 50.346 40.8467 59.7358 43.4812 68.9201V68.9201Z" fill="url(#paint7_radial)"/>
<path d="M43.4812 68.9201C45.5766 76.2862 48.4319 83.4145 52.0012 90.1901C53.6312 93.1901 55.2612 96.1901 58.2212 98.0801C58.7341 98.4023 59.2992 98.6325 59.8912 98.7601C64.2512 99.6901 66.6413 96.1801 68.1813 92.9701C70.4794 87.9337 72.3363 82.7075 73.7313 77.3501C74.0013 76.3501 74.2612 75.3501 74.5212 74.3501C75.0212 72.4401 75.5212 70.5101 75.9512 68.5801L95.1912 17.1801C99.1878 11.8573 104.369 7.53813 110.324 4.56486C116.279 1.59158 122.845 0.0458458 129.501 0.0501157C139.086 -0.008893 148.405 3.20093 155.921 9.15012C168.501 18.6701 175.991 37.4201 175.991 37.4201C177.083 39.8613 177.645 42.506 177.641 45.1801C177.636 47.6569 177.143 50.1083 176.19 52.3945C175.238 54.6807 173.844 56.7569 172.089 58.5045C170.334 60.2521 168.252 61.6369 165.962 62.5798C163.672 63.5228 161.218 64.0054 158.741 64.0001C155.987 63.9983 153.266 63.3909 150.773 62.221C148.279 61.0511 146.073 59.3473 144.311 57.2301L144.131 57.0101C142.922 55.3778 141.914 53.6049 141.131 51.7301C140.094 49.3769 138.932 47.0803 137.651 44.8501C136.971 43.7001 136.211 42.6101 135.431 41.5301C134.757 40.5647 133.96 39.6908 133.061 38.9301C131.291 37.5001 129.061 36.9301 126.981 38.1601C126.881 38.2176 126.784 38.2811 126.691 38.3501C124.551 39.8201 123.051 42.7901 122.011 45.0701C119.011 51.5301 117.291 58.1501 115.591 64.9501C115.271 66.2601 114.951 67.5701 114.651 68.8901L106.701 94.8901L95.4912 119.61C91.478 124.789 86.3419 128.99 80.4699 131.897C74.598 134.803 68.143 136.34 61.5912 136.39C34.3612 136.97 21.4412 112.39 21.4412 112.39C5.93125 86.9501 1.36125 53.3901 0.271249 42.6601C0.0412492 40.4301 0.0312513 39.1001 0.0312513 39.1001C0.0299884 35.7392 0.946812 32.4417 2.68274 29.5638C4.41867 26.6858 6.90775 24.3367 9.88125 22.7701C12.9558 21.2122 16.3772 20.4653 19.8213 20.6001C23.0255 20.7341 26.1431 21.6804 28.8813 23.3501C31.009 24.6236 32.8481 26.3265 34.2812 28.3501C36.8412 31.9901 37.4212 36.5201 37.9312 40.8501C38.9902 50.346 40.8467 59.7358 43.4812 68.9201V68.9201Z" fill="url(#paint8_radial)"/>
<path d="M43.4812 68.9201C45.5766 76.2862 48.4319 83.4145 52.0012 90.1901C53.6312 93.1901 55.2612 96.1901 58.2212 98.0801C58.7341 98.4023 59.2992 98.6325 59.8912 98.7601C64.2512 99.6901 66.6413 96.1801 68.1813 92.9701C70.4794 87.9337 72.3363 82.7075 73.7313 77.3501C74.0013 76.3501 74.2612 75.3501 74.5212 74.3501C75.0212 72.4401 75.5212 70.5101 75.9512 68.5801L95.1912 17.1801C99.1878 11.8573 104.369 7.53813 110.324 4.56486C116.279 1.59158 122.845 0.0458458 129.501 0.0501157C139.086 -0.008893 148.405 3.20093 155.921 9.15012C168.501 18.6701 175.991 37.4201 175.991 37.4201C177.083 39.8613 177.645 42.506 177.641 45.1801C177.636 47.6569 177.143 50.1083 176.19 52.3945C175.238 54.6807 173.844 56.7569 172.089 58.5045C170.334 60.2521 168.252 61.6369 165.962 62.5798C163.672 63.5228 161.218 64.0054 158.741 64.0001C155.987 63.9983 153.266 63.3909 150.773 62.221C148.279 61.0511 146.073 59.3473 144.311 57.2301L144.131 57.0101C142.922 55.3778 141.914 53.6049 141.131 51.7301C140.094 49.3769 138.932 47.0803 137.651 44.8501C136.971 43.7001 136.211 42.6101 135.431 41.5301C134.757 40.5647 133.96 39.6908 133.061 38.9301C131.291 37.5001 129.061 36.9301 126.981 38.1601C126.881 38.2176 126.784 38.2811 126.691 38.3501C124.551 39.8201 123.051 42.7901 122.011 45.0701C119.011 51.5301 117.291 58.1501 115.591 64.9501C115.271 66.2601 114.951 67.5701 114.651 68.8901L106.701 94.8901L95.4912 119.61C91.478 124.789 86.3419 128.99 80.4699 131.897C74.598 134.803 68.143 136.34 61.5912 136.39C34.3612 136.97 21.4412 112.39 21.4412 112.39C5.93125 86.9501 1.36125 53.3901 0.271249 42.6601C0.0412492 40.4301 0.0312513 39.1001 0.0312513 39.1001C0.0299884 35.7392 0.946812 32.4417 2.68274 29.5638C4.41867 26.6858 6.90775 24.3367 9.88125 22.7701C12.9558 21.2122 16.3772 20.4653 19.8213 20.6001C23.0255 20.7341 26.1431 21.6804 28.8813 23.3501C31.009 24.6236 32.8481 26.3265 34.2812 28.3501C36.8412 31.9901 37.4212 36.5201 37.9312 40.8501C38.9902 50.346 40.8467 59.7358 43.4812 68.9201V68.9201Z" fill="url(#paint9_radial)"/>
<path d="M43.4812 68.9201C45.5766 76.2862 48.4319 83.4145 52.0012 90.1901C53.6312 93.1901 55.2612 96.1901 58.2212 98.0801C58.7341 98.4023 59.2992 98.6325 59.8912 98.7601C64.2512 99.6901 66.6413 96.1801 68.1813 92.9701C70.4794 87.9337 72.3363 82.7075 73.7313 77.3501C74.0013 76.3501 74.2612 75.3501 74.5212 74.3501C75.0212 72.4401 75.5212 70.5101 75.9512 68.5801L95.1912 17.1801C99.1878 11.8573 104.369 7.53813 110.324 4.56486C116.279 1.59158 122.845 0.0458458 129.501 0.0501157C139.086 -0.008893 148.405 3.20093 155.921 9.15012C168.501 18.6701 175.991 37.4201 175.991 37.4201C177.083 39.8613 177.645 42.506 177.641 45.1801C177.636 47.6569 177.143 50.1083 176.19 52.3945C175.238 54.6807 173.844 56.7569 172.089 58.5045C170.334 60.2521 168.252 61.6369 165.962 62.5798C163.672 63.5228 161.218 64.0054 158.741 64.0001C155.987 63.9983 153.266 63.3909 150.773 62.221C148.279 61.0511 146.073 59.3473 144.311 57.2301L144.131 57.0101C142.922 55.3778 141.914 53.6049 141.131 51.7301C140.094 49.3769 138.932 47.0803 137.651 44.8501C136.971 43.7001 136.211 42.6101 135.431 41.5301C134.757 40.5647 133.96 39.6908 133.061 38.9301C131.291 37.5001 129.061 36.9301 126.981 38.1601C126.881 38.2176 126.784 38.2811 126.691 38.3501C124.551 39.8201 123.051 42.7901 122.011 45.0701C119.011 51.5301 117.291 58.1501 115.591 64.9501C115.271 66.2601 114.951 67.5701 114.651 68.8901L106.701 94.8901L95.4912 119.61C91.478 124.789 86.3419 128.99 80.4699 131.897C74.598 134.803 68.143 136.34 61.5912 136.39C34.3612 136.97 21.4412 112.39 21.4412 112.39C5.93125 86.9501 1.36125 53.3901 0.271249 42.6601C0.0412492 40.4301 0.0312513 39.1001 0.0312513 39.1001C0.0299884 35.7392 0.946812 32.4417 2.68274 29.5638C4.41867 26.6858 6.90775 24.3367 9.88125 22.7701C12.9558 21.2122 16.3772 20.4653 19.8213 20.6001C23.0255 20.7341 26.1431 21.6804 28.8813 23.3501C31.009 24.6236 32.8481 26.3265 34.2812 28.3501C36.8412 31.9901 37.4212 36.5201 37.9312 40.8501C38.9902 50.346 40.8467 59.7358 43.4812 68.9201V68.9201Z" fill="url(#paint10_radial)"/>
<path d="M43.4812 68.9201C45.5766 76.2862 48.4319 83.4145 52.0012 90.1901C53.6312 93.1901 55.2612 96.1901 58.2212 98.0801C58.7341 98.4023 59.2992 98.6325 59.8912 98.7601C64.2512 99.6901 66.6413 96.1801 68.1813 92.9701C70.4794 87.9337 72.3363 82.7075 73.7313 77.3501C74.0013 76.3501 74.2612 75.3501 74.5212 74.3501C75.0212 72.4401 75.5212 70.5101 75.9512 68.5801L95.1912 17.1801C99.1878 11.8573 104.369 7.53813 110.324 4.56486C116.279 1.59158 122.845 0.0458458 129.501 0.0501157C139.086 -0.008893 148.405 3.20093 155.921 9.15012C168.501 18.6701 175.991 37.4201 175.991 37.4201C177.083 39.8613 177.645 42.506 177.641 45.1801C177.636 47.6569 177.143 50.1083 176.19 52.3945C175.238 54.6807 173.844 56.7569 172.089 58.5045C170.334 60.2521 168.252 61.6369 165.962 62.5798C163.672 63.5228 161.218 64.0054 158.741 64.0001C155.987 63.9983 153.266 63.3909 150.773 62.221C148.279 61.0511 146.073 59.3473 144.311 57.2301L144.131 57.0101C142.922 55.3778 141.914 53.6049 141.131 51.7301C140.094 49.3769 138.932 47.0803 137.651 44.8501C136.971 43.7001 136.211 42.6101 135.431 41.5301C134.757 40.5647 133.96 39.6908 133.061 38.9301C131.291 37.5001 129.061 36.9301 126.981 38.1601C126.881 38.2176 126.784 38.2811 126.691 38.3501C124.551 39.8201 123.051 42.7901 122.011 45.0701C119.011 51.5301 117.291 58.1501 115.591 64.9501C115.271 66.2601 114.951 67.5701 114.651 68.8901L106.701 94.8901L95.4912 119.61C91.478 124.789 86.3419 128.99 80.4699 131.897C74.598 134.803 68.143 136.34 61.5912 136.39C34.3612 136.97 21.4412 112.39 21.4412 112.39C5.93125 86.9501 1.36125 53.3901 0.271249 42.6601C0.0412492 40.4301 0.0312513 39.1001 0.0312513 39.1001C0.0299884 35.7392 0.946812 32.4417 2.68274 29.5638C4.41867 26.6858 6.90775 24.3367 9.88125 22.7701C12.9558 21.2122 16.3772 20.4653 19.8213 20.6001C23.0255 20.7341 26.1431 21.6804 28.8813 23.3501C31.009 24.6236 32.8481 26.3265 34.2812 28.3501C36.8412 31.9901 37.4212 36.5201 37.9312 40.8501C38.9902 50.346 40.8467 59.7358 43.4812 68.9201V68.9201Z" fill="url(#paint11_radial)"/>
<path d="M43.4812 68.9201C45.5766 76.2862 48.4319 83.4145 52.0012 90.1901C53.6312 93.1901 55.2612 96.1901 58.2212 98.0801C58.7341 98.4023 59.2992 98.6325 59.8912 98.7601C64.2512 99.6901 66.6413 96.1801 68.1813 92.9701C70.4794 87.9337 72.3363 82.7075 73.7313 77.3501C74.0013 76.3501 74.2612 75.3501 74.5212 74.3501C75.0212 72.4401 75.5212 70.5101 75.9512 68.5801L95.1912 17.1801C99.1878 11.8573 104.369 7.53813 110.324 4.56486C116.279 1.59158 122.845 0.0458458 129.501 0.0501157C139.086 -0.008893 148.405 3.20093 155.921 9.15012C168.501 18.6701 175.991 37.4201 175.991 37.4201C177.083 39.8613 177.645 42.506 177.641 45.1801C177.636 47.6569 177.143 50.1083 176.19 52.3945C175.238 54.6807 173.844 56.7569 172.089 58.5045C170.334 60.2521 168.252 61.6369 165.962 62.5798C163.672 63.5228 161.218 64.0054 158.741 64.0001C155.987 63.9983 153.266 63.3909 150.773 62.221C148.279 61.0511 146.073 59.3473 144.311 57.2301L144.131 57.0101C142.922 55.3778 141.914 53.6049 141.131 51.7301C140.094 49.3769 138.932 47.0803 137.651 44.8501C136.971 43.7001 136.211 42.6101 135.431 41.5301C134.757 40.5647 133.96 39.6908 133.061 38.9301C131.291 37.5001 129.061 36.9301 126.981 38.1601C126.881 38.2176 126.784 38.2811 126.691 38.3501C124.551 39.8201 123.051 42.7901 122.011 45.0701C119.011 51.5301 117.291 58.1501 115.591 64.9501C115.271 66.2601 114.951 67.5701 114.651 68.8901L106.701 94.8901L95.4912 119.61C91.478 124.789 86.3419 128.99 80.4699 131.897C74.598 134.803 68.143 136.34 61.5912 136.39C34.3612 136.97 21.4412 112.39 21.4412 112.39C5.93125 86.9501 1.36125 53.3901 0.271249 42.6601C0.0412492 40.4301 0.0312513 39.1001 0.0312513 39.1001C0.0299884 35.7392 0.946812 32.4417 2.68274 29.5638C4.41867 26.6858 6.90775 24.3367 9.88125 22.7701C12.9558 21.2122 16.3772 20.4653 19.8213 20.6001C23.0255 20.7341 26.1431 21.6804 28.8813 23.3501C31.009 24.6236 32.8481 26.3265 34.2812 28.3501C36.8412 31.9901 37.4212 36.5201 37.9312 40.8501C38.9902 50.346 40.8467 59.7358 43.4812 68.9201V68.9201Z" fill="url(#paint12_radial)"/>
<path d="M43.4812 68.9201C45.5766 76.2862 48.4319 83.4145 52.0012 90.1901C53.6312 93.1901 55.2612 96.1901 58.2212 98.0801C58.7341 98.4023 59.2992 98.6325 59.8912 98.7601C64.2512 99.6901 66.6413 96.1801 68.1813 92.9701C70.4794 87.9337 72.3363 82.7075 73.7313 77.3501C74.0013 76.3501 74.2612 75.3501 74.5212 74.3501C75.0212 72.4401 75.5212 70.5101 75.9512 68.5801L95.1912 17.1801C99.1878 11.8573 104.369 7.53813 110.324 4.56486C116.279 1.59158 122.845 0.0458458 129.501 0.0501157C139.086 -0.008893 148.405 3.20093 155.921 9.15012C168.501 18.6701 175.991 37.4201 175.991 37.4201C177.083 39.8613 177.645 42.506 177.641 45.1801C177.636 47.6569 177.143 50.1083 176.19 52.3945C175.238 54.6807 173.844 56.7569 172.089 58.5045C170.334 60.2521 168.252 61.6369 165.962 62.5798C163.672 63.5228 161.218 64.0054 158.741 64.0001C155.987 63.9983 153.266 63.3909 150.773 62.221C148.279 61.0511 146.073 59.3473 144.311 57.2301L144.131 57.0101C142.922 55.3778 141.914 53.6049 141.131 51.7301C140.094 49.3769 138.932 47.0803 137.651 44.8501C136.971 43.7001 136.211 42.6101 135.431 41.5301C134.757 40.5647 133.96 39.6908 133.061 38.9301C131.291 37.5001 129.061 36.9301 126.981 38.1601C126.881 38.2176 126.784 38.2811 126.691 38.3501C124.551 39.8201 123.051 42.7901 122.011 45.0701C119.011 51.5301 117.291 58.1501 115.591 64.9501C115.271 66.2601 114.951 67.5701 114.651 68.8901L106.701 94.8901L95.4912 119.61C91.478 124.789 86.3419 128.99 80.4699 131.897C74.598 134.803 68.143 136.34 61.5912 136.39C34.3612 136.97 21.4412 112.39 21.4412 112.39C5.93125 86.9501 1.36125 53.3901 0.271249 42.6601C0.0412492 40.4301 0.0312513 39.1001 0.0312513 39.1001C0.0299884 35.7392 0.946812 32.4417 2.68274 29.5638C4.41867 26.6858 6.90775 24.3367 9.88125 22.7701C12.9558 21.2122 16.3772 20.4653 19.8213 20.6001C23.0255 20.7341 26.1431 21.6804 28.8813 23.3501C31.009 24.6236 32.8481 26.3265 34.2812 28.3501C36.8412 31.9901 37.4212 36.5201 37.9312 40.8501C38.9902 50.346 40.8467 59.7358 43.4812 68.9201V68.9201Z" fill="url(#paint13_radial)"/>
<path d="M43.4812 68.9201C45.5766 76.2862 48.4319 83.4145 52.0012 90.1901C53.6312 93.1901 55.2612 96.1901 58.2212 98.0801C58.7341 98.4023 59.2992 98.6325 59.8912 98.7601C64.2512 99.6901 66.6413 96.1801 68.1813 92.9701C70.4794 87.9337 72.3363 82.7075 73.7313 77.3501C74.0013 76.3501 74.2612 75.3501 74.5212 74.3501C75.0212 72.4401 75.5212 70.5101 75.9512 68.5801L95.1912 17.1801C99.1878 11.8573 104.369 7.53813 110.324 4.56486C116.279 1.59158 122.845 0.0458458 129.501 0.0501157C139.086 -0.008893 148.405 3.20093 155.921 9.15012C168.501 18.6701 175.991 37.4201 175.991 37.4201C177.083 39.8613 177.645 42.506 177.641 45.1801C177.636 47.6569 177.143 50.1083 176.19 52.3945C175.238 54.6807 173.844 56.7569 172.089 58.5045C170.334 60.2521 168.252 61.6369 165.962 62.5798C163.672 63.5228 161.218 64.0054 158.741 64.0001C155.987 63.9983 153.266 63.3909 150.773 62.221C148.279 61.0511 146.073 59.3473 144.311 57.2301L144.131 57.0101C142.922 55.3778 141.914 53.6049 141.131 51.7301C140.094 49.3769 138.932 47.0803 137.651 44.8501C136.971 43.7001 136.211 42.6101 135.431 41.5301C134.757 40.5647 133.96 39.6908 133.061 38.9301C131.291 37.5001 129.061 36.9301 126.981 38.1601C126.881 38.2176 126.784 38.2811 126.691 38.3501C124.551 39.8201 123.051 42.7901 122.011 45.0701C119.011 51.5301 117.291 58.1501 115.591 64.9501C115.271 66.2601 114.951 67.5701 114.651 68.8901L106.701 94.8901L95.4912 119.61C91.478 124.789 86.3419 128.99 80.4699 131.897C74.598 134.803 68.143 136.34 61.5912 136.39C34.3612 136.97 21.4412 112.39 21.4412 112.39C5.93125 86.9501 1.36125 53.3901 0.271249 42.6601C0.0412492 40.4301 0.0312513 39.1001 0.0312513 39.1001C0.0299884 35.7392 0.946812 32.4417 2.68274 29.5638C4.41867 26.6858 6.90775 24.3367 9.88125 22.7701C12.9558 21.2122 16.3772 20.4653 19.8213 20.6001C23.0255 20.7341 26.1431 21.6804 28.8813 23.3501C31.009 24.6236 32.8481 26.3265 34.2812 28.3501C36.8412 31.9901 37.4212 36.5201 37.9312 40.8501C38.9902 50.346 40.8467 59.7358 43.4812 68.9201V68.9201Z" fill="url(#paint14_radial)"/>
<path d="M43.4812 68.9201C45.5766 76.2862 48.4319 83.4145 52.0012 90.1901C53.6312 93.1901 55.2612 96.1901 58.2212 98.0801C58.7341 98.4023 59.2992 98.6325 59.8912 98.7601C64.2512 99.6901 66.6413 96.1801 68.1813 92.9701C70.4794 87.9337 72.3363 82.7075 73.7313 77.3501C74.0013 76.3501 74.2612 75.3501 74.5212 74.3501C75.0212 72.4401 75.5212 70.5101 75.9512 68.5801L95.1912 17.1801C99.1878 11.8573 104.369 7.53813 110.324 4.56486C116.279 1.59158 122.845 0.0458458 129.501 0.0501157C139.086 -0.008893 148.405 3.20093 155.921 9.15012C168.501 18.6701 175.991 37.4201 175.991 37.4201C177.083 39.8613 177.645 42.506 177.641 45.1801C177.636 47.6569 177.143 50.1083 176.19 52.3945C175.238 54.6807 173.844 56.7569 172.089 58.5045C170.334 60.2521 168.252 61.6369 165.962 62.5798C163.672 63.5228 161.218 64.0054 158.741 64.0001C155.987 63.9983 153.266 63.3909 150.773 62.221C148.279 61.0511 146.073 59.3473 144.311 57.2301L144.131 57.0101C142.922 55.3778 141.914 53.6049 141.131 51.7301C140.094 49.3769 138.932 47.0803 137.651 44.8501C136.971 43.7001 136.211 42.6101 135.431 41.5301C134.757 40.5647 133.96 39.6908 133.061 38.9301C131.291 37.5001 129.061 36.9301 126.981 38.1601C126.881 38.2176 126.784 38.2811 126.691 38.3501C124.551 39.8201 123.051 42.7901 122.011 45.0701C119.011 51.5301 117.291 58.1501 115.591 64.9501C115.271 66.2601 114.951 67.5701 114.651 68.8901L106.701 94.8901L95.4912 119.61C91.478 124.789 86.3419 128.99 80.4699 131.897C74.598 134.803 68.143 136.34 61.5912 136.39C34.3612 136.97 21.4412 112.39 21.4412 112.39C5.93125 86.9501 1.36125 53.3901 0.271249 42.6601C0.0412492 40.4301 0.0312513 39.1001 0.0312513 39.1001C0.0299884 35.7392 0.946812 32.4417 2.68274 29.5638C4.41867 26.6858 6.90775 24.3367 9.88125 22.7701C12.9558 21.2122 16.3772 20.4653 19.8213 20.6001C23.0255 20.7341 26.1431 21.6804 28.8813 23.3501C31.009 24.6236 32.8481 26.3265 34.2812 28.3501C36.8412 31.9901 37.4212 36.5201 37.9312 40.8501C38.9902 50.346 40.8467 59.7358 43.4812 68.9201V68.9201Z" fill="url(#paint15_radial)"/>
<path d="M43.4812 68.9201C45.5766 76.2862 48.4319 83.4145 52.0012 90.1901C53.6312 93.1901 55.2612 96.1901 58.2212 98.0801C58.7341 98.4023 59.2992 98.6325 59.8912 98.7601C64.2512 99.6901 66.6413 96.1801 68.1813 92.9701C70.4794 87.9337 72.3363 82.7075 73.7313 77.3501C74.0013 76.3501 74.2612 75.3501 74.5212 74.3501C75.0212 72.4401 75.5212 70.5101 75.9512 68.5801L95.1912 17.1801C99.1878 11.8573 104.369 7.53813 110.324 4.56486C116.279 1.59158 122.845 0.0458458 129.501 0.0501157C139.086 -0.008893 148.405 3.20093 155.921 9.15012C168.501 18.6701 175.991 37.4201 175.991 37.4201C177.083 39.8613 177.645 42.506 177.641 45.1801C177.636 47.6569 177.143 50.1083 176.19 52.3945C175.238 54.6807 173.844 56.7569 172.089 58.5045C170.334 60.2521 168.252 61.6369 165.962 62.5798C163.672 63.5228 161.218 64.0054 158.741 64.0001C155.987 63.9983 153.266 63.3909 150.773 62.221C148.279 61.0511 146.073 59.3473 144.311 57.2301L144.131 57.0101C142.922 55.3778 141.914 53.6049 141.131 51.7301C140.094 49.3769 138.932 47.0803 137.651 44.8501C136.971 43.7001 136.211 42.6101 135.431 41.5301C134.757 40.5647 133.96 39.6908 133.061 38.9301C131.291 37.5001 129.061 36.9301 126.981 38.1601C126.881 38.2176 126.784 38.2811 126.691 38.3501C124.551 39.8201 123.051 42.7901 122.011 45.0701C119.011 51.5301 117.291 58.1501 115.591 64.9501C115.271 66.2601 114.951 67.5701 114.651 68.8901L106.701 94.8901L95.4912 119.61C91.478 124.789 86.3419 128.99 80.4699 131.897C74.598 134.803 68.143 136.34 61.5912 136.39C34.3612 136.97 21.4412 112.39 21.4412 112.39C5.93125 86.9501 1.36125 53.3901 0.271249 42.6601C0.0412492 40.4301 0.0312513 39.1001 0.0312513 39.1001C0.0299884 35.7392 0.946812 32.4417 2.68274 29.5638C4.41867 26.6858 6.90775 24.3367 9.88125 22.7701C12.9558 21.2122 16.3772 20.4653 19.8213 20.6001C23.0255 20.7341 26.1431 21.6804 28.8813 23.3501C31.009 24.6236 32.8481 26.3265 34.2812 28.3501C36.8412 31.9901 37.4212 36.5201 37.9312 40.8501C38.9902 50.346 40.8467 59.7358 43.4812 68.9201V68.9201Z" fill="url(#paint16_linear)"/>
<path d="M43.4812 68.9201C45.5766 76.2862 48.4319 83.4145 52.0012 90.1901C53.6312 93.1901 55.2612 96.1901 58.2212 98.0801C58.7341 98.4023 59.2992 98.6325 59.8912 98.7601C64.2512 99.6901 66.6413 96.1801 68.1813 92.9701C70.4794 87.9337 72.3363 82.7075 73.7313 77.3501C74.0013 76.3501 74.2612 75.3501 74.5212 74.3501C75.0212 72.4401 75.5212 70.5101 75.9512 68.5801L95.1912 17.1801C99.1878 11.8573 104.369 7.53813 110.324 4.56486C116.279 1.59158 122.845 0.0458458 129.501 0.0501157C139.086 -0.008893 148.405 3.20093 155.921 9.15012C168.501 18.6701 175.991 37.4201 175.991 37.4201C177.083 39.8613 177.645 42.506 177.641 45.1801C177.636 47.6569 177.143 50.1083 176.19 52.3945C175.238 54.6807 173.844 56.7569 172.089 58.5045C170.334 60.2521 168.252 61.6369 165.962 62.5798C163.672 63.5228 161.218 64.0054 158.741 64.0001C155.987 63.9983 153.266 63.3909 150.773 62.221C148.279 61.0511 146.073 59.3473 144.311 57.2301L144.131 57.0101C142.922 55.3778 141.914 53.6049 141.131 51.7301C140.094 49.3769 138.932 47.0803 137.651 44.8501C136.971 43.7001 136.211 42.6101 135.431 41.5301C134.757 40.5647 133.96 39.6908 133.061 38.9301C131.291 37.5001 129.061 36.9301 126.981 38.1601C126.881 38.2176 126.784 38.2811 126.691 38.3501C124.551 39.8201 123.051 42.7901 122.011 45.0701C119.011 51.5301 117.291 58.1501 115.591 64.9501C115.271 66.2601 114.951 67.5701 114.651 68.8901L106.701 94.8901L95.4912 119.61C91.478 124.789 86.3419 128.99 80.4699 131.897C74.598 134.803 68.143 136.34 61.5912 136.39C34.3612 136.97 21.4412 112.39 21.4412 112.39C5.93125 86.9501 1.36125 53.3901 0.271249 42.6601C0.0412492 40.4301 0.0312513 39.1001 0.0312513 39.1001C0.0299884 35.7392 0.946812 32.4417 2.68274 29.5638C4.41867 26.6858 6.90775 24.3367 9.88125 22.7701C12.9558 21.2122 16.3772 20.4653 19.8213 20.6001C23.0255 20.7341 26.1431 21.6804 28.8813 23.3501C31.009 24.6236 32.8481 26.3265 34.2812 28.3501C36.8412 31.9901 37.4212 36.5201 37.9312 40.8501C38.9902 50.346 40.8467 59.7358 43.4812 68.9201V68.9201Z" fill="url(#paint17_linear)"/>
<path d="M43.4812 68.9201C45.5766 76.2862 48.4319 83.4145 52.0012 90.1901C53.6312 93.1901 55.2612 96.1901 58.2212 98.0801C58.7341 98.4023 59.2992 98.6325 59.8912 98.7601C64.2512 99.6901 66.6413 96.1801 68.1813 92.9701C70.4794 87.9337 72.3363 82.7075 73.7313 77.3501C74.0013 76.3501 74.2612 75.3501 74.5212 74.3501C75.0212 72.4401 75.5212 70.5101 75.9512 68.5801L95.1912 17.1801C99.1878 11.8573 104.369 7.53813 110.324 4.56486C116.279 1.59158 122.845 0.0458458 129.501 0.0501157C139.086 -0.008893 148.405 3.20093 155.921 9.15012C168.501 18.6701 175.991 37.4201 175.991 37.4201C177.083 39.8613 177.645 42.506 177.641 45.1801C177.636 47.6569 177.143 50.1083 176.19 52.3945C175.238 54.6807 173.844 56.7569 172.089 58.5045C170.334 60.2521 168.252 61.6369 165.962 62.5798C163.672 63.5228 161.218 64.0054 158.741 64.0001C155.987 63.9983 153.266 63.3909 150.773 62.221C148.279 61.0511 146.073 59.3473 144.311 57.2301L144.131 57.0101C142.922 55.3778 141.914 53.6049 141.131 51.7301C140.094 49.3769 138.932 47.0803 137.651 44.8501C136.971 43.7001 136.211 42.6101 135.431 41.5301C134.757 40.5647 133.96 39.6908 133.061 38.9301C131.291 37.5001 129.061 36.9301 126.981 38.1601C126.881 38.2176 126.784 38.2811 126.691 38.3501C124.551 39.8201 123.051 42.7901 122.011 45.0701C119.011 51.5301 117.291 58.1501 115.591 64.9501C115.271 66.2601 114.951 67.5701 114.651 68.8901L106.701 94.8901L95.4912 119.61C91.478 124.789 86.3419 128.99 80.4699 131.897C74.598 134.803 68.143 136.34 61.5912 136.39C34.3612 136.97 21.4412 112.39 21.4412 112.39C5.93125 86.9501 1.36125 53.3901 0.271249 42.6601C0.0412492 40.4301 0.0312513 39.1001 0.0312513 39.1001C0.0299884 35.7392 0.946812 32.4417 2.68274 29.5638C4.41867 26.6858 6.90775 24.3367 9.88125 22.7701C12.9558 21.2122 16.3772 20.4653 19.8213 20.6001C23.0255 20.7341 26.1431 21.6804 28.8813 23.3501C31.009 24.6236 32.8481 26.3265 34.2812 28.3501C36.8412 31.9901 37.4212 36.5201 37.9312 40.8501C38.9902 50.346 40.8467 59.7358 43.4812 68.9201V68.9201Z" fill="url(#paint18_linear)"/>
<path d="M43.4812 68.9201C45.5766 76.2862 48.4319 83.4145 52.0012 90.1901C53.6312 93.1901 55.2612 96.1901 58.2212 98.0801C58.7341 98.4023 59.2992 98.6325 59.8912 98.7601C64.2512 99.6901 66.6413 96.1801 68.1813 92.9701C70.4794 87.9337 72.3363 82.7075 73.7313 77.3501C74.0013 76.3501 74.2612 75.3501 74.5212 74.3501C75.0212 72.4401 75.5212 70.5101 75.9512 68.5801L95.1912 17.1801C99.1878 11.8573 104.369 7.53813 110.324 4.56486C116.279 1.59158 122.845 0.0458458 129.501 0.0501157C139.086 -0.008893 148.405 3.20093 155.921 9.15012C168.501 18.6701 175.991 37.4201 175.991 37.4201C177.083 39.8613 177.645 42.506 177.641 45.1801C177.636 47.6569 177.143 50.1083 176.19 52.3945C175.238 54.6807 173.844 56.7569 172.089 58.5045C170.334 60.2521 168.252 61.6369 165.962 62.5798C163.672 63.5228 161.218 64.0054 158.741 64.0001C155.987 63.9983 153.266 63.3909 150.773 62.221C148.279 61.0511 146.073 59.3473 144.311 57.2301L144.131 57.0101C142.922 55.3778 141.914 53.6049 141.131 51.7301C140.094 49.3769 138.932 47.0803 137.651 44.8501C136.971 43.7001 136.211 42.6101 135.431 41.5301C134.757 40.5647 133.96 39.6908 133.061 38.9301C131.291 37.5001 129.061 36.9301 126.981 38.1601C126.881 38.2176 126.784 38.2811 126.691 38.3501C124.551 39.8201 123.051 42.7901 122.011 45.0701C119.011 51.5301 117.291 58.1501 115.591 64.9501C115.271 66.2601 114.951 67.5701 114.651 68.8901L106.701 94.8901L95.4912 119.61C91.478 124.789 86.3419 128.99 80.4699 131.897C74.598 134.803 68.143 136.34 61.5912 136.39C34.3612 136.97 21.4412 112.39 21.4412 112.39C5.93125 86.9501 1.36125 53.3901 0.271249 42.6601C0.0412492 40.4301 0.0312513 39.1001 0.0312513 39.1001C0.0299884 35.7392 0.946812 32.4417 2.68274 29.5638C4.41867 26.6858 6.90775 24.3367 9.88125 22.7701C12.9558 21.2122 16.3772 20.4653 19.8213 20.6001C23.0255 20.7341 26.1431 21.6804 28.8813 23.3501C31.009 24.6236 32.8481 26.3265 34.2812 28.3501C36.8412 31.9901 37.4212 36.5201 37.9312 40.8501C38.9902 50.346 40.8467 59.7358 43.4812 68.9201V68.9201Z" fill="url(#paint19_linear)"/>
<path d="M82.9609 49.8501L95.1909 17.1901C99.1874 11.8673 104.369 7.54814 110.324 4.57487C116.279 1.60159 122.845 0.0558556 129.501 0.0601255C139.086 0.00111676 148.405 3.21094 155.921 9.16013C168.501 18.6801 175.991 37.4301 175.991 37.4301C177.083 39.8713 177.645 42.516 177.641 45.1901C177.636 47.6669 177.143 50.1183 176.19 52.4045C175.237 54.6907 173.844 56.7669 172.089 58.5145C170.334 60.2621 168.252 61.6469 165.961 62.5898C163.671 63.5328 161.218 64.0154 158.741 64.0101C155.987 64.0083 153.266 63.4009 150.773 62.231C148.279 61.0611 146.073 59.3572 144.311 57.2401L144.131 57.0201C142.921 55.3878 141.914 53.6149 141.131 51.7401C140.093 49.3868 138.932 47.0903 137.651 44.8601C136.971 43.7101 136.211 42.6201 135.431 41.5401C134.757 40.5747 133.96 39.7008 133.061 38.9401C131.291 37.5101 129.061 36.9401 126.981 38.1701C126.881 38.2276 126.784 38.2911 126.691 38.3601C124.551 39.8301 123.051 42.8001 122.011 45.0801C119.011 51.5401 117.291 58.1601 115.591 64.9601C115.271 66.2701 114.951 67.5801 114.651 68.9001L106.701 94.9001L82.9609 49.8501Z" fill="url(#paint20_linear)"/>
<path d="M171.811 20.68C170.222 20.6765 168.64 20.8747 167.101 21.27C170.609 26.3388 173.587 31.7538 175.991 37.43C177.083 39.8712 177.645 42.5159 177.641 45.19C177.636 47.6668 177.143 50.1182 176.19 52.4044C175.237 54.6906 173.844 56.7668 172.089 58.5144C170.334 60.262 168.252 61.6468 165.961 62.5897C163.671 63.5327 161.218 64.0153 158.741 64.01C155.393 64.0037 152.107 63.1063 149.221 61.41L147.281 68.58C143.761 80.35 141.281 84.9 141.281 84.9C139.915 88.091 138.289 91.1647 136.421 94.09C135.131 96 133.481 97.92 131.221 98.65C130.435 98.9238 129.595 99.0061 128.771 98.89C127.879 98.7819 127.018 98.4927 126.241 98.04C124.755 96.9224 123.573 95.4512 122.801 93.76C121.845 91.8826 120.987 89.9567 120.231 87.99C118.561 83.93 115.981 73.93 115.981 73.93L113.311 63.46L110.641 52.91L108.741 45.98C103.741 27.93 96.8209 19.05 96.8209 19.05C91.3819 11.2944 83.6761 5.41197 74.7609 2.21002C64.4209 -1.49998 53.5709 0.590024 53.5709 0.590024C36.5709 3.93002 27.6409 15.59 23.7109 21.2C25.5096 21.6697 27.2308 22.3972 28.8209 23.36C30.9487 24.6335 32.7878 26.3364 34.2209 28.36C36.7809 32 37.3609 36.53 37.8709 40.86C38.9437 50.2445 40.7968 59.5233 43.4109 68.6C49.1709 49.5 56.0809 40.6 56.0809 40.6C56.853 39.6407 57.7789 38.8162 58.8209 38.16C59.3633 37.8271 59.9699 37.6124 60.6009 37.53C61.7705 37.4176 62.9437 37.703 63.9309 38.34C64.1117 38.459 64.2823 38.5928 64.4409 38.74C65.3441 39.5409 66.1197 40.475 66.7409 41.51C68.1794 44.0813 69.4261 46.7552 70.4709 49.51C72.6309 55.59 74.4709 63.02 74.4709 63.02L79.9709 84.7C83.9709 99.44 87.3609 106.6 87.3609 106.6C95.7109 125.72 108.481 131.1 108.481 131.1C114.698 134.425 121.612 136.234 128.661 136.38C135.39 136.563 142.064 135.126 148.121 132.19C154.762 128.924 160.588 124.212 165.171 118.4C168.261 114.82 172.811 106.1 172.811 106.1C177.828 96.103 181.767 85.6005 184.561 74.77C186.346 68.0226 187.778 61.1867 188.851 54.29C189.391 50.87 189.901 47.43 190.311 43.98C190.822 40.7132 190.72 37.3796 190.011 34.15C189.862 33.5694 189.679 32.9984 189.461 32.44C187.854 28.3872 184.874 25.0282 181.041 22.95C178.2 21.4397 175.028 20.6596 171.811 20.68V20.68Z" fill="url(#paint21_linear)"/>
<path d="M171.811 20.68C170.222 20.6765 168.64 20.8747 167.101 21.27C170.609 26.3388 173.587 31.7538 175.991 37.43C177.083 39.8712 177.645 42.5159 177.641 45.19C177.636 47.6668 177.143 50.1182 176.19 52.4044C175.237 54.6906 173.844 56.7668 172.089 58.5144C170.334 60.262 168.252 61.6468 165.961 62.5897C163.671 63.5327 161.218 64.0153 158.741 64.01C155.393 64.0037 152.107 63.1063 149.221 61.41L147.281 68.58C143.761 80.35 141.281 84.9 141.281 84.9C139.915 88.091 138.289 91.1647 136.421 94.09C135.131 96 133.481 97.92 131.221 98.65C130.435 98.9238 129.595 99.0061 128.771 98.89C127.879 98.7819 127.018 98.4927 126.241 98.04C124.755 96.9224 123.573 95.4512 122.801 93.76C121.845 91.8826 120.987 89.9567 120.231 87.99C118.561 83.93 115.981 73.93 115.981 73.93L113.311 63.46L110.641 52.91L108.741 45.98C103.741 27.93 96.8209 19.05 96.8209 19.05C91.3819 11.2944 83.6761 5.41197 74.7609 2.21002C64.4209 -1.49998 53.5709 0.590024 53.5709 0.590024C36.5709 3.93002 27.6409 15.59 23.7109 21.2C25.5096 21.6697 27.2308 22.3972 28.8209 23.36C30.9487 24.6335 32.7878 26.3364 34.2209 28.36C36.7809 32 37.3609 36.53 37.8709 40.86C38.9437 50.2445 40.7968 59.5233 43.4109 68.6C49.1709 49.5 56.0809 40.6 56.0809 40.6C56.853 39.6407 57.7789 38.8162 58.8209 38.16C59.3633 37.8271 59.9699 37.6124 60.6009 37.53C61.7705 37.4176 62.9437 37.703 63.9309 38.34C64.1117 38.459 64.2823 38.5928 64.4409 38.74C65.3441 39.5409 66.1197 40.475 66.7409 41.51C68.1794 44.0813 69.4261 46.7552 70.4709 49.51C72.6309 55.59 74.4709 63.02 74.4709 63.02L79.9709 84.7C83.9709 99.44 87.3609 106.6 87.3609 106.6C95.7109 125.72 108.481 131.1 108.481 131.1C114.698 134.425 121.612 136.234 128.661 136.38C135.39 136.563 142.064 135.126 148.121 132.19C154.762 128.924 160.588 124.212 165.171 118.4C168.261 114.82 172.811 106.1 172.811 106.1C177.828 96.103 181.767 85.6005 184.561 74.77C186.346 68.0226 187.778 61.1867 188.851 54.29C189.391 50.87 189.901 47.43 190.311 43.98C190.822 40.7132 190.72 37.3796 190.011 34.15C189.862 33.5694 189.679 32.9984 189.461 32.44C187.854 28.3872 184.874 25.0282 181.041 22.95C178.2 21.4397 175.028 20.6596 171.811 20.68V20.68Z" fill="url(#paint22_radial)"/>
<path d="M171.811 20.68C170.222 20.6765 168.64 20.8747 167.101 21.27C170.609 26.3388 173.587 31.7538 175.991 37.43C177.083 39.8712 177.645 42.5159 177.641 45.19C177.636 47.6668 177.143 50.1182 176.19 52.4044C175.237 54.6906 173.844 56.7668 172.089 58.5144C170.334 60.262 168.252 61.6468 165.961 62.5897C163.671 63.5327 161.218 64.0153 158.741 64.01C155.393 64.0037 152.107 63.1063 149.221 61.41L147.281 68.58C143.761 80.35 141.281 84.9 141.281 84.9C139.915 88.091 138.289 91.1647 136.421 94.09C135.131 96 133.481 97.92 131.221 98.65C130.435 98.9238 129.595 99.0061 128.771 98.89C127.879 98.7819 127.018 98.4927 126.241 98.04C124.755 96.9224 123.573 95.4512 122.801 93.76C121.845 91.8826 120.987 89.9567 120.231 87.99C118.561 83.93 115.981 73.93 115.981 73.93L113.311 63.46L110.641 52.91L108.741 45.98C103.741 27.93 96.8209 19.05 96.8209 19.05C91.3819 11.2944 83.6761 5.41197 74.7609 2.21002C64.4209 -1.49998 53.5709 0.590024 53.5709 0.590024C36.5709 3.93002 27.6409 15.59 23.7109 21.2C25.5096 21.6697 27.2308 22.3972 28.8209 23.36C30.9487 24.6335 32.7878 26.3364 34.2209 28.36C36.7809 32 37.3609 36.53 37.8709 40.86C38.9437 50.2445 40.7968 59.5233 43.4109 68.6C49.1709 49.5 56.0809 40.6 56.0809 40.6C56.853 39.6407 57.7789 38.8162 58.8209 38.16C59.3633 37.8271 59.9699 37.6124 60.6009 37.53C61.7705 37.4176 62.9437 37.703 63.9309 38.34C64.1117 38.459 64.2823 38.5928 64.4409 38.74C65.3441 39.5409 66.1197 40.475 66.7409 41.51C68.1794 44.0813 69.4261 46.7552 70.4709 49.51C72.6309 55.59 74.4709 63.02 74.4709 63.02L79.9709 84.7C83.9709 99.44 87.3609 106.6 87.3609 106.6C95.7109 125.72 108.481 131.1 108.481 131.1C114.698 134.425 121.612 136.234 128.661 136.38C135.39 136.563 142.064 135.126 148.121 132.19C154.762 128.924 160.588 124.212 165.171 118.4C168.261 114.82 172.811 106.1 172.811 106.1C177.828 96.103 181.767 85.6005 184.561 74.77C186.346 68.0226 187.778 61.1867 188.851 54.29C189.391 50.87 189.901 47.43 190.311 43.98C190.822 40.7132 190.72 37.3796 190.011 34.15C189.862 33.5694 189.679 32.9984 189.461 32.44C187.854 28.3872 184.874 25.0282 181.041 22.95C178.2 21.4397 175.028 20.6596 171.811 20.68V20.68Z" fill="url(#paint23_radial)"/>
<path d="M171.811 20.68C170.222 20.6765 168.64 20.8747 167.101 21.27C170.609 26.3388 173.587 31.7538 175.991 37.43C177.083 39.8712 177.645 42.5159 177.641 45.19C177.636 47.6668 177.143 50.1182 176.19 52.4044C175.237 54.6906 173.844 56.7668 172.089 58.5144C170.334 60.262 168.252 61.6468 165.961 62.5897C163.671 63.5327 161.218 64.0153 158.741 64.01C155.393 64.0037 152.107 63.1063 149.221 61.41L147.281 68.58C143.761 80.35 141.281 84.9 141.281 84.9C139.915 88.091 138.289 91.1647 136.421 94.09C135.131 96 133.481 97.92 131.221 98.65C130.435 98.9238 129.595 99.0061 128.771 98.89C127.879 98.7819 127.018 98.4927 126.241 98.04C124.755 96.9224 123.573 95.4512 122.801 93.76C121.845 91.8826 120.987 89.9567 120.231 87.99C118.561 83.93 115.981 73.93 115.981 73.93L113.311 63.46L110.641 52.91L108.741 45.98C103.741 27.93 96.8209 19.05 96.8209 19.05C91.3819 11.2944 83.6761 5.41197 74.7609 2.21002C64.4209 -1.49998 53.5709 0.590024 53.5709 0.590024C36.5709 3.93002 27.6409 15.59 23.7109 21.2C25.5096 21.6697 27.2308 22.3972 28.8209 23.36C30.9487 24.6335 32.7878 26.3364 34.2209 28.36C36.7809 32 37.3609 36.53 37.8709 40.86C38.9437 50.2445 40.7968 59.5233 43.4109 68.6C49.1709 49.5 56.0809 40.6 56.0809 40.6C56.853 39.6407 57.7789 38.8162 58.8209 38.16C59.3633 37.8271 59.9699 37.6124 60.6009 37.53C61.7705 37.4176 62.9437 37.703 63.9309 38.34C64.1117 38.459 64.2823 38.5928 64.4409 38.74C65.3441 39.5409 66.1197 40.475 66.7409 41.51C68.1794 44.0813 69.4261 46.7552 70.4709 49.51C72.6309 55.59 74.4709 63.02 74.4709 63.02L79.9709 84.7C83.9709 99.44 87.3609 106.6 87.3609 106.6C95.7109 125.72 108.481 131.1 108.481 131.1C114.698 134.425 121.612 136.234 128.661 136.38C135.39 136.563 142.064 135.126 148.121 132.19C154.762 128.924 160.588 124.212 165.171 118.4C168.261 114.82 172.811 106.1 172.811 106.1C177.828 96.103 181.767 85.6005 184.561 74.77C186.346 68.0226 187.778 61.1867 188.851 54.29C189.391 50.87 189.901 47.43 190.311 43.98C190.822 40.7132 190.72 37.3796 190.011 34.15C189.862 33.5694 189.679 32.9984 189.461 32.44C187.854 28.3872 184.874 25.0282 181.041 22.95C178.2 21.4397 175.028 20.6596 171.811 20.68V20.68Z" fill="url(#paint24_radial)"/>
<path d="M171.811 20.68C170.222 20.6765 168.64 20.8747 167.101 21.27C170.609 26.3388 173.587 31.7538 175.991 37.43C177.083 39.8712 177.645 42.5159 177.641 45.19C177.636 47.6668 177.143 50.1182 176.19 52.4044C175.237 54.6906 173.844 56.7668 172.089 58.5144C170.334 60.262 168.252 61.6468 165.961 62.5897C163.671 63.5327 161.218 64.0153 158.741 64.01C155.393 64.0037 152.107 63.1063 149.221 61.41L147.281 68.58C143.761 80.35 141.281 84.9 141.281 84.9C139.915 88.091 138.289 91.1647 136.421 94.09C135.131 96 133.481 97.92 131.221 98.65C130.435 98.9238 129.595 99.0061 128.771 98.89C127.879 98.7819 127.018 98.4927 126.241 98.04C124.755 96.9224 123.573 95.4512 122.801 93.76C121.845 91.8826 120.987 89.9567 120.231 87.99C118.561 83.93 115.981 73.93 115.981 73.93L113.311 63.46L110.641 52.91L108.741 45.98C103.741 27.93 96.8209 19.05 96.8209 19.05C91.3819 11.2944 83.6761 5.41197 74.7609 2.21002C64.4209 -1.49998 53.5709 0.590024 53.5709 0.590024C36.5709 3.93002 27.6409 15.59 23.7109 21.2C25.5096 21.6697 27.2308 22.3972 28.8209 23.36C30.9487 24.6335 32.7878 26.3364 34.2209 28.36C36.7809 32 37.3609 36.53 37.8709 40.86C38.9437 50.2445 40.7968 59.5233 43.4109 68.6C49.1709 49.5 56.0809 40.6 56.0809 40.6C56.853 39.6407 57.7789 38.8162 58.8209 38.16C59.3633 37.8271 59.9699 37.6124 60.6009 37.53C61.7705 37.4176 62.9437 37.703 63.9309 38.34C64.1117 38.459 64.2823 38.5928 64.4409 38.74C65.3441 39.5409 66.1197 40.475 66.7409 41.51C68.1794 44.0813 69.4261 46.7552 70.4709 49.51C72.6309 55.59 74.4709 63.02 74.4709 63.02L79.9709 84.7C83.9709 99.44 87.3609 106.6 87.3609 106.6C95.7109 125.72 108.481 131.1 108.481 131.1C114.698 134.425 121.612 136.234 128.661 136.38C135.39 136.563 142.064 135.126 148.121 132.19C154.762 128.924 160.588 124.212 165.171 118.4C168.261 114.82 172.811 106.1 172.811 106.1C177.828 96.103 181.767 85.6005 184.561 74.77C186.346 68.0226 187.778 61.1867 188.851 54.29C189.391 50.87 189.901 47.43 190.311 43.98C190.822 40.7132 190.72 37.3796 190.011 34.15C189.862 33.5694 189.679 32.9984 189.461 32.44C187.854 28.3872 184.874 25.0282 181.041 22.95C178.2 21.4397 175.028 20.6596 171.811 20.68V20.68Z" fill="url(#paint25_radial)"/>
<path d="M171.811 20.68C170.222 20.6765 168.64 20.8747 167.101 21.27C170.609 26.3388 173.587 31.7538 175.991 37.43C177.083 39.8712 177.645 42.5159 177.641 45.19C177.636 47.6668 177.143 50.1182 176.19 52.4044C175.237 54.6906 173.844 56.7668 172.089 58.5144C170.334 60.262 168.252 61.6468 165.961 62.5897C163.671 63.5327 161.218 64.0153 158.741 64.01C155.393 64.0037 152.107 63.1063 149.221 61.41L147.281 68.58C143.761 80.35 141.281 84.9 141.281 84.9C139.915 88.091 138.289 91.1647 136.421 94.09C135.131 96 133.481 97.92 131.221 98.65C130.435 98.9238 129.595 99.0061 128.771 98.89C127.879 98.7819 127.018 98.4927 126.241 98.04C124.755 96.9224 123.573 95.4512 122.801 93.76C121.845 91.8826 120.987 89.9567 120.231 87.99C118.561 83.93 115.981 73.93 115.981 73.93L113.311 63.46L110.641 52.91L108.741 45.98C103.741 27.93 96.8209 19.05 96.8209 19.05C91.3819 11.2944 83.6761 5.41197 74.7609 2.21002C64.4209 -1.49998 53.5709 0.590024 53.5709 0.590024C36.5709 3.93002 27.6409 15.59 23.7109 21.2C25.5096 21.6697 27.2308 22.3972 28.8209 23.36C30.9487 24.6335 32.7878 26.3364 34.2209 28.36C36.7809 32 37.3609 36.53 37.8709 40.86C38.9437 50.2445 40.7968 59.5233 43.4109 68.6C49.1709 49.5 56.0809 40.6 56.0809 40.6C56.853 39.6407 57.7789 38.8162 58.8209 38.16C59.3633 37.8271 59.9699 37.6124 60.6009 37.53C61.7705 37.4176 62.9437 37.703 63.9309 38.34C64.1117 38.459 64.2823 38.5928 64.4409 38.74C65.3441 39.5409 66.1197 40.475 66.7409 41.51C68.1794 44.0813 69.4261 46.7552 70.4709 49.51C72.6309 55.59 74.4709 63.02 74.4709 63.02L79.9709 84.7C83.9709 99.44 87.3609 106.6 87.3609 106.6C95.7109 125.72 108.481 131.1 108.481 131.1C114.698 134.425 121.612 136.234 128.661 136.38C135.39 136.563 142.064 135.126 148.121 132.19C154.762 128.924 160.588 124.212 165.171 118.4C168.261 114.82 172.811 106.1 172.811 106.1C177.828 96.103 181.767 85.6005 184.561 74.77C186.346 68.0226 187.778 61.1867 188.851 54.29C189.391 50.87 189.901 47.43 190.311 43.98C190.822 40.7132 190.72 37.3796 190.011 34.15C189.862 33.5694 189.679 32.9984 189.461 32.44C187.854 28.3872 184.874 25.0282 181.041 22.95C178.2 21.4397 175.028 20.6596 171.811 20.68V20.68Z" fill="url(#paint26_radial)"/>
<path d="M171.811 20.68C170.222 20.6765 168.64 20.8747 167.101 21.27C170.609 26.3388 173.587 31.7538 175.991 37.43C177.083 39.8712 177.645 42.5159 177.641 45.19C177.636 47.6668 177.143 50.1182 176.19 52.4044C175.237 54.6906 173.844 56.7668 172.089 58.5144C170.334 60.262 168.252 61.6468 165.961 62.5897C163.671 63.5327 161.218 64.0153 158.741 64.01C155.393 64.0037 152.107 63.1063 149.221 61.41L147.281 68.58C143.761 80.35 141.281 84.9 141.281 84.9C139.915 88.091 138.289 91.1647 136.421 94.09C135.131 96 133.481 97.92 131.221 98.65C130.435 98.9238 129.595 99.0061 128.771 98.89C127.879 98.7819 127.018 98.4927 126.241 98.04C124.755 96.9224 123.573 95.4512 122.801 93.76C121.845 91.8826 120.987 89.9567 120.231 87.99C118.561 83.93 115.981 73.93 115.981 73.93L113.311 63.46L110.641 52.91L108.741 45.98C103.741 27.93 96.8209 19.05 96.8209 19.05C91.3819 11.2944 83.6761 5.41197 74.7609 2.21002C64.4209 -1.49998 53.5709 0.590024 53.5709 0.590024C36.5709 3.93002 27.6409 15.59 23.7109 21.2C25.5096 21.6697 27.2308 22.3972 28.8209 23.36C30.9487 24.6335 32.7878 26.3364 34.2209 28.36C36.7809 32 37.3609 36.53 37.8709 40.86C38.9437 50.2445 40.7968 59.5233 43.4109 68.6C49.1709 49.5 56.0809 40.6 56.0809 40.6C56.853 39.6407 57.7789 38.8162 58.8209 38.16C59.3633 37.8271 59.9699 37.6124 60.6009 37.53C61.7705 37.4176 62.9437 37.703 63.9309 38.34C64.1117 38.459 64.2823 38.5928 64.4409 38.74C65.3441 39.5409 66.1197 40.475 66.7409 41.51C68.1794 44.0813 69.4261 46.7552 70.4709 49.51C72.6309 55.59 74.4709 63.02 74.4709 63.02L79.9709 84.7C83.9709 99.44 87.3609 106.6 87.3609 106.6C95.7109 125.72 108.481 131.1 108.481 131.1C114.698 134.425 121.612 136.234 128.661 136.38C135.39 136.563 142.064 135.126 148.121 132.19C154.762 128.924 160.588 124.212 165.171 118.4C168.261 114.82 172.811 106.1 172.811 106.1C177.828 96.103 181.767 85.6005 184.561 74.77C186.346 68.0226 187.778 61.1867 188.851 54.29C189.391 50.87 189.901 47.43 190.311 43.98C190.822 40.7132 190.72 37.3796 190.011 34.15C189.862 33.5694 189.679 32.9984 189.461 32.44C187.854 28.3872 184.874 25.0282 181.041 22.95C178.2 21.4397 175.028 20.6596 171.811 20.68V20.68Z" fill="url(#paint27_radial)"/>
<path d="M171.811 20.68C170.222 20.6765 168.64 20.8747 167.101 21.27C170.609 26.3388 173.587 31.7538 175.991 37.43C177.083 39.8712 177.645 42.5159 177.641 45.19C177.636 47.6668 177.143 50.1182 176.19 52.4044C175.237 54.6906 173.844 56.7668 172.089 58.5144C170.334 60.262 168.252 61.6468 165.961 62.5897C163.671 63.5327 161.218 64.0153 158.741 64.01C155.393 64.0037 152.107 63.1063 149.221 61.41L147.281 68.58C143.761 80.35 141.281 84.9 141.281 84.9C139.915 88.091 138.289 91.1647 136.421 94.09C135.131 96 133.481 97.92 131.221 98.65C130.435 98.9238 129.595 99.0061 128.771 98.89C127.879 98.7819 127.018 98.4927 126.241 98.04C124.755 96.9224 123.573 95.4512 122.801 93.76C121.845 91.8826 120.987 89.9567 120.231 87.99C118.561 83.93 115.981 73.93 115.981 73.93L113.311 63.46L110.641 52.91L108.741 45.98C103.741 27.93 96.8209 19.05 96.8209 19.05C91.3819 11.2944 83.6761 5.41197 74.7609 2.21002C64.4209 -1.49998 53.5709 0.590024 53.5709 0.590024C36.5709 3.93002 27.6409 15.59 23.7109 21.2C25.5096 21.6697 27.2308 22.3972 28.8209 23.36C30.9487 24.6335 32.7878 26.3364 34.2209 28.36C36.7809 32 37.3609 36.53 37.8709 40.86C38.9437 50.2445 40.7968 59.5233 43.4109 68.6C49.1709 49.5 56.0809 40.6 56.0809 40.6C56.853 39.6407 57.7789 38.8162 58.8209 38.16C59.3633 37.8271 59.9699 37.6124 60.6009 37.53C61.7705 37.4176 62.9437 37.703 63.9309 38.34C64.1117 38.459 64.2823 38.5928 64.4409 38.74C65.3441 39.5409 66.1197 40.475 66.7409 41.51C68.1794 44.0813 69.4261 46.7552 70.4709 49.51C72.6309 55.59 74.4709 63.02 74.4709 63.02L79.9709 84.7C83.9709 99.44 87.3609 106.6 87.3609 106.6C95.7109 125.72 108.481 131.1 108.481 131.1C114.698 134.425 121.612 136.234 128.661 136.38C135.39 136.563 142.064 135.126 148.121 132.19C154.762 128.924 160.588 124.212 165.171 118.4C168.261 114.82 172.811 106.1 172.811 106.1C177.828 96.103 181.767 85.6005 184.561 74.77C186.346 68.0226 187.778 61.1867 188.851 54.29C189.391 50.87 189.901 47.43 190.311 43.98C190.822 40.7132 190.72 37.3796 190.011 34.15C189.862 33.5694 189.679 32.9984 189.461 32.44C187.854 28.3872 184.874 25.0282 181.041 22.95C178.2 21.4397 175.028 20.6596 171.811 20.68V20.68Z" fill="url(#paint28_radial)"/>
<path d="M171.811 20.68C170.222 20.6765 168.64 20.8747 167.101 21.27C170.609 26.3388 173.587 31.7538 175.991 37.43C177.083 39.8712 177.645 42.5159 177.641 45.19C177.636 47.6668 177.143 50.1182 176.19 52.4044C175.237 54.6906 173.844 56.7668 172.089 58.5144C170.334 60.262 168.252 61.6468 165.961 62.5897C163.671 63.5327 161.218 64.0153 158.741 64.01C155.393 64.0037 152.107 63.1063 149.221 61.41L147.281 68.58C143.761 80.35 141.281 84.9 141.281 84.9C139.915 88.091 138.289 91.1647 136.421 94.09C135.131 96 133.481 97.92 131.221 98.65C130.435 98.9238 129.595 99.0061 128.771 98.89C127.879 98.7819 127.018 98.4927 126.241 98.04C124.755 96.9224 123.573 95.4512 122.801 93.76C121.845 91.8826 120.987 89.9567 120.231 87.99C118.561 83.93 115.981 73.93 115.981 73.93L113.311 63.46L110.641 52.91L108.741 45.98C103.741 27.93 96.8209 19.05 96.8209 19.05C91.3819 11.2944 83.6761 5.41197 74.7609 2.21002C64.4209 -1.49998 53.5709 0.590024 53.5709 0.590024C36.5709 3.93002 27.6409 15.59 23.7109 21.2C25.5096 21.6697 27.2308 22.3972 28.8209 23.36C30.9487 24.6335 32.7878 26.3364 34.2209 28.36C36.7809 32 37.3609 36.53 37.8709 40.86C38.9437 50.2445 40.7968 59.5233 43.4109 68.6C49.1709 49.5 56.0809 40.6 56.0809 40.6C56.853 39.6407 57.7789 38.8162 58.8209 38.16C59.3633 37.8271 59.9699 37.6124 60.6009 37.53C61.7705 37.4176 62.9437 37.703 63.9309 38.34C64.1117 38.459 64.2823 38.5928 64.4409 38.74C65.3441 39.5409 66.1197 40.475 66.7409 41.51C68.1794 44.0813 69.4261 46.7552 70.4709 49.51C72.6309 55.59 74.4709 63.02 74.4709 63.02L79.9709 84.7C83.9709 99.44 87.3609 106.6 87.3609 106.6C95.7109 125.72 108.481 131.1 108.481 131.1C114.698 134.425 121.612 136.234 128.661 136.38C135.39 136.563 142.064 135.126 148.121 132.19C154.762 128.924 160.588 124.212 165.171 118.4C168.261 114.82 172.811 106.1 172.811 106.1C177.828 96.103 181.767 85.6005 184.561 74.77C186.346 68.0226 187.778 61.1867 188.851 54.29C189.391 50.87 189.901 47.43 190.311 43.98C190.822 40.7132 190.72 37.3796 190.011 34.15C189.862 33.5694 189.679 32.9984 189.461 32.44C187.854 28.3872 184.874 25.0282 181.041 22.95C178.2 21.4397 175.028 20.6596 171.811 20.68V20.68Z" fill="url(#paint29_radial)"/>
<path d="M171.811 20.68C170.222 20.6765 168.64 20.8747 167.101 21.27C170.609 26.3388 173.587 31.7538 175.991 37.43C177.083 39.8712 177.645 42.5159 177.641 45.19C177.636 47.6668 177.143 50.1182 176.19 52.4044C175.237 54.6906 173.844 56.7668 172.089 58.5144C170.334 60.262 168.252 61.6468 165.961 62.5897C163.671 63.5327 161.218 64.0153 158.741 64.01C155.393 64.0037 152.107 63.1063 149.221 61.41L147.281 68.58C143.761 80.35 141.281 84.9 141.281 84.9C139.915 88.091 138.289 91.1647 136.421 94.09C135.131 96 133.481 97.92 131.221 98.65C130.435 98.9238 129.595 99.0061 128.771 98.89C127.879 98.7819 127.018 98.4927 126.241 98.04C124.755 96.9224 123.573 95.4512 122.801 93.76C121.845 91.8826 120.987 89.9567 120.231 87.99C118.561 83.93 115.981 73.93 115.981 73.93L113.311 63.46L110.641 52.91L108.741 45.98C103.741 27.93 96.8209 19.05 96.8209 19.05C91.3819 11.2944 83.6761 5.41197 74.7609 2.21002C64.4209 -1.49998 53.5709 0.590024 53.5709 0.590024C36.5709 3.93002 27.6409 15.59 23.7109 21.2C25.5096 21.6697 27.2308 22.3972 28.8209 23.36C30.9487 24.6335 32.7878 26.3364 34.2209 28.36C36.7809 32 37.3609 36.53 37.8709 40.86C38.9437 50.2445 40.7968 59.5233 43.4109 68.6C49.1709 49.5 56.0809 40.6 56.0809 40.6C56.853 39.6407 57.7789 38.8162 58.8209 38.16C59.3633 37.8271 59.9699 37.6124 60.6009 37.53C61.7705 37.4176 62.9437 37.703 63.9309 38.34C64.1117 38.459 64.2823 38.5928 64.4409 38.74C65.3441 39.5409 66.1197 40.475 66.7409 41.51C68.1794 44.0813 69.4261 46.7552 70.4709 49.51C72.6309 55.59 74.4709 63.02 74.4709 63.02L79.9709 84.7C83.9709 99.44 87.3609 106.6 87.3609 106.6C95.7109 125.72 108.481 131.1 108.481 131.1C114.698 134.425 121.612 136.234 128.661 136.38C135.39 136.563 142.064 135.126 148.121 132.19C154.762 128.924 160.588 124.212 165.171 118.4C168.261 114.82 172.811 106.1 172.811 106.1C177.828 96.103 181.767 85.6005 184.561 74.77C186.346 68.0226 187.778 61.1867 188.851 54.29C189.391 50.87 189.901 47.43 190.311 43.98C190.822 40.7132 190.72 37.3796 190.011 34.15C189.862 33.5694 189.679 32.9984 189.461 32.44C187.854 28.3872 184.874 25.0282 181.041 22.95C178.2 21.4397 175.028 20.6596 171.811 20.68V20.68Z" fill="url(#paint30_radial)"/>
<path d="M171.811 20.68C170.222 20.6765 168.64 20.8747 167.101 21.27C170.609 26.3388 173.587 31.7538 175.991 37.43C177.083 39.8712 177.645 42.5159 177.641 45.19C177.636 47.6668 177.143 50.1182 176.19 52.4044C175.237 54.6906 173.844 56.7668 172.089 58.5144C170.334 60.262 168.252 61.6468 165.961 62.5897C163.671 63.5327 161.218 64.0153 158.741 64.01C155.393 64.0037 152.107 63.1063 149.221 61.41L147.281 68.58C143.761 80.35 141.281 84.9 141.281 84.9C139.915 88.091 138.289 91.1647 136.421 94.09C135.131 96 133.481 97.92 131.221 98.65C130.435 98.9238 129.595 99.0061 128.771 98.89C127.879 98.7819 127.018 98.4927 126.241 98.04C124.755 96.9224 123.573 95.4512 122.801 93.76C121.845 91.8826 120.987 89.9567 120.231 87.99C118.561 83.93 115.981 73.93 115.981 73.93L113.311 63.46L110.641 52.91L108.741 45.98C103.741 27.93 96.8209 19.05 96.8209 19.05C91.3819 11.2944 83.6761 5.41197 74.7609 2.21002C64.4209 -1.49998 53.5709 0.590024 53.5709 0.590024C36.5709 3.93002 27.6409 15.59 23.7109 21.2C25.5096 21.6697 27.2308 22.3972 28.8209 23.36C30.9487 24.6335 32.7878 26.3364 34.2209 28.36C36.7809 32 37.3609 36.53 37.8709 40.86C38.9437 50.2445 40.7968 59.5233 43.4109 68.6C49.1709 49.5 56.0809 40.6 56.0809 40.6C56.853 39.6407 57.7789 38.8162 58.8209 38.16C59.3633 37.8271 59.9699 37.6124 60.6009 37.53C61.7705 37.4176 62.9437 37.703 63.9309 38.34C64.1117 38.459 64.2823 38.5928 64.4409 38.74C65.3441 39.5409 66.1197 40.475 66.7409 41.51C68.1794 44.0813 69.4261 46.7552 70.4709 49.51C72.6309 55.59 74.4709 63.02 74.4709 63.02L79.9709 84.7C83.9709 99.44 87.3609 106.6 87.3609 106.6C95.7109 125.72 108.481 131.1 108.481 131.1C114.698 134.425 121.612 136.234 128.661 136.38C135.39 136.563 142.064 135.126 148.121 132.19C154.762 128.924 160.588 124.212 165.171 118.4C168.261 114.82 172.811 106.1 172.811 106.1C177.828 96.103 181.767 85.6005 184.561 74.77C186.346 68.0226 187.778 61.1867 188.851 54.29C189.391 50.87 189.901 47.43 190.311 43.98C190.822 40.7132 190.72 37.3796 190.011 34.15C189.862 33.5694 189.679 32.9984 189.461 32.44C187.854 28.3872 184.874 25.0282 181.041 22.95C178.2 21.4397 175.028 20.6596 171.811 20.68V20.68Z" fill="url(#paint31_radial)"/>
<path d="M171.811 20.68C170.222 20.6765 168.64 20.8747 167.101 21.27C170.609 26.3388 173.587 31.7538 175.991 37.43C177.083 39.8712 177.645 42.5159 177.641 45.19C177.636 47.6668 177.143 50.1182 176.19 52.4044C175.237 54.6906 173.844 56.7668 172.089 58.5144C170.334 60.262 168.252 61.6468 165.961 62.5897C163.671 63.5327 161.218 64.0153 158.741 64.01C155.393 64.0037 152.107 63.1063 149.221 61.41L147.281 68.58C143.761 80.35 141.281 84.9 141.281 84.9C139.915 88.091 138.289 91.1647 136.421 94.09C135.131 96 133.481 97.92 131.221 98.65C130.435 98.9238 129.595 99.0061 128.771 98.89C127.879 98.7819 127.018 98.4927 126.241 98.04C124.755 96.9224 123.573 95.4512 122.801 93.76C121.845 91.8826 120.987 89.9567 120.231 87.99C118.561 83.93 115.981 73.93 115.981 73.93L113.311 63.46L110.641 52.91L108.741 45.98C103.741 27.93 96.8209 19.05 96.8209 19.05C91.3819 11.2944 83.6761 5.41197 74.7609 2.21002C64.4209 -1.49998 53.5709 0.590024 53.5709 0.590024C36.5709 3.93002 27.6409 15.59 23.7109 21.2C25.5096 21.6697 27.2308 22.3972 28.8209 23.36C30.9487 24.6335 32.7878 26.3364 34.2209 28.36C36.7809 32 37.3609 36.53 37.8709 40.86C38.9437 50.2445 40.7968 59.5233 43.4109 68.6C49.1709 49.5 56.0809 40.6 56.0809 40.6C56.853 39.6407 57.7789 38.8162 58.8209 38.16C59.3633 37.8271 59.9699 37.6124 60.6009 37.53C61.7705 37.4176 62.9437 37.703 63.9309 38.34C64.1117 38.459 64.2823 38.5928 64.4409 38.74C65.3441 39.5409 66.1197 40.475 66.7409 41.51C68.1794 44.0813 69.4261 46.7552 70.4709 49.51C72.6309 55.59 74.4709 63.02 74.4709 63.02L79.9709 84.7C83.9709 99.44 87.3609 106.6 87.3609 106.6C95.7109 125.72 108.481 131.1 108.481 131.1C114.698 134.425 121.612 136.234 128.661 136.38C135.39 136.563 142.064 135.126 148.121 132.19C154.762 128.924 160.588 124.212 165.171 118.4C168.261 114.82 172.811 106.1 172.811 106.1C177.828 96.103 181.767 85.6005 184.561 74.77C186.346 68.0226 187.778 61.1867 188.851 54.29C189.391 50.87 189.901 47.43 190.311 43.98C190.822 40.7132 190.72 37.3796 190.011 34.15C189.862 33.5694 189.679 32.9984 189.461 32.44C187.854 28.3872 184.874 25.0282 181.041 22.95C178.2 21.4397 175.028 20.6596 171.811 20.68V20.68Z" fill="url(#paint32_radial)"/>
<path d="M171.811 20.68C170.222 20.6765 168.64 20.8747 167.101 21.27C170.609 26.3388 173.587 31.7538 175.991 37.43C177.083 39.8712 177.645 42.5159 177.641 45.19C177.636 47.6668 177.143 50.1182 176.19 52.4044C175.237 54.6906 173.844 56.7668 172.089 58.5144C170.334 60.262 168.252 61.6468 165.961 62.5897C163.671 63.5327 161.218 64.0153 158.741 64.01C155.393 64.0037 152.107 63.1063 149.221 61.41L147.281 68.58C143.761 80.35 141.281 84.9 141.281 84.9C139.915 88.091 138.289 91.1647 136.421 94.09C135.131 96 133.481 97.92 131.221 98.65C130.435 98.9238 129.595 99.0061 128.771 98.89C127.879 98.7819 127.018 98.4927 126.241 98.04C124.755 96.9224 123.573 95.4512 122.801 93.76C121.845 91.8826 120.987 89.9567 120.231 87.99C118.561 83.93 115.981 73.93 115.981 73.93L113.311 63.46L110.641 52.91L108.741 45.98C103.741 27.93 96.8209 19.05 96.8209 19.05C91.3819 11.2944 83.6761 5.41197 74.7609 2.21002C64.4209 -1.49998 53.5709 0.590024 53.5709 0.590024C36.5709 3.93002 27.6409 15.59 23.7109 21.2C25.5096 21.6697 27.2308 22.3972 28.8209 23.36C30.9487 24.6335 32.7878 26.3364 34.2209 28.36C36.7809 32 37.3609 36.53 37.8709 40.86C38.9437 50.2445 40.7968 59.5233 43.4109 68.6C49.1709 49.5 56.0809 40.6 56.0809 40.6C56.853 39.6407 57.7789 38.8162 58.8209 38.16C59.3633 37.8271 59.9699 37.6124 60.6009 37.53C61.7705 37.4176 62.9437 37.703 63.9309 38.34C64.1117 38.459 64.2823 38.5928 64.4409 38.74C65.3441 39.5409 66.1197 40.475 66.7409 41.51C68.1794 44.0813 69.4261 46.7552 70.4709 49.51C72.6309 55.59 74.4709 63.02 74.4709 63.02L79.9709 84.7C83.9709 99.44 87.3609 106.6 87.3609 106.6C95.7109 125.72 108.481 131.1 108.481 131.1C114.698 134.425 121.612 136.234 128.661 136.38C135.39 136.563 142.064 135.126 148.121 132.19C154.762 128.924 160.588 124.212 165.171 118.4C168.261 114.82 172.811 106.1 172.811 106.1C177.828 96.103 181.767 85.6005 184.561 74.77C186.346 68.0226 187.778 61.1867 188.851 54.29C189.391 50.87 189.901 47.43 190.311 43.98C190.822 40.7132 190.72 37.3796 190.011 34.15C189.862 33.5694 189.679 32.9984 189.461 32.44C187.854 28.3872 184.874 25.0282 181.041 22.95C178.2 21.4397 175.028 20.6596 171.811 20.68V20.68Z" fill="url(#paint33_radial)"/>
<path d="M171.811 20.68C170.222 20.6765 168.64 20.8747 167.101 21.27C170.609 26.3388 173.587 31.7538 175.991 37.43C177.083 39.8712 177.645 42.5159 177.641 45.19C177.636 47.6668 177.143 50.1182 176.19 52.4044C175.237 54.6906 173.844 56.7668 172.089 58.5144C170.334 60.262 168.252 61.6468 165.961 62.5897C163.671 63.5327 161.218 64.0153 158.741 64.01C155.393 64.0037 152.107 63.1063 149.221 61.41L147.281 68.58C143.761 80.35 141.281 84.9 141.281 84.9C139.915 88.091 138.289 91.1647 136.421 94.09C135.131 96 133.481 97.92 131.221 98.65C130.435 98.9238 129.595 99.0061 128.771 98.89C127.879 98.7819 127.018 98.4927 126.241 98.04C124.755 96.9224 123.573 95.4512 122.801 93.76C121.845 91.8826 120.987 89.9567 120.231 87.99C118.561 83.93 115.981 73.93 115.981 73.93L113.311 63.46L110.641 52.91L108.741 45.98C103.741 27.93 96.8209 19.05 96.8209 19.05C91.3819 11.2944 83.6761 5.41197 74.7609 2.21002C64.4209 -1.49998 53.5709 0.590024 53.5709 0.590024C36.5709 3.93002 27.6409 15.59 23.7109 21.2C25.5096 21.6697 27.2308 22.3972 28.8209 23.36C30.9487 24.6335 32.7878 26.3364 34.2209 28.36C36.7809 32 37.3609 36.53 37.8709 40.86C38.9437 50.2445 40.7968 59.5233 43.4109 68.6C49.1709 49.5 56.0809 40.6 56.0809 40.6C56.853 39.6407 57.7789 38.8162 58.8209 38.16C59.3633 37.8271 59.9699 37.6124 60.6009 37.53C61.7705 37.4176 62.9437 37.703 63.9309 38.34C64.1117 38.459 64.2823 38.5928 64.4409 38.74C65.3441 39.5409 66.1197 40.475 66.7409 41.51C68.1794 44.0813 69.4261 46.7552 70.4709 49.51C72.6309 55.59 74.4709 63.02 74.4709 63.02L79.9709 84.7C83.9709 99.44 87.3609 106.6 87.3609 106.6C95.7109 125.72 108.481 131.1 108.481 131.1C114.698 134.425 121.612 136.234 128.661 136.38C135.39 136.563 142.064 135.126 148.121 132.19C154.762 128.924 160.588 124.212 165.171 118.4C168.261 114.82 172.811 106.1 172.811 106.1C177.828 96.103 181.767 85.6005 184.561 74.77C186.346 68.0226 187.778 61.1867 188.851 54.29C189.391 50.87 189.901 47.43 190.311 43.98C190.822 40.7132 190.72 37.3796 190.011 34.15C189.862 33.5694 189.679 32.9984 189.461 32.44C187.854 28.3872 184.874 25.0282 181.041 22.95C178.2 21.4397 175.028 20.6596 171.811 20.68V20.68Z" fill="url(#paint34_linear)"/>
</g>
<defs>
<linearGradient id="paint0_linear" x1="8.57125" y1="92.1301" x2="156.811" y2="32.2101" gradientUnits="userSpaceOnUse">
<stop offset="0.13" stop-color="#1CBBF3"/>
<stop offset="0.34" stop-color="#1F99A5"/>
<stop offset="0.45" stop-color="#209CA6"/>
<stop offset="0.51" stop-color="#24A4AA"/>
<stop offset="0.57" stop-color="#2BB3B0"/>
<stop offset="0.6" stop-color="#30BDB4"/>
<stop offset="0.79" stop-color="#38BA90"/>
<stop offset="1" stop-color="#60F05A"/>
</linearGradient>
<radialGradient id="paint1_radial" cx="0" cy="0" r="1" gradientUnits="userSpaceOnUse" gradientTransform="translate(107.253 56.9314) rotate(74.32) scale(70.85 53.846)">
<stop stop-color="#227B60"/>
<stop offset="0.14" stop-color="#227B60" stop-opacity="0.81"/>
<stop offset="0.58" stop-color="#227B60" stop-opacity="0.23"/>
<stop offset="0.78" stop-color="#227B60" stop-opacity="0"/>
</radialGradient>
<radialGradient id="paint2_radial" cx="0" cy="0" r="1" gradientUnits="userSpaceOnUse" gradientTransform="translate(117.529 52.008) rotate(91.1458) scale(47.9096 36.4063)">
<stop stop-color="#227B60"/>
<stop offset="0.25" stop-color="#227B60" stop-opacity="0.7"/>
<stop offset="0.71" stop-color="#227B60" stop-opacity="0.2"/>
<stop offset="0.92" stop-color="#227B60" stop-opacity="0"/>
</radialGradient>
<radialGradient id="paint3_radial" cx="0" cy="0" r="1" gradientUnits="userSpaceOnUse" gradientTransform="translate(115.681 53.7655) rotate(88.6) scale(44.66 31.7086)">
<stop stop-color="#227B60"/>
<stop offset="0.07" stop-color="#227B60" stop-opacity="0.9"/>
<stop offset="0.34" stop-color="#227B60" stop-opacity="0.51"/>
<stop offset="0.59" stop-color="#227B60" stop-opacity="0.23"/>
<stop offset="0.79" stop-color="#227B60" stop-opacity="0.06"/>
<stop offset="0.92" stop-color="#227B60" stop-opacity="0"/>
</radialGradient>
<radialGradient id="paint4_radial" cx="0" cy="0" r="1" gradientUnits="userSpaceOnUse" gradientTransform="translate(116.437 51.7299) rotate(88.6) scale(36.06 25.6026)">
<stop stop-color="#227B60"/>
<stop offset="0.36" stop-color="#227B60" stop-opacity="0.63"/>
<stop offset="0.92" stop-color="#227B60" stop-opacity="0"/>
</radialGradient>
<radialGradient id="paint5_radial" cx="0" cy="0" r="1" gradientUnits="userSpaceOnUse" gradientTransform="translate(118.01 53.757) rotate(88.6) scale(28.76 18.4064)">
<stop stop-color="#20735A"/>
<stop offset="0.15" stop-color="#20745A" stop-opacity="0.93"/>
<stop offset="0.38" stop-color="#21755C" stop-opacity="0.74"/>
<stop offset="0.67" stop-color="#21785D" stop-opacity="0.43"/>
<stop offset="1" stop-color="#227B60" stop-opacity="0"/>
</radialGradient>
<radialGradient id="paint6_radial" cx="0" cy="0" r="1" gradientUnits="userSpaceOnUse" gradientTransform="translate(121.863 58.3444) rotate(23.8) scale(46.28 34.71)">
<stop stop-color="#227A61"/>
<stop offset="0.36" stop-color="#227A61" stop-opacity="0.56"/>
<stop offset="0.72" stop-color="#227A61" stop-opacity="0.16"/>
<stop offset="0.9" stop-color="#227A61" stop-opacity="0"/>
</radialGradient>
<radialGradient id="paint7_radial" cx="0" cy="0" r="1" gradientUnits="userSpaceOnUse" gradientTransform="translate(109.597 -13.9669) rotate(35.2724) scale(61.7198 56.4337)">
<stop stop-color="#3CD9C3"/>
<stop offset="0.07" stop-color="#3BD7C1" stop-opacity="0.9"/>
<stop offset="0.41" stop-color="#38CEB9" stop-opacity="0.42"/>
<stop offset="0.65" stop-color="#36C8B4" stop-opacity="0.12"/>
<stop offset="0.76" stop-color="#35C6B2" stop-opacity="0"/>
</radialGradient>
<radialGradient id="paint8_radial" cx="0" cy="0" r="1" gradientUnits="userSpaceOnUse" gradientTransform="translate(53611.7 -28023.8) rotate(35.2724) scale(10962.1 7694.79)">
<stop stop-color="#3CD9C3"/>
<stop offset="0.07" stop-color="#3BD7C1" stop-opacity="0.9"/>
<stop offset="0.41" stop-color="#38CEB9" stop-opacity="0.42"/>
<stop offset="0.65" stop-color="#36C8B4" stop-opacity="0.12"/>
<stop offset="0.76" stop-color="#35C6B2" stop-opacity="0"/>
</radialGradient>
<radialGradient id="paint9_radial" cx="0" cy="0" r="1" gradientUnits="userSpaceOnUse" gradientTransform="translate(134.18 68.9985) rotate(100.972) scale(54.4345 67.2661)">
<stop stop-color="#237F66" stop-opacity="0.8"/>
<stop offset="0.06" stop-color="#2C8C70" stop-opacity="0.65"/>
<stop offset="0.21" stop-color="#3DA785" stop-opacity="0.37"/>
<stop offset="0.35" stop-color="#4ABA93" stop-opacity="0.17"/>
<stop offset="0.47" stop-color="#51C59C" stop-opacity="0.04"/>
<stop offset="0.56" stop-color="#54C99F" stop-opacity="0"/>
</radialGradient>
<radialGradient id="paint10_radial" cx="0" cy="0" r="1" gradientUnits="userSpaceOnUse" gradientTransform="translate(100.465 72.8717) rotate(-50.82) scale(71.13 76.8204)">
<stop stop-color="#167C8A"/>
<stop offset="0.04" stop-color="#167C8A" stop-opacity="0.93"/>
<stop offset="0.33" stop-color="#177F8D" stop-opacity="0.43"/>
<stop offset="0.54" stop-color="#17818F" stop-opacity="0.12"/>
<stop offset="0.65" stop-color="#178290" stop-opacity="0"/>
</radialGradient>
<radialGradient id="paint11_radial" cx="0" cy="0" r="1" gradientUnits="userSpaceOnUse" gradientTransform="translate(96.1977 80.0573) rotate(-31.66) scale(69.39 54.8181)">
<stop offset="0.05" stop-color="#177D87"/>
<stop offset="0.11" stop-color="#177E89" stop-opacity="0.8"/>
<stop offset="0.21" stop-color="#177F8B" stop-opacity="0.52"/>
<stop offset="0.32" stop-color="#17818D" stop-opacity="0.29"/>
<stop offset="0.42" stop-color="#17818F" stop-opacity="0.13"/>
<stop offset="0.51" stop-color="#178290" stop-opacity="0.03"/>
<stop offset="0.6" stop-color="#178290" stop-opacity="0"/>
</radialGradient>
<radialGradient id="paint12_radial" cx="0" cy="0" r="1" gradientUnits="userSpaceOnUse" gradientTransform="translate(79.0867 81.2538) rotate(-130.539) scale(41.3421 32.5536)">
<stop offset="0.26" stop-color="#177F8A"/>
<stop offset="0.27" stop-color="#177F8A" stop-opacity="0.98"/>
<stop offset="0.38" stop-color="#17808C" stop-opacity="0.68"/>
<stop offset="0.5" stop-color="#17818D" stop-opacity="0.43"/>
<stop offset="0.62" stop-color="#17818F" stop-opacity="0.24"/>
<stop offset="0.74" stop-color="#17828F" stop-opacity="0.11"/>
<stop offset="0.86" stop-color="#178290" stop-opacity="0.03"/>
<stop offset="1" stop-color="#178290" stop-opacity="0"/>
</radialGradient>
<radialGradient id="paint13_radial" cx="0" cy="0" r="1" gradientUnits="userSpaceOnUse" gradientTransform="translate(71.5923 91.4162) rotate(-173.11) scale(38.78)">
<stop stop-color="#13656E"/>
<stop offset="0.11" stop-color="#13646E" stop-opacity="0.73"/>
<stop offset="0.27" stop-color="#12646E" stop-opacity="0.41"/>
<stop offset="0.42" stop-color="#12636E" stop-opacity="0.18"/>
<stop offset="0.55" stop-color="#12636E" stop-opacity="0.05"/>
<stop offset="0.66" stop-color="#12636E" stop-opacity="0"/>
</radialGradient>
<radialGradient id="paint14_radial" cx="0" cy="0" r="1" gradientUnits="userSpaceOnUse" gradientTransform="translate(70.5746 97.1914) rotate(-119.32) scale(27.12 22.7808)">
<stop offset="0.13" stop-color="#146A73"/>
<stop offset="0.24" stop-color="#156F79" stop-opacity="0.79"/>
<stop offset="0.45" stop-color="#167783" stop-opacity="0.45"/>
<stop offset="0.65" stop-color="#167D8A" stop-opacity="0.2"/>
<stop offset="0.82" stop-color="#17818E" stop-opacity="0.05"/>
<stop offset="0.95" stop-color="#178290" stop-opacity="0"/>
</radialGradient>
<radialGradient id="paint15_radial" cx="0" cy="0" r="1" gradientUnits="userSpaceOnUse" gradientTransform="translate(68.4616 85.888) rotate(-55.9925) scale(25.5118 20.211)">
<stop stop-color="#198E9C"/>
<stop offset="0.1" stop-color="#198E9C" stop-opacity="0.87"/>
<stop offset="0.41" stop-color="#198E9C" stop-opacity="0.5"/>
<stop offset="0.67" stop-color="#198E9C" stop-opacity="0.23"/>
<stop offset="0.88" stop-color="#198E9C" stop-opacity="0.06"/>
<stop offset="1" stop-color="#198E9C" stop-opacity="0"/>
</radialGradient>
<linearGradient id="paint16_linear" x1="18.1213" y1="-3.09988" x2="83.5213" y2="57.4301" gradientUnits="userSpaceOnUse">
<stop offset="0.13" stop-color="#2BF9FF"/>
<stop offset="0.27" stop-color="#29F9FF" stop-opacity="0.64"/>
<stop offset="0.4" stop-color="#27FAFF" stop-opacity="0.3"/>
<stop offset="0.49" stop-color="#26FAFF" stop-opacity="0.08"/>
<stop offset="0.54" stop-color="#26FAFF" stop-opacity="0"/>
</linearGradient>
<linearGradient id="paint17_linear" x1="-18.9187" y1="95.6801" x2="57.4812" y2="74.0201" gradientUnits="userSpaceOnUse">
<stop stop-color="#26FAFF"/>
<stop offset="0.06" stop-color="#26FAFF" stop-opacity="0.88"/>
<stop offset="0.24" stop-color="#26FAFF" stop-opacity="0.51"/>
<stop offset="0.39" stop-color="#26FAFF" stop-opacity="0.23"/>
<stop offset="0.5" stop-color="#26FAFF" stop-opacity="0.06"/>
<stop offset="0.55" stop-color="#26FAFF" stop-opacity="0"/>
</linearGradient>
<linearGradient id="paint18_linear" x1="1.32125" y1="93.0201" x2="87.4312" y2="62.3301" gradientUnits="userSpaceOnUse">
<stop stop-color="#21DEFF"/>
<stop offset="0.04" stop-color="#21DEFF" stop-opacity="0.88"/>
<stop offset="0.17" stop-color="#21DEFF" stop-opacity="0.51"/>
<stop offset="0.27" stop-color="#21DEFF" stop-opacity="0.23"/>
<stop offset="0.34" stop-color="#21DEFF" stop-opacity="0.06"/>
<stop offset="0.38" stop-color="#21DEFF" stop-opacity="0"/>
</linearGradient>
<linearGradient id="paint19_linear" x1="83.1412" y1="48.6001" x2="131.301" y2="127.15" gradientUnits="userSpaceOnUse">
<stop offset="0.62" stop-color="#21DEFF" stop-opacity="0"/>
<stop offset="0.66" stop-color="#21DEFF" stop-opacity="0.06"/>
<stop offset="0.73" stop-color="#21DEFF" stop-opacity="0.23"/>
<stop offset="0.83" stop-color="#21DEFF" stop-opacity="0.51"/>
<stop offset="0.96" stop-color="#21DEFF" stop-opacity="0.88"/>
<stop offset="1" stop-color="#21DEFF"/>
</linearGradient>
<linearGradient id="paint20_linear" x1="136.741" y1="77.9501" x2="129.161" y2="41.0001" gradientUnits="userSpaceOnUse">
<stop stop-color="#44B044"/>
<stop offset="0.11" stop-color="#44B044" stop-opacity="0.8"/>
<stop offset="0.27" stop-color="#44B044" stop-opacity="0.52"/>
<stop offset="0.43" stop-color="#44B044" stop-opacity="0.29"/>
<stop offset="0.58" stop-color="#44B044" stop-opacity="0.13"/>
<stop offset="0.7" stop-color="#44B044" stop-opacity="0.03"/>
<stop offset="0.8" stop-color="#44B044" stop-opacity="0"/>
</linearGradient>
<linearGradient id="paint21_linear" x1="31.0509" y1="39.65" x2="190.481" y2="92.43" gradientUnits="userSpaceOnUse">
<stop stop-color="#3066FB"/>
<stop offset="0.38" stop-color="#2F64F7"/>
<stop offset="0.74" stop-color="#2857D9"/>
<stop offset="1" stop-color="#3C7EFF"/>
</linearGradient>
<radialGradient id="paint22_radial" cx="0" cy="0" r="1" gradientUnits="userSpaceOnUse" gradientTransform="translate(143.594 63.7392) rotate(98.69) scale(85.26 56.2716)">
<stop stop-color="#1A3D9C"/>
<stop offset="0.4" stop-color="#1A3D9C" stop-opacity="0.42"/>
<stop offset="0.7" stop-color="#1A3D9C" stop-opacity="0"/>
</radialGradient>
<radialGradient id="paint23_radial" cx="0" cy="0" r="1" gradientUnits="userSpaceOnUse" gradientTransform="translate(25083 41488) rotate(98.69) scale(10487.6 5655.88)">
<stop stop-color="#1A3D9C"/>
<stop offset="0.4" stop-color="#1A3D9C" stop-opacity="0.42"/>
<stop offset="0.7" stop-color="#1A3D9C" stop-opacity="0"/>
</radialGradient>
<radialGradient id="paint24_radial" cx="0" cy="0" r="1" gradientUnits="userSpaceOnUse" gradientTransform="translate(18948.6 39675.9) rotate(98.6156) scale(12490.1 5160.93)">
<stop stop-color="#1A3D9C"/>
<stop offset="0.4" stop-color="#1A3D9C" stop-opacity="0.42"/>
<stop offset="0.7" stop-color="#1A3D9C" stop-opacity="0"/>
</radialGradient>
<radialGradient id="paint25_radial" cx="0" cy="0" r="1" gradientUnits="userSpaceOnUse" gradientTransform="translate(130.028 57.9968) rotate(83.0888) scale(74.5242 51.9983)">
<stop stop-color="#1A3D9C"/>
<stop offset="0.16" stop-color="#1A3D9C" stop-opacity="0.69"/>
<stop offset="0.33" stop-color="#1A3D9C" stop-opacity="0.4"/>
<stop offset="0.49" stop-color="#1A3D9C" stop-opacity="0.18"/>
<stop offset="0.61" stop-color="#1A3D9C" stop-opacity="0.05"/>
<stop offset="0.7" stop-color="#1A3D9C" stop-opacity="0"/>
</radialGradient>
<radialGradient id="paint26_radial" cx="0" cy="0" r="1" gradientUnits="userSpaceOnUse" gradientTransform="translate(146.448 71.9524) rotate(74.64) scale(71.62 48.7016)">
<stop stop-color="#18388F"/>
<stop offset="0.37" stop-color="#193B96" stop-opacity="0.45"/>
<stop offset="0.7" stop-color="#1A3D9C" stop-opacity="0"/>
</radialGradient>
<radialGradient id="paint27_radial" cx="0" cy="0" r="1" gradientUnits="userSpaceOnUse" gradientTransform="translate(139.314 91.0413) rotate(74.64) scale(33.3 31.635)">
<stop stop-color="#18388F"/>
<stop offset="0.09" stop-color="#183992" stop-opacity="0.78"/>
<stop offset="0.22" stop-color="#193B96" stop-opacity="0.5"/>
<stop offset="0.35" stop-color="#193C98" stop-opacity="0.28"/>
<stop offset="0.47" stop-color="#1A3C9A" stop-opacity="0.13"/>
<stop offset="0.59" stop-color="#1A3D9C" stop-opacity="0.03"/>
<stop offset="0.7" stop-color="#1A3D9C" stop-opacity="0"/>
</radialGradient>
<radialGradient id="paint28_radial" cx="0" cy="0" r="1" gradientUnits="userSpaceOnUse" gradientTransform="translate(140.113 96.722) rotate(74.64) scale(33.3 31.635)">
<stop stop-color="#1A3D9C" stop-opacity="0.8"/>
<stop offset="0.01" stop-color="#1A3D9C" stop-opacity="0.78"/>
<stop offset="0.24" stop-color="#1A3D9C" stop-opacity="0.45"/>
<stop offset="0.44" stop-color="#1A3D9C" stop-opacity="0.2"/>
<stop offset="0.6" stop-color="#1A3D9C" stop-opacity="0.05"/>
<stop offset="0.7" stop-color="#1A3D9C" stop-opacity="0"/>
</radialGradient>
<radialGradient id="paint29_radial" cx="0" cy="0" r="1" gradientUnits="userSpaceOnUse" gradientTransform="translate(53.9406 77.1068) rotate(67.0273) scale(79.4703 52.7361)">
<stop stop-color="#1A3D9C"/>
<stop offset="0.4" stop-color="#1A3D9C" stop-opacity="0.56"/>
<stop offset="0.48" stop-color="#1A3D9C" stop-opacity="0.43"/>
<stop offset="0.69" stop-color="#1A3D9C" stop-opacity="0.12"/>
<stop offset="0.79" stop-color="#1A3D9C" stop-opacity="0"/>
</radialGradient>
<radialGradient id="paint30_radial" cx="0" cy="0" r="1" gradientUnits="userSpaceOnUse" gradientTransform="translate(48.8545 58.4848) rotate(76.1028) scale(58.9457 38.9154)">
<stop stop-color="#1A3D9C"/>
<stop offset="0.06" stop-color="#1A3D9C" stop-opacity="0.88"/>
<stop offset="0.21" stop-color="#1A3D9C" stop-opacity="0.61"/>
<stop offset="0.36" stop-color="#1A3D9C" stop-opacity="0.39"/>
<stop offset="0.51" stop-color="#1A3D9C" stop-opacity="0.22"/>
<stop offset="0.67" stop-color="#1A3D9C" stop-opacity="0.1"/>
<stop offset="0.83" stop-color="#1A3D9C" stop-opacity="0.02"/>
<stop offset="1" stop-color="#1A3D9C" stop-opacity="0"/>
</radialGradient>
<radialGradient id="paint31_radial" cx="0" cy="0" r="1" gradientUnits="userSpaceOnUse" gradientTransform="translate(48.8545 58.4848) rotate(76.1028) scale(58.9457 38.9154)">
<stop stop-color="#1B3E9E"/>
<stop offset="0.06" stop-color="#1B3E9E" stop-opacity="0.87"/>
<stop offset="0.21" stop-color="#1B3E9D" stop-opacity="0.61"/>
<stop offset="0.36" stop-color="#1A3D9D" stop-opacity="0.39"/>
<stop offset="0.52" stop-color="#1A3D9C" stop-opacity="0.22"/>
<stop offset="0.67" stop-color="#1A3D9C" stop-opacity="0.1"/>
<stop offset="0.83" stop-color="#1A3D9C" stop-opacity="0.02"/>
<stop offset="1" stop-color="#1A3D9C" stop-opacity="0"/>
</radialGradient>
<radialGradient id="paint32_radial" cx="0" cy="0" r="1" gradientUnits="userSpaceOnUse" gradientTransform="translate(51.0897 52.7379) rotate(76.1028) scale(45.0961 29.772)">
<stop stop-color="#183991"/>
<stop offset="0.03" stop-color="#183992" stop-opacity="0.95"/>
<stop offset="0.18" stop-color="#193A95" stop-opacity="0.66"/>
<stop offset="0.34" stop-color="#193B97" stop-opacity="0.42"/>
<stop offset="0.5" stop-color="#1A3C99" stop-opacity="0.24"/>
<stop offset="0.66" stop-color="#1A3D9B" stop-opacity="0.1"/>
<stop offset="0.82" stop-color="#1A3D9C" stop-opacity="0.03"/>
<stop offset="1" stop-color="#1A3D9C" stop-opacity="0"/>
</radialGradient>
<radialGradient id="paint33_radial" cx="0" cy="0" r="1" gradientUnits="userSpaceOnUse" gradientTransform="translate(59.5349 58.69) rotate(87.1376) scale(35.6345 31.369)">
<stop offset="0.04" stop-color="#2453D6" stop-opacity="0.6"/>
<stop offset="0.2" stop-color="#2453D6" stop-opacity="0.49"/>
<stop offset="0.52" stop-color="#2453D6" stop-opacity="0.2"/>
<stop offset="0.73" stop-color="#2453D6" stop-opacity="0"/>
</radialGradient>
<linearGradient id="paint34_linear" x1="134.641" y1="-25.45" x2="94.3709" y2="74.09" gradientUnits="userSpaceOnUse">
<stop stop-color="#3774FF"/>
<stop offset="0.05" stop-color="#3774FF" stop-opacity="0.91"/>
<stop offset="0.16" stop-color="#3774FF" stop-opacity="0.66"/>
<stop offset="0.32" stop-color="#3774FF" stop-opacity="0.28"/>
<stop offset="0.43" stop-color="#3774FF" stop-opacity="0"/>
</linearGradient>
<clipPath id="clip0">
<rect width="762.48" height="209.87" fill="white"/>
</clipPath>
</defs>
</svg>
