<svg width="529" height="387" viewBox="0 0 529 387" fill="none" xmlns="http://www.w3.org/2000/svg">
<g clip-path="url(#clip0)">
<path d="M128.4 214.41H148.6L119.23 303.16H96.06L74.06 236.16L52.06 303.16H29.36L0 214.41H20.66L41.5 281.85L63.36 214.41H85.36L107.5 282.22L128.4 214.41Z" fill="black"/>
<path d="M235.201 265.92H169.701C170.308 270.494 172.025 274.851 174.701 278.61C177.083 281.893 180.296 284.481 184.011 286.11C187.811 287.764 191.916 288.598 196.061 288.56C200.634 288.541 205.167 287.711 209.451 286.11C213.891 284.491 218.039 282.161 221.731 279.21L231.361 293.01C226.435 297.288 220.702 300.536 214.501 302.56C208.13 304.554 201.486 305.54 194.811 305.48C186.597 305.634 178.485 303.638 171.28 299.69C164.463 295.872 158.883 290.181 155.201 283.29C151.341 276.217 149.411 268.05 149.411 258.79C149.26 250.342 151.201 241.987 155.061 234.47C158.6 227.608 164.013 221.89 170.671 217.98C177.661 213.966 185.611 211.93 193.671 212.09C201.352 211.944 208.917 213.987 215.481 217.98C221.866 221.963 227.005 227.659 230.311 234.42C233.975 241.977 235.798 250.294 235.631 258.69C235.571 260.56 235.451 262.95 235.201 265.92ZM215.751 251.19C214.697 244.27 212.211 238.897 208.291 235.07C204.371 231.243 199.351 229.327 193.231 229.32C186.631 229.32 181.337 231.283 177.351 235.21C173.364 239.137 170.814 244.47 169.701 251.21L215.751 251.19Z" fill="black"/>
<path d="M318.059 218.11C324.801 222.123 330.33 227.887 334.059 234.79C338.044 242.154 340.069 250.418 339.939 258.79C340.07 267.162 338.045 275.427 334.059 282.79C330.33 289.693 324.801 295.457 318.059 299.47C311.261 303.484 303.493 305.559 295.599 305.47C290.078 305.577 284.605 304.421 279.599 302.09C275.002 299.863 270.976 296.613 267.829 292.59V303.16H248.469V176.62H267.829V224.97C270.976 220.947 275.002 217.697 279.599 215.47C284.605 213.139 290.078 211.983 295.599 212.09C303.495 212.007 311.263 214.089 318.059 218.11V218.11ZM307.449 283.43C311.479 280.955 314.725 277.387 316.809 273.14C319.005 268.679 320.119 263.762 320.059 258.79C320.122 253.815 319.012 248.896 316.819 244.43C314.732 240.186 311.487 236.618 307.459 234.14C303.191 231.555 298.277 230.237 293.289 230.34C288.386 230.247 283.557 231.533 279.349 234.05C275.315 236.505 272.043 240.033 269.899 244.24C267.599 248.741 266.439 253.737 266.519 258.79C266.44 263.84 267.6 268.833 269.899 273.33C272.037 277.552 275.309 281.095 279.349 283.56C283.557 286.077 288.386 287.363 293.289 287.27C298.281 287.361 303.196 286.029 307.459 283.43H307.449Z" fill="black"/>
<path d="M435.961 265.92H370.461C371.068 270.494 372.785 274.851 375.461 278.61C377.845 281.89 381.058 284.479 384.771 286.11C388.559 287.74 392.647 288.561 396.771 288.52C401.344 288.501 405.877 287.671 410.161 286.07C414.598 284.451 418.742 282.121 422.431 279.17L432.071 292.97C427.16 297.257 421.441 300.518 415.251 302.56C408.884 304.556 402.243 305.541 395.571 305.48C387.364 305.629 379.26 303.634 372.061 299.69C365.249 295.869 359.673 290.178 355.991 283.29C352.131 276.217 350.201 268.05 350.201 258.79C350.038 250.345 351.965 241.99 355.811 234.47C359.348 227.606 364.761 221.888 371.421 217.98C378.41 213.964 386.362 211.928 394.421 212.09C402.106 211.943 409.674 213.986 416.241 217.98C422.626 221.96 427.762 227.658 431.061 234.42C434.729 241.976 436.555 250.293 436.391 258.69C436.331 260.56 436.201 262.95 435.961 265.92ZM416.501 251.19C415.454 244.27 412.971 238.897 409.051 235.07C405.131 231.243 400.111 229.327 393.991 229.32C387.378 229.32 382.081 231.283 378.101 235.21C374.121 239.137 371.574 244.47 370.461 251.21L416.501 251.19Z" fill="black"/>
<path d="M528.319 303.16H504.509L481.999 272.31L459.769 303.16H437.059L470.499 257.86L437.619 214.41H461.429L483.099 244.05L504.779 214.41H527.669L494.869 257.67L528.319 303.16Z" fill="black"/>
<path d="M153.258 376.65H149.328V340.88H154.058V354.39C155.012 352.992 156.308 351.862 157.822 351.106C159.336 350.35 161.018 349.993 162.708 350.07C164.364 349.992 166.014 350.315 167.518 351.012C169.022 351.708 170.336 352.757 171.348 354.07C173.168 356.457 174.078 359.62 174.078 363.56C174.078 368.227 172.838 371.803 170.358 374.29C169.308 375.329 168.057 376.143 166.681 376.681C165.306 377.219 163.834 377.471 162.358 377.42C160.718 377.504 159.083 377.165 157.612 376.434C156.141 375.704 154.883 374.607 153.958 373.25L153.258 376.65ZM169.148 363.43C169.148 360.19 168.338 357.75 166.718 356.13C166.057 355.464 165.266 354.942 164.393 354.598C163.52 354.254 162.586 354.094 161.648 354.13C160.548 354.086 159.453 354.302 158.452 354.761C157.452 355.22 156.573 355.908 155.888 356.77C154.471 358.688 153.764 361.038 153.888 363.42C153.888 366.753 154.701 369.287 156.328 371.02C156.996 371.775 157.823 372.372 158.75 372.768C159.677 373.164 160.681 373.349 161.688 373.31C162.787 373.37 163.883 373.152 164.874 372.674C165.866 372.197 166.72 371.476 167.358 370.58C168.551 368.9 169.148 366.517 169.148 363.43V363.43Z" fill="black"/>
<path d="M199.659 350.82L190.659 377C189.459 380.473 188.316 382.84 187.229 384.1C186.616 384.824 185.849 385.4 184.983 385.788C184.118 386.176 183.177 386.364 182.229 386.34C181.188 386.315 180.154 386.164 179.149 385.89V382.01C179.958 382.23 180.791 382.348 181.629 382.36C182.084 382.384 182.537 382.3 182.953 382.114C183.369 381.927 183.734 381.645 184.019 381.29C184.931 379.843 185.65 378.283 186.159 376.65H184.619L175.129 350.82H180.289L187.599 372.77L194.899 350.82H199.659Z" fill="black"/>
<path d="M265.249 340.93H256.199V376.77H265.249V340.93Z" fill="black"/>
<path d="M338.182 351.2C335.855 349.927 333.243 349.266 330.592 349.28C324.732 349.28 320.672 353.35 320.672 358.84C320.672 364.17 324.562 368.41 330.592 368.41C333.241 368.423 335.851 367.77 338.182 366.51V376.13C335.512 376.958 332.736 377.39 329.942 377.41C319.772 377.41 310.852 370.41 310.852 358.84C310.852 348.14 318.932 340.29 329.942 340.29C332.738 340.293 335.518 340.728 338.182 341.58V351.2Z" fill="black"/>
<path d="M243.77 351.2C241.44 349.926 238.825 349.265 236.17 349.28C230.31 349.28 226.26 353.35 226.26 358.84C226.26 364.17 230.14 368.41 236.17 368.41C238.822 368.423 241.435 367.769 243.77 366.51V376.13C241.097 376.958 238.318 377.389 235.52 377.41C225.35 377.41 216.43 370.41 216.43 358.84C216.43 348.14 224.51 340.29 235.52 340.29C238.32 340.293 241.103 340.728 243.77 341.58V351.2Z" fill="black"/>
<path d="M366.641 349.42C365.404 349.408 364.177 349.644 363.032 350.114C361.888 350.584 360.849 351.278 359.977 352.156C359.106 353.034 358.419 354.078 357.958 355.226C357.496 356.374 357.27 357.603 357.291 358.84C357.267 360.079 357.491 361.31 357.952 362.46C358.412 363.61 359.098 364.657 359.97 365.537C360.842 366.417 361.882 367.113 363.027 367.585C364.173 368.056 365.402 368.292 366.641 368.28C367.88 368.291 369.109 368.054 370.254 367.582C371.4 367.11 372.44 366.414 373.312 365.534C374.185 364.655 374.872 363.609 375.334 362.459C375.795 361.309 376.022 360.079 376.001 358.84C376.021 357.602 375.793 356.373 375.331 355.225C374.868 354.077 374.18 353.034 373.308 352.156C372.436 351.278 371.396 350.583 370.251 350.113C369.106 349.644 367.879 349.408 366.641 349.42ZM385.581 358.84C385.581 369.1 377.661 377.41 366.641 377.41C355.621 377.41 347.711 369.1 347.711 358.84C347.711 348.58 355.611 340.29 366.641 340.29C377.671 340.29 385.581 348.61 385.581 358.84Z" fill="black"/>
<path d="M299.551 349.07C297.244 348.436 294.872 348.071 292.481 347.98C288.861 347.98 286.891 349.19 286.891 350.92C286.891 353.1 289.541 353.86 291.031 354.33L293.531 355.12C299.401 356.99 302.071 361.01 302.071 365.38C302.071 374.38 294.151 377.38 287.231 377.38C283.954 377.342 280.687 377.007 277.471 376.38V368.13C280.261 368.973 283.148 369.454 286.061 369.56C290.561 369.56 292.631 368.25 292.631 366.22C292.631 364.4 290.841 363.35 288.631 362.65C288.081 362.46 287.261 362.21 286.701 362.02C281.701 360.43 277.461 357.47 277.461 351.54C277.461 344.83 282.461 340.33 290.821 340.33C293.792 340.372 296.748 340.754 299.631 341.47L299.551 349.07Z" fill="black"/>
<path d="M212.322 68.9199C214.419 76.2854 217.274 83.4135 220.842 90.1899C222.472 93.1899 224.092 96.1899 227.062 98.0699C227.572 98.3994 228.138 98.6332 228.732 98.7599C233.092 99.6799 235.482 96.1799 237.022 92.9599C239.32 87.9235 241.177 82.6972 242.572 77.3399C242.842 76.3399 243.102 75.3399 243.362 74.3399C243.862 72.4199 244.362 70.4899 244.782 68.5599L264.062 17.1799C268.057 11.8635 273.233 7.54919 279.183 4.57793C285.132 1.60667 291.691 0.0599125 298.342 0.0599161C307.925 -0.000337907 317.244 3.20572 324.762 9.14991C337.342 18.6699 344.832 37.4199 344.832 37.4199C345.921 39.8617 346.484 42.506 346.482 45.1799C346.478 47.6575 345.986 50.11 345.034 52.3974C344.081 54.6847 342.688 56.7621 340.933 58.5107C339.178 60.2594 337.095 61.6451 334.804 62.5886C332.513 63.5322 330.059 64.0152 327.582 64.0099C324.828 64.0054 322.108 63.3968 319.615 62.227C317.122 61.0573 314.915 59.3549 313.152 57.2399C313.082 57.1699 313.032 57.0899 312.972 57.0199C311.76 55.3852 310.753 53.6088 309.972 51.7299C308.932 49.3809 307.77 47.0877 306.492 44.8599C305.805 43.7161 305.061 42.608 304.262 41.5399C303.594 40.5693 302.8 39.6916 301.902 38.9299C300.122 37.5099 297.902 36.9299 295.822 38.1699L295.522 38.3599C293.392 39.8299 291.892 42.7899 290.852 45.0699C287.852 51.5299 286.132 58.1599 284.432 64.9499C284.102 66.2599 283.792 67.5799 283.492 68.8899L275.492 94.8899L264.312 119.56C260.296 124.739 255.158 128.94 249.285 131.847C243.411 134.753 236.955 136.289 230.402 136.34C203.182 136.92 190.262 112.34 190.262 112.34C174.752 86.8899 170.182 53.3399 169.092 42.6099C168.862 40.3799 168.852 39.0499 168.852 39.0499C168.849 35.6887 169.766 32.3908 171.502 29.5127C173.238 26.6346 175.727 24.2857 178.702 22.7199C181.774 21.1565 185.197 20.4093 188.642 20.5499C191.847 20.6791 194.965 21.6257 197.702 23.2999C199.827 24.5769 201.665 26.2791 203.102 28.2999C205.662 31.9399 206.232 36.4699 206.752 40.7899C207.813 50.3066 209.677 59.7167 212.322 68.9199V68.9199Z" fill="url(#paint0_linear)"/>
<path d="M212.322 68.9199C214.419 76.2854 217.274 83.4135 220.842 90.1899C222.472 93.1899 224.092 96.1899 227.062 98.0699C227.572 98.3994 228.138 98.6332 228.732 98.7599C233.092 99.6799 235.482 96.1799 237.022 92.9599C239.32 87.9235 241.177 82.6972 242.572 77.3399C242.842 76.3399 243.102 75.3399 243.362 74.3399C243.862 72.4199 244.362 70.4899 244.782 68.5599L264.062 17.1799C268.057 11.8635 273.233 7.54919 279.183 4.57793C285.132 1.60667 291.691 0.0599125 298.342 0.0599161C307.925 -0.000337907 317.244 3.20572 324.762 9.14991C337.342 18.6699 344.832 37.4199 344.832 37.4199C345.921 39.8617 346.484 42.506 346.482 45.1799C346.478 47.6575 345.986 50.11 345.034 52.3974C344.081 54.6847 342.688 56.7621 340.933 58.5107C339.178 60.2594 337.095 61.6451 334.804 62.5886C332.513 63.5322 330.059 64.0152 327.582 64.0099C324.828 64.0054 322.108 63.3968 319.615 62.227C317.122 61.0573 314.915 59.3549 313.152 57.2399C313.082 57.1699 313.032 57.0899 312.972 57.0199C311.76 55.3852 310.753 53.6088 309.972 51.7299C308.932 49.3809 307.77 47.0877 306.492 44.8599C305.805 43.7161 305.061 42.608 304.262 41.5399C303.594 40.5693 302.8 39.6916 301.902 38.9299C300.122 37.5099 297.902 36.9299 295.822 38.1699L295.522 38.3599C293.392 39.8299 291.892 42.7899 290.852 45.0699C287.852 51.5299 286.132 58.1599 284.432 64.9499C284.102 66.2599 283.792 67.5799 283.492 68.8899L275.492 94.8899L264.312 119.56C260.296 124.739 255.158 128.94 249.285 131.847C243.411 134.753 236.955 136.289 230.402 136.34C203.182 136.92 190.262 112.34 190.262 112.34C174.752 86.8899 170.182 53.3399 169.092 42.6099C168.862 40.3799 168.852 39.0499 168.852 39.0499C168.849 35.6887 169.766 32.3908 171.502 29.5127C173.238 26.6346 175.727 24.2857 178.702 22.7199C181.774 21.1565 185.197 20.4093 188.642 20.5499C191.847 20.6791 194.965 21.6257 197.702 23.2999C199.827 24.5769 201.665 26.2791 203.102 28.2999C205.662 31.9399 206.232 36.4699 206.752 40.7899C207.813 50.3066 209.677 59.7167 212.322 68.9199V68.9199Z" fill="url(#paint1_radial)"/>
<path d="M212.322 68.9199C214.419 76.2854 217.274 83.4135 220.842 90.1899C222.472 93.1899 224.092 96.1899 227.062 98.0699C227.572 98.3994 228.138 98.6332 228.732 98.7599C233.092 99.6799 235.482 96.1799 237.022 92.9599C239.32 87.9235 241.177 82.6972 242.572 77.3399C242.842 76.3399 243.102 75.3399 243.362 74.3399C243.862 72.4199 244.362 70.4899 244.782 68.5599L264.062 17.1799C268.057 11.8635 273.233 7.54919 279.183 4.57793C285.132 1.60667 291.691 0.0599125 298.342 0.0599161C307.925 -0.000337907 317.244 3.20572 324.762 9.14991C337.342 18.6699 344.832 37.4199 344.832 37.4199C345.921 39.8617 346.484 42.506 346.482 45.1799C346.478 47.6575 345.986 50.11 345.034 52.3974C344.081 54.6847 342.688 56.7621 340.933 58.5107C339.178 60.2594 337.095 61.6451 334.804 62.5886C332.513 63.5322 330.059 64.0152 327.582 64.0099C324.828 64.0054 322.108 63.3968 319.615 62.227C317.122 61.0573 314.915 59.3549 313.152 57.2399C313.082 57.1699 313.032 57.0899 312.972 57.0199C311.76 55.3852 310.753 53.6088 309.972 51.7299C308.932 49.3809 307.77 47.0877 306.492 44.8599C305.805 43.7161 305.061 42.608 304.262 41.5399C303.594 40.5693 302.8 39.6916 301.902 38.9299C300.122 37.5099 297.902 36.9299 295.822 38.1699L295.522 38.3599C293.392 39.8299 291.892 42.7899 290.852 45.0699C287.852 51.5299 286.132 58.1599 284.432 64.9499C284.102 66.2599 283.792 67.5799 283.492 68.8899L275.492 94.8899L264.312 119.56C260.296 124.739 255.158 128.94 249.285 131.847C243.411 134.753 236.955 136.289 230.402 136.34C203.182 136.92 190.262 112.34 190.262 112.34C174.752 86.8899 170.182 53.3399 169.092 42.6099C168.862 40.3799 168.852 39.0499 168.852 39.0499C168.849 35.6887 169.766 32.3908 171.502 29.5127C173.238 26.6346 175.727 24.2857 178.702 22.7199C181.774 21.1565 185.197 20.4093 188.642 20.5499C191.847 20.6791 194.965 21.6257 197.702 23.2999C199.827 24.5769 201.665 26.2791 203.102 28.2999C205.662 31.9399 206.232 36.4699 206.752 40.7899C207.813 50.3066 209.677 59.7167 212.322 68.9199V68.9199Z" fill="url(#paint2_radial)"/>
<path d="M212.322 68.9199C214.419 76.2854 217.274 83.4135 220.842 90.1899C222.472 93.1899 224.092 96.1899 227.062 98.0699C227.572 98.3994 228.138 98.6332 228.732 98.7599C233.092 99.6799 235.482 96.1799 237.022 92.9599C239.32 87.9235 241.177 82.6972 242.572 77.3399C242.842 76.3399 243.102 75.3399 243.362 74.3399C243.862 72.4199 244.362 70.4899 244.782 68.5599L264.062 17.1799C268.057 11.8635 273.233 7.54919 279.183 4.57793C285.132 1.60667 291.691 0.0599125 298.342 0.0599161C307.925 -0.000337907 317.244 3.20572 324.762 9.14991C337.342 18.6699 344.832 37.4199 344.832 37.4199C345.921 39.8617 346.484 42.506 346.482 45.1799C346.478 47.6575 345.986 50.11 345.034 52.3974C344.081 54.6847 342.688 56.7621 340.933 58.5107C339.178 60.2594 337.095 61.6451 334.804 62.5886C332.513 63.5322 330.059 64.0152 327.582 64.0099C324.828 64.0054 322.108 63.3968 319.615 62.227C317.122 61.0573 314.915 59.3549 313.152 57.2399C313.082 57.1699 313.032 57.0899 312.972 57.0199C311.76 55.3852 310.753 53.6088 309.972 51.7299C308.932 49.3809 307.77 47.0877 306.492 44.8599C305.805 43.7161 305.061 42.608 304.262 41.5399C303.594 40.5693 302.8 39.6916 301.902 38.9299C300.122 37.5099 297.902 36.9299 295.822 38.1699L295.522 38.3599C293.392 39.8299 291.892 42.7899 290.852 45.0699C287.852 51.5299 286.132 58.1599 284.432 64.9499C284.102 66.2599 283.792 67.5799 283.492 68.8899L275.492 94.8899L264.312 119.56C260.296 124.739 255.158 128.94 249.285 131.847C243.411 134.753 236.955 136.289 230.402 136.34C203.182 136.92 190.262 112.34 190.262 112.34C174.752 86.8899 170.182 53.3399 169.092 42.6099C168.862 40.3799 168.852 39.0499 168.852 39.0499C168.849 35.6887 169.766 32.3908 171.502 29.5127C173.238 26.6346 175.727 24.2857 178.702 22.7199C181.774 21.1565 185.197 20.4093 188.642 20.5499C191.847 20.6791 194.965 21.6257 197.702 23.2999C199.827 24.5769 201.665 26.2791 203.102 28.2999C205.662 31.9399 206.232 36.4699 206.752 40.7899C207.813 50.3066 209.677 59.7167 212.322 68.9199V68.9199Z" fill="url(#paint3_radial)"/>
<path d="M212.322 68.9199C214.419 76.2854 217.274 83.4135 220.842 90.1899C222.472 93.1899 224.092 96.1899 227.062 98.0699C227.572 98.3994 228.138 98.6332 228.732 98.7599C233.092 99.6799 235.482 96.1799 237.022 92.9599C239.32 87.9235 241.177 82.6972 242.572 77.3399C242.842 76.3399 243.102 75.3399 243.362 74.3399C243.862 72.4199 244.362 70.4899 244.782 68.5599L264.062 17.1799C268.057 11.8635 273.233 7.54919 279.183 4.57793C285.132 1.60667 291.691 0.0599125 298.342 0.0599161C307.925 -0.000337907 317.244 3.20572 324.762 9.14991C337.342 18.6699 344.832 37.4199 344.832 37.4199C345.921 39.8617 346.484 42.506 346.482 45.1799C346.478 47.6575 345.986 50.11 345.034 52.3974C344.081 54.6847 342.688 56.7621 340.933 58.5107C339.178 60.2594 337.095 61.6451 334.804 62.5886C332.513 63.5322 330.059 64.0152 327.582 64.0099C324.828 64.0054 322.108 63.3968 319.615 62.227C317.122 61.0573 314.915 59.3549 313.152 57.2399C313.082 57.1699 313.032 57.0899 312.972 57.0199C311.76 55.3852 310.753 53.6088 309.972 51.7299C308.932 49.3809 307.77 47.0877 306.492 44.8599C305.805 43.7161 305.061 42.608 304.262 41.5399C303.594 40.5693 302.8 39.6916 301.902 38.9299C300.122 37.5099 297.902 36.9299 295.822 38.1699L295.522 38.3599C293.392 39.8299 291.892 42.7899 290.852 45.0699C287.852 51.5299 286.132 58.1599 284.432 64.9499C284.102 66.2599 283.792 67.5799 283.492 68.8899L275.492 94.8899L264.312 119.56C260.296 124.739 255.158 128.94 249.285 131.847C243.411 134.753 236.955 136.289 230.402 136.34C203.182 136.92 190.262 112.34 190.262 112.34C174.752 86.8899 170.182 53.3399 169.092 42.6099C168.862 40.3799 168.852 39.0499 168.852 39.0499C168.849 35.6887 169.766 32.3908 171.502 29.5127C173.238 26.6346 175.727 24.2857 178.702 22.7199C181.774 21.1565 185.197 20.4093 188.642 20.5499C191.847 20.6791 194.965 21.6257 197.702 23.2999C199.827 24.5769 201.665 26.2791 203.102 28.2999C205.662 31.9399 206.232 36.4699 206.752 40.7899C207.813 50.3066 209.677 59.7167 212.322 68.9199V68.9199Z" fill="url(#paint4_radial)"/>
<path d="M212.322 68.9199C214.419 76.2854 217.274 83.4135 220.842 90.1899C222.472 93.1899 224.092 96.1899 227.062 98.0699C227.572 98.3994 228.138 98.6332 228.732 98.7599C233.092 99.6799 235.482 96.1799 237.022 92.9599C239.32 87.9235 241.177 82.6972 242.572 77.3399C242.842 76.3399 243.102 75.3399 243.362 74.3399C243.862 72.4199 244.362 70.4899 244.782 68.5599L264.062 17.1799C268.057 11.8635 273.233 7.54919 279.183 4.57793C285.132 1.60667 291.691 0.0599125 298.342 0.0599161C307.925 -0.000337907 317.244 3.20572 324.762 9.14991C337.342 18.6699 344.832 37.4199 344.832 37.4199C345.921 39.8617 346.484 42.506 346.482 45.1799C346.478 47.6575 345.986 50.11 345.034 52.3974C344.081 54.6847 342.688 56.7621 340.933 58.5107C339.178 60.2594 337.095 61.6451 334.804 62.5886C332.513 63.5322 330.059 64.0152 327.582 64.0099C324.828 64.0054 322.108 63.3968 319.615 62.227C317.122 61.0573 314.915 59.3549 313.152 57.2399C313.082 57.1699 313.032 57.0899 312.972 57.0199C311.76 55.3852 310.753 53.6088 309.972 51.7299C308.932 49.3809 307.77 47.0877 306.492 44.8599C305.805 43.7161 305.061 42.608 304.262 41.5399C303.594 40.5693 302.8 39.6916 301.902 38.9299C300.122 37.5099 297.902 36.9299 295.822 38.1699L295.522 38.3599C293.392 39.8299 291.892 42.7899 290.852 45.0699C287.852 51.5299 286.132 58.1599 284.432 64.9499C284.102 66.2599 283.792 67.5799 283.492 68.8899L275.492 94.8899L264.312 119.56C260.296 124.739 255.158 128.94 249.285 131.847C243.411 134.753 236.955 136.289 230.402 136.34C203.182 136.92 190.262 112.34 190.262 112.34C174.752 86.8899 170.182 53.3399 169.092 42.6099C168.862 40.3799 168.852 39.0499 168.852 39.0499C168.849 35.6887 169.766 32.3908 171.502 29.5127C173.238 26.6346 175.727 24.2857 178.702 22.7199C181.774 21.1565 185.197 20.4093 188.642 20.5499C191.847 20.6791 194.965 21.6257 197.702 23.2999C199.827 24.5769 201.665 26.2791 203.102 28.2999C205.662 31.9399 206.232 36.4699 206.752 40.7899C207.813 50.3066 209.677 59.7167 212.322 68.9199V68.9199Z" fill="url(#paint5_radial)"/>
<path d="M212.322 68.9199C214.419 76.2854 217.274 83.4135 220.842 90.1899C222.472 93.1899 224.092 96.1899 227.062 98.0699C227.572 98.3994 228.138 98.6332 228.732 98.7599C233.092 99.6799 235.482 96.1799 237.022 92.9599C239.32 87.9235 241.177 82.6972 242.572 77.3399C242.842 76.3399 243.102 75.3399 243.362 74.3399C243.862 72.4199 244.362 70.4899 244.782 68.5599L264.062 17.1799C268.057 11.8635 273.233 7.54919 279.183 4.57793C285.132 1.60667 291.691 0.0599125 298.342 0.0599161C307.925 -0.000337907 317.244 3.20572 324.762 9.14991C337.342 18.6699 344.832 37.4199 344.832 37.4199C345.921 39.8617 346.484 42.506 346.482 45.1799C346.478 47.6575 345.986 50.11 345.034 52.3974C344.081 54.6847 342.688 56.7621 340.933 58.5107C339.178 60.2594 337.095 61.6451 334.804 62.5886C332.513 63.5322 330.059 64.0152 327.582 64.0099C324.828 64.0054 322.108 63.3968 319.615 62.227C317.122 61.0573 314.915 59.3549 313.152 57.2399C313.082 57.1699 313.032 57.0899 312.972 57.0199C311.76 55.3852 310.753 53.6088 309.972 51.7299C308.932 49.3809 307.77 47.0877 306.492 44.8599C305.805 43.7161 305.061 42.608 304.262 41.5399C303.594 40.5693 302.8 39.6916 301.902 38.9299C300.122 37.5099 297.902 36.9299 295.822 38.1699L295.522 38.3599C293.392 39.8299 291.892 42.7899 290.852 45.0699C287.852 51.5299 286.132 58.1599 284.432 64.9499C284.102 66.2599 283.792 67.5799 283.492 68.8899L275.492 94.8899L264.312 119.56C260.296 124.739 255.158 128.94 249.285 131.847C243.411 134.753 236.955 136.289 230.402 136.34C203.182 136.92 190.262 112.34 190.262 112.34C174.752 86.8899 170.182 53.3399 169.092 42.6099C168.862 40.3799 168.852 39.0499 168.852 39.0499C168.849 35.6887 169.766 32.3908 171.502 29.5127C173.238 26.6346 175.727 24.2857 178.702 22.7199C181.774 21.1565 185.197 20.4093 188.642 20.5499C191.847 20.6791 194.965 21.6257 197.702 23.2999C199.827 24.5769 201.665 26.2791 203.102 28.2999C205.662 31.9399 206.232 36.4699 206.752 40.7899C207.813 50.3066 209.677 59.7167 212.322 68.9199V68.9199Z" fill="url(#paint6_radial)"/>
<path d="M212.322 68.9199C214.419 76.2854 217.274 83.4135 220.842 90.1899C222.472 93.1899 224.092 96.1899 227.062 98.0699C227.572 98.3994 228.138 98.6332 228.732 98.7599C233.092 99.6799 235.482 96.1799 237.022 92.9599C239.32 87.9235 241.177 82.6972 242.572 77.3399C242.842 76.3399 243.102 75.3399 243.362 74.3399C243.862 72.4199 244.362 70.4899 244.782 68.5599L264.062 17.1799C268.057 11.8635 273.233 7.54919 279.183 4.57793C285.132 1.60667 291.691 0.0599125 298.342 0.0599161C307.925 -0.000337907 317.244 3.20572 324.762 9.14991C337.342 18.6699 344.832 37.4199 344.832 37.4199C345.921 39.8617 346.484 42.506 346.482 45.1799C346.478 47.6575 345.986 50.11 345.034 52.3974C344.081 54.6847 342.688 56.7621 340.933 58.5107C339.178 60.2594 337.095 61.6451 334.804 62.5886C332.513 63.5322 330.059 64.0152 327.582 64.0099C324.828 64.0054 322.108 63.3968 319.615 62.227C317.122 61.0573 314.915 59.3549 313.152 57.2399C313.082 57.1699 313.032 57.0899 312.972 57.0199C311.76 55.3852 310.753 53.6088 309.972 51.7299C308.932 49.3809 307.77 47.0877 306.492 44.8599C305.805 43.7161 305.061 42.608 304.262 41.5399C303.594 40.5693 302.8 39.6916 301.902 38.9299C300.122 37.5099 297.902 36.9299 295.822 38.1699L295.522 38.3599C293.392 39.8299 291.892 42.7899 290.852 45.0699C287.852 51.5299 286.132 58.1599 284.432 64.9499C284.102 66.2599 283.792 67.5799 283.492 68.8899L275.492 94.8899L264.312 119.56C260.296 124.739 255.158 128.94 249.285 131.847C243.411 134.753 236.955 136.289 230.402 136.34C203.182 136.92 190.262 112.34 190.262 112.34C174.752 86.8899 170.182 53.3399 169.092 42.6099C168.862 40.3799 168.852 39.0499 168.852 39.0499C168.849 35.6887 169.766 32.3908 171.502 29.5127C173.238 26.6346 175.727 24.2857 178.702 22.7199C181.774 21.1565 185.197 20.4093 188.642 20.5499C191.847 20.6791 194.965 21.6257 197.702 23.2999C199.827 24.5769 201.665 26.2791 203.102 28.2999C205.662 31.9399 206.232 36.4699 206.752 40.7899C207.813 50.3066 209.677 59.7167 212.322 68.9199V68.9199Z" fill="url(#paint7_radial)"/>
<path d="M212.322 68.9199C214.419 76.2854 217.274 83.4135 220.842 90.1899C222.472 93.1899 224.092 96.1899 227.062 98.0699C227.572 98.3994 228.138 98.6332 228.732 98.7599C233.092 99.6799 235.482 96.1799 237.022 92.9599C239.32 87.9235 241.177 82.6972 242.572 77.3399C242.842 76.3399 243.102 75.3399 243.362 74.3399C243.862 72.4199 244.362 70.4899 244.782 68.5599L264.062 17.1799C268.057 11.8635 273.233 7.54919 279.183 4.57793C285.132 1.60667 291.691 0.0599125 298.342 0.0599161C307.925 -0.000337907 317.244 3.20572 324.762 9.14991C337.342 18.6699 344.832 37.4199 344.832 37.4199C345.921 39.8617 346.484 42.506 346.482 45.1799C346.478 47.6575 345.986 50.11 345.034 52.3974C344.081 54.6847 342.688 56.7621 340.933 58.5107C339.178 60.2594 337.095 61.6451 334.804 62.5886C332.513 63.5322 330.059 64.0152 327.582 64.0099C324.828 64.0054 322.108 63.3968 319.615 62.227C317.122 61.0573 314.915 59.3549 313.152 57.2399C313.082 57.1699 313.032 57.0899 312.972 57.0199C311.76 55.3852 310.753 53.6088 309.972 51.7299C308.932 49.3809 307.77 47.0877 306.492 44.8599C305.805 43.7161 305.061 42.608 304.262 41.5399C303.594 40.5693 302.8 39.6916 301.902 38.9299C300.122 37.5099 297.902 36.9299 295.822 38.1699L295.522 38.3599C293.392 39.8299 291.892 42.7899 290.852 45.0699C287.852 51.5299 286.132 58.1599 284.432 64.9499C284.102 66.2599 283.792 67.5799 283.492 68.8899L275.492 94.8899L264.312 119.56C260.296 124.739 255.158 128.94 249.285 131.847C243.411 134.753 236.955 136.289 230.402 136.34C203.182 136.92 190.262 112.34 190.262 112.34C174.752 86.8899 170.182 53.3399 169.092 42.6099C168.862 40.3799 168.852 39.0499 168.852 39.0499C168.849 35.6887 169.766 32.3908 171.502 29.5127C173.238 26.6346 175.727 24.2857 178.702 22.7199C181.774 21.1565 185.197 20.4093 188.642 20.5499C191.847 20.6791 194.965 21.6257 197.702 23.2999C199.827 24.5769 201.665 26.2791 203.102 28.2999C205.662 31.9399 206.232 36.4699 206.752 40.7899C207.813 50.3066 209.677 59.7167 212.322 68.9199V68.9199Z" fill="url(#paint8_radial)"/>
<path d="M212.322 68.9199C214.419 76.2854 217.274 83.4135 220.842 90.1899C222.472 93.1899 224.092 96.1899 227.062 98.0699C227.572 98.3994 228.138 98.6332 228.732 98.7599C233.092 99.6799 235.482 96.1799 237.022 92.9599C239.32 87.9235 241.177 82.6972 242.572 77.3399C242.842 76.3399 243.102 75.3399 243.362 74.3399C243.862 72.4199 244.362 70.4899 244.782 68.5599L264.062 17.1799C268.057 11.8635 273.233 7.54919 279.183 4.57793C285.132 1.60667 291.691 0.0599125 298.342 0.0599161C307.925 -0.000337907 317.244 3.20572 324.762 9.14991C337.342 18.6699 344.832 37.4199 344.832 37.4199C345.921 39.8617 346.484 42.506 346.482 45.1799C346.478 47.6575 345.986 50.11 345.034 52.3974C344.081 54.6847 342.688 56.7621 340.933 58.5107C339.178 60.2594 337.095 61.6451 334.804 62.5886C332.513 63.5322 330.059 64.0152 327.582 64.0099C324.828 64.0054 322.108 63.3968 319.615 62.227C317.122 61.0573 314.915 59.3549 313.152 57.2399C313.082 57.1699 313.032 57.0899 312.972 57.0199C311.76 55.3852 310.753 53.6088 309.972 51.7299C308.932 49.3809 307.77 47.0877 306.492 44.8599C305.805 43.7161 305.061 42.608 304.262 41.5399C303.594 40.5693 302.8 39.6916 301.902 38.9299C300.122 37.5099 297.902 36.9299 295.822 38.1699L295.522 38.3599C293.392 39.8299 291.892 42.7899 290.852 45.0699C287.852 51.5299 286.132 58.1599 284.432 64.9499C284.102 66.2599 283.792 67.5799 283.492 68.8899L275.492 94.8899L264.312 119.56C260.296 124.739 255.158 128.94 249.285 131.847C243.411 134.753 236.955 136.289 230.402 136.34C203.182 136.92 190.262 112.34 190.262 112.34C174.752 86.8899 170.182 53.3399 169.092 42.6099C168.862 40.3799 168.852 39.0499 168.852 39.0499C168.849 35.6887 169.766 32.3908 171.502 29.5127C173.238 26.6346 175.727 24.2857 178.702 22.7199C181.774 21.1565 185.197 20.4093 188.642 20.5499C191.847 20.6791 194.965 21.6257 197.702 23.2999C199.827 24.5769 201.665 26.2791 203.102 28.2999C205.662 31.9399 206.232 36.4699 206.752 40.7899C207.813 50.3066 209.677 59.7167 212.322 68.9199V68.9199Z" fill="url(#paint9_radial)"/>
<path d="M212.322 68.9199C214.419 76.2854 217.274 83.4135 220.842 90.1899C222.472 93.1899 224.092 96.1899 227.062 98.0699C227.572 98.3994 228.138 98.6332 228.732 98.7599C233.092 99.6799 235.482 96.1799 237.022 92.9599C239.32 87.9235 241.177 82.6972 242.572 77.3399C242.842 76.3399 243.102 75.3399 243.362 74.3399C243.862 72.4199 244.362 70.4899 244.782 68.5599L264.062 17.1799C268.057 11.8635 273.233 7.54919 279.183 4.57793C285.132 1.60667 291.691 0.0599125 298.342 0.0599161C307.925 -0.000337907 317.244 3.20572 324.762 9.14991C337.342 18.6699 344.832 37.4199 344.832 37.4199C345.921 39.8617 346.484 42.506 346.482 45.1799C346.478 47.6575 345.986 50.11 345.034 52.3974C344.081 54.6847 342.688 56.7621 340.933 58.5107C339.178 60.2594 337.095 61.6451 334.804 62.5886C332.513 63.5322 330.059 64.0152 327.582 64.0099C324.828 64.0054 322.108 63.3968 319.615 62.227C317.122 61.0573 314.915 59.3549 313.152 57.2399C313.082 57.1699 313.032 57.0899 312.972 57.0199C311.76 55.3852 310.753 53.6088 309.972 51.7299C308.932 49.3809 307.77 47.0877 306.492 44.8599C305.805 43.7161 305.061 42.608 304.262 41.5399C303.594 40.5693 302.8 39.6916 301.902 38.9299C300.122 37.5099 297.902 36.9299 295.822 38.1699L295.522 38.3599C293.392 39.8299 291.892 42.7899 290.852 45.0699C287.852 51.5299 286.132 58.1599 284.432 64.9499C284.102 66.2599 283.792 67.5799 283.492 68.8899L275.492 94.8899L264.312 119.56C260.296 124.739 255.158 128.94 249.285 131.847C243.411 134.753 236.955 136.289 230.402 136.34C203.182 136.92 190.262 112.34 190.262 112.34C174.752 86.8899 170.182 53.3399 169.092 42.6099C168.862 40.3799 168.852 39.0499 168.852 39.0499C168.849 35.6887 169.766 32.3908 171.502 29.5127C173.238 26.6346 175.727 24.2857 178.702 22.7199C181.774 21.1565 185.197 20.4093 188.642 20.5499C191.847 20.6791 194.965 21.6257 197.702 23.2999C199.827 24.5769 201.665 26.2791 203.102 28.2999C205.662 31.9399 206.232 36.4699 206.752 40.7899C207.813 50.3066 209.677 59.7167 212.322 68.9199V68.9199Z" fill="url(#paint10_radial)"/>
<path d="M212.322 68.9199C214.419 76.2854 217.274 83.4135 220.842 90.1899C222.472 93.1899 224.092 96.1899 227.062 98.0699C227.572 98.3994 228.138 98.6332 228.732 98.7599C233.092 99.6799 235.482 96.1799 237.022 92.9599C239.32 87.9235 241.177 82.6972 242.572 77.3399C242.842 76.3399 243.102 75.3399 243.362 74.3399C243.862 72.4199 244.362 70.4899 244.782 68.5599L264.062 17.1799C268.057 11.8635 273.233 7.54919 279.183 4.57793C285.132 1.60667 291.691 0.0599125 298.342 0.0599161C307.925 -0.000337907 317.244 3.20572 324.762 9.14991C337.342 18.6699 344.832 37.4199 344.832 37.4199C345.921 39.8617 346.484 42.506 346.482 45.1799C346.478 47.6575 345.986 50.11 345.034 52.3974C344.081 54.6847 342.688 56.7621 340.933 58.5107C339.178 60.2594 337.095 61.6451 334.804 62.5886C332.513 63.5322 330.059 64.0152 327.582 64.0099C324.828 64.0054 322.108 63.3968 319.615 62.227C317.122 61.0573 314.915 59.3549 313.152 57.2399C313.082 57.1699 313.032 57.0899 312.972 57.0199C311.76 55.3852 310.753 53.6088 309.972 51.7299C308.932 49.3809 307.77 47.0877 306.492 44.8599C305.805 43.7161 305.061 42.608 304.262 41.5399C303.594 40.5693 302.8 39.6916 301.902 38.9299C300.122 37.5099 297.902 36.9299 295.822 38.1699L295.522 38.3599C293.392 39.8299 291.892 42.7899 290.852 45.0699C287.852 51.5299 286.132 58.1599 284.432 64.9499C284.102 66.2599 283.792 67.5799 283.492 68.8899L275.492 94.8899L264.312 119.56C260.296 124.739 255.158 128.94 249.285 131.847C243.411 134.753 236.955 136.289 230.402 136.34C203.182 136.92 190.262 112.34 190.262 112.34C174.752 86.8899 170.182 53.3399 169.092 42.6099C168.862 40.3799 168.852 39.0499 168.852 39.0499C168.849 35.6887 169.766 32.3908 171.502 29.5127C173.238 26.6346 175.727 24.2857 178.702 22.7199C181.774 21.1565 185.197 20.4093 188.642 20.5499C191.847 20.6791 194.965 21.6257 197.702 23.2999C199.827 24.5769 201.665 26.2791 203.102 28.2999C205.662 31.9399 206.232 36.4699 206.752 40.7899C207.813 50.3066 209.677 59.7167 212.322 68.9199V68.9199Z" fill="url(#paint11_radial)"/>
<path d="M212.322 68.9199C214.419 76.2854 217.274 83.4135 220.842 90.1899C222.472 93.1899 224.092 96.1899 227.062 98.0699C227.572 98.3994 228.138 98.6332 228.732 98.7599C233.092 99.6799 235.482 96.1799 237.022 92.9599C239.32 87.9235 241.177 82.6972 242.572 77.3399C242.842 76.3399 243.102 75.3399 243.362 74.3399C243.862 72.4199 244.362 70.4899 244.782 68.5599L264.062 17.1799C268.057 11.8635 273.233 7.54919 279.183 4.57793C285.132 1.60667 291.691 0.0599125 298.342 0.0599161C307.925 -0.000337907 317.244 3.20572 324.762 9.14991C337.342 18.6699 344.832 37.4199 344.832 37.4199C345.921 39.8617 346.484 42.506 346.482 45.1799C346.478 47.6575 345.986 50.11 345.034 52.3974C344.081 54.6847 342.688 56.7621 340.933 58.5107C339.178 60.2594 337.095 61.6451 334.804 62.5886C332.513 63.5322 330.059 64.0152 327.582 64.0099C324.828 64.0054 322.108 63.3968 319.615 62.227C317.122 61.0573 314.915 59.3549 313.152 57.2399C313.082 57.1699 313.032 57.0899 312.972 57.0199C311.76 55.3852 310.753 53.6088 309.972 51.7299C308.932 49.3809 307.77 47.0877 306.492 44.8599C305.805 43.7161 305.061 42.608 304.262 41.5399C303.594 40.5693 302.8 39.6916 301.902 38.9299C300.122 37.5099 297.902 36.9299 295.822 38.1699L295.522 38.3599C293.392 39.8299 291.892 42.7899 290.852 45.0699C287.852 51.5299 286.132 58.1599 284.432 64.9499C284.102 66.2599 283.792 67.5799 283.492 68.8899L275.492 94.8899L264.312 119.56C260.296 124.739 255.158 128.94 249.285 131.847C243.411 134.753 236.955 136.289 230.402 136.34C203.182 136.92 190.262 112.34 190.262 112.34C174.752 86.8899 170.182 53.3399 169.092 42.6099C168.862 40.3799 168.852 39.0499 168.852 39.0499C168.849 35.6887 169.766 32.3908 171.502 29.5127C173.238 26.6346 175.727 24.2857 178.702 22.7199C181.774 21.1565 185.197 20.4093 188.642 20.5499C191.847 20.6791 194.965 21.6257 197.702 23.2999C199.827 24.5769 201.665 26.2791 203.102 28.2999C205.662 31.9399 206.232 36.4699 206.752 40.7899C207.813 50.3066 209.677 59.7167 212.322 68.9199V68.9199Z" fill="url(#paint12_radial)"/>
<path d="M212.322 68.9199C214.419 76.2854 217.274 83.4135 220.842 90.1899C222.472 93.1899 224.092 96.1899 227.062 98.0699C227.572 98.3994 228.138 98.6332 228.732 98.7599C233.092 99.6799 235.482 96.1799 237.022 92.9599C239.32 87.9235 241.177 82.6972 242.572 77.3399C242.842 76.3399 243.102 75.3399 243.362 74.3399C243.862 72.4199 244.362 70.4899 244.782 68.5599L264.062 17.1799C268.057 11.8635 273.233 7.54919 279.183 4.57793C285.132 1.60667 291.691 0.0599125 298.342 0.0599161C307.925 -0.000337907 317.244 3.20572 324.762 9.14991C337.342 18.6699 344.832 37.4199 344.832 37.4199C345.921 39.8617 346.484 42.506 346.482 45.1799C346.478 47.6575 345.986 50.11 345.034 52.3974C344.081 54.6847 342.688 56.7621 340.933 58.5107C339.178 60.2594 337.095 61.6451 334.804 62.5886C332.513 63.5322 330.059 64.0152 327.582 64.0099C324.828 64.0054 322.108 63.3968 319.615 62.227C317.122 61.0573 314.915 59.3549 313.152 57.2399C313.082 57.1699 313.032 57.0899 312.972 57.0199C311.76 55.3852 310.753 53.6088 309.972 51.7299C308.932 49.3809 307.77 47.0877 306.492 44.8599C305.805 43.7161 305.061 42.608 304.262 41.5399C303.594 40.5693 302.8 39.6916 301.902 38.9299C300.122 37.5099 297.902 36.9299 295.822 38.1699L295.522 38.3599C293.392 39.8299 291.892 42.7899 290.852 45.0699C287.852 51.5299 286.132 58.1599 284.432 64.9499C284.102 66.2599 283.792 67.5799 283.492 68.8899L275.492 94.8899L264.312 119.56C260.296 124.739 255.158 128.94 249.285 131.847C243.411 134.753 236.955 136.289 230.402 136.34C203.182 136.92 190.262 112.34 190.262 112.34C174.752 86.8899 170.182 53.3399 169.092 42.6099C168.862 40.3799 168.852 39.0499 168.852 39.0499C168.849 35.6887 169.766 32.3908 171.502 29.5127C173.238 26.6346 175.727 24.2857 178.702 22.7199C181.774 21.1565 185.197 20.4093 188.642 20.5499C191.847 20.6791 194.965 21.6257 197.702 23.2999C199.827 24.5769 201.665 26.2791 203.102 28.2999C205.662 31.9399 206.232 36.4699 206.752 40.7899C207.813 50.3066 209.677 59.7167 212.322 68.9199V68.9199Z" fill="url(#paint13_radial)"/>
<path d="M212.322 68.9199C214.419 76.2854 217.274 83.4135 220.842 90.1899C222.472 93.1899 224.092 96.1899 227.062 98.0699C227.572 98.3994 228.138 98.6332 228.732 98.7599C233.092 99.6799 235.482 96.1799 237.022 92.9599C239.32 87.9235 241.177 82.6972 242.572 77.3399C242.842 76.3399 243.102 75.3399 243.362 74.3399C243.862 72.4199 244.362 70.4899 244.782 68.5599L264.062 17.1799C268.057 11.8635 273.233 7.54919 279.183 4.57793C285.132 1.60667 291.691 0.0599125 298.342 0.0599161C307.925 -0.000337907 317.244 3.20572 324.762 9.14991C337.342 18.6699 344.832 37.4199 344.832 37.4199C345.921 39.8617 346.484 42.506 346.482 45.1799C346.478 47.6575 345.986 50.11 345.034 52.3974C344.081 54.6847 342.688 56.7621 340.933 58.5107C339.178 60.2594 337.095 61.6451 334.804 62.5886C332.513 63.5322 330.059 64.0152 327.582 64.0099C324.828 64.0054 322.108 63.3968 319.615 62.227C317.122 61.0573 314.915 59.3549 313.152 57.2399C313.082 57.1699 313.032 57.0899 312.972 57.0199C311.76 55.3852 310.753 53.6088 309.972 51.7299C308.932 49.3809 307.77 47.0877 306.492 44.8599C305.805 43.7161 305.061 42.608 304.262 41.5399C303.594 40.5693 302.8 39.6916 301.902 38.9299C300.122 37.5099 297.902 36.9299 295.822 38.1699L295.522 38.3599C293.392 39.8299 291.892 42.7899 290.852 45.0699C287.852 51.5299 286.132 58.1599 284.432 64.9499C284.102 66.2599 283.792 67.5799 283.492 68.8899L275.492 94.8899L264.312 119.56C260.296 124.739 255.158 128.94 249.285 131.847C243.411 134.753 236.955 136.289 230.402 136.34C203.182 136.92 190.262 112.34 190.262 112.34C174.752 86.8899 170.182 53.3399 169.092 42.6099C168.862 40.3799 168.852 39.0499 168.852 39.0499C168.849 35.6887 169.766 32.3908 171.502 29.5127C173.238 26.6346 175.727 24.2857 178.702 22.7199C181.774 21.1565 185.197 20.4093 188.642 20.5499C191.847 20.6791 194.965 21.6257 197.702 23.2999C199.827 24.5769 201.665 26.2791 203.102 28.2999C205.662 31.9399 206.232 36.4699 206.752 40.7899C207.813 50.3066 209.677 59.7167 212.322 68.9199V68.9199Z" fill="url(#paint14_radial)"/>
<path d="M212.322 68.9199C214.419 76.2854 217.274 83.4135 220.842 90.1899C222.472 93.1899 224.092 96.1899 227.062 98.0699C227.572 98.3994 228.138 98.6332 228.732 98.7599C233.092 99.6799 235.482 96.1799 237.022 92.9599C239.32 87.9235 241.177 82.6972 242.572 77.3399C242.842 76.3399 243.102 75.3399 243.362 74.3399C243.862 72.4199 244.362 70.4899 244.782 68.5599L264.062 17.1799C268.057 11.8635 273.233 7.54919 279.183 4.57793C285.132 1.60667 291.691 0.0599125 298.342 0.0599161C307.925 -0.000337907 317.244 3.20572 324.762 9.14991C337.342 18.6699 344.832 37.4199 344.832 37.4199C345.921 39.8617 346.484 42.506 346.482 45.1799C346.478 47.6575 345.986 50.11 345.034 52.3974C344.081 54.6847 342.688 56.7621 340.933 58.5107C339.178 60.2594 337.095 61.6451 334.804 62.5886C332.513 63.5322 330.059 64.0152 327.582 64.0099C324.828 64.0054 322.108 63.3968 319.615 62.227C317.122 61.0573 314.915 59.3549 313.152 57.2399C313.082 57.1699 313.032 57.0899 312.972 57.0199C311.76 55.3852 310.753 53.6088 309.972 51.7299C308.932 49.3809 307.77 47.0877 306.492 44.8599C305.805 43.7161 305.061 42.608 304.262 41.5399C303.594 40.5693 302.8 39.6916 301.902 38.9299C300.122 37.5099 297.902 36.9299 295.822 38.1699L295.522 38.3599C293.392 39.8299 291.892 42.7899 290.852 45.0699C287.852 51.5299 286.132 58.1599 284.432 64.9499C284.102 66.2599 283.792 67.5799 283.492 68.8899L275.492 94.8899L264.312 119.56C260.296 124.739 255.158 128.94 249.285 131.847C243.411 134.753 236.955 136.289 230.402 136.34C203.182 136.92 190.262 112.34 190.262 112.34C174.752 86.8899 170.182 53.3399 169.092 42.6099C168.862 40.3799 168.852 39.0499 168.852 39.0499C168.849 35.6887 169.766 32.3908 171.502 29.5127C173.238 26.6346 175.727 24.2857 178.702 22.7199C181.774 21.1565 185.197 20.4093 188.642 20.5499C191.847 20.6791 194.965 21.6257 197.702 23.2999C199.827 24.5769 201.665 26.2791 203.102 28.2999C205.662 31.9399 206.232 36.4699 206.752 40.7899C207.813 50.3066 209.677 59.7167 212.322 68.9199V68.9199Z" fill="url(#paint15_radial)"/>
<path d="M212.322 68.9199C214.419 76.2854 217.274 83.4135 220.842 90.1899C222.472 93.1899 224.092 96.1899 227.062 98.0699C227.572 98.3994 228.138 98.6332 228.732 98.7599C233.092 99.6799 235.482 96.1799 237.022 92.9599C239.32 87.9235 241.177 82.6972 242.572 77.3399C242.842 76.3399 243.102 75.3399 243.362 74.3399C243.862 72.4199 244.362 70.4899 244.782 68.5599L264.062 17.1799C268.057 11.8635 273.233 7.54919 279.183 4.57793C285.132 1.60667 291.691 0.0599125 298.342 0.0599161C307.925 -0.000337907 317.244 3.20572 324.762 9.14991C337.342 18.6699 344.832 37.4199 344.832 37.4199C345.921 39.8617 346.484 42.506 346.482 45.1799C346.478 47.6575 345.986 50.11 345.034 52.3974C344.081 54.6847 342.688 56.7621 340.933 58.5107C339.178 60.2594 337.095 61.6451 334.804 62.5886C332.513 63.5322 330.059 64.0152 327.582 64.0099C324.828 64.0054 322.108 63.3968 319.615 62.227C317.122 61.0573 314.915 59.3549 313.152 57.2399C313.082 57.1699 313.032 57.0899 312.972 57.0199C311.76 55.3852 310.753 53.6088 309.972 51.7299C308.932 49.3809 307.77 47.0877 306.492 44.8599C305.805 43.7161 305.061 42.608 304.262 41.5399C303.594 40.5693 302.8 39.6916 301.902 38.9299C300.122 37.5099 297.902 36.9299 295.822 38.1699L295.522 38.3599C293.392 39.8299 291.892 42.7899 290.852 45.0699C287.852 51.5299 286.132 58.1599 284.432 64.9499C284.102 66.2599 283.792 67.5799 283.492 68.8899L275.492 94.8899L264.312 119.56C260.296 124.739 255.158 128.94 249.285 131.847C243.411 134.753 236.955 136.289 230.402 136.34C203.182 136.92 190.262 112.34 190.262 112.34C174.752 86.8899 170.182 53.3399 169.092 42.6099C168.862 40.3799 168.852 39.0499 168.852 39.0499C168.849 35.6887 169.766 32.3908 171.502 29.5127C173.238 26.6346 175.727 24.2857 178.702 22.7199C181.774 21.1565 185.197 20.4093 188.642 20.5499C191.847 20.6791 194.965 21.6257 197.702 23.2999C199.827 24.5769 201.665 26.2791 203.102 28.2999C205.662 31.9399 206.232 36.4699 206.752 40.7899C207.813 50.3066 209.677 59.7167 212.322 68.9199V68.9199Z" fill="url(#paint16_linear)"/>
<path d="M212.322 68.9199C214.419 76.2854 217.274 83.4135 220.842 90.1899C222.472 93.1899 224.092 96.1899 227.062 98.0699C227.572 98.3994 228.138 98.6332 228.732 98.7599C233.092 99.6799 235.482 96.1799 237.022 92.9599C239.32 87.9235 241.177 82.6972 242.572 77.3399C242.842 76.3399 243.102 75.3399 243.362 74.3399C243.862 72.4199 244.362 70.4899 244.782 68.5599L264.062 17.1799C268.057 11.8635 273.233 7.54919 279.183 4.57793C285.132 1.60667 291.691 0.0599125 298.342 0.0599161C307.925 -0.000337907 317.244 3.20572 324.762 9.14991C337.342 18.6699 344.832 37.4199 344.832 37.4199C345.921 39.8617 346.484 42.506 346.482 45.1799C346.478 47.6575 345.986 50.11 345.034 52.3974C344.081 54.6847 342.688 56.7621 340.933 58.5107C339.178 60.2594 337.095 61.6451 334.804 62.5886C332.513 63.5322 330.059 64.0152 327.582 64.0099C324.828 64.0054 322.108 63.3968 319.615 62.227C317.122 61.0573 314.915 59.3549 313.152 57.2399C313.082 57.1699 313.032 57.0899 312.972 57.0199C311.76 55.3852 310.753 53.6088 309.972 51.7299C308.932 49.3809 307.77 47.0877 306.492 44.8599C305.805 43.7161 305.061 42.608 304.262 41.5399C303.594 40.5693 302.8 39.6916 301.902 38.9299C300.122 37.5099 297.902 36.9299 295.822 38.1699L295.522 38.3599C293.392 39.8299 291.892 42.7899 290.852 45.0699C287.852 51.5299 286.132 58.1599 284.432 64.9499C284.102 66.2599 283.792 67.5799 283.492 68.8899L275.492 94.8899L264.312 119.56C260.296 124.739 255.158 128.94 249.285 131.847C243.411 134.753 236.955 136.289 230.402 136.34C203.182 136.92 190.262 112.34 190.262 112.34C174.752 86.8899 170.182 53.3399 169.092 42.6099C168.862 40.3799 168.852 39.0499 168.852 39.0499C168.849 35.6887 169.766 32.3908 171.502 29.5127C173.238 26.6346 175.727 24.2857 178.702 22.7199C181.774 21.1565 185.197 20.4093 188.642 20.5499C191.847 20.6791 194.965 21.6257 197.702 23.2999C199.827 24.5769 201.665 26.2791 203.102 28.2999C205.662 31.9399 206.232 36.4699 206.752 40.7899C207.813 50.3066 209.677 59.7167 212.322 68.9199V68.9199Z" fill="url(#paint17_linear)"/>
<path d="M212.322 68.9199C214.419 76.2854 217.274 83.4135 220.842 90.1899C222.472 93.1899 224.092 96.1899 227.062 98.0699C227.572 98.3994 228.138 98.6332 228.732 98.7599C233.092 99.6799 235.482 96.1799 237.022 92.9599C239.32 87.9235 241.177 82.6972 242.572 77.3399C242.842 76.3399 243.102 75.3399 243.362 74.3399C243.862 72.4199 244.362 70.4899 244.782 68.5599L264.062 17.1799C268.057 11.8635 273.233 7.54919 279.183 4.57793C285.132 1.60667 291.691 0.0599125 298.342 0.0599161C307.925 -0.000337907 317.244 3.20572 324.762 9.14991C337.342 18.6699 344.832 37.4199 344.832 37.4199C345.921 39.8617 346.484 42.506 346.482 45.1799C346.478 47.6575 345.986 50.11 345.034 52.3974C344.081 54.6847 342.688 56.7621 340.933 58.5107C339.178 60.2594 337.095 61.6451 334.804 62.5886C332.513 63.5322 330.059 64.0152 327.582 64.0099C324.828 64.0054 322.108 63.3968 319.615 62.227C317.122 61.0573 314.915 59.3549 313.152 57.2399C313.082 57.1699 313.032 57.0899 312.972 57.0199C311.76 55.3852 310.753 53.6088 309.972 51.7299C308.932 49.3809 307.77 47.0877 306.492 44.8599C305.805 43.7161 305.061 42.608 304.262 41.5399C303.594 40.5693 302.8 39.6916 301.902 38.9299C300.122 37.5099 297.902 36.9299 295.822 38.1699L295.522 38.3599C293.392 39.8299 291.892 42.7899 290.852 45.0699C287.852 51.5299 286.132 58.1599 284.432 64.9499C284.102 66.2599 283.792 67.5799 283.492 68.8899L275.492 94.8899L264.312 119.56C260.296 124.739 255.158 128.94 249.285 131.847C243.411 134.753 236.955 136.289 230.402 136.34C203.182 136.92 190.262 112.34 190.262 112.34C174.752 86.8899 170.182 53.3399 169.092 42.6099C168.862 40.3799 168.852 39.0499 168.852 39.0499C168.849 35.6887 169.766 32.3908 171.502 29.5127C173.238 26.6346 175.727 24.2857 178.702 22.7199C181.774 21.1565 185.197 20.4093 188.642 20.5499C191.847 20.6791 194.965 21.6257 197.702 23.2999C199.827 24.5769 201.665 26.2791 203.102 28.2999C205.662 31.9399 206.232 36.4699 206.752 40.7899C207.813 50.3066 209.677 59.7167 212.322 68.9199V68.9199Z" fill="url(#paint18_linear)"/>
<path d="M212.322 68.9199C214.419 76.2854 217.274 83.4135 220.842 90.1899C222.472 93.1899 224.092 96.1899 227.062 98.0699C227.572 98.3994 228.138 98.6332 228.732 98.7599C233.092 99.6799 235.482 96.1799 237.022 92.9599C239.32 87.9235 241.177 82.6972 242.572 77.3399C242.842 76.3399 243.102 75.3399 243.362 74.3399C243.862 72.4199 244.362 70.4899 244.782 68.5599L264.062 17.1799C268.057 11.8635 273.233 7.54919 279.183 4.57793C285.132 1.60667 291.691 0.0599125 298.342 0.0599161C307.925 -0.000337907 317.244 3.20572 324.762 9.14991C337.342 18.6699 344.832 37.4199 344.832 37.4199C345.921 39.8617 346.484 42.506 346.482 45.1799C346.478 47.6575 345.986 50.11 345.034 52.3974C344.081 54.6847 342.688 56.7621 340.933 58.5107C339.178 60.2594 337.095 61.6451 334.804 62.5886C332.513 63.5322 330.059 64.0152 327.582 64.0099C324.828 64.0054 322.108 63.3968 319.615 62.227C317.122 61.0573 314.915 59.3549 313.152 57.2399C313.082 57.1699 313.032 57.0899 312.972 57.0199C311.76 55.3852 310.753 53.6088 309.972 51.7299C308.932 49.3809 307.77 47.0877 306.492 44.8599C305.805 43.7161 305.061 42.608 304.262 41.5399C303.594 40.5693 302.8 39.6916 301.902 38.9299C300.122 37.5099 297.902 36.9299 295.822 38.1699L295.522 38.3599C293.392 39.8299 291.892 42.7899 290.852 45.0699C287.852 51.5299 286.132 58.1599 284.432 64.9499C284.102 66.2599 283.792 67.5799 283.492 68.8899L275.492 94.8899L264.312 119.56C260.296 124.739 255.158 128.94 249.285 131.847C243.411 134.753 236.955 136.289 230.402 136.34C203.182 136.92 190.262 112.34 190.262 112.34C174.752 86.8899 170.182 53.3399 169.092 42.6099C168.862 40.3799 168.852 39.0499 168.852 39.0499C168.849 35.6887 169.766 32.3908 171.502 29.5127C173.238 26.6346 175.727 24.2857 178.702 22.7199C181.774 21.1565 185.197 20.4093 188.642 20.5499C191.847 20.6791 194.965 21.6257 197.702 23.2999C199.827 24.5769 201.665 26.2791 203.102 28.2999C205.662 31.9399 206.232 36.4699 206.752 40.7899C207.813 50.3066 209.677 59.7167 212.322 68.9199V68.9199Z" fill="url(#paint19_linear)"/>
<path d="M251.801 49.8499L264.061 17.1799C268.056 11.8635 273.233 7.54919 279.182 4.57793C285.132 1.60667 291.691 0.0599125 298.341 0.0599161C307.925 -0.000337907 317.243 3.20572 324.761 9.14991C337.341 18.6699 344.831 37.4199 344.831 37.4199C345.921 39.8617 346.483 42.506 346.481 45.1799C346.477 47.6575 345.985 50.11 345.033 52.3974C344.081 54.6847 342.687 56.7621 340.932 58.5107C339.177 60.2594 337.094 61.6451 334.804 62.5886C332.513 63.5322 330.058 64.0152 327.581 64.0099C324.827 64.0054 322.107 63.3968 319.614 62.227C317.121 61.0573 314.915 59.3549 313.151 57.2399C313.081 57.1699 313.031 57.0899 312.971 57.0199C311.759 55.3852 310.752 53.6088 309.971 51.7299C308.931 49.3809 307.77 47.0877 306.491 44.8599C305.804 43.7161 305.06 42.608 304.261 41.5399C303.593 40.5693 302.799 39.6916 301.901 38.9299C300.121 37.5099 297.901 36.9299 295.821 38.1699L295.521 38.3599C293.391 39.8299 291.891 42.7899 290.851 45.0699C287.851 51.5299 286.131 58.1599 284.431 64.9499C284.101 66.2599 283.791 67.5799 283.491 68.8899L275.491 94.8899L251.801 49.8499Z" fill="url(#paint20_linear)"/>
<path d="M340.651 20.68C339.062 20.6764 337.479 20.8747 335.941 21.27C339.445 26.3374 342.424 31.7487 344.831 37.42C345.921 39.8617 346.483 42.506 346.481 45.18C346.477 47.6575 345.985 50.1101 345.033 52.3974C344.081 54.6848 342.687 56.7621 340.932 58.5108C339.177 60.2594 337.094 61.6451 334.804 62.5887C332.513 63.5323 330.058 64.0152 327.581 64.01C324.233 64.0036 320.947 63.1062 318.061 61.41L316.121 68.57C312.601 80.35 310.121 84.9 310.121 84.9C308.757 88.0888 307.131 91.1592 305.261 94.08C303.971 96 302.321 97.92 300.061 98.65C299.274 98.9208 298.434 98.9996 297.611 98.88C296.719 98.7755 295.858 98.4896 295.081 98.04C293.595 96.9186 292.412 95.4441 291.641 93.75C290.685 91.8759 289.827 89.9533 289.071 87.99C287.391 83.93 284.821 73.93 284.821 73.93L282.151 63.45L279.481 52.91L277.581 45.97C272.581 27.97 265.661 19.04 265.661 19.04C260.214 11.2877 252.506 5.4065 243.591 2.19996C233.261 -1.50004 222.411 0.579959 222.411 0.579959C205.411 3.92996 196.481 15.58 192.551 21.2C194.351 21.6652 196.073 22.3931 197.661 23.36C199.786 24.637 201.624 26.3392 203.061 28.36C205.621 32 206.191 36.53 206.711 40.85C207.779 50.2237 209.626 59.4923 212.231 68.56C217.991 49.46 224.901 40.56 224.901 40.56C225.673 39.5976 226.598 38.7697 227.641 38.11C228.183 37.777 228.79 37.5623 229.421 37.48C230.591 37.3759 231.763 37.6644 232.751 38.3C232.929 38.4187 233.099 38.549 233.261 38.69C234.163 39.4954 234.939 40.4327 235.561 41.47C236.999 44.0414 238.246 46.7153 239.291 49.47C241.451 55.56 243.291 62.99 243.291 62.99L248.791 84.66C252.791 99.41 256.181 106.57 256.181 106.57C264.521 125.68 277.291 131.07 277.291 131.07C283.511 134.394 290.429 136.2 297.481 136.34C304.209 136.531 310.884 135.097 316.941 132.16C323.598 128.931 329.447 124.254 334.061 118.47C337.151 114.89 341.701 106.16 341.701 106.16C346.72 96.1687 350.656 85.6689 353.441 74.84C355.233 68.0936 356.668 61.2575 357.741 54.36C358.281 50.94 358.791 47.49 359.201 44.05C359.712 40.7831 359.61 37.4496 358.901 34.22C358.752 33.6394 358.569 33.0683 358.351 32.51C356.747 28.4553 353.766 25.0954 349.931 23.02C347.081 21.4772 343.891 20.6727 340.651 20.68V20.68Z" fill="url(#paint21_linear)"/>
<path d="M340.651 20.68C339.062 20.6764 337.479 20.8747 335.941 21.27C339.445 26.3374 342.424 31.7487 344.831 37.42C345.921 39.8617 346.483 42.506 346.481 45.18C346.477 47.6575 345.985 50.1101 345.033 52.3974C344.081 54.6848 342.687 56.7621 340.932 58.5108C339.177 60.2594 337.094 61.6451 334.804 62.5887C332.513 63.5323 330.058 64.0152 327.581 64.01C324.233 64.0036 320.947 63.1062 318.061 61.41L316.121 68.57C312.601 80.35 310.121 84.9 310.121 84.9C308.757 88.0888 307.131 91.1592 305.261 94.08C303.971 96 302.321 97.92 300.061 98.65C299.274 98.9208 298.434 98.9996 297.611 98.88C296.719 98.7755 295.858 98.4896 295.081 98.04C293.595 96.9186 292.412 95.4441 291.641 93.75C290.685 91.8759 289.827 89.9533 289.071 87.99C287.391 83.93 284.821 73.93 284.821 73.93L282.151 63.45L279.481 52.91L277.581 45.97C272.581 27.97 265.661 19.04 265.661 19.04C260.214 11.2877 252.506 5.4065 243.591 2.19996C233.261 -1.50004 222.411 0.579959 222.411 0.579959C205.411 3.92996 196.481 15.58 192.551 21.2C194.351 21.6652 196.073 22.3931 197.661 23.36C199.786 24.637 201.624 26.3392 203.061 28.36C205.621 32 206.191 36.53 206.711 40.85C207.779 50.2237 209.626 59.4923 212.231 68.56C217.991 49.46 224.901 40.56 224.901 40.56C225.673 39.5976 226.598 38.7697 227.641 38.11C228.183 37.777 228.79 37.5623 229.421 37.48C230.591 37.3759 231.763 37.6644 232.751 38.3C232.929 38.4187 233.099 38.549 233.261 38.69C234.163 39.4954 234.939 40.4327 235.561 41.47C236.999 44.0414 238.246 46.7153 239.291 49.47C241.451 55.56 243.291 62.99 243.291 62.99L248.791 84.66C252.791 99.41 256.181 106.57 256.181 106.57C264.521 125.68 277.291 131.07 277.291 131.07C283.511 134.394 290.429 136.2 297.481 136.34C304.209 136.531 310.884 135.097 316.941 132.16C323.598 128.931 329.447 124.254 334.061 118.47C337.151 114.89 341.701 106.16 341.701 106.16C346.72 96.1687 350.656 85.6689 353.441 74.84C355.233 68.0936 356.668 61.2575 357.741 54.36C358.281 50.94 358.791 47.49 359.201 44.05C359.712 40.7831 359.61 37.4496 358.901 34.22C358.752 33.6394 358.569 33.0683 358.351 32.51C356.747 28.4553 353.766 25.0954 349.931 23.02C347.081 21.4772 343.891 20.6727 340.651 20.68V20.68Z" fill="url(#paint22_radial)"/>
<path d="M340.651 20.68C339.062 20.6764 337.479 20.8747 335.941 21.27C339.445 26.3374 342.424 31.7487 344.831 37.42C345.921 39.8617 346.483 42.506 346.481 45.18C346.477 47.6575 345.985 50.1101 345.033 52.3974C344.081 54.6848 342.687 56.7621 340.932 58.5108C339.177 60.2594 337.094 61.6451 334.804 62.5887C332.513 63.5323 330.058 64.0152 327.581 64.01C324.233 64.0036 320.947 63.1062 318.061 61.41L316.121 68.57C312.601 80.35 310.121 84.9 310.121 84.9C308.757 88.0888 307.131 91.1592 305.261 94.08C303.971 96 302.321 97.92 300.061 98.65C299.274 98.9208 298.434 98.9996 297.611 98.88C296.719 98.7755 295.858 98.4896 295.081 98.04C293.595 96.9186 292.412 95.4441 291.641 93.75C290.685 91.8759 289.827 89.9533 289.071 87.99C287.391 83.93 284.821 73.93 284.821 73.93L282.151 63.45L279.481 52.91L277.581 45.97C272.581 27.97 265.661 19.04 265.661 19.04C260.214 11.2877 252.506 5.4065 243.591 2.19996C233.261 -1.50004 222.411 0.579959 222.411 0.579959C205.411 3.92996 196.481 15.58 192.551 21.2C194.351 21.6652 196.073 22.3931 197.661 23.36C199.786 24.637 201.624 26.3392 203.061 28.36C205.621 32 206.191 36.53 206.711 40.85C207.779 50.2237 209.626 59.4923 212.231 68.56C217.991 49.46 224.901 40.56 224.901 40.56C225.673 39.5976 226.598 38.7697 227.641 38.11C228.183 37.777 228.79 37.5623 229.421 37.48C230.591 37.3759 231.763 37.6644 232.751 38.3C232.929 38.4187 233.099 38.549 233.261 38.69C234.163 39.4954 234.939 40.4327 235.561 41.47C236.999 44.0414 238.246 46.7153 239.291 49.47C241.451 55.56 243.291 62.99 243.291 62.99L248.791 84.66C252.791 99.41 256.181 106.57 256.181 106.57C264.521 125.68 277.291 131.07 277.291 131.07C283.511 134.394 290.429 136.2 297.481 136.34C304.209 136.531 310.884 135.097 316.941 132.16C323.598 128.931 329.447 124.254 334.061 118.47C337.151 114.89 341.701 106.16 341.701 106.16C346.72 96.1687 350.656 85.6689 353.441 74.84C355.233 68.0936 356.668 61.2575 357.741 54.36C358.281 50.94 358.791 47.49 359.201 44.05C359.712 40.7831 359.61 37.4496 358.901 34.22C358.752 33.6394 358.569 33.0683 358.351 32.51C356.747 28.4553 353.766 25.0954 349.931 23.02C347.081 21.4772 343.891 20.6727 340.651 20.68V20.68Z" fill="url(#paint23_radial)"/>
<path d="M340.651 20.68C339.062 20.6764 337.479 20.8747 335.941 21.27C339.445 26.3374 342.424 31.7487 344.831 37.42C345.921 39.8617 346.483 42.506 346.481 45.18C346.477 47.6575 345.985 50.1101 345.033 52.3974C344.081 54.6848 342.687 56.7621 340.932 58.5108C339.177 60.2594 337.094 61.6451 334.804 62.5887C332.513 63.5323 330.058 64.0152 327.581 64.01C324.233 64.0036 320.947 63.1062 318.061 61.41L316.121 68.57C312.601 80.35 310.121 84.9 310.121 84.9C308.757 88.0888 307.131 91.1592 305.261 94.08C303.971 96 302.321 97.92 300.061 98.65C299.274 98.9208 298.434 98.9996 297.611 98.88C296.719 98.7755 295.858 98.4896 295.081 98.04C293.595 96.9186 292.412 95.4441 291.641 93.75C290.685 91.8759 289.827 89.9533 289.071 87.99C287.391 83.93 284.821 73.93 284.821 73.93L282.151 63.45L279.481 52.91L277.581 45.97C272.581 27.97 265.661 19.04 265.661 19.04C260.214 11.2877 252.506 5.4065 243.591 2.19996C233.261 -1.50004 222.411 0.579959 222.411 0.579959C205.411 3.92996 196.481 15.58 192.551 21.2C194.351 21.6652 196.073 22.3931 197.661 23.36C199.786 24.637 201.624 26.3392 203.061 28.36C205.621 32 206.191 36.53 206.711 40.85C207.779 50.2237 209.626 59.4923 212.231 68.56C217.991 49.46 224.901 40.56 224.901 40.56C225.673 39.5976 226.598 38.7697 227.641 38.11C228.183 37.777 228.79 37.5623 229.421 37.48C230.591 37.3759 231.763 37.6644 232.751 38.3C232.929 38.4187 233.099 38.549 233.261 38.69C234.163 39.4954 234.939 40.4327 235.561 41.47C236.999 44.0414 238.246 46.7153 239.291 49.47C241.451 55.56 243.291 62.99 243.291 62.99L248.791 84.66C252.791 99.41 256.181 106.57 256.181 106.57C264.521 125.68 277.291 131.07 277.291 131.07C283.511 134.394 290.429 136.2 297.481 136.34C304.209 136.531 310.884 135.097 316.941 132.16C323.598 128.931 329.447 124.254 334.061 118.47C337.151 114.89 341.701 106.16 341.701 106.16C346.72 96.1687 350.656 85.6689 353.441 74.84C355.233 68.0936 356.668 61.2575 357.741 54.36C358.281 50.94 358.791 47.49 359.201 44.05C359.712 40.7831 359.61 37.4496 358.901 34.22C358.752 33.6394 358.569 33.0683 358.351 32.51C356.747 28.4553 353.766 25.0954 349.931 23.02C347.081 21.4772 343.891 20.6727 340.651 20.68V20.68Z" fill="url(#paint24_radial)"/>
<path d="M340.651 20.68C339.062 20.6764 337.479 20.8747 335.941 21.27C339.445 26.3374 342.424 31.7487 344.831 37.42C345.921 39.8617 346.483 42.506 346.481 45.18C346.477 47.6575 345.985 50.1101 345.033 52.3974C344.081 54.6848 342.687 56.7621 340.932 58.5108C339.177 60.2594 337.094 61.6451 334.804 62.5887C332.513 63.5323 330.058 64.0152 327.581 64.01C324.233 64.0036 320.947 63.1062 318.061 61.41L316.121 68.57C312.601 80.35 310.121 84.9 310.121 84.9C308.757 88.0888 307.131 91.1592 305.261 94.08C303.971 96 302.321 97.92 300.061 98.65C299.274 98.9208 298.434 98.9996 297.611 98.88C296.719 98.7755 295.858 98.4896 295.081 98.04C293.595 96.9186 292.412 95.4441 291.641 93.75C290.685 91.8759 289.827 89.9533 289.071 87.99C287.391 83.93 284.821 73.93 284.821 73.93L282.151 63.45L279.481 52.91L277.581 45.97C272.581 27.97 265.661 19.04 265.661 19.04C260.214 11.2877 252.506 5.4065 243.591 2.19996C233.261 -1.50004 222.411 0.579959 222.411 0.579959C205.411 3.92996 196.481 15.58 192.551 21.2C194.351 21.6652 196.073 22.3931 197.661 23.36C199.786 24.637 201.624 26.3392 203.061 28.36C205.621 32 206.191 36.53 206.711 40.85C207.779 50.2237 209.626 59.4923 212.231 68.56C217.991 49.46 224.901 40.56 224.901 40.56C225.673 39.5976 226.598 38.7697 227.641 38.11C228.183 37.777 228.79 37.5623 229.421 37.48C230.591 37.3759 231.763 37.6644 232.751 38.3C232.929 38.4187 233.099 38.549 233.261 38.69C234.163 39.4954 234.939 40.4327 235.561 41.47C236.999 44.0414 238.246 46.7153 239.291 49.47C241.451 55.56 243.291 62.99 243.291 62.99L248.791 84.66C252.791 99.41 256.181 106.57 256.181 106.57C264.521 125.68 277.291 131.07 277.291 131.07C283.511 134.394 290.429 136.2 297.481 136.34C304.209 136.531 310.884 135.097 316.941 132.16C323.598 128.931 329.447 124.254 334.061 118.47C337.151 114.89 341.701 106.16 341.701 106.16C346.72 96.1687 350.656 85.6689 353.441 74.84C355.233 68.0936 356.668 61.2575 357.741 54.36C358.281 50.94 358.791 47.49 359.201 44.05C359.712 40.7831 359.61 37.4496 358.901 34.22C358.752 33.6394 358.569 33.0683 358.351 32.51C356.747 28.4553 353.766 25.0954 349.931 23.02C347.081 21.4772 343.891 20.6727 340.651 20.68V20.68Z" fill="url(#paint25_radial)"/>
<path d="M340.651 20.68C339.062 20.6764 337.479 20.8747 335.941 21.27C339.445 26.3374 342.424 31.7487 344.831 37.42C345.921 39.8617 346.483 42.506 346.481 45.18C346.477 47.6575 345.985 50.1101 345.033 52.3974C344.081 54.6848 342.687 56.7621 340.932 58.5108C339.177 60.2594 337.094 61.6451 334.804 62.5887C332.513 63.5323 330.058 64.0152 327.581 64.01C324.233 64.0036 320.947 63.1062 318.061 61.41L316.121 68.57C312.601 80.35 310.121 84.9 310.121 84.9C308.757 88.0888 307.131 91.1592 305.261 94.08C303.971 96 302.321 97.92 300.061 98.65C299.274 98.9208 298.434 98.9996 297.611 98.88C296.719 98.7755 295.858 98.4896 295.081 98.04C293.595 96.9186 292.412 95.4441 291.641 93.75C290.685 91.8759 289.827 89.9533 289.071 87.99C287.391 83.93 284.821 73.93 284.821 73.93L282.151 63.45L279.481 52.91L277.581 45.97C272.581 27.97 265.661 19.04 265.661 19.04C260.214 11.2877 252.506 5.4065 243.591 2.19996C233.261 -1.50004 222.411 0.579959 222.411 0.579959C205.411 3.92996 196.481 15.58 192.551 21.2C194.351 21.6652 196.073 22.3931 197.661 23.36C199.786 24.637 201.624 26.3392 203.061 28.36C205.621 32 206.191 36.53 206.711 40.85C207.779 50.2237 209.626 59.4923 212.231 68.56C217.991 49.46 224.901 40.56 224.901 40.56C225.673 39.5976 226.598 38.7697 227.641 38.11C228.183 37.777 228.79 37.5623 229.421 37.48C230.591 37.3759 231.763 37.6644 232.751 38.3C232.929 38.4187 233.099 38.549 233.261 38.69C234.163 39.4954 234.939 40.4327 235.561 41.47C236.999 44.0414 238.246 46.7153 239.291 49.47C241.451 55.56 243.291 62.99 243.291 62.99L248.791 84.66C252.791 99.41 256.181 106.57 256.181 106.57C264.521 125.68 277.291 131.07 277.291 131.07C283.511 134.394 290.429 136.2 297.481 136.34C304.209 136.531 310.884 135.097 316.941 132.16C323.598 128.931 329.447 124.254 334.061 118.47C337.151 114.89 341.701 106.16 341.701 106.16C346.72 96.1687 350.656 85.6689 353.441 74.84C355.233 68.0936 356.668 61.2575 357.741 54.36C358.281 50.94 358.791 47.49 359.201 44.05C359.712 40.7831 359.61 37.4496 358.901 34.22C358.752 33.6394 358.569 33.0683 358.351 32.51C356.747 28.4553 353.766 25.0954 349.931 23.02C347.081 21.4772 343.891 20.6727 340.651 20.68V20.68Z" fill="url(#paint26_radial)"/>
<path d="M340.651 20.68C339.062 20.6764 337.479 20.8747 335.941 21.27C339.445 26.3374 342.424 31.7487 344.831 37.42C345.921 39.8617 346.483 42.506 346.481 45.18C346.477 47.6575 345.985 50.1101 345.033 52.3974C344.081 54.6848 342.687 56.7621 340.932 58.5108C339.177 60.2594 337.094 61.6451 334.804 62.5887C332.513 63.5323 330.058 64.0152 327.581 64.01C324.233 64.0036 320.947 63.1062 318.061 61.41L316.121 68.57C312.601 80.35 310.121 84.9 310.121 84.9C308.757 88.0888 307.131 91.1592 305.261 94.08C303.971 96 302.321 97.92 300.061 98.65C299.274 98.9208 298.434 98.9996 297.611 98.88C296.719 98.7755 295.858 98.4896 295.081 98.04C293.595 96.9186 292.412 95.4441 291.641 93.75C290.685 91.8759 289.827 89.9533 289.071 87.99C287.391 83.93 284.821 73.93 284.821 73.93L282.151 63.45L279.481 52.91L277.581 45.97C272.581 27.97 265.661 19.04 265.661 19.04C260.214 11.2877 252.506 5.4065 243.591 2.19996C233.261 -1.50004 222.411 0.579959 222.411 0.579959C205.411 3.92996 196.481 15.58 192.551 21.2C194.351 21.6652 196.073 22.3931 197.661 23.36C199.786 24.637 201.624 26.3392 203.061 28.36C205.621 32 206.191 36.53 206.711 40.85C207.779 50.2237 209.626 59.4923 212.231 68.56C217.991 49.46 224.901 40.56 224.901 40.56C225.673 39.5976 226.598 38.7697 227.641 38.11C228.183 37.777 228.79 37.5623 229.421 37.48C230.591 37.3759 231.763 37.6644 232.751 38.3C232.929 38.4187 233.099 38.549 233.261 38.69C234.163 39.4954 234.939 40.4327 235.561 41.47C236.999 44.0414 238.246 46.7153 239.291 49.47C241.451 55.56 243.291 62.99 243.291 62.99L248.791 84.66C252.791 99.41 256.181 106.57 256.181 106.57C264.521 125.68 277.291 131.07 277.291 131.07C283.511 134.394 290.429 136.2 297.481 136.34C304.209 136.531 310.884 135.097 316.941 132.16C323.598 128.931 329.447 124.254 334.061 118.47C337.151 114.89 341.701 106.16 341.701 106.16C346.72 96.1687 350.656 85.6689 353.441 74.84C355.233 68.0936 356.668 61.2575 357.741 54.36C358.281 50.94 358.791 47.49 359.201 44.05C359.712 40.7831 359.61 37.4496 358.901 34.22C358.752 33.6394 358.569 33.0683 358.351 32.51C356.747 28.4553 353.766 25.0954 349.931 23.02C347.081 21.4772 343.891 20.6727 340.651 20.68V20.68Z" fill="url(#paint27_radial)"/>
<path d="M340.651 20.68C339.062 20.6764 337.479 20.8747 335.941 21.27C339.445 26.3374 342.424 31.7487 344.831 37.42C345.921 39.8617 346.483 42.506 346.481 45.18C346.477 47.6575 345.985 50.1101 345.033 52.3974C344.081 54.6848 342.687 56.7621 340.932 58.5108C339.177 60.2594 337.094 61.6451 334.804 62.5887C332.513 63.5323 330.058 64.0152 327.581 64.01C324.233 64.0036 320.947 63.1062 318.061 61.41L316.121 68.57C312.601 80.35 310.121 84.9 310.121 84.9C308.757 88.0888 307.131 91.1592 305.261 94.08C303.971 96 302.321 97.92 300.061 98.65C299.274 98.9208 298.434 98.9996 297.611 98.88C296.719 98.7755 295.858 98.4896 295.081 98.04C293.595 96.9186 292.412 95.4441 291.641 93.75C290.685 91.8759 289.827 89.9533 289.071 87.99C287.391 83.93 284.821 73.93 284.821 73.93L282.151 63.45L279.481 52.91L277.581 45.97C272.581 27.97 265.661 19.04 265.661 19.04C260.214 11.2877 252.506 5.4065 243.591 2.19996C233.261 -1.50004 222.411 0.579959 222.411 0.579959C205.411 3.92996 196.481 15.58 192.551 21.2C194.351 21.6652 196.073 22.3931 197.661 23.36C199.786 24.637 201.624 26.3392 203.061 28.36C205.621 32 206.191 36.53 206.711 40.85C207.779 50.2237 209.626 59.4923 212.231 68.56C217.991 49.46 224.901 40.56 224.901 40.56C225.673 39.5976 226.598 38.7697 227.641 38.11C228.183 37.777 228.79 37.5623 229.421 37.48C230.591 37.3759 231.763 37.6644 232.751 38.3C232.929 38.4187 233.099 38.549 233.261 38.69C234.163 39.4954 234.939 40.4327 235.561 41.47C236.999 44.0414 238.246 46.7153 239.291 49.47C241.451 55.56 243.291 62.99 243.291 62.99L248.791 84.66C252.791 99.41 256.181 106.57 256.181 106.57C264.521 125.68 277.291 131.07 277.291 131.07C283.511 134.394 290.429 136.2 297.481 136.34C304.209 136.531 310.884 135.097 316.941 132.16C323.598 128.931 329.447 124.254 334.061 118.47C337.151 114.89 341.701 106.16 341.701 106.16C346.72 96.1687 350.656 85.6689 353.441 74.84C355.233 68.0936 356.668 61.2575 357.741 54.36C358.281 50.94 358.791 47.49 359.201 44.05C359.712 40.7831 359.61 37.4496 358.901 34.22C358.752 33.6394 358.569 33.0683 358.351 32.51C356.747 28.4553 353.766 25.0954 349.931 23.02C347.081 21.4772 343.891 20.6727 340.651 20.68V20.68Z" fill="url(#paint28_radial)"/>
<path d="M340.651 20.68C339.062 20.6764 337.479 20.8747 335.941 21.27C339.445 26.3374 342.424 31.7487 344.831 37.42C345.921 39.8617 346.483 42.506 346.481 45.18C346.477 47.6575 345.985 50.1101 345.033 52.3974C344.081 54.6848 342.687 56.7621 340.932 58.5108C339.177 60.2594 337.094 61.6451 334.804 62.5887C332.513 63.5323 330.058 64.0152 327.581 64.01C324.233 64.0036 320.947 63.1062 318.061 61.41L316.121 68.57C312.601 80.35 310.121 84.9 310.121 84.9C308.757 88.0888 307.131 91.1592 305.261 94.08C303.971 96 302.321 97.92 300.061 98.65C299.274 98.9208 298.434 98.9996 297.611 98.88C296.719 98.7755 295.858 98.4896 295.081 98.04C293.595 96.9186 292.412 95.4441 291.641 93.75C290.685 91.8759 289.827 89.9533 289.071 87.99C287.391 83.93 284.821 73.93 284.821 73.93L282.151 63.45L279.481 52.91L277.581 45.97C272.581 27.97 265.661 19.04 265.661 19.04C260.214 11.2877 252.506 5.4065 243.591 2.19996C233.261 -1.50004 222.411 0.579959 222.411 0.579959C205.411 3.92996 196.481 15.58 192.551 21.2C194.351 21.6652 196.073 22.3931 197.661 23.36C199.786 24.637 201.624 26.3392 203.061 28.36C205.621 32 206.191 36.53 206.711 40.85C207.779 50.2237 209.626 59.4923 212.231 68.56C217.991 49.46 224.901 40.56 224.901 40.56C225.673 39.5976 226.598 38.7697 227.641 38.11C228.183 37.777 228.79 37.5623 229.421 37.48C230.591 37.3759 231.763 37.6644 232.751 38.3C232.929 38.4187 233.099 38.549 233.261 38.69C234.163 39.4954 234.939 40.4327 235.561 41.47C236.999 44.0414 238.246 46.7153 239.291 49.47C241.451 55.56 243.291 62.99 243.291 62.99L248.791 84.66C252.791 99.41 256.181 106.57 256.181 106.57C264.521 125.68 277.291 131.07 277.291 131.07C283.511 134.394 290.429 136.2 297.481 136.34C304.209 136.531 310.884 135.097 316.941 132.16C323.598 128.931 329.447 124.254 334.061 118.47C337.151 114.89 341.701 106.16 341.701 106.16C346.72 96.1687 350.656 85.6689 353.441 74.84C355.233 68.0936 356.668 61.2575 357.741 54.36C358.281 50.94 358.791 47.49 359.201 44.05C359.712 40.7831 359.61 37.4496 358.901 34.22C358.752 33.6394 358.569 33.0683 358.351 32.51C356.747 28.4553 353.766 25.0954 349.931 23.02C347.081 21.4772 343.891 20.6727 340.651 20.68V20.68Z" fill="url(#paint29_radial)"/>
<path d="M340.651 20.68C339.062 20.6764 337.479 20.8747 335.941 21.27C339.445 26.3374 342.424 31.7487 344.831 37.42C345.921 39.8617 346.483 42.506 346.481 45.18C346.477 47.6575 345.985 50.1101 345.033 52.3974C344.081 54.6848 342.687 56.7621 340.932 58.5108C339.177 60.2594 337.094 61.6451 334.804 62.5887C332.513 63.5323 330.058 64.0152 327.581 64.01C324.233 64.0036 320.947 63.1062 318.061 61.41L316.121 68.57C312.601 80.35 310.121 84.9 310.121 84.9C308.757 88.0888 307.131 91.1592 305.261 94.08C303.971 96 302.321 97.92 300.061 98.65C299.274 98.9208 298.434 98.9996 297.611 98.88C296.719 98.7755 295.858 98.4896 295.081 98.04C293.595 96.9186 292.412 95.4441 291.641 93.75C290.685 91.8759 289.827 89.9533 289.071 87.99C287.391 83.93 284.821 73.93 284.821 73.93L282.151 63.45L279.481 52.91L277.581 45.97C272.581 27.97 265.661 19.04 265.661 19.04C260.214 11.2877 252.506 5.4065 243.591 2.19996C233.261 -1.50004 222.411 0.579959 222.411 0.579959C205.411 3.92996 196.481 15.58 192.551 21.2C194.351 21.6652 196.073 22.3931 197.661 23.36C199.786 24.637 201.624 26.3392 203.061 28.36C205.621 32 206.191 36.53 206.711 40.85C207.779 50.2237 209.626 59.4923 212.231 68.56C217.991 49.46 224.901 40.56 224.901 40.56C225.673 39.5976 226.598 38.7697 227.641 38.11C228.183 37.777 228.79 37.5623 229.421 37.48C230.591 37.3759 231.763 37.6644 232.751 38.3C232.929 38.4187 233.099 38.549 233.261 38.69C234.163 39.4954 234.939 40.4327 235.561 41.47C236.999 44.0414 238.246 46.7153 239.291 49.47C241.451 55.56 243.291 62.99 243.291 62.99L248.791 84.66C252.791 99.41 256.181 106.57 256.181 106.57C264.521 125.68 277.291 131.07 277.291 131.07C283.511 134.394 290.429 136.2 297.481 136.34C304.209 136.531 310.884 135.097 316.941 132.16C323.598 128.931 329.447 124.254 334.061 118.47C337.151 114.89 341.701 106.16 341.701 106.16C346.72 96.1687 350.656 85.6689 353.441 74.84C355.233 68.0936 356.668 61.2575 357.741 54.36C358.281 50.94 358.791 47.49 359.201 44.05C359.712 40.7831 359.61 37.4496 358.901 34.22C358.752 33.6394 358.569 33.0683 358.351 32.51C356.747 28.4553 353.766 25.0954 349.931 23.02C347.081 21.4772 343.891 20.6727 340.651 20.68V20.68Z" fill="url(#paint30_radial)"/>
<path d="M340.651 20.68C339.062 20.6764 337.479 20.8747 335.941 21.27C339.445 26.3374 342.424 31.7487 344.831 37.42C345.921 39.8617 346.483 42.506 346.481 45.18C346.477 47.6575 345.985 50.1101 345.033 52.3974C344.081 54.6848 342.687 56.7621 340.932 58.5108C339.177 60.2594 337.094 61.6451 334.804 62.5887C332.513 63.5323 330.058 64.0152 327.581 64.01C324.233 64.0036 320.947 63.1062 318.061 61.41L316.121 68.57C312.601 80.35 310.121 84.9 310.121 84.9C308.757 88.0888 307.131 91.1592 305.261 94.08C303.971 96 302.321 97.92 300.061 98.65C299.274 98.9208 298.434 98.9996 297.611 98.88C296.719 98.7755 295.858 98.4896 295.081 98.04C293.595 96.9186 292.412 95.4441 291.641 93.75C290.685 91.8759 289.827 89.9533 289.071 87.99C287.391 83.93 284.821 73.93 284.821 73.93L282.151 63.45L279.481 52.91L277.581 45.97C272.581 27.97 265.661 19.04 265.661 19.04C260.214 11.2877 252.506 5.4065 243.591 2.19996C233.261 -1.50004 222.411 0.579959 222.411 0.579959C205.411 3.92996 196.481 15.58 192.551 21.2C194.351 21.6652 196.073 22.3931 197.661 23.36C199.786 24.637 201.624 26.3392 203.061 28.36C205.621 32 206.191 36.53 206.711 40.85C207.779 50.2237 209.626 59.4923 212.231 68.56C217.991 49.46 224.901 40.56 224.901 40.56C225.673 39.5976 226.598 38.7697 227.641 38.11C228.183 37.777 228.79 37.5623 229.421 37.48C230.591 37.3759 231.763 37.6644 232.751 38.3C232.929 38.4187 233.099 38.549 233.261 38.69C234.163 39.4954 234.939 40.4327 235.561 41.47C236.999 44.0414 238.246 46.7153 239.291 49.47C241.451 55.56 243.291 62.99 243.291 62.99L248.791 84.66C252.791 99.41 256.181 106.57 256.181 106.57C264.521 125.68 277.291 131.07 277.291 131.07C283.511 134.394 290.429 136.2 297.481 136.34C304.209 136.531 310.884 135.097 316.941 132.16C323.598 128.931 329.447 124.254 334.061 118.47C337.151 114.89 341.701 106.16 341.701 106.16C346.72 96.1687 350.656 85.6689 353.441 74.84C355.233 68.0936 356.668 61.2575 357.741 54.36C358.281 50.94 358.791 47.49 359.201 44.05C359.712 40.7831 359.61 37.4496 358.901 34.22C358.752 33.6394 358.569 33.0683 358.351 32.51C356.747 28.4553 353.766 25.0954 349.931 23.02C347.081 21.4772 343.891 20.6727 340.651 20.68V20.68Z" fill="url(#paint31_radial)"/>
<path d="M340.651 20.68C339.062 20.6764 337.479 20.8747 335.941 21.27C339.445 26.3374 342.424 31.7487 344.831 37.42C345.921 39.8617 346.483 42.506 346.481 45.18C346.477 47.6575 345.985 50.1101 345.033 52.3974C344.081 54.6848 342.687 56.7621 340.932 58.5108C339.177 60.2594 337.094 61.6451 334.804 62.5887C332.513 63.5323 330.058 64.0152 327.581 64.01C324.233 64.0036 320.947 63.1062 318.061 61.41L316.121 68.57C312.601 80.35 310.121 84.9 310.121 84.9C308.757 88.0888 307.131 91.1592 305.261 94.08C303.971 96 302.321 97.92 300.061 98.65C299.274 98.9208 298.434 98.9996 297.611 98.88C296.719 98.7755 295.858 98.4896 295.081 98.04C293.595 96.9186 292.412 95.4441 291.641 93.75C290.685 91.8759 289.827 89.9533 289.071 87.99C287.391 83.93 284.821 73.93 284.821 73.93L282.151 63.45L279.481 52.91L277.581 45.97C272.581 27.97 265.661 19.04 265.661 19.04C260.214 11.2877 252.506 5.4065 243.591 2.19996C233.261 -1.50004 222.411 0.579959 222.411 0.579959C205.411 3.92996 196.481 15.58 192.551 21.2C194.351 21.6652 196.073 22.3931 197.661 23.36C199.786 24.637 201.624 26.3392 203.061 28.36C205.621 32 206.191 36.53 206.711 40.85C207.779 50.2237 209.626 59.4923 212.231 68.56C217.991 49.46 224.901 40.56 224.901 40.56C225.673 39.5976 226.598 38.7697 227.641 38.11C228.183 37.777 228.79 37.5623 229.421 37.48C230.591 37.3759 231.763 37.6644 232.751 38.3C232.929 38.4187 233.099 38.549 233.261 38.69C234.163 39.4954 234.939 40.4327 235.561 41.47C236.999 44.0414 238.246 46.7153 239.291 49.47C241.451 55.56 243.291 62.99 243.291 62.99L248.791 84.66C252.791 99.41 256.181 106.57 256.181 106.57C264.521 125.68 277.291 131.07 277.291 131.07C283.511 134.394 290.429 136.2 297.481 136.34C304.209 136.531 310.884 135.097 316.941 132.16C323.598 128.931 329.447 124.254 334.061 118.47C337.151 114.89 341.701 106.16 341.701 106.16C346.72 96.1687 350.656 85.6689 353.441 74.84C355.233 68.0936 356.668 61.2575 357.741 54.36C358.281 50.94 358.791 47.49 359.201 44.05C359.712 40.7831 359.61 37.4496 358.901 34.22C358.752 33.6394 358.569 33.0683 358.351 32.51C356.747 28.4553 353.766 25.0954 349.931 23.02C347.081 21.4772 343.891 20.6727 340.651 20.68V20.68Z" fill="url(#paint32_radial)"/>
<path d="M340.651 20.68C339.062 20.6764 337.479 20.8747 335.941 21.27C339.445 26.3374 342.424 31.7487 344.831 37.42C345.921 39.8617 346.483 42.506 346.481 45.18C346.477 47.6575 345.985 50.1101 345.033 52.3974C344.081 54.6848 342.687 56.7621 340.932 58.5108C339.177 60.2594 337.094 61.6451 334.804 62.5887C332.513 63.5323 330.058 64.0152 327.581 64.01C324.233 64.0036 320.947 63.1062 318.061 61.41L316.121 68.57C312.601 80.35 310.121 84.9 310.121 84.9C308.757 88.0888 307.131 91.1592 305.261 94.08C303.971 96 302.321 97.92 300.061 98.65C299.274 98.9208 298.434 98.9996 297.611 98.88C296.719 98.7755 295.858 98.4896 295.081 98.04C293.595 96.9186 292.412 95.4441 291.641 93.75C290.685 91.8759 289.827 89.9533 289.071 87.99C287.391 83.93 284.821 73.93 284.821 73.93L282.151 63.45L279.481 52.91L277.581 45.97C272.581 27.97 265.661 19.04 265.661 19.04C260.214 11.2877 252.506 5.4065 243.591 2.19996C233.261 -1.50004 222.411 0.579959 222.411 0.579959C205.411 3.92996 196.481 15.58 192.551 21.2C194.351 21.6652 196.073 22.3931 197.661 23.36C199.786 24.637 201.624 26.3392 203.061 28.36C205.621 32 206.191 36.53 206.711 40.85C207.779 50.2237 209.626 59.4923 212.231 68.56C217.991 49.46 224.901 40.56 224.901 40.56C225.673 39.5976 226.598 38.7697 227.641 38.11C228.183 37.777 228.79 37.5623 229.421 37.48C230.591 37.3759 231.763 37.6644 232.751 38.3C232.929 38.4187 233.099 38.549 233.261 38.69C234.163 39.4954 234.939 40.4327 235.561 41.47C236.999 44.0414 238.246 46.7153 239.291 49.47C241.451 55.56 243.291 62.99 243.291 62.99L248.791 84.66C252.791 99.41 256.181 106.57 256.181 106.57C264.521 125.68 277.291 131.07 277.291 131.07C283.511 134.394 290.429 136.2 297.481 136.34C304.209 136.531 310.884 135.097 316.941 132.16C323.598 128.931 329.447 124.254 334.061 118.47C337.151 114.89 341.701 106.16 341.701 106.16C346.72 96.1687 350.656 85.6689 353.441 74.84C355.233 68.0936 356.668 61.2575 357.741 54.36C358.281 50.94 358.791 47.49 359.201 44.05C359.712 40.7831 359.61 37.4496 358.901 34.22C358.752 33.6394 358.569 33.0683 358.351 32.51C356.747 28.4553 353.766 25.0954 349.931 23.02C347.081 21.4772 343.891 20.6727 340.651 20.68V20.68Z" fill="url(#paint33_radial)"/>
<path d="M340.651 20.68C339.062 20.6764 337.479 20.8747 335.941 21.27C339.445 26.3374 342.424 31.7487 344.831 37.42C345.921 39.8617 346.483 42.506 346.481 45.18C346.477 47.6575 345.985 50.1101 345.033 52.3974C344.081 54.6848 342.687 56.7621 340.932 58.5108C339.177 60.2594 337.094 61.6451 334.804 62.5887C332.513 63.5323 330.058 64.0152 327.581 64.01C324.233 64.0036 320.947 63.1062 318.061 61.41L316.121 68.57C312.601 80.35 310.121 84.9 310.121 84.9C308.757 88.0888 307.131 91.1592 305.261 94.08C303.971 96 302.321 97.92 300.061 98.65C299.274 98.9208 298.434 98.9996 297.611 98.88C296.719 98.7755 295.858 98.4896 295.081 98.04C293.595 96.9186 292.412 95.4441 291.641 93.75C290.685 91.8759 289.827 89.9533 289.071 87.99C287.391 83.93 284.821 73.93 284.821 73.93L282.151 63.45L279.481 52.91L277.581 45.97C272.581 27.97 265.661 19.04 265.661 19.04C260.214 11.2877 252.506 5.4065 243.591 2.19996C233.261 -1.50004 222.411 0.579959 222.411 0.579959C205.411 3.92996 196.481 15.58 192.551 21.2C194.351 21.6652 196.073 22.3931 197.661 23.36C199.786 24.637 201.624 26.3392 203.061 28.36C205.621 32 206.191 36.53 206.711 40.85C207.779 50.2237 209.626 59.4923 212.231 68.56C217.991 49.46 224.901 40.56 224.901 40.56C225.673 39.5976 226.598 38.7697 227.641 38.11C228.183 37.777 228.79 37.5623 229.421 37.48C230.591 37.3759 231.763 37.6644 232.751 38.3C232.929 38.4187 233.099 38.549 233.261 38.69C234.163 39.4954 234.939 40.4327 235.561 41.47C236.999 44.0414 238.246 46.7153 239.291 49.47C241.451 55.56 243.291 62.99 243.291 62.99L248.791 84.66C252.791 99.41 256.181 106.57 256.181 106.57C264.521 125.68 277.291 131.07 277.291 131.07C283.511 134.394 290.429 136.2 297.481 136.34C304.209 136.531 310.884 135.097 316.941 132.16C323.598 128.931 329.447 124.254 334.061 118.47C337.151 114.89 341.701 106.16 341.701 106.16C346.72 96.1687 350.656 85.6689 353.441 74.84C355.233 68.0936 356.668 61.2575 357.741 54.36C358.281 50.94 358.791 47.49 359.201 44.05C359.712 40.7831 359.61 37.4496 358.901 34.22C358.752 33.6394 358.569 33.0683 358.351 32.51C356.747 28.4553 353.766 25.0954 349.931 23.02C347.081 21.4772 343.891 20.6727 340.651 20.68V20.68Z" fill="url(#paint34_linear)"/>
</g>
<defs>
<linearGradient id="paint0_linear" x1="177.412" y1="92.1299" x2="325.652" y2="32.1999" gradientUnits="userSpaceOnUse">
<stop offset="0.13" stop-color="#1CBBF3"/>
<stop offset="0.34" stop-color="#1F99A5"/>
<stop offset="0.45" stop-color="#209CA6"/>
<stop offset="0.51" stop-color="#24A4AA"/>
<stop offset="0.57" stop-color="#2BB3B0"/>
<stop offset="0.6" stop-color="#30BDB4"/>
<stop offset="0.79" stop-color="#38BA90"/>
<stop offset="1" stop-color="#60F05A"/>
</linearGradient>
<radialGradient id="paint1_radial" cx="0" cy="0" r="1" gradientUnits="userSpaceOnUse" gradientTransform="translate(277.393 56.5288) rotate(74.32) scale(70.85 53.846)">
<stop stop-color="#227B60"/>
<stop offset="0.14" stop-color="#227B60" stop-opacity="0.81"/>
<stop offset="0.58" stop-color="#227B60" stop-opacity="0.23"/>
<stop offset="0.78" stop-color="#227B60" stop-opacity="0"/>
</radialGradient>
<radialGradient id="paint2_radial" cx="0" cy="0" r="1" gradientUnits="userSpaceOnUse" gradientTransform="translate(287.869 54.2281) rotate(91.1458) scale(47.9096 36.4063)">
<stop stop-color="#227B60"/>
<stop offset="0.25" stop-color="#227B60" stop-opacity="0.7"/>
<stop offset="0.71" stop-color="#227B60" stop-opacity="0.2"/>
<stop offset="0.92" stop-color="#227B60" stop-opacity="0"/>
</radialGradient>
<radialGradient id="paint3_radial" cx="0" cy="0" r="1" gradientUnits="userSpaceOnUse" gradientTransform="translate(286.275 53.73) rotate(88.6) scale(44.66 31.7086)">
<stop stop-color="#227B60"/>
<stop offset="0.07" stop-color="#227B60" stop-opacity="0.9"/>
<stop offset="0.34" stop-color="#227B60" stop-opacity="0.51"/>
<stop offset="0.59" stop-color="#227B60" stop-opacity="0.23"/>
<stop offset="0.79" stop-color="#227B60" stop-opacity="0.06"/>
<stop offset="0.92" stop-color="#227B60" stop-opacity="0"/>
</radialGradient>
<radialGradient id="paint4_radial" cx="0" cy="0" r="1" gradientUnits="userSpaceOnUse" gradientTransform="translate(287.032 51.6844) rotate(88.6) scale(36.06 25.6026)">
<stop stop-color="#227B60"/>
<stop offset="0.36" stop-color="#227B60" stop-opacity="0.63"/>
<stop offset="0.92" stop-color="#227B60" stop-opacity="0"/>
</radialGradient>
<radialGradient id="paint5_radial" cx="0" cy="0" r="1" gradientUnits="userSpaceOnUse" gradientTransform="translate(287.542 53.7275) rotate(88.6) scale(28.76 18.4064)">
<stop stop-color="#20735A"/>
<stop offset="0.15" stop-color="#20745A" stop-opacity="0.93"/>
<stop offset="0.38" stop-color="#21755C" stop-opacity="0.74"/>
<stop offset="0.67" stop-color="#21785D" stop-opacity="0.43"/>
<stop offset="1" stop-color="#227B60" stop-opacity="0"/>
</radialGradient>
<radialGradient id="paint6_radial" cx="0" cy="0" r="1" gradientUnits="userSpaceOnUse" gradientTransform="translate(291.337 56.9469) rotate(23.8) scale(46.28 34.71)">
<stop stop-color="#227A61"/>
<stop offset="0.36" stop-color="#227A61" stop-opacity="0.56"/>
<stop offset="0.72" stop-color="#227A61" stop-opacity="0.16"/>
<stop offset="0.9" stop-color="#227A61" stop-opacity="0"/>
</radialGradient>
<radialGradient id="paint7_radial" cx="0" cy="0" r="1" gradientUnits="userSpaceOnUse" gradientTransform="translate(275.059 -13.9994) rotate(35.2724) scale(61.7198 56.4337)">
<stop stop-color="#3CD9C3"/>
<stop offset="0.07" stop-color="#3BD7C1" stop-opacity="0.9"/>
<stop offset="0.41" stop-color="#38CEB9" stop-opacity="0.42"/>
<stop offset="0.65" stop-color="#36C8B4" stop-opacity="0.12"/>
<stop offset="0.76" stop-color="#35C6B2" stop-opacity="0"/>
</radialGradient>
<radialGradient id="paint8_radial" cx="0" cy="0" r="1" gradientUnits="userSpaceOnUse" gradientTransform="translate(-77303.6 -47739.2) rotate(35.2724) scale(10963.3 7691.4)">
<stop stop-color="#3CD9C3"/>
<stop offset="0.07" stop-color="#3BD7C1" stop-opacity="0.9"/>
<stop offset="0.41" stop-color="#38CEB9" stop-opacity="0.42"/>
<stop offset="0.65" stop-color="#36C8B4" stop-opacity="0.12"/>
<stop offset="0.76" stop-color="#35C6B2" stop-opacity="0"/>
</radialGradient>
<radialGradient id="paint9_radial" cx="0" cy="0" r="1" gradientUnits="userSpaceOnUse" gradientTransform="translate(299.99 68.8417) rotate(100.972) scale(54.4345 67.2661)">
<stop stop-color="#237F66" stop-opacity="0.8"/>
<stop offset="0.06" stop-color="#2C8C70" stop-opacity="0.65"/>
<stop offset="0.21" stop-color="#3DA785" stop-opacity="0.37"/>
<stop offset="0.35" stop-color="#4ABA93" stop-opacity="0.17"/>
<stop offset="0.47" stop-color="#51C59C" stop-opacity="0.04"/>
<stop offset="0.56" stop-color="#54C99F" stop-opacity="0"/>
</radialGradient>
<radialGradient id="paint10_radial" cx="0" cy="0" r="1" gradientUnits="userSpaceOnUse" gradientTransform="translate(269.619 73.1479) rotate(-50.82) scale(71.13 76.8204)">
<stop stop-color="#167C8A"/>
<stop offset="0.04" stop-color="#167C8A" stop-opacity="0.93"/>
<stop offset="0.33" stop-color="#177F8D" stop-opacity="0.43"/>
<stop offset="0.54" stop-color="#17818F" stop-opacity="0.12"/>
<stop offset="0.65" stop-color="#178290" stop-opacity="0"/>
</radialGradient>
<radialGradient id="paint11_radial" cx="0" cy="0" r="1" gradientUnits="userSpaceOnUse" gradientTransform="translate(264.17 78.6827) rotate(-31.66) scale(69.39 54.8181)">
<stop offset="0.05" stop-color="#177D87"/>
<stop offset="0.11" stop-color="#177E89" stop-opacity="0.8"/>
<stop offset="0.21" stop-color="#177F8B" stop-opacity="0.52"/>
<stop offset="0.32" stop-color="#17818D" stop-opacity="0.29"/>
<stop offset="0.42" stop-color="#17818F" stop-opacity="0.13"/>
<stop offset="0.51" stop-color="#178290" stop-opacity="0.03"/>
<stop offset="0.6" stop-color="#178290" stop-opacity="0"/>
</radialGradient>
<radialGradient id="paint12_radial" cx="0" cy="0" r="1" gradientUnits="userSpaceOnUse" gradientTransform="translate(249.2 80.1396) rotate(-130.539) scale(41.3421 32.5536)">
<stop offset="0.26" stop-color="#177F8A"/>
<stop offset="0.27" stop-color="#177F8A" stop-opacity="0.98"/>
<stop offset="0.38" stop-color="#17808C" stop-opacity="0.68"/>
<stop offset="0.5" stop-color="#17818D" stop-opacity="0.43"/>
<stop offset="0.62" stop-color="#17818F" stop-opacity="0.24"/>
<stop offset="0.74" stop-color="#17828F" stop-opacity="0.11"/>
<stop offset="0.86" stop-color="#178290" stop-opacity="0.03"/>
<stop offset="1" stop-color="#178290" stop-opacity="0"/>
</radialGradient>
<radialGradient id="paint13_radial" cx="0" cy="0" r="1" gradientUnits="userSpaceOnUse" gradientTransform="translate(240.147 93.4663) rotate(-173.11) scale(38.78)">
<stop stop-color="#13656E"/>
<stop offset="0.11" stop-color="#13646E" stop-opacity="0.73"/>
<stop offset="0.27" stop-color="#12646E" stop-opacity="0.41"/>
<stop offset="0.42" stop-color="#12636E" stop-opacity="0.18"/>
<stop offset="0.55" stop-color="#12636E" stop-opacity="0.05"/>
<stop offset="0.66" stop-color="#12636E" stop-opacity="0"/>
</radialGradient>
<radialGradient id="paint14_radial" cx="0" cy="0" r="1" gradientUnits="userSpaceOnUse" gradientTransform="translate(240.252 96.702) rotate(-119.32) scale(27.12 22.7808)">
<stop offset="0.13" stop-color="#146A73"/>
<stop offset="0.24" stop-color="#156F79" stop-opacity="0.79"/>
<stop offset="0.45" stop-color="#167783" stop-opacity="0.45"/>
<stop offset="0.65" stop-color="#167D8A" stop-opacity="0.2"/>
<stop offset="0.82" stop-color="#17818E" stop-opacity="0.05"/>
<stop offset="0.95" stop-color="#178290" stop-opacity="0"/>
</radialGradient>
<radialGradient id="paint15_radial" cx="0" cy="0" r="1" gradientUnits="userSpaceOnUse" gradientTransform="translate(237.189 85.9169) rotate(-55.9925) scale(25.5118 20.211)">
<stop stop-color="#198E9C"/>
<stop offset="0.1" stop-color="#198E9C" stop-opacity="0.87"/>
<stop offset="0.41" stop-color="#198E9C" stop-opacity="0.5"/>
<stop offset="0.67" stop-color="#198E9C" stop-opacity="0.23"/>
<stop offset="0.88" stop-color="#198E9C" stop-opacity="0.06"/>
<stop offset="1" stop-color="#198E9C" stop-opacity="0"/>
</radialGradient>
<linearGradient id="paint16_linear" x1="186.962" y1="-3.10008" x2="252.362" y2="57.4199" gradientUnits="userSpaceOnUse">
<stop offset="0.13" stop-color="#2BF9FF"/>
<stop offset="0.27" stop-color="#29F9FF" stop-opacity="0.64"/>
<stop offset="0.4" stop-color="#27FAFF" stop-opacity="0.3"/>
<stop offset="0.49" stop-color="#26FAFF" stop-opacity="0.08"/>
<stop offset="0.54" stop-color="#26FAFF" stop-opacity="0"/>
</linearGradient>
<linearGradient id="paint17_linear" x1="149.922" y1="95.6799" x2="226.322" y2="74.0099" gradientUnits="userSpaceOnUse">
<stop stop-color="#26FAFF"/>
<stop offset="0.06" stop-color="#26FAFF" stop-opacity="0.88"/>
<stop offset="0.24" stop-color="#26FAFF" stop-opacity="0.51"/>
<stop offset="0.39" stop-color="#26FAFF" stop-opacity="0.23"/>
<stop offset="0.5" stop-color="#26FAFF" stop-opacity="0.06"/>
<stop offset="0.55" stop-color="#26FAFF" stop-opacity="0"/>
</linearGradient>
<linearGradient id="paint18_linear" x1="170.162" y1="93.0099" x2="256.272" y2="62.3199" gradientUnits="userSpaceOnUse">
<stop stop-color="#21DEFF"/>
<stop offset="0.04" stop-color="#21DEFF" stop-opacity="0.88"/>
<stop offset="0.17" stop-color="#21DEFF" stop-opacity="0.51"/>
<stop offset="0.27" stop-color="#21DEFF" stop-opacity="0.23"/>
<stop offset="0.34" stop-color="#21DEFF" stop-opacity="0.06"/>
<stop offset="0.38" stop-color="#21DEFF" stop-opacity="0"/>
</linearGradient>
<linearGradient id="paint19_linear" x1="251.982" y1="48.5899" x2="300.142" y2="127.15" gradientUnits="userSpaceOnUse">
<stop offset="0.62" stop-color="#21DEFF" stop-opacity="0"/>
<stop offset="0.66" stop-color="#21DEFF" stop-opacity="0.06"/>
<stop offset="0.73" stop-color="#21DEFF" stop-opacity="0.23"/>
<stop offset="0.83" stop-color="#21DEFF" stop-opacity="0.51"/>
<stop offset="0.96" stop-color="#21DEFF" stop-opacity="0.88"/>
<stop offset="1" stop-color="#21DEFF"/>
</linearGradient>
<linearGradient id="paint20_linear" x1="305.571" y1="77.9399" x2="298.001" y2="40.9899" gradientUnits="userSpaceOnUse">
<stop stop-color="#44B044"/>
<stop offset="0.11" stop-color="#44B044" stop-opacity="0.8"/>
<stop offset="0.27" stop-color="#44B044" stop-opacity="0.52"/>
<stop offset="0.43" stop-color="#44B044" stop-opacity="0.29"/>
<stop offset="0.58" stop-color="#44B044" stop-opacity="0.13"/>
<stop offset="0.7" stop-color="#44B044" stop-opacity="0.03"/>
<stop offset="0.8" stop-color="#44B044" stop-opacity="0"/>
</linearGradient>
<linearGradient id="paint21_linear" x1="199.891" y1="39.64" x2="359.321" y2="92.42" gradientUnits="userSpaceOnUse">
<stop stop-color="#3066FB"/>
<stop offset="0.38" stop-color="#2F64F7"/>
<stop offset="0.74" stop-color="#2857D9"/>
<stop offset="1" stop-color="#3C7EFF"/>
</linearGradient>
<radialGradient id="paint22_radial" cx="0" cy="0" r="1" gradientUnits="userSpaceOnUse" gradientTransform="translate(311.704 63.5966) rotate(98.69) scale(85.26 56.2716)">
<stop stop-color="#1A3D9C"/>
<stop offset="0.4" stop-color="#1A3D9C" stop-opacity="0.42"/>
<stop offset="0.7" stop-color="#1A3D9C" stop-opacity="0"/>
</radialGradient>
<radialGradient id="paint23_radial" cx="0" cy="0" r="1" gradientUnits="userSpaceOnUse" gradientTransform="translate(-356.06 -74538.3) rotate(98.69) scale(10490.7 5654.53)">
<stop stop-color="#1A3D9C"/>
<stop offset="0.4" stop-color="#1A3D9C" stop-opacity="0.42"/>
<stop offset="0.7" stop-color="#1A3D9C" stop-opacity="0"/>
</radialGradient>
<radialGradient id="paint24_radial" cx="0" cy="0" r="1" gradientUnits="userSpaceOnUse" gradientTransform="translate(3281.4 -75237.6) rotate(98.6156) scale(12493.9 5159.7)">
<stop stop-color="#1A3D9C"/>
<stop offset="0.4" stop-color="#1A3D9C" stop-opacity="0.42"/>
<stop offset="0.7" stop-color="#1A3D9C" stop-opacity="0"/>
</radialGradient>
<radialGradient id="paint25_radial" cx="0" cy="0" r="1" gradientUnits="userSpaceOnUse" gradientTransform="translate(301.682 61.6822) rotate(83.0888) scale(74.5242 51.9983)">
<stop stop-color="#1A3D9C"/>
<stop offset="0.16" stop-color="#1A3D9C" stop-opacity="0.69"/>
<stop offset="0.33" stop-color="#1A3D9C" stop-opacity="0.4"/>
<stop offset="0.49" stop-color="#1A3D9C" stop-opacity="0.18"/>
<stop offset="0.61" stop-color="#1A3D9C" stop-opacity="0.05"/>
<stop offset="0.7" stop-color="#1A3D9C" stop-opacity="0"/>
</radialGradient>
<radialGradient id="paint26_radial" cx="0" cy="0" r="1" gradientUnits="userSpaceOnUse" gradientTransform="translate(314.457 72.1652) rotate(74.64) scale(71.62 48.7016)">
<stop stop-color="#18388F"/>
<stop offset="0.37" stop-color="#193B96" stop-opacity="0.45"/>
<stop offset="0.7" stop-color="#1A3D9C" stop-opacity="0"/>
</radialGradient>
<radialGradient id="paint27_radial" cx="0" cy="0" r="1" gradientUnits="userSpaceOnUse" gradientTransform="translate(307.782 91.1347) rotate(74.64) scale(33.3 31.635)">
<stop stop-color="#18388F"/>
<stop offset="0.09" stop-color="#183992" stop-opacity="0.78"/>
<stop offset="0.22" stop-color="#193B96" stop-opacity="0.5"/>
<stop offset="0.35" stop-color="#193C98" stop-opacity="0.28"/>
<stop offset="0.47" stop-color="#1A3C9A" stop-opacity="0.13"/>
<stop offset="0.59" stop-color="#1A3D9C" stop-opacity="0.03"/>
<stop offset="0.7" stop-color="#1A3D9C" stop-opacity="0"/>
</radialGradient>
<radialGradient id="paint28_radial" cx="0" cy="0" r="1" gradientUnits="userSpaceOnUse" gradientTransform="translate(308.58 96.8254) rotate(74.64) scale(33.3 31.635)">
<stop stop-color="#1A3D9C" stop-opacity="0.8"/>
<stop offset="0.01" stop-color="#1A3D9C" stop-opacity="0.78"/>
<stop offset="0.24" stop-color="#1A3D9C" stop-opacity="0.45"/>
<stop offset="0.44" stop-color="#1A3D9C" stop-opacity="0.2"/>
<stop offset="0.6" stop-color="#1A3D9C" stop-opacity="0.05"/>
<stop offset="0.7" stop-color="#1A3D9C" stop-opacity="0"/>
</radialGradient>
<radialGradient id="paint29_radial" cx="0" cy="0" r="1" gradientUnits="userSpaceOnUse" gradientTransform="translate(222.919 77.0612) rotate(67.0273) scale(79.4703 52.7361)">
<stop stop-color="#1A3D9C"/>
<stop offset="0.4" stop-color="#1A3D9C" stop-opacity="0.56"/>
<stop offset="0.48" stop-color="#1A3D9C" stop-opacity="0.43"/>
<stop offset="0.69" stop-color="#1A3D9C" stop-opacity="0.12"/>
<stop offset="0.79" stop-color="#1A3D9C" stop-opacity="0"/>
</radialGradient>
<radialGradient id="paint30_radial" cx="0" cy="0" r="1" gradientUnits="userSpaceOnUse" gradientTransform="translate(219.439 58.2243) rotate(76.1028) scale(58.9457 38.9154)">
<stop stop-color="#1A3D9C"/>
<stop offset="0.06" stop-color="#1A3D9C" stop-opacity="0.88"/>
<stop offset="0.21" stop-color="#1A3D9C" stop-opacity="0.61"/>
<stop offset="0.36" stop-color="#1A3D9C" stop-opacity="0.39"/>
<stop offset="0.51" stop-color="#1A3D9C" stop-opacity="0.22"/>
<stop offset="0.67" stop-color="#1A3D9C" stop-opacity="0.1"/>
<stop offset="0.83" stop-color="#1A3D9C" stop-opacity="0.02"/>
<stop offset="1" stop-color="#1A3D9C" stop-opacity="0"/>
</radialGradient>
<radialGradient id="paint31_radial" cx="0" cy="0" r="1" gradientUnits="userSpaceOnUse" gradientTransform="translate(219.439 58.2243) rotate(76.1028) scale(58.9457 38.9154)">
<stop stop-color="#1B3E9E"/>
<stop offset="0.06" stop-color="#1B3E9E" stop-opacity="0.87"/>
<stop offset="0.21" stop-color="#1B3E9D" stop-opacity="0.61"/>
<stop offset="0.36" stop-color="#1A3D9D" stop-opacity="0.39"/>
<stop offset="0.52" stop-color="#1A3D9C" stop-opacity="0.22"/>
<stop offset="0.67" stop-color="#1A3D9C" stop-opacity="0.1"/>
<stop offset="0.83" stop-color="#1A3D9C" stop-opacity="0.02"/>
<stop offset="1" stop-color="#1A3D9C" stop-opacity="0"/>
</radialGradient>
<radialGradient id="paint32_radial" cx="0" cy="0" r="1" gradientUnits="userSpaceOnUse" gradientTransform="translate(221.674 52.4674) rotate(76.1028) scale(45.0961 29.772)">
<stop stop-color="#183991"/>
<stop offset="0.03" stop-color="#183992" stop-opacity="0.95"/>
<stop offset="0.18" stop-color="#193A95" stop-opacity="0.66"/>
<stop offset="0.34" stop-color="#193B97" stop-opacity="0.42"/>
<stop offset="0.5" stop-color="#1A3C99" stop-opacity="0.24"/>
<stop offset="0.66" stop-color="#1A3D9B" stop-opacity="0.1"/>
<stop offset="0.82" stop-color="#1A3D9C" stop-opacity="0.03"/>
<stop offset="1" stop-color="#1A3D9C" stop-opacity="0"/>
</radialGradient>
<radialGradient id="paint33_radial" cx="0" cy="0" r="1" gradientUnits="userSpaceOnUse" gradientTransform="translate(232.501 59.1585) rotate(87.1376) scale(35.6345 31.369)">
<stop offset="0.04" stop-color="#2453D6" stop-opacity="0.6"/>
<stop offset="0.2" stop-color="#2453D6" stop-opacity="0.49"/>
<stop offset="0.52" stop-color="#2453D6" stop-opacity="0.2"/>
<stop offset="0.73" stop-color="#2453D6" stop-opacity="0"/>
</radialGradient>
<linearGradient id="paint34_linear" x1="303.481" y1="-25.45" x2="263.211" y2="74.09" gradientUnits="userSpaceOnUse">
<stop stop-color="#3774FF"/>
<stop offset="0.05" stop-color="#3774FF" stop-opacity="0.91"/>
<stop offset="0.16" stop-color="#3774FF" stop-opacity="0.66"/>
<stop offset="0.32" stop-color="#3774FF" stop-opacity="0.28"/>
<stop offset="0.43" stop-color="#3774FF" stop-opacity="0"/>
</linearGradient>
<clipPath id="clip0">
<rect width="528.33" height="386.34" fill="white"/>
</clipPath>
</defs>
</svg>
