<svg width="763" height="210" viewBox="0 0 763 210" fill="none" xmlns="http://www.w3.org/2000/svg">
<g clip-path="url(#clip0)">
<path d="M362.561 37.95H382.761L353.391 126.7H330.191L308.191 59.7L286.191 126.7H263.401L234.191 37.95H254.851L275.691 105.39L297.561 37.95H319.511L341.651 105.76L362.561 37.95Z" fill="black"/>
<path d="M469.362 89.46H403.862C404.469 94.0343 406.186 98.3907 408.862 102.15C411.244 105.433 414.457 108.021 418.172 109.65C421.959 111.283 426.047 112.104 430.172 112.06C434.744 112.036 439.277 111.207 443.562 109.61C448.004 107.992 452.152 105.658 455.842 102.7L465.472 116.51C460.565 120.797 454.849 124.058 448.662 126.1C442.29 128.092 435.647 129.074 428.972 129.01C420.758 129.164 412.646 127.168 405.442 123.22C398.624 119.411 393.045 113.722 389.372 106.83C385.505 99.7633 383.572 91.5934 383.572 82.32C383.412 73.8741 385.343 65.5198 389.192 58C392.735 51.1489 398.143 45.4392 404.792 41.53C411.784 37.5235 419.734 35.4911 427.792 35.65C435.465 35.5096 443.021 37.5485 449.582 41.53C455.966 45.5191 461.103 51.2181 464.412 57.98C468.076 65.5366 469.899 73.8535 469.732 82.25C469.732 84.09 469.608 86.4933 469.362 89.46ZM449.912 74.73C448.858 67.81 446.372 62.4367 442.452 58.61C438.532 54.7833 433.532 52.8667 427.452 52.86C420.845 52.86 415.548 54.82 411.562 58.74C407.575 62.66 405.025 67.9933 403.912 74.74L449.912 74.73Z" fill="black"/>
<path d="M552.192 41.6499C558.936 45.6602 564.465 51.4249 568.192 58.3299C572.178 65.693 574.203 73.9579 574.072 82.3299C574.202 90.7018 572.177 98.9665 568.192 106.33C564.468 113.234 558.937 118.996 552.192 123C545.395 127.018 537.626 129.094 529.732 129C524.21 129.112 518.736 127.956 513.732 125.62C509.135 123.396 505.109 120.15 501.962 116.13V126.69H482.602V0.159912H501.962V48.5299C505.109 44.5066 509.135 41.257 513.732 39.0299C518.738 36.6989 524.21 35.5428 529.732 35.6499C537.626 35.5606 545.394 37.6357 552.192 41.6499V41.6499ZM541.582 106.97C545.61 104.492 548.855 100.924 550.942 96.6799C553.138 92.215 554.251 87.2954 554.192 82.3199C554.253 77.3453 553.143 72.426 550.952 67.9599C548.866 63.7172 545.621 60.1527 541.592 57.6799C537.324 55.0948 532.41 53.7769 527.422 53.8799C522.519 53.7873 517.689 55.0727 513.482 57.5899C509.445 60.0416 506.173 63.5705 504.032 67.7799C501.733 72.2774 500.573 77.2698 500.652 82.3199C500.571 87.3734 501.732 92.3693 504.032 96.8699C506.176 101.077 509.448 104.605 513.482 107.06C517.69 109.574 522.52 110.856 527.422 110.76C532.419 110.872 537.345 109.557 541.622 106.97H541.582Z" fill="black"/>
<path d="M670.122 89.46H604.622C605.229 94.0342 606.946 98.3907 609.622 102.15C612.006 105.43 615.219 108.018 618.932 109.65C622.72 111.28 626.808 112.101 630.932 112.06C635.505 112.036 640.037 111.206 644.322 109.61C648.763 107.994 652.908 105.659 656.592 102.7L666.192 116.53C661.281 120.817 655.562 124.078 649.372 126.12C643.004 128.112 636.364 129.094 629.692 129.03C621.486 129.174 613.385 127.171 606.192 123.22C599.373 119.409 593.792 113.72 590.112 106.83C586.252 99.7633 584.322 91.5933 584.322 82.32C584.16 73.8749 586.087 65.5206 589.932 58C593.477 51.1439 598.893 45.4332 605.552 41.53C612.544 37.5215 620.494 35.4891 628.552 35.65C636.225 35.5101 643.781 37.549 650.342 41.53C656.734 45.507 661.879 51.2 665.192 57.96C668.86 65.5157 670.686 73.8326 670.522 82.23C670.502 84.0833 670.369 86.4933 670.122 89.46ZM650.662 74.73C649.609 67.81 647.125 62.4366 643.212 58.61C639.299 54.7833 634.292 52.8666 628.192 52.86C621.585 52.86 616.289 54.82 612.302 58.74C608.315 62.66 605.769 67.9933 604.662 74.74L650.662 74.73Z" fill="black"/>
<path d="M762.481 126.7H738.671L716.191 95.8499L693.961 126.7H671.191L704.631 81.3999L671.751 37.95H695.561L717.231 67.5899L738.911 37.95H761.801L729.001 81.2099L762.481 126.7Z" fill="black"/>
<path d="M529.192 200.19H525.262V164.42H530.032V177.93C530.986 176.532 532.282 175.402 533.795 174.646C535.309 173.89 536.991 173.533 538.682 173.61C540.338 173.531 541.988 173.854 543.492 174.551C544.996 175.247 546.31 176.297 547.322 177.61C549.142 179.997 550.052 183.16 550.052 187.1C550.052 191.767 548.812 195.343 546.332 197.83C545.282 198.869 544.031 199.683 542.655 200.221C541.279 200.759 539.808 201.011 538.332 200.96C536.691 201.044 535.057 200.705 533.586 199.974C532.115 199.244 530.856 198.147 529.932 196.79L529.192 200.19ZM545.082 186.97C545.082 183.723 544.272 181.29 542.652 179.67C541.992 179.002 541.201 178.479 540.328 178.135C539.455 177.79 538.519 177.632 537.582 177.67C536.482 177.625 535.388 177.839 534.387 178.296C533.387 178.753 532.508 179.44 531.822 180.3C530.403 182.221 529.696 184.575 529.822 186.96C529.822 190.27 530.632 192.81 532.262 194.56C532.93 195.315 533.757 195.911 534.684 196.307C535.611 196.703 536.614 196.889 537.622 196.85C538.722 196.912 539.819 196.693 540.811 196.214C541.803 195.734 542.657 195.01 543.292 194.11C544.498 192.43 545.102 190.05 545.102 186.97H545.082Z" fill="black"/>
<path d="M575.608 174.35L566.608 200.53C565.408 204.01 564.265 206.38 563.178 207.64C562.565 208.363 561.798 208.939 560.932 209.325C560.067 209.711 559.125 209.897 558.178 209.87C557.138 209.844 556.104 209.696 555.098 209.43V205.53C555.911 205.746 556.747 205.863 557.588 205.88C558.041 205.902 558.493 205.817 558.907 205.631C559.32 205.445 559.684 205.164 559.968 204.81C560.88 203.363 561.599 201.803 562.108 200.17H560.568L551.078 174.33H556.188L563.498 196.33L570.798 174.33L575.608 174.35Z" fill="black"/>
<path d="M641.191 164.46H632.191V200.31H641.191V164.46Z" fill="black"/>
<path d="M714.131 174.73C711.803 173.462 709.192 172.805 706.541 172.82C700.681 172.82 696.621 176.89 696.621 182.38C696.621 187.71 700.511 191.95 706.541 191.95C709.19 191.96 711.799 191.307 714.131 190.05V199.67C711.461 200.493 708.685 200.921 705.891 200.94C695.721 200.94 686.801 193.94 686.801 182.38C686.801 171.68 694.881 163.83 705.891 163.83C708.686 163.837 711.465 164.269 714.131 165.11V174.73Z" fill="black"/>
<path d="M619.719 174.73C617.388 173.461 614.773 172.804 612.119 172.82C606.259 172.82 602.209 176.89 602.209 182.38C602.209 187.71 606.089 191.95 612.119 191.95C614.771 191.956 617.382 191.303 619.719 190.05V199.67C617.045 200.493 614.266 200.921 611.469 200.94C601.299 200.94 592.379 193.94 592.379 182.38C592.379 171.68 600.459 163.83 611.469 163.83C614.268 163.837 617.05 164.268 619.719 165.11V174.73Z" fill="black"/>
<path d="M742.59 172.95C741.352 172.939 740.125 173.176 738.981 173.647C737.836 174.118 736.797 174.814 735.926 175.693C735.055 176.572 734.368 177.616 733.907 178.765C733.445 179.913 733.219 181.143 733.24 182.38C733.216 183.619 733.441 184.85 733.901 186C734.361 187.15 735.047 188.197 735.919 189.077C736.791 189.957 737.831 190.654 738.977 191.125C740.123 191.596 741.351 191.832 742.59 191.82C743.829 191.831 745.058 191.594 746.203 191.122C747.349 190.65 748.389 189.954 749.261 189.074C750.134 188.195 750.821 187.149 751.283 185.999C751.745 184.849 751.972 183.619 751.95 182.38C751.97 181.142 751.742 179.913 751.28 178.764C750.818 177.615 750.13 176.571 749.258 175.692C748.385 174.813 747.346 174.118 746.201 173.647C745.056 173.176 743.828 172.939 742.59 172.95V172.95ZM761.53 182.38C761.53 192.64 753.62 200.94 742.59 200.94C731.56 200.94 723.66 192.64 723.66 182.38C723.66 172.12 731.57 163.83 742.59 163.83C753.61 163.83 761.53 172.14 761.53 182.38Z" fill="black"/>
<path d="M675.499 172.61C673.192 171.976 670.82 171.611 668.429 171.52C664.809 171.52 662.839 172.73 662.839 174.45C662.839 176.64 665.499 177.45 666.979 177.87L669.479 178.66C675.349 180.53 678.019 184.55 678.019 188.92C678.019 197.92 670.109 200.92 663.179 200.92C659.903 200.881 656.636 200.546 653.419 199.92V191.67C656.198 192.475 659.068 192.922 661.959 193C666.459 193 668.529 191.69 668.529 189.65C668.529 187.84 666.739 186.79 664.529 186.08L662.599 185.46C657.599 183.87 653.359 180.91 653.359 174.97C653.359 168.27 658.359 163.77 666.719 163.77C669.69 163.811 672.646 164.194 675.529 164.91L675.499 172.61Z" fill="black"/>
<path d="M43.4805 68.9199C45.5758 76.286 48.4312 83.4143 52.0005 90.1899C53.6305 93.1899 55.2505 96.1899 58.2205 98.0799C58.7333 98.4021 59.2985 98.6322 59.8905 98.7599C64.2505 99.6899 66.6405 96.1799 68.1805 92.9699C70.4786 87.9335 72.3355 82.7073 73.7305 77.3499C74.0005 76.3499 74.2605 75.3499 74.5205 74.3499C75.0205 72.4399 75.5205 70.5099 75.9405 68.5799L95.1905 17.1799C99.1855 11.8578 104.365 7.53911 110.318 4.56584C116.272 1.59257 122.836 0.0464183 129.49 0.0499117C139.079 -0.010575 148.402 3.19928 155.92 9.14992C168.5 18.6699 175.99 37.4199 175.99 37.4199C177.082 39.8611 177.644 42.5058 177.641 45.1799C177.635 47.6566 177.142 50.1081 176.19 52.3943C175.237 54.6805 173.843 56.7567 172.088 58.5043C170.333 60.2519 168.251 61.6367 165.961 62.5796C163.671 63.5226 161.217 64.0052 158.74 63.9999C155.986 63.9981 153.266 63.3907 150.772 62.2208C148.278 61.0509 146.073 59.3471 144.31 57.2299C144.245 57.1611 144.185 57.0876 144.13 57.0099C142.921 55.3776 141.913 53.6047 141.13 51.7299C140.093 49.3766 138.931 47.0801 137.651 44.8499C136.971 43.6999 136.21 42.6099 135.42 41.5299C134.753 40.5624 133.959 39.688 133.06 38.9299C131.28 37.4999 129.06 36.9299 126.98 38.1599L126.68 38.3499C124.55 39.8199 123.05 42.7899 122.01 45.0699C119.01 51.5299 117.281 58.1499 115.591 64.9499C115.261 66.2599 114.951 67.5699 114.651 68.8899L106.651 94.8899L95.4405 119.61C91.4252 124.789 86.2873 128.99 80.4137 131.897C74.5401 134.803 68.0837 136.339 61.5305 136.39C34.3105 136.97 21.3905 112.39 21.3905 112.39C5.8805 86.9499 1.31052 53.3899 0.220521 42.6599C-0.00947869 40.4299 -0.0195299 39.0999 -0.0195299 39.0999C-0.0207929 35.739 0.89603 32.4415 2.63196 29.5636C4.36789 26.6856 6.85701 24.3365 9.83051 22.7699C12.905 21.212 16.3265 20.4651 19.7705 20.5999C22.9748 20.7339 26.0924 21.6802 28.8305 23.3499C30.9556 24.6269 32.794 26.3292 34.2305 28.3499C36.7905 31.9899 37.3605 36.5199 37.8805 40.8499C38.9558 50.3472 40.829 59.7371 43.4805 68.9199V68.9199Z" fill="url(#paint0_linear)"/>
<path d="M43.4805 68.9199C45.5758 76.286 48.4312 83.4143 52.0005 90.1899C53.6305 93.1899 55.2505 96.1899 58.2205 98.0799C58.7333 98.4021 59.2985 98.6322 59.8905 98.7599C64.2505 99.6899 66.6405 96.1799 68.1805 92.9699C70.4786 87.9335 72.3355 82.7073 73.7305 77.3499C74.0005 76.3499 74.2605 75.3499 74.5205 74.3499C75.0205 72.4399 75.5205 70.5099 75.9405 68.5799L95.1905 17.1799C99.1855 11.8578 104.365 7.53911 110.318 4.56584C116.272 1.59257 122.836 0.0464183 129.49 0.0499117C139.079 -0.010575 148.402 3.19928 155.92 9.14992C168.5 18.6699 175.99 37.4199 175.99 37.4199C177.082 39.8611 177.644 42.5058 177.641 45.1799C177.635 47.6566 177.142 50.1081 176.19 52.3943C175.237 54.6805 173.843 56.7567 172.088 58.5043C170.333 60.2519 168.251 61.6367 165.961 62.5796C163.671 63.5226 161.217 64.0052 158.74 63.9999C155.986 63.9981 153.266 63.3907 150.772 62.2208C148.278 61.0509 146.073 59.3471 144.31 57.2299C144.245 57.1611 144.185 57.0876 144.13 57.0099C142.921 55.3776 141.913 53.6047 141.13 51.7299C140.093 49.3766 138.931 47.0801 137.651 44.8499C136.971 43.6999 136.21 42.6099 135.42 41.5299C134.753 40.5624 133.959 39.688 133.06 38.9299C131.28 37.4999 129.06 36.9299 126.98 38.1599L126.68 38.3499C124.55 39.8199 123.05 42.7899 122.01 45.0699C119.01 51.5299 117.281 58.1499 115.591 64.9499C115.261 66.2599 114.951 67.5699 114.651 68.8899L106.651 94.8899L95.4405 119.61C91.4252 124.789 86.2873 128.99 80.4137 131.897C74.5401 134.803 68.0837 136.339 61.5305 136.39C34.3105 136.97 21.3905 112.39 21.3905 112.39C5.8805 86.9499 1.31052 53.3899 0.220521 42.6599C-0.00947869 40.4299 -0.0195299 39.0999 -0.0195299 39.0999C-0.0207929 35.739 0.89603 32.4415 2.63196 29.5636C4.36789 26.6856 6.85701 24.3365 9.83051 22.7699C12.905 21.212 16.3265 20.4651 19.7705 20.5999C22.9748 20.7339 26.0924 21.6802 28.8305 23.3499C30.9556 24.6269 32.794 26.3292 34.2305 28.3499C36.7905 31.9899 37.3605 36.5199 37.8805 40.8499C38.9558 50.3472 40.829 59.7371 43.4805 68.9199V68.9199Z" fill="url(#paint1_radial)"/>
<path d="M43.4805 68.9199C45.5758 76.286 48.4312 83.4143 52.0005 90.1899C53.6305 93.1899 55.2505 96.1899 58.2205 98.0799C58.7333 98.4021 59.2985 98.6322 59.8905 98.7599C64.2505 99.6899 66.6405 96.1799 68.1805 92.9699C70.4786 87.9335 72.3355 82.7073 73.7305 77.3499C74.0005 76.3499 74.2605 75.3499 74.5205 74.3499C75.0205 72.4399 75.5205 70.5099 75.9405 68.5799L95.1905 17.1799C99.1855 11.8578 104.365 7.53911 110.318 4.56584C116.272 1.59257 122.836 0.0464183 129.49 0.0499117C139.079 -0.010575 148.402 3.19928 155.92 9.14992C168.5 18.6699 175.99 37.4199 175.99 37.4199C177.082 39.8611 177.644 42.5058 177.641 45.1799C177.635 47.6566 177.142 50.1081 176.19 52.3943C175.237 54.6805 173.843 56.7567 172.088 58.5043C170.333 60.2519 168.251 61.6367 165.961 62.5796C163.671 63.5226 161.217 64.0052 158.74 63.9999C155.986 63.9981 153.266 63.3907 150.772 62.2208C148.278 61.0509 146.073 59.3471 144.31 57.2299C144.245 57.1611 144.185 57.0876 144.13 57.0099C142.921 55.3776 141.913 53.6047 141.13 51.7299C140.093 49.3766 138.931 47.0801 137.651 44.8499C136.971 43.6999 136.21 42.6099 135.42 41.5299C134.753 40.5624 133.959 39.688 133.06 38.9299C131.28 37.4999 129.06 36.9299 126.98 38.1599L126.68 38.3499C124.55 39.8199 123.05 42.7899 122.01 45.0699C119.01 51.5299 117.281 58.1499 115.591 64.9499C115.261 66.2599 114.951 67.5699 114.651 68.8899L106.651 94.8899L95.4405 119.61C91.4252 124.789 86.2873 128.99 80.4137 131.897C74.5401 134.803 68.0837 136.339 61.5305 136.39C34.3105 136.97 21.3905 112.39 21.3905 112.39C5.8805 86.9499 1.31052 53.3899 0.220521 42.6599C-0.00947869 40.4299 -0.0195299 39.0999 -0.0195299 39.0999C-0.0207929 35.739 0.89603 32.4415 2.63196 29.5636C4.36789 26.6856 6.85701 24.3365 9.83051 22.7699C12.905 21.212 16.3265 20.4651 19.7705 20.5999C22.9748 20.7339 26.0924 21.6802 28.8305 23.3499C30.9556 24.6269 32.794 26.3292 34.2305 28.3499C36.7905 31.9899 37.3605 36.5199 37.8805 40.8499C38.9558 50.3472 40.829 59.7371 43.4805 68.9199V68.9199Z" fill="url(#paint2_radial)"/>
<path d="M43.4805 68.9199C45.5758 76.286 48.4312 83.4143 52.0005 90.1899C53.6305 93.1899 55.2505 96.1899 58.2205 98.0799C58.7333 98.4021 59.2985 98.6322 59.8905 98.7599C64.2505 99.6899 66.6405 96.1799 68.1805 92.9699C70.4786 87.9335 72.3355 82.7073 73.7305 77.3499C74.0005 76.3499 74.2605 75.3499 74.5205 74.3499C75.0205 72.4399 75.5205 70.5099 75.9405 68.5799L95.1905 17.1799C99.1855 11.8578 104.365 7.53911 110.318 4.56584C116.272 1.59257 122.836 0.0464183 129.49 0.0499117C139.079 -0.010575 148.402 3.19928 155.92 9.14992C168.5 18.6699 175.99 37.4199 175.99 37.4199C177.082 39.8611 177.644 42.5058 177.641 45.1799C177.635 47.6566 177.142 50.1081 176.19 52.3943C175.237 54.6805 173.843 56.7567 172.088 58.5043C170.333 60.2519 168.251 61.6367 165.961 62.5796C163.671 63.5226 161.217 64.0052 158.74 63.9999C155.986 63.9981 153.266 63.3907 150.772 62.2208C148.278 61.0509 146.073 59.3471 144.31 57.2299C144.245 57.1611 144.185 57.0876 144.13 57.0099C142.921 55.3776 141.913 53.6047 141.13 51.7299C140.093 49.3766 138.931 47.0801 137.651 44.8499C136.971 43.6999 136.21 42.6099 135.42 41.5299C134.753 40.5624 133.959 39.688 133.06 38.9299C131.28 37.4999 129.06 36.9299 126.98 38.1599L126.68 38.3499C124.55 39.8199 123.05 42.7899 122.01 45.0699C119.01 51.5299 117.281 58.1499 115.591 64.9499C115.261 66.2599 114.951 67.5699 114.651 68.8899L106.651 94.8899L95.4405 119.61C91.4252 124.789 86.2873 128.99 80.4137 131.897C74.5401 134.803 68.0837 136.339 61.5305 136.39C34.3105 136.97 21.3905 112.39 21.3905 112.39C5.8805 86.9499 1.31052 53.3899 0.220521 42.6599C-0.00947869 40.4299 -0.0195299 39.0999 -0.0195299 39.0999C-0.0207929 35.739 0.89603 32.4415 2.63196 29.5636C4.36789 26.6856 6.85701 24.3365 9.83051 22.7699C12.905 21.212 16.3265 20.4651 19.7705 20.5999C22.9748 20.7339 26.0924 21.6802 28.8305 23.3499C30.9556 24.6269 32.794 26.3292 34.2305 28.3499C36.7905 31.9899 37.3605 36.5199 37.8805 40.8499C38.9558 50.3472 40.829 59.7371 43.4805 68.9199V68.9199Z" fill="url(#paint3_radial)"/>
<path d="M43.4805 68.9199C45.5758 76.286 48.4312 83.4143 52.0005 90.1899C53.6305 93.1899 55.2505 96.1899 58.2205 98.0799C58.7333 98.4021 59.2985 98.6322 59.8905 98.7599C64.2505 99.6899 66.6405 96.1799 68.1805 92.9699C70.4786 87.9335 72.3355 82.7073 73.7305 77.3499C74.0005 76.3499 74.2605 75.3499 74.5205 74.3499C75.0205 72.4399 75.5205 70.5099 75.9405 68.5799L95.1905 17.1799C99.1855 11.8578 104.365 7.53911 110.318 4.56584C116.272 1.59257 122.836 0.0464183 129.49 0.0499117C139.079 -0.010575 148.402 3.19928 155.92 9.14992C168.5 18.6699 175.99 37.4199 175.99 37.4199C177.082 39.8611 177.644 42.5058 177.641 45.1799C177.635 47.6566 177.142 50.1081 176.19 52.3943C175.237 54.6805 173.843 56.7567 172.088 58.5043C170.333 60.2519 168.251 61.6367 165.961 62.5796C163.671 63.5226 161.217 64.0052 158.74 63.9999C155.986 63.9981 153.266 63.3907 150.772 62.2208C148.278 61.0509 146.073 59.3471 144.31 57.2299C144.245 57.1611 144.185 57.0876 144.13 57.0099C142.921 55.3776 141.913 53.6047 141.13 51.7299C140.093 49.3766 138.931 47.0801 137.651 44.8499C136.971 43.6999 136.21 42.6099 135.42 41.5299C134.753 40.5624 133.959 39.688 133.06 38.9299C131.28 37.4999 129.06 36.9299 126.98 38.1599L126.68 38.3499C124.55 39.8199 123.05 42.7899 122.01 45.0699C119.01 51.5299 117.281 58.1499 115.591 64.9499C115.261 66.2599 114.951 67.5699 114.651 68.8899L106.651 94.8899L95.4405 119.61C91.4252 124.789 86.2873 128.99 80.4137 131.897C74.5401 134.803 68.0837 136.339 61.5305 136.39C34.3105 136.97 21.3905 112.39 21.3905 112.39C5.8805 86.9499 1.31052 53.3899 0.220521 42.6599C-0.00947869 40.4299 -0.0195299 39.0999 -0.0195299 39.0999C-0.0207929 35.739 0.89603 32.4415 2.63196 29.5636C4.36789 26.6856 6.85701 24.3365 9.83051 22.7699C12.905 21.212 16.3265 20.4651 19.7705 20.5999C22.9748 20.7339 26.0924 21.6802 28.8305 23.3499C30.9556 24.6269 32.794 26.3292 34.2305 28.3499C36.7905 31.9899 37.3605 36.5199 37.8805 40.8499C38.9558 50.3472 40.829 59.7371 43.4805 68.9199V68.9199Z" fill="url(#paint4_radial)"/>
<path d="M43.4805 68.9199C45.5758 76.286 48.4312 83.4143 52.0005 90.1899C53.6305 93.1899 55.2505 96.1899 58.2205 98.0799C58.7333 98.4021 59.2985 98.6322 59.8905 98.7599C64.2505 99.6899 66.6405 96.1799 68.1805 92.9699C70.4786 87.9335 72.3355 82.7073 73.7305 77.3499C74.0005 76.3499 74.2605 75.3499 74.5205 74.3499C75.0205 72.4399 75.5205 70.5099 75.9405 68.5799L95.1905 17.1799C99.1855 11.8578 104.365 7.53911 110.318 4.56584C116.272 1.59257 122.836 0.0464183 129.49 0.0499117C139.079 -0.010575 148.402 3.19928 155.92 9.14992C168.5 18.6699 175.99 37.4199 175.99 37.4199C177.082 39.8611 177.644 42.5058 177.641 45.1799C177.635 47.6566 177.142 50.1081 176.19 52.3943C175.237 54.6805 173.843 56.7567 172.088 58.5043C170.333 60.2519 168.251 61.6367 165.961 62.5796C163.671 63.5226 161.217 64.0052 158.74 63.9999C155.986 63.9981 153.266 63.3907 150.772 62.2208C148.278 61.0509 146.073 59.3471 144.31 57.2299C144.245 57.1611 144.185 57.0876 144.13 57.0099C142.921 55.3776 141.913 53.6047 141.13 51.7299C140.093 49.3766 138.931 47.0801 137.651 44.8499C136.971 43.6999 136.21 42.6099 135.42 41.5299C134.753 40.5624 133.959 39.688 133.06 38.9299C131.28 37.4999 129.06 36.9299 126.98 38.1599L126.68 38.3499C124.55 39.8199 123.05 42.7899 122.01 45.0699C119.01 51.5299 117.281 58.1499 115.591 64.9499C115.261 66.2599 114.951 67.5699 114.651 68.8899L106.651 94.8899L95.4405 119.61C91.4252 124.789 86.2873 128.99 80.4137 131.897C74.5401 134.803 68.0837 136.339 61.5305 136.39C34.3105 136.97 21.3905 112.39 21.3905 112.39C5.8805 86.9499 1.31052 53.3899 0.220521 42.6599C-0.00947869 40.4299 -0.0195299 39.0999 -0.0195299 39.0999C-0.0207929 35.739 0.89603 32.4415 2.63196 29.5636C4.36789 26.6856 6.85701 24.3365 9.83051 22.7699C12.905 21.212 16.3265 20.4651 19.7705 20.5999C22.9748 20.7339 26.0924 21.6802 28.8305 23.3499C30.9556 24.6269 32.794 26.3292 34.2305 28.3499C36.7905 31.9899 37.3605 36.5199 37.8805 40.8499C38.9558 50.3472 40.829 59.7371 43.4805 68.9199V68.9199Z" fill="url(#paint5_radial)"/>
<path d="M43.4805 68.9199C45.5758 76.286 48.4312 83.4143 52.0005 90.1899C53.6305 93.1899 55.2505 96.1899 58.2205 98.0799C58.7333 98.4021 59.2985 98.6322 59.8905 98.7599C64.2505 99.6899 66.6405 96.1799 68.1805 92.9699C70.4786 87.9335 72.3355 82.7073 73.7305 77.3499C74.0005 76.3499 74.2605 75.3499 74.5205 74.3499C75.0205 72.4399 75.5205 70.5099 75.9405 68.5799L95.1905 17.1799C99.1855 11.8578 104.365 7.53911 110.318 4.56584C116.272 1.59257 122.836 0.0464183 129.49 0.0499117C139.079 -0.010575 148.402 3.19928 155.92 9.14992C168.5 18.6699 175.99 37.4199 175.99 37.4199C177.082 39.8611 177.644 42.5058 177.641 45.1799C177.635 47.6566 177.142 50.1081 176.19 52.3943C175.237 54.6805 173.843 56.7567 172.088 58.5043C170.333 60.2519 168.251 61.6367 165.961 62.5796C163.671 63.5226 161.217 64.0052 158.74 63.9999C155.986 63.9981 153.266 63.3907 150.772 62.2208C148.278 61.0509 146.073 59.3471 144.31 57.2299C144.245 57.1611 144.185 57.0876 144.13 57.0099C142.921 55.3776 141.913 53.6047 141.13 51.7299C140.093 49.3766 138.931 47.0801 137.651 44.8499C136.971 43.6999 136.21 42.6099 135.42 41.5299C134.753 40.5624 133.959 39.688 133.06 38.9299C131.28 37.4999 129.06 36.9299 126.98 38.1599L126.68 38.3499C124.55 39.8199 123.05 42.7899 122.01 45.0699C119.01 51.5299 117.281 58.1499 115.591 64.9499C115.261 66.2599 114.951 67.5699 114.651 68.8899L106.651 94.8899L95.4405 119.61C91.4252 124.789 86.2873 128.99 80.4137 131.897C74.5401 134.803 68.0837 136.339 61.5305 136.39C34.3105 136.97 21.3905 112.39 21.3905 112.39C5.8805 86.9499 1.31052 53.3899 0.220521 42.6599C-0.00947869 40.4299 -0.0195299 39.0999 -0.0195299 39.0999C-0.0207929 35.739 0.89603 32.4415 2.63196 29.5636C4.36789 26.6856 6.85701 24.3365 9.83051 22.7699C12.905 21.212 16.3265 20.4651 19.7705 20.5999C22.9748 20.7339 26.0924 21.6802 28.8305 23.3499C30.9556 24.6269 32.794 26.3292 34.2305 28.3499C36.7905 31.9899 37.3605 36.5199 37.8805 40.8499C38.9558 50.3472 40.829 59.7371 43.4805 68.9199V68.9199Z" fill="url(#paint6_radial)"/>
<path d="M43.4805 68.9199C45.5758 76.286 48.4312 83.4143 52.0005 90.1899C53.6305 93.1899 55.2505 96.1899 58.2205 98.0799C58.7333 98.4021 59.2985 98.6322 59.8905 98.7599C64.2505 99.6899 66.6405 96.1799 68.1805 92.9699C70.4786 87.9335 72.3355 82.7073 73.7305 77.3499C74.0005 76.3499 74.2605 75.3499 74.5205 74.3499C75.0205 72.4399 75.5205 70.5099 75.9405 68.5799L95.1905 17.1799C99.1855 11.8578 104.365 7.53911 110.318 4.56584C116.272 1.59257 122.836 0.0464183 129.49 0.0499117C139.079 -0.010575 148.402 3.19928 155.92 9.14992C168.5 18.6699 175.99 37.4199 175.99 37.4199C177.082 39.8611 177.644 42.5058 177.641 45.1799C177.635 47.6566 177.142 50.1081 176.19 52.3943C175.237 54.6805 173.843 56.7567 172.088 58.5043C170.333 60.2519 168.251 61.6367 165.961 62.5796C163.671 63.5226 161.217 64.0052 158.74 63.9999C155.986 63.9981 153.266 63.3907 150.772 62.2208C148.278 61.0509 146.073 59.3471 144.31 57.2299C144.245 57.1611 144.185 57.0876 144.13 57.0099C142.921 55.3776 141.913 53.6047 141.13 51.7299C140.093 49.3766 138.931 47.0801 137.651 44.8499C136.971 43.6999 136.21 42.6099 135.42 41.5299C134.753 40.5624 133.959 39.688 133.06 38.9299C131.28 37.4999 129.06 36.9299 126.98 38.1599L126.68 38.3499C124.55 39.8199 123.05 42.7899 122.01 45.0699C119.01 51.5299 117.281 58.1499 115.591 64.9499C115.261 66.2599 114.951 67.5699 114.651 68.8899L106.651 94.8899L95.4405 119.61C91.4252 124.789 86.2873 128.99 80.4137 131.897C74.5401 134.803 68.0837 136.339 61.5305 136.39C34.3105 136.97 21.3905 112.39 21.3905 112.39C5.8805 86.9499 1.31052 53.3899 0.220521 42.6599C-0.00947869 40.4299 -0.0195299 39.0999 -0.0195299 39.0999C-0.0207929 35.739 0.89603 32.4415 2.63196 29.5636C4.36789 26.6856 6.85701 24.3365 9.83051 22.7699C12.905 21.212 16.3265 20.4651 19.7705 20.5999C22.9748 20.7339 26.0924 21.6802 28.8305 23.3499C30.9556 24.6269 32.794 26.3292 34.2305 28.3499C36.7905 31.9899 37.3605 36.5199 37.8805 40.8499C38.9558 50.3472 40.829 59.7371 43.4805 68.9199V68.9199Z" fill="url(#paint7_radial)"/>
<path d="M43.4805 68.9199C45.5758 76.286 48.4312 83.4143 52.0005 90.1899C53.6305 93.1899 55.2505 96.1899 58.2205 98.0799C58.7333 98.4021 59.2985 98.6322 59.8905 98.7599C64.2505 99.6899 66.6405 96.1799 68.1805 92.9699C70.4786 87.9335 72.3355 82.7073 73.7305 77.3499C74.0005 76.3499 74.2605 75.3499 74.5205 74.3499C75.0205 72.4399 75.5205 70.5099 75.9405 68.5799L95.1905 17.1799C99.1855 11.8578 104.365 7.53911 110.318 4.56584C116.272 1.59257 122.836 0.0464183 129.49 0.0499117C139.079 -0.010575 148.402 3.19928 155.92 9.14992C168.5 18.6699 175.99 37.4199 175.99 37.4199C177.082 39.8611 177.644 42.5058 177.641 45.1799C177.635 47.6566 177.142 50.1081 176.19 52.3943C175.237 54.6805 173.843 56.7567 172.088 58.5043C170.333 60.2519 168.251 61.6367 165.961 62.5796C163.671 63.5226 161.217 64.0052 158.74 63.9999C155.986 63.9981 153.266 63.3907 150.772 62.2208C148.278 61.0509 146.073 59.3471 144.31 57.2299C144.245 57.1611 144.185 57.0876 144.13 57.0099C142.921 55.3776 141.913 53.6047 141.13 51.7299C140.093 49.3766 138.931 47.0801 137.651 44.8499C136.971 43.6999 136.21 42.6099 135.42 41.5299C134.753 40.5624 133.959 39.688 133.06 38.9299C131.28 37.4999 129.06 36.9299 126.98 38.1599L126.68 38.3499C124.55 39.8199 123.05 42.7899 122.01 45.0699C119.01 51.5299 117.281 58.1499 115.591 64.9499C115.261 66.2599 114.951 67.5699 114.651 68.8899L106.651 94.8899L95.4405 119.61C91.4252 124.789 86.2873 128.99 80.4137 131.897C74.5401 134.803 68.0837 136.339 61.5305 136.39C34.3105 136.97 21.3905 112.39 21.3905 112.39C5.8805 86.9499 1.31052 53.3899 0.220521 42.6599C-0.00947869 40.4299 -0.0195299 39.0999 -0.0195299 39.0999C-0.0207929 35.739 0.89603 32.4415 2.63196 29.5636C4.36789 26.6856 6.85701 24.3365 9.83051 22.7699C12.905 21.212 16.3265 20.4651 19.7705 20.5999C22.9748 20.7339 26.0924 21.6802 28.8305 23.3499C30.9556 24.6269 32.794 26.3292 34.2305 28.3499C36.7905 31.9899 37.3605 36.5199 37.8805 40.8499C38.9558 50.3472 40.829 59.7371 43.4805 68.9199V68.9199Z" fill="url(#paint8_radial)"/>
<path d="M43.4805 68.9199C45.5758 76.286 48.4312 83.4143 52.0005 90.1899C53.6305 93.1899 55.2505 96.1899 58.2205 98.0799C58.7333 98.4021 59.2985 98.6322 59.8905 98.7599C64.2505 99.6899 66.6405 96.1799 68.1805 92.9699C70.4786 87.9335 72.3355 82.7073 73.7305 77.3499C74.0005 76.3499 74.2605 75.3499 74.5205 74.3499C75.0205 72.4399 75.5205 70.5099 75.9405 68.5799L95.1905 17.1799C99.1855 11.8578 104.365 7.53911 110.318 4.56584C116.272 1.59257 122.836 0.0464183 129.49 0.0499117C139.079 -0.010575 148.402 3.19928 155.92 9.14992C168.5 18.6699 175.99 37.4199 175.99 37.4199C177.082 39.8611 177.644 42.5058 177.641 45.1799C177.635 47.6566 177.142 50.1081 176.19 52.3943C175.237 54.6805 173.843 56.7567 172.088 58.5043C170.333 60.2519 168.251 61.6367 165.961 62.5796C163.671 63.5226 161.217 64.0052 158.74 63.9999C155.986 63.9981 153.266 63.3907 150.772 62.2208C148.278 61.0509 146.073 59.3471 144.31 57.2299C144.245 57.1611 144.185 57.0876 144.13 57.0099C142.921 55.3776 141.913 53.6047 141.13 51.7299C140.093 49.3766 138.931 47.0801 137.651 44.8499C136.971 43.6999 136.21 42.6099 135.42 41.5299C134.753 40.5624 133.959 39.688 133.06 38.9299C131.28 37.4999 129.06 36.9299 126.98 38.1599L126.68 38.3499C124.55 39.8199 123.05 42.7899 122.01 45.0699C119.01 51.5299 117.281 58.1499 115.591 64.9499C115.261 66.2599 114.951 67.5699 114.651 68.8899L106.651 94.8899L95.4405 119.61C91.4252 124.789 86.2873 128.99 80.4137 131.897C74.5401 134.803 68.0837 136.339 61.5305 136.39C34.3105 136.97 21.3905 112.39 21.3905 112.39C5.8805 86.9499 1.31052 53.3899 0.220521 42.6599C-0.00947869 40.4299 -0.0195299 39.0999 -0.0195299 39.0999C-0.0207929 35.739 0.89603 32.4415 2.63196 29.5636C4.36789 26.6856 6.85701 24.3365 9.83051 22.7699C12.905 21.212 16.3265 20.4651 19.7705 20.5999C22.9748 20.7339 26.0924 21.6802 28.8305 23.3499C30.9556 24.6269 32.794 26.3292 34.2305 28.3499C36.7905 31.9899 37.3605 36.5199 37.8805 40.8499C38.9558 50.3472 40.829 59.7371 43.4805 68.9199V68.9199Z" fill="url(#paint9_radial)"/>
<path d="M43.4805 68.9199C45.5758 76.286 48.4312 83.4143 52.0005 90.1899C53.6305 93.1899 55.2505 96.1899 58.2205 98.0799C58.7333 98.4021 59.2985 98.6322 59.8905 98.7599C64.2505 99.6899 66.6405 96.1799 68.1805 92.9699C70.4786 87.9335 72.3355 82.7073 73.7305 77.3499C74.0005 76.3499 74.2605 75.3499 74.5205 74.3499C75.0205 72.4399 75.5205 70.5099 75.9405 68.5799L95.1905 17.1799C99.1855 11.8578 104.365 7.53911 110.318 4.56584C116.272 1.59257 122.836 0.0464183 129.49 0.0499117C139.079 -0.010575 148.402 3.19928 155.92 9.14992C168.5 18.6699 175.99 37.4199 175.99 37.4199C177.082 39.8611 177.644 42.5058 177.641 45.1799C177.635 47.6566 177.142 50.1081 176.19 52.3943C175.237 54.6805 173.843 56.7567 172.088 58.5043C170.333 60.2519 168.251 61.6367 165.961 62.5796C163.671 63.5226 161.217 64.0052 158.74 63.9999C155.986 63.9981 153.266 63.3907 150.772 62.2208C148.278 61.0509 146.073 59.3471 144.31 57.2299C144.245 57.1611 144.185 57.0876 144.13 57.0099C142.921 55.3776 141.913 53.6047 141.13 51.7299C140.093 49.3766 138.931 47.0801 137.651 44.8499C136.971 43.6999 136.21 42.6099 135.42 41.5299C134.753 40.5624 133.959 39.688 133.06 38.9299C131.28 37.4999 129.06 36.9299 126.98 38.1599L126.68 38.3499C124.55 39.8199 123.05 42.7899 122.01 45.0699C119.01 51.5299 117.281 58.1499 115.591 64.9499C115.261 66.2599 114.951 67.5699 114.651 68.8899L106.651 94.8899L95.4405 119.61C91.4252 124.789 86.2873 128.99 80.4137 131.897C74.5401 134.803 68.0837 136.339 61.5305 136.39C34.3105 136.97 21.3905 112.39 21.3905 112.39C5.8805 86.9499 1.31052 53.3899 0.220521 42.6599C-0.00947869 40.4299 -0.0195299 39.0999 -0.0195299 39.0999C-0.0207929 35.739 0.89603 32.4415 2.63196 29.5636C4.36789 26.6856 6.85701 24.3365 9.83051 22.7699C12.905 21.212 16.3265 20.4651 19.7705 20.5999C22.9748 20.7339 26.0924 21.6802 28.8305 23.3499C30.9556 24.6269 32.794 26.3292 34.2305 28.3499C36.7905 31.9899 37.3605 36.5199 37.8805 40.8499C38.9558 50.3472 40.829 59.7371 43.4805 68.9199V68.9199Z" fill="url(#paint10_radial)"/>
<path d="M43.4805 68.9199C45.5758 76.286 48.4312 83.4143 52.0005 90.1899C53.6305 93.1899 55.2505 96.1899 58.2205 98.0799C58.7333 98.4021 59.2985 98.6322 59.8905 98.7599C64.2505 99.6899 66.6405 96.1799 68.1805 92.9699C70.4786 87.9335 72.3355 82.7073 73.7305 77.3499C74.0005 76.3499 74.2605 75.3499 74.5205 74.3499C75.0205 72.4399 75.5205 70.5099 75.9405 68.5799L95.1905 17.1799C99.1855 11.8578 104.365 7.53911 110.318 4.56584C116.272 1.59257 122.836 0.0464183 129.49 0.0499117C139.079 -0.010575 148.402 3.19928 155.92 9.14992C168.5 18.6699 175.99 37.4199 175.99 37.4199C177.082 39.8611 177.644 42.5058 177.641 45.1799C177.635 47.6566 177.142 50.1081 176.19 52.3943C175.237 54.6805 173.843 56.7567 172.088 58.5043C170.333 60.2519 168.251 61.6367 165.961 62.5796C163.671 63.5226 161.217 64.0052 158.74 63.9999C155.986 63.9981 153.266 63.3907 150.772 62.2208C148.278 61.0509 146.073 59.3471 144.31 57.2299C144.245 57.1611 144.185 57.0876 144.13 57.0099C142.921 55.3776 141.913 53.6047 141.13 51.7299C140.093 49.3766 138.931 47.0801 137.651 44.8499C136.971 43.6999 136.21 42.6099 135.42 41.5299C134.753 40.5624 133.959 39.688 133.06 38.9299C131.28 37.4999 129.06 36.9299 126.98 38.1599L126.68 38.3499C124.55 39.8199 123.05 42.7899 122.01 45.0699C119.01 51.5299 117.281 58.1499 115.591 64.9499C115.261 66.2599 114.951 67.5699 114.651 68.8899L106.651 94.8899L95.4405 119.61C91.4252 124.789 86.2873 128.99 80.4137 131.897C74.5401 134.803 68.0837 136.339 61.5305 136.39C34.3105 136.97 21.3905 112.39 21.3905 112.39C5.8805 86.9499 1.31052 53.3899 0.220521 42.6599C-0.00947869 40.4299 -0.0195299 39.0999 -0.0195299 39.0999C-0.0207929 35.739 0.89603 32.4415 2.63196 29.5636C4.36789 26.6856 6.85701 24.3365 9.83051 22.7699C12.905 21.212 16.3265 20.4651 19.7705 20.5999C22.9748 20.7339 26.0924 21.6802 28.8305 23.3499C30.9556 24.6269 32.794 26.3292 34.2305 28.3499C36.7905 31.9899 37.3605 36.5199 37.8805 40.8499C38.9558 50.3472 40.829 59.7371 43.4805 68.9199V68.9199Z" fill="url(#paint11_radial)"/>
<path d="M43.4805 68.9199C45.5758 76.286 48.4312 83.4143 52.0005 90.1899C53.6305 93.1899 55.2505 96.1899 58.2205 98.0799C58.7333 98.4021 59.2985 98.6322 59.8905 98.7599C64.2505 99.6899 66.6405 96.1799 68.1805 92.9699C70.4786 87.9335 72.3355 82.7073 73.7305 77.3499C74.0005 76.3499 74.2605 75.3499 74.5205 74.3499C75.0205 72.4399 75.5205 70.5099 75.9405 68.5799L95.1905 17.1799C99.1855 11.8578 104.365 7.53911 110.318 4.56584C116.272 1.59257 122.836 0.0464183 129.49 0.0499117C139.079 -0.010575 148.402 3.19928 155.92 9.14992C168.5 18.6699 175.99 37.4199 175.99 37.4199C177.082 39.8611 177.644 42.5058 177.641 45.1799C177.635 47.6566 177.142 50.1081 176.19 52.3943C175.237 54.6805 173.843 56.7567 172.088 58.5043C170.333 60.2519 168.251 61.6367 165.961 62.5796C163.671 63.5226 161.217 64.0052 158.74 63.9999C155.986 63.9981 153.266 63.3907 150.772 62.2208C148.278 61.0509 146.073 59.3471 144.31 57.2299C144.245 57.1611 144.185 57.0876 144.13 57.0099C142.921 55.3776 141.913 53.6047 141.13 51.7299C140.093 49.3766 138.931 47.0801 137.651 44.8499C136.971 43.6999 136.21 42.6099 135.42 41.5299C134.753 40.5624 133.959 39.688 133.06 38.9299C131.28 37.4999 129.06 36.9299 126.98 38.1599L126.68 38.3499C124.55 39.8199 123.05 42.7899 122.01 45.0699C119.01 51.5299 117.281 58.1499 115.591 64.9499C115.261 66.2599 114.951 67.5699 114.651 68.8899L106.651 94.8899L95.4405 119.61C91.4252 124.789 86.2873 128.99 80.4137 131.897C74.5401 134.803 68.0837 136.339 61.5305 136.39C34.3105 136.97 21.3905 112.39 21.3905 112.39C5.8805 86.9499 1.31052 53.3899 0.220521 42.6599C-0.00947869 40.4299 -0.0195299 39.0999 -0.0195299 39.0999C-0.0207929 35.739 0.89603 32.4415 2.63196 29.5636C4.36789 26.6856 6.85701 24.3365 9.83051 22.7699C12.905 21.212 16.3265 20.4651 19.7705 20.5999C22.9748 20.7339 26.0924 21.6802 28.8305 23.3499C30.9556 24.6269 32.794 26.3292 34.2305 28.3499C36.7905 31.9899 37.3605 36.5199 37.8805 40.8499C38.9558 50.3472 40.829 59.7371 43.4805 68.9199V68.9199Z" fill="url(#paint12_radial)"/>
<path d="M43.4805 68.9199C45.5758 76.286 48.4312 83.4143 52.0005 90.1899C53.6305 93.1899 55.2505 96.1899 58.2205 98.0799C58.7333 98.4021 59.2985 98.6322 59.8905 98.7599C64.2505 99.6899 66.6405 96.1799 68.1805 92.9699C70.4786 87.9335 72.3355 82.7073 73.7305 77.3499C74.0005 76.3499 74.2605 75.3499 74.5205 74.3499C75.0205 72.4399 75.5205 70.5099 75.9405 68.5799L95.1905 17.1799C99.1855 11.8578 104.365 7.53911 110.318 4.56584C116.272 1.59257 122.836 0.0464183 129.49 0.0499117C139.079 -0.010575 148.402 3.19928 155.92 9.14992C168.5 18.6699 175.99 37.4199 175.99 37.4199C177.082 39.8611 177.644 42.5058 177.641 45.1799C177.635 47.6566 177.142 50.1081 176.19 52.3943C175.237 54.6805 173.843 56.7567 172.088 58.5043C170.333 60.2519 168.251 61.6367 165.961 62.5796C163.671 63.5226 161.217 64.0052 158.74 63.9999C155.986 63.9981 153.266 63.3907 150.772 62.2208C148.278 61.0509 146.073 59.3471 144.31 57.2299C144.245 57.1611 144.185 57.0876 144.13 57.0099C142.921 55.3776 141.913 53.6047 141.13 51.7299C140.093 49.3766 138.931 47.0801 137.651 44.8499C136.971 43.6999 136.21 42.6099 135.42 41.5299C134.753 40.5624 133.959 39.688 133.06 38.9299C131.28 37.4999 129.06 36.9299 126.98 38.1599L126.68 38.3499C124.55 39.8199 123.05 42.7899 122.01 45.0699C119.01 51.5299 117.281 58.1499 115.591 64.9499C115.261 66.2599 114.951 67.5699 114.651 68.8899L106.651 94.8899L95.4405 119.61C91.4252 124.789 86.2873 128.99 80.4137 131.897C74.5401 134.803 68.0837 136.339 61.5305 136.39C34.3105 136.97 21.3905 112.39 21.3905 112.39C5.8805 86.9499 1.31052 53.3899 0.220521 42.6599C-0.00947869 40.4299 -0.0195299 39.0999 -0.0195299 39.0999C-0.0207929 35.739 0.89603 32.4415 2.63196 29.5636C4.36789 26.6856 6.85701 24.3365 9.83051 22.7699C12.905 21.212 16.3265 20.4651 19.7705 20.5999C22.9748 20.7339 26.0924 21.6802 28.8305 23.3499C30.9556 24.6269 32.794 26.3292 34.2305 28.3499C36.7905 31.9899 37.3605 36.5199 37.8805 40.8499C38.9558 50.3472 40.829 59.7371 43.4805 68.9199V68.9199Z" fill="url(#paint13_radial)"/>
<path d="M43.4805 68.9199C45.5758 76.286 48.4312 83.4143 52.0005 90.1899C53.6305 93.1899 55.2505 96.1899 58.2205 98.0799C58.7333 98.4021 59.2985 98.6322 59.8905 98.7599C64.2505 99.6899 66.6405 96.1799 68.1805 92.9699C70.4786 87.9335 72.3355 82.7073 73.7305 77.3499C74.0005 76.3499 74.2605 75.3499 74.5205 74.3499C75.0205 72.4399 75.5205 70.5099 75.9405 68.5799L95.1905 17.1799C99.1855 11.8578 104.365 7.53911 110.318 4.56584C116.272 1.59257 122.836 0.0464183 129.49 0.0499117C139.079 -0.010575 148.402 3.19928 155.92 9.14992C168.5 18.6699 175.99 37.4199 175.99 37.4199C177.082 39.8611 177.644 42.5058 177.641 45.1799C177.635 47.6566 177.142 50.1081 176.19 52.3943C175.237 54.6805 173.843 56.7567 172.088 58.5043C170.333 60.2519 168.251 61.6367 165.961 62.5796C163.671 63.5226 161.217 64.0052 158.74 63.9999C155.986 63.9981 153.266 63.3907 150.772 62.2208C148.278 61.0509 146.073 59.3471 144.31 57.2299C144.245 57.1611 144.185 57.0876 144.13 57.0099C142.921 55.3776 141.913 53.6047 141.13 51.7299C140.093 49.3766 138.931 47.0801 137.651 44.8499C136.971 43.6999 136.21 42.6099 135.42 41.5299C134.753 40.5624 133.959 39.688 133.06 38.9299C131.28 37.4999 129.06 36.9299 126.98 38.1599L126.68 38.3499C124.55 39.8199 123.05 42.7899 122.01 45.0699C119.01 51.5299 117.281 58.1499 115.591 64.9499C115.261 66.2599 114.951 67.5699 114.651 68.8899L106.651 94.8899L95.4405 119.61C91.4252 124.789 86.2873 128.99 80.4137 131.897C74.5401 134.803 68.0837 136.339 61.5305 136.39C34.3105 136.97 21.3905 112.39 21.3905 112.39C5.8805 86.9499 1.31052 53.3899 0.220521 42.6599C-0.00947869 40.4299 -0.0195299 39.0999 -0.0195299 39.0999C-0.0207929 35.739 0.89603 32.4415 2.63196 29.5636C4.36789 26.6856 6.85701 24.3365 9.83051 22.7699C12.905 21.212 16.3265 20.4651 19.7705 20.5999C22.9748 20.7339 26.0924 21.6802 28.8305 23.3499C30.9556 24.6269 32.794 26.3292 34.2305 28.3499C36.7905 31.9899 37.3605 36.5199 37.8805 40.8499C38.9558 50.3472 40.829 59.7371 43.4805 68.9199V68.9199Z" fill="url(#paint14_radial)"/>
<path d="M43.4805 68.9199C45.5758 76.286 48.4312 83.4143 52.0005 90.1899C53.6305 93.1899 55.2505 96.1899 58.2205 98.0799C58.7333 98.4021 59.2985 98.6322 59.8905 98.7599C64.2505 99.6899 66.6405 96.1799 68.1805 92.9699C70.4786 87.9335 72.3355 82.7073 73.7305 77.3499C74.0005 76.3499 74.2605 75.3499 74.5205 74.3499C75.0205 72.4399 75.5205 70.5099 75.9405 68.5799L95.1905 17.1799C99.1855 11.8578 104.365 7.53911 110.318 4.56584C116.272 1.59257 122.836 0.0464183 129.49 0.0499117C139.079 -0.010575 148.402 3.19928 155.92 9.14992C168.5 18.6699 175.99 37.4199 175.99 37.4199C177.082 39.8611 177.644 42.5058 177.641 45.1799C177.635 47.6566 177.142 50.1081 176.19 52.3943C175.237 54.6805 173.843 56.7567 172.088 58.5043C170.333 60.2519 168.251 61.6367 165.961 62.5796C163.671 63.5226 161.217 64.0052 158.74 63.9999C155.986 63.9981 153.266 63.3907 150.772 62.2208C148.278 61.0509 146.073 59.3471 144.31 57.2299C144.245 57.1611 144.185 57.0876 144.13 57.0099C142.921 55.3776 141.913 53.6047 141.13 51.7299C140.093 49.3766 138.931 47.0801 137.651 44.8499C136.971 43.6999 136.21 42.6099 135.42 41.5299C134.753 40.5624 133.959 39.688 133.06 38.9299C131.28 37.4999 129.06 36.9299 126.98 38.1599L126.68 38.3499C124.55 39.8199 123.05 42.7899 122.01 45.0699C119.01 51.5299 117.281 58.1499 115.591 64.9499C115.261 66.2599 114.951 67.5699 114.651 68.8899L106.651 94.8899L95.4405 119.61C91.4252 124.789 86.2873 128.99 80.4137 131.897C74.5401 134.803 68.0837 136.339 61.5305 136.39C34.3105 136.97 21.3905 112.39 21.3905 112.39C5.8805 86.9499 1.31052 53.3899 0.220521 42.6599C-0.00947869 40.4299 -0.0195299 39.0999 -0.0195299 39.0999C-0.0207929 35.739 0.89603 32.4415 2.63196 29.5636C4.36789 26.6856 6.85701 24.3365 9.83051 22.7699C12.905 21.212 16.3265 20.4651 19.7705 20.5999C22.9748 20.7339 26.0924 21.6802 28.8305 23.3499C30.9556 24.6269 32.794 26.3292 34.2305 28.3499C36.7905 31.9899 37.3605 36.5199 37.8805 40.8499C38.9558 50.3472 40.829 59.7371 43.4805 68.9199V68.9199Z" fill="url(#paint15_radial)"/>
<path d="M43.4805 68.9199C45.5758 76.286 48.4312 83.4143 52.0005 90.1899C53.6305 93.1899 55.2505 96.1899 58.2205 98.0799C58.7333 98.4021 59.2985 98.6322 59.8905 98.7599C64.2505 99.6899 66.6405 96.1799 68.1805 92.9699C70.4786 87.9335 72.3355 82.7073 73.7305 77.3499C74.0005 76.3499 74.2605 75.3499 74.5205 74.3499C75.0205 72.4399 75.5205 70.5099 75.9405 68.5799L95.1905 17.1799C99.1855 11.8578 104.365 7.53911 110.318 4.56584C116.272 1.59257 122.836 0.0464183 129.49 0.0499117C139.079 -0.010575 148.402 3.19928 155.92 9.14992C168.5 18.6699 175.99 37.4199 175.99 37.4199C177.082 39.8611 177.644 42.5058 177.641 45.1799C177.635 47.6566 177.142 50.1081 176.19 52.3943C175.237 54.6805 173.843 56.7567 172.088 58.5043C170.333 60.2519 168.251 61.6367 165.961 62.5796C163.671 63.5226 161.217 64.0052 158.74 63.9999C155.986 63.9981 153.266 63.3907 150.772 62.2208C148.278 61.0509 146.073 59.3471 144.31 57.2299C144.245 57.1611 144.185 57.0876 144.13 57.0099C142.921 55.3776 141.913 53.6047 141.13 51.7299C140.093 49.3766 138.931 47.0801 137.651 44.8499C136.971 43.6999 136.21 42.6099 135.42 41.5299C134.753 40.5624 133.959 39.688 133.06 38.9299C131.28 37.4999 129.06 36.9299 126.98 38.1599L126.68 38.3499C124.55 39.8199 123.05 42.7899 122.01 45.0699C119.01 51.5299 117.281 58.1499 115.591 64.9499C115.261 66.2599 114.951 67.5699 114.651 68.8899L106.651 94.8899L95.4405 119.61C91.4252 124.789 86.2873 128.99 80.4137 131.897C74.5401 134.803 68.0837 136.339 61.5305 136.39C34.3105 136.97 21.3905 112.39 21.3905 112.39C5.8805 86.9499 1.31052 53.3899 0.220521 42.6599C-0.00947869 40.4299 -0.0195299 39.0999 -0.0195299 39.0999C-0.0207929 35.739 0.89603 32.4415 2.63196 29.5636C4.36789 26.6856 6.85701 24.3365 9.83051 22.7699C12.905 21.212 16.3265 20.4651 19.7705 20.5999C22.9748 20.7339 26.0924 21.6802 28.8305 23.3499C30.9556 24.6269 32.794 26.3292 34.2305 28.3499C36.7905 31.9899 37.3605 36.5199 37.8805 40.8499C38.9558 50.3472 40.829 59.7371 43.4805 68.9199V68.9199Z" fill="url(#paint16_linear)"/>
<path d="M43.4805 68.9199C45.5758 76.286 48.4312 83.4143 52.0005 90.1899C53.6305 93.1899 55.2505 96.1899 58.2205 98.0799C58.7333 98.4021 59.2985 98.6322 59.8905 98.7599C64.2505 99.6899 66.6405 96.1799 68.1805 92.9699C70.4786 87.9335 72.3355 82.7073 73.7305 77.3499C74.0005 76.3499 74.2605 75.3499 74.5205 74.3499C75.0205 72.4399 75.5205 70.5099 75.9405 68.5799L95.1905 17.1799C99.1855 11.8578 104.365 7.53911 110.318 4.56584C116.272 1.59257 122.836 0.0464183 129.49 0.0499117C139.079 -0.010575 148.402 3.19928 155.92 9.14992C168.5 18.6699 175.99 37.4199 175.99 37.4199C177.082 39.8611 177.644 42.5058 177.641 45.1799C177.635 47.6566 177.142 50.1081 176.19 52.3943C175.237 54.6805 173.843 56.7567 172.088 58.5043C170.333 60.2519 168.251 61.6367 165.961 62.5796C163.671 63.5226 161.217 64.0052 158.74 63.9999C155.986 63.9981 153.266 63.3907 150.772 62.2208C148.278 61.0509 146.073 59.3471 144.31 57.2299C144.245 57.1611 144.185 57.0876 144.13 57.0099C142.921 55.3776 141.913 53.6047 141.13 51.7299C140.093 49.3766 138.931 47.0801 137.651 44.8499C136.971 43.6999 136.21 42.6099 135.42 41.5299C134.753 40.5624 133.959 39.688 133.06 38.9299C131.28 37.4999 129.06 36.9299 126.98 38.1599L126.68 38.3499C124.55 39.8199 123.05 42.7899 122.01 45.0699C119.01 51.5299 117.281 58.1499 115.591 64.9499C115.261 66.2599 114.951 67.5699 114.651 68.8899L106.651 94.8899L95.4405 119.61C91.4252 124.789 86.2873 128.99 80.4137 131.897C74.5401 134.803 68.0837 136.339 61.5305 136.39C34.3105 136.97 21.3905 112.39 21.3905 112.39C5.8805 86.9499 1.31052 53.3899 0.220521 42.6599C-0.00947869 40.4299 -0.0195299 39.0999 -0.0195299 39.0999C-0.0207929 35.739 0.89603 32.4415 2.63196 29.5636C4.36789 26.6856 6.85701 24.3365 9.83051 22.7699C12.905 21.212 16.3265 20.4651 19.7705 20.5999C22.9748 20.7339 26.0924 21.6802 28.8305 23.3499C30.9556 24.6269 32.794 26.3292 34.2305 28.3499C36.7905 31.9899 37.3605 36.5199 37.8805 40.8499C38.9558 50.3472 40.829 59.7371 43.4805 68.9199V68.9199Z" fill="url(#paint17_linear)"/>
<path d="M43.4805 68.9199C45.5758 76.286 48.4312 83.4143 52.0005 90.1899C53.6305 93.1899 55.2505 96.1899 58.2205 98.0799C58.7333 98.4021 59.2985 98.6322 59.8905 98.7599C64.2505 99.6899 66.6405 96.1799 68.1805 92.9699C70.4786 87.9335 72.3355 82.7073 73.7305 77.3499C74.0005 76.3499 74.2605 75.3499 74.5205 74.3499C75.0205 72.4399 75.5205 70.5099 75.9405 68.5799L95.1905 17.1799C99.1855 11.8578 104.365 7.53911 110.318 4.56584C116.272 1.59257 122.836 0.0464183 129.49 0.0499117C139.079 -0.010575 148.402 3.19928 155.92 9.14992C168.5 18.6699 175.99 37.4199 175.99 37.4199C177.082 39.8611 177.644 42.5058 177.641 45.1799C177.635 47.6566 177.142 50.1081 176.19 52.3943C175.237 54.6805 173.843 56.7567 172.088 58.5043C170.333 60.2519 168.251 61.6367 165.961 62.5796C163.671 63.5226 161.217 64.0052 158.74 63.9999C155.986 63.9981 153.266 63.3907 150.772 62.2208C148.278 61.0509 146.073 59.3471 144.31 57.2299C144.245 57.1611 144.185 57.0876 144.13 57.0099C142.921 55.3776 141.913 53.6047 141.13 51.7299C140.093 49.3766 138.931 47.0801 137.651 44.8499C136.971 43.6999 136.21 42.6099 135.42 41.5299C134.753 40.5624 133.959 39.688 133.06 38.9299C131.28 37.4999 129.06 36.9299 126.98 38.1599L126.68 38.3499C124.55 39.8199 123.05 42.7899 122.01 45.0699C119.01 51.5299 117.281 58.1499 115.591 64.9499C115.261 66.2599 114.951 67.5699 114.651 68.8899L106.651 94.8899L95.4405 119.61C91.4252 124.789 86.2873 128.99 80.4137 131.897C74.5401 134.803 68.0837 136.339 61.5305 136.39C34.3105 136.97 21.3905 112.39 21.3905 112.39C5.8805 86.9499 1.31052 53.3899 0.220521 42.6599C-0.00947869 40.4299 -0.0195299 39.0999 -0.0195299 39.0999C-0.0207929 35.739 0.89603 32.4415 2.63196 29.5636C4.36789 26.6856 6.85701 24.3365 9.83051 22.7699C12.905 21.212 16.3265 20.4651 19.7705 20.5999C22.9748 20.7339 26.0924 21.6802 28.8305 23.3499C30.9556 24.6269 32.794 26.3292 34.2305 28.3499C36.7905 31.9899 37.3605 36.5199 37.8805 40.8499C38.9558 50.3472 40.829 59.7371 43.4805 68.9199V68.9199Z" fill="url(#paint18_linear)"/>
<path d="M43.4805 68.9199C45.5758 76.286 48.4312 83.4143 52.0005 90.1899C53.6305 93.1899 55.2505 96.1899 58.2205 98.0799C58.7333 98.4021 59.2985 98.6322 59.8905 98.7599C64.2505 99.6899 66.6405 96.1799 68.1805 92.9699C70.4786 87.9335 72.3355 82.7073 73.7305 77.3499C74.0005 76.3499 74.2605 75.3499 74.5205 74.3499C75.0205 72.4399 75.5205 70.5099 75.9405 68.5799L95.1905 17.1799C99.1855 11.8578 104.365 7.53911 110.318 4.56584C116.272 1.59257 122.836 0.0464183 129.49 0.0499117C139.079 -0.010575 148.402 3.19928 155.92 9.14992C168.5 18.6699 175.99 37.4199 175.99 37.4199C177.082 39.8611 177.644 42.5058 177.641 45.1799C177.635 47.6566 177.142 50.1081 176.19 52.3943C175.237 54.6805 173.843 56.7567 172.088 58.5043C170.333 60.2519 168.251 61.6367 165.961 62.5796C163.671 63.5226 161.217 64.0052 158.74 63.9999C155.986 63.9981 153.266 63.3907 150.772 62.2208C148.278 61.0509 146.073 59.3471 144.31 57.2299C144.245 57.1611 144.185 57.0876 144.13 57.0099C142.921 55.3776 141.913 53.6047 141.13 51.7299C140.093 49.3766 138.931 47.0801 137.651 44.8499C136.971 43.6999 136.21 42.6099 135.42 41.5299C134.753 40.5624 133.959 39.688 133.06 38.9299C131.28 37.4999 129.06 36.9299 126.98 38.1599L126.68 38.3499C124.55 39.8199 123.05 42.7899 122.01 45.0699C119.01 51.5299 117.281 58.1499 115.591 64.9499C115.261 66.2599 114.951 67.5699 114.651 68.8899L106.651 94.8899L95.4405 119.61C91.4252 124.789 86.2873 128.99 80.4137 131.897C74.5401 134.803 68.0837 136.339 61.5305 136.39C34.3105 136.97 21.3905 112.39 21.3905 112.39C5.8805 86.9499 1.31052 53.3899 0.220521 42.6599C-0.00947869 40.4299 -0.0195299 39.0999 -0.0195299 39.0999C-0.0207929 35.739 0.89603 32.4415 2.63196 29.5636C4.36789 26.6856 6.85701 24.3365 9.83051 22.7699C12.905 21.212 16.3265 20.4651 19.7705 20.5999C22.9748 20.7339 26.0924 21.6802 28.8305 23.3499C30.9556 24.6269 32.794 26.3292 34.2305 28.3499C36.7905 31.9899 37.3605 36.5199 37.8805 40.8499C38.9558 50.3472 40.829 59.7371 43.4805 68.9199V68.9199Z" fill="url(#paint19_linear)"/>
<path d="M82.9609 49.8499L95.1909 17.1899C99.1859 11.8678 104.365 7.54909 110.319 4.57582C116.272 1.60255 122.836 0.056428 129.491 0.0599215C139.079 -0.0005652 148.402 3.20929 155.921 9.15993C168.501 18.6799 175.991 37.4299 175.991 37.4299C177.083 39.8711 177.645 42.5158 177.641 45.1899C177.636 47.6667 177.143 50.1181 176.19 52.4043C175.237 54.6905 173.844 56.7667 172.089 58.5143C170.334 60.2619 168.252 61.6467 165.961 62.5896C163.671 63.5326 161.218 64.0152 158.741 64.0099C155.986 64.0081 153.266 63.4007 150.773 62.2308C148.279 61.0609 146.073 59.357 144.311 57.2399C144.246 57.1711 144.185 57.0976 144.131 57.0199C142.921 55.3876 141.914 53.6147 141.131 51.7399C140.093 49.3866 138.932 47.0901 137.651 44.8599C136.971 43.7099 136.211 42.6199 135.421 41.5399C134.753 40.5724 133.959 39.6981 133.061 38.9399C131.281 37.5099 129.061 36.9399 126.981 38.1699L126.681 38.3599C124.551 39.8299 123.051 42.7999 122.011 45.0799C119.011 51.5399 117.281 58.1599 115.591 64.9599C115.261 66.2699 114.951 67.5799 114.651 68.8999L106.651 94.8999L82.9609 49.8499Z" fill="url(#paint20_linear)"/>
<path d="M171.811 20.68C170.222 20.6765 168.64 20.8747 167.101 21.27C170.604 26.3417 173.583 31.7562 175.991 37.43C177.083 39.8712 177.645 42.5159 177.641 45.19C177.636 47.6668 177.143 50.1182 176.19 52.4044C175.237 54.6906 173.844 56.7668 172.089 58.5144C170.334 60.262 168.252 61.6468 165.961 62.5897C163.671 63.5327 161.218 64.0153 158.741 64.01C155.393 64.0037 152.107 63.1063 149.221 61.41L147.281 68.58C143.761 80.35 141.281 84.9 141.281 84.9C139.915 88.091 138.289 91.1647 136.421 94.09C135.131 96 133.481 97.92 131.221 98.65C130.435 98.9238 129.595 99.0061 128.771 98.89C127.879 98.7819 127.018 98.4927 126.241 98.04C124.755 96.9224 123.573 95.4512 122.801 93.76C121.845 91.8826 120.987 89.9567 120.231 87.99C118.551 83.93 115.981 73.93 115.981 73.93L113.311 63.46L110.641 52.91L108.741 45.98C103.741 27.93 96.8209 19.05 96.8209 19.05C91.3793 11.2927 83.6698 5.41017 74.7509 2.21002C64.4209 -1.49998 53.5709 0.590024 53.5709 0.590024C36.5709 3.93002 27.6409 15.59 23.7109 21.2C25.5096 21.6697 27.2308 22.3972 28.8209 23.36C30.9461 24.637 32.7845 26.3392 34.2209 28.36C36.7809 32 37.3509 36.53 37.8709 40.86C38.9252 50.2361 40.7581 59.5081 43.3509 68.58C49.1109 49.48 56.0209 40.58 56.0209 40.58C56.793 39.6207 57.7189 38.7962 58.7609 38.14C59.3033 37.807 59.9098 37.5924 60.5409 37.51C61.7104 37.3976 62.8837 37.683 63.8709 38.32C64.0517 38.439 64.2223 38.5728 64.3809 38.72C65.2841 39.5209 66.0597 40.455 66.6809 41.49C68.1194 44.0613 69.3661 46.7352 70.4109 49.49C72.5709 55.57 74.4109 63 74.4109 63L79.9109 84.68C83.9109 99.42 87.3009 106.58 87.3009 106.58C95.6409 125.7 108.411 131.08 108.411 131.08C114.632 134.404 121.549 136.213 128.601 136.36C135.366 136.592 142.087 135.185 148.191 132.26C154.814 128.988 160.623 124.276 165.191 118.47C168.281 114.89 172.821 106.17 172.821 106.17C177.842 96.1749 181.781 85.672 184.571 74.84C186.364 68.0939 187.799 61.2577 188.871 54.36C189.411 50.94 189.921 47.5 190.321 44.05C190.84 40.7841 190.742 37.4497 190.031 34.22C189.882 33.6394 189.699 33.0684 189.481 32.51C187.874 28.4572 184.894 25.0981 181.061 23.02C178.22 21.4821 175.041 20.6778 171.811 20.68Z" fill="url(#paint21_linear)"/>
<path d="M171.811 20.68C170.222 20.6765 168.64 20.8747 167.101 21.27C170.604 26.3417 173.583 31.7562 175.991 37.43C177.083 39.8712 177.645 42.5159 177.641 45.19C177.636 47.6668 177.143 50.1182 176.19 52.4044C175.237 54.6906 173.844 56.7668 172.089 58.5144C170.334 60.262 168.252 61.6468 165.961 62.5897C163.671 63.5327 161.218 64.0153 158.741 64.01C155.393 64.0037 152.107 63.1063 149.221 61.41L147.281 68.58C143.761 80.35 141.281 84.9 141.281 84.9C139.915 88.091 138.289 91.1647 136.421 94.09C135.131 96 133.481 97.92 131.221 98.65C130.435 98.9238 129.595 99.0061 128.771 98.89C127.879 98.7819 127.018 98.4927 126.241 98.04C124.755 96.9224 123.573 95.4512 122.801 93.76C121.845 91.8826 120.987 89.9567 120.231 87.99C118.551 83.93 115.981 73.93 115.981 73.93L113.311 63.46L110.641 52.91L108.741 45.98C103.741 27.93 96.8209 19.05 96.8209 19.05C91.3793 11.2927 83.6698 5.41017 74.7509 2.21002C64.4209 -1.49998 53.5709 0.590024 53.5709 0.590024C36.5709 3.93002 27.6409 15.59 23.7109 21.2C25.5096 21.6697 27.2308 22.3972 28.8209 23.36C30.9461 24.637 32.7845 26.3392 34.2209 28.36C36.7809 32 37.3509 36.53 37.8709 40.86C38.9252 50.2361 40.7581 59.5081 43.3509 68.58C49.1109 49.48 56.0209 40.58 56.0209 40.58C56.793 39.6207 57.7189 38.7962 58.7609 38.14C59.3033 37.807 59.9098 37.5924 60.5409 37.51C61.7104 37.3976 62.8837 37.683 63.8709 38.32C64.0517 38.439 64.2223 38.5728 64.3809 38.72C65.2841 39.5209 66.0597 40.455 66.6809 41.49C68.1194 44.0613 69.3661 46.7352 70.4109 49.49C72.5709 55.57 74.4109 63 74.4109 63L79.9109 84.68C83.9109 99.42 87.3009 106.58 87.3009 106.58C95.6409 125.7 108.411 131.08 108.411 131.08C114.632 134.404 121.549 136.213 128.601 136.36C135.366 136.592 142.087 135.185 148.191 132.26C154.814 128.988 160.623 124.276 165.191 118.47C168.281 114.89 172.821 106.17 172.821 106.17C177.842 96.1749 181.781 85.672 184.571 74.84C186.364 68.0939 187.799 61.2577 188.871 54.36C189.411 50.94 189.921 47.5 190.321 44.05C190.84 40.7841 190.742 37.4497 190.031 34.22C189.882 33.6394 189.699 33.0684 189.481 32.51C187.874 28.4572 184.894 25.0981 181.061 23.02C178.22 21.4821 175.041 20.6778 171.811 20.68Z" fill="url(#paint22_radial)"/>
<path d="M171.811 20.68C170.222 20.6765 168.64 20.8747 167.101 21.27C170.604 26.3417 173.583 31.7562 175.991 37.43C177.083 39.8712 177.645 42.5159 177.641 45.19C177.636 47.6668 177.143 50.1182 176.19 52.4044C175.237 54.6906 173.844 56.7668 172.089 58.5144C170.334 60.262 168.252 61.6468 165.961 62.5897C163.671 63.5327 161.218 64.0153 158.741 64.01C155.393 64.0037 152.107 63.1063 149.221 61.41L147.281 68.58C143.761 80.35 141.281 84.9 141.281 84.9C139.915 88.091 138.289 91.1647 136.421 94.09C135.131 96 133.481 97.92 131.221 98.65C130.435 98.9238 129.595 99.0061 128.771 98.89C127.879 98.7819 127.018 98.4927 126.241 98.04C124.755 96.9224 123.573 95.4512 122.801 93.76C121.845 91.8826 120.987 89.9567 120.231 87.99C118.551 83.93 115.981 73.93 115.981 73.93L113.311 63.46L110.641 52.91L108.741 45.98C103.741 27.93 96.8209 19.05 96.8209 19.05C91.3793 11.2927 83.6698 5.41017 74.7509 2.21002C64.4209 -1.49998 53.5709 0.590024 53.5709 0.590024C36.5709 3.93002 27.6409 15.59 23.7109 21.2C25.5096 21.6697 27.2308 22.3972 28.8209 23.36C30.9461 24.637 32.7845 26.3392 34.2209 28.36C36.7809 32 37.3509 36.53 37.8709 40.86C38.9252 50.2361 40.7581 59.5081 43.3509 68.58C49.1109 49.48 56.0209 40.58 56.0209 40.58C56.793 39.6207 57.7189 38.7962 58.7609 38.14C59.3033 37.807 59.9098 37.5924 60.5409 37.51C61.7104 37.3976 62.8837 37.683 63.8709 38.32C64.0517 38.439 64.2223 38.5728 64.3809 38.72C65.2841 39.5209 66.0597 40.455 66.6809 41.49C68.1194 44.0613 69.3661 46.7352 70.4109 49.49C72.5709 55.57 74.4109 63 74.4109 63L79.9109 84.68C83.9109 99.42 87.3009 106.58 87.3009 106.58C95.6409 125.7 108.411 131.08 108.411 131.08C114.632 134.404 121.549 136.213 128.601 136.36C135.366 136.592 142.087 135.185 148.191 132.26C154.814 128.988 160.623 124.276 165.191 118.47C168.281 114.89 172.821 106.17 172.821 106.17C177.842 96.1749 181.781 85.672 184.571 74.84C186.364 68.0939 187.799 61.2577 188.871 54.36C189.411 50.94 189.921 47.5 190.321 44.05C190.84 40.7841 190.742 37.4497 190.031 34.22C189.882 33.6394 189.699 33.0684 189.481 32.51C187.874 28.4572 184.894 25.0981 181.061 23.02C178.22 21.4821 175.041 20.6778 171.811 20.68Z" fill="url(#paint23_radial)"/>
<path d="M171.811 20.68C170.222 20.6765 168.64 20.8747 167.101 21.27C170.604 26.3417 173.583 31.7562 175.991 37.43C177.083 39.8712 177.645 42.5159 177.641 45.19C177.636 47.6668 177.143 50.1182 176.19 52.4044C175.237 54.6906 173.844 56.7668 172.089 58.5144C170.334 60.262 168.252 61.6468 165.961 62.5897C163.671 63.5327 161.218 64.0153 158.741 64.01C155.393 64.0037 152.107 63.1063 149.221 61.41L147.281 68.58C143.761 80.35 141.281 84.9 141.281 84.9C139.915 88.091 138.289 91.1647 136.421 94.09C135.131 96 133.481 97.92 131.221 98.65C130.435 98.9238 129.595 99.0061 128.771 98.89C127.879 98.7819 127.018 98.4927 126.241 98.04C124.755 96.9224 123.573 95.4512 122.801 93.76C121.845 91.8826 120.987 89.9567 120.231 87.99C118.551 83.93 115.981 73.93 115.981 73.93L113.311 63.46L110.641 52.91L108.741 45.98C103.741 27.93 96.8209 19.05 96.8209 19.05C91.3793 11.2927 83.6698 5.41017 74.7509 2.21002C64.4209 -1.49998 53.5709 0.590024 53.5709 0.590024C36.5709 3.93002 27.6409 15.59 23.7109 21.2C25.5096 21.6697 27.2308 22.3972 28.8209 23.36C30.9461 24.637 32.7845 26.3392 34.2209 28.36C36.7809 32 37.3509 36.53 37.8709 40.86C38.9252 50.2361 40.7581 59.5081 43.3509 68.58C49.1109 49.48 56.0209 40.58 56.0209 40.58C56.793 39.6207 57.7189 38.7962 58.7609 38.14C59.3033 37.807 59.9098 37.5924 60.5409 37.51C61.7104 37.3976 62.8837 37.683 63.8709 38.32C64.0517 38.439 64.2223 38.5728 64.3809 38.72C65.2841 39.5209 66.0597 40.455 66.6809 41.49C68.1194 44.0613 69.3661 46.7352 70.4109 49.49C72.5709 55.57 74.4109 63 74.4109 63L79.9109 84.68C83.9109 99.42 87.3009 106.58 87.3009 106.58C95.6409 125.7 108.411 131.08 108.411 131.08C114.632 134.404 121.549 136.213 128.601 136.36C135.366 136.592 142.087 135.185 148.191 132.26C154.814 128.988 160.623 124.276 165.191 118.47C168.281 114.89 172.821 106.17 172.821 106.17C177.842 96.1749 181.781 85.672 184.571 74.84C186.364 68.0939 187.799 61.2577 188.871 54.36C189.411 50.94 189.921 47.5 190.321 44.05C190.84 40.7841 190.742 37.4497 190.031 34.22C189.882 33.6394 189.699 33.0684 189.481 32.51C187.874 28.4572 184.894 25.0981 181.061 23.02C178.22 21.4821 175.041 20.6778 171.811 20.68Z" fill="url(#paint24_radial)"/>
<path d="M171.811 20.68C170.222 20.6765 168.64 20.8747 167.101 21.27C170.604 26.3417 173.583 31.7562 175.991 37.43C177.083 39.8712 177.645 42.5159 177.641 45.19C177.636 47.6668 177.143 50.1182 176.19 52.4044C175.237 54.6906 173.844 56.7668 172.089 58.5144C170.334 60.262 168.252 61.6468 165.961 62.5897C163.671 63.5327 161.218 64.0153 158.741 64.01C155.393 64.0037 152.107 63.1063 149.221 61.41L147.281 68.58C143.761 80.35 141.281 84.9 141.281 84.9C139.915 88.091 138.289 91.1647 136.421 94.09C135.131 96 133.481 97.92 131.221 98.65C130.435 98.9238 129.595 99.0061 128.771 98.89C127.879 98.7819 127.018 98.4927 126.241 98.04C124.755 96.9224 123.573 95.4512 122.801 93.76C121.845 91.8826 120.987 89.9567 120.231 87.99C118.551 83.93 115.981 73.93 115.981 73.93L113.311 63.46L110.641 52.91L108.741 45.98C103.741 27.93 96.8209 19.05 96.8209 19.05C91.3793 11.2927 83.6698 5.41017 74.7509 2.21002C64.4209 -1.49998 53.5709 0.590024 53.5709 0.590024C36.5709 3.93002 27.6409 15.59 23.7109 21.2C25.5096 21.6697 27.2308 22.3972 28.8209 23.36C30.9461 24.637 32.7845 26.3392 34.2209 28.36C36.7809 32 37.3509 36.53 37.8709 40.86C38.9252 50.2361 40.7581 59.5081 43.3509 68.58C49.1109 49.48 56.0209 40.58 56.0209 40.58C56.793 39.6207 57.7189 38.7962 58.7609 38.14C59.3033 37.807 59.9098 37.5924 60.5409 37.51C61.7104 37.3976 62.8837 37.683 63.8709 38.32C64.0517 38.439 64.2223 38.5728 64.3809 38.72C65.2841 39.5209 66.0597 40.455 66.6809 41.49C68.1194 44.0613 69.3661 46.7352 70.4109 49.49C72.5709 55.57 74.4109 63 74.4109 63L79.9109 84.68C83.9109 99.42 87.3009 106.58 87.3009 106.58C95.6409 125.7 108.411 131.08 108.411 131.08C114.632 134.404 121.549 136.213 128.601 136.36C135.366 136.592 142.087 135.185 148.191 132.26C154.814 128.988 160.623 124.276 165.191 118.47C168.281 114.89 172.821 106.17 172.821 106.17C177.842 96.1749 181.781 85.672 184.571 74.84C186.364 68.0939 187.799 61.2577 188.871 54.36C189.411 50.94 189.921 47.5 190.321 44.05C190.84 40.7841 190.742 37.4497 190.031 34.22C189.882 33.6394 189.699 33.0684 189.481 32.51C187.874 28.4572 184.894 25.0981 181.061 23.02C178.22 21.4821 175.041 20.6778 171.811 20.68Z" fill="url(#paint25_radial)"/>
<path d="M171.811 20.68C170.222 20.6765 168.64 20.8747 167.101 21.27C170.604 26.3417 173.583 31.7562 175.991 37.43C177.083 39.8712 177.645 42.5159 177.641 45.19C177.636 47.6668 177.143 50.1182 176.19 52.4044C175.237 54.6906 173.844 56.7668 172.089 58.5144C170.334 60.262 168.252 61.6468 165.961 62.5897C163.671 63.5327 161.218 64.0153 158.741 64.01C155.393 64.0037 152.107 63.1063 149.221 61.41L147.281 68.58C143.761 80.35 141.281 84.9 141.281 84.9C139.915 88.091 138.289 91.1647 136.421 94.09C135.131 96 133.481 97.92 131.221 98.65C130.435 98.9238 129.595 99.0061 128.771 98.89C127.879 98.7819 127.018 98.4927 126.241 98.04C124.755 96.9224 123.573 95.4512 122.801 93.76C121.845 91.8826 120.987 89.9567 120.231 87.99C118.551 83.93 115.981 73.93 115.981 73.93L113.311 63.46L110.641 52.91L108.741 45.98C103.741 27.93 96.8209 19.05 96.8209 19.05C91.3793 11.2927 83.6698 5.41017 74.7509 2.21002C64.4209 -1.49998 53.5709 0.590024 53.5709 0.590024C36.5709 3.93002 27.6409 15.59 23.7109 21.2C25.5096 21.6697 27.2308 22.3972 28.8209 23.36C30.9461 24.637 32.7845 26.3392 34.2209 28.36C36.7809 32 37.3509 36.53 37.8709 40.86C38.9252 50.2361 40.7581 59.5081 43.3509 68.58C49.1109 49.48 56.0209 40.58 56.0209 40.58C56.793 39.6207 57.7189 38.7962 58.7609 38.14C59.3033 37.807 59.9098 37.5924 60.5409 37.51C61.7104 37.3976 62.8837 37.683 63.8709 38.32C64.0517 38.439 64.2223 38.5728 64.3809 38.72C65.2841 39.5209 66.0597 40.455 66.6809 41.49C68.1194 44.0613 69.3661 46.7352 70.4109 49.49C72.5709 55.57 74.4109 63 74.4109 63L79.9109 84.68C83.9109 99.42 87.3009 106.58 87.3009 106.58C95.6409 125.7 108.411 131.08 108.411 131.08C114.632 134.404 121.549 136.213 128.601 136.36C135.366 136.592 142.087 135.185 148.191 132.26C154.814 128.988 160.623 124.276 165.191 118.47C168.281 114.89 172.821 106.17 172.821 106.17C177.842 96.1749 181.781 85.672 184.571 74.84C186.364 68.0939 187.799 61.2577 188.871 54.36C189.411 50.94 189.921 47.5 190.321 44.05C190.84 40.7841 190.742 37.4497 190.031 34.22C189.882 33.6394 189.699 33.0684 189.481 32.51C187.874 28.4572 184.894 25.0981 181.061 23.02C178.22 21.4821 175.041 20.6778 171.811 20.68Z" fill="url(#paint26_radial)"/>
<path d="M171.811 20.68C170.222 20.6765 168.64 20.8747 167.101 21.27C170.604 26.3417 173.583 31.7562 175.991 37.43C177.083 39.8712 177.645 42.5159 177.641 45.19C177.636 47.6668 177.143 50.1182 176.19 52.4044C175.237 54.6906 173.844 56.7668 172.089 58.5144C170.334 60.262 168.252 61.6468 165.961 62.5897C163.671 63.5327 161.218 64.0153 158.741 64.01C155.393 64.0037 152.107 63.1063 149.221 61.41L147.281 68.58C143.761 80.35 141.281 84.9 141.281 84.9C139.915 88.091 138.289 91.1647 136.421 94.09C135.131 96 133.481 97.92 131.221 98.65C130.435 98.9238 129.595 99.0061 128.771 98.89C127.879 98.7819 127.018 98.4927 126.241 98.04C124.755 96.9224 123.573 95.4512 122.801 93.76C121.845 91.8826 120.987 89.9567 120.231 87.99C118.551 83.93 115.981 73.93 115.981 73.93L113.311 63.46L110.641 52.91L108.741 45.98C103.741 27.93 96.8209 19.05 96.8209 19.05C91.3793 11.2927 83.6698 5.41017 74.7509 2.21002C64.4209 -1.49998 53.5709 0.590024 53.5709 0.590024C36.5709 3.93002 27.6409 15.59 23.7109 21.2C25.5096 21.6697 27.2308 22.3972 28.8209 23.36C30.9461 24.637 32.7845 26.3392 34.2209 28.36C36.7809 32 37.3509 36.53 37.8709 40.86C38.9252 50.2361 40.7581 59.5081 43.3509 68.58C49.1109 49.48 56.0209 40.58 56.0209 40.58C56.793 39.6207 57.7189 38.7962 58.7609 38.14C59.3033 37.807 59.9098 37.5924 60.5409 37.51C61.7104 37.3976 62.8837 37.683 63.8709 38.32C64.0517 38.439 64.2223 38.5728 64.3809 38.72C65.2841 39.5209 66.0597 40.455 66.6809 41.49C68.1194 44.0613 69.3661 46.7352 70.4109 49.49C72.5709 55.57 74.4109 63 74.4109 63L79.9109 84.68C83.9109 99.42 87.3009 106.58 87.3009 106.58C95.6409 125.7 108.411 131.08 108.411 131.08C114.632 134.404 121.549 136.213 128.601 136.36C135.366 136.592 142.087 135.185 148.191 132.26C154.814 128.988 160.623 124.276 165.191 118.47C168.281 114.89 172.821 106.17 172.821 106.17C177.842 96.1749 181.781 85.672 184.571 74.84C186.364 68.0939 187.799 61.2577 188.871 54.36C189.411 50.94 189.921 47.5 190.321 44.05C190.84 40.7841 190.742 37.4497 190.031 34.22C189.882 33.6394 189.699 33.0684 189.481 32.51C187.874 28.4572 184.894 25.0981 181.061 23.02C178.22 21.4821 175.041 20.6778 171.811 20.68Z" fill="url(#paint27_radial)"/>
<path d="M171.811 20.68C170.222 20.6765 168.64 20.8747 167.101 21.27C170.604 26.3417 173.583 31.7562 175.991 37.43C177.083 39.8712 177.645 42.5159 177.641 45.19C177.636 47.6668 177.143 50.1182 176.19 52.4044C175.237 54.6906 173.844 56.7668 172.089 58.5144C170.334 60.262 168.252 61.6468 165.961 62.5897C163.671 63.5327 161.218 64.0153 158.741 64.01C155.393 64.0037 152.107 63.1063 149.221 61.41L147.281 68.58C143.761 80.35 141.281 84.9 141.281 84.9C139.915 88.091 138.289 91.1647 136.421 94.09C135.131 96 133.481 97.92 131.221 98.65C130.435 98.9238 129.595 99.0061 128.771 98.89C127.879 98.7819 127.018 98.4927 126.241 98.04C124.755 96.9224 123.573 95.4512 122.801 93.76C121.845 91.8826 120.987 89.9567 120.231 87.99C118.551 83.93 115.981 73.93 115.981 73.93L113.311 63.46L110.641 52.91L108.741 45.98C103.741 27.93 96.8209 19.05 96.8209 19.05C91.3793 11.2927 83.6698 5.41017 74.7509 2.21002C64.4209 -1.49998 53.5709 0.590024 53.5709 0.590024C36.5709 3.93002 27.6409 15.59 23.7109 21.2C25.5096 21.6697 27.2308 22.3972 28.8209 23.36C30.9461 24.637 32.7845 26.3392 34.2209 28.36C36.7809 32 37.3509 36.53 37.8709 40.86C38.9252 50.2361 40.7581 59.5081 43.3509 68.58C49.1109 49.48 56.0209 40.58 56.0209 40.58C56.793 39.6207 57.7189 38.7962 58.7609 38.14C59.3033 37.807 59.9098 37.5924 60.5409 37.51C61.7104 37.3976 62.8837 37.683 63.8709 38.32C64.0517 38.439 64.2223 38.5728 64.3809 38.72C65.2841 39.5209 66.0597 40.455 66.6809 41.49C68.1194 44.0613 69.3661 46.7352 70.4109 49.49C72.5709 55.57 74.4109 63 74.4109 63L79.9109 84.68C83.9109 99.42 87.3009 106.58 87.3009 106.58C95.6409 125.7 108.411 131.08 108.411 131.08C114.632 134.404 121.549 136.213 128.601 136.36C135.366 136.592 142.087 135.185 148.191 132.26C154.814 128.988 160.623 124.276 165.191 118.47C168.281 114.89 172.821 106.17 172.821 106.17C177.842 96.1749 181.781 85.672 184.571 74.84C186.364 68.0939 187.799 61.2577 188.871 54.36C189.411 50.94 189.921 47.5 190.321 44.05C190.84 40.7841 190.742 37.4497 190.031 34.22C189.882 33.6394 189.699 33.0684 189.481 32.51C187.874 28.4572 184.894 25.0981 181.061 23.02C178.22 21.4821 175.041 20.6778 171.811 20.68Z" fill="url(#paint28_radial)"/>
<path d="M171.811 20.68C170.222 20.6765 168.64 20.8747 167.101 21.27C170.604 26.3417 173.583 31.7562 175.991 37.43C177.083 39.8712 177.645 42.5159 177.641 45.19C177.636 47.6668 177.143 50.1182 176.19 52.4044C175.237 54.6906 173.844 56.7668 172.089 58.5144C170.334 60.262 168.252 61.6468 165.961 62.5897C163.671 63.5327 161.218 64.0153 158.741 64.01C155.393 64.0037 152.107 63.1063 149.221 61.41L147.281 68.58C143.761 80.35 141.281 84.9 141.281 84.9C139.915 88.091 138.289 91.1647 136.421 94.09C135.131 96 133.481 97.92 131.221 98.65C130.435 98.9238 129.595 99.0061 128.771 98.89C127.879 98.7819 127.018 98.4927 126.241 98.04C124.755 96.9224 123.573 95.4512 122.801 93.76C121.845 91.8826 120.987 89.9567 120.231 87.99C118.551 83.93 115.981 73.93 115.981 73.93L113.311 63.46L110.641 52.91L108.741 45.98C103.741 27.93 96.8209 19.05 96.8209 19.05C91.3793 11.2927 83.6698 5.41017 74.7509 2.21002C64.4209 -1.49998 53.5709 0.590024 53.5709 0.590024C36.5709 3.93002 27.6409 15.59 23.7109 21.2C25.5096 21.6697 27.2308 22.3972 28.8209 23.36C30.9461 24.637 32.7845 26.3392 34.2209 28.36C36.7809 32 37.3509 36.53 37.8709 40.86C38.9252 50.2361 40.7581 59.5081 43.3509 68.58C49.1109 49.48 56.0209 40.58 56.0209 40.58C56.793 39.6207 57.7189 38.7962 58.7609 38.14C59.3033 37.807 59.9098 37.5924 60.5409 37.51C61.7104 37.3976 62.8837 37.683 63.8709 38.32C64.0517 38.439 64.2223 38.5728 64.3809 38.72C65.2841 39.5209 66.0597 40.455 66.6809 41.49C68.1194 44.0613 69.3661 46.7352 70.4109 49.49C72.5709 55.57 74.4109 63 74.4109 63L79.9109 84.68C83.9109 99.42 87.3009 106.58 87.3009 106.58C95.6409 125.7 108.411 131.08 108.411 131.08C114.632 134.404 121.549 136.213 128.601 136.36C135.366 136.592 142.087 135.185 148.191 132.26C154.814 128.988 160.623 124.276 165.191 118.47C168.281 114.89 172.821 106.17 172.821 106.17C177.842 96.1749 181.781 85.672 184.571 74.84C186.364 68.0939 187.799 61.2577 188.871 54.36C189.411 50.94 189.921 47.5 190.321 44.05C190.84 40.7841 190.742 37.4497 190.031 34.22C189.882 33.6394 189.699 33.0684 189.481 32.51C187.874 28.4572 184.894 25.0981 181.061 23.02C178.22 21.4821 175.041 20.6778 171.811 20.68Z" fill="url(#paint29_radial)"/>
<path d="M171.811 20.68C170.222 20.6765 168.64 20.8747 167.101 21.27C170.604 26.3417 173.583 31.7562 175.991 37.43C177.083 39.8712 177.645 42.5159 177.641 45.19C177.636 47.6668 177.143 50.1182 176.19 52.4044C175.237 54.6906 173.844 56.7668 172.089 58.5144C170.334 60.262 168.252 61.6468 165.961 62.5897C163.671 63.5327 161.218 64.0153 158.741 64.01C155.393 64.0037 152.107 63.1063 149.221 61.41L147.281 68.58C143.761 80.35 141.281 84.9 141.281 84.9C139.915 88.091 138.289 91.1647 136.421 94.09C135.131 96 133.481 97.92 131.221 98.65C130.435 98.9238 129.595 99.0061 128.771 98.89C127.879 98.7819 127.018 98.4927 126.241 98.04C124.755 96.9224 123.573 95.4512 122.801 93.76C121.845 91.8826 120.987 89.9567 120.231 87.99C118.551 83.93 115.981 73.93 115.981 73.93L113.311 63.46L110.641 52.91L108.741 45.98C103.741 27.93 96.8209 19.05 96.8209 19.05C91.3793 11.2927 83.6698 5.41017 74.7509 2.21002C64.4209 -1.49998 53.5709 0.590024 53.5709 0.590024C36.5709 3.93002 27.6409 15.59 23.7109 21.2C25.5096 21.6697 27.2308 22.3972 28.8209 23.36C30.9461 24.637 32.7845 26.3392 34.2209 28.36C36.7809 32 37.3509 36.53 37.8709 40.86C38.9252 50.2361 40.7581 59.5081 43.3509 68.58C49.1109 49.48 56.0209 40.58 56.0209 40.58C56.793 39.6207 57.7189 38.7962 58.7609 38.14C59.3033 37.807 59.9098 37.5924 60.5409 37.51C61.7104 37.3976 62.8837 37.683 63.8709 38.32C64.0517 38.439 64.2223 38.5728 64.3809 38.72C65.2841 39.5209 66.0597 40.455 66.6809 41.49C68.1194 44.0613 69.3661 46.7352 70.4109 49.49C72.5709 55.57 74.4109 63 74.4109 63L79.9109 84.68C83.9109 99.42 87.3009 106.58 87.3009 106.58C95.6409 125.7 108.411 131.08 108.411 131.08C114.632 134.404 121.549 136.213 128.601 136.36C135.366 136.592 142.087 135.185 148.191 132.26C154.814 128.988 160.623 124.276 165.191 118.47C168.281 114.89 172.821 106.17 172.821 106.17C177.842 96.1749 181.781 85.672 184.571 74.84C186.364 68.0939 187.799 61.2577 188.871 54.36C189.411 50.94 189.921 47.5 190.321 44.05C190.84 40.7841 190.742 37.4497 190.031 34.22C189.882 33.6394 189.699 33.0684 189.481 32.51C187.874 28.4572 184.894 25.0981 181.061 23.02C178.22 21.4821 175.041 20.6778 171.811 20.68Z" fill="url(#paint30_radial)"/>
<path d="M171.811 20.68C170.222 20.6765 168.64 20.8747 167.101 21.27C170.604 26.3417 173.583 31.7562 175.991 37.43C177.083 39.8712 177.645 42.5159 177.641 45.19C177.636 47.6668 177.143 50.1182 176.19 52.4044C175.237 54.6906 173.844 56.7668 172.089 58.5144C170.334 60.262 168.252 61.6468 165.961 62.5897C163.671 63.5327 161.218 64.0153 158.741 64.01C155.393 64.0037 152.107 63.1063 149.221 61.41L147.281 68.58C143.761 80.35 141.281 84.9 141.281 84.9C139.915 88.091 138.289 91.1647 136.421 94.09C135.131 96 133.481 97.92 131.221 98.65C130.435 98.9238 129.595 99.0061 128.771 98.89C127.879 98.7819 127.018 98.4927 126.241 98.04C124.755 96.9224 123.573 95.4512 122.801 93.76C121.845 91.8826 120.987 89.9567 120.231 87.99C118.551 83.93 115.981 73.93 115.981 73.93L113.311 63.46L110.641 52.91L108.741 45.98C103.741 27.93 96.8209 19.05 96.8209 19.05C91.3793 11.2927 83.6698 5.41017 74.7509 2.21002C64.4209 -1.49998 53.5709 0.590024 53.5709 0.590024C36.5709 3.93002 27.6409 15.59 23.7109 21.2C25.5096 21.6697 27.2308 22.3972 28.8209 23.36C30.9461 24.637 32.7845 26.3392 34.2209 28.36C36.7809 32 37.3509 36.53 37.8709 40.86C38.9252 50.2361 40.7581 59.5081 43.3509 68.58C49.1109 49.48 56.0209 40.58 56.0209 40.58C56.793 39.6207 57.7189 38.7962 58.7609 38.14C59.3033 37.807 59.9098 37.5924 60.5409 37.51C61.7104 37.3976 62.8837 37.683 63.8709 38.32C64.0517 38.439 64.2223 38.5728 64.3809 38.72C65.2841 39.5209 66.0597 40.455 66.6809 41.49C68.1194 44.0613 69.3661 46.7352 70.4109 49.49C72.5709 55.57 74.4109 63 74.4109 63L79.9109 84.68C83.9109 99.42 87.3009 106.58 87.3009 106.58C95.6409 125.7 108.411 131.08 108.411 131.08C114.632 134.404 121.549 136.213 128.601 136.36C135.366 136.592 142.087 135.185 148.191 132.26C154.814 128.988 160.623 124.276 165.191 118.47C168.281 114.89 172.821 106.17 172.821 106.17C177.842 96.1749 181.781 85.672 184.571 74.84C186.364 68.0939 187.799 61.2577 188.871 54.36C189.411 50.94 189.921 47.5 190.321 44.05C190.84 40.7841 190.742 37.4497 190.031 34.22C189.882 33.6394 189.699 33.0684 189.481 32.51C187.874 28.4572 184.894 25.0981 181.061 23.02C178.22 21.4821 175.041 20.6778 171.811 20.68Z" fill="url(#paint31_radial)"/>
<path d="M171.811 20.68C170.222 20.6765 168.64 20.8747 167.101 21.27C170.604 26.3417 173.583 31.7562 175.991 37.43C177.083 39.8712 177.645 42.5159 177.641 45.19C177.636 47.6668 177.143 50.1182 176.19 52.4044C175.237 54.6906 173.844 56.7668 172.089 58.5144C170.334 60.262 168.252 61.6468 165.961 62.5897C163.671 63.5327 161.218 64.0153 158.741 64.01C155.393 64.0037 152.107 63.1063 149.221 61.41L147.281 68.58C143.761 80.35 141.281 84.9 141.281 84.9C139.915 88.091 138.289 91.1647 136.421 94.09C135.131 96 133.481 97.92 131.221 98.65C130.435 98.9238 129.595 99.0061 128.771 98.89C127.879 98.7819 127.018 98.4927 126.241 98.04C124.755 96.9224 123.573 95.4512 122.801 93.76C121.845 91.8826 120.987 89.9567 120.231 87.99C118.551 83.93 115.981 73.93 115.981 73.93L113.311 63.46L110.641 52.91L108.741 45.98C103.741 27.93 96.8209 19.05 96.8209 19.05C91.3793 11.2927 83.6698 5.41017 74.7509 2.21002C64.4209 -1.49998 53.5709 0.590024 53.5709 0.590024C36.5709 3.93002 27.6409 15.59 23.7109 21.2C25.5096 21.6697 27.2308 22.3972 28.8209 23.36C30.9461 24.637 32.7845 26.3392 34.2209 28.36C36.7809 32 37.3509 36.53 37.8709 40.86C38.9252 50.2361 40.7581 59.5081 43.3509 68.58C49.1109 49.48 56.0209 40.58 56.0209 40.58C56.793 39.6207 57.7189 38.7962 58.7609 38.14C59.3033 37.807 59.9098 37.5924 60.5409 37.51C61.7104 37.3976 62.8837 37.683 63.8709 38.32C64.0517 38.439 64.2223 38.5728 64.3809 38.72C65.2841 39.5209 66.0597 40.455 66.6809 41.49C68.1194 44.0613 69.3661 46.7352 70.4109 49.49C72.5709 55.57 74.4109 63 74.4109 63L79.9109 84.68C83.9109 99.42 87.3009 106.58 87.3009 106.58C95.6409 125.7 108.411 131.08 108.411 131.08C114.632 134.404 121.549 136.213 128.601 136.36C135.366 136.592 142.087 135.185 148.191 132.26C154.814 128.988 160.623 124.276 165.191 118.47C168.281 114.89 172.821 106.17 172.821 106.17C177.842 96.1749 181.781 85.672 184.571 74.84C186.364 68.0939 187.799 61.2577 188.871 54.36C189.411 50.94 189.921 47.5 190.321 44.05C190.84 40.7841 190.742 37.4497 190.031 34.22C189.882 33.6394 189.699 33.0684 189.481 32.51C187.874 28.4572 184.894 25.0981 181.061 23.02C178.22 21.4821 175.041 20.6778 171.811 20.68Z" fill="url(#paint32_radial)"/>
<path d="M171.811 20.68C170.222 20.6765 168.64 20.8747 167.101 21.27C170.604 26.3417 173.583 31.7562 175.991 37.43C177.083 39.8712 177.645 42.5159 177.641 45.19C177.636 47.6668 177.143 50.1182 176.19 52.4044C175.237 54.6906 173.844 56.7668 172.089 58.5144C170.334 60.262 168.252 61.6468 165.961 62.5897C163.671 63.5327 161.218 64.0153 158.741 64.01C155.393 64.0037 152.107 63.1063 149.221 61.41L147.281 68.58C143.761 80.35 141.281 84.9 141.281 84.9C139.915 88.091 138.289 91.1647 136.421 94.09C135.131 96 133.481 97.92 131.221 98.65C130.435 98.9238 129.595 99.0061 128.771 98.89C127.879 98.7819 127.018 98.4927 126.241 98.04C124.755 96.9224 123.573 95.4512 122.801 93.76C121.845 91.8826 120.987 89.9567 120.231 87.99C118.551 83.93 115.981 73.93 115.981 73.93L113.311 63.46L110.641 52.91L108.741 45.98C103.741 27.93 96.8209 19.05 96.8209 19.05C91.3793 11.2927 83.6698 5.41017 74.7509 2.21002C64.4209 -1.49998 53.5709 0.590024 53.5709 0.590024C36.5709 3.93002 27.6409 15.59 23.7109 21.2C25.5096 21.6697 27.2308 22.3972 28.8209 23.36C30.9461 24.637 32.7845 26.3392 34.2209 28.36C36.7809 32 37.3509 36.53 37.8709 40.86C38.9252 50.2361 40.7581 59.5081 43.3509 68.58C49.1109 49.48 56.0209 40.58 56.0209 40.58C56.793 39.6207 57.7189 38.7962 58.7609 38.14C59.3033 37.807 59.9098 37.5924 60.5409 37.51C61.7104 37.3976 62.8837 37.683 63.8709 38.32C64.0517 38.439 64.2223 38.5728 64.3809 38.72C65.2841 39.5209 66.0597 40.455 66.6809 41.49C68.1194 44.0613 69.3661 46.7352 70.4109 49.49C72.5709 55.57 74.4109 63 74.4109 63L79.9109 84.68C83.9109 99.42 87.3009 106.58 87.3009 106.58C95.6409 125.7 108.411 131.08 108.411 131.08C114.632 134.404 121.549 136.213 128.601 136.36C135.366 136.592 142.087 135.185 148.191 132.26C154.814 128.988 160.623 124.276 165.191 118.47C168.281 114.89 172.821 106.17 172.821 106.17C177.842 96.1749 181.781 85.672 184.571 74.84C186.364 68.0939 187.799 61.2577 188.871 54.36C189.411 50.94 189.921 47.5 190.321 44.05C190.84 40.7841 190.742 37.4497 190.031 34.22C189.882 33.6394 189.699 33.0684 189.481 32.51C187.874 28.4572 184.894 25.0981 181.061 23.02C178.22 21.4821 175.041 20.6778 171.811 20.68Z" fill="url(#paint33_radial)"/>
<path d="M171.811 20.68C170.222 20.6765 168.64 20.8747 167.101 21.27C170.604 26.3417 173.583 31.7562 175.991 37.43C177.083 39.8712 177.645 42.5159 177.641 45.19C177.636 47.6668 177.143 50.1182 176.19 52.4044C175.237 54.6906 173.844 56.7668 172.089 58.5144C170.334 60.262 168.252 61.6468 165.961 62.5897C163.671 63.5327 161.218 64.0153 158.741 64.01C155.393 64.0037 152.107 63.1063 149.221 61.41L147.281 68.58C143.761 80.35 141.281 84.9 141.281 84.9C139.915 88.091 138.289 91.1647 136.421 94.09C135.131 96 133.481 97.92 131.221 98.65C130.435 98.9238 129.595 99.0061 128.771 98.89C127.879 98.7819 127.018 98.4927 126.241 98.04C124.755 96.9224 123.573 95.4512 122.801 93.76C121.845 91.8826 120.987 89.9567 120.231 87.99C118.551 83.93 115.981 73.93 115.981 73.93L113.311 63.46L110.641 52.91L108.741 45.98C103.741 27.93 96.8209 19.05 96.8209 19.05C91.3793 11.2927 83.6698 5.41017 74.7509 2.21002C64.4209 -1.49998 53.5709 0.590024 53.5709 0.590024C36.5709 3.93002 27.6409 15.59 23.7109 21.2C25.5096 21.6697 27.2308 22.3972 28.8209 23.36C30.9461 24.637 32.7845 26.3392 34.2209 28.36C36.7809 32 37.3509 36.53 37.8709 40.86C38.9252 50.2361 40.7581 59.5081 43.3509 68.58C49.1109 49.48 56.0209 40.58 56.0209 40.58C56.793 39.6207 57.7189 38.7962 58.7609 38.14C59.3033 37.807 59.9098 37.5924 60.5409 37.51C61.7104 37.3976 62.8837 37.683 63.8709 38.32C64.0517 38.439 64.2223 38.5728 64.3809 38.72C65.2841 39.5209 66.0597 40.455 66.6809 41.49C68.1194 44.0613 69.3661 46.7352 70.4109 49.49C72.5709 55.57 74.4109 63 74.4109 63L79.9109 84.68C83.9109 99.42 87.3009 106.58 87.3009 106.58C95.6409 125.7 108.411 131.08 108.411 131.08C114.632 134.404 121.549 136.213 128.601 136.36C135.366 136.592 142.087 135.185 148.191 132.26C154.814 128.988 160.623 124.276 165.191 118.47C168.281 114.89 172.821 106.17 172.821 106.17C177.842 96.1749 181.781 85.672 184.571 74.84C186.364 68.0939 187.799 61.2577 188.871 54.36C189.411 50.94 189.921 47.5 190.321 44.05C190.84 40.7841 190.742 37.4497 190.031 34.22C189.882 33.6394 189.699 33.0684 189.481 32.51C187.874 28.4572 184.894 25.0981 181.061 23.02C178.22 21.4821 175.041 20.6778 171.811 20.68Z" fill="url(#paint34_linear)"/>
</g>
<defs>
<linearGradient id="paint0_linear" x1="8.57047" y1="92.1299" x2="156.81" y2="32.2099" gradientUnits="userSpaceOnUse">
<stop offset="0.13" stop-color="#1CBBF3"/>
<stop offset="0.34" stop-color="#1F99A5"/>
<stop offset="0.45" stop-color="#209CA6"/>
<stop offset="0.51" stop-color="#24A4AA"/>
<stop offset="0.57" stop-color="#2BB3B0"/>
<stop offset="0.6" stop-color="#30BDB4"/>
<stop offset="0.79" stop-color="#38BA90"/>
<stop offset="1" stop-color="#60F05A"/>
</linearGradient>
<radialGradient id="paint1_radial" cx="0" cy="0" r="1" gradientUnits="userSpaceOnUse" gradientTransform="translate(107.331 56.9013) rotate(74.32) scale(70.85 53.846)">
<stop stop-color="#227B60"/>
<stop offset="0.14" stop-color="#227B60" stop-opacity="0.81"/>
<stop offset="0.58" stop-color="#227B60" stop-opacity="0.23"/>
<stop offset="0.78" stop-color="#227B60" stop-opacity="0"/>
</radialGradient>
<radialGradient id="paint2_radial" cx="0" cy="0" r="1" gradientUnits="userSpaceOnUse" gradientTransform="translate(117.944 51.7978) rotate(91.1458) scale(47.9096 36.4063)">
<stop stop-color="#227B60"/>
<stop offset="0.25" stop-color="#227B60" stop-opacity="0.7"/>
<stop offset="0.71" stop-color="#227B60" stop-opacity="0.2"/>
<stop offset="0.92" stop-color="#227B60" stop-opacity="0"/>
</radialGradient>
<radialGradient id="paint3_radial" cx="0" cy="0" r="1" gradientUnits="userSpaceOnUse" gradientTransform="translate(115.664 53.7725) rotate(88.6) scale(44.66 31.7086)">
<stop stop-color="#227B60"/>
<stop offset="0.07" stop-color="#227B60" stop-opacity="0.9"/>
<stop offset="0.34" stop-color="#227B60" stop-opacity="0.51"/>
<stop offset="0.59" stop-color="#227B60" stop-opacity="0.23"/>
<stop offset="0.79" stop-color="#227B60" stop-opacity="0.06"/>
<stop offset="0.92" stop-color="#227B60" stop-opacity="0"/>
</radialGradient>
<radialGradient id="paint4_radial" cx="0" cy="0" r="1" gradientUnits="userSpaceOnUse" gradientTransform="translate(116.421 51.7269) rotate(88.6) scale(36.06 25.6026)">
<stop stop-color="#227B60"/>
<stop offset="0.36" stop-color="#227B60" stop-opacity="0.63"/>
<stop offset="0.92" stop-color="#227B60" stop-opacity="0"/>
</radialGradient>
<radialGradient id="paint5_radial" cx="0" cy="0" r="1" gradientUnits="userSpaceOnUse" gradientTransform="translate(117.983 53.744) rotate(88.6) scale(28.76 18.4064)">
<stop stop-color="#20735A"/>
<stop offset="0.15" stop-color="#20745A" stop-opacity="0.93"/>
<stop offset="0.38" stop-color="#21755C" stop-opacity="0.74"/>
<stop offset="0.67" stop-color="#21785D" stop-opacity="0.43"/>
<stop offset="1" stop-color="#227B60" stop-opacity="0"/>
</radialGradient>
<radialGradient id="paint6_radial" cx="0" cy="0" r="1" gradientUnits="userSpaceOnUse" gradientTransform="translate(121.851 58.3844) rotate(23.8) scale(46.28 34.71)">
<stop stop-color="#227A61"/>
<stop offset="0.36" stop-color="#227A61" stop-opacity="0.56"/>
<stop offset="0.72" stop-color="#227A61" stop-opacity="0.16"/>
<stop offset="0.9" stop-color="#227A61" stop-opacity="0"/>
</radialGradient>
<radialGradient id="paint7_radial" cx="0" cy="0" r="1" gradientUnits="userSpaceOnUse" gradientTransform="translate(105.857 -16.7695) rotate(35.2724) scale(61.7198 56.4337)">
<stop stop-color="#3CD9C3"/>
<stop offset="0.07" stop-color="#3BD7C1" stop-opacity="0.9"/>
<stop offset="0.41" stop-color="#38CEB9" stop-opacity="0.42"/>
<stop offset="0.65" stop-color="#36C8B4" stop-opacity="0.12"/>
<stop offset="0.76" stop-color="#35C6B2" stop-opacity="0"/>
</radialGradient>
<radialGradient id="paint8_radial" cx="0" cy="0" r="1" gradientUnits="userSpaceOnUse" gradientTransform="translate(-101213 -137534) rotate(35.2724) scale(10965.1 7694.79)">
<stop stop-color="#3CD9C3"/>
<stop offset="0.07" stop-color="#3BD7C1" stop-opacity="0.9"/>
<stop offset="0.41" stop-color="#38CEB9" stop-opacity="0.42"/>
<stop offset="0.65" stop-color="#36C8B4" stop-opacity="0.12"/>
<stop offset="0.76" stop-color="#35C6B2" stop-opacity="0"/>
</radialGradient>
<radialGradient id="paint9_radial" cx="0" cy="0" r="1" gradientUnits="userSpaceOnUse" gradientTransform="translate(130.627 70.2039) rotate(100.972) scale(54.4345 67.2661)">
<stop stop-color="#237F66" stop-opacity="0.8"/>
<stop offset="0.06" stop-color="#2C8C70" stop-opacity="0.65"/>
<stop offset="0.21" stop-color="#3DA785" stop-opacity="0.37"/>
<stop offset="0.35" stop-color="#4ABA93" stop-opacity="0.17"/>
<stop offset="0.47" stop-color="#51C59C" stop-opacity="0.04"/>
<stop offset="0.56" stop-color="#54C99F" stop-opacity="0"/>
</radialGradient>
<radialGradient id="paint10_radial" cx="0" cy="0" r="1" gradientUnits="userSpaceOnUse" gradientTransform="translate(100.433 72.8414) rotate(-50.82) scale(71.13 76.8204)">
<stop stop-color="#167C8A"/>
<stop offset="0.04" stop-color="#167C8A" stop-opacity="0.93"/>
<stop offset="0.33" stop-color="#177F8D" stop-opacity="0.43"/>
<stop offset="0.54" stop-color="#17818F" stop-opacity="0.12"/>
<stop offset="0.65" stop-color="#178290" stop-opacity="0"/>
</radialGradient>
<radialGradient id="paint11_radial" cx="0" cy="0" r="1" gradientUnits="userSpaceOnUse" gradientTransform="translate(96.1637 80.0117) rotate(-31.66) scale(69.39 54.8181)">
<stop offset="0.05" stop-color="#177D87"/>
<stop offset="0.11" stop-color="#177E89" stop-opacity="0.8"/>
<stop offset="0.21" stop-color="#177F8B" stop-opacity="0.52"/>
<stop offset="0.32" stop-color="#17818D" stop-opacity="0.29"/>
<stop offset="0.42" stop-color="#17818F" stop-opacity="0.13"/>
<stop offset="0.51" stop-color="#178290" stop-opacity="0.03"/>
<stop offset="0.6" stop-color="#178290" stop-opacity="0"/>
</radialGradient>
<radialGradient id="paint12_radial" cx="0" cy="0" r="1" gradientUnits="userSpaceOnUse" gradientTransform="translate(81.693 79.0964) rotate(-130.539) scale(41.3421 32.5536)">
<stop offset="0.26" stop-color="#177F8A"/>
<stop offset="0.27" stop-color="#177F8A" stop-opacity="0.98"/>
<stop offset="0.38" stop-color="#17808C" stop-opacity="0.68"/>
<stop offset="0.5" stop-color="#17818D" stop-opacity="0.43"/>
<stop offset="0.62" stop-color="#17818F" stop-opacity="0.24"/>
<stop offset="0.74" stop-color="#17828F" stop-opacity="0.11"/>
<stop offset="0.86" stop-color="#178290" stop-opacity="0.03"/>
<stop offset="1" stop-color="#178290" stop-opacity="0"/>
</radialGradient>
<radialGradient id="paint13_radial" cx="0" cy="0" r="1" gradientUnits="userSpaceOnUse" gradientTransform="translate(71.5965 91.3409) rotate(-173.11) scale(38.78)">
<stop stop-color="#13656E"/>
<stop offset="0.11" stop-color="#13646E" stop-opacity="0.73"/>
<stop offset="0.27" stop-color="#12646E" stop-opacity="0.41"/>
<stop offset="0.42" stop-color="#12636E" stop-opacity="0.18"/>
<stop offset="0.55" stop-color="#12636E" stop-opacity="0.05"/>
<stop offset="0.66" stop-color="#12636E" stop-opacity="0"/>
</radialGradient>
<radialGradient id="paint14_radial" cx="0" cy="0" r="1" gradientUnits="userSpaceOnUse" gradientTransform="translate(70.5832 97.1774) rotate(-119.32) scale(27.12 22.7808)">
<stop offset="0.13" stop-color="#146A73"/>
<stop offset="0.24" stop-color="#156F79" stop-opacity="0.79"/>
<stop offset="0.45" stop-color="#167783" stop-opacity="0.45"/>
<stop offset="0.65" stop-color="#167D8A" stop-opacity="0.2"/>
<stop offset="0.82" stop-color="#17818E" stop-opacity="0.05"/>
<stop offset="0.95" stop-color="#178290" stop-opacity="0"/>
</radialGradient>
<radialGradient id="paint15_radial" cx="0" cy="0" r="1" gradientUnits="userSpaceOnUse" gradientTransform="translate(64.5441 84.8552) rotate(-55.9925) scale(25.5118 20.211)">
<stop stop-color="#198E9C"/>
<stop offset="0.1" stop-color="#198E9C" stop-opacity="0.87"/>
<stop offset="0.41" stop-color="#198E9C" stop-opacity="0.5"/>
<stop offset="0.67" stop-color="#198E9C" stop-opacity="0.23"/>
<stop offset="0.88" stop-color="#198E9C" stop-opacity="0.06"/>
<stop offset="1" stop-color="#198E9C" stop-opacity="0"/>
</radialGradient>
<linearGradient id="paint16_linear" x1="18.1105" y1="-3.10009" x2="83.5205" y2="57.4299" gradientUnits="userSpaceOnUse">
<stop offset="0.13" stop-color="#2BF9FF"/>
<stop offset="0.27" stop-color="#29F9FF" stop-opacity="0.64"/>
<stop offset="0.4" stop-color="#27FAFF" stop-opacity="0.3"/>
<stop offset="0.49" stop-color="#26FAFF" stop-opacity="0.08"/>
<stop offset="0.54" stop-color="#26FAFF" stop-opacity="0"/>
</linearGradient>
<linearGradient id="paint17_linear" x1="-18.9195" y1="95.6799" x2="57.4805" y2="74.0199" gradientUnits="userSpaceOnUse">
<stop stop-color="#26FAFF"/>
<stop offset="0.06" stop-color="#26FAFF" stop-opacity="0.88"/>
<stop offset="0.24" stop-color="#26FAFF" stop-opacity="0.51"/>
<stop offset="0.39" stop-color="#26FAFF" stop-opacity="0.23"/>
<stop offset="0.5" stop-color="#26FAFF" stop-opacity="0.06"/>
<stop offset="0.55" stop-color="#26FAFF" stop-opacity="0"/>
</linearGradient>
<linearGradient id="paint18_linear" x1="1.32047" y1="93.0199" x2="87.4205" y2="62.3299" gradientUnits="userSpaceOnUse">
<stop stop-color="#21DEFF"/>
<stop offset="0.04" stop-color="#21DEFF" stop-opacity="0.88"/>
<stop offset="0.17" stop-color="#21DEFF" stop-opacity="0.51"/>
<stop offset="0.27" stop-color="#21DEFF" stop-opacity="0.23"/>
<stop offset="0.34" stop-color="#21DEFF" stop-opacity="0.06"/>
<stop offset="0.38" stop-color="#21DEFF" stop-opacity="0"/>
</linearGradient>
<linearGradient id="paint19_linear" x1="83.1405" y1="48.5999" x2="131.3" y2="127.15" gradientUnits="userSpaceOnUse">
<stop offset="0.62" stop-color="#21DEFF" stop-opacity="0"/>
<stop offset="0.66" stop-color="#21DEFF" stop-opacity="0.06"/>
<stop offset="0.73" stop-color="#21DEFF" stop-opacity="0.23"/>
<stop offset="0.83" stop-color="#21DEFF" stop-opacity="0.51"/>
<stop offset="0.96" stop-color="#21DEFF" stop-opacity="0.88"/>
<stop offset="1" stop-color="#21DEFF"/>
</linearGradient>
<linearGradient id="paint20_linear" x1="136.731" y1="77.9499" x2="129.161" y2="40.9999" gradientUnits="userSpaceOnUse">
<stop stop-color="#44B044"/>
<stop offset="0.11" stop-color="#44B044" stop-opacity="0.8"/>
<stop offset="0.27" stop-color="#44B044" stop-opacity="0.52"/>
<stop offset="0.43" stop-color="#44B044" stop-opacity="0.29"/>
<stop offset="0.58" stop-color="#44B044" stop-opacity="0.13"/>
<stop offset="0.7" stop-color="#44B044" stop-opacity="0.03"/>
<stop offset="0.8" stop-color="#44B044" stop-opacity="0"/>
</linearGradient>
<linearGradient id="paint21_linear" x1="31.0509" y1="39.65" x2="190.481" y2="92.43" gradientUnits="userSpaceOnUse">
<stop stop-color="#3066FB"/>
<stop offset="0.38" stop-color="#2F64F7"/>
<stop offset="0.74" stop-color="#2857D9"/>
<stop offset="1" stop-color="#3C7EFF"/>
</linearGradient>
<radialGradient id="paint22_radial" cx="0" cy="0" r="1" gradientUnits="userSpaceOnUse" gradientTransform="translate(143.668 63.7497) rotate(98.69) scale(85.26 56.2716)">
<stop stop-color="#1A3D9C"/>
<stop offset="0.4" stop-color="#1A3D9C" stop-opacity="0.42"/>
<stop offset="0.7" stop-color="#1A3D9C" stop-opacity="0"/>
</radialGradient>
<radialGradient id="paint23_radial" cx="0" cy="0" r="1" gradientUnits="userSpaceOnUse" gradientTransform="translate(51885.8 -133890) rotate(98.69) scale(10488.7 5655.43)">
<stop stop-color="#1A3D9C"/>
<stop offset="0.4" stop-color="#1A3D9C" stop-opacity="0.42"/>
<stop offset="0.7" stop-color="#1A3D9C" stop-opacity="0"/>
</radialGradient>
<radialGradient id="paint24_radial" cx="0" cy="0" r="1" gradientUnits="userSpaceOnUse" gradientTransform="translate(45558 -135968) rotate(98.6156) scale(12491.5 5160.52)">
<stop stop-color="#1A3D9C"/>
<stop offset="0.4" stop-color="#1A3D9C" stop-opacity="0.42"/>
<stop offset="0.7" stop-color="#1A3D9C" stop-opacity="0"/>
</radialGradient>
<radialGradient id="paint25_radial" cx="0" cy="0" r="1" gradientUnits="userSpaceOnUse" gradientTransform="translate(133.005 60.5746) rotate(83.0888) scale(74.5242 51.9983)">
<stop stop-color="#1A3D9C"/>
<stop offset="0.16" stop-color="#1A3D9C" stop-opacity="0.69"/>
<stop offset="0.33" stop-color="#1A3D9C" stop-opacity="0.4"/>
<stop offset="0.49" stop-color="#1A3D9C" stop-opacity="0.18"/>
<stop offset="0.61" stop-color="#1A3D9C" stop-opacity="0.05"/>
<stop offset="0.7" stop-color="#1A3D9C" stop-opacity="0"/>
</radialGradient>
<radialGradient id="paint26_radial" cx="0" cy="0" r="1" gradientUnits="userSpaceOnUse" gradientTransform="translate(146.455 71.9443) rotate(74.64) scale(71.62 48.7016)">
<stop stop-color="#18388F"/>
<stop offset="0.37" stop-color="#193B96" stop-opacity="0.45"/>
<stop offset="0.7" stop-color="#1A3D9C" stop-opacity="0"/>
</radialGradient>
<radialGradient id="paint27_radial" cx="0" cy="0" r="1" gradientUnits="userSpaceOnUse" gradientTransform="translate(139.322 91.0432) rotate(74.64) scale(33.3 31.635)">
<stop stop-color="#18388F"/>
<stop offset="0.09" stop-color="#183992" stop-opacity="0.78"/>
<stop offset="0.22" stop-color="#193B96" stop-opacity="0.5"/>
<stop offset="0.35" stop-color="#193C98" stop-opacity="0.28"/>
<stop offset="0.47" stop-color="#1A3C9A" stop-opacity="0.13"/>
<stop offset="0.59" stop-color="#1A3D9C" stop-opacity="0.03"/>
<stop offset="0.7" stop-color="#1A3D9C" stop-opacity="0"/>
</radialGradient>
<radialGradient id="paint28_radial" cx="0" cy="0" r="1" gradientUnits="userSpaceOnUse" gradientTransform="translate(140.12 96.7239) rotate(74.64) scale(33.3 31.635)">
<stop stop-color="#1A3D9C" stop-opacity="0.8"/>
<stop offset="0.01" stop-color="#1A3D9C" stop-opacity="0.78"/>
<stop offset="0.24" stop-color="#1A3D9C" stop-opacity="0.45"/>
<stop offset="0.44" stop-color="#1A3D9C" stop-opacity="0.2"/>
<stop offset="0.6" stop-color="#1A3D9C" stop-opacity="0.05"/>
<stop offset="0.7" stop-color="#1A3D9C" stop-opacity="0"/>
</radialGradient>
<radialGradient id="paint29_radial" cx="0" cy="0" r="1" gradientUnits="userSpaceOnUse" gradientTransform="translate(57.6564 76.3892) rotate(67.0273) scale(79.4703 52.7361)">
<stop stop-color="#1A3D9C"/>
<stop offset="0.4" stop-color="#1A3D9C" stop-opacity="0.56"/>
<stop offset="0.48" stop-color="#1A3D9C" stop-opacity="0.43"/>
<stop offset="0.69" stop-color="#1A3D9C" stop-opacity="0.12"/>
<stop offset="0.79" stop-color="#1A3D9C" stop-opacity="0"/>
</radialGradient>
<radialGradient id="paint30_radial" cx="0" cy="0" r="1" gradientUnits="userSpaceOnUse" gradientTransform="translate(52.6373 58.3682) rotate(76.1028) scale(58.9457 38.9154)">
<stop stop-color="#1A3D9C"/>
<stop offset="0.06" stop-color="#1A3D9C" stop-opacity="0.88"/>
<stop offset="0.21" stop-color="#1A3D9C" stop-opacity="0.61"/>
<stop offset="0.36" stop-color="#1A3D9C" stop-opacity="0.39"/>
<stop offset="0.51" stop-color="#1A3D9C" stop-opacity="0.22"/>
<stop offset="0.67" stop-color="#1A3D9C" stop-opacity="0.1"/>
<stop offset="0.83" stop-color="#1A3D9C" stop-opacity="0.02"/>
<stop offset="1" stop-color="#1A3D9C" stop-opacity="0"/>
</radialGradient>
<radialGradient id="paint31_radial" cx="0" cy="0" r="1" gradientUnits="userSpaceOnUse" gradientTransform="translate(52.6373 58.3682) rotate(76.1028) scale(58.9457 38.9154)">
<stop stop-color="#1B3E9E"/>
<stop offset="0.06" stop-color="#1B3E9E" stop-opacity="0.87"/>
<stop offset="0.21" stop-color="#1B3E9D" stop-opacity="0.61"/>
<stop offset="0.36" stop-color="#1A3D9D" stop-opacity="0.39"/>
<stop offset="0.52" stop-color="#1A3D9C" stop-opacity="0.22"/>
<stop offset="0.67" stop-color="#1A3D9C" stop-opacity="0.1"/>
<stop offset="0.83" stop-color="#1A3D9C" stop-opacity="0.02"/>
<stop offset="1" stop-color="#1A3D9C" stop-opacity="0"/>
</radialGradient>
<radialGradient id="paint32_radial" cx="0" cy="0" r="1" gradientUnits="userSpaceOnUse" gradientTransform="translate(54.8725 52.6213) rotate(76.1028) scale(45.0961 29.772)">
<stop stop-color="#183991"/>
<stop offset="0.03" stop-color="#183992" stop-opacity="0.95"/>
<stop offset="0.18" stop-color="#193A95" stop-opacity="0.66"/>
<stop offset="0.34" stop-color="#193B97" stop-opacity="0.42"/>
<stop offset="0.5" stop-color="#1A3C99" stop-opacity="0.24"/>
<stop offset="0.66" stop-color="#1A3D9B" stop-opacity="0.1"/>
<stop offset="0.82" stop-color="#1A3D9C" stop-opacity="0.03"/>
<stop offset="1" stop-color="#1A3D9C" stop-opacity="0"/>
</radialGradient>
<radialGradient id="paint33_radial" cx="0" cy="0" r="1" gradientUnits="userSpaceOnUse" gradientTransform="translate(62.8459 57.19) rotate(87.1376) scale(35.6345 31.369)">
<stop offset="0.04" stop-color="#2453D6" stop-opacity="0.6"/>
<stop offset="0.2" stop-color="#2453D6" stop-opacity="0.49"/>
<stop offset="0.52" stop-color="#2453D6" stop-opacity="0.2"/>
<stop offset="0.73" stop-color="#2453D6" stop-opacity="0"/>
</radialGradient>
<linearGradient id="paint34_linear" x1="134.641" y1="-25.45" x2="94.3709" y2="74.09" gradientUnits="userSpaceOnUse">
<stop stop-color="#3774FF"/>
<stop offset="0.05" stop-color="#3774FF" stop-opacity="0.91"/>
<stop offset="0.16" stop-color="#3774FF" stop-opacity="0.66"/>
<stop offset="0.32" stop-color="#3774FF" stop-opacity="0.28"/>
<stop offset="0.43" stop-color="#3774FF" stop-opacity="0"/>
</linearGradient>
<clipPath id="clip0">
<rect width="762.48" height="209.87" fill="white"/>
</clipPath>
</defs>
</svg>
