<?xml version="1.0" encoding="utf-8"?>
<!-- Generator: Adobe Illustrator 25.3.1, SVG Export Plug-In . SVG Version: 6.00 Build 0)  -->
<svg version="1.1" id="Layer_1" xmlns="http://www.w3.org/2000/svg" xmlns:xlink="http://www.w3.org/1999/xlink" x="0px" y="0px"
	 viewBox="0 0 216 144" style="enable-background:new 0 0 216 144;" xml:space="preserve">
<g>
	<path d="M50.55,66.74l-3.25,10.5l-3.45-10.5h-3.41l-3.41,10.43L33.8,66.74h-3.22l4.58,13.73h3.55l3.41-10.36l3.42,10.36h3.59
		l4.58-13.73C53.71,66.74,50.55,66.74,50.55,66.74z"/>
	<path d="M64.07,67.29c-0.98-0.61-2.12-0.91-3.39-0.91c-1.33,0-2.54,0.3-3.58,0.91s-1.85,1.46-2.42,2.56s-0.87,2.36-0.87,3.77
		c0,1.45,0.29,2.7,0.9,3.79c0.61,1.1,1.43,1.94,2.5,2.54c1.08,0.61,2.28,0.9,3.65,0.9c1.1,0,2.13-0.15,3.07-0.44s1.8-0.79,2.61-1.48
		l-1.5-2.14c-0.57,0.47-1.22,0.82-1.91,1.07c-0.7,0.25-1.38,0.39-2.08,0.39c-0.67,0-1.29-0.13-1.86-0.37
		c-0.57-0.25-1.05-0.63-1.45-1.17c-0.39-0.53-0.66-1.18-0.77-1.97h10.18c0.03-0.47,0.06-0.84,0.06-1.12c0-1.41-0.28-2.66-0.82-3.77
		C65.82,68.75,65.06,67.9,64.07,67.29z M56.96,72.44c0.16-1.04,0.57-1.88,1.18-2.47c0.62-0.61,1.45-0.91,2.47-0.91
		c0.95,0,1.72,0.29,2.35,0.89c0.61,0.58,0.99,1.42,1.17,2.5L56.96,72.44L56.96,72.44L56.96,72.44z"/>
	<path d="M80.04,67.31c-1.05-0.62-2.22-0.93-3.5-0.93c-0.95,0-1.78,0.16-2.49,0.53c-0.71,0.36-1.33,0.84-1.84,1.47v-7.49H69.2v19.59
		h3.02v-1.62c0.49,0.63,1.1,1.12,1.84,1.47c0.71,0.36,1.56,0.53,2.49,0.53c1.28,0,2.45-0.3,3.5-0.93c1.05-0.62,1.88-1.48,2.49-2.59
		c0.61-1.1,0.91-2.33,0.91-3.71s-0.3-2.61-0.91-3.71C81.91,68.79,81.08,67.92,80.04,67.31z M79.83,75.82
		c-0.34,0.67-0.82,1.2-1.46,1.6c-0.63,0.39-1.36,0.58-2.2,0.58c-0.81,0-1.53-0.19-2.16-0.57c-0.62-0.39-1.12-0.91-1.46-1.58
		c-0.36-0.67-0.53-1.42-0.53-2.24c0-0.84,0.16-1.58,0.53-2.24c0.36-0.67,0.84-1.19,1.46-1.58s1.36-0.57,2.16-0.57
		c0.84,0,1.57,0.2,2.21,0.58c0.63,0.39,1.12,0.93,1.46,1.6s0.49,1.41,0.49,2.23C80.35,74.42,80.18,75.15,79.83,75.82z"/>
	<path d="M95.29,67.29c-0.98-0.61-2.12-0.91-3.39-0.91c-1.33,0-2.54,0.3-3.58,0.91s-1.85,1.46-2.42,2.56s-0.87,2.36-0.87,3.77
		c0,1.45,0.29,2.7,0.9,3.79c0.61,1.1,1.43,1.94,2.5,2.54c1.08,0.61,2.28,0.9,3.65,0.9c1.1,0,2.13-0.15,3.07-0.44s1.8-0.79,2.61-1.48
		l-1.5-2.14c-0.57,0.47-1.22,0.82-1.91,1.07c-0.7,0.25-1.38,0.39-2.08,0.39c-0.67,0-1.29-0.13-1.86-0.37
		c-0.57-0.25-1.05-0.63-1.45-1.17c-0.39-0.53-0.66-1.18-0.77-1.97h10.18c0.03-0.47,0.06-0.84,0.06-1.12c0-1.41-0.28-2.66-0.82-3.77
		C97.05,68.75,96.27,67.9,95.29,67.29z M88.19,72.44c0.16-1.04,0.57-1.88,1.18-2.47c0.62-0.61,1.45-0.91,2.47-0.91
		c0.95,0,1.72,0.29,2.35,0.89c0.61,0.58,0.99,1.42,1.17,2.5L88.19,72.44L88.19,72.44L88.19,72.44z"/>
	<path d="M107.52,73.43l5.1-6.69h-3.56l-3.37,4.59l-3.37-4.59h-3.7l5.11,6.72l-5.2,7.01h3.52l3.45-4.77l3.5,4.77h3.7L107.52,73.43z"
		/>
	<path d="M123.47,73.1c-1.04,0-1.84,0.41-2.41,1.19v-3.75h-1.32v9.9h1.09l0.2-0.95c0.53,0.77,1.31,1.17,2.33,1.17
		c0.9,0,1.65-0.29,2.22-0.86c0.68-0.68,1.04-1.67,1.04-2.98c0-1.08-0.25-1.97-0.76-2.64C125.3,73.45,124.5,73.1,123.47,73.1z
		 M124.73,78.76c-0.36,0.51-0.89,0.76-1.57,0.76c-0.62,0-1.12-0.22-1.5-0.63c-0.46-0.48-0.68-1.19-0.68-2.1
		c0-0.76,0.19-1.38,0.56-1.84c0.39-0.48,0.94-0.72,1.6-0.72c0.57,0,1.05,0.19,1.42,0.56c0.46,0.44,0.68,1.13,0.68,2.03
		C125.25,77.64,125.07,78.31,124.73,78.76z"/>
	<path d="M130.37,79.38l-2.04-6.09h-1.43l2.64,7.15h0.43c-0.23,0.67-0.43,1.09-0.6,1.28C129.22,81.91,129,82,128.7,82
		c-0.2,0-0.43-0.03-0.68-0.09v1.07c0.33,0.08,0.62,0.13,0.85,0.13c0.57,0,1.04-0.2,1.39-0.62c0.32-0.36,0.62-1,0.95-1.97l2.5-7.25
		h-1.32L130.37,79.38z"/>
	<path d="M151.96,70.56h-2.52v9.93h2.52V70.56z"/>
	<path d="M164.63,75.52c0,3.2,2.47,5.15,5.3,5.15c1.12,0,1.98-0.27,2.28-0.36v-2.66c-0.11,0.06-0.94,0.53-2.12,0.53
		c-1.67,0-2.75-1.18-2.75-2.65c0-1.52,1.12-2.65,2.75-2.65c1.19,0,2,0.48,2.12,0.53v-2.65c-0.23-0.08-1.1-0.36-2.28-0.36
		C166.89,70.38,164.63,72.56,164.63,75.52z"/>
	<path d="M138.38,75.52c0,3.2,2.47,5.15,5.3,5.15c1.12,0,1.98-0.27,2.28-0.36v-2.66c-0.11,0.06-0.94,0.53-2.12,0.53
		c-1.67,0-2.75-1.18-2.75-2.65c0-1.52,1.12-2.65,2.75-2.65c1.19,0,2,0.48,2.12,0.53v-2.65c-0.23-0.08-1.1-0.36-2.28-0.36
		C140.64,70.38,138.38,72.56,138.38,75.52z"/>
	<path d="M180.15,70.38c-3.07,0-5.25,2.31-5.25,5.15c0,2.84,2.19,5.15,5.25,5.15c3.07,0,5.27-2.31,5.27-5.15
		C185.4,72.68,183.2,70.38,180.15,70.38z M180.15,78.13c-1.5,0-2.6-1.17-2.6-2.61c0-1.45,1.1-2.61,2.6-2.61s2.6,1.17,2.6,2.61
		C182.74,76.96,181.63,78.13,180.15,78.13z"/>
	<path d="M159.82,74.49l-0.7-0.22c-0.42-0.13-1.15-0.34-1.15-0.95c0-0.48,0.55-0.81,1.56-0.81c0.87,0,1.93,0.29,1.97,0.3v-2.14
		c-0.08-0.01-1.23-0.3-2.46-0.3c-2.32,0-3.71,1.24-3.71,3.09c0,1.64,1.17,2.46,2.56,2.89c0.15,0.05,0.39,0.13,0.55,0.16
		c0.62,0.2,1.12,0.48,1.12,0.99c0,0.56-0.57,0.93-1.81,0.93c-1.1,0-2.14-0.3-2.38-0.37v2.29c0.13,0.03,1.38,0.28,2.73,0.28
		c1.93,0,4.12-0.84,4.12-3.33C162.18,76.11,161.46,75,159.82,74.49z"/>
</g>
</svg>
