<?xml version="1.0" encoding="utf-8"?>
<!-- Generator: Adobe Illustrator 25.3.1, SVG Export Plug-In . SVG Version: 6.00 Build 0)  -->
<svg version="1.1" id="Layer_1" xmlns="http://www.w3.org/2000/svg" xmlns:xlink="http://www.w3.org/1999/xlink" x="0px" y="0px"
	 viewBox="0 0 216 144" style="enable-background:new 0 0 216 144;" xml:space="preserve">
<g>
	<path d="M72.48,72.19l-5.03-15.38h-4.97L57.51,72.1l-4.72-15.29H48.1l6.67,20.12h5.17l4.97-15.17l4.99,15.17h5.24l6.67-20.12h-4.58
		L72.48,72.19z"/>
	<path d="M96.95,57.63c-1.43-0.88-3.08-1.34-4.94-1.34c-1.95,0-3.7,0.45-5.22,1.34c-1.52,0.88-2.7,2.13-3.54,3.74
		c-0.84,1.61-1.27,3.45-1.27,5.51c0,2.11,0.43,3.95,1.32,5.56c0.88,1.61,2.09,2.83,3.65,3.72c1.56,0.88,3.33,1.32,5.33,1.32
		c1.61,0,3.11-0.23,4.47-0.66c1.36-0.43,2.63-1.16,3.81-2.18l-2.18-3.13c-0.84,0.68-1.77,1.2-2.79,1.56
		c-1.02,0.36-2.02,0.57-3.04,0.57c-0.97,0-1.88-0.18-2.72-0.54c-0.84-0.36-1.54-0.93-2.11-1.7c-0.57-0.77-0.95-1.72-1.13-2.88h14.86
		c0.05-0.68,0.09-1.22,0.09-1.63c0-2.06-0.41-3.9-1.2-5.51C99.51,59.76,98.4,58.51,96.95,57.63z M86.58,65.16
		c0.25-1.52,0.84-2.74,1.72-3.63c0.91-0.88,2.11-1.34,3.61-1.34c1.38,0,2.52,0.43,3.42,1.29c0.88,0.86,1.45,2.09,1.7,3.65H86.58
		V65.16z"/>
	<path d="M120.24,76.09c1.54-0.91,2.74-2.18,3.63-3.79c0.88-1.61,1.34-3.42,1.34-5.44s-0.45-3.83-1.34-5.44
		c-0.88-1.61-2.11-2.88-3.63-3.79c-1.54-0.91-3.24-1.36-5.1-1.36c-1.38,0-2.59,0.25-3.63,0.77s-1.95,1.22-2.68,2.15V48.24h-4.4
		v28.69h4.4v-2.38c0.73,0.93,1.61,1.63,2.68,2.15c1.04,0.52,2.27,0.77,3.63,0.77C117,77.47,118.7,77,120.24,76.09z M111.46,72.48
		c-0.91-0.57-1.63-1.34-2.13-2.31c-0.52-0.98-0.77-2.09-0.77-3.29c0-1.2,0.25-2.31,0.77-3.29s1.22-1.75,2.13-2.31
		s1.97-0.84,3.15-0.84c1.22,0,2.29,0.29,3.22,0.86s1.63,1.36,2.13,2.34c0.5,0.98,0.73,2.06,0.73,3.27c0,1.2-0.25,2.27-0.73,3.27
		c-0.5,0.98-1.2,1.77-2.13,2.34c-0.93,0.57-2,0.86-3.22,0.86C113.41,73.32,112.37,73.05,111.46,72.48z"/>
	<path d="M143.89,71.49c-0.84,0.68-1.77,1.2-2.79,1.56c-1.02,0.36-2.02,0.57-3.04,0.57c-0.97,0-1.88-0.18-2.72-0.54
		s-1.54-0.93-2.11-1.7c-0.57-0.77-0.95-1.72-1.13-2.88h14.88c0.05-0.68,0.09-1.22,0.09-1.63c0-2.06-0.41-3.9-1.2-5.51
		c-0.82-1.59-1.93-2.83-3.36-3.72c-1.43-0.88-3.08-1.34-4.94-1.34c-1.95,0-3.7,0.45-5.22,1.34c-1.52,0.88-2.7,2.13-3.54,3.74
		c-0.84,1.61-1.27,3.45-1.27,5.51c0,2.11,0.43,3.95,1.32,5.56c0.88,1.61,2.09,2.83,3.65,3.72c1.56,0.88,3.33,1.32,5.33,1.32
		c1.61,0,3.11-0.23,4.47-0.66c1.36-0.43,2.63-1.16,3.81-2.18L143.89,71.49z M133.85,61.53c0.91-0.88,2.11-1.34,3.61-1.34
		c1.38,0,2.52,0.43,3.42,1.29c0.88,0.86,1.45,2.09,1.7,3.65h-10.43C132.37,63.62,132.93,62.41,133.85,61.53z"/>
	<path d="M167.9,76.93l-7.58-10.32l7.44-9.8h-5.19l-4.92,6.71l-4.92-6.71h-5.4l7.46,9.84l-7.58,10.27h5.15l5.03-6.99l5.1,6.99
		L167.9,76.93L167.9,76.93z"/>
	<path d="M117.15,87.57c-0.84,0-1.5,0.32-1.95,0.97v-3.06h-1.09v8.12h0.88l0.16-0.77c0.43,0.63,1.07,0.95,1.9,0.95
		c0.73,0,1.34-0.23,1.81-0.7c0.57-0.57,0.84-1.38,0.84-2.43c0-0.88-0.2-1.61-0.61-2.15C118.65,87.88,117.99,87.57,117.15,87.57z
		 M118.2,92.24c-0.29,0.41-0.73,0.61-1.29,0.61c-0.5,0-0.91-0.18-1.22-0.52c-0.36-0.41-0.54-0.98-0.54-1.72
		c0-0.61,0.16-1.13,0.45-1.52c0.32-0.41,0.75-0.59,1.32-0.59c0.48,0,0.86,0.16,1.16,0.45c0.36,0.36,0.54,0.93,0.54,1.66
		C118.61,91.31,118.47,91.85,118.2,92.24z"/>
	<path d="M122.8,92.71l-1.66-4.99h-1.18l2.15,5.85h0.34c-0.2,0.54-0.36,0.88-0.48,1.04c-0.14,0.16-0.32,0.25-0.54,0.25
		c-0.16,0-0.36-0.02-0.57-0.07v0.88c0.27,0.07,0.5,0.09,0.7,0.09c0.48,0,0.84-0.16,1.13-0.5c0.25-0.29,0.5-0.82,0.77-1.61l2.04-5.94
		h-1.09L122.8,92.71z"/>
	<path d="M140.4,85.5h-2.04v8.12h2.04V85.5z"/>
	<path d="M150.74,89.56c0,2.61,2.02,4.22,4.33,4.22c0.91,0,1.61-0.23,1.86-0.29v-2.18c-0.09,0.05-0.75,0.43-1.72,0.43
		c-1.36,0-2.25-0.95-2.25-2.18c0-1.25,0.93-2.18,2.25-2.18c0.98,0,1.63,0.39,1.72,0.43v-2.15c-0.2-0.07-0.91-0.29-1.86-0.29
		C152.58,85.37,150.74,87.13,150.74,89.56z"/>
	<path d="M129.32,89.56c0,2.61,2.02,4.22,4.33,4.22c0.91,0,1.61-0.23,1.86-0.29v-2.18c-0.09,0.05-0.75,0.43-1.72,0.43
		c-1.36,0-2.25-0.95-2.25-2.18c0-1.25,0.93-2.18,2.25-2.18c0.98,0,1.63,0.39,1.72,0.43v-2.15c-0.2-0.07-0.91-0.29-1.86-0.29
		C131.17,85.37,129.32,87.13,129.32,89.56z"/>
	<path d="M163.4,85.37c-2.49,0-4.29,1.88-4.29,4.22s1.79,4.22,4.29,4.22s4.29-1.88,4.29-4.22C167.71,87.25,165.92,85.37,163.4,85.37
		z M163.4,91.72c-1.22,0-2.13-0.95-2.13-2.13c0-1.18,0.91-2.13,2.13-2.13s2.13,0.95,2.13,2.13
		C165.53,90.74,164.62,91.72,163.4,91.72z"/>
	<path d="M146.82,88.72l-0.57-0.18c-0.34-0.11-0.93-0.27-0.93-0.77c0-0.39,0.45-0.66,1.27-0.66c0.7,0,1.56,0.25,1.61,0.25v-1.75
		c-0.07-0.02-1-0.25-2-0.25c-1.88,0-3.04,1.02-3.04,2.54c0,1.34,0.95,2.02,2.09,2.38c0.14,0.05,0.32,0.09,0.43,0.14
		c0.5,0.16,0.91,0.41,0.91,0.82c0,0.45-0.48,0.75-1.5,0.75c-0.91,0-1.75-0.25-1.93-0.29v1.86c0.09,0.02,1.13,0.23,2.22,0.23
		c1.56,0,3.36-0.68,3.36-2.72C148.76,90.06,148.15,89.15,146.82,88.72z"/>
</g>
</svg>
