<?xml version="1.0" encoding="utf-8"?>
<!-- Generator: Adobe Illustrator 25.3.1, SVG Export Plug-In . SVG Version: 6.00 Build 0)  -->
<svg version="1.1" id="Layer_1" xmlns="http://www.w3.org/2000/svg" xmlns:xlink="http://www.w3.org/1999/xlink" x="0px" y="0px"
	 viewBox="0 0 216 144" style="enable-background:new 0 0 216 144;" xml:space="preserve">
<g>
	<path d="M84.99,87.56c-0.84,0-1.5,0.32-1.95,0.97v-3.06h-1.09v8.11h0.88L83,92.81c0.43,0.63,1.07,0.95,1.91,0.95
		c0.73,0,1.34-0.23,1.81-0.7c0.57-0.57,0.84-1.38,0.84-2.42c0-0.88-0.2-1.61-0.61-2.15C86.49,87.85,85.85,87.56,84.99,87.56z
		 M86.03,92.19c-0.29,0.41-0.73,0.61-1.29,0.61c-0.5,0-0.91-0.18-1.22-0.52c-0.36-0.41-0.54-0.97-0.54-1.72
		c0-0.61,0.16-1.13,0.45-1.52c0.32-0.41,0.75-0.59,1.32-0.59c0.48,0,0.86,0.16,1.16,0.45c0.36,0.36,0.54,0.93,0.54,1.65
		C86.46,91.27,86.31,91.82,86.03,92.19z"/>
	<path d="M90.64,92.69l-1.66-4.99h-1.18l2.15,5.85h0.34c-0.2,0.54-0.36,0.88-0.48,1.04c-0.14,0.16-0.32,0.25-0.54,0.25
		c-0.16,0-0.36-0.02-0.57-0.07v0.88c0.27,0.07,0.5,0.09,0.7,0.09c0.48,0,0.84-0.16,1.13-0.5c0.25-0.29,0.5-0.82,0.77-1.61l2.04-5.94
		h-1.09L90.64,92.69z"/>
	<path d="M108.24,85.47h-2.04v8.11h2.04V85.47z"/>
	<path d="M118.6,89.53c0,2.61,2.02,4.21,4.33,4.21c0.91,0,1.61-0.23,1.86-0.29v-2.18c-0.09,0.05-0.75,0.43-1.72,0.43
		c-1.36,0-2.25-0.95-2.25-2.18c0-1.25,0.93-2.18,2.25-2.18c0.97,0,1.63,0.39,1.72,0.43v-2.18c-0.2-0.07-0.91-0.29-1.86-0.29
		C120.42,85.33,118.6,87.1,118.6,89.53z"/>
	<path d="M97.17,89.53c0,2.61,2.02,4.21,4.33,4.21c0.91,0,1.61-0.23,1.86-0.29v-2.18c-0.09,0.05-0.75,0.43-1.72,0.43
		c-1.36,0-2.25-0.95-2.25-2.18c0-1.25,0.93-2.18,2.25-2.18c0.97,0,1.63,0.39,1.72,0.43v-2.18c-0.2-0.07-0.91-0.29-1.86-0.29
		C99,85.33,97.17,87.1,97.17,89.53z"/>
	<path d="M131.24,85.33c-2.49,0-4.29,1.88-4.29,4.21s1.79,4.21,4.29,4.21s4.29-1.88,4.29-4.21
		C135.54,87.22,133.75,85.33,131.24,85.33z M131.24,91.68c-1.22,0-2.13-0.95-2.13-2.13s0.91-2.13,2.13-2.13
		c1.22,0,2.13,0.95,2.13,2.13S132.46,91.68,131.24,91.68z"/>
	<path d="M114.65,88.69l-0.57-0.18c-0.34-0.11-0.93-0.27-0.93-0.77c0-0.39,0.45-0.66,1.27-0.66c0.7,0,1.56,0.25,1.61,0.25v-1.74
		c-0.07-0.02-1-0.25-2-0.25c-1.88,0-3.04,1.02-3.04,2.54c0,1.34,0.95,2.02,2.09,2.38c0.14,0.05,0.32,0.09,0.43,0.14
		c0.5,0.16,0.91,0.41,0.91,0.82c0,0.45-0.48,0.75-1.5,0.75c-0.91,0-1.75-0.25-1.93-0.29v1.86c0.09,0.02,1.13,0.23,2.22,0.23
		c1.57,0,3.36-0.68,3.36-2.72C116.6,90.03,115.99,89.12,114.65,88.69z"/>
	<path d="M72.47,72.17l-5.03-15.36h-4.97L57.5,72.08l-4.72-15.27h-4.69l6.67,20.12h5.17l4.97-15.18l4.99,15.18h5.24l6.67-20.12
		h-4.58L72.47,72.17z"/>
	<path d="M98.38,71.49c-0.84,0.68-1.77,1.2-2.79,1.56c-1.02,0.36-2.02,0.57-3.04,0.57c-0.97,0-1.88-0.18-2.72-0.54
		s-1.54-0.93-2.11-1.7s-0.95-1.72-1.13-2.88h14.86c0.05-0.68,0.09-1.22,0.09-1.63c0-2.06-0.41-3.9-1.2-5.51
		c-0.82-1.59-1.93-2.83-3.36-3.72c-1.43-0.88-3.08-1.34-4.94-1.34c-1.95,0-3.7,0.45-5.22,1.34c-1.52,0.88-2.7,2.13-3.54,3.74
		S82,64.82,82,66.89c0,2.11,0.43,3.94,1.32,5.55c0.88,1.61,2.09,2.83,3.65,3.72c1.56,0.88,3.33,1.31,5.33,1.31
		c1.61,0,3.11-0.23,4.47-0.66s2.63-1.16,3.81-2.18L98.38,71.49z M88.32,61.52c0.91-0.88,2.11-1.34,3.61-1.34
		c1.38,0,2.52,0.43,3.42,1.29c0.88,0.86,1.45,2.08,1.7,3.65H86.62C86.83,63.63,87.42,62.4,88.32,61.52z"/>
	<path d="M120.24,57.64c-1.54-0.91-3.24-1.36-5.1-1.36c-1.38,0-2.59,0.25-3.63,0.77s-1.95,1.22-2.68,2.15V48.26h-4.4v28.66h4.4v-2.4
		c0.73,0.93,1.61,1.63,2.68,2.15c1.04,0.52,2.27,0.77,3.63,0.77c1.86,0,3.56-0.45,5.1-1.36s2.74-2.18,3.63-3.78
		c0.88-1.61,1.34-3.42,1.34-5.44s-0.45-3.83-1.34-5.44C122.99,59.82,121.75,58.55,120.24,57.64z M119.94,70.11
		c-0.5,0.97-1.2,1.77-2.13,2.33c-0.93,0.57-2,0.86-3.22,0.86c-1.18,0-2.25-0.27-3.15-0.84c-0.91-0.57-1.63-1.34-2.13-2.31
		c-0.52-0.97-0.77-2.08-0.77-3.29c0-1.22,0.25-2.31,0.77-3.29c0.52-0.97,1.22-1.74,2.13-2.31c0.91-0.57,1.97-0.84,3.15-0.84
		c1.22,0,2.29,0.29,3.22,0.86s1.63,1.36,2.13,2.33s0.73,2.06,0.73,3.26C120.69,68.05,120.44,69.12,119.94,70.11z"/>
	<path d="M142.48,57.62c-1.43-0.88-3.08-1.34-4.94-1.34c-1.95,0-3.7,0.45-5.22,1.34c-1.52,0.88-2.7,2.13-3.54,3.74
		c-0.84,1.61-1.27,3.44-1.27,5.51c0,2.11,0.43,3.94,1.32,5.55c0.88,1.61,2.09,2.83,3.65,3.72c1.56,0.89,3.33,1.31,5.33,1.31
		c1.61,0,3.11-0.23,4.47-0.66s2.63-1.16,3.81-2.18l-2.18-3.13c-0.84,0.68-1.77,1.2-2.79,1.56c-1.02,0.36-2.02,0.57-3.04,0.57
		c-0.98,0-1.88-0.18-2.72-0.54s-1.54-0.93-2.11-1.7c-0.57-0.77-0.95-1.72-1.13-2.88h14.86c0.05-0.68,0.09-1.22,0.09-1.63
		c0-2.06-0.41-3.9-1.2-5.51C145.04,59.75,143.91,58.51,142.48,57.62z M132.12,65.14c0.25-1.52,0.84-2.74,1.72-3.63
		c0.91-0.88,2.11-1.34,3.61-1.34c1.38,0,2.52,0.43,3.42,1.29c0.88,0.86,1.45,2.08,1.7,3.65h-10.46L132.12,65.14L132.12,65.14z"/>
	<path d="M160.33,66.62l7.44-9.81h-5.19l-4.92,6.71l-4.92-6.71h-5.4l7.46,9.86l-7.58,10.26h5.15l5.03-7l5.1,7h5.4L160.33,66.62z"/>
</g>
</svg>
