<svg width="763" height="210" viewBox="0 0 763 210" fill="none" xmlns="http://www.w3.org/2000/svg">
<g clip-path="url(#clip0)">
<path d="M362.322 38H382.522L353.172 126.75H329.992L307.992 59.75L286.042 126.75H263.292L233.922 38H254.582L275.422 105.44L297.292 38H319.242L341.392 105.82L362.322 38Z" fill="white"/>
<path d="M469.171 89.5101H403.631C404.237 94.0849 405.953 98.4418 408.631 102.2C411.016 105.483 414.228 108.074 417.941 109.71C421.731 111.334 425.818 112.152 429.941 112.11C434.511 112.09 439.041 111.261 443.321 109.66C447.762 108.041 451.909 105.711 455.601 102.76L465.231 116.56C460.326 120.849 454.609 124.11 448.421 126.15C442.052 128.151 435.407 129.136 428.731 129.07C420.507 129.229 412.385 127.233 405.171 123.28C398.383 119.451 392.831 113.761 389.171 106.88C385.311 99.8135 383.381 91.6468 383.381 82.3801C383.214 73.9358 385.138 65.5813 388.981 58.0602C392.521 51.1981 397.933 45.4803 404.591 41.5701C411.583 37.5606 419.533 35.5248 427.591 35.6801C435.275 35.5403 442.841 37.5827 449.411 41.5701C455.774 45.5591 460.888 51.2555 464.171 58.0101C467.839 65.5659 469.666 73.8828 469.501 82.2802C469.501 84.1402 469.391 86.5501 469.171 89.5101ZM449.671 74.7802C448.624 67.8602 446.138 62.4868 442.211 58.6601C438.284 54.8335 433.284 52.9202 427.211 52.9202C420.598 52.9202 415.301 54.8801 411.321 58.8001C407.341 62.7201 404.794 68.0535 403.681 74.8001L449.671 74.7802Z" fill="white"/>
<path d="M551.991 41.71C558.737 45.7136 564.267 51.4757 567.991 58.38C571.856 65.7897 573.874 74.023 573.874 82.38C573.874 90.7369 571.856 98.9702 567.991 106.38C564.253 113.312 558.692 119.091 551.908 123.092C545.124 127.092 537.376 129.163 529.501 129.08C523.98 129.187 518.507 128.031 513.501 125.7C508.906 123.47 504.88 120.221 501.731 116.2V126.76H482.371V0.209961H501.731V48.56C504.878 44.5391 508.904 41.2926 513.501 39.07C518.505 36.7308 523.979 35.571 529.501 35.68C537.409 35.5901 545.189 37.6761 551.991 41.71V41.71ZM541.391 107.02C545.414 104.542 548.655 100.979 550.741 96.74C552.881 92.2552 553.991 87.349 553.991 82.38C553.991 77.411 552.881 72.5047 550.741 68.02C548.655 63.7783 545.414 60.2115 541.391 57.73C537.122 55.256 532.278 53.9457 527.343 53.9299C522.409 53.9141 517.556 55.1934 513.271 57.64C509.237 60.0946 505.965 63.6227 503.821 67.83C501.598 72.3565 500.443 77.3322 500.443 82.375C500.443 87.4177 501.598 92.3934 503.821 96.92C505.965 101.127 509.237 104.655 513.271 107.11C517.556 109.557 522.409 110.836 527.343 110.82C532.278 110.804 537.122 109.494 541.391 107.02Z" fill="white"/>
<path d="M669.882 89.5098H604.382C604.987 94.0846 606.704 98.4414 609.382 102.2C611.771 105.482 614.987 108.073 618.702 109.71C622.492 111.334 626.578 112.152 630.702 112.11C635.275 112.091 639.808 111.261 644.092 109.66C648.53 108.043 652.675 105.712 656.362 102.76L666.002 116.56C661.09 120.85 655.367 124.111 649.172 126.15C642.806 128.15 636.164 129.136 629.492 129.07C621.277 129.225 613.166 127.229 605.962 123.28C599.144 119.462 593.564 113.771 589.882 106.88C586.022 99.8131 584.092 91.6464 584.092 82.3798C583.928 73.9346 585.856 65.5801 589.702 58.0598C593.238 51.1958 598.652 45.4773 605.312 41.5698C612.303 37.5592 620.253 35.5234 628.312 35.6798C635.996 35.5372 643.563 37.5797 650.132 41.5698C656.517 45.55 661.653 51.2473 664.952 58.0098C668.62 65.5655 670.446 73.8824 670.282 82.2798C670.262 84.1398 670.128 86.5498 669.882 89.5098ZM650.432 74.7798C649.372 67.8598 646.885 62.4864 642.972 58.6598C639.058 54.8331 634.038 52.9198 627.912 52.9198C621.305 52.9198 616.008 54.8798 612.022 58.7998C608.035 62.7198 605.488 68.0531 604.382 74.7998L650.432 74.7798Z" fill="white"/>
<path d="M762.248 126.75H738.438L715.918 95.9L693.688 126.75H670.988L704.438 81.45L671.548 38H695.358L717.038 67.65L738.708 38H761.598L728.798 81.26L762.248 126.75Z" fill="white"/>
<path d="M528.969 200.24H525.039V164.51H529.809V178.02C530.763 176.622 532.059 175.492 533.573 174.736C535.087 173.98 536.769 173.623 538.459 173.7C540.115 173.621 541.765 173.944 543.27 174.64C544.774 175.337 546.088 176.386 547.099 177.7C548.919 180.086 549.829 183.25 549.829 187.19C549.829 191.856 548.589 195.436 546.109 197.93C545.058 198.967 543.806 199.778 542.431 200.315C541.055 200.851 539.585 201.101 538.109 201.05C536.469 201.134 534.834 200.795 533.363 200.064C531.892 199.334 530.634 198.237 529.709 196.88L528.969 200.24ZM544.869 187.02C544.869 183.78 544.059 181.34 542.429 179.72C541.768 179.054 540.977 178.532 540.104 178.188C539.231 177.844 538.297 177.684 537.359 177.72C536.259 177.676 535.164 177.892 534.163 178.351C533.162 178.809 532.284 179.498 531.599 180.36C530.182 182.278 529.475 184.628 529.599 187.01C529.599 190.33 530.419 192.86 532.039 194.62C532.71 195.37 533.538 195.964 534.465 196.358C535.391 196.752 536.393 196.937 537.399 196.9C538.498 196.961 539.594 196.743 540.586 196.265C541.577 195.788 542.432 195.067 543.069 194.17C544.4 192.032 545.029 189.532 544.869 187.02V187.02Z" fill="white"/>
<path d="M575.37 174.41L566.37 200.59C565.18 204.06 564.03 206.43 562.94 207.69C562.327 208.414 561.56 208.991 560.695 209.379C559.829 209.767 558.888 209.955 557.94 209.93C556.899 209.904 555.865 209.753 554.86 209.48V205.6C555.672 205.821 556.508 205.939 557.35 205.95C557.803 205.975 558.256 205.891 558.67 205.705C559.084 205.519 559.448 205.236 559.73 204.88C560.646 203.435 561.365 201.875 561.87 200.24H560.33L550.84 174.41H556.01L563.31 196.41L570.61 174.41H575.37Z" fill="white"/>
<path d="M640.961 164.51H631.961V200.35H640.961V164.51Z" fill="white"/>
<path d="M713.899 174.79C711.568 173.519 708.953 172.858 706.299 172.87C700.439 172.87 696.379 176.95 696.379 182.43C696.379 187.76 700.269 192 706.299 192C708.951 192.012 711.564 191.359 713.899 190.1V199.72C711.226 200.547 708.446 200.978 705.649 201C695.479 201 686.559 194 686.559 182.43C686.559 171.73 694.639 163.88 705.649 163.88C708.449 163.882 711.231 164.318 713.899 165.17V174.79Z" fill="white"/>
<path d="M619.478 174.79C617.149 173.516 614.534 172.855 611.878 172.87C606.018 172.87 601.968 176.95 601.968 182.43C601.968 187.76 605.848 192 611.878 192C614.531 192.012 617.144 191.359 619.478 190.1V199.72C616.806 200.548 614.026 200.979 611.228 201C601.058 201 592.148 194 592.148 182.43C592.148 171.73 600.218 163.88 611.228 163.88C614.028 163.882 616.811 164.318 619.478 165.17V174.79Z" fill="white"/>
<path d="M742.352 173.01C740.483 172.996 738.653 173.538 737.093 174.566C735.533 175.594 734.313 177.062 733.589 178.785C732.865 180.507 732.669 182.406 733.025 184.24C733.382 186.074 734.276 187.761 735.593 189.086C736.91 190.412 738.591 191.316 740.422 191.684C742.254 192.053 744.154 191.869 745.881 191.156C747.608 190.443 749.084 189.232 750.122 187.679C751.161 186.125 751.714 184.298 751.712 182.43C751.733 181.192 751.506 179.962 751.044 178.814C750.582 177.665 749.895 176.621 749.022 175.742C748.149 174.864 747.109 174.17 745.964 173.701C744.818 173.231 743.59 172.996 742.352 173.01V173.01ZM761.292 182.43C761.292 192.69 753.382 201 742.352 201C731.322 201 723.422 192.69 723.422 182.43C723.422 172.17 731.332 163.88 742.352 163.88C753.372 163.88 761.292 172.2 761.292 182.43Z" fill="white"/>
<path d="M675.261 172.66C672.954 172.026 670.582 171.66 668.191 171.57C664.571 171.57 662.601 172.78 662.601 174.51C662.601 176.69 665.261 177.45 666.741 177.92L669.241 178.72C675.111 180.58 677.791 184.6 677.791 188.97C677.791 197.97 669.871 200.97 662.941 200.97C659.664 200.931 656.398 200.596 653.181 199.97V191.72C655.96 192.525 658.829 192.972 661.721 193.05C666.231 193.05 668.291 191.74 668.291 189.71C668.291 187.89 666.501 186.84 664.291 186.14C663.741 185.95 662.921 185.7 662.361 185.51C657.361 183.92 653.121 180.96 653.121 175.03C653.121 168.32 658.121 163.82 666.481 163.82C669.452 163.86 672.408 164.243 675.291 164.96L675.261 172.66Z" fill="white"/>
<path d="M43.4817 68.9199C45.5781 76.2841 48.4299 83.412 51.9917 90.1899C53.6317 93.1899 55.2517 96.1899 58.2117 98.0799C58.7255 98.4003 59.2903 98.6303 59.8817 98.7599C64.2517 99.6899 66.6317 96.1799 68.1817 92.9699C70.4722 87.9314 72.3257 82.7056 73.7217 77.3499C74.0017 76.3499 74.2517 75.3499 74.5117 74.3499C75.0217 72.4299 75.5117 70.4999 75.9417 68.5699L95.1717 17.1899C99.1688 11.8676 104.35 7.54887 110.305 4.57566C116.26 1.60245 122.826 0.0563877 129.482 0.0598813C139.067 0.000872626 148.386 3.21068 155.902 9.15988C168.492 18.6799 175.972 37.4299 175.972 37.4299C177.073 39.868 177.636 42.5147 177.622 45.1899C177.602 49.0551 176.395 52.8209 174.165 55.9777C171.934 59.1344 168.788 61.5295 165.151 62.8389C161.514 64.1482 157.563 64.3086 153.832 63.2982C150.101 62.2878 146.771 60.1555 144.292 57.1899L144.112 56.9699C142.906 55.3352 141.899 53.5627 141.112 51.6899C140.074 49.3366 138.913 47.04 137.632 44.8099C136.952 43.6599 136.192 42.5699 135.412 41.4899C134.74 40.5222 133.943 39.6479 133.042 38.8899C131.272 37.4599 129.042 36.8899 126.962 38.1199C126.861 38.1774 126.765 38.2408 126.672 38.3099C124.532 39.7799 123.032 42.7499 121.992 45.0299C118.992 51.4899 117.272 58.1099 115.572 64.9099C115.252 66.2199 114.932 67.5299 114.632 68.8499L106.692 94.8499L95.4717 119.57C91.4584 124.749 86.3224 128.95 80.4504 131.856C74.5784 134.763 68.1235 136.299 61.5717 136.35C34.3417 136.93 21.4217 112.35 21.4217 112.35C5.91172 86.9099 1.34173 53.3499 0.251726 42.6199C0.0217255 40.3899 0.0117201 39.0599 0.0117201 39.0599C0.0104571 35.6989 0.927288 32.4015 2.66322 29.5235C4.39915 26.6456 6.88823 24.2965 9.86173 22.7299C12.9362 21.172 16.3577 20.4251 19.8017 20.5599C23.0088 20.6957 26.1292 21.6418 28.8717 23.3099C30.9943 24.5866 32.8295 26.289 34.2617 28.3099C36.8317 31.9499 37.4017 36.4799 37.9217 40.8099C38.9768 50.3203 40.8368 59.724 43.4817 68.9199V68.9199Z" fill="#F7F7F7"/>
<path d="M43.4817 68.9199C45.5781 76.2841 48.4299 83.412 51.9917 90.1899C53.6317 93.1899 55.2517 96.1899 58.2117 98.0799C58.7255 98.4003 59.2903 98.6303 59.8817 98.7599C64.2517 99.6899 66.6317 96.1799 68.1817 92.9699C70.4722 87.9314 72.3257 82.7056 73.7217 77.3499C74.0017 76.3499 74.2517 75.3499 74.5117 74.3499C75.0217 72.4299 75.5117 70.4999 75.9417 68.5699L95.1717 17.1899C99.1688 11.8676 104.35 7.54887 110.305 4.57566C116.26 1.60245 122.826 0.0563877 129.482 0.0598813C139.067 0.000872626 148.386 3.21068 155.902 9.15988C168.492 18.6799 175.972 37.4299 175.972 37.4299C177.073 39.868 177.636 42.5147 177.622 45.1899C177.602 49.0551 176.395 52.8209 174.165 55.9777C171.934 59.1344 168.788 61.5295 165.151 62.8389C161.514 64.1482 157.563 64.3086 153.832 63.2982C150.101 62.2878 146.771 60.1555 144.292 57.1899L144.112 56.9699C142.906 55.3352 141.899 53.5627 141.112 51.6899C140.074 49.3366 138.913 47.04 137.632 44.8099C136.952 43.6599 136.192 42.5699 135.412 41.4899C134.74 40.5222 133.943 39.6479 133.042 38.8899C131.272 37.4599 129.042 36.8899 126.962 38.1199C126.861 38.1774 126.765 38.2408 126.672 38.3099C124.532 39.7799 123.032 42.7499 121.992 45.0299C118.992 51.4899 117.272 58.1099 115.572 64.9099C115.252 66.2199 114.932 67.5299 114.632 68.8499L106.692 94.8499L95.4717 119.57C91.4584 124.749 86.3224 128.95 80.4504 131.856C74.5784 134.763 68.1235 136.299 61.5717 136.35C34.3417 136.93 21.4217 112.35 21.4217 112.35C5.91172 86.9099 1.34173 53.3499 0.251726 42.6199C0.0217255 40.3899 0.0117201 39.0599 0.0117201 39.0599C0.0104571 35.6989 0.927288 32.4015 2.66322 29.5235C4.39915 26.6456 6.88823 24.2965 9.86173 22.7299C12.9362 21.172 16.3577 20.4251 19.8017 20.5599C23.0088 20.6957 26.1292 21.6418 28.8717 23.3099C30.9943 24.5866 32.8295 26.289 34.2617 28.3099C36.8317 31.9499 37.4017 36.4799 37.9217 40.8099C38.9768 50.3203 40.8368 59.724 43.4817 68.9199V68.9199Z" fill="url(#paint0_radial)"/>
<path d="M43.4817 68.9199C45.5781 76.2841 48.4299 83.412 51.9917 90.1899C53.6317 93.1899 55.2517 96.1899 58.2117 98.0799C58.7255 98.4003 59.2903 98.6303 59.8817 98.7599C64.2517 99.6899 66.6317 96.1799 68.1817 92.9699C70.4722 87.9314 72.3257 82.7056 73.7217 77.3499C74.0017 76.3499 74.2517 75.3499 74.5117 74.3499C75.0217 72.4299 75.5117 70.4999 75.9417 68.5699L95.1717 17.1899C99.1688 11.8676 104.35 7.54887 110.305 4.57566C116.26 1.60245 122.826 0.0563877 129.482 0.0598813C139.067 0.000872626 148.386 3.21068 155.902 9.15988C168.492 18.6799 175.972 37.4299 175.972 37.4299C177.073 39.868 177.636 42.5147 177.622 45.1899C177.602 49.0551 176.395 52.8209 174.165 55.9777C171.934 59.1344 168.788 61.5295 165.151 62.8389C161.514 64.1482 157.563 64.3086 153.832 63.2982C150.101 62.2878 146.771 60.1555 144.292 57.1899L144.112 56.9699C142.906 55.3352 141.899 53.5627 141.112 51.6899C140.074 49.3366 138.913 47.04 137.632 44.8099C136.952 43.6599 136.192 42.5699 135.412 41.4899C134.74 40.5222 133.943 39.6479 133.042 38.8899C131.272 37.4599 129.042 36.8899 126.962 38.1199C126.861 38.1774 126.765 38.2408 126.672 38.3099C124.532 39.7799 123.032 42.7499 121.992 45.0299C118.992 51.4899 117.272 58.1099 115.572 64.9099C115.252 66.2199 114.932 67.5299 114.632 68.8499L106.692 94.8499L95.4717 119.57C91.4584 124.749 86.3224 128.95 80.4504 131.856C74.5784 134.763 68.1235 136.299 61.5717 136.35C34.3417 136.93 21.4217 112.35 21.4217 112.35C5.91172 86.9099 1.34173 53.3499 0.251726 42.6199C0.0217255 40.3899 0.0117201 39.0599 0.0117201 39.0599C0.0104571 35.6989 0.927288 32.4015 2.66322 29.5235C4.39915 26.6456 6.88823 24.2965 9.86173 22.7299C12.9362 21.172 16.3577 20.4251 19.8017 20.5599C23.0088 20.6957 26.1292 21.6418 28.8717 23.3099C30.9943 24.5866 32.8295 26.289 34.2617 28.3099C36.8317 31.9499 37.4017 36.4799 37.9217 40.8099C38.9768 50.3203 40.8368 59.724 43.4817 68.9199V68.9199Z" fill="url(#paint1_radial)"/>
<path d="M43.4817 68.9199C45.5781 76.2841 48.4299 83.412 51.9917 90.1899C53.6317 93.1899 55.2517 96.1899 58.2117 98.0799C58.7255 98.4003 59.2903 98.6303 59.8817 98.7599C64.2517 99.6899 66.6317 96.1799 68.1817 92.9699C70.4722 87.9314 72.3257 82.7056 73.7217 77.3499C74.0017 76.3499 74.2517 75.3499 74.5117 74.3499C75.0217 72.4299 75.5117 70.4999 75.9417 68.5699L95.1717 17.1899C99.1688 11.8676 104.35 7.54887 110.305 4.57566C116.26 1.60245 122.826 0.0563877 129.482 0.0598813C139.067 0.000872626 148.386 3.21068 155.902 9.15988C168.492 18.6799 175.972 37.4299 175.972 37.4299C177.073 39.868 177.636 42.5147 177.622 45.1899C177.602 49.0551 176.395 52.8209 174.165 55.9777C171.934 59.1344 168.788 61.5295 165.151 62.8389C161.514 64.1482 157.563 64.3086 153.832 63.2982C150.101 62.2878 146.771 60.1555 144.292 57.1899L144.112 56.9699C142.906 55.3352 141.899 53.5627 141.112 51.6899C140.074 49.3366 138.913 47.04 137.632 44.8099C136.952 43.6599 136.192 42.5699 135.412 41.4899C134.74 40.5222 133.943 39.6479 133.042 38.8899C131.272 37.4599 129.042 36.8899 126.962 38.1199C126.861 38.1774 126.765 38.2408 126.672 38.3099C124.532 39.7799 123.032 42.7499 121.992 45.0299C118.992 51.4899 117.272 58.1099 115.572 64.9099C115.252 66.2199 114.932 67.5299 114.632 68.8499L106.692 94.8499L95.4717 119.57C91.4584 124.749 86.3224 128.95 80.4504 131.856C74.5784 134.763 68.1235 136.299 61.5717 136.35C34.3417 136.93 21.4217 112.35 21.4217 112.35C5.91172 86.9099 1.34173 53.3499 0.251726 42.6199C0.0217255 40.3899 0.0117201 39.0599 0.0117201 39.0599C0.0104571 35.6989 0.927288 32.4015 2.66322 29.5235C4.39915 26.6456 6.88823 24.2965 9.86173 22.7299C12.9362 21.172 16.3577 20.4251 19.8017 20.5599C23.0088 20.6957 26.1292 21.6418 28.8717 23.3099C30.9943 24.5866 32.8295 26.289 34.2617 28.3099C36.8317 31.9499 37.4017 36.4799 37.9217 40.8099C38.9768 50.3203 40.8368 59.724 43.4817 68.9199V68.9199Z" fill="url(#paint2_radial)"/>
<path d="M43.4817 68.9199C45.5781 76.2841 48.4299 83.412 51.9917 90.1899C53.6317 93.1899 55.2517 96.1899 58.2117 98.0799C58.7255 98.4003 59.2903 98.6303 59.8817 98.7599C64.2517 99.6899 66.6317 96.1799 68.1817 92.9699C70.4722 87.9314 72.3257 82.7056 73.7217 77.3499C74.0017 76.3499 74.2517 75.3499 74.5117 74.3499C75.0217 72.4299 75.5117 70.4999 75.9417 68.5699L95.1717 17.1899C99.1688 11.8676 104.35 7.54887 110.305 4.57566C116.26 1.60245 122.826 0.0563877 129.482 0.0598813C139.067 0.000872626 148.386 3.21068 155.902 9.15988C168.492 18.6799 175.972 37.4299 175.972 37.4299C177.073 39.868 177.636 42.5147 177.622 45.1899C177.602 49.0551 176.395 52.8209 174.165 55.9777C171.934 59.1344 168.788 61.5295 165.151 62.8389C161.514 64.1482 157.563 64.3086 153.832 63.2982C150.101 62.2878 146.771 60.1555 144.292 57.1899L144.112 56.9699C142.906 55.3352 141.899 53.5627 141.112 51.6899C140.074 49.3366 138.913 47.04 137.632 44.8099C136.952 43.6599 136.192 42.5699 135.412 41.4899C134.74 40.5222 133.943 39.6479 133.042 38.8899C131.272 37.4599 129.042 36.8899 126.962 38.1199C126.861 38.1774 126.765 38.2408 126.672 38.3099C124.532 39.7799 123.032 42.7499 121.992 45.0299C118.992 51.4899 117.272 58.1099 115.572 64.9099C115.252 66.2199 114.932 67.5299 114.632 68.8499L106.692 94.8499L95.4717 119.57C91.4584 124.749 86.3224 128.95 80.4504 131.856C74.5784 134.763 68.1235 136.299 61.5717 136.35C34.3417 136.93 21.4217 112.35 21.4217 112.35C5.91172 86.9099 1.34173 53.3499 0.251726 42.6199C0.0217255 40.3899 0.0117201 39.0599 0.0117201 39.0599C0.0104571 35.6989 0.927288 32.4015 2.66322 29.5235C4.39915 26.6456 6.88823 24.2965 9.86173 22.7299C12.9362 21.172 16.3577 20.4251 19.8017 20.5599C23.0088 20.6957 26.1292 21.6418 28.8717 23.3099C30.9943 24.5866 32.8295 26.289 34.2617 28.3099C36.8317 31.9499 37.4017 36.4799 37.9217 40.8099C38.9768 50.3203 40.8368 59.724 43.4817 68.9199V68.9199Z" fill="url(#paint3_radial)"/>
<path d="M43.4817 68.9199C45.5781 76.2841 48.4299 83.412 51.9917 90.1899C53.6317 93.1899 55.2517 96.1899 58.2117 98.0799C58.7255 98.4003 59.2903 98.6303 59.8817 98.7599C64.2517 99.6899 66.6317 96.1799 68.1817 92.9699C70.4722 87.9314 72.3257 82.7056 73.7217 77.3499C74.0017 76.3499 74.2517 75.3499 74.5117 74.3499C75.0217 72.4299 75.5117 70.4999 75.9417 68.5699L95.1717 17.1899C99.1688 11.8676 104.35 7.54887 110.305 4.57566C116.26 1.60245 122.826 0.0563877 129.482 0.0598813C139.067 0.000872626 148.386 3.21068 155.902 9.15988C168.492 18.6799 175.972 37.4299 175.972 37.4299C177.073 39.868 177.636 42.5147 177.622 45.1899C177.602 49.0551 176.395 52.8209 174.165 55.9777C171.934 59.1344 168.788 61.5295 165.151 62.8389C161.514 64.1482 157.563 64.3086 153.832 63.2982C150.101 62.2878 146.771 60.1555 144.292 57.1899L144.112 56.9699C142.906 55.3352 141.899 53.5627 141.112 51.6899C140.074 49.3366 138.913 47.04 137.632 44.8099C136.952 43.6599 136.192 42.5699 135.412 41.4899C134.74 40.5222 133.943 39.6479 133.042 38.8899C131.272 37.4599 129.042 36.8899 126.962 38.1199C126.861 38.1774 126.765 38.2408 126.672 38.3099C124.532 39.7799 123.032 42.7499 121.992 45.0299C118.992 51.4899 117.272 58.1099 115.572 64.9099C115.252 66.2199 114.932 67.5299 114.632 68.8499L106.692 94.8499L95.4717 119.57C91.4584 124.749 86.3224 128.95 80.4504 131.856C74.5784 134.763 68.1235 136.299 61.5717 136.35C34.3417 136.93 21.4217 112.35 21.4217 112.35C5.91172 86.9099 1.34173 53.3499 0.251726 42.6199C0.0217255 40.3899 0.0117201 39.0599 0.0117201 39.0599C0.0104571 35.6989 0.927288 32.4015 2.66322 29.5235C4.39915 26.6456 6.88823 24.2965 9.86173 22.7299C12.9362 21.172 16.3577 20.4251 19.8017 20.5599C23.0088 20.6957 26.1292 21.6418 28.8717 23.3099C30.9943 24.5866 32.8295 26.289 34.2617 28.3099C36.8317 31.9499 37.4017 36.4799 37.9217 40.8099C38.9768 50.3203 40.8368 59.724 43.4817 68.9199V68.9199Z" fill="url(#paint4_radial)"/>
<path d="M43.4817 68.9199C45.5781 76.2841 48.4299 83.412 51.9917 90.1899C53.6317 93.1899 55.2517 96.1899 58.2117 98.0799C58.7255 98.4003 59.2903 98.6303 59.8817 98.7599C64.2517 99.6899 66.6317 96.1799 68.1817 92.9699C70.4722 87.9314 72.3257 82.7056 73.7217 77.3499C74.0017 76.3499 74.2517 75.3499 74.5117 74.3499C75.0217 72.4299 75.5117 70.4999 75.9417 68.5699L95.1717 17.1899C99.1688 11.8676 104.35 7.54887 110.305 4.57566C116.26 1.60245 122.826 0.0563877 129.482 0.0598813C139.067 0.000872626 148.386 3.21068 155.902 9.15988C168.492 18.6799 175.972 37.4299 175.972 37.4299C177.073 39.868 177.636 42.5147 177.622 45.1899C177.602 49.0551 176.395 52.8209 174.165 55.9777C171.934 59.1344 168.788 61.5295 165.151 62.8389C161.514 64.1482 157.563 64.3086 153.832 63.2982C150.101 62.2878 146.771 60.1555 144.292 57.1899L144.112 56.9699C142.906 55.3352 141.899 53.5627 141.112 51.6899C140.074 49.3366 138.913 47.04 137.632 44.8099C136.952 43.6599 136.192 42.5699 135.412 41.4899C134.74 40.5222 133.943 39.6479 133.042 38.8899C131.272 37.4599 129.042 36.8899 126.962 38.1199C126.861 38.1774 126.765 38.2408 126.672 38.3099C124.532 39.7799 123.032 42.7499 121.992 45.0299C118.992 51.4899 117.272 58.1099 115.572 64.9099C115.252 66.2199 114.932 67.5299 114.632 68.8499L106.692 94.8499L95.4717 119.57C91.4584 124.749 86.3224 128.95 80.4504 131.856C74.5784 134.763 68.1235 136.299 61.5717 136.35C34.3417 136.93 21.4217 112.35 21.4217 112.35C5.91172 86.9099 1.34173 53.3499 0.251726 42.6199C0.0217255 40.3899 0.0117201 39.0599 0.0117201 39.0599C0.0104571 35.6989 0.927288 32.4015 2.66322 29.5235C4.39915 26.6456 6.88823 24.2965 9.86173 22.7299C12.9362 21.172 16.3577 20.4251 19.8017 20.5599C23.0088 20.6957 26.1292 21.6418 28.8717 23.3099C30.9943 24.5866 32.8295 26.289 34.2617 28.3099C36.8317 31.9499 37.4017 36.4799 37.9217 40.8099C38.9768 50.3203 40.8368 59.724 43.4817 68.9199V68.9199Z" fill="url(#paint5_radial)"/>
<path d="M43.4817 68.9199C45.5781 76.2841 48.4299 83.412 51.9917 90.1899C53.6317 93.1899 55.2517 96.1899 58.2117 98.0799C58.7255 98.4003 59.2903 98.6303 59.8817 98.7599C64.2517 99.6899 66.6317 96.1799 68.1817 92.9699C70.4722 87.9314 72.3257 82.7056 73.7217 77.3499C74.0017 76.3499 74.2517 75.3499 74.5117 74.3499C75.0217 72.4299 75.5117 70.4999 75.9417 68.5699L95.1717 17.1899C99.1688 11.8676 104.35 7.54887 110.305 4.57566C116.26 1.60245 122.826 0.0563877 129.482 0.0598813C139.067 0.000872626 148.386 3.21068 155.902 9.15988C168.492 18.6799 175.972 37.4299 175.972 37.4299C177.073 39.868 177.636 42.5147 177.622 45.1899C177.602 49.0551 176.395 52.8209 174.165 55.9777C171.934 59.1344 168.788 61.5295 165.151 62.8389C161.514 64.1482 157.563 64.3086 153.832 63.2982C150.101 62.2878 146.771 60.1555 144.292 57.1899L144.112 56.9699C142.906 55.3352 141.899 53.5627 141.112 51.6899C140.074 49.3366 138.913 47.04 137.632 44.8099C136.952 43.6599 136.192 42.5699 135.412 41.4899C134.74 40.5222 133.943 39.6479 133.042 38.8899C131.272 37.4599 129.042 36.8899 126.962 38.1199C126.861 38.1774 126.765 38.2408 126.672 38.3099C124.532 39.7799 123.032 42.7499 121.992 45.0299C118.992 51.4899 117.272 58.1099 115.572 64.9099C115.252 66.2199 114.932 67.5299 114.632 68.8499L106.692 94.8499L95.4717 119.57C91.4584 124.749 86.3224 128.95 80.4504 131.856C74.5784 134.763 68.1235 136.299 61.5717 136.35C34.3417 136.93 21.4217 112.35 21.4217 112.35C5.91172 86.9099 1.34173 53.3499 0.251726 42.6199C0.0217255 40.3899 0.0117201 39.0599 0.0117201 39.0599C0.0104571 35.6989 0.927288 32.4015 2.66322 29.5235C4.39915 26.6456 6.88823 24.2965 9.86173 22.7299C12.9362 21.172 16.3577 20.4251 19.8017 20.5599C23.0088 20.6957 26.1292 21.6418 28.8717 23.3099C30.9943 24.5866 32.8295 26.289 34.2617 28.3099C36.8317 31.9499 37.4017 36.4799 37.9217 40.8099C38.9768 50.3203 40.8368 59.724 43.4817 68.9199V68.9199Z" fill="url(#paint6_radial)"/>
<path d="M43.4817 68.9199C45.5781 76.2841 48.4299 83.412 51.9917 90.1899C53.6317 93.1899 55.2517 96.1899 58.2117 98.0799C58.7255 98.4003 59.2903 98.6303 59.8817 98.7599C64.2517 99.6899 66.6317 96.1799 68.1817 92.9699C70.4722 87.9314 72.3257 82.7056 73.7217 77.3499C74.0017 76.3499 74.2517 75.3499 74.5117 74.3499C75.0217 72.4299 75.5117 70.4999 75.9417 68.5699L95.1717 17.1899C99.1688 11.8676 104.35 7.54887 110.305 4.57566C116.26 1.60245 122.826 0.0563877 129.482 0.0598813C139.067 0.000872626 148.386 3.21068 155.902 9.15988C168.492 18.6799 175.972 37.4299 175.972 37.4299C177.073 39.868 177.636 42.5147 177.622 45.1899C177.602 49.0551 176.395 52.8209 174.165 55.9777C171.934 59.1344 168.788 61.5295 165.151 62.8389C161.514 64.1482 157.563 64.3086 153.832 63.2982C150.101 62.2878 146.771 60.1555 144.292 57.1899L144.112 56.9699C142.906 55.3352 141.899 53.5627 141.112 51.6899C140.074 49.3366 138.913 47.04 137.632 44.8099C136.952 43.6599 136.192 42.5699 135.412 41.4899C134.74 40.5222 133.943 39.6479 133.042 38.8899C131.272 37.4599 129.042 36.8899 126.962 38.1199C126.861 38.1774 126.765 38.2408 126.672 38.3099C124.532 39.7799 123.032 42.7499 121.992 45.0299C118.992 51.4899 117.272 58.1099 115.572 64.9099C115.252 66.2199 114.932 67.5299 114.632 68.8499L106.692 94.8499L95.4717 119.57C91.4584 124.749 86.3224 128.95 80.4504 131.856C74.5784 134.763 68.1235 136.299 61.5717 136.35C34.3417 136.93 21.4217 112.35 21.4217 112.35C5.91172 86.9099 1.34173 53.3499 0.251726 42.6199C0.0217255 40.3899 0.0117201 39.0599 0.0117201 39.0599C0.0104571 35.6989 0.927288 32.4015 2.66322 29.5235C4.39915 26.6456 6.88823 24.2965 9.86173 22.7299C12.9362 21.172 16.3577 20.4251 19.8017 20.5599C23.0088 20.6957 26.1292 21.6418 28.8717 23.3099C30.9943 24.5866 32.8295 26.289 34.2617 28.3099C36.8317 31.9499 37.4017 36.4799 37.9217 40.8099C38.9768 50.3203 40.8368 59.724 43.4817 68.9199V68.9199Z" fill="url(#paint7_radial)"/>
<path d="M43.4817 68.9199C45.5781 76.2841 48.4299 83.412 51.9917 90.1899C53.6317 93.1899 55.2517 96.1899 58.2117 98.0799C58.7255 98.4003 59.2903 98.6303 59.8817 98.7599C64.2517 99.6899 66.6317 96.1799 68.1817 92.9699C70.4722 87.9314 72.3257 82.7056 73.7217 77.3499C74.0017 76.3499 74.2517 75.3499 74.5117 74.3499C75.0217 72.4299 75.5117 70.4999 75.9417 68.5699L95.1717 17.1899C99.1688 11.8676 104.35 7.54887 110.305 4.57566C116.26 1.60245 122.826 0.0563877 129.482 0.0598813C139.067 0.000872626 148.386 3.21068 155.902 9.15988C168.492 18.6799 175.972 37.4299 175.972 37.4299C177.073 39.868 177.636 42.5147 177.622 45.1899C177.602 49.0551 176.395 52.8209 174.165 55.9777C171.934 59.1344 168.788 61.5295 165.151 62.8389C161.514 64.1482 157.563 64.3086 153.832 63.2982C150.101 62.2878 146.771 60.1555 144.292 57.1899L144.112 56.9699C142.906 55.3352 141.899 53.5627 141.112 51.6899C140.074 49.3366 138.913 47.04 137.632 44.8099C136.952 43.6599 136.192 42.5699 135.412 41.4899C134.74 40.5222 133.943 39.6479 133.042 38.8899C131.272 37.4599 129.042 36.8899 126.962 38.1199C126.861 38.1774 126.765 38.2408 126.672 38.3099C124.532 39.7799 123.032 42.7499 121.992 45.0299C118.992 51.4899 117.272 58.1099 115.572 64.9099C115.252 66.2199 114.932 67.5299 114.632 68.8499L106.692 94.8499L95.4717 119.57C91.4584 124.749 86.3224 128.95 80.4504 131.856C74.5784 134.763 68.1235 136.299 61.5717 136.35C34.3417 136.93 21.4217 112.35 21.4217 112.35C5.91172 86.9099 1.34173 53.3499 0.251726 42.6199C0.0217255 40.3899 0.0117201 39.0599 0.0117201 39.0599C0.0104571 35.6989 0.927288 32.4015 2.66322 29.5235C4.39915 26.6456 6.88823 24.2965 9.86173 22.7299C12.9362 21.172 16.3577 20.4251 19.8017 20.5599C23.0088 20.6957 26.1292 21.6418 28.8717 23.3099C30.9943 24.5866 32.8295 26.289 34.2617 28.3099C36.8317 31.9499 37.4017 36.4799 37.9217 40.8099C38.9768 50.3203 40.8368 59.724 43.4817 68.9199V68.9199Z" fill="url(#paint8_radial)"/>
<path d="M43.4817 68.9199C45.5781 76.2841 48.4299 83.412 51.9917 90.1899C53.6317 93.1899 55.2517 96.1899 58.2117 98.0799C58.7255 98.4003 59.2903 98.6303 59.8817 98.7599C64.2517 99.6899 66.6317 96.1799 68.1817 92.9699C70.4722 87.9314 72.3257 82.7056 73.7217 77.3499C74.0017 76.3499 74.2517 75.3499 74.5117 74.3499C75.0217 72.4299 75.5117 70.4999 75.9417 68.5699L95.1717 17.1899C99.1688 11.8676 104.35 7.54887 110.305 4.57566C116.26 1.60245 122.826 0.0563877 129.482 0.0598813C139.067 0.000872626 148.386 3.21068 155.902 9.15988C168.492 18.6799 175.972 37.4299 175.972 37.4299C177.073 39.868 177.636 42.5147 177.622 45.1899C177.602 49.0551 176.395 52.8209 174.165 55.9777C171.934 59.1344 168.788 61.5295 165.151 62.8389C161.514 64.1482 157.563 64.3086 153.832 63.2982C150.101 62.2878 146.771 60.1555 144.292 57.1899L144.112 56.9699C142.906 55.3352 141.899 53.5627 141.112 51.6899C140.074 49.3366 138.913 47.04 137.632 44.8099C136.952 43.6599 136.192 42.5699 135.412 41.4899C134.74 40.5222 133.943 39.6479 133.042 38.8899C131.272 37.4599 129.042 36.8899 126.962 38.1199C126.861 38.1774 126.765 38.2408 126.672 38.3099C124.532 39.7799 123.032 42.7499 121.992 45.0299C118.992 51.4899 117.272 58.1099 115.572 64.9099C115.252 66.2199 114.932 67.5299 114.632 68.8499L106.692 94.8499L95.4717 119.57C91.4584 124.749 86.3224 128.95 80.4504 131.856C74.5784 134.763 68.1235 136.299 61.5717 136.35C34.3417 136.93 21.4217 112.35 21.4217 112.35C5.91172 86.9099 1.34173 53.3499 0.251726 42.6199C0.0217255 40.3899 0.0117201 39.0599 0.0117201 39.0599C0.0104571 35.6989 0.927288 32.4015 2.66322 29.5235C4.39915 26.6456 6.88823 24.2965 9.86173 22.7299C12.9362 21.172 16.3577 20.4251 19.8017 20.5599C23.0088 20.6957 26.1292 21.6418 28.8717 23.3099C30.9943 24.5866 32.8295 26.289 34.2617 28.3099C36.8317 31.9499 37.4017 36.4799 37.9217 40.8099C38.9768 50.3203 40.8368 59.724 43.4817 68.9199V68.9199Z" fill="url(#paint9_radial)"/>
<path d="M43.4817 68.9199C45.5781 76.2841 48.4299 83.412 51.9917 90.1899C53.6317 93.1899 55.2517 96.1899 58.2117 98.0799C58.7255 98.4003 59.2903 98.6303 59.8817 98.7599C64.2517 99.6899 66.6317 96.1799 68.1817 92.9699C70.4722 87.9314 72.3257 82.7056 73.7217 77.3499C74.0017 76.3499 74.2517 75.3499 74.5117 74.3499C75.0217 72.4299 75.5117 70.4999 75.9417 68.5699L95.1717 17.1899C99.1688 11.8676 104.35 7.54887 110.305 4.57566C116.26 1.60245 122.826 0.0563877 129.482 0.0598813C139.067 0.000872626 148.386 3.21068 155.902 9.15988C168.492 18.6799 175.972 37.4299 175.972 37.4299C177.073 39.868 177.636 42.5147 177.622 45.1899C177.602 49.0551 176.395 52.8209 174.165 55.9777C171.934 59.1344 168.788 61.5295 165.151 62.8389C161.514 64.1482 157.563 64.3086 153.832 63.2982C150.101 62.2878 146.771 60.1555 144.292 57.1899L144.112 56.9699C142.906 55.3352 141.899 53.5627 141.112 51.6899C140.074 49.3366 138.913 47.04 137.632 44.8099C136.952 43.6599 136.192 42.5699 135.412 41.4899C134.74 40.5222 133.943 39.6479 133.042 38.8899C131.272 37.4599 129.042 36.8899 126.962 38.1199C126.861 38.1774 126.765 38.2408 126.672 38.3099C124.532 39.7799 123.032 42.7499 121.992 45.0299C118.992 51.4899 117.272 58.1099 115.572 64.9099C115.252 66.2199 114.932 67.5299 114.632 68.8499L106.692 94.8499L95.4717 119.57C91.4584 124.749 86.3224 128.95 80.4504 131.856C74.5784 134.763 68.1235 136.299 61.5717 136.35C34.3417 136.93 21.4217 112.35 21.4217 112.35C5.91172 86.9099 1.34173 53.3499 0.251726 42.6199C0.0217255 40.3899 0.0117201 39.0599 0.0117201 39.0599C0.0104571 35.6989 0.927288 32.4015 2.66322 29.5235C4.39915 26.6456 6.88823 24.2965 9.86173 22.7299C12.9362 21.172 16.3577 20.4251 19.8017 20.5599C23.0088 20.6957 26.1292 21.6418 28.8717 23.3099C30.9943 24.5866 32.8295 26.289 34.2617 28.3099C36.8317 31.9499 37.4017 36.4799 37.9217 40.8099C38.9768 50.3203 40.8368 59.724 43.4817 68.9199V68.9199Z" fill="url(#paint10_radial)"/>
<path d="M43.4817 68.9199C45.5781 76.2841 48.4299 83.412 51.9917 90.1899C53.6317 93.1899 55.2517 96.1899 58.2117 98.0799C58.7255 98.4003 59.2903 98.6303 59.8817 98.7599C64.2517 99.6899 66.6317 96.1799 68.1817 92.9699C70.4722 87.9314 72.3257 82.7056 73.7217 77.3499C74.0017 76.3499 74.2517 75.3499 74.5117 74.3499C75.0217 72.4299 75.5117 70.4999 75.9417 68.5699L95.1717 17.1899C99.1688 11.8676 104.35 7.54887 110.305 4.57566C116.26 1.60245 122.826 0.0563877 129.482 0.0598813C139.067 0.000872626 148.386 3.21068 155.902 9.15988C168.492 18.6799 175.972 37.4299 175.972 37.4299C177.073 39.868 177.636 42.5147 177.622 45.1899C177.602 49.0551 176.395 52.8209 174.165 55.9777C171.934 59.1344 168.788 61.5295 165.151 62.8389C161.514 64.1482 157.563 64.3086 153.832 63.2982C150.101 62.2878 146.771 60.1555 144.292 57.1899L144.112 56.9699C142.906 55.3352 141.899 53.5627 141.112 51.6899C140.074 49.3366 138.913 47.04 137.632 44.8099C136.952 43.6599 136.192 42.5699 135.412 41.4899C134.74 40.5222 133.943 39.6479 133.042 38.8899C131.272 37.4599 129.042 36.8899 126.962 38.1199C126.861 38.1774 126.765 38.2408 126.672 38.3099C124.532 39.7799 123.032 42.7499 121.992 45.0299C118.992 51.4899 117.272 58.1099 115.572 64.9099C115.252 66.2199 114.932 67.5299 114.632 68.8499L106.692 94.8499L95.4717 119.57C91.4584 124.749 86.3224 128.95 80.4504 131.856C74.5784 134.763 68.1235 136.299 61.5717 136.35C34.3417 136.93 21.4217 112.35 21.4217 112.35C5.91172 86.9099 1.34173 53.3499 0.251726 42.6199C0.0217255 40.3899 0.0117201 39.0599 0.0117201 39.0599C0.0104571 35.6989 0.927288 32.4015 2.66322 29.5235C4.39915 26.6456 6.88823 24.2965 9.86173 22.7299C12.9362 21.172 16.3577 20.4251 19.8017 20.5599C23.0088 20.6957 26.1292 21.6418 28.8717 23.3099C30.9943 24.5866 32.8295 26.289 34.2617 28.3099C36.8317 31.9499 37.4017 36.4799 37.9217 40.8099C38.9768 50.3203 40.8368 59.724 43.4817 68.9199V68.9199Z" fill="url(#paint11_radial)"/>
<path d="M43.4817 68.9199C45.5781 76.2841 48.4299 83.412 51.9917 90.1899C53.6317 93.1899 55.2517 96.1899 58.2117 98.0799C58.7255 98.4003 59.2903 98.6303 59.8817 98.7599C64.2517 99.6899 66.6317 96.1799 68.1817 92.9699C70.4722 87.9314 72.3257 82.7056 73.7217 77.3499C74.0017 76.3499 74.2517 75.3499 74.5117 74.3499C75.0217 72.4299 75.5117 70.4999 75.9417 68.5699L95.1717 17.1899C99.1688 11.8676 104.35 7.54887 110.305 4.57566C116.26 1.60245 122.826 0.0563877 129.482 0.0598813C139.067 0.000872626 148.386 3.21068 155.902 9.15988C168.492 18.6799 175.972 37.4299 175.972 37.4299C177.073 39.868 177.636 42.5147 177.622 45.1899C177.602 49.0551 176.395 52.8209 174.165 55.9777C171.934 59.1344 168.788 61.5295 165.151 62.8389C161.514 64.1482 157.563 64.3086 153.832 63.2982C150.101 62.2878 146.771 60.1555 144.292 57.1899L144.112 56.9699C142.906 55.3352 141.899 53.5627 141.112 51.6899C140.074 49.3366 138.913 47.04 137.632 44.8099C136.952 43.6599 136.192 42.5699 135.412 41.4899C134.74 40.5222 133.943 39.6479 133.042 38.8899C131.272 37.4599 129.042 36.8899 126.962 38.1199C126.861 38.1774 126.765 38.2408 126.672 38.3099C124.532 39.7799 123.032 42.7499 121.992 45.0299C118.992 51.4899 117.272 58.1099 115.572 64.9099C115.252 66.2199 114.932 67.5299 114.632 68.8499L106.692 94.8499L95.4717 119.57C91.4584 124.749 86.3224 128.95 80.4504 131.856C74.5784 134.763 68.1235 136.299 61.5717 136.35C34.3417 136.93 21.4217 112.35 21.4217 112.35C5.91172 86.9099 1.34173 53.3499 0.251726 42.6199C0.0217255 40.3899 0.0117201 39.0599 0.0117201 39.0599C0.0104571 35.6989 0.927288 32.4015 2.66322 29.5235C4.39915 26.6456 6.88823 24.2965 9.86173 22.7299C12.9362 21.172 16.3577 20.4251 19.8017 20.5599C23.0088 20.6957 26.1292 21.6418 28.8717 23.3099C30.9943 24.5866 32.8295 26.289 34.2617 28.3099C36.8317 31.9499 37.4017 36.4799 37.9217 40.8099C38.9768 50.3203 40.8368 59.724 43.4817 68.9199V68.9199Z" fill="url(#paint12_radial)"/>
<path d="M43.4817 68.9199C45.5781 76.2841 48.4299 83.412 51.9917 90.1899C53.6317 93.1899 55.2517 96.1899 58.2117 98.0799C58.7255 98.4003 59.2903 98.6303 59.8817 98.7599C64.2517 99.6899 66.6317 96.1799 68.1817 92.9699C70.4722 87.9314 72.3257 82.7056 73.7217 77.3499C74.0017 76.3499 74.2517 75.3499 74.5117 74.3499C75.0217 72.4299 75.5117 70.4999 75.9417 68.5699L95.1717 17.1899C99.1688 11.8676 104.35 7.54887 110.305 4.57566C116.26 1.60245 122.826 0.0563877 129.482 0.0598813C139.067 0.000872626 148.386 3.21068 155.902 9.15988C168.492 18.6799 175.972 37.4299 175.972 37.4299C177.073 39.868 177.636 42.5147 177.622 45.1899C177.602 49.0551 176.395 52.8209 174.165 55.9777C171.934 59.1344 168.788 61.5295 165.151 62.8389C161.514 64.1482 157.563 64.3086 153.832 63.2982C150.101 62.2878 146.771 60.1555 144.292 57.1899L144.112 56.9699C142.906 55.3352 141.899 53.5627 141.112 51.6899C140.074 49.3366 138.913 47.04 137.632 44.8099C136.952 43.6599 136.192 42.5699 135.412 41.4899C134.74 40.5222 133.943 39.6479 133.042 38.8899C131.272 37.4599 129.042 36.8899 126.962 38.1199C126.861 38.1774 126.765 38.2408 126.672 38.3099C124.532 39.7799 123.032 42.7499 121.992 45.0299C118.992 51.4899 117.272 58.1099 115.572 64.9099C115.252 66.2199 114.932 67.5299 114.632 68.8499L106.692 94.8499L95.4717 119.57C91.4584 124.749 86.3224 128.95 80.4504 131.856C74.5784 134.763 68.1235 136.299 61.5717 136.35C34.3417 136.93 21.4217 112.35 21.4217 112.35C5.91172 86.9099 1.34173 53.3499 0.251726 42.6199C0.0217255 40.3899 0.0117201 39.0599 0.0117201 39.0599C0.0104571 35.6989 0.927288 32.4015 2.66322 29.5235C4.39915 26.6456 6.88823 24.2965 9.86173 22.7299C12.9362 21.172 16.3577 20.4251 19.8017 20.5599C23.0088 20.6957 26.1292 21.6418 28.8717 23.3099C30.9943 24.5866 32.8295 26.289 34.2617 28.3099C36.8317 31.9499 37.4017 36.4799 37.9217 40.8099C38.9768 50.3203 40.8368 59.724 43.4817 68.9199V68.9199Z" fill="url(#paint13_radial)"/>
<path d="M43.4817 68.9199C45.5781 76.2841 48.4299 83.412 51.9917 90.1899C53.6317 93.1899 55.2517 96.1899 58.2117 98.0799C58.7255 98.4003 59.2903 98.6303 59.8817 98.7599C64.2517 99.6899 66.6317 96.1799 68.1817 92.9699C70.4722 87.9314 72.3257 82.7056 73.7217 77.3499C74.0017 76.3499 74.2517 75.3499 74.5117 74.3499C75.0217 72.4299 75.5117 70.4999 75.9417 68.5699L95.1717 17.1899C99.1688 11.8676 104.35 7.54887 110.305 4.57566C116.26 1.60245 122.826 0.0563877 129.482 0.0598813C139.067 0.000872626 148.386 3.21068 155.902 9.15988C168.492 18.6799 175.972 37.4299 175.972 37.4299C177.073 39.868 177.636 42.5147 177.622 45.1899C177.602 49.0551 176.395 52.8209 174.165 55.9777C171.934 59.1344 168.788 61.5295 165.151 62.8389C161.514 64.1482 157.563 64.3086 153.832 63.2982C150.101 62.2878 146.771 60.1555 144.292 57.1899L144.112 56.9699C142.906 55.3352 141.899 53.5627 141.112 51.6899C140.074 49.3366 138.913 47.04 137.632 44.8099C136.952 43.6599 136.192 42.5699 135.412 41.4899C134.74 40.5222 133.943 39.6479 133.042 38.8899C131.272 37.4599 129.042 36.8899 126.962 38.1199C126.861 38.1774 126.765 38.2408 126.672 38.3099C124.532 39.7799 123.032 42.7499 121.992 45.0299C118.992 51.4899 117.272 58.1099 115.572 64.9099C115.252 66.2199 114.932 67.5299 114.632 68.8499L106.692 94.8499L95.4717 119.57C91.4584 124.749 86.3224 128.95 80.4504 131.856C74.5784 134.763 68.1235 136.299 61.5717 136.35C34.3417 136.93 21.4217 112.35 21.4217 112.35C5.91172 86.9099 1.34173 53.3499 0.251726 42.6199C0.0217255 40.3899 0.0117201 39.0599 0.0117201 39.0599C0.0104571 35.6989 0.927288 32.4015 2.66322 29.5235C4.39915 26.6456 6.88823 24.2965 9.86173 22.7299C12.9362 21.172 16.3577 20.4251 19.8017 20.5599C23.0088 20.6957 26.1292 21.6418 28.8717 23.3099C30.9943 24.5866 32.8295 26.289 34.2617 28.3099C36.8317 31.9499 37.4017 36.4799 37.9217 40.8099C38.9768 50.3203 40.8368 59.724 43.4817 68.9199V68.9199Z" fill="url(#paint14_radial)"/>
<path d="M43.4817 68.9199C45.5781 76.2841 48.4299 83.412 51.9917 90.1899C53.6317 93.1899 55.2517 96.1899 58.2117 98.0799C58.7255 98.4003 59.2903 98.6303 59.8817 98.7599C64.2517 99.6899 66.6317 96.1799 68.1817 92.9699C70.4722 87.9314 72.3257 82.7056 73.7217 77.3499C74.0017 76.3499 74.2517 75.3499 74.5117 74.3499C75.0217 72.4299 75.5117 70.4999 75.9417 68.5699L95.1717 17.1899C99.1688 11.8676 104.35 7.54887 110.305 4.57566C116.26 1.60245 122.826 0.0563877 129.482 0.0598813C139.067 0.000872626 148.386 3.21068 155.902 9.15988C168.492 18.6799 175.972 37.4299 175.972 37.4299C177.073 39.868 177.636 42.5147 177.622 45.1899C177.602 49.0551 176.395 52.8209 174.165 55.9777C171.934 59.1344 168.788 61.5295 165.151 62.8389C161.514 64.1482 157.563 64.3086 153.832 63.2982C150.101 62.2878 146.771 60.1555 144.292 57.1899L144.112 56.9699C142.906 55.3352 141.899 53.5627 141.112 51.6899C140.074 49.3366 138.913 47.04 137.632 44.8099C136.952 43.6599 136.192 42.5699 135.412 41.4899C134.74 40.5222 133.943 39.6479 133.042 38.8899C131.272 37.4599 129.042 36.8899 126.962 38.1199C126.861 38.1774 126.765 38.2408 126.672 38.3099C124.532 39.7799 123.032 42.7499 121.992 45.0299C118.992 51.4899 117.272 58.1099 115.572 64.9099C115.252 66.2199 114.932 67.5299 114.632 68.8499L106.692 94.8499L95.4717 119.57C91.4584 124.749 86.3224 128.95 80.4504 131.856C74.5784 134.763 68.1235 136.299 61.5717 136.35C34.3417 136.93 21.4217 112.35 21.4217 112.35C5.91172 86.9099 1.34173 53.3499 0.251726 42.6199C0.0217255 40.3899 0.0117201 39.0599 0.0117201 39.0599C0.0104571 35.6989 0.927288 32.4015 2.66322 29.5235C4.39915 26.6456 6.88823 24.2965 9.86173 22.7299C12.9362 21.172 16.3577 20.4251 19.8017 20.5599C23.0088 20.6957 26.1292 21.6418 28.8717 23.3099C30.9943 24.5866 32.8295 26.289 34.2617 28.3099C36.8317 31.9499 37.4017 36.4799 37.9217 40.8099C38.9768 50.3203 40.8368 59.724 43.4817 68.9199V68.9199Z" fill="url(#paint15_radial)"/>
<path d="M43.4817 68.9199C45.5781 76.2841 48.4299 83.412 51.9917 90.1899C53.6317 93.1899 55.2517 96.1899 58.2117 98.0799C58.7255 98.4003 59.2903 98.6303 59.8817 98.7599C64.2517 99.6899 66.6317 96.1799 68.1817 92.9699C70.4722 87.9314 72.3257 82.7056 73.7217 77.3499C74.0017 76.3499 74.2517 75.3499 74.5117 74.3499C75.0217 72.4299 75.5117 70.4999 75.9417 68.5699L95.1717 17.1899C99.1688 11.8676 104.35 7.54887 110.305 4.57566C116.26 1.60245 122.826 0.0563877 129.482 0.0598813C139.067 0.000872626 148.386 3.21068 155.902 9.15988C168.492 18.6799 175.972 37.4299 175.972 37.4299C177.073 39.868 177.636 42.5147 177.622 45.1899C177.602 49.0551 176.395 52.8209 174.165 55.9777C171.934 59.1344 168.788 61.5295 165.151 62.8389C161.514 64.1482 157.563 64.3086 153.832 63.2982C150.101 62.2878 146.771 60.1555 144.292 57.1899L144.112 56.9699C142.906 55.3352 141.899 53.5627 141.112 51.6899C140.074 49.3366 138.913 47.04 137.632 44.8099C136.952 43.6599 136.192 42.5699 135.412 41.4899C134.74 40.5222 133.943 39.6479 133.042 38.8899C131.272 37.4599 129.042 36.8899 126.962 38.1199C126.861 38.1774 126.765 38.2408 126.672 38.3099C124.532 39.7799 123.032 42.7499 121.992 45.0299C118.992 51.4899 117.272 58.1099 115.572 64.9099C115.252 66.2199 114.932 67.5299 114.632 68.8499L106.692 94.8499L95.4717 119.57C91.4584 124.749 86.3224 128.95 80.4504 131.856C74.5784 134.763 68.1235 136.299 61.5717 136.35C34.3417 136.93 21.4217 112.35 21.4217 112.35C5.91172 86.9099 1.34173 53.3499 0.251726 42.6199C0.0217255 40.3899 0.0117201 39.0599 0.0117201 39.0599C0.0104571 35.6989 0.927288 32.4015 2.66322 29.5235C4.39915 26.6456 6.88823 24.2965 9.86173 22.7299C12.9362 21.172 16.3577 20.4251 19.8017 20.5599C23.0088 20.6957 26.1292 21.6418 28.8717 23.3099C30.9943 24.5866 32.8295 26.289 34.2617 28.3099C36.8317 31.9499 37.4017 36.4799 37.9217 40.8099C38.9768 50.3203 40.8368 59.724 43.4817 68.9199V68.9199Z" fill="url(#paint16_linear)"/>
<path d="M43.4817 68.9199C45.5781 76.2841 48.4299 83.412 51.9917 90.1899C53.6317 93.1899 55.2517 96.1899 58.2117 98.0799C58.7255 98.4003 59.2903 98.6303 59.8817 98.7599C64.2517 99.6899 66.6317 96.1799 68.1817 92.9699C70.4722 87.9314 72.3257 82.7056 73.7217 77.3499C74.0017 76.3499 74.2517 75.3499 74.5117 74.3499C75.0217 72.4299 75.5117 70.4999 75.9417 68.5699L95.1717 17.1899C99.1688 11.8676 104.35 7.54887 110.305 4.57566C116.26 1.60245 122.826 0.0563877 129.482 0.0598813C139.067 0.000872626 148.386 3.21068 155.902 9.15988C168.492 18.6799 175.972 37.4299 175.972 37.4299C177.073 39.868 177.636 42.5147 177.622 45.1899C177.602 49.0551 176.395 52.8209 174.165 55.9777C171.934 59.1344 168.788 61.5295 165.151 62.8389C161.514 64.1482 157.563 64.3086 153.832 63.2982C150.101 62.2878 146.771 60.1555 144.292 57.1899L144.112 56.9699C142.906 55.3352 141.899 53.5627 141.112 51.6899C140.074 49.3366 138.913 47.04 137.632 44.8099C136.952 43.6599 136.192 42.5699 135.412 41.4899C134.74 40.5222 133.943 39.6479 133.042 38.8899C131.272 37.4599 129.042 36.8899 126.962 38.1199C126.861 38.1774 126.765 38.2408 126.672 38.3099C124.532 39.7799 123.032 42.7499 121.992 45.0299C118.992 51.4899 117.272 58.1099 115.572 64.9099C115.252 66.2199 114.932 67.5299 114.632 68.8499L106.692 94.8499L95.4717 119.57C91.4584 124.749 86.3224 128.95 80.4504 131.856C74.5784 134.763 68.1235 136.299 61.5717 136.35C34.3417 136.93 21.4217 112.35 21.4217 112.35C5.91172 86.9099 1.34173 53.3499 0.251726 42.6199C0.0217255 40.3899 0.0117201 39.0599 0.0117201 39.0599C0.0104571 35.6989 0.927288 32.4015 2.66322 29.5235C4.39915 26.6456 6.88823 24.2965 9.86173 22.7299C12.9362 21.172 16.3577 20.4251 19.8017 20.5599C23.0088 20.6957 26.1292 21.6418 28.8717 23.3099C30.9943 24.5866 32.8295 26.289 34.2617 28.3099C36.8317 31.9499 37.4017 36.4799 37.9217 40.8099C38.9768 50.3203 40.8368 59.724 43.4817 68.9199V68.9199Z" fill="url(#paint17_linear)"/>
<path d="M171.8 20.68C170.215 20.6764 168.635 20.8747 167.1 21.27C170.602 26.3404 173.578 31.7551 175.98 37.43C177.081 39.8681 177.644 42.5149 177.63 45.19C177.628 48.5162 176.746 51.7825 175.073 54.6577C173.401 57.533 170.998 59.9149 168.109 61.5618C165.219 63.2088 161.945 64.0622 158.619 64.0355C155.293 64.0089 152.033 63.1031 149.17 61.41L147.24 68.58C143.72 80.35 141.24 84.9 141.24 84.9C139.874 88.0932 138.245 91.1671 136.37 94.09C135.09 96 133.44 97.92 131.18 98.65C130.394 98.9231 129.554 99.0053 128.73 98.89C127.837 98.7836 126.976 98.4943 126.2 98.04C124.712 96.9227 123.526 95.4516 122.75 93.76C121.75 91.9 120.99 89.94 120.18 87.99C118.51 83.93 115.93 73.93 115.93 73.93L113.34 63.51L110.67 52.91L108.78 45.98C103.78 27.98 96.85 19.05 96.85 19.05C91.411 11.2944 83.7052 5.41197 74.79 2.21002C64.46 -1.49998 53.61 0.590024 53.61 0.590024C36.61 3.93002 27.68 15.59 23.75 21.2C25.5474 21.6733 27.2681 22.4007 28.86 23.36C30.9826 24.6367 32.8178 26.3391 34.25 28.36C36.82 32 37.39 36.53 37.91 40.86C38.9597 50.2368 40.7927 59.5092 43.39 68.58C49.14 49.48 56.06 40.58 56.06 40.58C56.826 39.6187 57.749 38.7938 58.79 38.14C59.3324 37.807 59.9389 37.5924 60.57 37.51C61.7427 37.3976 62.9191 37.6829 63.91 38.32C64.0876 38.4391 64.2549 38.5729 64.41 38.72C65.3132 39.5209 66.0888 40.455 66.71 41.49C68.1502 44.0619 69.4002 46.7357 70.45 49.49C72.6 55.57 74.45 63 74.45 63L79.95 84.68C83.95 99.42 87.35 106.58 87.35 106.58C95.69 125.7 108.46 131.08 108.46 131.08C114.677 134.405 121.591 136.214 128.64 136.36C135.385 136.582 142.084 135.176 148.17 132.26C154.789 128.999 160.597 124.302 165.17 118.51C168.26 114.93 172.81 106.21 172.81 106.21C177.831 96.2149 181.77 85.712 184.56 74.88C186.345 68.1326 187.777 61.2966 188.85 54.4C189.39 50.98 189.9 47.54 190.31 44.09C190.824 40.8238 190.726 37.4903 190.02 34.26C189.867 33.6807 189.683 33.1099 189.47 32.55C187.863 28.4942 184.878 25.1343 181.04 23.06C178.206 21.5098 175.03 20.6917 171.8 20.68V20.68Z" fill="#F7F7F7"/>
<path d="M171.8 20.68C170.215 20.6764 168.635 20.8747 167.1 21.27C170.602 26.3404 173.578 31.7551 175.98 37.43C177.081 39.8681 177.644 42.5149 177.63 45.19C177.628 48.5162 176.746 51.7825 175.073 54.6577C173.401 57.533 170.998 59.9149 168.109 61.5618C165.219 63.2088 161.945 64.0622 158.619 64.0355C155.293 64.0089 152.033 63.1031 149.17 61.41L147.24 68.58C143.72 80.35 141.24 84.9 141.24 84.9C139.874 88.0932 138.245 91.1671 136.37 94.09C135.09 96 133.44 97.92 131.18 98.65C130.394 98.9231 129.554 99.0053 128.73 98.89C127.837 98.7836 126.976 98.4943 126.2 98.04C124.712 96.9227 123.526 95.4516 122.75 93.76C121.75 91.9 120.99 89.94 120.18 87.99C118.51 83.93 115.93 73.93 115.93 73.93L113.34 63.51L110.67 52.91L108.78 45.98C103.78 27.98 96.85 19.05 96.85 19.05C91.411 11.2944 83.7052 5.41197 74.79 2.21002C64.46 -1.49998 53.61 0.590024 53.61 0.590024C36.61 3.93002 27.68 15.59 23.75 21.2C25.5474 21.6733 27.2681 22.4007 28.86 23.36C30.9826 24.6367 32.8178 26.3391 34.25 28.36C36.82 32 37.39 36.53 37.91 40.86C38.9597 50.2368 40.7927 59.5092 43.39 68.58C49.14 49.48 56.06 40.58 56.06 40.58C56.826 39.6187 57.749 38.7938 58.79 38.14C59.3324 37.807 59.9389 37.5924 60.57 37.51C61.7427 37.3976 62.9191 37.6829 63.91 38.32C64.0876 38.4391 64.2549 38.5729 64.41 38.72C65.3132 39.5209 66.0888 40.455 66.71 41.49C68.1502 44.0619 69.4002 46.7357 70.45 49.49C72.6 55.57 74.45 63 74.45 63L79.95 84.68C83.95 99.42 87.35 106.58 87.35 106.58C95.69 125.7 108.46 131.08 108.46 131.08C114.677 134.405 121.591 136.214 128.64 136.36C135.385 136.582 142.084 135.176 148.17 132.26C154.789 128.999 160.597 124.302 165.17 118.51C168.26 114.93 172.81 106.21 172.81 106.21C177.831 96.2149 181.77 85.712 184.56 74.88C186.345 68.1326 187.777 61.2966 188.85 54.4C189.39 50.98 189.9 47.54 190.31 44.09C190.824 40.8238 190.726 37.4903 190.02 34.26C189.867 33.6807 189.683 33.1099 189.47 32.55C187.863 28.4942 184.878 25.1343 181.04 23.06C178.206 21.5098 175.03 20.6917 171.8 20.68V20.68Z" fill="url(#paint18_radial)"/>
<path d="M171.8 20.68C170.215 20.6764 168.635 20.8747 167.1 21.27C170.602 26.3404 173.578 31.7551 175.98 37.43C177.081 39.8681 177.644 42.5149 177.63 45.19C177.628 48.5162 176.746 51.7825 175.073 54.6577C173.401 57.533 170.998 59.9149 168.109 61.5618C165.219 63.2088 161.945 64.0622 158.619 64.0355C155.293 64.0089 152.033 63.1031 149.17 61.41L147.24 68.58C143.72 80.35 141.24 84.9 141.24 84.9C139.874 88.0932 138.245 91.1671 136.37 94.09C135.09 96 133.44 97.92 131.18 98.65C130.394 98.9231 129.554 99.0053 128.73 98.89C127.837 98.7836 126.976 98.4943 126.2 98.04C124.712 96.9227 123.526 95.4516 122.75 93.76C121.75 91.9 120.99 89.94 120.18 87.99C118.51 83.93 115.93 73.93 115.93 73.93L113.34 63.51L110.67 52.91L108.78 45.98C103.78 27.98 96.85 19.05 96.85 19.05C91.411 11.2944 83.7052 5.41197 74.79 2.21002C64.46 -1.49998 53.61 0.590024 53.61 0.590024C36.61 3.93002 27.68 15.59 23.75 21.2C25.5474 21.6733 27.2681 22.4007 28.86 23.36C30.9826 24.6367 32.8178 26.3391 34.25 28.36C36.82 32 37.39 36.53 37.91 40.86C38.9597 50.2368 40.7927 59.5092 43.39 68.58C49.14 49.48 56.06 40.58 56.06 40.58C56.826 39.6187 57.749 38.7938 58.79 38.14C59.3324 37.807 59.9389 37.5924 60.57 37.51C61.7427 37.3976 62.9191 37.6829 63.91 38.32C64.0876 38.4391 64.2549 38.5729 64.41 38.72C65.3132 39.5209 66.0888 40.455 66.71 41.49C68.1502 44.0619 69.4002 46.7357 70.45 49.49C72.6 55.57 74.45 63 74.45 63L79.95 84.68C83.95 99.42 87.35 106.58 87.35 106.58C95.69 125.7 108.46 131.08 108.46 131.08C114.677 134.405 121.591 136.214 128.64 136.36C135.385 136.582 142.084 135.176 148.17 132.26C154.789 128.999 160.597 124.302 165.17 118.51C168.26 114.93 172.81 106.21 172.81 106.21C177.831 96.2149 181.77 85.712 184.56 74.88C186.345 68.1326 187.777 61.2966 188.85 54.4C189.39 50.98 189.9 47.54 190.31 44.09C190.824 40.8238 190.726 37.4903 190.02 34.26C189.867 33.6807 189.683 33.1099 189.47 32.55C187.863 28.4942 184.878 25.1343 181.04 23.06C178.206 21.5098 175.03 20.6917 171.8 20.68V20.68Z" fill="url(#paint19_radial)"/>
<path d="M171.8 20.68C170.215 20.6764 168.635 20.8747 167.1 21.27C170.602 26.3404 173.578 31.7551 175.98 37.43C177.081 39.8681 177.644 42.5149 177.63 45.19C177.628 48.5162 176.746 51.7825 175.073 54.6577C173.401 57.533 170.998 59.9149 168.109 61.5618C165.219 63.2088 161.945 64.0622 158.619 64.0355C155.293 64.0089 152.033 63.1031 149.17 61.41L147.24 68.58C143.72 80.35 141.24 84.9 141.24 84.9C139.874 88.0932 138.245 91.1671 136.37 94.09C135.09 96 133.44 97.92 131.18 98.65C130.394 98.9231 129.554 99.0053 128.73 98.89C127.837 98.7836 126.976 98.4943 126.2 98.04C124.712 96.9227 123.526 95.4516 122.75 93.76C121.75 91.9 120.99 89.94 120.18 87.99C118.51 83.93 115.93 73.93 115.93 73.93L113.34 63.51L110.67 52.91L108.78 45.98C103.78 27.98 96.85 19.05 96.85 19.05C91.411 11.2944 83.7052 5.41197 74.79 2.21002C64.46 -1.49998 53.61 0.590024 53.61 0.590024C36.61 3.93002 27.68 15.59 23.75 21.2C25.5474 21.6733 27.2681 22.4007 28.86 23.36C30.9826 24.6367 32.8178 26.3391 34.25 28.36C36.82 32 37.39 36.53 37.91 40.86C38.9597 50.2368 40.7927 59.5092 43.39 68.58C49.14 49.48 56.06 40.58 56.06 40.58C56.826 39.6187 57.749 38.7938 58.79 38.14C59.3324 37.807 59.9389 37.5924 60.57 37.51C61.7427 37.3976 62.9191 37.6829 63.91 38.32C64.0876 38.4391 64.2549 38.5729 64.41 38.72C65.3132 39.5209 66.0888 40.455 66.71 41.49C68.1502 44.0619 69.4002 46.7357 70.45 49.49C72.6 55.57 74.45 63 74.45 63L79.95 84.68C83.95 99.42 87.35 106.58 87.35 106.58C95.69 125.7 108.46 131.08 108.46 131.08C114.677 134.405 121.591 136.214 128.64 136.36C135.385 136.582 142.084 135.176 148.17 132.26C154.789 128.999 160.597 124.302 165.17 118.51C168.26 114.93 172.81 106.21 172.81 106.21C177.831 96.2149 181.77 85.712 184.56 74.88C186.345 68.1326 187.777 61.2966 188.85 54.4C189.39 50.98 189.9 47.54 190.31 44.09C190.824 40.8238 190.726 37.4903 190.02 34.26C189.867 33.6807 189.683 33.1099 189.47 32.55C187.863 28.4942 184.878 25.1343 181.04 23.06C178.206 21.5098 175.03 20.6917 171.8 20.68V20.68Z" fill="url(#paint20_radial)"/>
<path d="M171.8 20.68C170.215 20.6764 168.635 20.8747 167.1 21.27C170.602 26.3404 173.578 31.7551 175.98 37.43C177.081 39.8681 177.644 42.5149 177.63 45.19C177.628 48.5162 176.746 51.7825 175.073 54.6577C173.401 57.533 170.998 59.9149 168.109 61.5618C165.219 63.2088 161.945 64.0622 158.619 64.0355C155.293 64.0089 152.033 63.1031 149.17 61.41L147.24 68.58C143.72 80.35 141.24 84.9 141.24 84.9C139.874 88.0932 138.245 91.1671 136.37 94.09C135.09 96 133.44 97.92 131.18 98.65C130.394 98.9231 129.554 99.0053 128.73 98.89C127.837 98.7836 126.976 98.4943 126.2 98.04C124.712 96.9227 123.526 95.4516 122.75 93.76C121.75 91.9 120.99 89.94 120.18 87.99C118.51 83.93 115.93 73.93 115.93 73.93L113.34 63.51L110.67 52.91L108.78 45.98C103.78 27.98 96.85 19.05 96.85 19.05C91.411 11.2944 83.7052 5.41197 74.79 2.21002C64.46 -1.49998 53.61 0.590024 53.61 0.590024C36.61 3.93002 27.68 15.59 23.75 21.2C25.5474 21.6733 27.2681 22.4007 28.86 23.36C30.9826 24.6367 32.8178 26.3391 34.25 28.36C36.82 32 37.39 36.53 37.91 40.86C38.9597 50.2368 40.7927 59.5092 43.39 68.58C49.14 49.48 56.06 40.58 56.06 40.58C56.826 39.6187 57.749 38.7938 58.79 38.14C59.3324 37.807 59.9389 37.5924 60.57 37.51C61.7427 37.3976 62.9191 37.6829 63.91 38.32C64.0876 38.4391 64.2549 38.5729 64.41 38.72C65.3132 39.5209 66.0888 40.455 66.71 41.49C68.1502 44.0619 69.4002 46.7357 70.45 49.49C72.6 55.57 74.45 63 74.45 63L79.95 84.68C83.95 99.42 87.35 106.58 87.35 106.58C95.69 125.7 108.46 131.08 108.46 131.08C114.677 134.405 121.591 136.214 128.64 136.36C135.385 136.582 142.084 135.176 148.17 132.26C154.789 128.999 160.597 124.302 165.17 118.51C168.26 114.93 172.81 106.21 172.81 106.21C177.831 96.2149 181.77 85.712 184.56 74.88C186.345 68.1326 187.777 61.2966 188.85 54.4C189.39 50.98 189.9 47.54 190.31 44.09C190.824 40.8238 190.726 37.4903 190.02 34.26C189.867 33.6807 189.683 33.1099 189.47 32.55C187.863 28.4942 184.878 25.1343 181.04 23.06C178.206 21.5098 175.03 20.6917 171.8 20.68V20.68Z" fill="url(#paint21_radial)"/>
<path d="M171.8 20.68C170.215 20.6764 168.635 20.8747 167.1 21.27C170.602 26.3404 173.578 31.7551 175.98 37.43C177.081 39.8681 177.644 42.5149 177.63 45.19C177.628 48.5162 176.746 51.7825 175.073 54.6577C173.401 57.533 170.998 59.9149 168.109 61.5618C165.219 63.2088 161.945 64.0622 158.619 64.0355C155.293 64.0089 152.033 63.1031 149.17 61.41L147.24 68.58C143.72 80.35 141.24 84.9 141.24 84.9C139.874 88.0932 138.245 91.1671 136.37 94.09C135.09 96 133.44 97.92 131.18 98.65C130.394 98.9231 129.554 99.0053 128.73 98.89C127.837 98.7836 126.976 98.4943 126.2 98.04C124.712 96.9227 123.526 95.4516 122.75 93.76C121.75 91.9 120.99 89.94 120.18 87.99C118.51 83.93 115.93 73.93 115.93 73.93L113.34 63.51L110.67 52.91L108.78 45.98C103.78 27.98 96.85 19.05 96.85 19.05C91.411 11.2944 83.7052 5.41197 74.79 2.21002C64.46 -1.49998 53.61 0.590024 53.61 0.590024C36.61 3.93002 27.68 15.59 23.75 21.2C25.5474 21.6733 27.2681 22.4007 28.86 23.36C30.9826 24.6367 32.8178 26.3391 34.25 28.36C36.82 32 37.39 36.53 37.91 40.86C38.9597 50.2368 40.7927 59.5092 43.39 68.58C49.14 49.48 56.06 40.58 56.06 40.58C56.826 39.6187 57.749 38.7938 58.79 38.14C59.3324 37.807 59.9389 37.5924 60.57 37.51C61.7427 37.3976 62.9191 37.6829 63.91 38.32C64.0876 38.4391 64.2549 38.5729 64.41 38.72C65.3132 39.5209 66.0888 40.455 66.71 41.49C68.1502 44.0619 69.4002 46.7357 70.45 49.49C72.6 55.57 74.45 63 74.45 63L79.95 84.68C83.95 99.42 87.35 106.58 87.35 106.58C95.69 125.7 108.46 131.08 108.46 131.08C114.677 134.405 121.591 136.214 128.64 136.36C135.385 136.582 142.084 135.176 148.17 132.26C154.789 128.999 160.597 124.302 165.17 118.51C168.26 114.93 172.81 106.21 172.81 106.21C177.831 96.2149 181.77 85.712 184.56 74.88C186.345 68.1326 187.777 61.2966 188.85 54.4C189.39 50.98 189.9 47.54 190.31 44.09C190.824 40.8238 190.726 37.4903 190.02 34.26C189.867 33.6807 189.683 33.1099 189.47 32.55C187.863 28.4942 184.878 25.1343 181.04 23.06C178.206 21.5098 175.03 20.6917 171.8 20.68V20.68Z" fill="url(#paint22_radial)"/>
<path d="M171.8 20.68C170.215 20.6764 168.635 20.8747 167.1 21.27C170.602 26.3404 173.578 31.7551 175.98 37.43C177.081 39.8681 177.644 42.5149 177.63 45.19C177.628 48.5162 176.746 51.7825 175.073 54.6577C173.401 57.533 170.998 59.9149 168.109 61.5618C165.219 63.2088 161.945 64.0622 158.619 64.0355C155.293 64.0089 152.033 63.1031 149.17 61.41L147.24 68.58C143.72 80.35 141.24 84.9 141.24 84.9C139.874 88.0932 138.245 91.1671 136.37 94.09C135.09 96 133.44 97.92 131.18 98.65C130.394 98.9231 129.554 99.0053 128.73 98.89C127.837 98.7836 126.976 98.4943 126.2 98.04C124.712 96.9227 123.526 95.4516 122.75 93.76C121.75 91.9 120.99 89.94 120.18 87.99C118.51 83.93 115.93 73.93 115.93 73.93L113.34 63.51L110.67 52.91L108.78 45.98C103.78 27.98 96.85 19.05 96.85 19.05C91.411 11.2944 83.7052 5.41197 74.79 2.21002C64.46 -1.49998 53.61 0.590024 53.61 0.590024C36.61 3.93002 27.68 15.59 23.75 21.2C25.5474 21.6733 27.2681 22.4007 28.86 23.36C30.9826 24.6367 32.8178 26.3391 34.25 28.36C36.82 32 37.39 36.53 37.91 40.86C38.9597 50.2368 40.7927 59.5092 43.39 68.58C49.14 49.48 56.06 40.58 56.06 40.58C56.826 39.6187 57.749 38.7938 58.79 38.14C59.3324 37.807 59.9389 37.5924 60.57 37.51C61.7427 37.3976 62.9191 37.6829 63.91 38.32C64.0876 38.4391 64.2549 38.5729 64.41 38.72C65.3132 39.5209 66.0888 40.455 66.71 41.49C68.1502 44.0619 69.4002 46.7357 70.45 49.49C72.6 55.57 74.45 63 74.45 63L79.95 84.68C83.95 99.42 87.35 106.58 87.35 106.58C95.69 125.7 108.46 131.08 108.46 131.08C114.677 134.405 121.591 136.214 128.64 136.36C135.385 136.582 142.084 135.176 148.17 132.26C154.789 128.999 160.597 124.302 165.17 118.51C168.26 114.93 172.81 106.21 172.81 106.21C177.831 96.2149 181.77 85.712 184.56 74.88C186.345 68.1326 187.777 61.2966 188.85 54.4C189.39 50.98 189.9 47.54 190.31 44.09C190.824 40.8238 190.726 37.4903 190.02 34.26C189.867 33.6807 189.683 33.1099 189.47 32.55C187.863 28.4942 184.878 25.1343 181.04 23.06C178.206 21.5098 175.03 20.6917 171.8 20.68V20.68Z" fill="url(#paint23_radial)"/>
<path d="M171.8 20.68C170.215 20.6764 168.635 20.8747 167.1 21.27C170.602 26.3404 173.578 31.7551 175.98 37.43C177.081 39.8681 177.644 42.5149 177.63 45.19C177.628 48.5162 176.746 51.7825 175.073 54.6577C173.401 57.533 170.998 59.9149 168.109 61.5618C165.219 63.2088 161.945 64.0622 158.619 64.0355C155.293 64.0089 152.033 63.1031 149.17 61.41L147.24 68.58C143.72 80.35 141.24 84.9 141.24 84.9C139.874 88.0932 138.245 91.1671 136.37 94.09C135.09 96 133.44 97.92 131.18 98.65C130.394 98.9231 129.554 99.0053 128.73 98.89C127.837 98.7836 126.976 98.4943 126.2 98.04C124.712 96.9227 123.526 95.4516 122.75 93.76C121.75 91.9 120.99 89.94 120.18 87.99C118.51 83.93 115.93 73.93 115.93 73.93L113.34 63.51L110.67 52.91L108.78 45.98C103.78 27.98 96.85 19.05 96.85 19.05C91.411 11.2944 83.7052 5.41197 74.79 2.21002C64.46 -1.49998 53.61 0.590024 53.61 0.590024C36.61 3.93002 27.68 15.59 23.75 21.2C25.5474 21.6733 27.2681 22.4007 28.86 23.36C30.9826 24.6367 32.8178 26.3391 34.25 28.36C36.82 32 37.39 36.53 37.91 40.86C38.9597 50.2368 40.7927 59.5092 43.39 68.58C49.14 49.48 56.06 40.58 56.06 40.58C56.826 39.6187 57.749 38.7938 58.79 38.14C59.3324 37.807 59.9389 37.5924 60.57 37.51C61.7427 37.3976 62.9191 37.6829 63.91 38.32C64.0876 38.4391 64.2549 38.5729 64.41 38.72C65.3132 39.5209 66.0888 40.455 66.71 41.49C68.1502 44.0619 69.4002 46.7357 70.45 49.49C72.6 55.57 74.45 63 74.45 63L79.95 84.68C83.95 99.42 87.35 106.58 87.35 106.58C95.69 125.7 108.46 131.08 108.46 131.08C114.677 134.405 121.591 136.214 128.64 136.36C135.385 136.582 142.084 135.176 148.17 132.26C154.789 128.999 160.597 124.302 165.17 118.51C168.26 114.93 172.81 106.21 172.81 106.21C177.831 96.2149 181.77 85.712 184.56 74.88C186.345 68.1326 187.777 61.2966 188.85 54.4C189.39 50.98 189.9 47.54 190.31 44.09C190.824 40.8238 190.726 37.4903 190.02 34.26C189.867 33.6807 189.683 33.1099 189.47 32.55C187.863 28.4942 184.878 25.1343 181.04 23.06C178.206 21.5098 175.03 20.6917 171.8 20.68V20.68Z" fill="url(#paint24_radial)"/>
<path d="M171.8 20.68C170.215 20.6764 168.635 20.8747 167.1 21.27C170.602 26.3404 173.578 31.7551 175.98 37.43C177.081 39.8681 177.644 42.5149 177.63 45.19C177.628 48.5162 176.746 51.7825 175.073 54.6577C173.401 57.533 170.998 59.9149 168.109 61.5618C165.219 63.2088 161.945 64.0622 158.619 64.0355C155.293 64.0089 152.033 63.1031 149.17 61.41L147.24 68.58C143.72 80.35 141.24 84.9 141.24 84.9C139.874 88.0932 138.245 91.1671 136.37 94.09C135.09 96 133.44 97.92 131.18 98.65C130.394 98.9231 129.554 99.0053 128.73 98.89C127.837 98.7836 126.976 98.4943 126.2 98.04C124.712 96.9227 123.526 95.4516 122.75 93.76C121.75 91.9 120.99 89.94 120.18 87.99C118.51 83.93 115.93 73.93 115.93 73.93L113.34 63.51L110.67 52.91L108.78 45.98C103.78 27.98 96.85 19.05 96.85 19.05C91.411 11.2944 83.7052 5.41197 74.79 2.21002C64.46 -1.49998 53.61 0.590024 53.61 0.590024C36.61 3.93002 27.68 15.59 23.75 21.2C25.5474 21.6733 27.2681 22.4007 28.86 23.36C30.9826 24.6367 32.8178 26.3391 34.25 28.36C36.82 32 37.39 36.53 37.91 40.86C38.9597 50.2368 40.7927 59.5092 43.39 68.58C49.14 49.48 56.06 40.58 56.06 40.58C56.826 39.6187 57.749 38.7938 58.79 38.14C59.3324 37.807 59.9389 37.5924 60.57 37.51C61.7427 37.3976 62.9191 37.6829 63.91 38.32C64.0876 38.4391 64.2549 38.5729 64.41 38.72C65.3132 39.5209 66.0888 40.455 66.71 41.49C68.1502 44.0619 69.4002 46.7357 70.45 49.49C72.6 55.57 74.45 63 74.45 63L79.95 84.68C83.95 99.42 87.35 106.58 87.35 106.58C95.69 125.7 108.46 131.08 108.46 131.08C114.677 134.405 121.591 136.214 128.64 136.36C135.385 136.582 142.084 135.176 148.17 132.26C154.789 128.999 160.597 124.302 165.17 118.51C168.26 114.93 172.81 106.21 172.81 106.21C177.831 96.2149 181.77 85.712 184.56 74.88C186.345 68.1326 187.777 61.2966 188.85 54.4C189.39 50.98 189.9 47.54 190.31 44.09C190.824 40.8238 190.726 37.4903 190.02 34.26C189.867 33.6807 189.683 33.1099 189.47 32.55C187.863 28.4942 184.878 25.1343 181.04 23.06C178.206 21.5098 175.03 20.6917 171.8 20.68V20.68Z" fill="url(#paint25_radial)"/>
<path d="M171.8 20.68C170.215 20.6764 168.635 20.8747 167.1 21.27C170.602 26.3404 173.578 31.7551 175.98 37.43C177.081 39.8681 177.644 42.5149 177.63 45.19C177.628 48.5162 176.746 51.7825 175.073 54.6577C173.401 57.533 170.998 59.9149 168.109 61.5618C165.219 63.2088 161.945 64.0622 158.619 64.0355C155.293 64.0089 152.033 63.1031 149.17 61.41L147.24 68.58C143.72 80.35 141.24 84.9 141.24 84.9C139.874 88.0932 138.245 91.1671 136.37 94.09C135.09 96 133.44 97.92 131.18 98.65C130.394 98.9231 129.554 99.0053 128.73 98.89C127.837 98.7836 126.976 98.4943 126.2 98.04C124.712 96.9227 123.526 95.4516 122.75 93.76C121.75 91.9 120.99 89.94 120.18 87.99C118.51 83.93 115.93 73.93 115.93 73.93L113.34 63.51L110.67 52.91L108.78 45.98C103.78 27.98 96.85 19.05 96.85 19.05C91.411 11.2944 83.7052 5.41197 74.79 2.21002C64.46 -1.49998 53.61 0.590024 53.61 0.590024C36.61 3.93002 27.68 15.59 23.75 21.2C25.5474 21.6733 27.2681 22.4007 28.86 23.36C30.9826 24.6367 32.8178 26.3391 34.25 28.36C36.82 32 37.39 36.53 37.91 40.86C38.9597 50.2368 40.7927 59.5092 43.39 68.58C49.14 49.48 56.06 40.58 56.06 40.58C56.826 39.6187 57.749 38.7938 58.79 38.14C59.3324 37.807 59.9389 37.5924 60.57 37.51C61.7427 37.3976 62.9191 37.6829 63.91 38.32C64.0876 38.4391 64.2549 38.5729 64.41 38.72C65.3132 39.5209 66.0888 40.455 66.71 41.49C68.1502 44.0619 69.4002 46.7357 70.45 49.49C72.6 55.57 74.45 63 74.45 63L79.95 84.68C83.95 99.42 87.35 106.58 87.35 106.58C95.69 125.7 108.46 131.08 108.46 131.08C114.677 134.405 121.591 136.214 128.64 136.36C135.385 136.582 142.084 135.176 148.17 132.26C154.789 128.999 160.597 124.302 165.17 118.51C168.26 114.93 172.81 106.21 172.81 106.21C177.831 96.2149 181.77 85.712 184.56 74.88C186.345 68.1326 187.777 61.2966 188.85 54.4C189.39 50.98 189.9 47.54 190.31 44.09C190.824 40.8238 190.726 37.4903 190.02 34.26C189.867 33.6807 189.683 33.1099 189.47 32.55C187.863 28.4942 184.878 25.1343 181.04 23.06C178.206 21.5098 175.03 20.6917 171.8 20.68V20.68Z" fill="url(#paint26_radial)"/>
<path d="M171.8 20.68C170.215 20.6764 168.635 20.8747 167.1 21.27C170.602 26.3404 173.578 31.7551 175.98 37.43C177.081 39.8681 177.644 42.5149 177.63 45.19C177.628 48.5162 176.746 51.7825 175.073 54.6577C173.401 57.533 170.998 59.9149 168.109 61.5618C165.219 63.2088 161.945 64.0622 158.619 64.0355C155.293 64.0089 152.033 63.1031 149.17 61.41L147.24 68.58C143.72 80.35 141.24 84.9 141.24 84.9C139.874 88.0932 138.245 91.1671 136.37 94.09C135.09 96 133.44 97.92 131.18 98.65C130.394 98.9231 129.554 99.0053 128.73 98.89C127.837 98.7836 126.976 98.4943 126.2 98.04C124.712 96.9227 123.526 95.4516 122.75 93.76C121.75 91.9 120.99 89.94 120.18 87.99C118.51 83.93 115.93 73.93 115.93 73.93L113.34 63.51L110.67 52.91L108.78 45.98C103.78 27.98 96.85 19.05 96.85 19.05C91.411 11.2944 83.7052 5.41197 74.79 2.21002C64.46 -1.49998 53.61 0.590024 53.61 0.590024C36.61 3.93002 27.68 15.59 23.75 21.2C25.5474 21.6733 27.2681 22.4007 28.86 23.36C30.9826 24.6367 32.8178 26.3391 34.25 28.36C36.82 32 37.39 36.53 37.91 40.86C38.9597 50.2368 40.7927 59.5092 43.39 68.58C49.14 49.48 56.06 40.58 56.06 40.58C56.826 39.6187 57.749 38.7938 58.79 38.14C59.3324 37.807 59.9389 37.5924 60.57 37.51C61.7427 37.3976 62.9191 37.6829 63.91 38.32C64.0876 38.4391 64.2549 38.5729 64.41 38.72C65.3132 39.5209 66.0888 40.455 66.71 41.49C68.1502 44.0619 69.4002 46.7357 70.45 49.49C72.6 55.57 74.45 63 74.45 63L79.95 84.68C83.95 99.42 87.35 106.58 87.35 106.58C95.69 125.7 108.46 131.08 108.46 131.08C114.677 134.405 121.591 136.214 128.64 136.36C135.385 136.582 142.084 135.176 148.17 132.26C154.789 128.999 160.597 124.302 165.17 118.51C168.26 114.93 172.81 106.21 172.81 106.21C177.831 96.2149 181.77 85.712 184.56 74.88C186.345 68.1326 187.777 61.2966 188.85 54.4C189.39 50.98 189.9 47.54 190.31 44.09C190.824 40.8238 190.726 37.4903 190.02 34.26C189.867 33.6807 189.683 33.1099 189.47 32.55C187.863 28.4942 184.878 25.1343 181.04 23.06C178.206 21.5098 175.03 20.6917 171.8 20.68V20.68Z" fill="url(#paint27_radial)"/>
<path d="M171.8 20.68C170.215 20.6764 168.635 20.8747 167.1 21.27C170.602 26.3404 173.578 31.7551 175.98 37.43C177.081 39.8681 177.644 42.5149 177.63 45.19C177.628 48.5162 176.746 51.7825 175.073 54.6577C173.401 57.533 170.998 59.9149 168.109 61.5618C165.219 63.2088 161.945 64.0622 158.619 64.0355C155.293 64.0089 152.033 63.1031 149.17 61.41L147.24 68.58C143.72 80.35 141.24 84.9 141.24 84.9C139.874 88.0932 138.245 91.1671 136.37 94.09C135.09 96 133.44 97.92 131.18 98.65C130.394 98.9231 129.554 99.0053 128.73 98.89C127.837 98.7836 126.976 98.4943 126.2 98.04C124.712 96.9227 123.526 95.4516 122.75 93.76C121.75 91.9 120.99 89.94 120.18 87.99C118.51 83.93 115.93 73.93 115.93 73.93L113.34 63.51L110.67 52.91L108.78 45.98C103.78 27.98 96.85 19.05 96.85 19.05C91.411 11.2944 83.7052 5.41197 74.79 2.21002C64.46 -1.49998 53.61 0.590024 53.61 0.590024C36.61 3.93002 27.68 15.59 23.75 21.2C25.5474 21.6733 27.2681 22.4007 28.86 23.36C30.9826 24.6367 32.8178 26.3391 34.25 28.36C36.82 32 37.39 36.53 37.91 40.86C38.9597 50.2368 40.7927 59.5092 43.39 68.58C49.14 49.48 56.06 40.58 56.06 40.58C56.826 39.6187 57.749 38.7938 58.79 38.14C59.3324 37.807 59.9389 37.5924 60.57 37.51C61.7427 37.3976 62.9191 37.6829 63.91 38.32C64.0876 38.4391 64.2549 38.5729 64.41 38.72C65.3132 39.5209 66.0888 40.455 66.71 41.49C68.1502 44.0619 69.4002 46.7357 70.45 49.49C72.6 55.57 74.45 63 74.45 63L79.95 84.68C83.95 99.42 87.35 106.58 87.35 106.58C95.69 125.7 108.46 131.08 108.46 131.08C114.677 134.405 121.591 136.214 128.64 136.36C135.385 136.582 142.084 135.176 148.17 132.26C154.789 128.999 160.597 124.302 165.17 118.51C168.26 114.93 172.81 106.21 172.81 106.21C177.831 96.2149 181.77 85.712 184.56 74.88C186.345 68.1326 187.777 61.2966 188.85 54.4C189.39 50.98 189.9 47.54 190.31 44.09C190.824 40.8238 190.726 37.4903 190.02 34.26C189.867 33.6807 189.683 33.1099 189.47 32.55C187.863 28.4942 184.878 25.1343 181.04 23.06C178.206 21.5098 175.03 20.6917 171.8 20.68V20.68Z" fill="url(#paint28_radial)"/>
<path d="M171.8 20.68C170.215 20.6764 168.635 20.8747 167.1 21.27C170.602 26.3404 173.578 31.7551 175.98 37.43C177.081 39.8681 177.644 42.5149 177.63 45.19C177.628 48.5162 176.746 51.7825 175.073 54.6577C173.401 57.533 170.998 59.9149 168.109 61.5618C165.219 63.2088 161.945 64.0622 158.619 64.0355C155.293 64.0089 152.033 63.1031 149.17 61.41L147.24 68.58C143.72 80.35 141.24 84.9 141.24 84.9C139.874 88.0932 138.245 91.1671 136.37 94.09C135.09 96 133.44 97.92 131.18 98.65C130.394 98.9231 129.554 99.0053 128.73 98.89C127.837 98.7836 126.976 98.4943 126.2 98.04C124.712 96.9227 123.526 95.4516 122.75 93.76C121.75 91.9 120.99 89.94 120.18 87.99C118.51 83.93 115.93 73.93 115.93 73.93L113.34 63.51L110.67 52.91L108.78 45.98C103.78 27.98 96.85 19.05 96.85 19.05C91.411 11.2944 83.7052 5.41197 74.79 2.21002C64.46 -1.49998 53.61 0.590024 53.61 0.590024C36.61 3.93002 27.68 15.59 23.75 21.2C25.5474 21.6733 27.2681 22.4007 28.86 23.36C30.9826 24.6367 32.8178 26.3391 34.25 28.36C36.82 32 37.39 36.53 37.91 40.86C38.9597 50.2368 40.7927 59.5092 43.39 68.58C49.14 49.48 56.06 40.58 56.06 40.58C56.826 39.6187 57.749 38.7938 58.79 38.14C59.3324 37.807 59.9389 37.5924 60.57 37.51C61.7427 37.3976 62.9191 37.6829 63.91 38.32C64.0876 38.4391 64.2549 38.5729 64.41 38.72C65.3132 39.5209 66.0888 40.455 66.71 41.49C68.1502 44.0619 69.4002 46.7357 70.45 49.49C72.6 55.57 74.45 63 74.45 63L79.95 84.68C83.95 99.42 87.35 106.58 87.35 106.58C95.69 125.7 108.46 131.08 108.46 131.08C114.677 134.405 121.591 136.214 128.64 136.36C135.385 136.582 142.084 135.176 148.17 132.26C154.789 128.999 160.597 124.302 165.17 118.51C168.26 114.93 172.81 106.21 172.81 106.21C177.831 96.2149 181.77 85.712 184.56 74.88C186.345 68.1326 187.777 61.2966 188.85 54.4C189.39 50.98 189.9 47.54 190.31 44.09C190.824 40.8238 190.726 37.4903 190.02 34.26C189.867 33.6807 189.683 33.1099 189.47 32.55C187.863 28.4942 184.878 25.1343 181.04 23.06C178.206 21.5098 175.03 20.6917 171.8 20.68V20.68Z" fill="url(#paint29_radial)"/>
<path d="M171.8 20.68C170.215 20.6764 168.635 20.8747 167.1 21.27C170.602 26.3404 173.578 31.7551 175.98 37.43C177.081 39.8681 177.644 42.5149 177.63 45.19C177.628 48.5162 176.746 51.7825 175.073 54.6577C173.401 57.533 170.998 59.9149 168.109 61.5618C165.219 63.2088 161.945 64.0622 158.619 64.0355C155.293 64.0089 152.033 63.1031 149.17 61.41L147.24 68.58C143.72 80.35 141.24 84.9 141.24 84.9C139.874 88.0932 138.245 91.1671 136.37 94.09C135.09 96 133.44 97.92 131.18 98.65C130.394 98.9231 129.554 99.0053 128.73 98.89C127.837 98.7836 126.976 98.4943 126.2 98.04C124.712 96.9227 123.526 95.4516 122.75 93.76C121.75 91.9 120.99 89.94 120.18 87.99C118.51 83.93 115.93 73.93 115.93 73.93L113.34 63.51L110.67 52.91L108.78 45.98C103.78 27.98 96.85 19.05 96.85 19.05C91.411 11.2944 83.7052 5.41197 74.79 2.21002C64.46 -1.49998 53.61 0.590024 53.61 0.590024C36.61 3.93002 27.68 15.59 23.75 21.2C25.5474 21.6733 27.2681 22.4007 28.86 23.36C30.9826 24.6367 32.8178 26.3391 34.25 28.36C36.82 32 37.39 36.53 37.91 40.86C38.9597 50.2368 40.7927 59.5092 43.39 68.58C49.14 49.48 56.06 40.58 56.06 40.58C56.826 39.6187 57.749 38.7938 58.79 38.14C59.3324 37.807 59.9389 37.5924 60.57 37.51C61.7427 37.3976 62.9191 37.6829 63.91 38.32C64.0876 38.4391 64.2549 38.5729 64.41 38.72C65.3132 39.5209 66.0888 40.455 66.71 41.49C68.1502 44.0619 69.4002 46.7357 70.45 49.49C72.6 55.57 74.45 63 74.45 63L79.95 84.68C83.95 99.42 87.35 106.58 87.35 106.58C95.69 125.7 108.46 131.08 108.46 131.08C114.677 134.405 121.591 136.214 128.64 136.36C135.385 136.582 142.084 135.176 148.17 132.26C154.789 128.999 160.597 124.302 165.17 118.51C168.26 114.93 172.81 106.21 172.81 106.21C177.831 96.2149 181.77 85.712 184.56 74.88C186.345 68.1326 187.777 61.2966 188.85 54.4C189.39 50.98 189.9 47.54 190.31 44.09C190.824 40.8238 190.726 37.4903 190.02 34.26C189.867 33.6807 189.683 33.1099 189.47 32.55C187.863 28.4942 184.878 25.1343 181.04 23.06C178.206 21.5098 175.03 20.6917 171.8 20.68V20.68Z" fill="url(#paint30_radial)"/>
<path d="M171.8 20.68C170.215 20.6764 168.635 20.8747 167.1 21.27C170.602 26.3404 173.578 31.7551 175.98 37.43C177.081 39.8681 177.644 42.5149 177.63 45.19C177.628 48.5162 176.746 51.7825 175.073 54.6577C173.401 57.533 170.998 59.9149 168.109 61.5618C165.219 63.2088 161.945 64.0622 158.619 64.0355C155.293 64.0089 152.033 63.1031 149.17 61.41L147.24 68.58C143.72 80.35 141.24 84.9 141.24 84.9C139.874 88.0932 138.245 91.1671 136.37 94.09C135.09 96 133.44 97.92 131.18 98.65C130.394 98.9231 129.554 99.0053 128.73 98.89C127.837 98.7836 126.976 98.4943 126.2 98.04C124.712 96.9227 123.526 95.4516 122.75 93.76C121.75 91.9 120.99 89.94 120.18 87.99C118.51 83.93 115.93 73.93 115.93 73.93L113.34 63.51L110.67 52.91L108.78 45.98C103.78 27.98 96.85 19.05 96.85 19.05C91.411 11.2944 83.7052 5.41197 74.79 2.21002C64.46 -1.49998 53.61 0.590024 53.61 0.590024C36.61 3.93002 27.68 15.59 23.75 21.2C25.5474 21.6733 27.2681 22.4007 28.86 23.36C30.9826 24.6367 32.8178 26.3391 34.25 28.36C36.82 32 37.39 36.53 37.91 40.86C38.9597 50.2368 40.7927 59.5092 43.39 68.58C49.14 49.48 56.06 40.58 56.06 40.58C56.826 39.6187 57.749 38.7938 58.79 38.14C59.3324 37.807 59.9389 37.5924 60.57 37.51C61.7427 37.3976 62.9191 37.6829 63.91 38.32C64.0876 38.4391 64.2549 38.5729 64.41 38.72C65.3132 39.5209 66.0888 40.455 66.71 41.49C68.1502 44.0619 69.4002 46.7357 70.45 49.49C72.6 55.57 74.45 63 74.45 63L79.95 84.68C83.95 99.42 87.35 106.58 87.35 106.58C95.69 125.7 108.46 131.08 108.46 131.08C114.677 134.405 121.591 136.214 128.64 136.36C135.385 136.582 142.084 135.176 148.17 132.26C154.789 128.999 160.597 124.302 165.17 118.51C168.26 114.93 172.81 106.21 172.81 106.21C177.831 96.2149 181.77 85.712 184.56 74.88C186.345 68.1326 187.777 61.2966 188.85 54.4C189.39 50.98 189.9 47.54 190.31 44.09C190.824 40.8238 190.726 37.4903 190.02 34.26C189.867 33.6807 189.683 33.1099 189.47 32.55C187.863 28.4942 184.878 25.1343 181.04 23.06C178.206 21.5098 175.03 20.6917 171.8 20.68V20.68Z" fill="url(#paint31_radial)"/>
<path d="M171.8 20.68C170.215 20.6764 168.635 20.8747 167.1 21.27C170.602 26.3404 173.578 31.7551 175.98 37.43C177.081 39.8681 177.644 42.5149 177.63 45.19C177.628 48.5162 176.746 51.7825 175.073 54.6577C173.401 57.533 170.998 59.9149 168.109 61.5618C165.219 63.2088 161.945 64.0622 158.619 64.0355C155.293 64.0089 152.033 63.1031 149.17 61.41L147.24 68.58C143.72 80.35 141.24 84.9 141.24 84.9C139.874 88.0932 138.245 91.1671 136.37 94.09C135.09 96 133.44 97.92 131.18 98.65C130.394 98.9231 129.554 99.0053 128.73 98.89C127.837 98.7836 126.976 98.4943 126.2 98.04C124.712 96.9227 123.526 95.4516 122.75 93.76C121.75 91.9 120.99 89.94 120.18 87.99C118.51 83.93 115.93 73.93 115.93 73.93L113.34 63.51L110.67 52.91L108.78 45.98C103.78 27.98 96.85 19.05 96.85 19.05C91.411 11.2944 83.7052 5.41197 74.79 2.21002C64.46 -1.49998 53.61 0.590024 53.61 0.590024C36.61 3.93002 27.68 15.59 23.75 21.2C25.5474 21.6733 27.2681 22.4007 28.86 23.36C30.9826 24.6367 32.8178 26.3391 34.25 28.36C36.82 32 37.39 36.53 37.91 40.86C38.9597 50.2368 40.7927 59.5092 43.39 68.58C49.14 49.48 56.06 40.58 56.06 40.58C56.826 39.6187 57.749 38.7938 58.79 38.14C59.3324 37.807 59.9389 37.5924 60.57 37.51C61.7427 37.3976 62.9191 37.6829 63.91 38.32C64.0876 38.4391 64.2549 38.5729 64.41 38.72C65.3132 39.5209 66.0888 40.455 66.71 41.49C68.1502 44.0619 69.4002 46.7357 70.45 49.49C72.6 55.57 74.45 63 74.45 63L79.95 84.68C83.95 99.42 87.35 106.58 87.35 106.58C95.69 125.7 108.46 131.08 108.46 131.08C114.677 134.405 121.591 136.214 128.64 136.36C135.385 136.582 142.084 135.176 148.17 132.26C154.789 128.999 160.597 124.302 165.17 118.51C168.26 114.93 172.81 106.21 172.81 106.21C177.831 96.2149 181.77 85.712 184.56 74.88C186.345 68.1326 187.777 61.2966 188.85 54.4C189.39 50.98 189.9 47.54 190.31 44.09C190.824 40.8238 190.726 37.4903 190.02 34.26C189.867 33.6807 189.683 33.1099 189.47 32.55C187.863 28.4942 184.878 25.1343 181.04 23.06C178.206 21.5098 175.03 20.6917 171.8 20.68V20.68Z" fill="url(#paint32_linear)"/>
<path d="M43.4817 68.9199C45.5781 76.2841 48.4299 83.412 51.9917 90.1899C53.6317 93.1899 55.2517 96.1899 58.2117 98.0799C58.7255 98.4003 59.2903 98.6303 59.8817 98.7599C64.2517 99.6899 66.6317 96.1799 68.1817 92.9699C70.4722 87.9314 72.3257 82.7056 73.7217 77.3499C74.0017 76.3499 74.2517 75.3499 74.5117 74.3499C75.0217 72.4299 75.5117 70.4999 75.9417 68.5699L95.1717 17.1899C99.1688 11.8676 104.35 7.54887 110.305 4.57566C116.26 1.60245 122.826 0.0563877 129.482 0.0598813C139.067 0.000872626 148.386 3.21068 155.902 9.15988C168.492 18.6799 175.972 37.4299 175.972 37.4299C177.073 39.868 177.636 42.5147 177.622 45.1899C177.602 49.0551 176.395 52.8209 174.165 55.9777C171.934 59.1344 168.788 61.5295 165.151 62.8389C161.514 64.1482 157.563 64.3086 153.832 63.2982C150.101 62.2878 146.771 60.1555 144.292 57.1899L144.112 56.9699C142.906 55.3352 141.899 53.5627 141.112 51.6899C140.074 49.3366 138.913 47.04 137.632 44.8099C136.952 43.6599 136.192 42.5699 135.412 41.4899C134.74 40.5222 133.943 39.6479 133.042 38.8899C131.272 37.4599 129.042 36.8899 126.962 38.1199C126.861 38.1774 126.765 38.2408 126.672 38.3099C124.532 39.7799 123.032 42.7499 121.992 45.0299C118.992 51.4899 117.272 58.1099 115.572 64.9099C115.252 66.2199 114.932 67.5299 114.632 68.8499L106.692 94.8499L95.4717 119.57C91.4584 124.749 86.3224 128.95 80.4504 131.856C74.5784 134.763 68.1235 136.299 61.5717 136.35C34.3417 136.93 21.4217 112.35 21.4217 112.35C5.91172 86.9099 1.34173 53.3499 0.251726 42.6199C0.0217255 40.3899 0.0117201 39.0599 0.0117201 39.0599C0.0104571 35.6989 0.927288 32.4015 2.66322 29.5235C4.39915 26.6456 6.88823 24.2965 9.86173 22.7299C12.9362 21.172 16.3577 20.4251 19.8017 20.5599C23.0088 20.6957 26.1292 21.6418 28.8717 23.3099C30.9943 24.5866 32.8295 26.289 34.2617 28.3099C36.8317 31.9499 37.4017 36.4799 37.9217 40.8099C38.9768 50.3203 40.8368 59.724 43.4817 68.9199V68.9199Z" fill="url(#paint33_linear)"/>
<path d="M43.4817 68.9199C45.5781 76.2841 48.4299 83.412 51.9917 90.1899C53.6317 93.1899 55.2517 96.1899 58.2117 98.0799C58.7255 98.4003 59.2903 98.6303 59.8817 98.7599C64.2517 99.6899 66.6317 96.1799 68.1817 92.9699C70.4722 87.9314 72.3257 82.7056 73.7217 77.3499C74.0017 76.3499 74.2517 75.3499 74.5117 74.3499C75.0217 72.4299 75.5117 70.4999 75.9417 68.5699L95.1717 17.1899C99.1688 11.8676 104.35 7.54887 110.305 4.57566C116.26 1.60245 122.826 0.0563877 129.482 0.0598813C139.067 0.000872626 148.386 3.21068 155.902 9.15988C168.492 18.6799 175.972 37.4299 175.972 37.4299C177.073 39.868 177.636 42.5147 177.622 45.1899C177.602 49.0551 176.395 52.8209 174.165 55.9777C171.934 59.1344 168.788 61.5295 165.151 62.8389C161.514 64.1482 157.563 64.3086 153.832 63.2982C150.101 62.2878 146.771 60.1555 144.292 57.1899L144.112 56.9699C142.906 55.3352 141.899 53.5627 141.112 51.6899C140.074 49.3366 138.913 47.04 137.632 44.8099C136.952 43.6599 136.192 42.5699 135.412 41.4899C134.74 40.5222 133.943 39.6479 133.042 38.8899C131.272 37.4599 129.042 36.8899 126.962 38.1199C126.861 38.1774 126.765 38.2408 126.672 38.3099C124.532 39.7799 123.032 42.7499 121.992 45.0299C118.992 51.4899 117.272 58.1099 115.572 64.9099C115.252 66.2199 114.932 67.5299 114.632 68.8499L106.692 94.8499L95.4717 119.57C91.4584 124.749 86.3224 128.95 80.4504 131.856C74.5784 134.763 68.1235 136.299 61.5717 136.35C34.3417 136.93 21.4217 112.35 21.4217 112.35C5.91172 86.9099 1.34173 53.3499 0.251726 42.6199C0.0217255 40.3899 0.0117201 39.0599 0.0117201 39.0599C0.0104571 35.6989 0.927288 32.4015 2.66322 29.5235C4.39915 26.6456 6.88823 24.2965 9.86173 22.7299C12.9362 21.172 16.3577 20.4251 19.8017 20.5599C23.0088 20.6957 26.1292 21.6418 28.8717 23.3099C30.9943 24.5866 32.8295 26.289 34.2617 28.3099C36.8317 31.9499 37.4017 36.4799 37.9217 40.8099C38.9768 50.3203 40.8368 59.724 43.4817 68.9199V68.9199Z" fill="url(#paint34_linear)"/>
<path d="M95.1719 17.1899C99.1689 11.8676 104.35 7.54887 110.305 4.57566C116.26 1.60245 122.826 0.0563877 129.482 0.0598813C139.067 0.000872626 148.386 3.21068 155.902 9.15988C168.492 18.6799 175.972 37.4299 175.972 37.4299C177.073 39.868 177.636 42.5147 177.622 45.1899C177.602 49.0551 176.395 52.8209 174.165 55.9777C171.934 59.1344 168.788 61.5295 165.151 62.8389C161.514 64.1482 157.563 64.3086 153.832 63.2982C150.101 62.2878 146.771 60.1555 144.292 57.1899L144.112 56.9699C142.906 55.3352 141.899 53.5627 141.112 51.6899C140.074 49.3366 138.913 47.04 137.632 44.8099C136.952 43.6599 136.192 42.5699 135.412 41.4899C134.74 40.5222 133.943 39.6479 133.042 38.8899C131.272 37.4599 129.042 36.8899 126.962 38.1199C126.861 38.1774 126.765 38.2408 126.672 38.3099C124.532 39.7799 123.032 42.7499 121.992 45.0299L95.1719 17.1899Z" fill="url(#paint35_linear)"/>
</g>
<defs>
<radialGradient id="paint0_radial" cx="0" cy="0" r="1" gradientUnits="userSpaceOnUse" gradientTransform="translate(108.537 56.5466) rotate(74.32) scale(70.85 53.846)">
<stop stop-color="#C0C0BF"/>
<stop offset="0.35" stop-color="#C0C0BF" stop-opacity="0.52"/>
<stop offset="0.64" stop-color="#C0C0BF" stop-opacity="0.15"/>
<stop offset="0.78" stop-color="#C0C0BF" stop-opacity="0"/>
</radialGradient>
<radialGradient id="paint1_radial" cx="0" cy="0" r="1" gradientUnits="userSpaceOnUse" gradientTransform="translate(118.79 54.4176) rotate(91.1458) scale(47.9096 36.4063)">
<stop stop-color="#C0C0C0"/>
<stop offset="0.03" stop-color="#C0C0C0" stop-opacity="0.97"/>
<stop offset="0.47" stop-color="#C0C0C0" stop-opacity="0.45"/>
<stop offset="0.78" stop-color="#C0C0C0" stop-opacity="0.13"/>
<stop offset="0.92" stop-color="#C0C0C0" stop-opacity="0"/>
</radialGradient>
<radialGradient id="paint2_radial" cx="0" cy="0" r="1" gradientUnits="userSpaceOnUse" gradientTransform="translate(117.476 53.7235) rotate(88.6) scale(44.66 31.7086)">
<stop stop-color="#C0C0C0"/>
<stop offset="0.07" stop-color="#C0C0C0" stop-opacity="0.89"/>
<stop offset="0.29" stop-color="#C0C0C0" stop-opacity="0.58"/>
<stop offset="0.5" stop-color="#C0C0C0" stop-opacity="0.33"/>
<stop offset="0.68" stop-color="#C0C0C0" stop-opacity="0.15"/>
<stop offset="0.82" stop-color="#C0C0C0" stop-opacity="0.04"/>
<stop offset="0.92" stop-color="#C0C0C0" stop-opacity="0"/>
</radialGradient>
<radialGradient id="paint3_radial" cx="0" cy="0" r="1" gradientUnits="userSpaceOnUse" gradientTransform="translate(118.242 51.6878) rotate(88.6) scale(36.06 25.6026)">
<stop stop-color="#C0C0C0"/>
<stop offset="0.24" stop-color="#C0C0C0" stop-opacity="0.76"/>
<stop offset="0.77" stop-color="#C0C0C0" stop-opacity="0.17"/>
<stop offset="0.92" stop-color="#C0C0C0" stop-opacity="0"/>
</radialGradient>
<radialGradient id="paint4_radial" cx="0" cy="0" r="1" gradientUnits="userSpaceOnUse" gradientTransform="translate(118.727 53.742) rotate(88.6) scale(28.76 18.4064)">
<stop stop-color="#BFBFBF"/>
<stop offset="0.11" stop-color="#BFBFBF" stop-opacity="0.96"/>
<stop offset="0.27" stop-color="#BFBFBF" stop-opacity="0.84"/>
<stop offset="0.47" stop-color="#BFBFBF" stop-opacity="0.65"/>
<stop offset="0.7" stop-color="#BFBFBF" stop-opacity="0.39"/>
<stop offset="0.96" stop-color="#BFBFBF" stop-opacity="0.06"/>
<stop offset="1" stop-color="#BFBFBF" stop-opacity="0"/>
</radialGradient>
<radialGradient id="paint5_radial" cx="0" cy="0" r="1" gradientUnits="userSpaceOnUse" gradientTransform="translate(122.513 56.8898) rotate(23.8) scale(46.28 34.71)">
<stop stop-color="#BFBFBF"/>
<stop offset="0.18" stop-color="#BFBFBF" stop-opacity="0.77"/>
<stop offset="0.53" stop-color="#BFBFBF" stop-opacity="0.36"/>
<stop offset="0.78" stop-color="#BFBFBF" stop-opacity="0.1"/>
<stop offset="0.9" stop-color="#BFBFBF" stop-opacity="0"/>
</radialGradient>
<radialGradient id="paint6_radial" cx="0" cy="0" r="1" gradientUnits="userSpaceOnUse" gradientTransform="translate(108.526 -12.2187) rotate(35.2724) scale(61.7198 56.4337)">
<stop stop-color="#EFEFEF"/>
<stop offset="0.13" stop-color="#EFEFEF" stop-opacity="0.81"/>
<stop offset="0.44" stop-color="#EFEFEF" stop-opacity="0.38"/>
<stop offset="0.65" stop-color="#EFEFEF" stop-opacity="0.11"/>
<stop offset="0.76" stop-color="#EFEFEF" stop-opacity="0"/>
</radialGradient>
<radialGradient id="paint7_radial" cx="0" cy="0" r="1" gradientUnits="userSpaceOnUse" gradientTransform="translate(77.7286 -17.4464) rotate(35.2724) scale(61.7198 56.4337)">
<stop stop-color="#E7E7E7"/>
<stop offset="0.11" stop-color="#E7E7E7" stop-opacity="0.84"/>
<stop offset="0.43" stop-color="#E7E7E7" stop-opacity="0.39"/>
<stop offset="0.65" stop-color="#E7E7E7" stop-opacity="0.11"/>
<stop offset="0.76" stop-color="#E7E7E7" stop-opacity="0"/>
</radialGradient>
<radialGradient id="paint8_radial" cx="0" cy="0" r="1" gradientUnits="userSpaceOnUse" gradientTransform="translate(133.094 68.6148) rotate(101.15) scale(54.53 67.0719)">
<stop stop-color="#BFBFBF"/>
<stop offset="0.01" stop-color="#BFBFBF" stop-opacity="0.97"/>
<stop offset="0.12" stop-color="#BFBFBF" stop-opacity="0.68"/>
<stop offset="0.22" stop-color="#BFBFBF" stop-opacity="0.44"/>
<stop offset="0.32" stop-color="#BFBFBF" stop-opacity="0.25"/>
<stop offset="0.42" stop-color="#BFBFBF" stop-opacity="0.11"/>
<stop offset="0.5" stop-color="#BFBFBF" stop-opacity="0.03"/>
<stop offset="0.56" stop-color="#BFBFBF" stop-opacity="0"/>
</radialGradient>
<radialGradient id="paint9_radial" cx="0" cy="0" r="1" gradientUnits="userSpaceOnUse" gradientTransform="translate(100.908 71.9719) rotate(-51.0725) scale(71.3182 76.873)">
<stop stop-color="#C6C6C6"/>
<stop offset="0.2" stop-color="#C6C6C6" stop-opacity="0.65"/>
<stop offset="0.42" stop-color="#C6C6C6" stop-opacity="0.3"/>
<stop offset="0.57" stop-color="#C6C6C6" stop-opacity="0.08"/>
<stop offset="0.65" stop-color="#C6C6C6" stop-opacity="0"/>
</radialGradient>
<radialGradient id="paint10_radial" cx="0" cy="0" r="1" gradientUnits="userSpaceOnUse" gradientTransform="translate(95.3184 78.6834) rotate(-31.66) scale(69.39 54.8181)">
<stop offset="0.05" stop-color="#C6C6C6"/>
<stop offset="0.12" stop-color="#C6C6C6" stop-opacity="0.79"/>
<stop offset="0.2" stop-color="#C6C6C6" stop-opacity="0.55"/>
<stop offset="0.29" stop-color="#C6C6C6" stop-opacity="0.35"/>
<stop offset="0.37" stop-color="#C6C6C6" stop-opacity="0.2"/>
<stop offset="0.45" stop-color="#C6C6C6" stop-opacity="0.09"/>
<stop offset="0.53" stop-color="#C6C6C6" stop-opacity="0.02"/>
<stop offset="0.6" stop-color="#C6C6C6" stop-opacity="0"/>
</radialGradient>
<radialGradient id="paint11_radial" cx="0" cy="0" r="1" gradientUnits="userSpaceOnUse" gradientTransform="translate(37027.4 -1897.54) rotate(-31.66) scale(12324.4 7471.76)">
<stop offset="0.05" stop-color="#C6C6C6"/>
<stop offset="0.12" stop-color="#C6C6C6" stop-opacity="0.79"/>
<stop offset="0.2" stop-color="#C6C6C6" stop-opacity="0.55"/>
<stop offset="0.29" stop-color="#C6C6C6" stop-opacity="0.35"/>
<stop offset="0.37" stop-color="#C6C6C6" stop-opacity="0.2"/>
<stop offset="0.45" stop-color="#C6C6C6" stop-opacity="0.09"/>
<stop offset="0.53" stop-color="#C6C6C6" stop-opacity="0.02"/>
<stop offset="0.6" stop-color="#C6C6C6" stop-opacity="0"/>
</radialGradient>
<radialGradient id="paint12_radial" cx="0" cy="0" r="1" gradientUnits="userSpaceOnUse" gradientTransform="translate(78.7197 81.4986) rotate(-130.539) scale(41.3421 32.5536)">
<stop offset="0.26" stop-color="#C6C6C6"/>
<stop offset="0.29" stop-color="#C6C6C6" stop-opacity="0.93"/>
<stop offset="0.38" stop-color="#C6C6C6" stop-opacity="0.68"/>
<stop offset="0.48" stop-color="#C6C6C6" stop-opacity="0.47"/>
<stop offset="0.58" stop-color="#C6C6C6" stop-opacity="0.3"/>
<stop offset="0.68" stop-color="#C6C6C6" stop-opacity="0.17"/>
<stop offset="0.78" stop-color="#C6C6C6" stop-opacity="0.07"/>
<stop offset="0.89" stop-color="#C6C6C6" stop-opacity="0.02"/>
<stop offset="1" stop-color="#C6C6C6" stop-opacity="0"/>
</radialGradient>
<radialGradient id="paint13_radial" cx="0" cy="0" r="1" gradientUnits="userSpaceOnUse" gradientTransform="translate(71.2892 93.5543) rotate(-173.11) scale(38.78)">
<stop stop-color="#C6C6C6"/>
<stop offset="0.04" stop-color="#C6C6C6" stop-opacity="0.9"/>
<stop offset="0.16" stop-color="#C6C6C6" stop-opacity="0.63"/>
<stop offset="0.27" stop-color="#C6C6C6" stop-opacity="0.41"/>
<stop offset="0.38" stop-color="#C6C6C6" stop-opacity="0.23"/>
<stop offset="0.49" stop-color="#C6C6C6" stop-opacity="0.1"/>
<stop offset="0.58" stop-color="#C6C6C6" stop-opacity="0.03"/>
<stop offset="0.66" stop-color="#C6C6C6" stop-opacity="0"/>
</radialGradient>
<radialGradient id="paint14_radial" cx="0" cy="0" r="1" gradientUnits="userSpaceOnUse" gradientTransform="translate(70.9539 97.2245) rotate(-119.389) scale(27.0793 22.7064)">
<stop offset="0.13" stop-color="#C6C6C6"/>
<stop offset="0.28" stop-color="#C6C6C6" stop-opacity="0.72"/>
<stop offset="0.45" stop-color="#C6C6C6" stop-opacity="0.46"/>
<stop offset="0.6" stop-color="#C6C6C6" stop-opacity="0.26"/>
<stop offset="0.74" stop-color="#C6C6C6" stop-opacity="0.12"/>
<stop offset="0.86" stop-color="#C6C6C6" stop-opacity="0.03"/>
<stop offset="0.95" stop-color="#C6C6C6" stop-opacity="0"/>
</radialGradient>
<radialGradient id="paint15_radial" cx="0" cy="0" r="1" gradientUnits="userSpaceOnUse" gradientTransform="translate(69.7288 86.3555) rotate(-56.2) scale(25.48 20.1292)">
<stop stop-color="#C6C6C6"/>
<stop offset="0.25" stop-color="#C6C6C6" stop-opacity="0.69"/>
<stop offset="0.5" stop-color="#C6C6C6" stop-opacity="0.39"/>
<stop offset="0.72" stop-color="#C6C6C6" stop-opacity="0.18"/>
<stop offset="0.9" stop-color="#C6C6C6" stop-opacity="0.05"/>
<stop offset="1" stop-color="#C6C6C6" stop-opacity="0"/>
</radialGradient>
<linearGradient id="paint16_linear" x1="18.1117" y1="-3.10012" x2="83.5217" y2="57.4299" gradientUnits="userSpaceOnUse">
<stop stop-color="#F9F9F8"/>
<stop offset="0.05" stop-color="#F9F9F8" stop-opacity="0.9"/>
<stop offset="0.23" stop-color="#F9F9F8" stop-opacity="0.52"/>
<stop offset="0.38" stop-color="#F9F9F8" stop-opacity="0.24"/>
<stop offset="0.49" stop-color="#F9F9F8" stop-opacity="0.07"/>
<stop offset="0.54" stop-color="#F9F9F8" stop-opacity="0"/>
</linearGradient>
<linearGradient id="paint17_linear" x1="83.1317" y1="48.5999" x2="131.302" y2="127.15" gradientUnits="userSpaceOnUse">
<stop offset="0.62" stop-color="#ECECEC" stop-opacity="0"/>
<stop offset="0.66" stop-color="#ECECEC" stop-opacity="0.07"/>
<stop offset="0.74" stop-color="#ECECEC" stop-opacity="0.25"/>
<stop offset="0.85" stop-color="#ECECEC" stop-opacity="0.55"/>
<stop offset="0.98" stop-color="#ECECEC" stop-opacity="0.95"/>
<stop offset="1" stop-color="#ECECEC"/>
</linearGradient>
<radialGradient id="paint18_radial" cx="0" cy="0" r="1" gradientUnits="userSpaceOnUse" gradientTransform="translate(142.796 63.5918) rotate(98.69) scale(85.26 56.2716)">
<stop stop-color="#999899"/>
<stop offset="0.39" stop-color="#B1B1B1" stop-opacity="0.43"/>
<stop offset="0.7" stop-color="#C3C3C3" stop-opacity="0"/>
</radialGradient>
<radialGradient id="paint19_radial" cx="0" cy="0" r="1" gradientUnits="userSpaceOnUse" gradientTransform="translate(-17337.1 34904.2) rotate(98.69) scale(14228.6 7674.29)">
<stop stop-color="#999899"/>
<stop offset="0.39" stop-color="#B1B1B1" stop-opacity="0.43"/>
<stop offset="0.7" stop-color="#C3C3C3" stop-opacity="0"/>
</radialGradient>
<radialGradient id="paint20_radial" cx="0" cy="0" r="1" gradientUnits="userSpaceOnUse" gradientTransform="translate(145.605 68.6359) rotate(98.69) scale(62.83 41.4678)">
<stop stop-color="#CECECE"/>
<stop offset="0.47" stop-color="#CECECE" stop-opacity="0.32"/>
<stop offset="0.7" stop-color="#CECECE" stop-opacity="0"/>
</radialGradient>
<radialGradient id="paint21_radial" cx="0" cy="0" r="1" gradientUnits="userSpaceOnUse" gradientTransform="translate(139.069 56.5187) rotate(98.6156) scale(74.8271 37.839)">
<stop stop-color="#C3C3C3"/>
<stop offset="0.45" stop-color="#C3C3C3" stop-opacity="0.33"/>
<stop offset="0.7" stop-color="#C3C3C3" stop-opacity="0"/>
</radialGradient>
<radialGradient id="paint22_radial" cx="0" cy="0" r="1" gradientUnits="userSpaceOnUse" gradientTransform="translate(130.935 60.0728) rotate(82.95) scale(74.73 52.311)">
<stop stop-color="#C3C3C3"/>
<stop offset="0.07" stop-color="#C3C3C3" stop-opacity="0.86"/>
<stop offset="0.23" stop-color="#C3C3C3" stop-opacity="0.56"/>
<stop offset="0.38" stop-color="#C3C3C3" stop-opacity="0.32"/>
<stop offset="0.52" stop-color="#C3C3C3" stop-opacity="0.14"/>
<stop offset="0.63" stop-color="#C3C3C3" stop-opacity="0.04"/>
<stop offset="0.7" stop-color="#C3C3C3" stop-opacity="0"/>
</radialGradient>
<radialGradient id="paint23_radial" cx="0" cy="0" r="1" gradientUnits="userSpaceOnUse" gradientTransform="translate(145.586 72.1861) rotate(74.64) scale(71.62 48.7016)">
<stop stop-color="#C3C3C3"/>
<stop offset="0.46" stop-color="#C3C3C3" stop-opacity="0.33"/>
<stop offset="0.7" stop-color="#C3C3C3" stop-opacity="0"/>
</radialGradient>
<radialGradient id="paint24_radial" cx="0" cy="0" r="1" gradientUnits="userSpaceOnUse" gradientTransform="translate(138.924 91.1459) rotate(74.64) scale(33.3 31.635)">
<stop stop-color="#C3C3C3"/>
<stop offset="0.07" stop-color="#C3C3C3" stop-opacity="0.82"/>
<stop offset="0.18" stop-color="#C3C3C3" stop-opacity="0.57"/>
<stop offset="0.3" stop-color="#C3C3C3" stop-opacity="0.37"/>
<stop offset="0.4" stop-color="#C3C3C3" stop-opacity="0.21"/>
<stop offset="0.51" stop-color="#C3C3C3" stop-opacity="0.09"/>
<stop offset="0.61" stop-color="#C3C3C3" stop-opacity="0.02"/>
<stop offset="0.7" stop-color="#C3C3C3" stop-opacity="0"/>
</radialGradient>
<radialGradient id="paint25_radial" cx="0" cy="0" r="1" gradientUnits="userSpaceOnUse" gradientTransform="translate(139.72 96.827) rotate(74.64) scale(33.3 31.635)">
<stop stop-color="#C3C3C3" stop-opacity="0.8"/>
<stop offset="0.11" stop-color="#C3C3C3" stop-opacity="0.63"/>
<stop offset="0.31" stop-color="#C3C3C3" stop-opacity="0.36"/>
<stop offset="0.48" stop-color="#C3C3C3" stop-opacity="0.16"/>
<stop offset="0.61" stop-color="#C3C3C3" stop-opacity="0.04"/>
<stop offset="0.7" stop-color="#C3C3C3" stop-opacity="0"/>
</radialGradient>
<radialGradient id="paint26_radial" cx="0" cy="0" r="1" gradientUnits="userSpaceOnUse" gradientTransform="translate(52.6476 77.3985) rotate(66.83) scale(79.53 52.4898)">
<stop stop-color="#C3C3C3"/>
<stop offset="0.4" stop-color="#C3C3C3" stop-opacity="0.56"/>
<stop offset="0.53" stop-color="#C3C3C3" stop-opacity="0.34"/>
<stop offset="0.71" stop-color="#C3C3C3" stop-opacity="0.1"/>
<stop offset="0.79" stop-color="#C3C3C3" stop-opacity="0"/>
</radialGradient>
<radialGradient id="paint27_radial" cx="0" cy="0" r="1" gradientUnits="userSpaceOnUse" gradientTransform="translate(48.6585 58.3801) rotate(75.9) scale(58.99 38.9334)">
<stop stop-color="#C3C3C3"/>
<stop offset="0.02" stop-color="#C3C3C3" stop-opacity="0.96"/>
<stop offset="0.15" stop-color="#C3C3C3" stop-opacity="0.71"/>
<stop offset="0.29" stop-color="#C3C3C3" stop-opacity="0.49"/>
<stop offset="0.42" stop-color="#C3C3C3" stop-opacity="0.31"/>
<stop offset="0.56" stop-color="#C3C3C3" stop-opacity="0.18"/>
<stop offset="0.7" stop-color="#C3C3C3" stop-opacity="0.08"/>
<stop offset="0.85" stop-color="#C3C3C3" stop-opacity="0.02"/>
<stop offset="1" stop-color="#C3C3C3" stop-opacity="0"/>
</radialGradient>
<radialGradient id="paint28_radial" cx="0" cy="0" r="1" gradientUnits="userSpaceOnUse" gradientTransform="translate(48.6585 58.3801) rotate(75.9) scale(58.99 38.9334)">
<stop stop-color="#C3C3C3"/>
<stop offset="0.02" stop-color="#C3C3C3" stop-opacity="0.96"/>
<stop offset="0.15" stop-color="#C3C3C3" stop-opacity="0.71"/>
<stop offset="0.29" stop-color="#C3C3C3" stop-opacity="0.49"/>
<stop offset="0.42" stop-color="#C3C3C3" stop-opacity="0.31"/>
<stop offset="0.56" stop-color="#C3C3C3" stop-opacity="0.18"/>
<stop offset="0.7" stop-color="#C3C3C3" stop-opacity="0.08"/>
<stop offset="0.85" stop-color="#C3C3C3" stop-opacity="0.02"/>
<stop offset="1" stop-color="#C3C3C3" stop-opacity="0"/>
</radialGradient>
<radialGradient id="paint29_radial" cx="0" cy="0" r="1" gradientUnits="userSpaceOnUse" gradientTransform="translate(48.6585 58.3801) rotate(75.9) scale(58.99 38.9334)">
<stop stop-color="#C3C3C3"/>
<stop offset="0.02" stop-color="#C3C3C3" stop-opacity="0.96"/>
<stop offset="0.15" stop-color="#C3C3C3" stop-opacity="0.71"/>
<stop offset="0.29" stop-color="#C3C3C3" stop-opacity="0.49"/>
<stop offset="0.42" stop-color="#C3C3C3" stop-opacity="0.31"/>
<stop offset="0.56" stop-color="#C3C3C3" stop-opacity="0.18"/>
<stop offset="0.7" stop-color="#C3C3C3" stop-opacity="0.08"/>
<stop offset="0.85" stop-color="#C3C3C3" stop-opacity="0.02"/>
<stop offset="1" stop-color="#C3C3C3" stop-opacity="0"/>
</radialGradient>
<radialGradient id="paint30_radial" cx="0" cy="0" r="1" gradientUnits="userSpaceOnUse" gradientTransform="translate(-5861.93 23689.3) rotate(75.9) scale(7531.49 4062.17)">
<stop stop-color="#C3C3C3"/>
<stop offset="0.02" stop-color="#C3C3C3" stop-opacity="0.96"/>
<stop offset="0.15" stop-color="#C3C3C3" stop-opacity="0.71"/>
<stop offset="0.29" stop-color="#C3C3C3" stop-opacity="0.49"/>
<stop offset="0.42" stop-color="#C3C3C3" stop-opacity="0.31"/>
<stop offset="0.56" stop-color="#C3C3C3" stop-opacity="0.18"/>
<stop offset="0.7" stop-color="#C3C3C3" stop-opacity="0.08"/>
<stop offset="0.85" stop-color="#C3C3C3" stop-opacity="0.02"/>
<stop offset="1" stop-color="#C3C3C3" stop-opacity="0"/>
</radialGradient>
<radialGradient id="paint31_radial" cx="0" cy="0" r="1" gradientUnits="userSpaceOnUse" gradientTransform="translate(60.9047 59.5665) rotate(86.95) scale(35.59 31.6751)">
<stop stop-color="#BCBBBB"/>
<stop offset="0.12" stop-color="#BCBBBB" stop-opacity="0.87"/>
<stop offset="0.36" stop-color="#BCBBBB" stop-opacity="0.54"/>
<stop offset="0.71" stop-color="#BCBBBB" stop-opacity="0.02"/>
<stop offset="0.73" stop-color="#BCBBBB" stop-opacity="0"/>
</radialGradient>
<linearGradient id="paint32_linear" x1="134.63" y1="-25.44" x2="94.36" y2="74.09" gradientUnits="userSpaceOnUse">
<stop stop-color="#F7F8F8"/>
<stop offset="0.05" stop-color="#F7F8F8" stop-opacity="0.9"/>
<stop offset="0.17" stop-color="#F7F8F8" stop-opacity="0.65"/>
<stop offset="0.33" stop-color="#F7F8F8" stop-opacity="0.25"/>
<stop offset="0.43" stop-color="#F7F8F8" stop-opacity="0"/>
</linearGradient>
<linearGradient id="paint33_linear" x1="1.31172" y1="93.0199" x2="87.4217" y2="62.3299" gradientUnits="userSpaceOnUse">
<stop stop-color="#F6F6F6"/>
<stop offset="0.03" stop-color="#F6F6F6" stop-opacity="0.91"/>
<stop offset="0.16" stop-color="#F6F6F6" stop-opacity="0.53"/>
<stop offset="0.27" stop-color="#F6F6F6" stop-opacity="0.24"/>
<stop offset="0.34" stop-color="#F6F6F6" stop-opacity="0.07"/>
<stop offset="0.38" stop-color="#F6F6F6" stop-opacity="0"/>
</linearGradient>
<linearGradient id="paint34_linear" x1="-18.9183" y1="95.6799" x2="57.4817" y2="74.0199" gradientUnits="userSpaceOnUse">
<stop stop-color="#FBFBFA"/>
<stop offset="0.05" stop-color="#FBFBFA" stop-opacity="0.89"/>
<stop offset="0.24" stop-color="#FBFBFA" stop-opacity="0.51"/>
<stop offset="0.39" stop-color="#FBFBFA" stop-opacity="0.24"/>
<stop offset="0.5" stop-color="#FBFBFA" stop-opacity="0.07"/>
<stop offset="0.55" stop-color="#FBFBFA" stop-opacity="0"/>
</linearGradient>
<linearGradient id="paint35_linear" x1="137.842" y1="36.9799" x2="145.052" y2="71.2299" gradientUnits="userSpaceOnUse">
<stop offset="0.33" stop-color="#E2E2E1" stop-opacity="0"/>
<stop offset="0.39" stop-color="#E2E2E1" stop-opacity="0.03"/>
<stop offset="0.47" stop-color="#E2E2E1" stop-opacity="0.1"/>
<stop offset="0.56" stop-color="#E2E2E1" stop-opacity="0.23"/>
<stop offset="0.66" stop-color="#E2E2E1" stop-opacity="0.4"/>
<stop offset="0.77" stop-color="#E2E2E1" stop-opacity="0.63"/>
<stop offset="0.88" stop-color="#E2E2E1" stop-opacity="0.9"/>
<stop offset="0.92" stop-color="#E2E2E1"/>
</linearGradient>
<clipPath id="clip0">
<rect width="762.25" height="209.92" fill="white"/>
</clipPath>
</defs>
</svg>
