<svg width="529" height="387" viewBox="0 0 529 387" fill="none" xmlns="http://www.w3.org/2000/svg">
<g clip-path="url(#clip0)">
<path d="M128.45 214.44H148.65L119.28 303.2H96.07L74.07 236.2L52.07 303.2H29.37L0 214.44H20.66L41.5 281.89L63.37 214.44H85.37L107.45 282.26L128.45 214.44Z" fill="white"/>
<path d="M235.201 265.95H169.701C170.305 270.525 172.022 274.882 174.701 278.64C177.086 281.922 180.299 284.514 184.011 286.15C187.799 287.782 191.887 288.603 196.011 288.56C200.602 288.543 205.153 287.71 209.451 286.1C213.894 284.485 218.042 282.154 221.731 279.2L231.361 293C226.457 297.29 220.741 300.551 214.551 302.59C208.167 304.599 201.505 305.588 194.811 305.52C186.598 305.673 178.486 303.677 171.281 299.73C164.465 295.914 158.888 290.222 155.211 283.33C151.371 276.256 149.451 268.086 149.451 258.82C149.285 250.375 151.209 242.021 155.051 234.5C158.591 227.638 164.004 221.92 170.661 218.01C177.654 214.003 185.604 211.971 193.661 212.13C201.335 211.989 208.89 214.028 215.451 218.01C221.839 221.99 226.978 227.687 230.281 234.45C233.946 242.01 235.769 250.33 235.601 258.73C235.581 260.59 235.448 262.996 235.201 265.95ZM215.751 251.22C214.705 244.306 212.218 238.933 208.291 235.1C204.365 231.266 199.365 229.353 193.291 229.36C186.678 229.36 181.381 231.32 177.401 235.24C173.421 239.16 170.871 244.493 169.751 251.24L215.751 251.22Z" fill="white"/>
<path d="M318.069 218.15C324.815 222.154 330.346 227.916 334.069 234.82C337.934 242.23 339.952 250.463 339.952 258.82C339.952 267.177 337.934 275.41 334.069 282.82C330.334 289.748 324.777 295.524 317.999 299.524C311.221 303.525 303.479 305.598 295.609 305.52C290.088 305.627 284.615 304.471 279.609 302.14C275.01 299.916 270.983 296.666 267.839 292.64V303.21H248.449V176.66H267.809V225C270.958 220.984 274.984 217.741 279.579 215.52C284.584 213.184 290.058 212.028 295.579 212.14C303.485 212.044 311.265 214.123 318.069 218.15V218.15ZM307.449 283.46C311.472 280.983 314.713 277.419 316.799 273.18C318.933 268.694 320.039 263.788 320.039 258.82C320.039 253.852 318.933 248.947 316.799 244.46C314.713 240.221 311.472 236.658 307.449 234.18C303.18 231.708 298.336 230.397 293.403 230.38C288.469 230.362 283.616 231.638 279.329 234.08C275.295 236.535 272.023 240.063 269.879 244.27C267.657 248.797 266.501 253.772 266.501 258.815C266.501 263.858 267.657 268.834 269.879 273.36C272.028 277.563 275.308 281.082 279.349 283.52C283.635 285.967 288.487 287.246 293.421 287.23C298.356 287.214 303.2 285.904 307.469 283.43L307.449 283.46Z" fill="white"/>
<path d="M435.96 265.95H370.45C371.053 270.525 372.77 274.882 375.45 278.64C377.839 281.918 381.05 284.509 384.76 286.15C388.548 287.78 392.635 288.601 396.76 288.56C401.333 288.537 405.867 287.704 410.15 286.1C414.59 284.487 418.735 282.156 422.42 279.2L432.06 293C427.153 297.292 421.433 300.554 415.24 302.59C408.877 304.593 402.239 305.581 395.57 305.52C387.355 305.675 379.243 303.679 372.04 299.73C365.22 295.915 359.639 290.223 355.96 283.33C352.1 276.263 350.17 268.096 350.17 258.83C350.008 250.388 351.935 242.037 355.78 234.52C359.316 227.656 364.73 221.937 371.39 218.03C378.382 214.023 386.332 211.99 394.39 212.15C402.073 212.004 409.64 214.043 416.21 218.03C422.595 222.01 427.731 227.707 431.03 234.47C434.698 242.029 436.524 250.349 436.36 258.75C436.34 260.596 436.206 262.996 435.96 265.95ZM416.51 251.22C415.45 244.306 412.963 238.933 409.05 235.1C405.136 231.266 400.116 229.353 393.99 229.36C387.376 229.36 382.08 231.32 378.1 235.24C374.12 239.16 371.573 244.493 370.46 251.24L416.51 251.22Z" fill="white"/>
<path d="M528.33 303.2H504.52L482 272.34L459.77 303.2H437.07L470.52 257.89L437.63 214.44H461.45L483.13 244.09L504.8 214.44H527.69L494.89 257.71L528.33 303.2Z" fill="white"/>
<path d="M153.258 376.68H149.328V340.91H154.098V354.42C155.052 353.023 156.348 351.892 157.862 351.136C159.376 350.38 161.058 350.024 162.748 350.1C164.404 350.022 166.054 350.346 167.558 351.042C169.062 351.738 170.376 352.787 171.388 354.1C173.208 356.48 174.118 359.643 174.118 363.59C174.118 368.257 172.878 371.833 170.398 374.32C169.347 375.358 168.095 376.17 166.72 376.708C165.345 377.246 163.874 377.499 162.398 377.45C160.757 377.535 159.121 377.195 157.649 376.463C156.178 375.731 154.92 374.631 153.998 373.27L153.258 376.68ZM169.158 363.52C169.158 360.27 168.338 357.84 166.718 356.21C166.058 355.544 165.266 355.022 164.393 354.677C163.52 354.333 162.586 354.174 161.648 354.21C160.549 354.165 159.455 354.38 158.454 354.837C157.453 355.294 156.574 355.98 155.888 356.84C154.47 358.761 153.763 361.115 153.888 363.5C153.888 366.81 154.708 369.34 156.328 371.1C156.999 371.851 157.827 372.445 158.753 372.839C159.68 373.233 160.682 373.418 161.688 373.38C162.787 373.441 163.883 373.223 164.875 372.746C165.866 372.268 166.721 371.547 167.358 370.65C168.686 368.519 169.316 366.026 169.158 363.52Z" fill="white"/>
<path d="M199.659 350.85L190.659 377.03C189.469 380.51 188.319 382.88 187.229 384.13C186.617 384.854 185.849 385.431 184.984 385.819C184.118 386.207 183.177 386.395 182.229 386.37C181.188 386.345 180.154 386.194 179.149 385.92V382.05C179.962 382.266 180.798 382.383 181.639 382.4C182.092 382.422 182.544 382.337 182.958 382.151C183.371 381.965 183.735 381.684 184.019 381.33C184.934 379.881 185.654 378.318 186.159 376.68H184.619L175.129 350.85H180.289L187.599 372.85L194.899 350.85H199.659Z" fill="white"/>
<path d="M265.25 340.96H256.25V376.8H265.25V340.96Z" fill="white"/>
<path d="M338.192 351.23C335.859 349.964 333.245 349.307 330.592 349.32C324.732 349.32 320.672 353.39 320.672 358.88C320.672 364.2 324.562 368.45 330.592 368.45C333.245 368.461 335.859 367.805 338.192 366.54V376.17C335.517 376.987 332.738 377.414 329.942 377.44C319.772 377.44 310.852 370.44 310.852 358.88C310.852 348.17 318.932 340.32 329.942 340.32C332.741 340.33 335.523 340.765 338.192 341.61V351.23Z" fill="white"/>
<path d="M243.77 351.23C241.439 349.961 238.824 349.304 236.17 349.32C230.31 349.32 226.26 353.39 226.26 358.88C226.26 364.2 230.14 368.45 236.17 368.45C238.823 368.461 241.437 367.805 243.77 366.54V376.17C241.095 376.988 238.316 377.415 235.52 377.44C225.35 377.44 216.43 370.44 216.43 358.88C216.43 348.17 224.51 340.32 235.52 340.32C238.319 340.328 241.101 340.763 243.77 341.61V351.23Z" fill="white"/>
<path d="M366.641 349.45C364.773 349.436 362.943 349.977 361.383 351.005C359.823 352.033 358.603 353.501 357.879 355.222C357.155 356.944 356.958 358.842 357.314 360.676C357.67 362.51 358.562 364.197 359.878 365.523C361.194 366.849 362.874 367.754 364.705 368.123C366.536 368.493 368.436 368.31 370.163 367.599C371.89 366.887 373.367 365.678 374.407 364.126C375.446 362.574 376.001 360.748 376.001 358.88C376.024 357.641 375.798 356.41 375.336 355.261C374.875 354.111 374.187 353.065 373.315 352.186C372.442 351.307 371.401 350.611 370.255 350.141C369.109 349.671 367.88 349.436 366.641 349.45ZM385.581 358.88C385.581 369.13 377.671 377.44 366.641 377.44C355.611 377.44 347.711 369.13 347.711 358.88C347.711 348.63 355.621 340.32 366.641 340.32C377.661 340.32 385.581 348.64 385.581 358.88Z" fill="white"/>
<path d="M299.55 349.11C297.245 348.465 294.872 348.096 292.48 348.01C288.86 348.01 286.89 349.23 286.89 350.95C286.89 353.13 289.55 353.89 291.03 354.36L293.53 355.16C299.4 357.03 302.07 361.05 302.07 365.41C302.07 374.41 294.16 377.41 287.23 377.41C283.953 377.376 280.686 377.041 277.47 376.41V368.16C280.248 368.969 283.118 369.42 286.01 369.5C290.51 369.5 292.58 368.18 292.58 366.15C292.58 364.33 290.79 363.29 288.58 362.58L286.65 361.96C281.65 360.36 277.41 357.4 277.41 351.47C277.41 344.76 282.41 340.26 290.77 340.26C293.741 340.301 296.697 340.684 299.58 341.4L299.55 349.11Z" fill="white"/>
<path d="M212.08 68.9202C214.176 76.2862 217.031 83.4145 220.6 90.1901C222.23 93.1901 223.85 96.1901 226.82 98.0801C227.33 98.4005 227.892 98.6306 228.48 98.7601C232.85 99.6901 235.23 96.1802 236.78 92.9702C239.07 87.9302 240.926 82.7047 242.33 77.3502C242.6 76.3502 242.86 75.3502 243.12 74.3502C243.62 72.4402 244.12 70.5101 244.54 68.5801L263.79 17.1801C267.785 11.858 272.965 7.53932 278.918 4.56605C284.872 1.59278 291.436 0.0466879 298.09 0.0501814C307.676 -0.0112286 316.996 3.19883 324.51 9.15016C337.1 18.6602 344.58 37.4202 344.58 37.4202C345.681 39.8583 346.244 42.505 346.23 45.1801C346.221 49.0496 345.021 52.8225 342.795 55.9871C340.568 59.1517 337.422 61.5548 333.783 62.8704C330.144 64.1861 326.188 64.3505 322.453 63.3416C318.717 62.3326 315.382 60.199 312.9 57.2302L312.72 57.0101C311.518 55.3731 310.511 53.6011 309.72 51.7302C308.682 49.3789 307.524 47.0825 306.25 44.8502C305.57 43.7002 304.81 42.6102 304.02 41.5302C303.349 40.5624 302.552 39.6881 301.65 38.9301C299.88 37.5001 297.65 36.9302 295.58 38.1602L295.28 38.3502C293.14 39.8202 291.65 42.7901 290.6 45.0701C287.65 51.5301 285.88 58.1501 284.19 64.9501C283.86 66.2601 283.55 67.5701 283.19 68.8901L275.25 94.8901L264.04 119.61C260.024 124.789 254.887 128.989 249.013 131.896C243.14 134.802 236.683 136.339 230.13 136.39C202.91 136.97 189.98 112.39 189.98 112.39C174.47 86.9501 169.9 53.3902 168.81 42.6602C168.59 40.4302 168.57 39.1002 168.57 39.1002C168.577 35.7385 169.501 32.4424 171.242 29.5667C172.982 26.6909 175.475 24.3446 178.45 22.7802C181.528 21.221 184.953 20.4741 188.4 20.6102C191.604 20.7476 194.721 21.6937 197.46 23.3602C199.585 24.6341 201.421 26.337 202.85 28.3602C205.42 32.0002 205.99 36.5302 206.51 40.8602C207.571 50.354 209.435 59.7409 212.08 68.9202V68.9202Z" fill="#F7F7F7"/>
<path d="M212.08 68.9202C214.176 76.2862 217.031 83.4145 220.6 90.1901C222.23 93.1901 223.85 96.1901 226.82 98.0801C227.33 98.4005 227.892 98.6306 228.48 98.7601C232.85 99.6901 235.23 96.1802 236.78 92.9702C239.07 87.9302 240.926 82.7047 242.33 77.3502C242.6 76.3502 242.86 75.3502 243.12 74.3502C243.62 72.4402 244.12 70.5101 244.54 68.5801L263.79 17.1801C267.785 11.858 272.965 7.53932 278.918 4.56605C284.872 1.59278 291.436 0.0466879 298.09 0.0501814C307.676 -0.0112286 316.996 3.19883 324.51 9.15016C337.1 18.6602 344.58 37.4202 344.58 37.4202C345.681 39.8583 346.244 42.505 346.23 45.1801C346.221 49.0496 345.021 52.8225 342.795 55.9871C340.568 59.1517 337.422 61.5548 333.783 62.8704C330.144 64.1861 326.188 64.3505 322.453 63.3416C318.717 62.3326 315.382 60.199 312.9 57.2302L312.72 57.0101C311.518 55.3731 310.511 53.6011 309.72 51.7302C308.682 49.3789 307.524 47.0825 306.25 44.8502C305.57 43.7002 304.81 42.6102 304.02 41.5302C303.349 40.5624 302.552 39.6881 301.65 38.9301C299.88 37.5001 297.65 36.9302 295.58 38.1602L295.28 38.3502C293.14 39.8202 291.65 42.7901 290.6 45.0701C287.65 51.5301 285.88 58.1501 284.19 64.9501C283.86 66.2601 283.55 67.5701 283.19 68.8901L275.25 94.8901L264.04 119.61C260.024 124.789 254.887 128.989 249.013 131.896C243.14 134.802 236.683 136.339 230.13 136.39C202.91 136.97 189.98 112.39 189.98 112.39C174.47 86.9501 169.9 53.3902 168.81 42.6602C168.59 40.4302 168.57 39.1002 168.57 39.1002C168.577 35.7385 169.501 32.4424 171.242 29.5667C172.982 26.6909 175.475 24.3446 178.45 22.7802C181.528 21.221 184.953 20.4741 188.4 20.6102C191.604 20.7476 194.721 21.6937 197.46 23.3602C199.585 24.6341 201.421 26.337 202.85 28.3602C205.42 32.0002 205.99 36.5302 206.51 40.8602C207.571 50.354 209.435 59.7409 212.08 68.9202V68.9202Z" fill="url(#paint0_radial)"/>
<path d="M212.08 68.9202C214.176 76.2862 217.031 83.4145 220.6 90.1901C222.23 93.1901 223.85 96.1901 226.82 98.0801C227.33 98.4005 227.892 98.6306 228.48 98.7601C232.85 99.6901 235.23 96.1802 236.78 92.9702C239.07 87.9302 240.926 82.7047 242.33 77.3502C242.6 76.3502 242.86 75.3502 243.12 74.3502C243.62 72.4402 244.12 70.5101 244.54 68.5801L263.79 17.1801C267.785 11.858 272.965 7.53932 278.918 4.56605C284.872 1.59278 291.436 0.0466879 298.09 0.0501814C307.676 -0.0112286 316.996 3.19883 324.51 9.15016C337.1 18.6602 344.58 37.4202 344.58 37.4202C345.681 39.8583 346.244 42.505 346.23 45.1801C346.221 49.0496 345.021 52.8225 342.795 55.9871C340.568 59.1517 337.422 61.5548 333.783 62.8704C330.144 64.1861 326.188 64.3505 322.453 63.3416C318.717 62.3326 315.382 60.199 312.9 57.2302L312.72 57.0101C311.518 55.3731 310.511 53.6011 309.72 51.7302C308.682 49.3789 307.524 47.0825 306.25 44.8502C305.57 43.7002 304.81 42.6102 304.02 41.5302C303.349 40.5624 302.552 39.6881 301.65 38.9301C299.88 37.5001 297.65 36.9302 295.58 38.1602L295.28 38.3502C293.14 39.8202 291.65 42.7901 290.6 45.0701C287.65 51.5301 285.88 58.1501 284.19 64.9501C283.86 66.2601 283.55 67.5701 283.19 68.8901L275.25 94.8901L264.04 119.61C260.024 124.789 254.887 128.989 249.013 131.896C243.14 134.802 236.683 136.339 230.13 136.39C202.91 136.97 189.98 112.39 189.98 112.39C174.47 86.9501 169.9 53.3902 168.81 42.6602C168.59 40.4302 168.57 39.1002 168.57 39.1002C168.577 35.7385 169.501 32.4424 171.242 29.5667C172.982 26.6909 175.475 24.3446 178.45 22.7802C181.528 21.221 184.953 20.4741 188.4 20.6102C191.604 20.7476 194.721 21.6937 197.46 23.3602C199.585 24.6341 201.421 26.337 202.85 28.3602C205.42 32.0002 205.99 36.5302 206.51 40.8602C207.571 50.354 209.435 59.7409 212.08 68.9202V68.9202Z" fill="url(#paint1_radial)"/>
<path d="M212.08 68.9202C214.176 76.2862 217.031 83.4145 220.6 90.1901C222.23 93.1901 223.85 96.1901 226.82 98.0801C227.33 98.4005 227.892 98.6306 228.48 98.7601C232.85 99.6901 235.23 96.1802 236.78 92.9702C239.07 87.9302 240.926 82.7047 242.33 77.3502C242.6 76.3502 242.86 75.3502 243.12 74.3502C243.62 72.4402 244.12 70.5101 244.54 68.5801L263.79 17.1801C267.785 11.858 272.965 7.53932 278.918 4.56605C284.872 1.59278 291.436 0.0466879 298.09 0.0501814C307.676 -0.0112286 316.996 3.19883 324.51 9.15016C337.1 18.6602 344.58 37.4202 344.58 37.4202C345.681 39.8583 346.244 42.505 346.23 45.1801C346.221 49.0496 345.021 52.8225 342.795 55.9871C340.568 59.1517 337.422 61.5548 333.783 62.8704C330.144 64.1861 326.188 64.3505 322.453 63.3416C318.717 62.3326 315.382 60.199 312.9 57.2302L312.72 57.0101C311.518 55.3731 310.511 53.6011 309.72 51.7302C308.682 49.3789 307.524 47.0825 306.25 44.8502C305.57 43.7002 304.81 42.6102 304.02 41.5302C303.349 40.5624 302.552 39.6881 301.65 38.9301C299.88 37.5001 297.65 36.9302 295.58 38.1602L295.28 38.3502C293.14 39.8202 291.65 42.7901 290.6 45.0701C287.65 51.5301 285.88 58.1501 284.19 64.9501C283.86 66.2601 283.55 67.5701 283.19 68.8901L275.25 94.8901L264.04 119.61C260.024 124.789 254.887 128.989 249.013 131.896C243.14 134.802 236.683 136.339 230.13 136.39C202.91 136.97 189.98 112.39 189.98 112.39C174.47 86.9501 169.9 53.3902 168.81 42.6602C168.59 40.4302 168.57 39.1002 168.57 39.1002C168.577 35.7385 169.501 32.4424 171.242 29.5667C172.982 26.6909 175.475 24.3446 178.45 22.7802C181.528 21.221 184.953 20.4741 188.4 20.6102C191.604 20.7476 194.721 21.6937 197.46 23.3602C199.585 24.6341 201.421 26.337 202.85 28.3602C205.42 32.0002 205.99 36.5302 206.51 40.8602C207.571 50.354 209.435 59.7409 212.08 68.9202V68.9202Z" fill="url(#paint2_radial)"/>
<path d="M212.08 68.9202C214.176 76.2862 217.031 83.4145 220.6 90.1901C222.23 93.1901 223.85 96.1901 226.82 98.0801C227.33 98.4005 227.892 98.6306 228.48 98.7601C232.85 99.6901 235.23 96.1802 236.78 92.9702C239.07 87.9302 240.926 82.7047 242.33 77.3502C242.6 76.3502 242.86 75.3502 243.12 74.3502C243.62 72.4402 244.12 70.5101 244.54 68.5801L263.79 17.1801C267.785 11.858 272.965 7.53932 278.918 4.56605C284.872 1.59278 291.436 0.0466879 298.09 0.0501814C307.676 -0.0112286 316.996 3.19883 324.51 9.15016C337.1 18.6602 344.58 37.4202 344.58 37.4202C345.681 39.8583 346.244 42.505 346.23 45.1801C346.221 49.0496 345.021 52.8225 342.795 55.9871C340.568 59.1517 337.422 61.5548 333.783 62.8704C330.144 64.1861 326.188 64.3505 322.453 63.3416C318.717 62.3326 315.382 60.199 312.9 57.2302L312.72 57.0101C311.518 55.3731 310.511 53.6011 309.72 51.7302C308.682 49.3789 307.524 47.0825 306.25 44.8502C305.57 43.7002 304.81 42.6102 304.02 41.5302C303.349 40.5624 302.552 39.6881 301.65 38.9301C299.88 37.5001 297.65 36.9302 295.58 38.1602L295.28 38.3502C293.14 39.8202 291.65 42.7901 290.6 45.0701C287.65 51.5301 285.88 58.1501 284.19 64.9501C283.86 66.2601 283.55 67.5701 283.19 68.8901L275.25 94.8901L264.04 119.61C260.024 124.789 254.887 128.989 249.013 131.896C243.14 134.802 236.683 136.339 230.13 136.39C202.91 136.97 189.98 112.39 189.98 112.39C174.47 86.9501 169.9 53.3902 168.81 42.6602C168.59 40.4302 168.57 39.1002 168.57 39.1002C168.577 35.7385 169.501 32.4424 171.242 29.5667C172.982 26.6909 175.475 24.3446 178.45 22.7802C181.528 21.221 184.953 20.4741 188.4 20.6102C191.604 20.7476 194.721 21.6937 197.46 23.3602C199.585 24.6341 201.421 26.337 202.85 28.3602C205.42 32.0002 205.99 36.5302 206.51 40.8602C207.571 50.354 209.435 59.7409 212.08 68.9202V68.9202Z" fill="url(#paint3_radial)"/>
<path d="M212.08 68.9202C214.176 76.2862 217.031 83.4145 220.6 90.1901C222.23 93.1901 223.85 96.1901 226.82 98.0801C227.33 98.4005 227.892 98.6306 228.48 98.7601C232.85 99.6901 235.23 96.1802 236.78 92.9702C239.07 87.9302 240.926 82.7047 242.33 77.3502C242.6 76.3502 242.86 75.3502 243.12 74.3502C243.62 72.4402 244.12 70.5101 244.54 68.5801L263.79 17.1801C267.785 11.858 272.965 7.53932 278.918 4.56605C284.872 1.59278 291.436 0.0466879 298.09 0.0501814C307.676 -0.0112286 316.996 3.19883 324.51 9.15016C337.1 18.6602 344.58 37.4202 344.58 37.4202C345.681 39.8583 346.244 42.505 346.23 45.1801C346.221 49.0496 345.021 52.8225 342.795 55.9871C340.568 59.1517 337.422 61.5548 333.783 62.8704C330.144 64.1861 326.188 64.3505 322.453 63.3416C318.717 62.3326 315.382 60.199 312.9 57.2302L312.72 57.0101C311.518 55.3731 310.511 53.6011 309.72 51.7302C308.682 49.3789 307.524 47.0825 306.25 44.8502C305.57 43.7002 304.81 42.6102 304.02 41.5302C303.349 40.5624 302.552 39.6881 301.65 38.9301C299.88 37.5001 297.65 36.9302 295.58 38.1602L295.28 38.3502C293.14 39.8202 291.65 42.7901 290.6 45.0701C287.65 51.5301 285.88 58.1501 284.19 64.9501C283.86 66.2601 283.55 67.5701 283.19 68.8901L275.25 94.8901L264.04 119.61C260.024 124.789 254.887 128.989 249.013 131.896C243.14 134.802 236.683 136.339 230.13 136.39C202.91 136.97 189.98 112.39 189.98 112.39C174.47 86.9501 169.9 53.3902 168.81 42.6602C168.59 40.4302 168.57 39.1002 168.57 39.1002C168.577 35.7385 169.501 32.4424 171.242 29.5667C172.982 26.6909 175.475 24.3446 178.45 22.7802C181.528 21.221 184.953 20.4741 188.4 20.6102C191.604 20.7476 194.721 21.6937 197.46 23.3602C199.585 24.6341 201.421 26.337 202.85 28.3602C205.42 32.0002 205.99 36.5302 206.51 40.8602C207.571 50.354 209.435 59.7409 212.08 68.9202V68.9202Z" fill="url(#paint4_radial)"/>
<path d="M212.08 68.9202C214.176 76.2862 217.031 83.4145 220.6 90.1901C222.23 93.1901 223.85 96.1901 226.82 98.0801C227.33 98.4005 227.892 98.6306 228.48 98.7601C232.85 99.6901 235.23 96.1802 236.78 92.9702C239.07 87.9302 240.926 82.7047 242.33 77.3502C242.6 76.3502 242.86 75.3502 243.12 74.3502C243.62 72.4402 244.12 70.5101 244.54 68.5801L263.79 17.1801C267.785 11.858 272.965 7.53932 278.918 4.56605C284.872 1.59278 291.436 0.0466879 298.09 0.0501814C307.676 -0.0112286 316.996 3.19883 324.51 9.15016C337.1 18.6602 344.58 37.4202 344.58 37.4202C345.681 39.8583 346.244 42.505 346.23 45.1801C346.221 49.0496 345.021 52.8225 342.795 55.9871C340.568 59.1517 337.422 61.5548 333.783 62.8704C330.144 64.1861 326.188 64.3505 322.453 63.3416C318.717 62.3326 315.382 60.199 312.9 57.2302L312.72 57.0101C311.518 55.3731 310.511 53.6011 309.72 51.7302C308.682 49.3789 307.524 47.0825 306.25 44.8502C305.57 43.7002 304.81 42.6102 304.02 41.5302C303.349 40.5624 302.552 39.6881 301.65 38.9301C299.88 37.5001 297.65 36.9302 295.58 38.1602L295.28 38.3502C293.14 39.8202 291.65 42.7901 290.6 45.0701C287.65 51.5301 285.88 58.1501 284.19 64.9501C283.86 66.2601 283.55 67.5701 283.19 68.8901L275.25 94.8901L264.04 119.61C260.024 124.789 254.887 128.989 249.013 131.896C243.14 134.802 236.683 136.339 230.13 136.39C202.91 136.97 189.98 112.39 189.98 112.39C174.47 86.9501 169.9 53.3902 168.81 42.6602C168.59 40.4302 168.57 39.1002 168.57 39.1002C168.577 35.7385 169.501 32.4424 171.242 29.5667C172.982 26.6909 175.475 24.3446 178.45 22.7802C181.528 21.221 184.953 20.4741 188.4 20.6102C191.604 20.7476 194.721 21.6937 197.46 23.3602C199.585 24.6341 201.421 26.337 202.85 28.3602C205.42 32.0002 205.99 36.5302 206.51 40.8602C207.571 50.354 209.435 59.7409 212.08 68.9202V68.9202Z" fill="url(#paint5_radial)"/>
<path d="M212.08 68.9202C214.176 76.2862 217.031 83.4145 220.6 90.1901C222.23 93.1901 223.85 96.1901 226.82 98.0801C227.33 98.4005 227.892 98.6306 228.48 98.7601C232.85 99.6901 235.23 96.1802 236.78 92.9702C239.07 87.9302 240.926 82.7047 242.33 77.3502C242.6 76.3502 242.86 75.3502 243.12 74.3502C243.62 72.4402 244.12 70.5101 244.54 68.5801L263.79 17.1801C267.785 11.858 272.965 7.53932 278.918 4.56605C284.872 1.59278 291.436 0.0466879 298.09 0.0501814C307.676 -0.0112286 316.996 3.19883 324.51 9.15016C337.1 18.6602 344.58 37.4202 344.58 37.4202C345.681 39.8583 346.244 42.505 346.23 45.1801C346.221 49.0496 345.021 52.8225 342.795 55.9871C340.568 59.1517 337.422 61.5548 333.783 62.8704C330.144 64.1861 326.188 64.3505 322.453 63.3416C318.717 62.3326 315.382 60.199 312.9 57.2302L312.72 57.0101C311.518 55.3731 310.511 53.6011 309.72 51.7302C308.682 49.3789 307.524 47.0825 306.25 44.8502C305.57 43.7002 304.81 42.6102 304.02 41.5302C303.349 40.5624 302.552 39.6881 301.65 38.9301C299.88 37.5001 297.65 36.9302 295.58 38.1602L295.28 38.3502C293.14 39.8202 291.65 42.7901 290.6 45.0701C287.65 51.5301 285.88 58.1501 284.19 64.9501C283.86 66.2601 283.55 67.5701 283.19 68.8901L275.25 94.8901L264.04 119.61C260.024 124.789 254.887 128.989 249.013 131.896C243.14 134.802 236.683 136.339 230.13 136.39C202.91 136.97 189.98 112.39 189.98 112.39C174.47 86.9501 169.9 53.3902 168.81 42.6602C168.59 40.4302 168.57 39.1002 168.57 39.1002C168.577 35.7385 169.501 32.4424 171.242 29.5667C172.982 26.6909 175.475 24.3446 178.45 22.7802C181.528 21.221 184.953 20.4741 188.4 20.6102C191.604 20.7476 194.721 21.6937 197.46 23.3602C199.585 24.6341 201.421 26.337 202.85 28.3602C205.42 32.0002 205.99 36.5302 206.51 40.8602C207.571 50.354 209.435 59.7409 212.08 68.9202V68.9202Z" fill="url(#paint6_radial)"/>
<path d="M212.08 68.9202C214.176 76.2862 217.031 83.4145 220.6 90.1901C222.23 93.1901 223.85 96.1901 226.82 98.0801C227.33 98.4005 227.892 98.6306 228.48 98.7601C232.85 99.6901 235.23 96.1802 236.78 92.9702C239.07 87.9302 240.926 82.7047 242.33 77.3502C242.6 76.3502 242.86 75.3502 243.12 74.3502C243.62 72.4402 244.12 70.5101 244.54 68.5801L263.79 17.1801C267.785 11.858 272.965 7.53932 278.918 4.56605C284.872 1.59278 291.436 0.0466879 298.09 0.0501814C307.676 -0.0112286 316.996 3.19883 324.51 9.15016C337.1 18.6602 344.58 37.4202 344.58 37.4202C345.681 39.8583 346.244 42.505 346.23 45.1801C346.221 49.0496 345.021 52.8225 342.795 55.9871C340.568 59.1517 337.422 61.5548 333.783 62.8704C330.144 64.1861 326.188 64.3505 322.453 63.3416C318.717 62.3326 315.382 60.199 312.9 57.2302L312.72 57.0101C311.518 55.3731 310.511 53.6011 309.72 51.7302C308.682 49.3789 307.524 47.0825 306.25 44.8502C305.57 43.7002 304.81 42.6102 304.02 41.5302C303.349 40.5624 302.552 39.6881 301.65 38.9301C299.88 37.5001 297.65 36.9302 295.58 38.1602L295.28 38.3502C293.14 39.8202 291.65 42.7901 290.6 45.0701C287.65 51.5301 285.88 58.1501 284.19 64.9501C283.86 66.2601 283.55 67.5701 283.19 68.8901L275.25 94.8901L264.04 119.61C260.024 124.789 254.887 128.989 249.013 131.896C243.14 134.802 236.683 136.339 230.13 136.39C202.91 136.97 189.98 112.39 189.98 112.39C174.47 86.9501 169.9 53.3902 168.81 42.6602C168.59 40.4302 168.57 39.1002 168.57 39.1002C168.577 35.7385 169.501 32.4424 171.242 29.5667C172.982 26.6909 175.475 24.3446 178.45 22.7802C181.528 21.221 184.953 20.4741 188.4 20.6102C191.604 20.7476 194.721 21.6937 197.46 23.3602C199.585 24.6341 201.421 26.337 202.85 28.3602C205.42 32.0002 205.99 36.5302 206.51 40.8602C207.571 50.354 209.435 59.7409 212.08 68.9202V68.9202Z" fill="url(#paint7_radial)"/>
<path d="M212.08 68.9202C214.176 76.2862 217.031 83.4145 220.6 90.1901C222.23 93.1901 223.85 96.1901 226.82 98.0801C227.33 98.4005 227.892 98.6306 228.48 98.7601C232.85 99.6901 235.23 96.1802 236.78 92.9702C239.07 87.9302 240.926 82.7047 242.33 77.3502C242.6 76.3502 242.86 75.3502 243.12 74.3502C243.62 72.4402 244.12 70.5101 244.54 68.5801L263.79 17.1801C267.785 11.858 272.965 7.53932 278.918 4.56605C284.872 1.59278 291.436 0.0466879 298.09 0.0501814C307.676 -0.0112286 316.996 3.19883 324.51 9.15016C337.1 18.6602 344.58 37.4202 344.58 37.4202C345.681 39.8583 346.244 42.505 346.23 45.1801C346.221 49.0496 345.021 52.8225 342.795 55.9871C340.568 59.1517 337.422 61.5548 333.783 62.8704C330.144 64.1861 326.188 64.3505 322.453 63.3416C318.717 62.3326 315.382 60.199 312.9 57.2302L312.72 57.0101C311.518 55.3731 310.511 53.6011 309.72 51.7302C308.682 49.3789 307.524 47.0825 306.25 44.8502C305.57 43.7002 304.81 42.6102 304.02 41.5302C303.349 40.5624 302.552 39.6881 301.65 38.9301C299.88 37.5001 297.65 36.9302 295.58 38.1602L295.28 38.3502C293.14 39.8202 291.65 42.7901 290.6 45.0701C287.65 51.5301 285.88 58.1501 284.19 64.9501C283.86 66.2601 283.55 67.5701 283.19 68.8901L275.25 94.8901L264.04 119.61C260.024 124.789 254.887 128.989 249.013 131.896C243.14 134.802 236.683 136.339 230.13 136.39C202.91 136.97 189.98 112.39 189.98 112.39C174.47 86.9501 169.9 53.3902 168.81 42.6602C168.59 40.4302 168.57 39.1002 168.57 39.1002C168.577 35.7385 169.501 32.4424 171.242 29.5667C172.982 26.6909 175.475 24.3446 178.45 22.7802C181.528 21.221 184.953 20.4741 188.4 20.6102C191.604 20.7476 194.721 21.6937 197.46 23.3602C199.585 24.6341 201.421 26.337 202.85 28.3602C205.42 32.0002 205.99 36.5302 206.51 40.8602C207.571 50.354 209.435 59.7409 212.08 68.9202V68.9202Z" fill="url(#paint8_radial)"/>
<path d="M212.08 68.9202C214.176 76.2862 217.031 83.4145 220.6 90.1901C222.23 93.1901 223.85 96.1901 226.82 98.0801C227.33 98.4005 227.892 98.6306 228.48 98.7601C232.85 99.6901 235.23 96.1802 236.78 92.9702C239.07 87.9302 240.926 82.7047 242.33 77.3502C242.6 76.3502 242.86 75.3502 243.12 74.3502C243.62 72.4402 244.12 70.5101 244.54 68.5801L263.79 17.1801C267.785 11.858 272.965 7.53932 278.918 4.56605C284.872 1.59278 291.436 0.0466879 298.09 0.0501814C307.676 -0.0112286 316.996 3.19883 324.51 9.15016C337.1 18.6602 344.58 37.4202 344.58 37.4202C345.681 39.8583 346.244 42.505 346.23 45.1801C346.221 49.0496 345.021 52.8225 342.795 55.9871C340.568 59.1517 337.422 61.5548 333.783 62.8704C330.144 64.1861 326.188 64.3505 322.453 63.3416C318.717 62.3326 315.382 60.199 312.9 57.2302L312.72 57.0101C311.518 55.3731 310.511 53.6011 309.72 51.7302C308.682 49.3789 307.524 47.0825 306.25 44.8502C305.57 43.7002 304.81 42.6102 304.02 41.5302C303.349 40.5624 302.552 39.6881 301.65 38.9301C299.88 37.5001 297.65 36.9302 295.58 38.1602L295.28 38.3502C293.14 39.8202 291.65 42.7901 290.6 45.0701C287.65 51.5301 285.88 58.1501 284.19 64.9501C283.86 66.2601 283.55 67.5701 283.19 68.8901L275.25 94.8901L264.04 119.61C260.024 124.789 254.887 128.989 249.013 131.896C243.14 134.802 236.683 136.339 230.13 136.39C202.91 136.97 189.98 112.39 189.98 112.39C174.47 86.9501 169.9 53.3902 168.81 42.6602C168.59 40.4302 168.57 39.1002 168.57 39.1002C168.577 35.7385 169.501 32.4424 171.242 29.5667C172.982 26.6909 175.475 24.3446 178.45 22.7802C181.528 21.221 184.953 20.4741 188.4 20.6102C191.604 20.7476 194.721 21.6937 197.46 23.3602C199.585 24.6341 201.421 26.337 202.85 28.3602C205.42 32.0002 205.99 36.5302 206.51 40.8602C207.571 50.354 209.435 59.7409 212.08 68.9202V68.9202Z" fill="url(#paint9_radial)"/>
<path d="M212.08 68.9202C214.176 76.2862 217.031 83.4145 220.6 90.1901C222.23 93.1901 223.85 96.1901 226.82 98.0801C227.33 98.4005 227.892 98.6306 228.48 98.7601C232.85 99.6901 235.23 96.1802 236.78 92.9702C239.07 87.9302 240.926 82.7047 242.33 77.3502C242.6 76.3502 242.86 75.3502 243.12 74.3502C243.62 72.4402 244.12 70.5101 244.54 68.5801L263.79 17.1801C267.785 11.858 272.965 7.53932 278.918 4.56605C284.872 1.59278 291.436 0.0466879 298.09 0.0501814C307.676 -0.0112286 316.996 3.19883 324.51 9.15016C337.1 18.6602 344.58 37.4202 344.58 37.4202C345.681 39.8583 346.244 42.505 346.23 45.1801C346.221 49.0496 345.021 52.8225 342.795 55.9871C340.568 59.1517 337.422 61.5548 333.783 62.8704C330.144 64.1861 326.188 64.3505 322.453 63.3416C318.717 62.3326 315.382 60.199 312.9 57.2302L312.72 57.0101C311.518 55.3731 310.511 53.6011 309.72 51.7302C308.682 49.3789 307.524 47.0825 306.25 44.8502C305.57 43.7002 304.81 42.6102 304.02 41.5302C303.349 40.5624 302.552 39.6881 301.65 38.9301C299.88 37.5001 297.65 36.9302 295.58 38.1602L295.28 38.3502C293.14 39.8202 291.65 42.7901 290.6 45.0701C287.65 51.5301 285.88 58.1501 284.19 64.9501C283.86 66.2601 283.55 67.5701 283.19 68.8901L275.25 94.8901L264.04 119.61C260.024 124.789 254.887 128.989 249.013 131.896C243.14 134.802 236.683 136.339 230.13 136.39C202.91 136.97 189.98 112.39 189.98 112.39C174.47 86.9501 169.9 53.3902 168.81 42.6602C168.59 40.4302 168.57 39.1002 168.57 39.1002C168.577 35.7385 169.501 32.4424 171.242 29.5667C172.982 26.6909 175.475 24.3446 178.45 22.7802C181.528 21.221 184.953 20.4741 188.4 20.6102C191.604 20.7476 194.721 21.6937 197.46 23.3602C199.585 24.6341 201.421 26.337 202.85 28.3602C205.42 32.0002 205.99 36.5302 206.51 40.8602C207.571 50.354 209.435 59.7409 212.08 68.9202V68.9202Z" fill="url(#paint10_radial)"/>
<path d="M212.08 68.9202C214.176 76.2862 217.031 83.4145 220.6 90.1901C222.23 93.1901 223.85 96.1901 226.82 98.0801C227.33 98.4005 227.892 98.6306 228.48 98.7601C232.85 99.6901 235.23 96.1802 236.78 92.9702C239.07 87.9302 240.926 82.7047 242.33 77.3502C242.6 76.3502 242.86 75.3502 243.12 74.3502C243.62 72.4402 244.12 70.5101 244.54 68.5801L263.79 17.1801C267.785 11.858 272.965 7.53932 278.918 4.56605C284.872 1.59278 291.436 0.0466879 298.09 0.0501814C307.676 -0.0112286 316.996 3.19883 324.51 9.15016C337.1 18.6602 344.58 37.4202 344.58 37.4202C345.681 39.8583 346.244 42.505 346.23 45.1801C346.221 49.0496 345.021 52.8225 342.795 55.9871C340.568 59.1517 337.422 61.5548 333.783 62.8704C330.144 64.1861 326.188 64.3505 322.453 63.3416C318.717 62.3326 315.382 60.199 312.9 57.2302L312.72 57.0101C311.518 55.3731 310.511 53.6011 309.72 51.7302C308.682 49.3789 307.524 47.0825 306.25 44.8502C305.57 43.7002 304.81 42.6102 304.02 41.5302C303.349 40.5624 302.552 39.6881 301.65 38.9301C299.88 37.5001 297.65 36.9302 295.58 38.1602L295.28 38.3502C293.14 39.8202 291.65 42.7901 290.6 45.0701C287.65 51.5301 285.88 58.1501 284.19 64.9501C283.86 66.2601 283.55 67.5701 283.19 68.8901L275.25 94.8901L264.04 119.61C260.024 124.789 254.887 128.989 249.013 131.896C243.14 134.802 236.683 136.339 230.13 136.39C202.91 136.97 189.98 112.39 189.98 112.39C174.47 86.9501 169.9 53.3902 168.81 42.6602C168.59 40.4302 168.57 39.1002 168.57 39.1002C168.577 35.7385 169.501 32.4424 171.242 29.5667C172.982 26.6909 175.475 24.3446 178.45 22.7802C181.528 21.221 184.953 20.4741 188.4 20.6102C191.604 20.7476 194.721 21.6937 197.46 23.3602C199.585 24.6341 201.421 26.337 202.85 28.3602C205.42 32.0002 205.99 36.5302 206.51 40.8602C207.571 50.354 209.435 59.7409 212.08 68.9202V68.9202Z" fill="url(#paint11_radial)"/>
<path d="M212.08 68.9202C214.176 76.2862 217.031 83.4145 220.6 90.1901C222.23 93.1901 223.85 96.1901 226.82 98.0801C227.33 98.4005 227.892 98.6306 228.48 98.7601C232.85 99.6901 235.23 96.1802 236.78 92.9702C239.07 87.9302 240.926 82.7047 242.33 77.3502C242.6 76.3502 242.86 75.3502 243.12 74.3502C243.62 72.4402 244.12 70.5101 244.54 68.5801L263.79 17.1801C267.785 11.858 272.965 7.53932 278.918 4.56605C284.872 1.59278 291.436 0.0466879 298.09 0.0501814C307.676 -0.0112286 316.996 3.19883 324.51 9.15016C337.1 18.6602 344.58 37.4202 344.58 37.4202C345.681 39.8583 346.244 42.505 346.23 45.1801C346.221 49.0496 345.021 52.8225 342.795 55.9871C340.568 59.1517 337.422 61.5548 333.783 62.8704C330.144 64.1861 326.188 64.3505 322.453 63.3416C318.717 62.3326 315.382 60.199 312.9 57.2302L312.72 57.0101C311.518 55.3731 310.511 53.6011 309.72 51.7302C308.682 49.3789 307.524 47.0825 306.25 44.8502C305.57 43.7002 304.81 42.6102 304.02 41.5302C303.349 40.5624 302.552 39.6881 301.65 38.9301C299.88 37.5001 297.65 36.9302 295.58 38.1602L295.28 38.3502C293.14 39.8202 291.65 42.7901 290.6 45.0701C287.65 51.5301 285.88 58.1501 284.19 64.9501C283.86 66.2601 283.55 67.5701 283.19 68.8901L275.25 94.8901L264.04 119.61C260.024 124.789 254.887 128.989 249.013 131.896C243.14 134.802 236.683 136.339 230.13 136.39C202.91 136.97 189.98 112.39 189.98 112.39C174.47 86.9501 169.9 53.3902 168.81 42.6602C168.59 40.4302 168.57 39.1002 168.57 39.1002C168.577 35.7385 169.501 32.4424 171.242 29.5667C172.982 26.6909 175.475 24.3446 178.45 22.7802C181.528 21.221 184.953 20.4741 188.4 20.6102C191.604 20.7476 194.721 21.6937 197.46 23.3602C199.585 24.6341 201.421 26.337 202.85 28.3602C205.42 32.0002 205.99 36.5302 206.51 40.8602C207.571 50.354 209.435 59.7409 212.08 68.9202V68.9202Z" fill="url(#paint12_radial)"/>
<path d="M212.08 68.9202C214.176 76.2862 217.031 83.4145 220.6 90.1901C222.23 93.1901 223.85 96.1901 226.82 98.0801C227.33 98.4005 227.892 98.6306 228.48 98.7601C232.85 99.6901 235.23 96.1802 236.78 92.9702C239.07 87.9302 240.926 82.7047 242.33 77.3502C242.6 76.3502 242.86 75.3502 243.12 74.3502C243.62 72.4402 244.12 70.5101 244.54 68.5801L263.79 17.1801C267.785 11.858 272.965 7.53932 278.918 4.56605C284.872 1.59278 291.436 0.0466879 298.09 0.0501814C307.676 -0.0112286 316.996 3.19883 324.51 9.15016C337.1 18.6602 344.58 37.4202 344.58 37.4202C345.681 39.8583 346.244 42.505 346.23 45.1801C346.221 49.0496 345.021 52.8225 342.795 55.9871C340.568 59.1517 337.422 61.5548 333.783 62.8704C330.144 64.1861 326.188 64.3505 322.453 63.3416C318.717 62.3326 315.382 60.199 312.9 57.2302L312.72 57.0101C311.518 55.3731 310.511 53.6011 309.72 51.7302C308.682 49.3789 307.524 47.0825 306.25 44.8502C305.57 43.7002 304.81 42.6102 304.02 41.5302C303.349 40.5624 302.552 39.6881 301.65 38.9301C299.88 37.5001 297.65 36.9302 295.58 38.1602L295.28 38.3502C293.14 39.8202 291.65 42.7901 290.6 45.0701C287.65 51.5301 285.88 58.1501 284.19 64.9501C283.86 66.2601 283.55 67.5701 283.19 68.8901L275.25 94.8901L264.04 119.61C260.024 124.789 254.887 128.989 249.013 131.896C243.14 134.802 236.683 136.339 230.13 136.39C202.91 136.97 189.98 112.39 189.98 112.39C174.47 86.9501 169.9 53.3902 168.81 42.6602C168.59 40.4302 168.57 39.1002 168.57 39.1002C168.577 35.7385 169.501 32.4424 171.242 29.5667C172.982 26.6909 175.475 24.3446 178.45 22.7802C181.528 21.221 184.953 20.4741 188.4 20.6102C191.604 20.7476 194.721 21.6937 197.46 23.3602C199.585 24.6341 201.421 26.337 202.85 28.3602C205.42 32.0002 205.99 36.5302 206.51 40.8602C207.571 50.354 209.435 59.7409 212.08 68.9202V68.9202Z" fill="url(#paint13_radial)"/>
<path d="M212.08 68.9202C214.176 76.2862 217.031 83.4145 220.6 90.1901C222.23 93.1901 223.85 96.1901 226.82 98.0801C227.33 98.4005 227.892 98.6306 228.48 98.7601C232.85 99.6901 235.23 96.1802 236.78 92.9702C239.07 87.9302 240.926 82.7047 242.33 77.3502C242.6 76.3502 242.86 75.3502 243.12 74.3502C243.62 72.4402 244.12 70.5101 244.54 68.5801L263.79 17.1801C267.785 11.858 272.965 7.53932 278.918 4.56605C284.872 1.59278 291.436 0.0466879 298.09 0.0501814C307.676 -0.0112286 316.996 3.19883 324.51 9.15016C337.1 18.6602 344.58 37.4202 344.58 37.4202C345.681 39.8583 346.244 42.505 346.23 45.1801C346.221 49.0496 345.021 52.8225 342.795 55.9871C340.568 59.1517 337.422 61.5548 333.783 62.8704C330.144 64.1861 326.188 64.3505 322.453 63.3416C318.717 62.3326 315.382 60.199 312.9 57.2302L312.72 57.0101C311.518 55.3731 310.511 53.6011 309.72 51.7302C308.682 49.3789 307.524 47.0825 306.25 44.8502C305.57 43.7002 304.81 42.6102 304.02 41.5302C303.349 40.5624 302.552 39.6881 301.65 38.9301C299.88 37.5001 297.65 36.9302 295.58 38.1602L295.28 38.3502C293.14 39.8202 291.65 42.7901 290.6 45.0701C287.65 51.5301 285.88 58.1501 284.19 64.9501C283.86 66.2601 283.55 67.5701 283.19 68.8901L275.25 94.8901L264.04 119.61C260.024 124.789 254.887 128.989 249.013 131.896C243.14 134.802 236.683 136.339 230.13 136.39C202.91 136.97 189.98 112.39 189.98 112.39C174.47 86.9501 169.9 53.3902 168.81 42.6602C168.59 40.4302 168.57 39.1002 168.57 39.1002C168.577 35.7385 169.501 32.4424 171.242 29.5667C172.982 26.6909 175.475 24.3446 178.45 22.7802C181.528 21.221 184.953 20.4741 188.4 20.6102C191.604 20.7476 194.721 21.6937 197.46 23.3602C199.585 24.6341 201.421 26.337 202.85 28.3602C205.42 32.0002 205.99 36.5302 206.51 40.8602C207.571 50.354 209.435 59.7409 212.08 68.9202V68.9202Z" fill="url(#paint14_radial)"/>
<path d="M212.08 68.9202C214.176 76.2862 217.031 83.4145 220.6 90.1901C222.23 93.1901 223.85 96.1901 226.82 98.0801C227.33 98.4005 227.892 98.6306 228.48 98.7601C232.85 99.6901 235.23 96.1802 236.78 92.9702C239.07 87.9302 240.926 82.7047 242.33 77.3502C242.6 76.3502 242.86 75.3502 243.12 74.3502C243.62 72.4402 244.12 70.5101 244.54 68.5801L263.79 17.1801C267.785 11.858 272.965 7.53932 278.918 4.56605C284.872 1.59278 291.436 0.0466879 298.09 0.0501814C307.676 -0.0112286 316.996 3.19883 324.51 9.15016C337.1 18.6602 344.58 37.4202 344.58 37.4202C345.681 39.8583 346.244 42.505 346.23 45.1801C346.221 49.0496 345.021 52.8225 342.795 55.9871C340.568 59.1517 337.422 61.5548 333.783 62.8704C330.144 64.1861 326.188 64.3505 322.453 63.3416C318.717 62.3326 315.382 60.199 312.9 57.2302L312.72 57.0101C311.518 55.3731 310.511 53.6011 309.72 51.7302C308.682 49.3789 307.524 47.0825 306.25 44.8502C305.57 43.7002 304.81 42.6102 304.02 41.5302C303.349 40.5624 302.552 39.6881 301.65 38.9301C299.88 37.5001 297.65 36.9302 295.58 38.1602L295.28 38.3502C293.14 39.8202 291.65 42.7901 290.6 45.0701C287.65 51.5301 285.88 58.1501 284.19 64.9501C283.86 66.2601 283.55 67.5701 283.19 68.8901L275.25 94.8901L264.04 119.61C260.024 124.789 254.887 128.989 249.013 131.896C243.14 134.802 236.683 136.339 230.13 136.39C202.91 136.97 189.98 112.39 189.98 112.39C174.47 86.9501 169.9 53.3902 168.81 42.6602C168.59 40.4302 168.57 39.1002 168.57 39.1002C168.577 35.7385 169.501 32.4424 171.242 29.5667C172.982 26.6909 175.475 24.3446 178.45 22.7802C181.528 21.221 184.953 20.4741 188.4 20.6102C191.604 20.7476 194.721 21.6937 197.46 23.3602C199.585 24.6341 201.421 26.337 202.85 28.3602C205.42 32.0002 205.99 36.5302 206.51 40.8602C207.571 50.354 209.435 59.7409 212.08 68.9202V68.9202Z" fill="url(#paint15_radial)"/>
<path d="M212.08 68.9202C214.176 76.2862 217.031 83.4145 220.6 90.1901C222.23 93.1901 223.85 96.1901 226.82 98.0801C227.33 98.4005 227.892 98.6306 228.48 98.7601C232.85 99.6901 235.23 96.1802 236.78 92.9702C239.07 87.9302 240.926 82.7047 242.33 77.3502C242.6 76.3502 242.86 75.3502 243.12 74.3502C243.62 72.4402 244.12 70.5101 244.54 68.5801L263.79 17.1801C267.785 11.858 272.965 7.53932 278.918 4.56605C284.872 1.59278 291.436 0.0466879 298.09 0.0501814C307.676 -0.0112286 316.996 3.19883 324.51 9.15016C337.1 18.6602 344.58 37.4202 344.58 37.4202C345.681 39.8583 346.244 42.505 346.23 45.1801C346.221 49.0496 345.021 52.8225 342.795 55.9871C340.568 59.1517 337.422 61.5548 333.783 62.8704C330.144 64.1861 326.188 64.3505 322.453 63.3416C318.717 62.3326 315.382 60.199 312.9 57.2302L312.72 57.0101C311.518 55.3731 310.511 53.6011 309.72 51.7302C308.682 49.3789 307.524 47.0825 306.25 44.8502C305.57 43.7002 304.81 42.6102 304.02 41.5302C303.349 40.5624 302.552 39.6881 301.65 38.9301C299.88 37.5001 297.65 36.9302 295.58 38.1602L295.28 38.3502C293.14 39.8202 291.65 42.7901 290.6 45.0701C287.65 51.5301 285.88 58.1501 284.19 64.9501C283.86 66.2601 283.55 67.5701 283.19 68.8901L275.25 94.8901L264.04 119.61C260.024 124.789 254.887 128.989 249.013 131.896C243.14 134.802 236.683 136.339 230.13 136.39C202.91 136.97 189.98 112.39 189.98 112.39C174.47 86.9501 169.9 53.3902 168.81 42.6602C168.59 40.4302 168.57 39.1002 168.57 39.1002C168.577 35.7385 169.501 32.4424 171.242 29.5667C172.982 26.6909 175.475 24.3446 178.45 22.7802C181.528 21.221 184.953 20.4741 188.4 20.6102C191.604 20.7476 194.721 21.6937 197.46 23.3602C199.585 24.6341 201.421 26.337 202.85 28.3602C205.42 32.0002 205.99 36.5302 206.51 40.8602C207.571 50.354 209.435 59.7409 212.08 68.9202V68.9202Z" fill="url(#paint16_linear)"/>
<path d="M212.08 68.9202C214.176 76.2862 217.031 83.4145 220.6 90.1901C222.23 93.1901 223.85 96.1901 226.82 98.0801C227.33 98.4005 227.892 98.6306 228.48 98.7601C232.85 99.6901 235.23 96.1802 236.78 92.9702C239.07 87.9302 240.926 82.7047 242.33 77.3502C242.6 76.3502 242.86 75.3502 243.12 74.3502C243.62 72.4402 244.12 70.5101 244.54 68.5801L263.79 17.1801C267.785 11.858 272.965 7.53932 278.918 4.56605C284.872 1.59278 291.436 0.0466879 298.09 0.0501814C307.676 -0.0112286 316.996 3.19883 324.51 9.15016C337.1 18.6602 344.58 37.4202 344.58 37.4202C345.681 39.8583 346.244 42.505 346.23 45.1801C346.221 49.0496 345.021 52.8225 342.795 55.9871C340.568 59.1517 337.422 61.5548 333.783 62.8704C330.144 64.1861 326.188 64.3505 322.453 63.3416C318.717 62.3326 315.382 60.199 312.9 57.2302L312.72 57.0101C311.518 55.3731 310.511 53.6011 309.72 51.7302C308.682 49.3789 307.524 47.0825 306.25 44.8502C305.57 43.7002 304.81 42.6102 304.02 41.5302C303.349 40.5624 302.552 39.6881 301.65 38.9301C299.88 37.5001 297.65 36.9302 295.58 38.1602L295.28 38.3502C293.14 39.8202 291.65 42.7901 290.6 45.0701C287.65 51.5301 285.88 58.1501 284.19 64.9501C283.86 66.2601 283.55 67.5701 283.19 68.8901L275.25 94.8901L264.04 119.61C260.024 124.789 254.887 128.989 249.013 131.896C243.14 134.802 236.683 136.339 230.13 136.39C202.91 136.97 189.98 112.39 189.98 112.39C174.47 86.9501 169.9 53.3902 168.81 42.6602C168.59 40.4302 168.57 39.1002 168.57 39.1002C168.577 35.7385 169.501 32.4424 171.242 29.5667C172.982 26.6909 175.475 24.3446 178.45 22.7802C181.528 21.221 184.953 20.4741 188.4 20.6102C191.604 20.7476 194.721 21.6937 197.46 23.3602C199.585 24.6341 201.421 26.337 202.85 28.3602C205.42 32.0002 205.99 36.5302 206.51 40.8602C207.571 50.354 209.435 59.7409 212.08 68.9202V68.9202Z" fill="url(#paint17_linear)"/>
<path d="M340.452 20.68C338.863 20.6758 337.28 20.8741 335.742 21.27C339.244 26.3404 342.219 31.7551 344.622 37.43C345.723 39.8681 346.285 42.5148 346.272 45.19C346.264 48.5087 345.381 51.7667 343.711 54.6348C342.042 57.503 339.645 59.8798 336.763 61.5253C333.881 63.1707 330.615 64.0266 327.297 64.0063C323.978 63.9861 320.723 63.0905 317.862 61.41L315.922 68.58C312.402 80.35 309.922 84.9 309.922 84.9C308.556 88.0932 306.927 91.1671 305.052 94.09C303.772 96 302.122 97.92 299.862 98.65C299.076 98.9251 298.235 99.0041 297.412 98.88C296.518 98.7816 295.656 98.4953 294.882 98.04C293.396 96.9224 292.214 95.4511 291.442 93.76C290.485 91.8826 289.627 89.9566 288.872 87.99C287.192 83.93 284.622 73.93 284.622 73.93L281.952 63.46L279.282 52.91L277.382 45.97C272.382 27.97 265.462 19.05 265.462 19.05C260.018 11.2946 252.309 5.4125 243.392 2.21002C233.062 -1.49998 222.212 0.590024 222.212 0.590024C205.212 3.93002 196.282 15.59 192.352 21.2C194.149 21.6733 195.87 22.4007 197.462 23.36C199.586 24.6339 201.422 26.3368 202.852 28.36C205.422 32 205.992 36.53 206.512 40.86C207.566 50.2361 209.399 59.5081 211.992 68.58C217.742 49.48 224.662 40.58 224.662 40.58C225.434 39.6207 226.36 38.7962 227.402 38.14C227.942 37.8028 228.549 37.5878 229.182 37.51C230.351 37.3976 231.524 37.6829 232.512 38.32C232.692 38.439 232.863 38.5728 233.022 38.72C233.924 39.5193 234.696 40.4538 235.312 41.49C236.752 44.0618 238.002 46.7356 239.052 49.49C241.212 55.57 243.052 63 243.052 63L248.552 84.68C252.552 99.42 255.942 106.58 255.942 106.58C264.282 125.7 277.052 131.08 277.052 131.08C283.272 134.404 290.19 136.21 297.242 136.35C303.97 136.539 310.644 135.105 316.702 132.17C323.323 128.894 329.13 124.183 333.702 118.38C336.792 114.8 341.332 106.08 341.332 106.08C346.353 96.0849 350.292 85.5819 353.082 74.75C354.864 68.0014 356.3 61.1658 357.382 54.27C357.922 50.85 358.432 47.41 358.832 43.96C359.346 40.6938 359.248 37.3602 358.542 34.13C358.393 33.5494 358.209 32.9784 357.992 32.42C356.384 28.3643 353.4 25.0042 349.562 22.93C346.755 21.4443 343.627 20.6716 340.452 20.68V20.68Z" fill="#F7F7F7"/>
<path d="M340.452 20.68C338.863 20.6758 337.28 20.8741 335.742 21.27C339.244 26.3404 342.219 31.7551 344.622 37.43C345.723 39.8681 346.285 42.5148 346.272 45.19C346.264 48.5087 345.381 51.7667 343.711 54.6348C342.042 57.503 339.645 59.8798 336.763 61.5253C333.881 63.1707 330.615 64.0266 327.297 64.0063C323.978 63.9861 320.723 63.0905 317.862 61.41L315.922 68.58C312.402 80.35 309.922 84.9 309.922 84.9C308.556 88.0932 306.927 91.1671 305.052 94.09C303.772 96 302.122 97.92 299.862 98.65C299.076 98.9251 298.235 99.0041 297.412 98.88C296.518 98.7816 295.656 98.4953 294.882 98.04C293.396 96.9224 292.214 95.4511 291.442 93.76C290.485 91.8826 289.627 89.9566 288.872 87.99C287.192 83.93 284.622 73.93 284.622 73.93L281.952 63.46L279.282 52.91L277.382 45.97C272.382 27.97 265.462 19.05 265.462 19.05C260.018 11.2946 252.309 5.4125 243.392 2.21002C233.062 -1.49998 222.212 0.590024 222.212 0.590024C205.212 3.93002 196.282 15.59 192.352 21.2C194.149 21.6733 195.87 22.4007 197.462 23.36C199.586 24.6339 201.422 26.3368 202.852 28.36C205.422 32 205.992 36.53 206.512 40.86C207.566 50.2361 209.399 59.5081 211.992 68.58C217.742 49.48 224.662 40.58 224.662 40.58C225.434 39.6207 226.36 38.7962 227.402 38.14C227.942 37.8028 228.549 37.5878 229.182 37.51C230.351 37.3976 231.524 37.6829 232.512 38.32C232.692 38.439 232.863 38.5728 233.022 38.72C233.924 39.5193 234.696 40.4538 235.312 41.49C236.752 44.0618 238.002 46.7356 239.052 49.49C241.212 55.57 243.052 63 243.052 63L248.552 84.68C252.552 99.42 255.942 106.58 255.942 106.58C264.282 125.7 277.052 131.08 277.052 131.08C283.272 134.404 290.19 136.21 297.242 136.35C303.97 136.539 310.644 135.105 316.702 132.17C323.323 128.894 329.13 124.183 333.702 118.38C336.792 114.8 341.332 106.08 341.332 106.08C346.353 96.0849 350.292 85.5819 353.082 74.75C354.864 68.0014 356.3 61.1658 357.382 54.27C357.922 50.85 358.432 47.41 358.832 43.96C359.346 40.6938 359.248 37.3602 358.542 34.13C358.393 33.5494 358.209 32.9784 357.992 32.42C356.384 28.3643 353.4 25.0042 349.562 22.93C346.755 21.4443 343.627 20.6716 340.452 20.68V20.68Z" fill="url(#paint18_radial)"/>
<path d="M340.452 20.68C338.863 20.6758 337.28 20.8741 335.742 21.27C339.244 26.3404 342.219 31.7551 344.622 37.43C345.723 39.8681 346.285 42.5148 346.272 45.19C346.264 48.5087 345.381 51.7667 343.711 54.6348C342.042 57.503 339.645 59.8798 336.763 61.5253C333.881 63.1707 330.615 64.0266 327.297 64.0063C323.978 63.9861 320.723 63.0905 317.862 61.41L315.922 68.58C312.402 80.35 309.922 84.9 309.922 84.9C308.556 88.0932 306.927 91.1671 305.052 94.09C303.772 96 302.122 97.92 299.862 98.65C299.076 98.9251 298.235 99.0041 297.412 98.88C296.518 98.7816 295.656 98.4953 294.882 98.04C293.396 96.9224 292.214 95.4511 291.442 93.76C290.485 91.8826 289.627 89.9566 288.872 87.99C287.192 83.93 284.622 73.93 284.622 73.93L281.952 63.46L279.282 52.91L277.382 45.97C272.382 27.97 265.462 19.05 265.462 19.05C260.018 11.2946 252.309 5.4125 243.392 2.21002C233.062 -1.49998 222.212 0.590024 222.212 0.590024C205.212 3.93002 196.282 15.59 192.352 21.2C194.149 21.6733 195.87 22.4007 197.462 23.36C199.586 24.6339 201.422 26.3368 202.852 28.36C205.422 32 205.992 36.53 206.512 40.86C207.566 50.2361 209.399 59.5081 211.992 68.58C217.742 49.48 224.662 40.58 224.662 40.58C225.434 39.6207 226.36 38.7962 227.402 38.14C227.942 37.8028 228.549 37.5878 229.182 37.51C230.351 37.3976 231.524 37.6829 232.512 38.32C232.692 38.439 232.863 38.5728 233.022 38.72C233.924 39.5193 234.696 40.4538 235.312 41.49C236.752 44.0618 238.002 46.7356 239.052 49.49C241.212 55.57 243.052 63 243.052 63L248.552 84.68C252.552 99.42 255.942 106.58 255.942 106.58C264.282 125.7 277.052 131.08 277.052 131.08C283.272 134.404 290.19 136.21 297.242 136.35C303.97 136.539 310.644 135.105 316.702 132.17C323.323 128.894 329.13 124.183 333.702 118.38C336.792 114.8 341.332 106.08 341.332 106.08C346.353 96.0849 350.292 85.5819 353.082 74.75C354.864 68.0014 356.3 61.1658 357.382 54.27C357.922 50.85 358.432 47.41 358.832 43.96C359.346 40.6938 359.248 37.3602 358.542 34.13C358.393 33.5494 358.209 32.9784 357.992 32.42C356.384 28.3643 353.4 25.0042 349.562 22.93C346.755 21.4443 343.627 20.6716 340.452 20.68V20.68Z" fill="url(#paint19_radial)"/>
<path d="M340.452 20.68C338.863 20.6758 337.28 20.8741 335.742 21.27C339.244 26.3404 342.219 31.7551 344.622 37.43C345.723 39.8681 346.285 42.5148 346.272 45.19C346.264 48.5087 345.381 51.7667 343.711 54.6348C342.042 57.503 339.645 59.8798 336.763 61.5253C333.881 63.1707 330.615 64.0266 327.297 64.0063C323.978 63.9861 320.723 63.0905 317.862 61.41L315.922 68.58C312.402 80.35 309.922 84.9 309.922 84.9C308.556 88.0932 306.927 91.1671 305.052 94.09C303.772 96 302.122 97.92 299.862 98.65C299.076 98.9251 298.235 99.0041 297.412 98.88C296.518 98.7816 295.656 98.4953 294.882 98.04C293.396 96.9224 292.214 95.4511 291.442 93.76C290.485 91.8826 289.627 89.9566 288.872 87.99C287.192 83.93 284.622 73.93 284.622 73.93L281.952 63.46L279.282 52.91L277.382 45.97C272.382 27.97 265.462 19.05 265.462 19.05C260.018 11.2946 252.309 5.4125 243.392 2.21002C233.062 -1.49998 222.212 0.590024 222.212 0.590024C205.212 3.93002 196.282 15.59 192.352 21.2C194.149 21.6733 195.87 22.4007 197.462 23.36C199.586 24.6339 201.422 26.3368 202.852 28.36C205.422 32 205.992 36.53 206.512 40.86C207.566 50.2361 209.399 59.5081 211.992 68.58C217.742 49.48 224.662 40.58 224.662 40.58C225.434 39.6207 226.36 38.7962 227.402 38.14C227.942 37.8028 228.549 37.5878 229.182 37.51C230.351 37.3976 231.524 37.6829 232.512 38.32C232.692 38.439 232.863 38.5728 233.022 38.72C233.924 39.5193 234.696 40.4538 235.312 41.49C236.752 44.0618 238.002 46.7356 239.052 49.49C241.212 55.57 243.052 63 243.052 63L248.552 84.68C252.552 99.42 255.942 106.58 255.942 106.58C264.282 125.7 277.052 131.08 277.052 131.08C283.272 134.404 290.19 136.21 297.242 136.35C303.97 136.539 310.644 135.105 316.702 132.17C323.323 128.894 329.13 124.183 333.702 118.38C336.792 114.8 341.332 106.08 341.332 106.08C346.353 96.0849 350.292 85.5819 353.082 74.75C354.864 68.0014 356.3 61.1658 357.382 54.27C357.922 50.85 358.432 47.41 358.832 43.96C359.346 40.6938 359.248 37.3602 358.542 34.13C358.393 33.5494 358.209 32.9784 357.992 32.42C356.384 28.3643 353.4 25.0042 349.562 22.93C346.755 21.4443 343.627 20.6716 340.452 20.68V20.68Z" fill="url(#paint20_radial)"/>
<path d="M340.452 20.68C338.863 20.6758 337.28 20.8741 335.742 21.27C339.244 26.3404 342.219 31.7551 344.622 37.43C345.723 39.8681 346.285 42.5148 346.272 45.19C346.264 48.5087 345.381 51.7667 343.711 54.6348C342.042 57.503 339.645 59.8798 336.763 61.5253C333.881 63.1707 330.615 64.0266 327.297 64.0063C323.978 63.9861 320.723 63.0905 317.862 61.41L315.922 68.58C312.402 80.35 309.922 84.9 309.922 84.9C308.556 88.0932 306.927 91.1671 305.052 94.09C303.772 96 302.122 97.92 299.862 98.65C299.076 98.9251 298.235 99.0041 297.412 98.88C296.518 98.7816 295.656 98.4953 294.882 98.04C293.396 96.9224 292.214 95.4511 291.442 93.76C290.485 91.8826 289.627 89.9566 288.872 87.99C287.192 83.93 284.622 73.93 284.622 73.93L281.952 63.46L279.282 52.91L277.382 45.97C272.382 27.97 265.462 19.05 265.462 19.05C260.018 11.2946 252.309 5.4125 243.392 2.21002C233.062 -1.49998 222.212 0.590024 222.212 0.590024C205.212 3.93002 196.282 15.59 192.352 21.2C194.149 21.6733 195.87 22.4007 197.462 23.36C199.586 24.6339 201.422 26.3368 202.852 28.36C205.422 32 205.992 36.53 206.512 40.86C207.566 50.2361 209.399 59.5081 211.992 68.58C217.742 49.48 224.662 40.58 224.662 40.58C225.434 39.6207 226.36 38.7962 227.402 38.14C227.942 37.8028 228.549 37.5878 229.182 37.51C230.351 37.3976 231.524 37.6829 232.512 38.32C232.692 38.439 232.863 38.5728 233.022 38.72C233.924 39.5193 234.696 40.4538 235.312 41.49C236.752 44.0618 238.002 46.7356 239.052 49.49C241.212 55.57 243.052 63 243.052 63L248.552 84.68C252.552 99.42 255.942 106.58 255.942 106.58C264.282 125.7 277.052 131.08 277.052 131.08C283.272 134.404 290.19 136.21 297.242 136.35C303.97 136.539 310.644 135.105 316.702 132.17C323.323 128.894 329.13 124.183 333.702 118.38C336.792 114.8 341.332 106.08 341.332 106.08C346.353 96.0849 350.292 85.5819 353.082 74.75C354.864 68.0014 356.3 61.1658 357.382 54.27C357.922 50.85 358.432 47.41 358.832 43.96C359.346 40.6938 359.248 37.3602 358.542 34.13C358.393 33.5494 358.209 32.9784 357.992 32.42C356.384 28.3643 353.4 25.0042 349.562 22.93C346.755 21.4443 343.627 20.6716 340.452 20.68V20.68Z" fill="url(#paint21_radial)"/>
<path d="M340.452 20.68C338.863 20.6758 337.28 20.8741 335.742 21.27C339.244 26.3404 342.219 31.7551 344.622 37.43C345.723 39.8681 346.285 42.5148 346.272 45.19C346.264 48.5087 345.381 51.7667 343.711 54.6348C342.042 57.503 339.645 59.8798 336.763 61.5253C333.881 63.1707 330.615 64.0266 327.297 64.0063C323.978 63.9861 320.723 63.0905 317.862 61.41L315.922 68.58C312.402 80.35 309.922 84.9 309.922 84.9C308.556 88.0932 306.927 91.1671 305.052 94.09C303.772 96 302.122 97.92 299.862 98.65C299.076 98.9251 298.235 99.0041 297.412 98.88C296.518 98.7816 295.656 98.4953 294.882 98.04C293.396 96.9224 292.214 95.4511 291.442 93.76C290.485 91.8826 289.627 89.9566 288.872 87.99C287.192 83.93 284.622 73.93 284.622 73.93L281.952 63.46L279.282 52.91L277.382 45.97C272.382 27.97 265.462 19.05 265.462 19.05C260.018 11.2946 252.309 5.4125 243.392 2.21002C233.062 -1.49998 222.212 0.590024 222.212 0.590024C205.212 3.93002 196.282 15.59 192.352 21.2C194.149 21.6733 195.87 22.4007 197.462 23.36C199.586 24.6339 201.422 26.3368 202.852 28.36C205.422 32 205.992 36.53 206.512 40.86C207.566 50.2361 209.399 59.5081 211.992 68.58C217.742 49.48 224.662 40.58 224.662 40.58C225.434 39.6207 226.36 38.7962 227.402 38.14C227.942 37.8028 228.549 37.5878 229.182 37.51C230.351 37.3976 231.524 37.6829 232.512 38.32C232.692 38.439 232.863 38.5728 233.022 38.72C233.924 39.5193 234.696 40.4538 235.312 41.49C236.752 44.0618 238.002 46.7356 239.052 49.49C241.212 55.57 243.052 63 243.052 63L248.552 84.68C252.552 99.42 255.942 106.58 255.942 106.58C264.282 125.7 277.052 131.08 277.052 131.08C283.272 134.404 290.19 136.21 297.242 136.35C303.97 136.539 310.644 135.105 316.702 132.17C323.323 128.894 329.13 124.183 333.702 118.38C336.792 114.8 341.332 106.08 341.332 106.08C346.353 96.0849 350.292 85.5819 353.082 74.75C354.864 68.0014 356.3 61.1658 357.382 54.27C357.922 50.85 358.432 47.41 358.832 43.96C359.346 40.6938 359.248 37.3602 358.542 34.13C358.393 33.5494 358.209 32.9784 357.992 32.42C356.384 28.3643 353.4 25.0042 349.562 22.93C346.755 21.4443 343.627 20.6716 340.452 20.68V20.68Z" fill="url(#paint22_radial)"/>
<path d="M340.452 20.68C338.863 20.6758 337.28 20.8741 335.742 21.27C339.244 26.3404 342.219 31.7551 344.622 37.43C345.723 39.8681 346.285 42.5148 346.272 45.19C346.264 48.5087 345.381 51.7667 343.711 54.6348C342.042 57.503 339.645 59.8798 336.763 61.5253C333.881 63.1707 330.615 64.0266 327.297 64.0063C323.978 63.9861 320.723 63.0905 317.862 61.41L315.922 68.58C312.402 80.35 309.922 84.9 309.922 84.9C308.556 88.0932 306.927 91.1671 305.052 94.09C303.772 96 302.122 97.92 299.862 98.65C299.076 98.9251 298.235 99.0041 297.412 98.88C296.518 98.7816 295.656 98.4953 294.882 98.04C293.396 96.9224 292.214 95.4511 291.442 93.76C290.485 91.8826 289.627 89.9566 288.872 87.99C287.192 83.93 284.622 73.93 284.622 73.93L281.952 63.46L279.282 52.91L277.382 45.97C272.382 27.97 265.462 19.05 265.462 19.05C260.018 11.2946 252.309 5.4125 243.392 2.21002C233.062 -1.49998 222.212 0.590024 222.212 0.590024C205.212 3.93002 196.282 15.59 192.352 21.2C194.149 21.6733 195.87 22.4007 197.462 23.36C199.586 24.6339 201.422 26.3368 202.852 28.36C205.422 32 205.992 36.53 206.512 40.86C207.566 50.2361 209.399 59.5081 211.992 68.58C217.742 49.48 224.662 40.58 224.662 40.58C225.434 39.6207 226.36 38.7962 227.402 38.14C227.942 37.8028 228.549 37.5878 229.182 37.51C230.351 37.3976 231.524 37.6829 232.512 38.32C232.692 38.439 232.863 38.5728 233.022 38.72C233.924 39.5193 234.696 40.4538 235.312 41.49C236.752 44.0618 238.002 46.7356 239.052 49.49C241.212 55.57 243.052 63 243.052 63L248.552 84.68C252.552 99.42 255.942 106.58 255.942 106.58C264.282 125.7 277.052 131.08 277.052 131.08C283.272 134.404 290.19 136.21 297.242 136.35C303.97 136.539 310.644 135.105 316.702 132.17C323.323 128.894 329.13 124.183 333.702 118.38C336.792 114.8 341.332 106.08 341.332 106.08C346.353 96.0849 350.292 85.5819 353.082 74.75C354.864 68.0014 356.3 61.1658 357.382 54.27C357.922 50.85 358.432 47.41 358.832 43.96C359.346 40.6938 359.248 37.3602 358.542 34.13C358.393 33.5494 358.209 32.9784 357.992 32.42C356.384 28.3643 353.4 25.0042 349.562 22.93C346.755 21.4443 343.627 20.6716 340.452 20.68V20.68Z" fill="url(#paint23_radial)"/>
<path d="M340.452 20.68C338.863 20.6758 337.28 20.8741 335.742 21.27C339.244 26.3404 342.219 31.7551 344.622 37.43C345.723 39.8681 346.285 42.5148 346.272 45.19C346.264 48.5087 345.381 51.7667 343.711 54.6348C342.042 57.503 339.645 59.8798 336.763 61.5253C333.881 63.1707 330.615 64.0266 327.297 64.0063C323.978 63.9861 320.723 63.0905 317.862 61.41L315.922 68.58C312.402 80.35 309.922 84.9 309.922 84.9C308.556 88.0932 306.927 91.1671 305.052 94.09C303.772 96 302.122 97.92 299.862 98.65C299.076 98.9251 298.235 99.0041 297.412 98.88C296.518 98.7816 295.656 98.4953 294.882 98.04C293.396 96.9224 292.214 95.4511 291.442 93.76C290.485 91.8826 289.627 89.9566 288.872 87.99C287.192 83.93 284.622 73.93 284.622 73.93L281.952 63.46L279.282 52.91L277.382 45.97C272.382 27.97 265.462 19.05 265.462 19.05C260.018 11.2946 252.309 5.4125 243.392 2.21002C233.062 -1.49998 222.212 0.590024 222.212 0.590024C205.212 3.93002 196.282 15.59 192.352 21.2C194.149 21.6733 195.87 22.4007 197.462 23.36C199.586 24.6339 201.422 26.3368 202.852 28.36C205.422 32 205.992 36.53 206.512 40.86C207.566 50.2361 209.399 59.5081 211.992 68.58C217.742 49.48 224.662 40.58 224.662 40.58C225.434 39.6207 226.36 38.7962 227.402 38.14C227.942 37.8028 228.549 37.5878 229.182 37.51C230.351 37.3976 231.524 37.6829 232.512 38.32C232.692 38.439 232.863 38.5728 233.022 38.72C233.924 39.5193 234.696 40.4538 235.312 41.49C236.752 44.0618 238.002 46.7356 239.052 49.49C241.212 55.57 243.052 63 243.052 63L248.552 84.68C252.552 99.42 255.942 106.58 255.942 106.58C264.282 125.7 277.052 131.08 277.052 131.08C283.272 134.404 290.19 136.21 297.242 136.35C303.97 136.539 310.644 135.105 316.702 132.17C323.323 128.894 329.13 124.183 333.702 118.38C336.792 114.8 341.332 106.08 341.332 106.08C346.353 96.0849 350.292 85.5819 353.082 74.75C354.864 68.0014 356.3 61.1658 357.382 54.27C357.922 50.85 358.432 47.41 358.832 43.96C359.346 40.6938 359.248 37.3602 358.542 34.13C358.393 33.5494 358.209 32.9784 357.992 32.42C356.384 28.3643 353.4 25.0042 349.562 22.93C346.755 21.4443 343.627 20.6716 340.452 20.68V20.68Z" fill="url(#paint24_radial)"/>
<path d="M340.452 20.68C338.863 20.6758 337.28 20.8741 335.742 21.27C339.244 26.3404 342.219 31.7551 344.622 37.43C345.723 39.8681 346.285 42.5148 346.272 45.19C346.264 48.5087 345.381 51.7667 343.711 54.6348C342.042 57.503 339.645 59.8798 336.763 61.5253C333.881 63.1707 330.615 64.0266 327.297 64.0063C323.978 63.9861 320.723 63.0905 317.862 61.41L315.922 68.58C312.402 80.35 309.922 84.9 309.922 84.9C308.556 88.0932 306.927 91.1671 305.052 94.09C303.772 96 302.122 97.92 299.862 98.65C299.076 98.9251 298.235 99.0041 297.412 98.88C296.518 98.7816 295.656 98.4953 294.882 98.04C293.396 96.9224 292.214 95.4511 291.442 93.76C290.485 91.8826 289.627 89.9566 288.872 87.99C287.192 83.93 284.622 73.93 284.622 73.93L281.952 63.46L279.282 52.91L277.382 45.97C272.382 27.97 265.462 19.05 265.462 19.05C260.018 11.2946 252.309 5.4125 243.392 2.21002C233.062 -1.49998 222.212 0.590024 222.212 0.590024C205.212 3.93002 196.282 15.59 192.352 21.2C194.149 21.6733 195.87 22.4007 197.462 23.36C199.586 24.6339 201.422 26.3368 202.852 28.36C205.422 32 205.992 36.53 206.512 40.86C207.566 50.2361 209.399 59.5081 211.992 68.58C217.742 49.48 224.662 40.58 224.662 40.58C225.434 39.6207 226.36 38.7962 227.402 38.14C227.942 37.8028 228.549 37.5878 229.182 37.51C230.351 37.3976 231.524 37.6829 232.512 38.32C232.692 38.439 232.863 38.5728 233.022 38.72C233.924 39.5193 234.696 40.4538 235.312 41.49C236.752 44.0618 238.002 46.7356 239.052 49.49C241.212 55.57 243.052 63 243.052 63L248.552 84.68C252.552 99.42 255.942 106.58 255.942 106.58C264.282 125.7 277.052 131.08 277.052 131.08C283.272 134.404 290.19 136.21 297.242 136.35C303.97 136.539 310.644 135.105 316.702 132.17C323.323 128.894 329.13 124.183 333.702 118.38C336.792 114.8 341.332 106.08 341.332 106.08C346.353 96.0849 350.292 85.5819 353.082 74.75C354.864 68.0014 356.3 61.1658 357.382 54.27C357.922 50.85 358.432 47.41 358.832 43.96C359.346 40.6938 359.248 37.3602 358.542 34.13C358.393 33.5494 358.209 32.9784 357.992 32.42C356.384 28.3643 353.4 25.0042 349.562 22.93C346.755 21.4443 343.627 20.6716 340.452 20.68V20.68Z" fill="url(#paint25_radial)"/>
<path d="M340.452 20.68C338.863 20.6758 337.28 20.8741 335.742 21.27C339.244 26.3404 342.219 31.7551 344.622 37.43C345.723 39.8681 346.285 42.5148 346.272 45.19C346.264 48.5087 345.381 51.7667 343.711 54.6348C342.042 57.503 339.645 59.8798 336.763 61.5253C333.881 63.1707 330.615 64.0266 327.297 64.0063C323.978 63.9861 320.723 63.0905 317.862 61.41L315.922 68.58C312.402 80.35 309.922 84.9 309.922 84.9C308.556 88.0932 306.927 91.1671 305.052 94.09C303.772 96 302.122 97.92 299.862 98.65C299.076 98.9251 298.235 99.0041 297.412 98.88C296.518 98.7816 295.656 98.4953 294.882 98.04C293.396 96.9224 292.214 95.4511 291.442 93.76C290.485 91.8826 289.627 89.9566 288.872 87.99C287.192 83.93 284.622 73.93 284.622 73.93L281.952 63.46L279.282 52.91L277.382 45.97C272.382 27.97 265.462 19.05 265.462 19.05C260.018 11.2946 252.309 5.4125 243.392 2.21002C233.062 -1.49998 222.212 0.590024 222.212 0.590024C205.212 3.93002 196.282 15.59 192.352 21.2C194.149 21.6733 195.87 22.4007 197.462 23.36C199.586 24.6339 201.422 26.3368 202.852 28.36C205.422 32 205.992 36.53 206.512 40.86C207.566 50.2361 209.399 59.5081 211.992 68.58C217.742 49.48 224.662 40.58 224.662 40.58C225.434 39.6207 226.36 38.7962 227.402 38.14C227.942 37.8028 228.549 37.5878 229.182 37.51C230.351 37.3976 231.524 37.6829 232.512 38.32C232.692 38.439 232.863 38.5728 233.022 38.72C233.924 39.5193 234.696 40.4538 235.312 41.49C236.752 44.0618 238.002 46.7356 239.052 49.49C241.212 55.57 243.052 63 243.052 63L248.552 84.68C252.552 99.42 255.942 106.58 255.942 106.58C264.282 125.7 277.052 131.08 277.052 131.08C283.272 134.404 290.19 136.21 297.242 136.35C303.97 136.539 310.644 135.105 316.702 132.17C323.323 128.894 329.13 124.183 333.702 118.38C336.792 114.8 341.332 106.08 341.332 106.08C346.353 96.0849 350.292 85.5819 353.082 74.75C354.864 68.0014 356.3 61.1658 357.382 54.27C357.922 50.85 358.432 47.41 358.832 43.96C359.346 40.6938 359.248 37.3602 358.542 34.13C358.393 33.5494 358.209 32.9784 357.992 32.42C356.384 28.3643 353.4 25.0042 349.562 22.93C346.755 21.4443 343.627 20.6716 340.452 20.68V20.68Z" fill="url(#paint26_radial)"/>
<path d="M340.452 20.68C338.863 20.6758 337.28 20.8741 335.742 21.27C339.244 26.3404 342.219 31.7551 344.622 37.43C345.723 39.8681 346.285 42.5148 346.272 45.19C346.264 48.5087 345.381 51.7667 343.711 54.6348C342.042 57.503 339.645 59.8798 336.763 61.5253C333.881 63.1707 330.615 64.0266 327.297 64.0063C323.978 63.9861 320.723 63.0905 317.862 61.41L315.922 68.58C312.402 80.35 309.922 84.9 309.922 84.9C308.556 88.0932 306.927 91.1671 305.052 94.09C303.772 96 302.122 97.92 299.862 98.65C299.076 98.9251 298.235 99.0041 297.412 98.88C296.518 98.7816 295.656 98.4953 294.882 98.04C293.396 96.9224 292.214 95.4511 291.442 93.76C290.485 91.8826 289.627 89.9566 288.872 87.99C287.192 83.93 284.622 73.93 284.622 73.93L281.952 63.46L279.282 52.91L277.382 45.97C272.382 27.97 265.462 19.05 265.462 19.05C260.018 11.2946 252.309 5.4125 243.392 2.21002C233.062 -1.49998 222.212 0.590024 222.212 0.590024C205.212 3.93002 196.282 15.59 192.352 21.2C194.149 21.6733 195.87 22.4007 197.462 23.36C199.586 24.6339 201.422 26.3368 202.852 28.36C205.422 32 205.992 36.53 206.512 40.86C207.566 50.2361 209.399 59.5081 211.992 68.58C217.742 49.48 224.662 40.58 224.662 40.58C225.434 39.6207 226.36 38.7962 227.402 38.14C227.942 37.8028 228.549 37.5878 229.182 37.51C230.351 37.3976 231.524 37.6829 232.512 38.32C232.692 38.439 232.863 38.5728 233.022 38.72C233.924 39.5193 234.696 40.4538 235.312 41.49C236.752 44.0618 238.002 46.7356 239.052 49.49C241.212 55.57 243.052 63 243.052 63L248.552 84.68C252.552 99.42 255.942 106.58 255.942 106.58C264.282 125.7 277.052 131.08 277.052 131.08C283.272 134.404 290.19 136.21 297.242 136.35C303.97 136.539 310.644 135.105 316.702 132.17C323.323 128.894 329.13 124.183 333.702 118.38C336.792 114.8 341.332 106.08 341.332 106.08C346.353 96.0849 350.292 85.5819 353.082 74.75C354.864 68.0014 356.3 61.1658 357.382 54.27C357.922 50.85 358.432 47.41 358.832 43.96C359.346 40.6938 359.248 37.3602 358.542 34.13C358.393 33.5494 358.209 32.9784 357.992 32.42C356.384 28.3643 353.4 25.0042 349.562 22.93C346.755 21.4443 343.627 20.6716 340.452 20.68V20.68Z" fill="url(#paint27_radial)"/>
<path d="M340.452 20.68C338.863 20.6758 337.28 20.8741 335.742 21.27C339.244 26.3404 342.219 31.7551 344.622 37.43C345.723 39.8681 346.285 42.5148 346.272 45.19C346.264 48.5087 345.381 51.7667 343.711 54.6348C342.042 57.503 339.645 59.8798 336.763 61.5253C333.881 63.1707 330.615 64.0266 327.297 64.0063C323.978 63.9861 320.723 63.0905 317.862 61.41L315.922 68.58C312.402 80.35 309.922 84.9 309.922 84.9C308.556 88.0932 306.927 91.1671 305.052 94.09C303.772 96 302.122 97.92 299.862 98.65C299.076 98.9251 298.235 99.0041 297.412 98.88C296.518 98.7816 295.656 98.4953 294.882 98.04C293.396 96.9224 292.214 95.4511 291.442 93.76C290.485 91.8826 289.627 89.9566 288.872 87.99C287.192 83.93 284.622 73.93 284.622 73.93L281.952 63.46L279.282 52.91L277.382 45.97C272.382 27.97 265.462 19.05 265.462 19.05C260.018 11.2946 252.309 5.4125 243.392 2.21002C233.062 -1.49998 222.212 0.590024 222.212 0.590024C205.212 3.93002 196.282 15.59 192.352 21.2C194.149 21.6733 195.87 22.4007 197.462 23.36C199.586 24.6339 201.422 26.3368 202.852 28.36C205.422 32 205.992 36.53 206.512 40.86C207.566 50.2361 209.399 59.5081 211.992 68.58C217.742 49.48 224.662 40.58 224.662 40.58C225.434 39.6207 226.36 38.7962 227.402 38.14C227.942 37.8028 228.549 37.5878 229.182 37.51C230.351 37.3976 231.524 37.6829 232.512 38.32C232.692 38.439 232.863 38.5728 233.022 38.72C233.924 39.5193 234.696 40.4538 235.312 41.49C236.752 44.0618 238.002 46.7356 239.052 49.49C241.212 55.57 243.052 63 243.052 63L248.552 84.68C252.552 99.42 255.942 106.58 255.942 106.58C264.282 125.7 277.052 131.08 277.052 131.08C283.272 134.404 290.19 136.21 297.242 136.35C303.97 136.539 310.644 135.105 316.702 132.17C323.323 128.894 329.13 124.183 333.702 118.38C336.792 114.8 341.332 106.08 341.332 106.08C346.353 96.0849 350.292 85.5819 353.082 74.75C354.864 68.0014 356.3 61.1658 357.382 54.27C357.922 50.85 358.432 47.41 358.832 43.96C359.346 40.6938 359.248 37.3602 358.542 34.13C358.393 33.5494 358.209 32.9784 357.992 32.42C356.384 28.3643 353.4 25.0042 349.562 22.93C346.755 21.4443 343.627 20.6716 340.452 20.68V20.68Z" fill="url(#paint28_radial)"/>
<path d="M340.452 20.68C338.863 20.6758 337.28 20.8741 335.742 21.27C339.244 26.3404 342.219 31.7551 344.622 37.43C345.723 39.8681 346.285 42.5148 346.272 45.19C346.264 48.5087 345.381 51.7667 343.711 54.6348C342.042 57.503 339.645 59.8798 336.763 61.5253C333.881 63.1707 330.615 64.0266 327.297 64.0063C323.978 63.9861 320.723 63.0905 317.862 61.41L315.922 68.58C312.402 80.35 309.922 84.9 309.922 84.9C308.556 88.0932 306.927 91.1671 305.052 94.09C303.772 96 302.122 97.92 299.862 98.65C299.076 98.9251 298.235 99.0041 297.412 98.88C296.518 98.7816 295.656 98.4953 294.882 98.04C293.396 96.9224 292.214 95.4511 291.442 93.76C290.485 91.8826 289.627 89.9566 288.872 87.99C287.192 83.93 284.622 73.93 284.622 73.93L281.952 63.46L279.282 52.91L277.382 45.97C272.382 27.97 265.462 19.05 265.462 19.05C260.018 11.2946 252.309 5.4125 243.392 2.21002C233.062 -1.49998 222.212 0.590024 222.212 0.590024C205.212 3.93002 196.282 15.59 192.352 21.2C194.149 21.6733 195.87 22.4007 197.462 23.36C199.586 24.6339 201.422 26.3368 202.852 28.36C205.422 32 205.992 36.53 206.512 40.86C207.566 50.2361 209.399 59.5081 211.992 68.58C217.742 49.48 224.662 40.58 224.662 40.58C225.434 39.6207 226.36 38.7962 227.402 38.14C227.942 37.8028 228.549 37.5878 229.182 37.51C230.351 37.3976 231.524 37.6829 232.512 38.32C232.692 38.439 232.863 38.5728 233.022 38.72C233.924 39.5193 234.696 40.4538 235.312 41.49C236.752 44.0618 238.002 46.7356 239.052 49.49C241.212 55.57 243.052 63 243.052 63L248.552 84.68C252.552 99.42 255.942 106.58 255.942 106.58C264.282 125.7 277.052 131.08 277.052 131.08C283.272 134.404 290.19 136.21 297.242 136.35C303.97 136.539 310.644 135.105 316.702 132.17C323.323 128.894 329.13 124.183 333.702 118.38C336.792 114.8 341.332 106.08 341.332 106.08C346.353 96.0849 350.292 85.5819 353.082 74.75C354.864 68.0014 356.3 61.1658 357.382 54.27C357.922 50.85 358.432 47.41 358.832 43.96C359.346 40.6938 359.248 37.3602 358.542 34.13C358.393 33.5494 358.209 32.9784 357.992 32.42C356.384 28.3643 353.4 25.0042 349.562 22.93C346.755 21.4443 343.627 20.6716 340.452 20.68V20.68Z" fill="url(#paint29_radial)"/>
<path d="M340.452 20.68C338.863 20.6758 337.28 20.8741 335.742 21.27C339.244 26.3404 342.219 31.7551 344.622 37.43C345.723 39.8681 346.285 42.5148 346.272 45.19C346.264 48.5087 345.381 51.7667 343.711 54.6348C342.042 57.503 339.645 59.8798 336.763 61.5253C333.881 63.1707 330.615 64.0266 327.297 64.0063C323.978 63.9861 320.723 63.0905 317.862 61.41L315.922 68.58C312.402 80.35 309.922 84.9 309.922 84.9C308.556 88.0932 306.927 91.1671 305.052 94.09C303.772 96 302.122 97.92 299.862 98.65C299.076 98.9251 298.235 99.0041 297.412 98.88C296.518 98.7816 295.656 98.4953 294.882 98.04C293.396 96.9224 292.214 95.4511 291.442 93.76C290.485 91.8826 289.627 89.9566 288.872 87.99C287.192 83.93 284.622 73.93 284.622 73.93L281.952 63.46L279.282 52.91L277.382 45.97C272.382 27.97 265.462 19.05 265.462 19.05C260.018 11.2946 252.309 5.4125 243.392 2.21002C233.062 -1.49998 222.212 0.590024 222.212 0.590024C205.212 3.93002 196.282 15.59 192.352 21.2C194.149 21.6733 195.87 22.4007 197.462 23.36C199.586 24.6339 201.422 26.3368 202.852 28.36C205.422 32 205.992 36.53 206.512 40.86C207.566 50.2361 209.399 59.5081 211.992 68.58C217.742 49.48 224.662 40.58 224.662 40.58C225.434 39.6207 226.36 38.7962 227.402 38.14C227.942 37.8028 228.549 37.5878 229.182 37.51C230.351 37.3976 231.524 37.6829 232.512 38.32C232.692 38.439 232.863 38.5728 233.022 38.72C233.924 39.5193 234.696 40.4538 235.312 41.49C236.752 44.0618 238.002 46.7356 239.052 49.49C241.212 55.57 243.052 63 243.052 63L248.552 84.68C252.552 99.42 255.942 106.58 255.942 106.58C264.282 125.7 277.052 131.08 277.052 131.08C283.272 134.404 290.19 136.21 297.242 136.35C303.97 136.539 310.644 135.105 316.702 132.17C323.323 128.894 329.13 124.183 333.702 118.38C336.792 114.8 341.332 106.08 341.332 106.08C346.353 96.0849 350.292 85.5819 353.082 74.75C354.864 68.0014 356.3 61.1658 357.382 54.27C357.922 50.85 358.432 47.41 358.832 43.96C359.346 40.6938 359.248 37.3602 358.542 34.13C358.393 33.5494 358.209 32.9784 357.992 32.42C356.384 28.3643 353.4 25.0042 349.562 22.93C346.755 21.4443 343.627 20.6716 340.452 20.68V20.68Z" fill="url(#paint30_radial)"/>
<path d="M340.452 20.68C338.863 20.6758 337.28 20.8741 335.742 21.27C339.244 26.3404 342.219 31.7551 344.622 37.43C345.723 39.8681 346.285 42.5148 346.272 45.19C346.264 48.5087 345.381 51.7667 343.711 54.6348C342.042 57.503 339.645 59.8798 336.763 61.5253C333.881 63.1707 330.615 64.0266 327.297 64.0063C323.978 63.9861 320.723 63.0905 317.862 61.41L315.922 68.58C312.402 80.35 309.922 84.9 309.922 84.9C308.556 88.0932 306.927 91.1671 305.052 94.09C303.772 96 302.122 97.92 299.862 98.65C299.076 98.9251 298.235 99.0041 297.412 98.88C296.518 98.7816 295.656 98.4953 294.882 98.04C293.396 96.9224 292.214 95.4511 291.442 93.76C290.485 91.8826 289.627 89.9566 288.872 87.99C287.192 83.93 284.622 73.93 284.622 73.93L281.952 63.46L279.282 52.91L277.382 45.97C272.382 27.97 265.462 19.05 265.462 19.05C260.018 11.2946 252.309 5.4125 243.392 2.21002C233.062 -1.49998 222.212 0.590024 222.212 0.590024C205.212 3.93002 196.282 15.59 192.352 21.2C194.149 21.6733 195.87 22.4007 197.462 23.36C199.586 24.6339 201.422 26.3368 202.852 28.36C205.422 32 205.992 36.53 206.512 40.86C207.566 50.2361 209.399 59.5081 211.992 68.58C217.742 49.48 224.662 40.58 224.662 40.58C225.434 39.6207 226.36 38.7962 227.402 38.14C227.942 37.8028 228.549 37.5878 229.182 37.51C230.351 37.3976 231.524 37.6829 232.512 38.32C232.692 38.439 232.863 38.5728 233.022 38.72C233.924 39.5193 234.696 40.4538 235.312 41.49C236.752 44.0618 238.002 46.7356 239.052 49.49C241.212 55.57 243.052 63 243.052 63L248.552 84.68C252.552 99.42 255.942 106.58 255.942 106.58C264.282 125.7 277.052 131.08 277.052 131.08C283.272 134.404 290.19 136.21 297.242 136.35C303.97 136.539 310.644 135.105 316.702 132.17C323.323 128.894 329.13 124.183 333.702 118.38C336.792 114.8 341.332 106.08 341.332 106.08C346.353 96.0849 350.292 85.5819 353.082 74.75C354.864 68.0014 356.3 61.1658 357.382 54.27C357.922 50.85 358.432 47.41 358.832 43.96C359.346 40.6938 359.248 37.3602 358.542 34.13C358.393 33.5494 358.209 32.9784 357.992 32.42C356.384 28.3643 353.4 25.0042 349.562 22.93C346.755 21.4443 343.627 20.6716 340.452 20.68V20.68Z" fill="url(#paint31_radial)"/>
<path d="M340.452 20.68C338.863 20.6758 337.28 20.8741 335.742 21.27C339.244 26.3404 342.219 31.7551 344.622 37.43C345.723 39.8681 346.285 42.5148 346.272 45.19C346.264 48.5087 345.381 51.7667 343.711 54.6348C342.042 57.503 339.645 59.8798 336.763 61.5253C333.881 63.1707 330.615 64.0266 327.297 64.0063C323.978 63.9861 320.723 63.0905 317.862 61.41L315.922 68.58C312.402 80.35 309.922 84.9 309.922 84.9C308.556 88.0932 306.927 91.1671 305.052 94.09C303.772 96 302.122 97.92 299.862 98.65C299.076 98.9251 298.235 99.0041 297.412 98.88C296.518 98.7816 295.656 98.4953 294.882 98.04C293.396 96.9224 292.214 95.4511 291.442 93.76C290.485 91.8826 289.627 89.9566 288.872 87.99C287.192 83.93 284.622 73.93 284.622 73.93L281.952 63.46L279.282 52.91L277.382 45.97C272.382 27.97 265.462 19.05 265.462 19.05C260.018 11.2946 252.309 5.4125 243.392 2.21002C233.062 -1.49998 222.212 0.590024 222.212 0.590024C205.212 3.93002 196.282 15.59 192.352 21.2C194.149 21.6733 195.87 22.4007 197.462 23.36C199.586 24.6339 201.422 26.3368 202.852 28.36C205.422 32 205.992 36.53 206.512 40.86C207.566 50.2361 209.399 59.5081 211.992 68.58C217.742 49.48 224.662 40.58 224.662 40.58C225.434 39.6207 226.36 38.7962 227.402 38.14C227.942 37.8028 228.549 37.5878 229.182 37.51C230.351 37.3976 231.524 37.6829 232.512 38.32C232.692 38.439 232.863 38.5728 233.022 38.72C233.924 39.5193 234.696 40.4538 235.312 41.49C236.752 44.0618 238.002 46.7356 239.052 49.49C241.212 55.57 243.052 63 243.052 63L248.552 84.68C252.552 99.42 255.942 106.58 255.942 106.58C264.282 125.7 277.052 131.08 277.052 131.08C283.272 134.404 290.19 136.21 297.242 136.35C303.97 136.539 310.644 135.105 316.702 132.17C323.323 128.894 329.13 124.183 333.702 118.38C336.792 114.8 341.332 106.08 341.332 106.08C346.353 96.0849 350.292 85.5819 353.082 74.75C354.864 68.0014 356.3 61.1658 357.382 54.27C357.922 50.85 358.432 47.41 358.832 43.96C359.346 40.6938 359.248 37.3602 358.542 34.13C358.393 33.5494 358.209 32.9784 357.992 32.42C356.384 28.3643 353.4 25.0042 349.562 22.93C346.755 21.4443 343.627 20.6716 340.452 20.68V20.68Z" fill="url(#paint32_linear)"/>
<path d="M212.08 68.9202C214.176 76.2862 217.031 83.4145 220.6 90.1901C222.23 93.1901 223.85 96.1901 226.82 98.0801C227.33 98.4005 227.892 98.6306 228.48 98.7601C232.85 99.6901 235.23 96.1802 236.78 92.9702C239.07 87.9302 240.926 82.7047 242.33 77.3502C242.6 76.3502 242.86 75.3502 243.12 74.3502C243.62 72.4402 244.12 70.5101 244.54 68.5801L263.79 17.1801C267.785 11.858 272.965 7.53932 278.918 4.56605C284.872 1.59278 291.436 0.0466879 298.09 0.0501814C307.676 -0.0112286 316.996 3.19883 324.51 9.15016C337.1 18.6602 344.58 37.4202 344.58 37.4202C345.681 39.8583 346.244 42.505 346.23 45.1801C346.221 49.0496 345.021 52.8225 342.795 55.9871C340.568 59.1517 337.422 61.5548 333.783 62.8704C330.144 64.1861 326.188 64.3505 322.453 63.3416C318.717 62.3326 315.382 60.199 312.9 57.2302L312.72 57.0101C311.518 55.3731 310.511 53.6011 309.72 51.7302C308.682 49.3789 307.524 47.0825 306.25 44.8502C305.57 43.7002 304.81 42.6102 304.02 41.5302C303.349 40.5624 302.552 39.6881 301.65 38.9301C299.88 37.5001 297.65 36.9302 295.58 38.1602L295.28 38.3502C293.14 39.8202 291.65 42.7901 290.6 45.0701C287.65 51.5301 285.88 58.1501 284.19 64.9501C283.86 66.2601 283.55 67.5701 283.19 68.8901L275.25 94.8901L264.04 119.61C260.024 124.789 254.887 128.989 249.013 131.896C243.14 134.802 236.683 136.339 230.13 136.39C202.91 136.97 189.98 112.39 189.98 112.39C174.47 86.9501 169.9 53.3902 168.81 42.6602C168.59 40.4302 168.57 39.1002 168.57 39.1002C168.577 35.7385 169.501 32.4424 171.242 29.5667C172.982 26.6909 175.475 24.3446 178.45 22.7802C181.528 21.221 184.953 20.4741 188.4 20.6102C191.604 20.7476 194.721 21.6937 197.46 23.3602C199.585 24.6341 201.421 26.337 202.85 28.3602C205.42 32.0002 205.99 36.5302 206.51 40.8602C207.571 50.354 209.435 59.7409 212.08 68.9202V68.9202Z" fill="url(#paint33_linear)"/>
<path d="M212.08 68.9202C214.176 76.2862 217.031 83.4145 220.6 90.1901C222.23 93.1901 223.85 96.1901 226.82 98.0801C227.33 98.4005 227.892 98.6306 228.48 98.7601C232.85 99.6901 235.23 96.1802 236.78 92.9702C239.07 87.9302 240.926 82.7047 242.33 77.3502C242.6 76.3502 242.86 75.3502 243.12 74.3502C243.62 72.4402 244.12 70.5101 244.54 68.5801L263.79 17.1801C267.785 11.858 272.965 7.53932 278.918 4.56605C284.872 1.59278 291.436 0.0466879 298.09 0.0501814C307.676 -0.0112286 316.996 3.19883 324.51 9.15016C337.1 18.6602 344.58 37.4202 344.58 37.4202C345.681 39.8583 346.244 42.505 346.23 45.1801C346.221 49.0496 345.021 52.8225 342.795 55.9871C340.568 59.1517 337.422 61.5548 333.783 62.8704C330.144 64.1861 326.188 64.3505 322.453 63.3416C318.717 62.3326 315.382 60.199 312.9 57.2302L312.72 57.0101C311.518 55.3731 310.511 53.6011 309.72 51.7302C308.682 49.3789 307.524 47.0825 306.25 44.8502C305.57 43.7002 304.81 42.6102 304.02 41.5302C303.349 40.5624 302.552 39.6881 301.65 38.9301C299.88 37.5001 297.65 36.9302 295.58 38.1602L295.28 38.3502C293.14 39.8202 291.65 42.7901 290.6 45.0701C287.65 51.5301 285.88 58.1501 284.19 64.9501C283.86 66.2601 283.55 67.5701 283.19 68.8901L275.25 94.8901L264.04 119.61C260.024 124.789 254.887 128.989 249.013 131.896C243.14 134.802 236.683 136.339 230.13 136.39C202.91 136.97 189.98 112.39 189.98 112.39C174.47 86.9501 169.9 53.3902 168.81 42.6602C168.59 40.4302 168.57 39.1002 168.57 39.1002C168.577 35.7385 169.501 32.4424 171.242 29.5667C172.982 26.6909 175.475 24.3446 178.45 22.7802C181.528 21.221 184.953 20.4741 188.4 20.6102C191.604 20.7476 194.721 21.6937 197.46 23.3602C199.585 24.6341 201.421 26.337 202.85 28.3602C205.42 32.0002 205.99 36.5302 206.51 40.8602C207.571 50.354 209.435 59.7409 212.08 68.9202V68.9202Z" fill="url(#paint34_linear)"/>
<path d="M263.789 17.19C267.784 11.8679 272.963 7.54915 278.917 4.57588C284.87 1.6026 291.434 0.0564536 298.089 0.059947C307.675 -0.00146302 316.994 3.20865 324.509 9.15998C337.099 18.67 344.579 37.4299 344.579 37.4299C345.68 39.868 346.243 42.5148 346.229 45.19C346.22 49.0594 345.02 52.8324 342.793 55.997C340.567 59.1615 337.42 61.5646 333.781 62.8803C330.143 64.1959 326.187 64.3603 322.451 63.3513C318.716 62.3423 315.381 60.2087 312.899 57.2399L312.719 57.02C311.517 55.3829 310.51 53.6109 309.719 51.7399C308.681 49.3887 307.523 47.0924 306.249 44.86C305.569 43.71 304.809 42.62 304.019 41.54C303.348 40.5723 302.551 39.6979 301.649 38.94C299.879 37.51 297.649 36.94 295.579 38.17L295.279 38.36C293.139 39.83 291.649 42.8 290.599 45.08L263.789 17.19Z" fill="url(#paint35_linear)"/>
</g>
<defs>
<radialGradient id="paint0_radial" cx="0" cy="0" r="1" gradientUnits="userSpaceOnUse" gradientTransform="translate(278.384 56.1596) rotate(74.32) scale(70.85 53.846)">
<stop stop-color="#C0C0BF"/>
<stop offset="0.35" stop-color="#C0C0BF" stop-opacity="0.52"/>
<stop offset="0.64" stop-color="#C0C0BF" stop-opacity="0.15"/>
<stop offset="0.78" stop-color="#C0C0BF" stop-opacity="0"/>
</radialGradient>
<radialGradient id="paint1_radial" cx="0" cy="0" r="1" gradientUnits="userSpaceOnUse" gradientTransform="translate(288.57 56.808) rotate(91.1458) scale(47.9096 36.4063)">
<stop stop-color="#C0C0C0"/>
<stop offset="0.03" stop-color="#C0C0C0" stop-opacity="0.97"/>
<stop offset="0.47" stop-color="#C0C0C0" stop-opacity="0.45"/>
<stop offset="0.78" stop-color="#C0C0C0" stop-opacity="0.13"/>
<stop offset="0.92" stop-color="#C0C0C0" stop-opacity="0"/>
</radialGradient>
<radialGradient id="paint2_radial" cx="0" cy="0" r="1" gradientUnits="userSpaceOnUse" gradientTransform="translate(287.849 53.6928) rotate(88.6) scale(44.66 31.7086)">
<stop stop-color="#C0C0C0"/>
<stop offset="0.07" stop-color="#C0C0C0" stop-opacity="0.89"/>
<stop offset="0.29" stop-color="#C0C0C0" stop-opacity="0.58"/>
<stop offset="0.5" stop-color="#C0C0C0" stop-opacity="0.33"/>
<stop offset="0.68" stop-color="#C0C0C0" stop-opacity="0.15"/>
<stop offset="0.82" stop-color="#C0C0C0" stop-opacity="0.04"/>
<stop offset="0.92" stop-color="#C0C0C0" stop-opacity="0"/>
</radialGradient>
<radialGradient id="paint3_radial" cx="0" cy="0" r="1" gradientUnits="userSpaceOnUse" gradientTransform="translate(288.606 51.6572) rotate(88.6) scale(36.06 25.6026)">
<stop stop-color="#C0C0C0"/>
<stop offset="0.24" stop-color="#C0C0C0" stop-opacity="0.76"/>
<stop offset="0.77" stop-color="#C0C0C0" stop-opacity="0.17"/>
<stop offset="0.92" stop-color="#C0C0C0" stop-opacity="0"/>
</radialGradient>
<radialGradient id="paint4_radial" cx="0" cy="0" r="1" gradientUnits="userSpaceOnUse" gradientTransform="translate(288.04 53.7273) rotate(88.6) scale(28.76 18.4064)">
<stop stop-color="#BFBFBF"/>
<stop offset="0.11" stop-color="#BFBFBF" stop-opacity="0.96"/>
<stop offset="0.27" stop-color="#BFBFBF" stop-opacity="0.84"/>
<stop offset="0.47" stop-color="#BFBFBF" stop-opacity="0.65"/>
<stop offset="0.7" stop-color="#BFBFBF" stop-opacity="0.39"/>
<stop offset="0.96" stop-color="#BFBFBF" stop-opacity="0.06"/>
<stop offset="1" stop-color="#BFBFBF" stop-opacity="0"/>
</radialGradient>
<radialGradient id="paint5_radial" cx="0" cy="0" r="1" gradientUnits="userSpaceOnUse" gradientTransform="translate(291.755 55.4602) rotate(23.8) scale(46.28 34.71)">
<stop stop-color="#BFBFBF"/>
<stop offset="0.18" stop-color="#BFBFBF" stop-opacity="0.77"/>
<stop offset="0.53" stop-color="#BFBFBF" stop-opacity="0.36"/>
<stop offset="0.78" stop-color="#BFBFBF" stop-opacity="0.1"/>
<stop offset="0.9" stop-color="#BFBFBF" stop-opacity="0"/>
</radialGradient>
<radialGradient id="paint6_radial" cx="0" cy="0" r="1" gradientUnits="userSpaceOnUse" gradientTransform="translate(276.65 -10.0745) rotate(35.2724) scale(61.7198 56.4337)">
<stop stop-color="#EFEFEF"/>
<stop offset="0.13" stop-color="#EFEFEF" stop-opacity="0.81"/>
<stop offset="0.44" stop-color="#EFEFEF" stop-opacity="0.38"/>
<stop offset="0.65" stop-color="#EFEFEF" stop-opacity="0.11"/>
<stop offset="0.76" stop-color="#EFEFEF" stop-opacity="0"/>
</radialGradient>
<radialGradient id="paint7_radial" cx="0" cy="0" r="1" gradientUnits="userSpaceOnUse" gradientTransform="translate(245.863 -15.3022) rotate(35.2724) scale(61.7198 56.4337)">
<stop stop-color="#E7E7E7"/>
<stop offset="0.11" stop-color="#E7E7E7" stop-opacity="0.84"/>
<stop offset="0.43" stop-color="#E7E7E7" stop-opacity="0.39"/>
<stop offset="0.65" stop-color="#E7E7E7" stop-opacity="0.11"/>
<stop offset="0.76" stop-color="#E7E7E7" stop-opacity="0"/>
</radialGradient>
<radialGradient id="paint8_radial" cx="0" cy="0" r="1" gradientUnits="userSpaceOnUse" gradientTransform="translate(302.413 68.7222) rotate(101.15) scale(54.53 67.0719)">
<stop stop-color="#BFBFBF"/>
<stop offset="0.01" stop-color="#BFBFBF" stop-opacity="0.97"/>
<stop offset="0.12" stop-color="#BFBFBF" stop-opacity="0.68"/>
<stop offset="0.22" stop-color="#BFBFBF" stop-opacity="0.44"/>
<stop offset="0.32" stop-color="#BFBFBF" stop-opacity="0.25"/>
<stop offset="0.42" stop-color="#BFBFBF" stop-opacity="0.11"/>
<stop offset="0.5" stop-color="#BFBFBF" stop-opacity="0.03"/>
<stop offset="0.56" stop-color="#BFBFBF" stop-opacity="0"/>
</radialGradient>
<radialGradient id="paint9_radial" cx="0" cy="0" r="1" gradientUnits="userSpaceOnUse" gradientTransform="translate(270.9 70.4158) rotate(-51.0725) scale(71.3182 76.873)">
<stop stop-color="#C6C6C6"/>
<stop offset="0.2" stop-color="#C6C6C6" stop-opacity="0.65"/>
<stop offset="0.42" stop-color="#C6C6C6" stop-opacity="0.3"/>
<stop offset="0.57" stop-color="#C6C6C6" stop-opacity="0.08"/>
<stop offset="0.65" stop-color="#C6C6C6" stop-opacity="0"/>
</radialGradient>
<radialGradient id="paint10_radial" cx="0" cy="0" r="1" gradientUnits="userSpaceOnUse" gradientTransform="translate(263.069 77.3454) rotate(-31.66) scale(69.39 54.8181)">
<stop offset="0.05" stop-color="#C6C6C6"/>
<stop offset="0.12" stop-color="#C6C6C6" stop-opacity="0.79"/>
<stop offset="0.2" stop-color="#C6C6C6" stop-opacity="0.55"/>
<stop offset="0.29" stop-color="#C6C6C6" stop-opacity="0.35"/>
<stop offset="0.37" stop-color="#C6C6C6" stop-opacity="0.2"/>
<stop offset="0.45" stop-color="#C6C6C6" stop-opacity="0.09"/>
<stop offset="0.53" stop-color="#C6C6C6" stop-opacity="0.02"/>
<stop offset="0.6" stop-color="#C6C6C6" stop-opacity="0"/>
</radialGradient>
<radialGradient id="paint11_radial" cx="0" cy="0" r="1" gradientUnits="userSpaceOnUse" gradientTransform="translate(88361.7 26793.9) rotate(-31.66) scale(12327.8 7474.5)">
<stop offset="0.05" stop-color="#C6C6C6"/>
<stop offset="0.12" stop-color="#C6C6C6" stop-opacity="0.79"/>
<stop offset="0.2" stop-color="#C6C6C6" stop-opacity="0.55"/>
<stop offset="0.29" stop-color="#C6C6C6" stop-opacity="0.35"/>
<stop offset="0.37" stop-color="#C6C6C6" stop-opacity="0.2"/>
<stop offset="0.45" stop-color="#C6C6C6" stop-opacity="0.09"/>
<stop offset="0.53" stop-color="#C6C6C6" stop-opacity="0.02"/>
<stop offset="0.6" stop-color="#C6C6C6" stop-opacity="0"/>
</radialGradient>
<radialGradient id="paint12_radial" cx="0" cy="0" r="1" gradientUnits="userSpaceOnUse" gradientTransform="translate(246.568 82.0532) rotate(-130.539) scale(41.3421 32.5536)">
<stop offset="0.26" stop-color="#C6C6C6"/>
<stop offset="0.29" stop-color="#C6C6C6" stop-opacity="0.93"/>
<stop offset="0.38" stop-color="#C6C6C6" stop-opacity="0.68"/>
<stop offset="0.48" stop-color="#C6C6C6" stop-opacity="0.47"/>
<stop offset="0.58" stop-color="#C6C6C6" stop-opacity="0.3"/>
<stop offset="0.68" stop-color="#C6C6C6" stop-opacity="0.17"/>
<stop offset="0.78" stop-color="#C6C6C6" stop-opacity="0.07"/>
<stop offset="0.89" stop-color="#C6C6C6" stop-opacity="0.02"/>
<stop offset="1" stop-color="#C6C6C6" stop-opacity="0"/>
</radialGradient>
<radialGradient id="paint13_radial" cx="0" cy="0" r="1" gradientUnits="userSpaceOnUse" gradientTransform="translate(239.607 95.6695) rotate(-173.11) scale(38.78)">
<stop stop-color="#C6C6C6"/>
<stop offset="0.04" stop-color="#C6C6C6" stop-opacity="0.9"/>
<stop offset="0.16" stop-color="#C6C6C6" stop-opacity="0.63"/>
<stop offset="0.27" stop-color="#C6C6C6" stop-opacity="0.41"/>
<stop offset="0.38" stop-color="#C6C6C6" stop-opacity="0.23"/>
<stop offset="0.49" stop-color="#C6C6C6" stop-opacity="0.1"/>
<stop offset="0.58" stop-color="#C6C6C6" stop-opacity="0.03"/>
<stop offset="0.66" stop-color="#C6C6C6" stop-opacity="0"/>
</radialGradient>
<radialGradient id="paint14_radial" cx="0" cy="0" r="1" gradientUnits="userSpaceOnUse" gradientTransform="translate(239.184 97.6918) rotate(-119.389) scale(27.0793 22.7064)">
<stop offset="0.13" stop-color="#C6C6C6"/>
<stop offset="0.28" stop-color="#C6C6C6" stop-opacity="0.72"/>
<stop offset="0.45" stop-color="#C6C6C6" stop-opacity="0.46"/>
<stop offset="0.6" stop-color="#C6C6C6" stop-opacity="0.26"/>
<stop offset="0.74" stop-color="#C6C6C6" stop-opacity="0.12"/>
<stop offset="0.86" stop-color="#C6C6C6" stop-opacity="0.03"/>
<stop offset="0.95" stop-color="#C6C6C6" stop-opacity="0"/>
</radialGradient>
<radialGradient id="paint15_radial" cx="0" cy="0" r="1" gradientUnits="userSpaceOnUse" gradientTransform="translate(238.98 86.7874) rotate(-56.2) scale(25.48 20.1292)">
<stop stop-color="#C6C6C6"/>
<stop offset="0.25" stop-color="#C6C6C6" stop-opacity="0.69"/>
<stop offset="0.5" stop-color="#C6C6C6" stop-opacity="0.39"/>
<stop offset="0.72" stop-color="#C6C6C6" stop-opacity="0.18"/>
<stop offset="0.9" stop-color="#C6C6C6" stop-opacity="0.05"/>
<stop offset="1" stop-color="#C6C6C6" stop-opacity="0"/>
</radialGradient>
<linearGradient id="paint16_linear" x1="186.71" y1="-3.09982" x2="252.12" y2="57.4302" gradientUnits="userSpaceOnUse">
<stop stop-color="#F9F9F8"/>
<stop offset="0.05" stop-color="#F9F9F8" stop-opacity="0.9"/>
<stop offset="0.23" stop-color="#F9F9F8" stop-opacity="0.52"/>
<stop offset="0.38" stop-color="#F9F9F8" stop-opacity="0.24"/>
<stop offset="0.49" stop-color="#F9F9F8" stop-opacity="0.07"/>
<stop offset="0.54" stop-color="#F9F9F8" stop-opacity="0"/>
</linearGradient>
<linearGradient id="paint17_linear" x1="251.74" y1="48.6002" x2="299.9" y2="127.15" gradientUnits="userSpaceOnUse">
<stop offset="0.62" stop-color="#ECECEC" stop-opacity="0"/>
<stop offset="0.66" stop-color="#ECECEC" stop-opacity="0.07"/>
<stop offset="0.74" stop-color="#ECECEC" stop-opacity="0.25"/>
<stop offset="0.85" stop-color="#ECECEC" stop-opacity="0.55"/>
<stop offset="0.98" stop-color="#ECECEC" stop-opacity="0.95"/>
<stop offset="1" stop-color="#ECECEC"/>
</linearGradient>
<radialGradient id="paint18_radial" cx="0" cy="0" r="1" gradientUnits="userSpaceOnUse" gradientTransform="translate(310.618 63.4465) rotate(98.69) scale(85.26 56.2716)">
<stop stop-color="#999899"/>
<stop offset="0.39" stop-color="#B1B1B1" stop-opacity="0.43"/>
<stop offset="0.7" stop-color="#C3C3C3" stop-opacity="0"/>
</radialGradient>
<radialGradient id="paint19_radial" cx="0" cy="0" r="1" gradientUnits="userSpaceOnUse" gradientTransform="translate(-63552.7 54849.3) rotate(98.69) scale(14221.7 7673.37)">
<stop stop-color="#999899"/>
<stop offset="0.39" stop-color="#B1B1B1" stop-opacity="0.43"/>
<stop offset="0.7" stop-color="#C3C3C3" stop-opacity="0"/>
</radialGradient>
<radialGradient id="paint20_radial" cx="0" cy="0" r="1" gradientUnits="userSpaceOnUse" gradientTransform="translate(313.425 68.5004) rotate(98.69) scale(62.83 41.4678)">
<stop stop-color="#CECECE"/>
<stop offset="0.47" stop-color="#CECECE" stop-opacity="0.32"/>
<stop offset="0.7" stop-color="#CECECE" stop-opacity="0"/>
</radialGradient>
<radialGradient id="paint21_radial" cx="0" cy="0" r="1" gradientUnits="userSpaceOnUse" gradientTransform="translate(305.937 54.7363) rotate(98.6156) scale(74.8271 37.839)">
<stop stop-color="#C3C3C3"/>
<stop offset="0.45" stop-color="#C3C3C3" stop-opacity="0.33"/>
<stop offset="0.7" stop-color="#C3C3C3" stop-opacity="0"/>
</radialGradient>
<radialGradient id="paint22_radial" cx="0" cy="0" r="1" gradientUnits="userSpaceOnUse" gradientTransform="translate(298.251 60.2252) rotate(82.95) scale(74.73 52.311)">
<stop stop-color="#C3C3C3"/>
<stop offset="0.07" stop-color="#C3C3C3" stop-opacity="0.86"/>
<stop offset="0.23" stop-color="#C3C3C3" stop-opacity="0.56"/>
<stop offset="0.38" stop-color="#C3C3C3" stop-opacity="0.32"/>
<stop offset="0.52" stop-color="#C3C3C3" stop-opacity="0.14"/>
<stop offset="0.63" stop-color="#C3C3C3" stop-opacity="0.04"/>
<stop offset="0.7" stop-color="#C3C3C3" stop-opacity="0"/>
</radialGradient>
<radialGradient id="paint23_radial" cx="0" cy="0" r="1" gradientUnits="userSpaceOnUse" gradientTransform="translate(313.362 72.4051) rotate(74.64) scale(71.62 48.7016)">
<stop stop-color="#C3C3C3"/>
<stop offset="0.46" stop-color="#C3C3C3" stop-opacity="0.33"/>
<stop offset="0.7" stop-color="#C3C3C3" stop-opacity="0"/>
</radialGradient>
<radialGradient id="paint24_radial" cx="0" cy="0" r="1" gradientUnits="userSpaceOnUse" gradientTransform="translate(307.143 91.2469) rotate(74.64) scale(33.3 31.635)">
<stop stop-color="#C3C3C3"/>
<stop offset="0.07" stop-color="#C3C3C3" stop-opacity="0.82"/>
<stop offset="0.18" stop-color="#C3C3C3" stop-opacity="0.57"/>
<stop offset="0.3" stop-color="#C3C3C3" stop-opacity="0.37"/>
<stop offset="0.4" stop-color="#C3C3C3" stop-opacity="0.21"/>
<stop offset="0.51" stop-color="#C3C3C3" stop-opacity="0.09"/>
<stop offset="0.61" stop-color="#C3C3C3" stop-opacity="0.02"/>
<stop offset="0.7" stop-color="#C3C3C3" stop-opacity="0"/>
</radialGradient>
<radialGradient id="paint25_radial" cx="0" cy="0" r="1" gradientUnits="userSpaceOnUse" gradientTransform="translate(307.942 96.9276) rotate(74.64) scale(33.3 31.635)">
<stop stop-color="#C3C3C3" stop-opacity="0.8"/>
<stop offset="0.11" stop-color="#C3C3C3" stop-opacity="0.63"/>
<stop offset="0.31" stop-color="#C3C3C3" stop-opacity="0.36"/>
<stop offset="0.48" stop-color="#C3C3C3" stop-opacity="0.16"/>
<stop offset="0.61" stop-color="#C3C3C3" stop-opacity="0.04"/>
<stop offset="0.7" stop-color="#C3C3C3" stop-opacity="0"/>
</radialGradient>
<radialGradient id="paint26_radial" cx="0" cy="0" r="1" gradientUnits="userSpaceOnUse" gradientTransform="translate(220.595 77.6643) rotate(66.83) scale(79.53 52.4898)">
<stop stop-color="#C3C3C3"/>
<stop offset="0.4" stop-color="#C3C3C3" stop-opacity="0.56"/>
<stop offset="0.53" stop-color="#C3C3C3" stop-opacity="0.34"/>
<stop offset="0.71" stop-color="#C3C3C3" stop-opacity="0.1"/>
<stop offset="0.79" stop-color="#C3C3C3" stop-opacity="0"/>
</radialGradient>
<radialGradient id="paint27_radial" cx="0" cy="0" r="1" gradientUnits="userSpaceOnUse" gradientTransform="translate(216.598 58.5625) rotate(75.9) scale(58.99 38.9334)">
<stop stop-color="#C3C3C3"/>
<stop offset="0.02" stop-color="#C3C3C3" stop-opacity="0.96"/>
<stop offset="0.15" stop-color="#C3C3C3" stop-opacity="0.71"/>
<stop offset="0.29" stop-color="#C3C3C3" stop-opacity="0.49"/>
<stop offset="0.42" stop-color="#C3C3C3" stop-opacity="0.31"/>
<stop offset="0.56" stop-color="#C3C3C3" stop-opacity="0.18"/>
<stop offset="0.7" stop-color="#C3C3C3" stop-opacity="0.08"/>
<stop offset="0.85" stop-color="#C3C3C3" stop-opacity="0.02"/>
<stop offset="1" stop-color="#C3C3C3" stop-opacity="0"/>
</radialGradient>
<radialGradient id="paint28_radial" cx="0" cy="0" r="1" gradientUnits="userSpaceOnUse" gradientTransform="translate(216.598 58.5625) rotate(75.9) scale(58.99 38.9334)">
<stop stop-color="#C3C3C3"/>
<stop offset="0.02" stop-color="#C3C3C3" stop-opacity="0.96"/>
<stop offset="0.15" stop-color="#C3C3C3" stop-opacity="0.71"/>
<stop offset="0.29" stop-color="#C3C3C3" stop-opacity="0.49"/>
<stop offset="0.42" stop-color="#C3C3C3" stop-opacity="0.31"/>
<stop offset="0.56" stop-color="#C3C3C3" stop-opacity="0.18"/>
<stop offset="0.7" stop-color="#C3C3C3" stop-opacity="0.08"/>
<stop offset="0.85" stop-color="#C3C3C3" stop-opacity="0.02"/>
<stop offset="1" stop-color="#C3C3C3" stop-opacity="0"/>
</radialGradient>
<radialGradient id="paint29_radial" cx="0" cy="0" r="1" gradientUnits="userSpaceOnUse" gradientTransform="translate(216.598 58.5625) rotate(75.9) scale(58.99 38.9334)">
<stop stop-color="#C3C3C3"/>
<stop offset="0.02" stop-color="#C3C3C3" stop-opacity="0.96"/>
<stop offset="0.15" stop-color="#C3C3C3" stop-opacity="0.71"/>
<stop offset="0.29" stop-color="#C3C3C3" stop-opacity="0.49"/>
<stop offset="0.42" stop-color="#C3C3C3" stop-opacity="0.31"/>
<stop offset="0.56" stop-color="#C3C3C3" stop-opacity="0.18"/>
<stop offset="0.7" stop-color="#C3C3C3" stop-opacity="0.08"/>
<stop offset="0.85" stop-color="#C3C3C3" stop-opacity="0.02"/>
<stop offset="1" stop-color="#C3C3C3" stop-opacity="0"/>
</radialGradient>
<radialGradient id="paint30_radial" cx="0" cy="0" r="1" gradientUnits="userSpaceOnUse" gradientTransform="translate(-40728.3 60053.3) rotate(75.9) scale(7527.88 4061.68)">
<stop stop-color="#C3C3C3"/>
<stop offset="0.02" stop-color="#C3C3C3" stop-opacity="0.96"/>
<stop offset="0.15" stop-color="#C3C3C3" stop-opacity="0.71"/>
<stop offset="0.29" stop-color="#C3C3C3" stop-opacity="0.49"/>
<stop offset="0.42" stop-color="#C3C3C3" stop-opacity="0.31"/>
<stop offset="0.56" stop-color="#C3C3C3" stop-opacity="0.18"/>
<stop offset="0.7" stop-color="#C3C3C3" stop-opacity="0.08"/>
<stop offset="0.85" stop-color="#C3C3C3" stop-opacity="0.02"/>
<stop offset="1" stop-color="#C3C3C3" stop-opacity="0"/>
</radialGradient>
<radialGradient id="paint31_radial" cx="0" cy="0" r="1" gradientUnits="userSpaceOnUse" gradientTransform="translate(227.426 59.7197) rotate(86.95) scale(35.59 31.6751)">
<stop stop-color="#BCBBBB"/>
<stop offset="0.12" stop-color="#BCBBBB" stop-opacity="0.87"/>
<stop offset="0.36" stop-color="#BCBBBB" stop-opacity="0.54"/>
<stop offset="0.71" stop-color="#BCBBBB" stop-opacity="0.02"/>
<stop offset="0.73" stop-color="#BCBBBB" stop-opacity="0"/>
</radialGradient>
<linearGradient id="paint32_linear" x1="303.232" y1="-25.45" x2="262.962" y2="74.09" gradientUnits="userSpaceOnUse">
<stop stop-color="#F7F8F8"/>
<stop offset="0.05" stop-color="#F7F8F8" stop-opacity="0.9"/>
<stop offset="0.17" stop-color="#F7F8F8" stop-opacity="0.65"/>
<stop offset="0.33" stop-color="#F7F8F8" stop-opacity="0.25"/>
<stop offset="0.43" stop-color="#F7F8F8" stop-opacity="0"/>
</linearGradient>
<linearGradient id="paint33_linear" x1="169.91" y1="93.0202" x2="256.02" y2="62.3302" gradientUnits="userSpaceOnUse">
<stop stop-color="#F6F6F6"/>
<stop offset="0.03" stop-color="#F6F6F6" stop-opacity="0.91"/>
<stop offset="0.16" stop-color="#F6F6F6" stop-opacity="0.53"/>
<stop offset="0.27" stop-color="#F6F6F6" stop-opacity="0.24"/>
<stop offset="0.34" stop-color="#F6F6F6" stop-opacity="0.07"/>
<stop offset="0.38" stop-color="#F6F6F6" stop-opacity="0"/>
</linearGradient>
<linearGradient id="paint34_linear" x1="149.68" y1="95.6802" x2="226.08" y2="74.0202" gradientUnits="userSpaceOnUse">
<stop stop-color="#FBFBFA"/>
<stop offset="0.05" stop-color="#FBFBFA" stop-opacity="0.89"/>
<stop offset="0.24" stop-color="#FBFBFA" stop-opacity="0.51"/>
<stop offset="0.39" stop-color="#FBFBFA" stop-opacity="0.24"/>
<stop offset="0.5" stop-color="#FBFBFA" stop-opacity="0.07"/>
<stop offset="0.55" stop-color="#FBFBFA" stop-opacity="0"/>
</linearGradient>
<linearGradient id="paint35_linear" x1="306.439" y1="36.98" x2="313.649" y2="71.22" gradientUnits="userSpaceOnUse">
<stop offset="0.33" stop-color="#E2E2E1" stop-opacity="0"/>
<stop offset="0.39" stop-color="#E2E2E1" stop-opacity="0.03"/>
<stop offset="0.47" stop-color="#E2E2E1" stop-opacity="0.1"/>
<stop offset="0.56" stop-color="#E2E2E1" stop-opacity="0.23"/>
<stop offset="0.66" stop-color="#E2E2E1" stop-opacity="0.4"/>
<stop offset="0.77" stop-color="#E2E2E1" stop-opacity="0.63"/>
<stop offset="0.88" stop-color="#E2E2E1" stop-opacity="0.9"/>
<stop offset="0.92" stop-color="#E2E2E1"/>
</linearGradient>
<clipPath id="clip0">
<rect width="528.33" height="386.37" fill="white"/>
</clipPath>
</defs>
</svg>
